<?xml version="1.0" encoding="utf-8"?>
<!-- Generator: Adobe Illustrator 28.2.0, SVG Export Plug-In . SVG Version: 6.00 Build 0)  -->
<svg version="1.1" id="_x32_" xmlns="http://www.w3.org/2000/svg" xmlns:xlink="http://www.w3.org/1999/xlink" x="0px" y="0px"
	 viewBox="0 0 566.9 566.9" style="enable-background:new 0 0 566.9 566.9;" xml:space="preserve">
<style type="text/css">
	.st0{fill:#9C936D;}
</style>
<circle class="st0" cx="283.5" cy="283.5" r="283.5"/>
<g>
	<path d="M118.3,148.7c-27,33-44.2,74.2-47.4,119.3h106.4C173.3,220.7,151.3,178.7,118.3,148.7z"/>
	<path d="M70.9,299c3.2,45.1,20.4,86.3,47.4,119.3c33.1-30,55-72,59-119.3H70.9z"/>
	<path d="M427.3,126.1c-34.4-31.5-79-51.7-128.4-55.3V268h59.6C362.6,211.9,388.3,161.8,427.3,126.1z"/>
	<path d="M496.1,268c-3.3-45.1-20.4-86.3-47.4-119.3c-33.1,30.1-55,72.1-59,119.3H496.1z"/>
	<path d="M208.4,268H268V70.9c-49.4,3.5-94,23.8-128.4,55.3C178.6,161.8,204.3,211.9,208.4,268z"/>
	<path d="M448.6,418.3c27-33,44.2-74.2,47.4-119.3H389.7C393.6,346.2,415.6,388.2,448.6,418.3z"/>
	<path d="M139.6,440.8c34.4,31.5,79,51.7,128.4,55.3V299h-59.6C204.3,355,178.6,405.1,139.6,440.8z"/>
	<path d="M358.5,299H299v197.1c49.4-3.6,94-23.8,128.4-55.3C388.3,405.1,362.6,355,358.5,299z"/>
</g>
</svg>
