<?xml version="1.0" encoding="utf-8"?>
<!-- Generator: Adobe Illustrator 28.2.0, SVG Export Plug-In . SVG Version: 6.00 Build 0)  -->
<svg version="1.1" id="Calque_1" xmlns="http://www.w3.org/2000/svg" xmlns:xlink="http://www.w3.org/1999/xlink" x="0px" y="0px"
	 viewBox="0 0 566.9 566.9" style="enable-background:new 0 0 566.9 566.9;" xml:space="preserve">
<style type="text/css">
	.st0{fill:#E8629F;}
</style>
<circle class="st0" cx="283.5" cy="283.5" r="283.5"/>
<g transform="translate(0.000000,640.000000) scale(0.100000,-0.100000)">
	<path d="M1590.7,4809.4L992.3,4211l287.3-287.3l287.3-287.3l6.3,6.3c8.1,8.1,31.7,8.1,37.8,0.2c3.4-4.3,58.6-7.9,235.5-15.2
		l231-9.7l20.1-42.3c23.5-50.2,109.5-221.3,144.8-288.7c69.7-133,161.8-294.3,230.8-405c166.3-265.8,294.8-428.7,468.3-592.8
		c148.9-140.7,269.7-235.3,426.9-333.7c3.2-1.8,5.4-6.3,5-10c-0.9-11.3,9.3-18.3,19.7-13.8c7.7,3.6,11.8,2.7,27.8-6.6
		c51.6-29.9,171.7-86.7,209.3-98.9c11.3-3.6,13.1-5,12.4-10.2c-0.2-3.4,1.1-7.9,3.4-10.2c4.8-4.8,18.3-4.3,23.3,0.7
		c2.3,2.3,17.4-0.7,41-7.9c48.6-14.7,93.7-25.3,141.4-33.7c41.2-7.2,124.2-15.2,150.2-14.5c15.2,0.2,16.7-0.5,31.2-14.9
		c17.6-17.6,18.1-17.6,39.4,3.6c13.8,13.8,14.7,14.3,44.1,17.4c106.1,12,218.1,51.1,306.8,106.8c35.7,22.6,85.7,71.7,107.5,105.2
		c59.7,91.9,97.1,195.3,110.9,306.8l4.5,37.6l15.2,15.2c9,9.1,15.4,17.6,15.4,20.8s-6.1,11.5-13.6,19l-13.6,14l-2,41
		c-4.5,94.6-21,185.3-48.9,270.6c-8.4,26-9.3,32.8-5.2,39.1c6.6,9.7,3.6,19.5-7.5,22.9c-7.5,2.5-10.2,7.5-26.2,47.1
		c-16.7,41.2-58.8,127.2-84.6,174.2c-9.3,16.5-10.9,22.2-8.4,31c3.2,12.2-2.7,20.8-13.3,18.3c-5.4-1.4-7.7,0-11.8,7.2
		c-9.7,17.9-55.2,86.4-82.6,125.1c-126.2,177.4-308.6,374.7-460,498c-152.9,124.9-305.4,227.2-556.3,373.5
		c-118.3,69-324.4,177.4-499.6,262.4l-62,29.9l-2,50.9c-1.1,27.8-5.7,131.5-9.7,230.1c-5.2,125.6-9.3,180.8-12.7,183.3
		c-7.5,6.1-8.4,28.7-1.4,38.5l5.9,8.1l-286,287.3l-286.4,287.3L1590.7,4809.4z"/>
</g>
</svg>
