<?xml version="1.0" encoding="utf-8"?>
<!-- Generator: Adobe Illustrator 28.2.0, SVG Export Plug-In . SVG Version: 6.00 Build 0)  -->
<svg version="1.1" id="_x32_" xmlns="http://www.w3.org/2000/svg" xmlns:xlink="http://www.w3.org/1999/xlink" x="0px" y="0px"
	 viewBox="0 0 566.9 566.9" style="enable-background:new 0 0 566.9 566.9;" xml:space="preserve">
<style type="text/css">
	.st0{fill:#9C936D;}
</style>
<circle class="st0" cx="283.5" cy="283.5" r="283.5"/>
<g>
	<path d="M206.2,87.7C82.3,134,37.1,216.7,97.3,274.9c6.4,6.2,12.5,12.3,18.3,18.3l34.9,34.9c3.6,3.6,6.3,12.6,1.4,16.9
		c-5.7,4.9-14.5,1.3-18.1-2.2l-12.3-12.4c-8.4,14.7-10.3,32.5-0.5,53.3c18.6,39.5,80.5,58.5,122.7,47.4c9.5-2.5,34-8.1,53.7-2.5
		l54,53.8c11,11,28.7,11,39.7,0l96.7-96.7c11-11,11-28.7,0-39.7l-65.9-65.9c1.3-13.2-0.2-27.5-5.3-42.9
		C375.8,111.3,309.9,48.9,206.2,87.7z M445.7,353.5l-84.3,84.3l-29.8-29.8l84.3-84.3L445.7,353.5z"/>
</g>
</svg>
