<?xml version="1.0" encoding="utf-8"?>
<!-- Generator: Adobe Illustrator 28.2.0, SVG Export Plug-In . SVG Version: 6.00 Build 0)  -->
<svg version="1.1" id="Calque_1" xmlns="http://www.w3.org/2000/svg" xmlns:xlink="http://www.w3.org/1999/xlink" x="0px" y="0px"
	 viewBox="0 0 566.9 566.9" style="enable-background:new 0 0 566.9 566.9;" xml:space="preserve">
<style type="text/css">
	.st0{fill:#E8629F;}
</style>
<circle class="st0" cx="283.5" cy="283.5" r="283.5"/>
<path d="M157.2,348.4c10.8-7.2,18-18,18-28.9c0-14.4-7.2-25.3-21.6-32.5v-43.3l129.9,57.7l198.4-90.2l-198.4-90.2L85,211.3l43.3,18
	v57.7c-14.4,7.2-21.6,18-21.6,32.5c0,10.8,7.2,21.6,18,28.9l-18,61.3c-10.8,36.1,18,36.1,18,36.1h36.1c0,0,28.9,0,18-36.1
	L157.2,348.4z"/>
<path d="M211.3,308.7c0,3.6,0,7.2,0,10.8c0,14.4-7.2,28.9-14.4,39.7c7.2,14.4,14.4,28.9,14.4,50.5v21.6c18,7.2,43.3,14.4,72.2,14.4
	c90.2,0,126.3-54.1,126.3-54.1V283.5l-126.3,57.7L211.3,308.7z"/>
</svg>
