<?xml version="1.0" encoding="utf-8"?>
<!-- Generator: Adobe Illustrator 28.2.0, SVG Export Plug-In . SVG Version: 6.00 Build 0)  -->
<svg version="1.1" id="Calque_1" xmlns="http://www.w3.org/2000/svg" xmlns:xlink="http://www.w3.org/1999/xlink" x="0px" y="0px"
	 viewBox="0 0 566.9 566.9" style="enable-background:new 0 0 566.9 566.9;" xml:space="preserve">
<style type="text/css">
	.st0{fill:#E8629F;}
</style>
<circle class="st0" cx="283.5" cy="283.5" r="283.5"/>
<g>
	<path d="M283.5,85l-41.9,127.9c-4.4,13.2-15.4,24.3-28.7,28.7L85,283.5l127.9,41.9c13.2,4.4,24.3,15.4,28.7,28.7l41.9,127.9
		L325.4,354c4.4-13.2,15.4-24.3,28.7-28.7l127.9-41.9L354,241.6c-13.2-4.4-24.3-15.4-28.7-28.7L283.5,85z"/>
	<path d="M424.6,367.2l-11,37.5c-2.2,4.4-4.4,6.6-8.8,8.8l-37.5,11l37.5,11c4.4,2.2,6.6,4.4,8.8,8.8l11,37.5l11-37.5
		c2.2-4.4,4.4-6.6,8.8-8.8l37.5-11l-37.5-11c-4.4-2.2-6.6-4.4-8.8-8.8L424.6,367.2z"/>
	<path d="M142.4,85l-13.2,37.5c0,2.2-4.4,6.6-6.6,6.6L85,142.4l37.5,11c2.2,2.2,6.6,4.4,6.6,8.8l11,37.5l11-37.5
		c2.2-4.4,4.4-6.6,8.8-8.8l37.5-11l-35.3-13.2c-4.4,0-6.6-4.4-8.8-6.6L142.4,85z"/>
</g>
</svg>
