<?xml version="1.0" encoding="utf-8"?>
<!-- Generator: Adobe Illustrator 28.2.0, SVG Export Plug-In . SVG Version: 6.00 Build 0)  -->
<svg version="1.1" id="Calque_1" xmlns="http://www.w3.org/2000/svg" xmlns:xlink="http://www.w3.org/1999/xlink" x="0px" y="0px"
	 viewBox="0 0 566.9 566.9" style="enable-background:new 0 0 566.9 566.9;" xml:space="preserve">
<style type="text/css">
	.st0{fill:#9C936D;}
</style>
<circle class="st0" cx="283.5" cy="283.5" r="283.5"/>
<g>
	<path d="M423.1,105.9c-1.1-0.7-2.6-0.8-3.8-0.2c-0.3,0.1-29.3,14.5-53.7,14.5c-12.6,0-25.6-5.1-38.1-10
		c-12.1-4.7-23.5-9.2-34.4-9.2c-11,0-25,4.6-39.9,9.4c-14.6,4.8-29.7,9.7-41.1,9.7c-18.5,0-43.3-13.2-51-17.5
		c-0.2-2-1.8-3.5-3.9-3.5h-11.4c-2.1,0-3.9,1.7-3.9,3.9v360.7c0,2.2,1.7,3.9,3.9,3.9h11.4c2.1,0,3.9-1.7,3.9-3.9V308.4
		c4.8,4.3,11.1,7.8,15.8,10.1c12.3,6,26.2,9.9,35.2,9.9c12.6,0,28.3-5.1,43.6-10.1c14.2-4.7,27.7-9.1,37.4-9.1
		c9.4,0,20.2,4.2,31.5,8.7c13.2,5.2,26.8,10.5,40.9,10.5c26.2,0,55.9-14.7,57.2-15.3c1.3-0.7,2.2-2,2.2-3.5V109.2
		C424.9,107.9,424.2,106.6,423.1,105.9L423.1,105.9z M365.6,320.6c-3.8,0-7.6-0.5-11.4-1.2v-60.4c0-0.9-0.6-1.7-1.5-1.9
		c-8.7-1.9-17.4-5.3-25.9-8.6c-11.9-4.7-23.1-9-33.7-9c-1.4,0-2.8,0.1-3.9,0.2c-1,0.1-1.8,0.9-1.8,1.9v60.2c-10,1.2-21.8,5-34.2,9.1
		c-11.1,3.6-22.4,7.3-32.3,8.9V260c0-0.6-0.2-1.1-0.7-1.5s-1-0.5-1.5-0.5c-2.8,0.4-4.9,0.5-6.7,0.5c-17.9,0-41.4-11.9-50.5-17
		l-0.4-61.9v-10.4c4.7,4.7,11.7,8.6,16.7,11c12.1,5.9,25.5,9.7,34.3,9.7c2.5,0,5.2-0.3,7.2-0.5c1-0.1,1.7-1,1.7-1.9v-60.2
		c10.7-1.6,22.9-5.5,34.7-9.4c11.6-3.8,22.7-7.4,31.8-8.6v59.8c0,0.5,0.2,1.1,0.6,1.4c0.4,0.4,0.9,0.5,1.5,0.5
		c1-0.1,2.3-0.2,3.6-0.2c9.8,0,20.7,4.3,32.3,8.8c8.6,3.3,17.4,6.8,26.5,8.8c0.1,0,0.3,0,0.4,0c0.4,0,0.9-0.1,1.2-0.4
		c0.5-0.4,0.7-0.9,0.7-1.5v-59.5c3.8,0.7,7.5,1.1,11.4,1.1c19.7,0,41.5-8.3,51.5-12.7v61.8c-7.2,3.4-30.4,13.3-51.5,13.3
		c-2.8,0-5.7-0.2-8.8-0.7c-0.6-0.1-1.1,0.1-1.6,0.4c-0.4,0.4-0.7,0.9-0.7,1.5v63.9c0,1,0.7,1.8,1.6,1.9c3.2,0.5,6.4,0.8,9.4,0.8
		c20.4,0,42.7-8.9,51.5-12.9v61.8C410,310.4,386.1,320.6,365.6,320.6L365.6,320.6z"/>
	<path d="M285.4,171.9c-9.4,1.4-20.1,4.9-31.5,8.7c-10.7,3.5-21.7,7.1-31.4,8.8c-0.9,0.2-1.6,1-1.6,1.9v63.9c0,0.6,0.3,1.1,0.7,1.5
		c0.4,0.3,0.8,0.5,1.3,0.5c0.1,0,0.2,0,0.3,0c10-1.7,21.1-5.4,31.9-8.9c11.2-3.7,21.9-7.1,30.9-8.5c1-0.1,1.7-1,1.7-1.9v-63.9
		c0-0.6-0.2-1.1-0.7-1.5C286.5,172,286,171.8,285.4,171.9z"/>
</g>
</svg>
