<?xml version="1.0" encoding="utf-8"?>
<!-- Generator: Adobe Illustrator 28.2.0, SVG Export Plug-In . SVG Version: 6.00 Build 0)  -->
<svg version="1.1" id="Calque_1" xmlns="http://www.w3.org/2000/svg" xmlns:xlink="http://www.w3.org/1999/xlink" x="0px" y="0px"
	 viewBox="0 0 566.9 566.9" style="enable-background:new 0 0 566.9 566.9;" xml:space="preserve">
<style type="text/css">
	.st0{fill:#E8629F;}
</style>
<circle class="st0" cx="283.5" cy="283.5" r="283.5"/>
<path d="M438.6,92.2c-3,0-5.9,0.6-8.5,1.9l-224.1,56.2c-10.7,0-19.4,8.7-19.4,19.4v178c-30.3-10.7-63.5,5.2-74.2,35.4
	c-10.7,30.3,5.2,63.5,35.4,74.2s63.5-5.2,74.2-35.4c2.2-6.3,3.3-12.9,3.3-19.5v-121l193.9-48.5v56.6c-30.3-10.7-63.5,5.2-74.2,35.4
	c-10.7,30.3,5.2,63.5,35.4,74.2c30.3,10.7,63.5-5.2,74.2-35.4c2.2-6.3,3.3-12.9,3.3-19.5V111.6C457.9,100.9,449.3,92.2,438.6,92.2z
	 M225.3,242.6v-58.2L419.2,136v58.2L225.3,242.6z"/>
</svg>
