<?xml version="1.0" encoding="utf-8"?>
<!-- Generator: Adobe Illustrator 28.2.0, SVG Export Plug-In . SVG Version: 6.00 Build 0)  -->
<svg version="1.1" id="Calque_1" xmlns="http://www.w3.org/2000/svg" xmlns:xlink="http://www.w3.org/1999/xlink" x="0px" y="0px"
	 viewBox="0 0 566.9 566.9" style="enable-background:new 0 0 566.9 566.9;" xml:space="preserve">
<style type="text/css">
	.st0{fill:#E8629F;}
</style>
<circle class="st0" cx="283.5" cy="283.5" r="283.5"/>
<g>
	<path d="M190.4,427.2c-28.1-15.8-45.2-52.9-32.6-108.2c8.9-38.8,34.7-86.8,14.9-126.7c24,16.6,49,56.1,74.2,100.7
		c1.7-48.2-23.3-79.8-5.3-145.7c12.3,81.5,61.8,86.6,87,160.7c10.7-34.9,32.9-46.3,22.1-132.9c109.3,149.2,47,202.3,25.2,255.6
		l7.1-74.2c-34.3,99.1-61.7,117.4-86.5,139.5c13.9-46.5,19.3-93-8.8-139.5c-6.8,76.4-26.1,60.5-30,121.9
		c-38.6-29.1-46.5-59-53.4-107.7C198.8,376.4,190,400.2,190.4,427.2L190.4,427.2z"/>
	<path d="M270.3,70.9c-28.6,116.1,23.6,115,52.5,183.2C343.1,148.9,282.4,172.6,270.3,70.9L270.3,70.9z"/>
</g>
</svg>
