<?xml version="1.0" encoding="utf-8"?>
<!-- Generator: Adobe Illustrator 28.2.0, SVG Export Plug-In . SVG Version: 6.00 Build 0)  -->
<svg version="1.1" id="Layer_1" xmlns="http://www.w3.org/2000/svg" xmlns:xlink="http://www.w3.org/1999/xlink" x="0px" y="0px"
	 viewBox="0 0 566.9 566.9" style="enable-background:new 0 0 566.9 566.9;" xml:space="preserve">
<style type="text/css">
	.st0{fill:#9C936D;}
</style>
<circle class="st0" cx="283.5" cy="283.5" r="283.5"/>
<g>
	<g>
		<path d="M283.5,70.9c-117.2,0-212.6,95.4-212.6,212.6s95.4,212.6,212.6,212.6c117.2,0,212.6-95.4,212.6-212.6
			S400.7,70.9,283.5,70.9z M293.4,131.4l69.7-23.4c23.9,10.9,45.2,26.5,62.7,45.7l-0.1,74.1l-61.8,15l-70.4-51.2V131.4z
			 M203.4,108.3l70.1,23.2v60.2l-70.4,51.2l-61.4-15l-0.1-69.9c0-1.3-0.4-2.5-1-3.5C158,135,179.4,119.3,203.4,108.3z M115.6,377.9
			C103.1,355.8,94.9,331,92,304.6l43.6-57.8l61.4,15l26.9,82.6l-38.5,56.4L115.6,377.9z M320.5,472.6c-12,2.3-24.3,3.6-37,3.6
			c-14,0-27.7-1.6-40.9-4.5l-41.1-58.8l38.6-56.4h86.8l34.9,56.2L320.5,472.6z M377.9,400.8l-34.9-56.3l26.9-82.7l61.9-15l43.3,56.9
			c-2.8,26.2-10.8,50.8-23,72.8L377.9,400.8z"/>
	</g>
</g>
</svg>
