<?xml version="1.0" encoding="utf-8"?>
<!-- Generator: Adobe Illustrator 28.2.0, SVG Export Plug-In . SVG Version: 6.00 Build 0)  -->
<svg version="1.1" id="Calque_1" xmlns="http://www.w3.org/2000/svg" xmlns:xlink="http://www.w3.org/1999/xlink" x="0px" y="0px"
	 viewBox="0 0 566.9 566.9" style="enable-background:new 0 0 566.9 566.9;" xml:space="preserve">
<style type="text/css">
	.st0{fill:#E8629F;}
</style>
<circle class="st0" cx="283.5" cy="283.5" r="283.5"/>
<path d="M283.5,98.7c-94.3,0-171.1,76.8-171.1,171.1c0,61,32.2,114.5,80.5,144.8h-1.5L165,467.2h236.9l-26.3-52.6h-1.5
	c48.2-30.3,80.5-83.8,80.5-144.8C454.6,175.5,377.7,98.7,283.5,98.7z M280.2,138.4v92.1c-8.2,0.7-15.9,3.9-22.2,9.2l-65.1-65.1
	C215.7,152.8,246.2,139.2,280.2,138.4z M286.8,138.4c34,0.8,64.5,14.5,87.3,36.2L309,239.7c0,0,0,0-0.1-0.1
	c-6.3-5.3-14-8.5-22.2-9.1V138.4z M188.2,179.2l65.1,65.1c0,0,0,0-0.1,0.1c-5.3,6.3-8.5,14-9.1,22.2H152
	C152.8,232.6,166.5,202,188.2,179.2z M378.7,179.2c21.7,22.8,35.4,53.4,36.2,87.3h-92.1c-0.7-8.2-3.9-15.9-9.2-22.2L378.7,179.2z
	 M152,273.1h92.1c0.7,8.2,3.9,15.9,9.2,22.2l-65.1,65.1C166.5,337.6,152.8,307,152,273.1z M322.8,273.1h92.1
	c-0.8,34-14.5,64.5-36.2,87.3l-65.1-65.1c0,0,0,0,0.1-0.1C318.9,289,322.1,281.2,322.8,273.1z M258,299.9
	C258,299.9,258,300,258,299.9c3.7,3.1,7.9,5.5,12.3,7v93.8c-30-3-56.9-16.1-77.5-35.7L258,299.9z M309,299.9l65.1,65.1
	c-20.6,19.6-47.5,32.7-77.5,35.7V307C301.1,305.4,305.3,303,309,299.9z"/>
</svg>
