<?xml version="1.0" encoding="utf-8"?>
<!-- Generator: Adobe Illustrator 28.2.0, SVG Export Plug-In . SVG Version: 6.00 Build 0)  -->
<svg version="1.1" id="Calque_1" xmlns="http://www.w3.org/2000/svg" xmlns:xlink="http://www.w3.org/1999/xlink" x="0px" y="0px"
	 viewBox="0 0 566.9 566.9" style="enable-background:new 0 0 566.9 566.9;" xml:space="preserve">
<style type="text/css">
	.st0{fill:#E8629F;}
</style>
<circle class="st0" cx="283.5" cy="283.5" r="283.5"/>
<path d="M429.1,99.2H259c-8.8,0-17.5,6.3-17.5,16.5l0,17.4c-11.8-1.5-23.3,1.6-33.8,32.8c0,17.9,0.4,35.9,0.9,54.1
	c-18.3,74.5-55.1,117.2-81.3,180.4c-11.9,63.7,72.2,93.8,98.1,28.3c1.2-4.6,1.6-9.6,1-14.5c-0.3-2.3-0.8-135.4-0.7-202.9l15.7,0.1
	l-0.1,230.6h18l0.2,25.8l165.7-0.1l0.1-25.7l15.5,0.1V112.3C440.8,105.3,436.8,99.2,429.1,99.2L429.1,99.2z M208.1,421.7
	c-16.2,46.6-67.9,32.3-66-11.1c22.5-47,51.5-103.2,68-135.3C211.5,325.2,212.2,374.7,208.1,421.7L208.1,421.7z M406,231.8
	c0,5.8-3.1,10-9.7,10L287,241.5c-6.3,0-11.7-4.7-11.7-11.4l0.5-84.3c0-6.7,4.7-10.4,10.9-10.4h108.6c6,0,10.7,2.4,10.7,10.7
	L406,231.8L406,231.8z"/>
</svg>
