<?xml version="1.0" encoding="utf-8"?>
<!-- Generator: Adobe Illustrator 27.6.1, SVG Export Plug-In . SVG Version: 6.00 Build 0)  -->
<svg version="1.1" id="uuid-780d101c-2695-42c7-ada4-1c334a9276a5"
	 xmlns="http://www.w3.org/2000/svg" xmlns:xlink="http://www.w3.org/1999/xlink" x="0px" y="0px" viewBox="0 0 566.9 566.9"
	 style="enable-background:new 0 0 566.9 566.9;" xml:space="preserve">
<style type="text/css">
	.st0{fill:#FCBE19;}
	.st1{fill:#E6629F;}
	.st2{fill:#E86936;}
	.st3{enable-background:new    ;}
	.st4{fill:#1D1D1B;}
</style>
<path class="st0" d="M562.9,168.3v-0.2v-0.2C555.2,114,533.2,60.8,499.3,14l-6.1-8.5L483,8.3c-37,10-70.1,14.9-101,14.9
	c-19.8,0-38.9-2.1-56.7-6.2l-1.4-0.3c-12-2.9-24.4-5.9-36.5-9.1l-4.2-1.1L279,7.8c-33.7,10.3-66.7,15.5-98.3,15.5
	c-17,0-33.6-1.5-49.5-4.6c-18.4-3.8-33.6-7.2-48-10.5l-9.8-2.3L67.6,14C46.8,42.8,30.4,74.1,19,107.3c-11.8,34-18,68.8-18.6,103.6
	c-4.2,79.3,21.7,162.2,71.1,227.7c53.2,70.4,128.3,114,211.2,122.6l1.9,0.2l1.8-0.3c27.6-3.9,58.5-15.5,89.5-33.5
	c30.6-17.7,60.7-41.4,87.1-68.5c28.4-29,51.6-60.7,69.1-94.1c19.3-36.9,30.5-74.2,33.4-111C568.6,224.1,565.9,193.9,562.9,168.3
	L562.9,168.3z"/>
<path class="st1" d="M286,534c133.9-26.2,261.8-175.8,255-322.4c-1-24.4-3.5-48.9-9.8-72.6H35.7c-9.9,39.3-12.8,80.8-7.9,121
	C43.7,396.7,146.5,525.3,286,534L286,534L286,534z"/>
<path class="st2" d="M199,127.9H39.4l2-6.9C49.4,92.3,63,65.4,80,41l4.5-6.6c15.5,4.7,31.4,7.7,47.3,11.3
	c48.1,7.9,98,3.5,144.5-10.8l7.1-1.9c10,2.8,20,5.4,30,8c55.5,13.9,114.4,10.5,168.7-6.6c20.3,28.2,36.9,59.4,45.3,93.5H199
	L199,127.9z"/>
<g class="st3">
	<path class="st4" d="M166.2,368h-36.7V242.4H86.7v-24.4c11.3-0.5,19.2-1.3,23.7-2.3c7.2-1.6,13.1-4.8,17.6-9.5
		c3.1-3.3,5.4-7.6,7-13.1c0.9-3.3,1.4-5.7,1.4-7.3h29.8V368z"/>
	<path class="st4" d="M290.5,249.9c16.2,0,29.4,5.5,39.7,16.4c10.3,11,15.5,25,15.5,42.1c0,17-5.1,32-15.2,45
		c-10.1,13-25.9,19.5-47.2,19.5c-22.9,0-39.8-9.6-50.7-28.8c-8.5-15-12.7-34.3-12.7-58c0-13.9,0.6-25.2,1.8-33.9
		c2.1-15.5,6.2-28.4,12.2-38.7c5.2-8.8,12-15.9,20.4-21.2c8.4-5.4,18.5-8,30.2-8c16.9,0,30.4,4.3,40.4,13c10,8.7,15.7,20.2,17,34.6
		h-35.7c0-2.9-1.1-6.2-3.4-9.7c-3.9-5.7-9.7-8.5-17.5-8.5c-11.6,0-19.9,6.5-24.9,19.6c-2.7,7.2-4.5,17.8-5.5,31.9
		c4.4-5.3,9.6-9.1,15.4-11.6C276.3,251.1,283,249.9,290.5,249.9z M266.4,284c-7,5.4-10.5,14.2-10.5,26.4c0,9.8,2.6,17.8,7.9,24
		c5.3,6.2,12,9.3,20.1,9.3c8,0,14.2-3,18.8-9c4.6-6,6.8-13.7,6.8-23.3c0-10.6-2.6-18.8-7.8-24.4c-5.2-5.6-11.6-8.5-19.1-8.5
		C276.5,278.5,271.1,280.3,266.4,284z"/>
	<path class="st4" d="M404.1,222.2c-4,5.4-5.9,12.5-5.8,21.5H365c0.3-9,1.9-17.6,4.6-25.7c2.9-7.1,7.5-13.7,13.8-19.7
		c4.7-4.3,10.3-7.5,16.7-9.8c6.4-2.3,14.4-3.4,23.7-3.4c17.4,0,31.5,4.5,42.1,13.5c10.7,9,16,21.1,16,36.2c0,10.7-3.2,19.8-9.5,27.1
		c-4,4.6-8.2,7.7-12.6,9.4c3.3,0,8,2.8,14.1,8.4c9.1,8.5,13.7,20,13.7,34.7c0,15.4-5.3,28.9-16,40.6c-10.7,11.7-26.5,17.5-47.4,17.5
		c-25.8,0-43.7-8.4-53.7-25.2c-5.3-9-8.2-20.7-8.8-35.2h35.2c0,7.3,1.2,13.3,3.5,18.1c4.4,8.8,12.3,13.2,23.7,13.2
		c7,0,13.2-2.4,18.4-7.2c5.2-4.8,7.8-11.7,7.8-20.8c0-12-4.9-20-14.6-24c-5.5-2.3-14.2-3.4-26.1-3.4v-25.6
		c11.6-0.2,19.8-1.3,24.4-3.4c8-3.5,11.9-10.6,11.9-21.3c0-6.9-2-12.6-6.1-17c-4.1-4.4-9.8-6.5-17.1-6.5
		C414.3,214.2,408.1,216.9,404.1,222.2z"/>
</g>
</svg>
