<?xml version="1.0" encoding="utf-8"?>
<!-- Generator: Adobe Illustrator 27.6.1, SVG Export Plug-In . SVG Version: 6.00 Build 0)  -->
<svg version="1.1" id="uuid-23fd497f-e03f-4efa-83fe-866f04478264"
	 xmlns="http://www.w3.org/2000/svg" xmlns:xlink="http://www.w3.org/1999/xlink" x="0px" y="0px" viewBox="0 0 566.9 566.9"
	 style="enable-background:new 0 0 566.9 566.9;" xml:space="preserve">
<style type="text/css">
	.st0{fill:#FCBE19;}
	.st1{fill:#E6629F;}
	.st2{fill:#E86936;}
	.st3{enable-background:new    ;}
	.st4{fill:#1D1D1B;}
</style>
<path class="st0" d="M562.9,165.4v-0.2V165c-7.7-53.9-29.7-107.1-63.6-153.9l-6.1-8.5L483,5.4c-37,10-70.1,14.9-101,14.9
	c-19.8,0-38.9-2.1-56.7-6.2l-1.4-0.3c-12-2.9-24.4-5.9-36.5-9.1l-4.2-1.1L279,4.9c-33.7,10.3-66.7,15.5-98.3,15.5
	c-17,0-33.6-1.5-49.5-4.6c-18.4-3.8-33.6-7.2-48-10.5L73.5,3l-5.9,8.1C46.8,39.8,30.4,71.2,19,104.4C7.2,138.3,1,173.2,0.4,208
	c-4.2,79.3,21.7,162.2,71.1,227.7c53.2,70.4,128.3,114,211.2,122.6l1.9,0.2l1.8-0.3c27.6-3.9,58.5-15.5,89.5-33.5
	c30.6-17.7,60.7-41.4,87.1-68.5c28.4-29,51.6-60.7,69.1-94.1c19.3-36.9,30.5-74.2,33.4-111C568.6,221.2,565.9,191,562.9,165.4
	L562.9,165.4z"/>
<path class="st1" d="M286,531.1c133.9-26.2,261.8-175.8,255-322.4c-1-24.4-3.5-48.9-9.8-72.6H35.7c-9.9,39.3-12.8,80.8-7.9,121
	C43.7,393.8,146.5,522.4,286,531.1L286,531.1L286,531.1z"/>
<path class="st2" d="M199,124.9H39.4l2-6.9C49.4,89.3,63,62.4,80,38l4.5-6.6c15.5,4.7,31.4,7.7,47.3,11.3
	c48.1,7.9,98,3.5,144.5-10.8l7.1-1.9c10,2.8,20,5.4,30,8c55.5,13.9,114.4,10.5,168.7-6.6C502.5,59.8,519,91,527.4,125L199,124.9
	L199,124.9z"/>
<g class="st3">
	<path class="st4" d="M204.9,267.9c19.7,0,35.8,6.7,48.4,20c12.6,13.4,18.9,30.4,18.9,51.2c0,20.7-6.2,39-18.5,54.8
		c-12.3,15.8-31.5,23.7-57.5,23.7c-27.9,0-48.5-11.7-61.8-35c-10.3-18.3-15.4-41.8-15.4-70.7c0-16.9,0.7-30.7,2.1-41.3
		c2.5-18.9,7.5-34.6,14.8-47.1c6.3-10.7,14.6-19.3,24.9-25.8c10.2-6.5,22.5-9.8,36.8-9.8c20.6,0,37,5.3,49.3,15.8
		c12.2,10.6,19.1,24.6,20.6,42.1h-43.4c0-3.6-1.4-7.5-4.1-11.8c-4.7-6.9-11.8-10.4-21.3-10.4c-14.2,0-24.3,8-30.3,23.9
		c-3.3,8.8-5.5,21.7-6.7,38.9c5.4-6.4,11.7-11.1,18.8-14.1C187.6,269.4,195.8,267.9,204.9,267.9z M175.6,309.5
		c-8.6,6.6-12.8,17.3-12.8,32.1c0,11.9,3.2,21.7,9.6,29.2c6.4,7.5,14.6,11.3,24.5,11.3c9.7,0,17.3-3.6,22.9-10.9
		c5.6-7.3,8.3-16.7,8.3-28.4c0-12.9-3.2-22.9-9.5-29.8c-6.3-6.9-14.1-10.3-23.2-10.3C187.9,302.8,181.3,305,175.6,309.5z"/>
	<path class="st4" d="M379.2,267.9c19.7,0,35.8,6.7,48.4,20c12.6,13.4,18.9,30.4,18.9,51.2c0,20.7-6.2,39-18.5,54.8
		c-12.3,15.8-31.5,23.7-57.5,23.7c-27.9,0-48.5-11.7-61.8-35c-10.3-18.3-15.4-41.8-15.4-70.7c0-16.9,0.7-30.7,2.1-41.3
		c2.5-18.9,7.5-34.6,14.8-47.1c6.3-10.7,14.6-19.3,24.9-25.8c10.2-6.5,22.5-9.8,36.8-9.8c20.6,0,37,5.3,49.3,15.8
		c12.2,10.6,19.1,24.6,20.6,42.1h-43.4c0-3.6-1.4-7.5-4.1-11.8c-4.7-6.9-11.8-10.4-21.3-10.4c-14.2,0-24.3,8-30.3,23.9
		c-3.3,8.8-5.5,21.7-6.7,38.9c5.4-6.4,11.7-11.1,18.8-14.1C361.8,269.4,370,267.9,379.2,267.9z M349.8,309.5
		c-8.6,6.6-12.8,17.3-12.8,32.1c0,11.9,3.2,21.7,9.6,29.2c6.4,7.5,14.6,11.3,24.5,11.3c9.7,0,17.3-3.6,22.9-10.9
		c5.6-7.3,8.3-16.7,8.3-28.4c0-12.9-3.2-22.9-9.5-29.8c-6.3-6.9-14.1-10.3-23.2-10.3C362.1,302.8,355.5,305,349.8,309.5z"/>
</g>
</svg>
