<?xml version="1.0" encoding="utf-8"?>
<!-- Generator: Adobe Illustrator 28.2.0, SVG Export Plug-In . SVG Version: 6.00 Build 0)  -->
<svg version="1.1" id="Calque_1" xmlns="http://www.w3.org/2000/svg" xmlns:xlink="http://www.w3.org/1999/xlink" x="0px" y="0px"
	 viewBox="0 0 566.9 566.9" style="enable-background:new 0 0 566.9 566.9;" xml:space="preserve">
<style type="text/css">
	.st0{fill:#E8629F;}
</style>
<circle class="st0" cx="283.5" cy="283.5" r="283.5"/>
<g>
	<path d="M241.3,161.8c8.4,0,15.7-3,22-9.1c6.2-6.1,9.3-13.5,9.3-22.2c0-8.4-3.1-15.7-9.3-22c-6.2-6.2-13.5-9.3-22-9.3
		c-8.7,0-16.1,3.1-22.2,9.3c-6.1,6.2-9.1,13.6-9.1,22c0,8.7,3,16.1,9.1,22.2C225.2,158.8,232.6,161.8,241.3,161.8L241.3,161.8z"/>
	<path d="M119.9,250.6c5.3,3.1,9.3,2,12.1-3.3l46.7-80.4c3.1-5.3,2-9.3-3.3-12.1l-15-8.9c-5.3-3.1-9.3-2-12.1,3.3l-46.7,80.4
		c-3.1,5.3-2,9.3,3.3,12.1L119.9,250.6z"/>
	<path d="M433.4,106.2l-19.2,86.9l-32.7,13.5L353,286.5l27.1,61.2l-7.5,23.8l-63.1,18.7l-3.7,28L205.4,443l0.9,16.8h245.3
		c4.4,0,8-1.5,11-4.4c3-3,4.4-6.6,4.4-11V113.7L433.4,106.2z"/>
	<path d="M235.3,338.9l8.9,56.1c1.3,9.3,6.9,14.8,16.8,16.3c6.9,0.9,12.8-1,18-5.8c5.1-4.8,7.2-10.7,6.3-17.5l-10.7-67.7
		c-1.2-7.2-5.1-12.2-11.7-15l-48.6-22l30.8-53.7l15.4,19.6c1.2,1.9,3.1,3.3,5.6,4.2l58.4,16.8c1.5,0.6,2.9,0.9,4.2,0.9
		c4.4,0,8.1-1.7,11.2-5.1s4.7-7.3,4.7-11.7c0-7.8-3.7-12.9-11.2-15.4L282.9,224l-38.3-46.3c-5.3-6.2-12.8-10.1-22.4-11.7
		c-16.8-2.5-29.4,3.4-37.8,17.7l-42.5,73.4c-2.8,4.7-4,10.4-3.7,17.3l1.4,93l-32.2,69.1c-1.2,2.8-2,5.1-2.3,7
		c-0.9,5.9,0.3,11.1,3.7,15.7c3.4,4.5,8.1,7.2,14,8.2c10,1.5,17-1.9,21-10.3l35.5-75.7c1.2-2.8,1.9-5.8,1.9-8.9l-0.5-57.5
		L235.3,338.9z"/>
</g>
</svg>
