<?xml version="1.0" encoding="utf-8"?>
<!-- Generator: Adobe Illustrator 28.2.0, SVG Export Plug-In . SVG Version: 6.00 Build 0)  -->
<svg version="1.1" id="Calque_1" xmlns="http://www.w3.org/2000/svg" xmlns:xlink="http://www.w3.org/1999/xlink" x="0px" y="0px"
	 viewBox="0 0 566.9 566.9" style="enable-background:new 0 0 566.9 566.9;" xml:space="preserve">
<style type="text/css">
	.st0{fill:#E8629F;}
</style>
<circle class="st0" cx="283.5" cy="283.5" r="283.5"/>
<path d="M495,354.7c-0.8-1-2.1-1.5-3.3-1.5h-1l-65-156.3c24.9-5.4,38.4-19.5,49.1-34.2c0.7-0.9,0.5-2.2-0.3-3
	c-0.9-0.8-2.2-0.7-3,0.1c-10.4,10.2-36.8,22.5-53.9,22.5c-0.8,0-1.7,0-2.4-0.1c-0.1,0-0.1,0-0.2,0c-18.8-0.1-39.4-7.3-61-21.4
	c-17.3-11.6-38.4-18.7-64.1-21.6L288,95c-0.1-2.4-2.1-4.3-4.5-4.2c0,0-0.1,0-0.1,0c0,0-0.1,0-0.1,0c0,0,0,0-0.1,0
	c-2.4,0-4.3,1.9-4.4,4.2l-1.7,44.2c-25.8,2.9-46.8,10-64.1,21.6c-21.7,14.1-42.2,21.3-61.1,21.4c-0.1,0-0.1,0-0.2,0
	c-0.8,0.1-1.6,0.1-2.4,0.1c-17.1,0-43.5-12.3-53.9-22.5c-0.8-0.8-2.1-0.8-3-0.1c-0.9,0.7-1,2-0.3,3c10.7,14.7,24.2,28.8,49.1,34.2
	l-65,156.3h-1c-1.3,0-2.5,0.6-3.3,1.5c-0.8,1-1.2,2.3-1,3.5c4.4,29.3,36.4,51.5,74.4,51.5s70-22.1,74.4-51.5c0.2-1.3-0.2-2.6-1-3.5
	c-0.8-1-2.1-1.5-3.3-1.5h-1L151,198.4c0.3,0,0.5,0.1,0.8,0.1c0.1,0,0.2,0,0.2,0c0,0,0,0,0,0c29.5-0.5,45.1-8.8,60.2-16.8
	c1-0.5,1.9-1,2.9-1.5c6.4-2.4,12.5-5.3,18.4-8.2c13.5-6.5,26.2-12.7,41.9-12.7c0.3,0,0.6,0,1,0l-10.9,288.4h-87.1
	c-2.4,0-4.4,2-4.4,4.4v19.7c0,2.4,2,4.4,4.4,4.4h103h3.9h103c2.4,0,4.4-2,4.4-4.4V452c0-2.4-2-4.4-4.4-4.4h-87.1l-10.9-288.4
	c0.3,0,0.6,0,1,0c15.7,0,28.4,6.2,41.9,12.7c5.9,2.9,12.1,5.9,18.4,8.2c1,0.5,1.9,1,2.9,1.5c15.1,8,30.7,16.3,60.2,16.8c0,0,0,0,0,0
	c0.1,0,0.2,0,0.2,0c0.3,0,0.5-0.1,0.8-0.1l-63.3,154.8h-1c-1.3,0-2.5,0.6-3.3,1.5c-0.8,1-1.2,2.3-1,3.5
	c4.4,29.3,36.4,51.5,74.4,51.5s70-22.1,74.4-51.5C496.2,357,495.8,355.7,495,354.7L495,354.7z M85.9,353.2l60-144.3l59,144.3H85.9z
	 M421.1,208.9l60,144.3h-119L421.1,208.9z"/>
</svg>
