<?xml version="1.0" encoding="utf-8"?>
<!-- Generator: Adobe Illustrator 28.2.0, SVG Export Plug-In . SVG Version: 6.00 Build 0)  -->
<svg version="1.1" id="Calque_1" xmlns="http://www.w3.org/2000/svg" xmlns:xlink="http://www.w3.org/1999/xlink" x="0px" y="0px"
	 viewBox="0 0 566.9 566.9" style="enable-background:new 0 0 566.9 566.9;" xml:space="preserve">
<style type="text/css">
	.st0{fill:#E8629F;}
</style>
<circle class="st0" cx="283.5" cy="283.5" r="283.5"/>
<g>
	<g>
		<path d="M431.2,132.6l-6.5-33.4C341.4,215.5,239.4,315.5,169,377.8l-6.7-7.5c-1.4-1.5-3.7-1.6-5.2-0.3l-2.2,2
			c-1.5,1.4-1.6,3.7-0.3,5.2l6.6,7.4C118.6,422,89.2,444,85.4,445.5l18.2,22.2c24.8-16.5,51.1-37.5,77.7-60.9l4.7,5.2
			c1.4,1.5,3.7,1.6,5.2,0.3l2.2-2c1.5-1.4,1.6-3.7,0.3-5.2L189,400C315.8,286.4,444.4,122.7,431.2,132.6z"/>
		<path d="M85.4,445.5l-0.2-0.3C84.9,445.6,85,445.7,85.4,445.5z"/>
	</g>
	<g>
		<path d="M142.2,99.2c40.6,56.7,85.7,109.6,129.4,156.1l-18.8,19.4c-73.1-80-125.8-148.6-117.1-142.1L142.2,99.2z"/>
		<path d="M481.5,445.5l-18.2,22.2c-24.8-16.5-51.1-37.5-77.7-60.9l-4.7,5.3c-1.4,1.5-3.7,1.6-5.2,0.3l-2.2-2
			c-1.5-1.4-1.6-3.7-0.3-5.2l4.7-5.2c-28.3-25.4-56.7-53.2-83.5-81.1l19.5-20.2c30.5,30.4,59.2,57.1,84,79l6.7-7.5
			c1.4-1.5,3.7-1.6,5.2-0.3l2.2,2c1.5,1.4,1.6,3.7,0.3,5.2l-6.6,7.4C448.3,422,477.8,444,481.5,445.5L481.5,445.5z"/>
		<path d="M481.5,445.5l0.2-0.3C482,445.6,481.9,445.7,481.5,445.5z"/>
	</g>
</g>
</svg>
