<?xml version="1.0" encoding="utf-8"?>
<!-- Generator: Adobe Illustrator 28.2.0, SVG Export Plug-In . SVG Version: 6.00 Build 0)  -->
<svg version="1.1" id="Calque_1" xmlns="http://www.w3.org/2000/svg" xmlns:xlink="http://www.w3.org/1999/xlink" x="0px" y="0px"
	 viewBox="0 0 566.9 566.9" style="enable-background:new 0 0 566.9 566.9;" xml:space="preserve">
<style type="text/css">
	.st0{fill:#9C936D;}
</style>
<circle class="st0" cx="283.5" cy="283.5" r="283.5"/>
<path d="M375.3,300.8c-2.1-9.3-5.1-18.2-9-26.7c89.8-62.2,28.5-90.4,95.1-175C355.1,163.5,391,201.6,365,271.5
	c-4.8-9.9-10.7-19-17.6-27.4c3.3-34.9,3.7-66.6,35-109.1c-41.7,23.8-58,50.5-75.2,76.1c-6-3.3-12.1-6-18.5-8.3
	c7.8-34.1,12-64.2,8.2-85.6c-15.1,44.8-70.5,61.4-106.3,83.9c-6,3.8-11.5,7.7-16.5,11.7c-40.9,23.6-68.5,67.7-68.5,118.5
	c0,75.4,61.1,136.6,136.6,136.6c40.8,0,77.4-17.9,102.4-46.2c40.9-21.3,80.5-64.7,98.9-183.7C414.2,275.4,393.3,291.5,375.3,300.8z"
	/>
</svg>
