<?xml version="1.0" encoding="utf-8"?>
<!-- Generator: Adobe Illustrator 28.2.0, SVG Export Plug-In . SVG Version: 6.00 Build 0)  -->
<svg version="1.1" id="Calque_1" xmlns="http://www.w3.org/2000/svg" xmlns:xlink="http://www.w3.org/1999/xlink" x="0px" y="0px"
	 viewBox="0 0 566.9 566.9" style="enable-background:new 0 0 566.9 566.9;" xml:space="preserve">
<style type="text/css">
	.st0{fill:#9C936D;}
</style>
<circle class="st0" cx="283.5" cy="283.5" r="283.5"/>
<path d="M406.8,266c-13.3-10.1-16.2-14.3-11.5-16.1c39.8-15.3,18.5-94.9-27.5-102.6c-15.1-2.5-17.2-4.4-19.6-17.3
	c-6-31.9-36.8-46.6-64.8-44.6c-1.3-0.1-2.6-0.2-3.9-0.3c-26.9-0.5-55.2,14.4-60.9,44.9c-2.4,12.9-4.4,17.1-19.7,17.3
	c-47.1,0.8-67.1,70-27.3,102.6c3.9,3.2,1.7,6-11.6,16.1c-67.5,51.3,5.2,153.8,74.2,104.6c10.1-7.2,11.7-7.3,14-1.3
	c4.8,12.5,2.7,72.8-3.3,92.7l-6,19.9h36.1c3.6,0,5.4,0,8.3,0c2.9,0,4.8,0,8.4,0h36.1L322,462c-6-20-8.3-80.2-3.5-92.7
	c2.3-5.9,3.9-5.9,14,1.3C401.6,419.8,474.3,317.3,406.8,266L406.8,266z"/>
</svg>
