<?xml version="1.0" encoding="utf-8"?>
<!-- Generator: Adobe Illustrator 28.2.0, SVG Export Plug-In . SVG Version: 6.00 Build 0)  -->
<svg version="1.1" id="Calque_1" xmlns="http://www.w3.org/2000/svg" xmlns:xlink="http://www.w3.org/1999/xlink" x="0px" y="0px"
	 viewBox="0 0 566.9 566.9" style="enable-background:new 0 0 566.9 566.9;" xml:space="preserve">
<style type="text/css">
	.st0{fill:#E8629F;}
</style>
<circle class="st0" cx="283.5" cy="283.5" r="283.5"/>
<path d="M474.9,355.7L443.7,271c-13.1-34.1,31.7-40.1,31.7-40.1c10-5.5,0-11.5,0-11.5c-10.4,2.5-18.1-12-18.1-12l-5.9-13.5
	c-3.2-8-4.1-9-0.5-24.5c3.6-15.6-7.9-14.8-10-12.5c-2,2.3-8.4,5.8-13.1,0.5c-4.8-5.3-16.8-5-16.8-5l-4.5-10h-5l-5,10h-87.9v3h-184
	v-5H121c-0.4-4-3.2-7-3.2-7c-15,0-18.1,12.5-18.1,12.5H87.9c-6.8,13.5,0.5,28.6,0.5,28.6h13.1v40.6h27.6l2.3,6.5h68.9
	c64.3,0,53,59.6,53,59.6c48.5,24.6,78.9,9,78.9,9c24-5.5,28.5,17,28.5,17l16.3,71.7c1.4,12.5-0.6,20-0.6,20l0,1h0V420
	c0,0-0.4,5.5,6.5,4.6l76-7.1c1.8,3.4,5.2,5.8,9.1,5.8c5.8,0,10.6-5.2,10.6-11.7c0-1.3-0.2-2.3-0.6-3.1l2.3,0
	C485.8,374.9,474.9,355.7,474.9,355.7L474.9,355.7z M445.2,158.2c1.9,0,3.5,1.7,3.5,3.8c0,2.1-1.6,3.8-3.5,3.8
	c-1.9,0-3.5-1.7-3.5-3.8C441.8,159.9,443.3,158.2,445.2,158.2z M349.4,276.5c-1.4,9-10,14-10,14c-29.4,10.9-48.3,7.9-63.2,2.9
	c-18.2-6.1-17-25.5-17-25.5c0-26.6,24.9-26.1,24.9-26.1h20.4c11.3,30.1-16.3,43.6-16.3,43.6c-3.6,1,0,4,0,4
	c16.8-0.5,30.4-30.6,30.4-30.6l-0.4-12.5l6.3-4.5C349.4,242,350.8,267.5,349.4,276.5L349.4,276.5z M474.9,411.6
	c0,4.2-3.1,7.6-6.9,7.6c-3.8,0-6.9-3.4-6.9-7.6c0-1.1,0.2-2.1,0.6-3l12.6-0.1C474.7,409.5,474.9,410.5,474.9,411.6"/>
</svg>
