<?xml version="1.0" encoding="utf-8"?>
<!-- Generator: Adobe Illustrator 28.2.0, SVG Export Plug-In . SVG Version: 6.00 Build 0)  -->
<svg version="1.1" id="Calque_1" xmlns="http://www.w3.org/2000/svg" xmlns:xlink="http://www.w3.org/1999/xlink" x="0px" y="0px"
	 viewBox="0 0 566.9 566.9" style="enable-background:new 0 0 566.9 566.9;" xml:space="preserve">
<style type="text/css">
	.st0{fill:#E8629F;}
</style>
<circle class="st0" cx="283.5" cy="283.5" r="283.5"/>
<path d="M418.2,209.1c-4.1-24.6,18.3-70.2,18.3-70.2l-42.9-32.4c-25.7,16.3-74.1,26.1-114.6-7.4c-39.2,35-87.9,27-114.2,11.7
	l-41.6,33.9c0,0,24.2,44.7,21.1,69.5c-6.8,54.2-32.2,68.9-29.9,112.4c4.9,97,108.6,100.8,171.9,141l0.7-0.1
	c61.6-42.5,165-50.1,166-147.3C453.2,276.7,427.2,262.9,418.2,209.1z M341.4,372.7l-58-30.5l-58,30.5l11.1-64.6l-46.9-45.8l64.9-9.5
	l29-58.8l29,58.8l64.9,9.5l-46.9,45.8L341.4,372.7z"/>
</svg>
