<?xml version="1.0" encoding="utf-8"?>
<!-- Generator: Adobe Illustrator 28.2.0, SVG Export Plug-In . SVG Version: 6.00 Build 0)  -->
<svg version="1.1" id="Calque_1" xmlns="http://www.w3.org/2000/svg" xmlns:xlink="http://www.w3.org/1999/xlink" x="0px" y="0px"
	 viewBox="0 0 566.9 566.9" style="enable-background:new 0 0 566.9 566.9;" xml:space="preserve">
<style type="text/css">
	.st0{fill:#E8629F;}
</style>
<circle class="st0" cx="283.5" cy="283.5" r="283.5"/>
<path d="M466,359.2l-11.9-75c-1.3-8-6.3-11.9-14.9-11.9c-4,0-7.6,1.7-10.9,5l-55.1,51.7c-4,3.3-6,7.3-6,11.9c0,8,3.6,13.1,10.9,15.4
	l13.9,4.5c-7,18.9-18,35-33.3,48.4c-15.2,13.4-32.8,22.1-52.7,26.1V190.3c22.2-9.6,33.3-26.5,33.3-50.7c0-14.9-5.4-27.7-16.1-38.5
	c-10.8-10.8-23.8-16.1-39-16.1c-14.9,0-27.7,5.4-38.5,16.1c-10.8,10.8-16.1,23.6-16.1,38.5c0,24.2,11.3,41.1,33.8,50.7v245.4
	c-20.2-4-38.2-12.7-54.1-26.1c-15.9-13.4-27.3-29.7-34.3-48.9l13.9-4.5c7.3-2.3,10.9-7.4,10.9-15.4c0-4.3-1.8-8.3-5.5-11.9
	l-55.6-51.7c-3.3-3.3-7-5-10.9-5c-8.6,0-13.6,4-14.9,11.9l-11.9,75c-0.3,1.6-0.5,2.8-0.5,3.5c0,10.6,5.5,15.9,16.4,15.9
	c1.7,0,3.1-0.2,4.5-0.5l12.9-4.5c10.6,31.8,29.6,57.8,56.9,78c27.3,20.2,58.2,30.3,92.6,30.3c34.1,0,65.1-10.3,92.9-30.8
	c26.8-19.9,45.5-45.7,56.1-77.5l12.9,4.5c1.3,0.3,2.8,0.5,4.5,0.5c10.9,0,16.4-5.3,16.4-15.9C466.5,362,466.3,360.9,466,359.2
	L466,359.2z M284.2,162.5c-6,0-11.2-2.2-15.7-6.7c-4.5-4.5-6.7-9.9-6.7-16.2c0-6,2.2-11.2,6.7-15.6c4.5-4.5,9.7-6.7,15.7-6.7
	c6.3,0,11.7,2.2,16.1,6.7c4.5,4.5,6.7,9.7,6.7,15.6c0,6.3-2.2,11.7-6.7,16.2C295.9,160.3,290.5,162.5,284.2,162.5z"/>
</svg>
