<?xml version="1.0" encoding="utf-8"?>
<!-- Generator: Adobe Illustrator 28.2.0, SVG Export Plug-In . SVG Version: 6.00 Build 0)  -->
<svg version="1.1" id="Calque_1" xmlns="http://www.w3.org/2000/svg" xmlns:xlink="http://www.w3.org/1999/xlink" x="0px" y="0px"
	 viewBox="0 0 566.9 566.9" style="enable-background:new 0 0 566.9 566.9;" xml:space="preserve">
<style type="text/css">
	.st0{fill:#E8629F;}
</style>
<circle class="st0" cx="283.5" cy="283.5" r="283.5"/>
<g>
	<path d="M188,100.9c-6.4-10.6-19.1-14.9-27.6-8.5c-48.9,36.1-82.9,91.4-89.2,153c-2.1,10.6,8.5,21.2,21.2,21.2h106.2
		c0-31.9,17-59.5,42.5-72.2C217.7,154.1,198.6,120.1,188,100.9z"/>
	<path d="M474.8,266.7c12.7,0,21.2-8.5,21.2-21.2c-6.4-61.6-38.2-116.9-87.1-150.8c-8.5-6.4-23.4-4.2-27.6,6.4
		c-12.7,19.1-31.9,53.1-55.2,91.4c25.5,14.9,42.5,42.5,42.5,74.4H474.8z"/>
	<path d="M188,432.4c-6.4,10.6-2.1,23.4,8.5,27.6c55.2,25.5,119,25.5,174.2,0c10.6-4.2,14.9-17,8.5-27.6
		c-10.6-19.1-29.7-53.1-53.1-91.4c-25.5,14.9-59.5,14.9-85,0C217.7,379.3,198.6,413.3,188,432.4z"/>
	<circle cx="283.6" cy="266.7" r="44.6"/>
</g>
</svg>
