<?xml version="1.0" encoding="utf-8"?>
<!-- Generator: Adobe Illustrator 28.2.0, SVG Export Plug-In . SVG Version: 6.00 Build 0)  -->
<svg version="1.1" id="Calque_1" xmlns="http://www.w3.org/2000/svg" xmlns:xlink="http://www.w3.org/1999/xlink" x="0px" y="0px"
	 viewBox="0 0 566.9 566.9" style="enable-background:new 0 0 566.9 566.9;" xml:space="preserve">
<style type="text/css">
	.st0{fill:#E8629F;}
</style>
<circle class="st0" cx="283.5" cy="283.5" r="283.5"/>
<g>
	<path d="M355.1,312.7l-19.7-11l-28.2-34.1c-3.9-4.6-9.4-7.5-16.5-8.6c-12.4-1.8-21.7,2.5-27.9,13.1l-31.3,54
		c-2.1,3.4-3,7.7-2.8,12.7l1,68.5L206,458.2c-0.9,2.1-1.5,3.8-1.7,5.2c-0.7,4.4,0.2,8.2,2.7,11.5s6,5.3,10.3,6
		c7.3,1.1,12.5-1.4,15.5-7.6l26.2-55.7c0.9-2.1,1.4-4.2,1.4-6.5l-0.3-42.3l26.5,35.8l7.7,63c0.9,6.9,5.1,10.9,12.4,12
		c5,0.7,9.5-0.7,13.2-4.3c3.8-3.6,5.3-7.9,4.6-12.9l-9.1-71.6c-0.9-5.3-4.1-8.5-7.2-12.7l-23.5-32.8l22.7-39.6l11.3,14.4
		c0.9,1.4,2.3,2.4,4.1,3.1l22.6,11v133.2c0,2.6,2.1,4.8,4.8,4.8s4.8-2.1,4.8-4.8V335.8c1.7-0.6,3.3-1.7,4.7-3.2
		c2.3-2.5,3.4-5.4,3.4-8.6C363.3,318.3,360.6,314.5,355.1,312.7L355.1,312.7z"/>
	<path d="M215.3,321.3c3.9,2.3,6.9,1.5,8.9-2.4l34.4-59.2c2.3-3.9,1.5-6.9-2.4-8.9l-11-6.5c-3.9-2.3-6.9-1.5-8.9,2.4l-34.4,59.2
		c-2.3,3.9-1.5,6.9,2.4,8.9L215.3,321.3z"/>
	<path d="M304.8,255.9c6.2,0,11.6-2.2,16.2-6.7s6.9-9.9,6.9-16.3c0-6.2-2.3-11.6-6.9-16.2c-4.6-4.6-10-6.9-16.2-6.9
		c-6.4,0-11.9,2.3-16.3,6.9c-4.5,4.6-6.7,10-6.7,16.2c0,6.4,2.2,11.9,6.7,16.3C292.9,253.7,298.4,255.9,304.8,255.9z"/>
	<path d="M481.8,194.3c-0.4-2.6-2-4.9-4.4-6.2L287.5,86.8c-2.5-1.3-5.5-1.3-8,0L89.5,188.1c-2.4,1.3-4,3.6-4.4,6.2
		c-0.4,2.7,0.5,5.4,2.4,7.3l12.7,12.7c2.4,2.4,6,3.1,9.2,1.9l14.2-5.7v212.7c0,5.1,4.2,9.3,9.3,9.3h23.7c5.1,0,9.3-4.2,9.3-9.3
		V195.1c0-0.6-0.1-1.2-0.2-1.7l5.8-2.3l111.9-13.2l111.7,13.4l4.1,1.6c-0.2,0.7-0.3,1.5-0.3,2.2v228.1c0,5.1,4.2,9.3,9.3,9.3h23.7
		c5.1,0,9.3-4.2,9.3-9.3V209.8l16.3,6.6c1,0.4,2.1,0.6,3.2,0.6c2.2,0,4.4-0.9,6.1-2.5l12.7-13C481.3,199.6,482.2,196.9,481.8,194.3
		L481.8,194.3z"/>
</g>
</svg>
