<?xml version="1.0" encoding="utf-8"?>
<!-- Generator: Adobe Illustrator 28.2.0, SVG Export Plug-In . SVG Version: 6.00 Build 0)  -->
<svg version="1.1" id="Calque_1" xmlns="http://www.w3.org/2000/svg" xmlns:xlink="http://www.w3.org/1999/xlink" x="0px" y="0px"
	 viewBox="0 0 566.9 566.9" style="enable-background:new 0 0 566.9 566.9;" xml:space="preserve">
<style type="text/css">
	.st0{fill:#E8629F;}
</style>
<circle class="st0" cx="283.5" cy="283.5" r="283.5"/>
<g>
	<path d="M363.7,241l34.4,31.7l-34.4,163c-14.6,49.6,69.6,71.3,69.6,3.5V85C396.2,85,363.7,171.4,363.7,241z"/>
	<path d="M261.1,88.8h-3.5v73.7c0,8-6.8,14.7-14.7,14.7c-8,0-13.9-6.8-13.9-14.7V88.8h-32.9v73.7c0,8-5.9,14.7-13.9,14.7
		c-8,0-14.7-6.8-14.7-14.7V88.8H164c-16.6,0-30.3,13.7-30.3,30.3v87.6c0,16.6,13.7,30.3,30.3,30.3h20.9l-18.3,198.6
		c0,23.4,19.1,42.5,42.5,42.5h6.9c23.4,0,42.5-19.1,42.5-42.5l-20-198.6h22.6c16.6,0,30.4-13.7,30.4-30.3v-87.6
		C291.5,102.5,277.8,88.8,261.1,88.8L261.1,88.8z"/>
</g>
</svg>
