<?xml version="1.0" encoding="utf-8"?>
<!-- Generator: Adobe Illustrator 28.2.0, SVG Export Plug-In . SVG Version: 6.00 Build 0)  -->
<svg version="1.1" id="Calque_1" xmlns="http://www.w3.org/2000/svg" xmlns:xlink="http://www.w3.org/1999/xlink" x="0px" y="0px"
	 viewBox="0 0 566.9 566.9" style="enable-background:new 0 0 566.9 566.9;" xml:space="preserve">
<style type="text/css">
	.st0{fill:#9C936D;}
</style>
<circle class="st0" cx="283.5" cy="283.5" r="283.5"/>
<path d="M456.9,138.1c-3.6-13.5-14.2-24.1-27.7-27.8c-17.8-4.8-45.5-10.4-77.9-11.1l116.3,116.5
	C467.1,183.4,461.6,155.8,456.9,138.1z M110,428.9c3.6,13.5,14.2,24.1,27.7,27.8c17.8,4.8,45.5,10.4,77.9,11.1L99.2,351.2
	C99.8,383.5,105.3,411.1,110,428.9L110,428.9z M102.3,303.8L263,464.7c98.4-14.4,184.8-88.2,201.7-201.6L304,102.2
	C205.5,116.6,119.1,190.4,102.3,303.8z M338.1,212c2.3-2.3,6.1-2.3,8.4,0l8.4,8.4c2.3,2.3,2.3,6.1,0,8.4l-21,21l21,21
	c2.3,2.3,2.3,6.1,0,8.4l-8.4,8.4c-2.3,2.3-6.1,2.3-8.4,0l-21-21l-16.8,16.9l21,21c2.3,2.3,2.3,6.1,0,8.4l-8.4,8.4
	c-2.3,2.3-6.1,2.3-8.4,0l-21-21L266.7,317l21,21c2.3,2.3,2.3,6.1,0,8.4l-8.4,8.4c-2.3,2.3-6.1,2.3-8.4,0l-21-21l-21,21
	c-2.3,2.3-6.1,2.3-8.4,0l-8.4-8.4c-2.3-2.3-2.3-6.1,0-8.4l21-21l-21-21c-2.3-2.3-2.3-6.1,0-8.4l8.4-8.4c2.3-2.3,6.1-2.3,8.4,0l21,21
	l16.8-16.8l-21-21c-2.3-2.3-2.3-6.1,0-8.4l8.4-8.4c2.3-2.3,6.1-2.3,8.4,0l21,21l16.8-16.8l-21-21c-2.3-2.3-2.3-6.1,0-8.4l8.4-8.4
	c2.3-2.3,6.1-2.3,8.4,0l21,21L338.1,212L338.1,212z"/>
</svg>
