<?xml version="1.0" encoding="utf-8"?>
<!-- Generator: Adobe Illustrator 28.2.0, SVG Export Plug-In . SVG Version: 6.00 Build 0)  -->
<svg version="1.1" id="Calque_1" xmlns="http://www.w3.org/2000/svg" xmlns:xlink="http://www.w3.org/1999/xlink" x="0px" y="0px"
	 viewBox="0 0 566.9 566.9" style="enable-background:new 0 0 566.9 566.9;" xml:space="preserve">
<style type="text/css">
	.st0{fill:#E8629F;}
	.st1{opacity:0.45;enable-background:new    ;}
	.st2{opacity:0.42;}
	.st3{opacity:0.69;enable-background:new    ;}
</style>
<circle class="st0" cx="283.5" cy="283.5" r="283.5"/>
<g>
	<g id="uuid-dd3243a0-080e-49f6-afc4-548eb5d31a5e">
		<g>
			<path d="M493.8,347.1c-8-32.8-35.2-55.8-66.7-60.2l-0.9-0.1c-2.8-0.4-5.5-0.5-8.2-0.7c-1.4-0.1-2.7-0.2-4.1-0.3
				c-0.7-0.1-1.4-0.1-2-0.1l-2-0.2c-1.3-0.1-2.7-0.2-4-0.3c-1.3-0.1-2.7-0.2-4-0.3c-1.3-0.1-2.7-0.2-4-0.3l-3.9-0.4
				c-10.5-0.9-20.8-2-31-3.5c-20.4-2.9-40.4-7.4-60.5-14.1c-2.6-0.8-5-1.7-7.6-2.6c-2.5-0.9-5-1.9-7.5-2.9c-1.3-0.5-2.6-1-3.8-1.5
				c-1.3-0.5-2.6-1-3.8-1.6c-1.2-0.5-2.6-1-3.8-1.6c-1.2-0.6-2.5-1.1-3.8-1.6c-5.1-2.2-10.1-4.7-15.3-7.2c-2.6-1.3-5.1-2.6-7.6-4
				c-1.3-0.7-2.6-1.3-3.8-2c-1.3-0.7-2.6-1.4-3.8-2.1c-10.2-5.7-20.4-12-30.6-18.9c-1.3-0.9-2.6-1.7-3.8-2.6l-3.8-2.6
				c-2.6-1.8-5-3.6-7.6-5.4l-7.5-5.4l-3.7-2.6c-0.6-0.4-1.2-0.9-1.8-1.2c-0.3-0.2-0.6-0.4-0.9-0.5c-0.1-0.1-0.3-0.1-0.4-0.2
				c-0.1,0-0.1,0-0.2,0h-0.1c0,0,0,0,0,0.1l0,0.1c-10.1-19.6-34.1-27.2-53.7-17.1c-19.6,10.1-27.2,34.1-17.1,53.7l0.1,0.3
				c0,0.1,0.1,0.2,0.1,0.2l0.1,0.3c0.1,0.2,0.1,0.4,0.1,0.6l0.2,1l0.4,1.9l0.8,3.5c0.5,2.3,1,4.5,1.6,6.6c1.1,4.3,2.4,8.5,3.7,12.6
				c2.7,8.3,5.9,16.2,9.4,24c7.1,15.6,16,30.4,26.1,44.4c1.3,1.8,2.6,3.5,3.9,5.2c1.3,1.7,2.6,3.5,4,5.2c1.3,1.7,2.7,3.4,4.2,5
				c1.4,1.6,2.8,3.3,4.3,5c2.9,3.3,5.8,6.5,8.9,9.7c1.6,1.6,3.1,3.1,4.6,4.7l4.8,4.6c6.4,6,13.2,11.8,20.3,17.3
				c3.5,2.7,7.1,5.4,10.8,8c3.7,2.5,7.4,5.1,11.2,7.5c15.2,9.7,31.3,18,48.1,24.7c8.4,3.4,17,6.4,25.6,8.9c4.3,1.3,8.7,2.5,13.1,3.6
				c2.2,0.5,4.4,1,6.6,1.5s4.4,1,6.6,1.4c17.7,3.4,35.5,5.2,53.1,5.2l6.6-0.1c2.2-0.1,4.4-0.1,6.6-0.3c4.4-0.2,8.7-0.5,13.1-1
				c4.3-0.4,8.6-1.1,12.9-1.7c4.3-0.7,8.5-1.6,12.7-2.6C478,433.3,504.3,390,493.8,347.1L493.8,347.1z M416.9,310.4
				c-1.2,0.1-2.4,0.1-3.6,0.2c-1.2,0.1-2.4,0.1-3.6,0.2l-7.1,0.3l-7.3,0.2l-7.2,0c-2.4,0-4.8-0.1-7.2-0.1s-4.8-0.1-7.2-0.3
				c-2.4-0.1-4.8-0.2-7.2-0.4c-19.3-1.3-38.6-4.6-57.3-10.1c-18.6-5.4-36.8-13.1-53.7-22.7l-3.1-1.8l-3.1-1.9
				c-2.1-1.3-4.1-2.5-6.2-3.8c-2-1.3-4.1-2.6-6.1-4c-2-1.4-4-2.7-5.9-4.2c-3.9-2.8-7.7-5.8-11.5-8.8c-3.7-3.1-7.4-6.2-10.8-9.6
				c4.4,1.9,8.8,4,13.1,6c4.3,2,8.6,4,13,6l6.5,2.9c2.2,0.9,4.3,1.9,6.4,2.8l6.5,2.8l3.2,1.4c1.1,0.4,2.2,0.9,3.3,1.4
				c17.3,7.3,34.7,13.5,52.7,18.8c17.9,5.2,36,9.4,54.5,12.9l6.9,1.3l7,1.3c4.6,0.9,9.3,1.6,14.1,2.6l3.5,0.6
				c1.2,0.2,2.3,0.4,3.4,0.7c2.3,0.5,4.8,0.9,7.1,1.4c2.4,0.4,4.8,1,7.1,1.5c2.3,0.6,4.7,1,7,1.8C421.7,310,419.3,310.2,416.9,310.4
				L416.9,310.4z"/>
			<path class="st1" d="M109.2,234c-0.2-0.5-0.4-0.9-0.6-1.4c-0.1-0.3-0.2-0.5-0.3-0.8c-0.1-0.4-0.3-0.9-0.4-1.3
				c-0.1-0.3-0.2-0.6-0.3-0.9c-0.1-0.4-0.3-0.9-0.4-1.3c-0.1-0.3-0.1-0.5-0.2-0.8c-0.1-0.5-0.2-0.9-0.3-1.4
				c-0.1-0.2-0.1-0.5-0.1-0.7c-0.1-0.7-0.2-1.4-0.3-2.1c0-0.1,0-0.2,0-0.3c-0.1-0.6-0.1-1.2-0.2-1.8c0-0.2,0-0.5,0-0.7
				c0-0.5-0.1-0.9-0.1-1.4c0-0.3,0-0.5,0-0.8c0-0.5,0-0.9,0-1.3c0-0.3,0-0.5,0-0.8c0-0.5,0.1-0.9,0.1-1.4c0-0.2,0-0.5,0.1-0.7
				c0.1-0.5,0.1-1.1,0.2-1.6c0-0.1,0-0.3,0.1-0.5c0.1-0.7,0.3-1.4,0.4-2.1c0,0,0-0.1,0-0.1c0.1-0.7,0.3-1.3,0.5-2
				c0.1-0.2,0.1-0.3,0.1-0.5c0.1-0.5,0.3-1,0.5-1.5c0.1-0.2,0.1-0.4,0.2-0.6c0.2-0.5,0.3-1,0.5-1.5c0.1-0.2,0.1-0.4,0.2-0.5
				c0.2-0.5,0.4-1,0.7-1.5c0-0.1,0.1-0.2,0.1-0.3l0,0c3.6-7.7,9.6-14.3,17.7-18.5c3.3-1.7,6.7-2.9,10.1-3.6l0,0
				c14.9-3.1,30.5,2.6,39.8,14.9c1.4,1.8,2.6,3.7,3.7,5.8l0-0.1c0,0,0-0.1,0-0.1h0.1c0,0,0.1,0,0.1,0c0.1,0.1,0.2,0.1,0.4,0.2
				c0.3,0.1,0.5,0.3,0.9,0.5c0.6,0.4,1.1,0.8,1.8,1.2l3.7,2.6l7.5,5.4c2.6,1.8,5,3.6,7.6,5.4l3.4,2.3c-9.2,3.7-25,6.3-45.7-5.8
				c0.5,0.4,16.8,14.4,17.2,37.7c0,0-27.8-5.6-48.5-17.8c0,0,1,13.4-0.9,26.1c6.8,14.2,15,27.6,24.3,40.5c1.3,1.8,2.6,3.5,3.9,5.2
				c1.3,1.7,2.6,3.5,4,5.2c1.3,1.7,2.7,3.4,4.2,5c1.4,1.6,2.8,3.3,4.3,5c2.9,3.3,5.8,6.5,8.9,9.7c1.5,1.6,3.1,3.1,4.6,4.7l4.8,4.6
				c6.5,6,13.2,11.8,20.3,17.3c3.5,2.7,7.1,5.4,10.8,8c3.7,2.5,7.4,5,11.2,7.5c15.2,9.7,31.3,18,48.1,24.7c8.4,3.4,17,6.4,25.6,8.9
				c4.3,1.3,8.7,2.5,13.1,3.6c2.2,0.5,4.4,1,6.6,1.5c2.2,0.5,4.4,1,6.6,1.4c17.7,3.4,35.5,5.2,53.1,5.2l6.6-0.1
				c2.2-0.1,4.4-0.1,6.6-0.3c4.4-0.2,8.7-0.6,13.1-1c4.3-0.4,8.6-1.1,12.9-1.7c4.3-0.7,8.5-1.6,12.7-2.6
				c30.7-7.5,52.9-31.8,59.2-60.7c9.2,42.2-17,84.3-59.2,94.6c-4.2,1-8.4,1.9-12.7,2.6c-4.3,0.6-8.6,1.4-12.9,1.7
				c-4.3,0.5-8.7,0.8-13.1,1c-2.2,0.1-4.4,0.2-6.6,0.3l-6.6,0.1c-17.6,0.1-35.5-1.8-53.1-5.2c-2.2-0.4-4.4-0.9-6.6-1.4
				c-2.2-0.5-4.4-1-6.6-1.5c-4.4-1.1-8.7-2.3-13.1-3.6c-8.7-2.5-17.2-5.5-25.6-8.9c-16.8-6.7-33-15.1-48.1-24.7
				c-3.8-2.4-7.5-5-11.2-7.5c-3.6-2.6-7.3-5.2-10.8-8c-7-5.5-13.8-11.2-20.3-17.3l-4.8-4.6c-1.6-1.6-3.1-3.1-4.6-4.7
				c-3.1-3.1-6-6.4-8.9-9.7c-1.5-1.6-2.9-3.3-4.3-5c-1.4-1.7-2.8-3.3-4.2-5c-1.4-1.7-2.7-3.4-4-5.2c-1.3-1.7-2.6-3.5-3.9-5.2
				c-10.2-14-19-28.8-26.1-44.4c-1.7-3.8-3.4-7.7-4.9-11.6l0,0l0,0c-0.3-0.7-0.5-1.3-0.8-2c-0.2-0.4-0.3-0.8-0.5-1.2
				c-0.1-0.3-0.2-0.5-0.3-0.8c-1-2.8-2-5.6-3-8.5c-1.4-4.1-2.6-8.3-3.7-12.6c-0.5-2.2-1.1-4.3-1.6-6.6l-0.8-3.5l-0.4-1.9l-0.2-1
				c0-0.2-0.1-0.4-0.1-0.6l-0.1-0.3c0,0-0.1-0.1-0.1-0.2l-0.1-0.3c-0.3-0.7-0.7-1.3-1-2C109.4,234.5,109.3,234.2,109.2,234
				L109.2,234z"/>
			<path d="M97.9,199.8c-5.1,11.6-5.7,29.3,3.5,42.6c6.3,9.2,16,30.7,16,30.7c15.5-4.8,12.4-47.6,12.4-47.6
				c20.6,12.1,48.5,17.8,48.5,17.8c-0.5-23.3-16.8-37.2-17.2-37.7c33.4,19.7,54.4,0.7,54.4,0.7s-3,0.4-28.3-13.1
				c-23.5-12.6-37-21.1-55.7-20c-2.6,0.1-5.2,1-7.3,2.6l-0.1,0.1c-10.1-6.3-29.5-22.2-30.1-50.6c-0.1-4.4-3.7-7.8-8-7.8l0,0
				c-9,0-15.9,7.8-14.9,16.7C73.2,152.9,79.5,183.4,97.9,199.8L97.9,199.8z"/>
			<g class="st2">
				<path d="M185.5,197.6c-3.5-2.9-7.3-5.4-11.1-7.8c-3.8-2.4-7.7-4.6-11.8-6.6c-4.1-2-8.4-3.6-12.9-4.7c-4.5-1.1-9.1-1.6-13.7-1
					c4.4,1.1,8.6,2.4,12.7,4c4.1,1.6,8.1,3.4,12.1,5.3c4,1.9,8,3.9,12.1,5.7C177,194.5,181.2,196.3,185.5,197.6L185.5,197.6z"/>
			</g>
			<path class="st3" d="M175.8,212.2c0.9,0.3,1.8,0.5,2.7,0.8c0.4,0.1,0.8,0.2,1.2,0.3c1.2,0.3,2.3,0.5,3.4,0.7c0,0,0.1,0,0.1,0
				c1.1,0.2,2.2,0.3,3.2,0.4c1,0.1,2.1,0.1,3.1,0.2c6.9,0.1,12.5-1.2,16.7-2.9c0.5-0.2,0.9-0.4,1.4-0.6c0.4-0.2,0.9-0.4,1.2-0.6
				c0.5-0.3,1-0.5,1.5-0.8c0.5-0.3,0.9-0.5,1.3-0.7c2.4-1.4,3.7-2.6,3.7-2.6s-0.1,0-0.3,0l0,0c-7.6,4.3-28.5,13.3-52.3,0.3
				c3.3,1.9,6.6,3.3,9.6,4.5c0.4,0.1,0.9,0.3,1.2,0.5c0.4,0.1,0.8,0.3,1.2,0.4C175.2,212,175.5,212.1,175.8,212.2L175.8,212.2z"/>
			<path class="st3" d="M129.7,225.4c1.4,0.8,2.8,1.6,4.3,2.4c0.7,0.4,1.5,0.8,2.2,1.1c0.2,0.1,0.5,0.2,0.7,0.3
				c0.7,0.4,1.5,0.7,2.2,1c0.7,0.3,1.4,0.6,2,0.9c1.1,0.5,2.2,1,3.3,1.4c0.5,0.2,1,0.4,1.6,0.7c4.1,1.7,8.2,3.1,12,4.4
				c0.5,0.2,1,0.3,1.5,0.5c1.7,0.5,3.3,1,4.8,1.5c0.3,0.1,0.6,0.2,0.8,0.2c0.3,0.1,0.5,0.2,0.8,0.2c0.4,0.1,0.7,0.2,1.1,0.3
				c1.5,0.4,2.8,0.8,4.1,1.1c0.2,0.1,0.4,0.1,0.6,0.2c0.3,0.1,0.7,0.2,1,0.2c0.3,0.1,0.6,0.1,0.9,0.2c0.2,0,0.3,0.1,0.5,0.1
				c0.3,0.1,0.6,0.1,0.9,0.2c0.3,0.1,0.6,0.1,0.9,0.2c0.1,0,0.3,0.1,0.4,0.1c0.1,0,0.2,0,0.2,0.1c0.2,0,0.4,0.1,0.5,0.1
				c0.7,0.2,1.1,0.3,1.1,0.3c0-1.4-0.1-2.7-0.2-3.9c-7.9-1.9-28.5-4.2-44-11.6C132.5,227,131.1,226.2,129.7,225.4L129.7,225.4z"/>
			<path class="st3" d="M97.9,199.8c-5.1,11.6-5.7,29.3,3.5,42.6c6.3,9.2,16,30.7,16,30.7c1.9-0.6,3.5-1.7,4.8-3.3
				c-0.3,0.1-0.5,0.2-0.8,0.3c0,0-9.7-21.5-16-30.7c-9.2-13.3-8.6-31-3.5-42.6c-18.4-16.4-24.7-46.9-26.9-65.9
				c-0.1-0.6-0.1-1.2-0.1-1.7c0-4,1.6-7.7,4.3-10.4c-4.9,2.5-8.3,7.6-8.3,13.4c0,0.6,0,1.1,0.1,1.7
				C73.2,152.9,79.5,183.4,97.9,199.8L97.9,199.8z"/>
		</g>
	</g>
</g>
</svg>
