<?xml version="1.0" encoding="utf-8"?>
<!-- Generator: Adobe Illustrator 28.2.0, SVG Export Plug-In . SVG Version: 6.00 Build 0)  -->
<svg version="1.1" id="Calque_1" xmlns="http://www.w3.org/2000/svg" xmlns:xlink="http://www.w3.org/1999/xlink" x="0px" y="0px"
	 viewBox="0 0 566.9 566.9" style="enable-background:new 0 0 566.9 566.9;" xml:space="preserve">
<style type="text/css">
	.st0{fill:#9C936D;}
</style>
<circle class="st0" cx="283.5" cy="283.5" r="283.5"/>
<g>
	<path d="M445.7,230c9,0,16.7-3.1,23-9.4c6.3-6.3,9.4-14,9.4-23c0-9-3.1-16.7-9.4-23c-6.3-6.3-14-9.4-23-9.4
		c-8.7,0-16.3,3.1-22.8,9.4s-9.7,14-9.7,23c0,9,3.2,16.7,9.7,23C429.4,226.8,437,230,445.7,230z"/>
	<path d="M446.7,454.6c-3.5,0-6.9-1-10.2-2.9L95.6,251.3l-6.8,11.6l340.9,200.5c5.2,2.9,10.8,4.4,16.9,4.4c12.6,0,22.1-5.3,28.6-16
		l-11.6-6.8C459.7,451.4,454.1,454.6,446.7,454.6L446.7,454.6z"/>
	<path d="M469.4,301.6l-58.1-33.9l-6.3-87.2c-1-11.6-6-20-15-25.2L306.2,106c-7.8-4.5-15.8-6.8-24.2-6.8c-15.2,0-27,6.1-35.3,18.4
		c-4.8,7.4-7.3,15.5-7.3,24.2c0,3.9,0.5,7.7,1.4,11.6l22.8,74.1l-68.3,21.8c-9.7,2.9-15.2,10-16.5,21.3c-1.9,15.2,6,23.7,23.7,25.7
		c1.9,0.3,4.7-0.2,8.2-1.4l93.5-30.5c9-3.2,14-8.2,15-15c1-6.8,1.3-10.5,1-11.1l-14-50.9l56.2,33.4l6.8,48.9
		c1.3,8.7,5,14.9,11.1,18.4l73.1,42.6c2.6,1.6,5.2,2.4,7.7,2.4c4.8,0,8.9-1.7,12.1-5.1c3.2-3.4,4.8-7.3,4.8-11.9
		C478.1,309.7,475.2,304.8,469.4,301.6z"/>
</g>
</svg>
