<?xml version="1.0" encoding="utf-8"?>
<!-- Generator: Adobe Illustrator 28.2.0, SVG Export Plug-In . SVG Version: 6.00 Build 0)  -->
<svg version="1.1" id="Calque_1" xmlns="http://www.w3.org/2000/svg" xmlns:xlink="http://www.w3.org/1999/xlink" x="0px" y="0px"
	 viewBox="0 0 566.9 566.9" style="enable-background:new 0 0 566.9 566.9;" xml:space="preserve">
<style type="text/css">
	.st0{fill:#E8629F;}
</style>
<circle class="st0" cx="283.5" cy="283.5" r="283.5"/>
<path d="M493.2,172.7c-2.6-3.6-6.8-5.6-11.7-5.6c-1,0-2,0.1-3,0.2c-8.4,0.6-16.8,1.5-24.9,2.3c-12.4,1.3-24,2.5-33.3,2.5
	c-5.7,0-10.1-0.5-13.2-1.4l-0.2-0.1c-37.8-10.2-54-22.6-76.3-39.6c-5.4-5.1-15.9-13.2-26.9-13.2c-7.1,0-13.1,3.3-17.4,9.5l-0.7,1.1
	l-0.4,1.2c-1.9,6.6-3.9,13.3-5.9,19.8c-0.5,1.7-1,3.4-1.5,5.1c-3.9-3.7-8.6-5.6-14.1-5.6c-11,0-21.4,8.1-26.9,13.2
	c-22.2,17.1-38.5,29.4-76.3,39.6l-0.2,0.1c-3,0.9-7.5,1.4-13.2,1.4c-9.3,0-21-1.2-33.4-2.5c-8.1-0.8-16.4-1.7-24.8-2.3
	c-1-0.1-2.1-0.2-3-0.2c-4.9,0-9.1,2-11.7,5.6c-6.3,8.5-1.7,23,2.6,37c1.4,4.5,2.7,8.7,3.3,11.5l0.1,0.5l0.2,0.5
	c15.8,49.4,35.6,105.9,71.5,152.4l0.4,0.4c24.8,27.6,53.8,42.8,81.7,42.8c0.3,0,0.6,0,0.9,0l0.6,0c26.6-2.2,49.9-22.3,57.7-49.2
	c10.6,10.2,24.3,16.9,39,18.1l0.6,0c0.3,0,0.6,0,0.9,0c27.8,0,56.8-15.2,81.7-42.9l0.4-0.4c36-46.5,55.8-103,71.6-152.4l0.2-0.5
	l0.1-0.5c0.5-2.8,1.8-7,3.2-11.5C494.9,195.7,499.4,181.2,493.2,172.7L493.2,172.7z M427.4,265.8c-1,2.3-4.3,2.4-5.3,2.4
	c-1.3,0-2.7-0.2-3.8-0.7l-0.5-0.2l-0.6-0.1c-11.6-2.7-20.6-14.8-20.8-28l0-0.5l-0.1-0.5c-0.6-3.8,0.3-8.1,2.3-10.8
	c1.1-1.5,2.5-2.4,4.1-2.6l0.4-0.1c0.3-0.1,0.7-0.1,1-0.1l0.1,0c0.1,0,0.3,0,0.4,0c8.8,0,15.6,9.4,16.8,18.1l0.1,1l0.4,0.9
	c0.7,1.6,1.4,3.3,2.2,4.9C427.5,256.7,429.4,261.5,427.4,265.8L427.4,265.8z M356,225.8l-0.3,0.3c-9,9.8-21.2,15.6-32.5,15.6
	c-2.5,0-5-0.3-7.4-0.9c-3-1.2-5.7-4.5-6.6-8.2c-0.4-1.6-0.8-4.7,1.1-7.1c6.5-5.4,15.5-7,25-8.6c5.7-1,11.6-2,17.4-4
	c2.6,0.4,3.9,3,4.4,4.2C358.1,219.8,358.2,223.6,356,225.8L356,225.8z M322.2,319.5l0.4-0.2l0.3-0.3c8.8-6.8,18.8-10.6,28.1-10.6
	c12.8,0.2,26,7.7,35.4,20c2.1,4,2.5,9.5,0.8,13.9c-0.8,2.2-2.5,5-5.7,6.4c-0.1,0-0.3,0-0.4,0c-2.1,0-4.8-2.1-7.8-4.4
	c-2.2-1.7-4.5-3.5-7.1-4.9c-7.2-4.5-15.8-6.9-25-6.9c-6.4,0-12.7,1.1-18.9,3.3c-0.8,0.2-1.7,0.4-2.6,0.4c-0.3,0-3.2,0-3.7-1.5
	l-0.2-0.5C313.6,329.1,317.4,322.5,322.2,319.5L322.2,319.5z M278.4,392.6l-0.1,0.5c-5.2,21.3-23.7,38.1-44,39.9c-0.1,0-0.3,0-0.4,0
	c-31.2,0-57-23.3-69.6-37.3c-34.1-44.2-53.3-98.9-68.6-146.8c-0.7-3.7-2.1-8.1-3.6-12.9c-1.8-5.7-5.3-17.1-5.1-21.8l0.6,0.1
	c8.3,0.6,16.6,1.4,24.7,2.3c12.8,1.3,24.8,2.5,35,2.5c7.3,0,13.1-0.7,17.7-2c41-11.1,59.1-25,82-42.6l0.3-0.2l0.3-0.3
	c5.9-5.5,12.3-9.1,16.3-9.1c1,0,2.2,0.1,3.5,1.7c1.2,4.3,2.5,8.5,3.6,12.1c-0.2,0.6-0.3,1.2-0.5,1.8c-0.2,0.7-0.4,1.3-0.5,2
	c-1.8,7-3.3,13.2-4.5,19.2l-0.1,0.7c-3.6,31.9-4.9,60.6-3.7,86.9c1.2,25.9,4.7,49.6,10.7,71.9c0.2,0.9,0.5,1.9,0.8,2.8
	c0.2,0.7,0.4,1.5,0.7,2.2c0.4,1.7,0.9,3.4,1.5,5c0.1,0.3,0.2,0.6,0.3,1c0.1,0.4,0.3,0.8,0.4,1.2c0.2,0.6,0.5,1.3,0.7,1.9
	c0,0,0,0.1,0,0.1c1.2,3,2.6,6,4.2,8.8c-0.3,1.3-0.7,2.6-1.1,4.2C279.3,389.6,278.9,391.2,278.4,392.6L278.4,392.6z"/>
<path d="M254.2,324.2c-9.9-2.2-10.6,12.7-16.3,18.1c-8.8,15-25.6,26.9-43.6,24.6c-7.7-0.7-17.1-8.1-23.8-0.8
	c6,11.2,17.8,18.5,30.2,20.3c10.2,2.1,20-2.6,29.8-4.4c7.7-2,12.1-8.8,16.6-14.8c5.6-6.7,9.9-14.6,11-23.4
	C260,337.2,261.4,328.1,254.2,324.2L254.2,324.2z"/>
<path d="M176.9,276.6c-6.6-8.9-16.5-14.8-26.9-18.1c-8.9-4.1-22.2,2.8-20.7,13.3c6.7,9.3,18.2,12.7,27.6,18.3
	c2.4,0.9,4.8,2.1,7.3,2.9C173.6,297.2,181.3,284.6,176.9,276.6z"/>
<path d="M224.7,275.2c7.8-0.7,12.2-8.3,14-15.1c3-6.7,9.7-13.9,5.9-21.7c-7.2-5.3-16.9-2.2-23.7,2.3c-10.3,6-10.2,21.1-3.6,29.9
	C218.8,273.2,221.6,275.3,224.7,275.2z"/>
</svg>
