<?xml version="1.0" encoding="utf-8"?>
<!-- Generator: Adobe Illustrator 28.2.0, SVG Export Plug-In . SVG Version: 6.00 Build 0)  -->
<svg version="1.1" id="Layer_1" xmlns="http://www.w3.org/2000/svg" xmlns:xlink="http://www.w3.org/1999/xlink" x="0px" y="0px"
	 viewBox="0 0 566.9 566.9" style="enable-background:new 0 0 566.9 566.9;" xml:space="preserve">
<style type="text/css">
	.st0{fill:#E8629F;}
	.st1{display:none;fill:#2B3544;}
	.st2{fill:#231F20;}
</style>
<circle class="st0" cx="283.5" cy="283.5" r="283.5"/>
<rect x="-223.5" y="-1429.5" class="st1" width="608" height="1984"/>
<path class="st2" d="M396.9,86H170.1c-31.2,0-56.7,25.5-56.7,56.7v113.4v113.4c0,31.2,25.5,56.7,56.7,56.7h226.8
	c31.2,0,56.7-25.5,56.7-56.7V256.1V142.7C453.5,111.6,428,86,396.9,86z M191.8,399.7c-17,0-30.2-14.2-30.2-30.2s14.2-30.2,30.2-30.2
	c17,0,30.2,14.2,30.2,30.2S208.8,399.7,191.8,399.7z M375.1,399.7c-17,0-30.2-14.2-30.2-30.2s14.2-30.2,30.2-30.2
	c17,0,30.2,14.2,30.2,30.2S392.1,399.7,375.1,399.7z M415.7,256.1c0,10.4-8.5,18.9-18.9,18.9H170.1c-10.4,0-18.9-8.5-18.9-18.9
	V142.7c0-10.4,8.5-18.9,18.9-18.9h226.8c10.4,0,18.9,8.5,18.9,18.9V256.1z"/>
<path class="st2" d="M396.9,464c0,10.4-8.5,18.9-18.9,18.9H189c-10.4,0-18.9-8.5-18.9-18.9l0,0c0-10.4,8.5-18.9,18.9-18.9h189
	C388.3,445.1,396.9,453.6,396.9,464L396.9,464z"/>
</svg>
