<?xml version="1.0" encoding="utf-8"?>
<!-- Generator: Adobe Illustrator 27.6.1, SVG Export Plug-In . SVG Version: 6.00 Build 0)  -->
<svg version="1.1" id="Calque_1" xmlns="http://www.w3.org/2000/svg" xmlns:xlink="http://www.w3.org/1999/xlink" x="0px" y="0px"
	 viewBox="0 0 20 20" style="enable-background:new 0 0 20 20;" xml:space="preserve">
<style type="text/css">
	.st0{fill:#FCBE11;}
</style>
<path class="st0" d="M17.74,5.63V0L6.53,2.53v13.51c-0.44-0.28-1-0.44-1.6-0.44c-1.48,0-2.68,0.99-2.68,2.2c0,1.21,1.2,2.2,2.68,2.2
	s2.59-0.92,2.67-2.08l0,0l0,0c0-0.04,0-0.08,0-0.13s0-0.08,0-0.13V7.91l9.06-2.04v7.57c-0.44-0.28-1-0.44-1.6-0.44
	c-1.48,0-2.68,0.99-2.68,2.2s1.2,2.2,2.68,2.2s2.59-0.92,2.67-2.08l0,0l0,0c0-0.04,0-0.08,0-0.13s0-0.08,0-0.13L17.74,5.63
	L17.74,5.63z"/>
</svg>
