<?xml version="1.0" encoding="utf-8"?>
<!-- Generator: Adobe Illustrator 27.6.1, SVG Export Plug-In . SVG Version: 6.00 Build 0)  -->
<svg version="1.1" id="Calque_1" xmlns="http://www.w3.org/2000/svg" xmlns:xlink="http://www.w3.org/1999/xlink" x="0px" y="0px"
	 viewBox="0 0 20 20" style="enable-background:new 0 0 20 20;" xml:space="preserve">
<style type="text/css">
	.st0{fill:#FCBE11;}
</style>
<path class="st0" d="M10,0C4.47,0,0,4.48,0,10s4.48,10,10,10s10-4.48,10-10S15.52,0,10,0z M12.21,4.12h2.7v5.57h-2.7V4.12z
	 M5.09,4.12h2.7v5.57h-2.7C5.09,9.68,5.09,4.12,5.09,4.12z M9.99,17.63c-4.09,0-7.4-3.32-7.4-7.4h2.24c0,2.84,2.32,5.16,5.16,5.16
	s5.16-2.32,5.16-5.16h2.24C17.4,14.3,14.08,17.63,9.99,17.63L9.99,17.63z"/>
</svg>
