<?xml version="1.0" encoding="utf-8"?>
<!-- Generator: Adobe Illustrator 27.6.1, SVG Export Plug-In . SVG Version: 6.00 Build 0)  -->
<svg version="1.1" id="Calque_1" xmlns="http://www.w3.org/2000/svg" xmlns:xlink="http://www.w3.org/1999/xlink" x="0px" y="0px"
	 viewBox="0 0 20 20" style="enable-background:new 0 0 20 20;" xml:space="preserve">
<style type="text/css">
	.st0{fill:#FCBE11;}
</style>
<path class="st0" d="M10,20c5.53,0,10-4.48,10-10S15.53,0,10,0S0,4.48,0,10S4.48,20,10,20z M7.79,15.88h-2.7v-5.57h2.7V15.88z
	 M14.91,15.88h-2.7v-5.57h2.7C14.91,10.32,14.91,15.88,14.91,15.88z M10.01,2.36c4.09,0,7.4,3.32,7.4,7.4h-2.24
	c0-2.84-2.32-5.16-5.16-5.16S4.85,6.92,4.85,9.77H2.6C2.59,5.7,5.92,2.36,10.01,2.36L10.01,2.36z"/>
</svg>
