<?xml version="1.0" encoding="UTF-8"?>
<svg id="Calque_2" data-name="Calque 2" xmlns="http://www.w3.org/2000/svg" viewBox="0 0 108 128">
  <defs>
    <style>
      .cls-1 {
        fill: #f299c1;
      }

      .cls-2 {
        fill: #926685;
      }

      .cls-3 {
        fill: #916685;
      }
    </style>
  </defs>
  <g id="Calque_1-2" data-name="Calque 1">
    <g>
      <path class="cls-3" d="m53.5,128s.21-12.82,1.8-15.44c1.59-2.62,1.03-8.21,1.03-8.21,0,0-.41-3.8,2.41-5.23,2.82-1.44,14.06-12.26,14.06-12.26,0,0,.21-4.82-3.23-4.62-3.44.21-6.82.62-12.06-2.21-5.23-2.82-11.85-6.82-14.67-6.62-2.82.21-9.44-1.39-11.85-1.8s-13.25-11.22-13.25-11.22l1.23-1.03s10.82,4.62,13.24,4.82c2.41.21,8-1.03,11.03-.21s4,2.21,5.64,2.21,5.64-1.59,6.82-.62c1.18.97,2.62,3.59,3.8,4s4.21,4,10.93-3.33c6.72-7.34,7.03-8.05,7.23-9.64.21-1.59-.62-20.37-.62-20.37l3.54,1.59s.31,9.95.51,11.85c.21,1.9.62,5.64.62,5.64l5.9-14.26,1.9,1.28s-5.44,18.26-9.64,21.6c0,0-2.62,2.41-2.72,4.21-.1,1.8-3.8,3.13-3.8,3.13,0,0,17.95,6.41,9.03,21.08,0,0-5.44,6.72-9.03,10.47-3.59,3.74-1.9,6.31-1.9,6.31,0,0,.41.82-1.03,3.69,0,0,2.21,9.85,4,12.16,0,0,1.28,2.31,1.03,3.03h-21.95Z"/>
      <path class="cls-3" d="m42.42,63.77s-4.51-2.92-3.69-5.9,2.87-4.1,3.23-6.77c.36-2.67,1.49-10.52,0-13.59-1.49-3.08-3.33-7.03-3.33-7.03l-1.39.92s2.82,4.51,2.56,7.13c0,0,2.31,4.26,1.23,6.72s-3.23,7.08-3.23,7.08c0,0-3.9,4.57-2.77,6.67,1.13,2.1,2.1,4.82,2.1,4.82l5.29-.05h0Z"/>
      <path class="cls-3" d="m39.64,49.56s-7.03-2.87-8.16-6-3.85-9.34-3.85-9.34l-1.49.77s2.82,8.87,4.05,10.26,7.13,5.75,8,5.85c.89.1,1.45-1.54,1.45-1.54h0Z"/>
      <g>
        <path class="cls-3" d="m20.46,59.57c-.67-.72-1.03-1.64-1.49-2.51-.46-.97-1.03-1.9-1.74-2.72-.72-.82-1.33-1.54-1.59-2.62-.26-1.08-.31-2.15-.31-3.23,0-1.18.41-2,.87-3.08.51-1.18.77-2.41.77-3.69.05-2.51-.26-5.08-.56-7.54-.36-2.92-.87-5.85-1.54-8.72-.36-1.59-2.82-.92-2.46.67.56,2.51,1.08,5.08,1.39,7.69.31,2.62.67,5.18.62,7.8,0,1.23-.31,2.21-.77,3.33-.56,1.18-.87,2.31-.82,3.64,0,1.18.1,2.46.36,3.59s.87,2.21,1.64,3.18,1.39,1.74,1.9,2.82c.56,1.13,1.08,2.26,1.95,3.23,1.06,1.18,2.91-.61,1.78-1.84h0Z"/>
        <path class="cls-3" d="m53.5,67.21c1.74-.72,3.44-1.59,5.03-2.67s2.98-2.15,3.49-4c.97-3.39-.77-6.77-1.23-10.05-.21-1.59.05-3.08.87-4.51.82-1.44,1.95-2.56,3.03-3.74,2.36-2.56,4.57-5.34,5.9-8.62,1.49-3.59,1.59-7.85-.36-11.29-.82-1.44-3.03-.15-2.21,1.28,3.33,5.9-1.13,12.31-4.98,16.62-2.15,2.36-4.41,4.77-4.77,8.11-.36,3.33,1.28,6.16,1.49,9.29.05.82.05,1.74-.26,2.51-.26.72-.87,1.18-1.44,1.59-1.59,1.18-3.33,2.15-5.18,2.92-.62.26-1.08.87-.92,1.59.1.66.87,1.23,1.54.97h0Z"/>
        <path class="cls-3" d="m61.86,43.97c.21-2.31-1.03-4.41-1.9-6.46s-1.74-4.21-2.56-6.36c-.72-1.85-1.8-3.95-1.28-5.95.46-1.85,1.85-3.33,3.08-4.72,1.13-1.23-.72-3.03-1.8-1.8-1.44,1.59-2.87,3.23-3.59,5.28-.82,2.31-.1,4.57.72,6.77.87,2.36,1.74,4.72,2.72,7.03.82,2,2.26,4.1,2.05,6.31-.05.72.62,1.28,1.28,1.28.71-.1,1.18-.66,1.28-1.38h0Z"/>
        <path class="cls-3" d="m89.41,42.18c.31-3.74,1.49-7.44,2.41-11.08.41-1.59-2.05-2.31-2.46-.67-.97,3.9-2.1,7.75-2.51,11.75-.05.72.62,1.28,1.28,1.28.76,0,1.22-.57,1.28-1.28h0Z"/>
        <path class="cls-3" d="m89.41,43c.15-1.44,2.36-2.15,3.39-2.82,1.54-.97,2.77-2.36,3.95-3.74,1.18-1.39,2.26-2.87,2.82-4.72.51-1.74.72-3.54,1.18-5.28.41-1.59-2.05-2.26-2.46-.67-.46,1.8-.62,3.64-1.18,5.39-.56,1.74-1.64,2.98-2.82,4.31-.62.67-1.23,1.33-1.9,1.95-.67.56-1.44.92-2.15,1.33-1.69.92-3.13,2.21-3.28,4.21-.05.72.62,1.28,1.28,1.28.65.04,1.11-.53,1.17-1.24h0Z"/>
        <path class="cls-3" d="m41.54,35.76c2.98-2.62,3.08-6.82,2.36-10.47-.77-4.05-2.1-8-3.23-11.95-.46-1.59-2.92-.92-2.46.67,1.03,3.64,2.21,7.28,3.03,11.03.67,2.98,1.03,6.67-1.54,8.93-1.23,1.07.61,2.87,1.84,1.79h0Z"/>
        <path class="cls-3" d="m43.7,20.99c3.03-4.77,5.13-10.16,6.21-15.7.15-.67-.21-1.39-.92-1.59-.62-.15-1.44.21-1.59.92-1.03,5.39-3.03,10.47-5.95,15.08-.83,1.39,1.38,2.67,2.25,1.29h0Z"/>
        <path class="cls-3" d="m21.38,59.87c-.62-.26-1.23-.26-1.9-.21-.51,0-.97.05-1.44-.15s-.87-.56-1.28-.87c-.56-.46-1.13-.92-1.69-1.39-.97-.77-2.05-1.54-2.92-2.46-.31-.31-.51-.67-.56-.97,0-.1,0-.21.05-.36q.05-.1,0,0l.05-.1c-.1.15.15-.1.15-.1.56-.46.46-1.33,0-1.8-.51-.51-1.28-.46-1.8,0-1.18.97-1.23,2.72-.56,4,.67,1.33,2.05,2.26,3.18,3.18,1.23,1.03,2.41,2.15,3.74,2.98.67.41,1.44.67,2.21.72.72.05,1.44-.15,2.05.1s1.39-.26,1.59-.92c.21-.77-.25-1.39-.87-1.65h0Z"/>
        <path class="cls-3" d="m29.08,36.84c-.21-5.64-.26-11.23-.1-16.88.05-1.64-2.51-1.64-2.56,0-.1,5.64-.1,11.23.1,16.88.04,1.64,2.61,1.64,2.56,0h0Z"/>
        <path class="cls-3" d="m29.18,36.17c.1-.62.05-1.18-.26-1.74-.21-.41-.51-.77-.82-1.03-.67-.51-1.49-.77-2.15-1.23-.05-.05-.15-.05-.21-.15.1.1.15.1.05.05t-.1-.1c-.1-.1-.26-.21-.36-.36-.1-.15-.26-.26-.36-.36-.05-.05-.05-.1-.1-.15l.1.1-.15-.21c-.41-.56-.77-1.23-1.13-1.85-.31-.56-1.18-.82-1.74-.46-.62.41-.82,1.13-.46,1.74.67,1.23,1.39,2.51,2.46,3.39.62.51,1.28.82,1.95,1.18.15.1.31.21.51.26.21.1-.05,0,0-.05l.21.21c.15.15-.05-.1,0,0,0,.05.1.15.1.21-.05-.15-.05-.21-.05-.1,0,.05,0,.1.05.15v-.15c0,.15,0,.1.05-.05-.05.36-.05.67.1.97.15.26.46.51.77.56.57.2,1.44-.11,1.54-.83h0Z"/>
        <path class="cls-3" d="m38.52,49.82c-1.18-.56-2.21-1.33-3.13-2.26-1.03-.97-2.05-2-2.98-3.08-1.74-2.05-3.08-4.46-2.87-7.23.05-.72-.62-1.28-1.28-1.28-.72,0-1.23.56-1.28,1.28-.26,3.28,1.33,6.26,3.33,8.72.97,1.18,2.1,2.31,3.18,3.33,1.08,1.03,2.31,2.05,3.74,2.72.62.31,1.39.21,1.74-.46.32-.51.16-1.43-.45-1.74h0Z"/>
        <path class="cls-3" d="m80.43,37.05c-.51-3.18-1.13-6.77.15-9.85.72-1.59,1.85-2.92,2.15-4.67s.15-3.69.1-5.54c-.05-1.64-2.62-1.64-2.56,0,.05,1.74.31,3.69-.15,5.39-.21.77-.67,1.49-1.08,2.21-.46.82-.87,1.64-1.18,2.51-1.18,3.44-.56,7.18.05,10.67.1.67.97,1.08,1.59.92.77-.26,1.08-.93.93-1.64h0Z"/>
        <path class="cls-3" d="m42.83,62.7c-1.08-1.95-1.64-4.05-1.54-6.26.1-2.36.82-4.67,1.39-6.98,1.13-4.87,1.64-9.8.97-14.77-.1-.67-.97-1.08-1.59-.92-.72.21-.97.87-.92,1.59.72,4.87-.05,9.85-1.23,14.57-.56,2.36-1.23,4.72-1.18,7.18s.72,4.77,1.95,6.87c.71,1.43,2.91.15,2.15-1.28h0Z"/>
      </g>
      <g>
        <path class="cls-2" d="m8.87,48.59c-.92,1.64-1.49,3.49-1.69,5.39-.1.97-.1,1.9.05,2.87.15.97.56,2.05.36,3.03-.21.82-1.03,1.44-1.59,2.05-.51.56-.92,1.28-1.08,2.05-.41,1.64.1,3.39.62,4.98.62,2,1.28,3.9,1.39,6s-.21,4.26-.87,6.36c-.56,1.85-1.28,3.8-1.13,5.8.1,1.8.97,3.28,1.85,4.77.51.87.97,1.74,1.23,2.67.26,1.18,0,2.31-.41,3.44-.62,1.8-1.44,3.9-.15,5.64.26.31.82,0,.56-.31-1.23-1.69-.21-3.74.36-5.44s.51-3.23-.21-4.82-1.85-2.92-2.31-4.57c-.56-2,.05-4.1.62-6.05.56-1.95,1.08-3.8,1.18-5.8s-.21-3.95-.77-5.8c-.51-1.74-1.28-3.49-1.39-5.28-.05-.92.1-1.8.62-2.56.46-.72,1.13-1.18,1.64-1.85.51-.72.67-1.49.56-2.36-.15-1.13-.41-2.15-.41-3.28,0-2.26.56-4.51,1.64-6.46.04-.52-.47-.83-.67-.47h0Z"/>
        <path class="cls-1" d="m11.84,48.9c1.18,1.8,2.15,3.69,2.82,5.75.36,1.03.77,2.21.41,3.28-.26.92-.97,1.64-1.59,2.31-1.18,1.33-2,2.77-2.31,4.57-.26,1.74.05,3.33.77,4.87.82,1.74,1.9,3.39,1.49,5.39-.36,1.64-1.28,3.08-2.05,4.51-.72,1.33-1.33,2.82-1.23,4.36.1,1.8,1.03,3.39,1.8,4.98.46.97.92,1.95,1.08,3.03.21,1.23.1,2.46-.05,3.69-.31,2.26-.92,4.51-.82,6.82,0,.41.67.41.62,0-.21-4.05,1.9-8.11.46-12.11-.62-1.74-1.74-3.33-2.26-5.13-.51-1.8,0-3.54.87-5.13.72-1.44,1.64-2.77,2.05-4.31.46-1.64.21-3.18-.56-4.67-.46-.92-.97-1.8-1.28-2.77-.31-.92-.41-1.9-.31-2.82.15-2.05,1.13-3.59,2.46-5.08.62-.67,1.23-1.44,1.49-2.31.31-1.08.05-2.15-.26-3.18-.72-2.26-1.74-4.36-3.03-6.36-.21-.36-.77-.05-.57.31h0Z"/>
        <path class="cls-1" d="m15.43,49.36c1.49,1.23,2.51,2.87,2.92,4.72.51,2,.15,3.9-.51,5.8-.62,1.8-1.44,3.69-.92,5.59.26.97.92,1.8,1.23,2.77s.21,1.95-.1,2.87c-.56,1.8-1.69,3.44-1.9,5.39s.31,3.74.77,5.59c.51,1.95,1.08,4.05.67,6.05s-1.64,3.74-2.51,5.59c-1.03,2.1-1.54,4.41-1.39,6.77.05.87.05,2.05.72,2.77.46.51,2.82,1.08,2.1,2-.26.31.31.67.56.31.46-.56.15-1.28-.36-1.74-.77-.72-1.9-.56-2.21-1.8-.51-2.26-.21-4.77.62-6.87.72-1.95,1.95-3.59,2.67-5.54.72-1.95.62-3.85.21-5.75-.41-1.9-1.23-4.05-1.28-6.16-.05-2.1.92-3.85,1.64-5.75.36-.87.62-1.8.56-2.72-.05-.92-.46-1.74-.87-2.56-.56-1.08-.82-2.05-.67-3.28.15-1.08.56-2.1.92-3.13.72-2.05,1.08-4,.62-6.16-.46-2-1.54-3.85-3.13-5.18-.26-.35-.72.11-.36.42h0Z"/>
        <path class="cls-1" d="m9.63,48.59l2.1,2.56c.31.41.82.92.82,1.44,0,.62-.51,1.23-.77,1.74-.51.97-1.03,2-1.59,2.98-.46.87-1.08,1.74-1.23,2.72-.15.97.26,1.74.77,2.51.62.97,1.23,1.9,1.8,2.87.56.87,1.28,1.8,1.23,2.92-.05,1.13-.72,2.26-1.08,3.23-.82,2.1-1.59,4.21-2.41,6.36s-1.64,4.05-2.21,6.1c-.46,1.8-.67,3.8.05,5.59.72,1.8,2.21,2.98,3.08,4.62.36.72.26,1.18.05,1.9-.15.56-.31,1.13-.41,1.69-.21,1.08-.36,2.21-.41,3.33-.1,2.36.21,4.72.87,6.98.1.41.72.21.62-.15-.62-2.1-.92-4.26-.82-6.46.05-1.13.15-2.26.41-3.39.1-.51.21-.97.36-1.49.15-.51.36-.92.41-1.44.05-.87-.56-1.69-1.03-2.36-.56-.77-1.13-1.44-1.64-2.21-1.28-1.9-1.39-4-.82-6.16.56-2.15,1.44-4.16,2.21-6.21.82-2.15,1.64-4.31,2.46-6.46.41-1.03.92-2.05,1.08-3.08.15-.92-.1-1.74-.56-2.51-.51-.92-1.13-1.85-1.74-2.77-.56-.92-1.69-2.1-1.49-3.28.1-.62.46-1.13.72-1.69.31-.56.62-1.18.92-1.74.56-1.08,1.23-2.15,1.74-3.28.41-.92.21-1.64-.41-2.36-.82-1.03-1.64-2-2.51-3.03-.36-.24-.82.22-.57.53h0Z"/>
        <path class="cls-2" d="m13.53,48.69c.82,2.1,1.64,4.21,2.46,6.31.21.51.46,1.03.41,1.59s-.36,1.08-.62,1.59c-.46.82-1.03,1.59-1.49,2.36-.92,1.49-1.8,3.03-2,4.77-.26,2.05.72,3.95,1.54,5.75.92,2.1,2.05,4.16,2.82,6.31.82,2.31-.36,4.21-1.74,5.95-1.23,1.59-2.15,3.13-2.51,5.18-.15.97-.21,1.95-.26,2.87-.05.77-.21,1.69.46,2.26.36.31.82.46,1.18.82.41.36.67.87.87,1.33.36.92.51,1.85.72,2.82.46,2.56.92,5.13,1.39,7.69.05.41.72.26.62-.15-.41-2.26-.82-4.46-1.23-6.67-.31-1.69-.46-3.59-1.54-5.03-.21-.26-.41-.51-.72-.72-.46-.36-1.08-.51-1.13-1.18-.05-.97.05-2.05.15-3.03.1-1.08.36-2.21.82-3.18s1.13-1.85,1.8-2.67c1.08-1.44,2.26-3.08,2.1-4.98-.05-.97-.51-1.85-.87-2.67-.46-1.03-.92-2.05-1.44-3.13-.51-1.08-.97-2.1-1.44-3.18-.46-1.08-.92-2.15-.97-3.33-.1-1.95.87-3.69,1.85-5.28.56-.92,1.18-1.8,1.69-2.72.51-.87.77-1.69.46-2.67-.36-1.18-.92-2.36-1.33-3.54l-1.39-3.64c-.19-.34-.81-.19-.66.17h0Z"/>
        <path class="cls-1" d="m9.99,47.92c-1.54.46-3.13,1.08-3.64,2.77-.26.92-.26,1.9-.31,2.82-.05,1.03-.05,2-.15,3.03-.1,2.05-.41,4.1-1.18,6-.72,1.74-2,3.23-2.62,5.03-.67,2-.1,4.16-.05,6.21.05,1.03.05,2.05.21,3.08.15,1.03.46,2.1.72,3.13.46,2.05.36,4.1.31,6.21-.05,1.8.05,3.69.97,5.34.56,1.03,1.39,1.95,1.64,3.08.25,1.13-.05,2.41-.41,3.54s-.97,2.05-1.33,3.13c-.26.77-.31,1.59.26,2.21.26.31.72-.15.46-.46-.67-.77.05-2,.41-2.72.36-.82.77-1.64,1.03-2.51.56-1.8.46-3.49-.51-5.08-.51-.82-1.03-1.54-1.33-2.46-.31-.92-.41-1.85-.46-2.82-.05-1.85.21-3.69,0-5.54-.21-2-.97-3.9-1.13-5.9-.1-1.03-.05-2.1-.1-3.13s-.26-2.1-.26-3.18c0-2,1.13-3.54,2.1-5.18s1.49-3.28,1.74-5.08c.31-2.1.36-4.21.46-6.31.05-1.03,0-2.31.72-3.13.67-.77,1.74-1.13,2.72-1.39.3-.18.09-.79-.27-.69h0Z"/>
        <path class="cls-1" d="m10.51,48.13c-1.13,1.8-2.31,3.8-2,6,.15,1.13.67,2.21,1.13,3.23.56,1.18,1.08,2.41,1.64,3.59s1.08,2.41,1.64,3.59c.51,1.13,1.28,2.46.97,3.74-.26,1.18-1.44,2.05-2.26,2.87-.92.92-1.85,1.85-2.82,2.82-.82.82-1.74,1.54-2.41,2.46-.62.82-.62,1.8-.26,2.72.87,2.1,2.56,3.54,4,5.18.77.92,1.49,2.1,1.23,3.33-.15.77-.72,1.39-1.39,1.85-1.23.87-2.77,1.39-3.9,2.46-1.59,1.59-1.44,3.95-.51,5.9.56,1.23,1.39,2.31,2.1,3.39.87,1.28,1.69,2.51,2.56,3.8.21.36.77,0,.56-.31-1.39-2.1-2.92-4.16-4.21-6.31-1.08-1.85-1.8-4.36-.05-6.05,1.13-1.08,2.72-1.54,3.95-2.51,1.23-.97,1.85-2.41,1.33-3.95-.67-2.05-2.62-3.33-3.85-4.98-.67-.92-1.74-2.26-1.49-3.44.21-1.08,1.49-2,2.26-2.77.92-.92,1.8-1.8,2.72-2.72.77-.77,1.64-1.54,2.31-2.41,1.39-1.9.31-4-.56-5.9-1.18-2.56-2.41-5.13-3.54-7.8-.56-1.33-.87-2.67-.46-4.05.36-1.28,1.08-2.46,1.8-3.59.28-.2-.29-.5-.49-.14h0Z"/>
        <path class="cls-1" d="m16.05,49.82c1.49,3.74,4.16,6.77,6.26,10.21.51.87,1.33,1.95,1.03,2.98-.26.87-1.03,1.54-1.54,2.26-1.13,1.54-1.49,3.49-1.54,5.39-.05,2.36.26,4.67-.21,7.03-.21,1.08-.51,2.1-.67,3.18-.15.97-.1,1.85,0,2.82s.21,1.9-.51,2.56c-.62.51-.97,1.03-.67,1.85.26.77,1.74,1.64,1.39,2.46-.26.62-.36,1.03-.05,1.64.41.82,1.33,1.49.87,2.51-.51,1.08-1.33,2-1.95,3.03-1.18,1.95-2.1,4.16-1.54,6.46.1.41.72.26.62-.15-.56-2.31.46-4.46,1.69-6.36.87-1.33,2.56-2.92,1.64-4.57-.31-.51-1.13-1.23-.92-1.9.1-.36.36-.56.36-.97-.05-.36-.26-.72-.51-1.03-.31-.41-.72-.72-.97-1.18-.36-.77.21-1.03.67-1.54.51-.51.62-1.28.62-2-.05-.92-.26-1.85-.21-2.77.05-1.13.36-2.21.62-3.33.46-2.26.31-4.46.31-6.72,0-2,.15-4.21,1.33-5.9.51-.72,1.23-1.33,1.59-2.15.36-.72.26-1.49-.05-2.21-.87-2.05-2.36-3.9-3.64-5.69-1.33-1.9-2.62-3.85-3.49-6-.07-.48-.69-.32-.53.09h0Z"/>
        <path class="cls-1" d="m13.38,48.07c-1.49,1.33-2.87,2.82-4.1,4.41s-2.1,2.98-1.9,5.03c.21,2.05.72,4.16,1.08,6.26.36,2.05.77,4.31,1.18,6.46.1.51.21,1.08.31,1.64.1.82-.36.97-.97,1.28-.97.46-1.9.92-2.77,1.44-.67.36-1.23.82-1.39,1.59-.21.87-.15,1.85-.05,2.72.21,1.95.82,3.8,1.49,5.64.72,1.95,1.39,3.85,1.9,5.9.56,2.36.97,4.77,1.13,7.18.05,1.13.1,2.31,0,3.44-.05.31-.1.62-.15.97-.05.15-.15.36-.1.51.1.41.77.92,1.03,1.23.26.31.72-.15.46-.46-.31-.36-.62-.72-.97-1.08l.1.31c.51-1.85.41-3.85.26-5.75s-.46-3.9-.92-5.85-1.03-3.69-1.64-5.49c-.62-1.8-1.33-3.64-1.69-5.54-.15-.92-.26-1.9-.21-2.87.05-.51.05-1.03.46-1.39s.92-.62,1.39-.87c.77-.41,1.59-.82,2.36-1.18.72-.31,1.18-.62,1.13-1.49-.1-.92-.31-1.85-.51-2.77-.21-1.08-.41-2.15-.56-3.23-.36-2-.72-4-1.08-6-.21-1.18-.51-2.36-.46-3.54.05-1.18.67-2.15,1.39-3.13,1.33-1.8,2.82-3.39,4.51-4.87.06-.29-.4-.75-.71-.5h0Z"/>
        <path class="cls-1" d="m11.07,48.02l1.44,7.49c.46,2.51,1.08,5.03,1.44,7.59.21,1.28.21,2.62-.31,3.8-.41,1.03-1.08,1.95-1.8,2.82-1.23,1.59-2.67,3.23-2.98,5.34-.51,4.05,4.1,6.46,5.95,9.49,2.62,4.41-1.54,8.46-2.36,12.77-.21,1.08-.21,2.26.15,3.33.36,1.08,1.08,1.85,1.64,2.72s1.03,2.05.21,2.98c-.72.77-1.85,1.03-2.82,1.23-.41.1-.21.72.15.62,1.49-.31,3.49-.92,3.74-2.72.31-1.95-1.69-3.33-2.31-5.03-.82-2.31.26-4.82,1.28-6.93,1.03-2.1,2.05-4.21,1.85-6.57-.41-4.21-4.82-6.05-6.46-9.59-1.13-2.46.46-4.82,1.95-6.67,1.33-1.64,2.67-3.33,2.82-5.54.1-1.39-.21-2.77-.46-4.1l-.82-4.36c-.56-2.98-1.13-5.9-1.69-8.87-.1-.41-.71-.21-.61.2h0Z"/>
        <path class="cls-1" d="m9.12,47.82c-1.54-.26-2.82.87-3.33,2.26-.36.92-.36,1.95-.41,2.87,0,1.08-.05,2.15-.15,3.23-.41,4.41-1.59,8.72-3.03,12.93-.67,1.95-1.28,3.9-1.23,6,.05,2.1.62,4.1,1.18,6.1s1.08,4.21.05,6.1c-.41.77-1.08,1.33-1.59,2.05s-.72,1.54-.56,2.36c.15,1.13.72,2.15,1.18,3.18.51,1.08,1.03,2.21,1.59,3.28s1.23,2.15,1.8,3.23c.51.97.97,2.46-.21,3.18-.36.21-.05.77.31.56,1.39-.82,1.18-2.56.56-3.85-.97-1.9-2.05-3.69-2.98-5.59-.46-1.03-.97-2.05-1.39-3.13-.41-1.08-.41-2.05.31-3.03.51-.67,1.13-1.28,1.54-2s.56-1.54.62-2.36c.1-1.95-.56-3.85-1.08-5.69-.56-2.1-.92-4.31-.56-6.52.36-2.05,1.18-4,1.8-5.95s1.18-4.1,1.59-6.21c.46-2.31.77-4.67.82-7.03.05-1.13-.05-2.36.36-3.44.41-1.08,1.33-2.1,2.56-1.9.46.09.66-.53.25-.63h0Z"/>
      </g>
      <g>
        <path class="cls-2" d="m87.92,27.61c-.92,1.64-1.49,3.49-1.69,5.39-.1.97-.1,1.9.05,2.87.15.97.56,2.05.36,3.03-.21.82-1.03,1.44-1.59,2.05-.51.56-.92,1.28-1.08,2.05-.41,1.64.1,3.39.62,4.98.62,2,1.28,3.9,1.39,6,.1,2.15-.26,4.26-.87,6.36-.56,1.85-1.28,3.8-1.13,5.8.1,1.8.97,3.28,1.85,4.77.51.87.97,1.74,1.23,2.67.26,1.18,0,2.31-.41,3.44-.62,1.8-1.44,3.9-.15,5.64.26.31.77,0,.56-.31-1.23-1.69-.21-3.74.36-5.44s.51-3.23-.21-4.82-1.85-2.92-2.31-4.57c-.56-2,.05-4.1.62-6.05.56-1.95,1.08-3.8,1.18-5.8s-.21-3.95-.77-5.8c-.51-1.74-1.28-3.49-1.39-5.28-.05-.92.1-1.8.62-2.56.46-.72,1.13-1.18,1.64-1.85.51-.72.67-1.49.56-2.36-.15-1.13-.41-2.15-.41-3.28,0-2.26.56-4.51,1.64-6.46.1-.52-.47-.88-.67-.47h0Z"/>
        <path class="cls-1" d="m90.94,27.86c1.18,1.8,2.15,3.69,2.82,5.75.36,1.03.77,2.21.41,3.28-.26.92-.97,1.64-1.59,2.31-1.18,1.33-2,2.77-2.31,4.57s0,3.33.77,4.87c.82,1.74,1.9,3.39,1.49,5.39-.36,1.64-1.28,3.08-2.05,4.51-.72,1.33-1.33,2.82-1.23,4.36.1,1.8,1.03,3.39,1.8,4.98.46.97.92,1.95,1.08,3.03.21,1.23.1,2.46-.05,3.69-.31,2.26-.92,4.51-.77,6.82,0,.41.67.41.62,0-.21-4.05,1.9-8.11.46-12.11-.62-1.74-1.74-3.33-2.26-5.13-.51-1.8,0-3.54.87-5.18.72-1.44,1.59-2.77,2.05-4.31.46-1.64.21-3.18-.56-4.67-.46-.92-.97-1.8-1.28-2.77-.31-.92-.41-1.9-.31-2.82.15-2.05,1.13-3.59,2.46-5.08.62-.67,1.23-1.44,1.49-2.31.31-1.08.05-2.15-.26-3.18-.72-2.26-1.74-4.36-3.03-6.36-.31-.3-.87,0-.62.36h0Z"/>
        <path class="cls-1" d="m94.48,28.32c1.49,1.23,2.51,2.87,2.92,4.72.51,2,.15,3.9-.51,5.8-.62,1.8-1.44,3.69-.92,5.59.26.97.92,1.8,1.23,2.77s.21,1.95-.1,2.87c-.56,1.8-1.69,3.44-1.9,5.39s.31,3.74.77,5.59c.51,1.95,1.08,4.05.67,6.05s-1.64,3.74-2.51,5.59c-1.03,2.1-1.54,4.41-1.39,6.77.05.87.05,2.05.72,2.77.46.51,2.82,1.08,2.1,2-.26.31.31.67.56.31.46-.56.15-1.28-.36-1.74-.77-.72-1.9-.56-2.21-1.8-.51-2.26-.21-4.77.62-6.87.72-1.95,1.95-3.59,2.67-5.54.72-1.95.62-3.85.21-5.75-.41-1.95-1.23-4.05-1.28-6.16s.92-3.85,1.64-5.75c.36-.87.62-1.8.56-2.72-.05-.92-.46-1.74-.87-2.56-.56-1.08-.82-2.05-.67-3.28.15-1.08.56-2.1.92-3.13.72-2.05,1.08-4,.62-6.16-.46-2-1.54-3.85-3.13-5.18-.25-.29-.66.12-.36.42h0Z"/>
        <path class="cls-1" d="m88.69,27.61c.72.87,1.44,1.74,2.1,2.56.31.41.82.92.82,1.44,0,.62-.51,1.23-.77,1.74-.51.97-1.03,2-1.59,2.98-.46.87-1.08,1.74-1.23,2.72-.15.97.26,1.74.77,2.51.62.97,1.23,1.9,1.8,2.87.56.87,1.28,1.8,1.23,2.92-.05,1.13-.72,2.26-1.08,3.23-.82,2.1-1.59,4.21-2.41,6.36-.82,2.15-1.64,4.05-2.21,6.1-.51,1.85-.67,3.8.05,5.59.72,1.74,2.21,2.98,3.08,4.62.36.72.26,1.18,0,1.9-.15.56-.31,1.13-.41,1.69-.26,1.08-.36,2.21-.41,3.33-.1,2.36.21,4.72.87,6.98.1.41.72.21.62-.15-.62-2.1-.92-4.26-.82-6.46.05-1.13.15-2.26.41-3.39.1-.51.21-.97.36-1.49.15-.51.36-.92.41-1.44.05-.87-.56-1.69-1.03-2.36-.51-.77-1.13-1.44-1.64-2.21-1.28-1.9-1.39-4-.82-6.16.51-2.15,1.44-4.16,2.21-6.21.82-2.15,1.64-4.31,2.46-6.46.41-1.03.92-2.05,1.08-3.08.15-.92-.1-1.74-.51-2.51-.51-.92-1.13-1.85-1.74-2.77-.62-.92-1.69-2.1-1.54-3.28.1-.62.46-1.13.72-1.69.31-.56.62-1.18.92-1.74.56-1.08,1.23-2.15,1.74-3.28.41-.92.21-1.64-.41-2.36-.82-1.03-1.64-2-2.51-3.03-.32-.24-.78.22-.52.53h0Z"/>
        <path class="cls-2" d="m92.59,27.66c.82,2.1,1.64,4.21,2.46,6.31.21.51.46,1.03.41,1.59-.05.56-.36,1.08-.62,1.59-.46.82-1.03,1.59-1.49,2.36-.92,1.49-1.8,3.03-2,4.77-.26,2.05.72,3.95,1.54,5.75.92,2.1,2.05,4.16,2.82,6.31.82,2.31-.36,4.21-1.74,5.95-1.23,1.59-2.15,3.13-2.51,5.18-.15.97-.21,1.95-.26,2.87,0,.77-.21,1.69.46,2.26.36.31.82.46,1.13.82.41.36.67.87.87,1.33.36.92.51,1.85.72,2.82.46,2.56.92,5.13,1.39,7.69.05.41.72.26.62-.15-.41-2.26-.82-4.46-1.23-6.67-.31-1.69-.46-3.59-1.54-5.03-.21-.26-.41-.51-.72-.72-.46-.36-1.08-.51-1.13-1.18-.05-.97.05-2.05.15-3.03.1-1.08.36-2.21.82-3.18s1.13-1.85,1.8-2.67c1.08-1.44,2.26-3.08,2.1-4.98-.05-.97-.51-1.85-.87-2.67-.46-1.03-.92-2.05-1.44-3.13-.51-1.08-.97-2.1-1.44-3.18-.46-1.08-.92-2.15-.97-3.33-.1-1.95.87-3.69,1.85-5.28.56-.92,1.18-1.8,1.69-2.72.51-.87.77-1.69.46-2.67-.36-1.18-.92-2.36-1.33-3.54l-1.39-3.64c-.15-.35-.77-.19-.61.17h0Z"/>
        <path class="cls-1" d="m89.05,26.89c-1.54.46-3.13,1.08-3.64,2.77-.26.92-.26,1.9-.31,2.82-.05,1.03-.05,2-.15,3.03-.1,2.05-.41,4.1-1.18,6-.72,1.74-2,3.23-2.62,5.03-.67,2-.1,4.16-.05,6.21,0,1.03.05,2.05.21,3.08.15,1.03.46,2.1.72,3.13.51,2.05.36,4.1.31,6.21-.05,1.8.05,3.69.97,5.34.56,1.03,1.39,1.95,1.64,3.08.26,1.13,0,2.41-.41,3.54s-.97,2.05-1.33,3.13c-.26.77-.31,1.59.26,2.21.26.31.72-.15.46-.46-.67-.77.05-2,.41-2.72.36-.82.77-1.64,1.03-2.51.51-1.8.46-3.49-.51-5.08-.51-.82-1.03-1.54-1.33-2.46-.31-.92-.41-1.85-.46-2.82-.05-1.85.21-3.69,0-5.54-.21-2-.97-3.9-1.13-5.9-.1-1.03-.05-2.1-.1-3.13-.05-1.03-.26-2.1-.26-3.18,0-2,1.13-3.54,2.1-5.18s1.49-3.28,1.74-5.08c.31-2.1.36-4.21.46-6.31.05-1.03,0-2.31.72-3.13.67-.77,1.74-1.13,2.72-1.39.29-.18.14-.79-.27-.69h0Z"/>
        <path class="cls-1" d="m89.56,27.09c-1.13,1.8-2.31,3.8-2,6,.15,1.13.67,2.21,1.13,3.23.56,1.18,1.08,2.41,1.64,3.59s1.08,2.41,1.64,3.59c.51,1.13,1.28,2.46.97,3.74-.26,1.18-1.44,2.05-2.26,2.87l-2.82,2.82c-.82.82-1.74,1.54-2.41,2.46-.62.82-.62,1.8-.26,2.72.87,2.1,2.56,3.54,4,5.18.77.92,1.49,2.1,1.23,3.33-.15.77-.72,1.39-1.39,1.85-1.23.87-2.77,1.39-3.9,2.46-1.59,1.59-1.44,3.95-.51,5.9.56,1.23,1.39,2.31,2.1,3.39.87,1.28,1.69,2.51,2.56,3.8.26.36.77,0,.56-.31-1.39-2.1-2.92-4.16-4.21-6.31-1.08-1.85-1.8-4.36-.05-6.05,1.13-1.08,2.72-1.54,3.95-2.51,1.23-.97,1.85-2.41,1.33-3.95-.67-2.05-2.62-3.33-3.85-4.98-.67-.92-1.74-2.26-1.49-3.44.21-1.08,1.49-2,2.26-2.77.92-.92,1.8-1.8,2.72-2.72.77-.77,1.64-1.54,2.31-2.41,1.39-1.9.31-4-.56-5.9-1.18-2.56-2.41-5.13-3.54-7.8-.56-1.33-.87-2.67-.51-4.05.36-1.28,1.08-2.46,1.8-3.59.33-.19-.24-.5-.44-.14h0Z"/>
        <path class="cls-1" d="m95.1,28.79c1.49,3.74,4.16,6.77,6.26,10.21.51.87,1.33,1.95,1.03,2.98-.26.87-1.03,1.54-1.54,2.26-1.13,1.54-1.49,3.49-1.54,5.39-.05,2.36.26,4.67-.21,7.03-.21,1.08-.51,2.1-.67,3.18-.15.97-.1,1.85,0,2.82s.21,1.9-.51,2.56c-.62.51-.97,1.03-.67,1.85.26.77,1.74,1.64,1.39,2.46-.26.62-.36,1.03-.05,1.64.41.82,1.33,1.49.87,2.51-.51,1.08-1.33,2-1.95,3.03-1.18,1.95-2.1,4.16-1.54,6.46.1.41.72.26.62-.15-.56-2.31.46-4.46,1.69-6.36.87-1.33,2.56-2.92,1.64-4.57-.31-.51-1.13-1.23-.92-1.9.1-.36.36-.56.36-.97-.05-.36-.26-.72-.51-1.03-.31-.41-.72-.72-.97-1.18-.36-.77.21-1.03.67-1.54.51-.51.62-1.28.62-2-.05-.92-.26-1.85-.21-2.77.05-1.13.36-2.21.62-3.33.46-2.26.31-4.46.31-6.72,0-2,.15-4.21,1.33-5.9.51-.72,1.23-1.33,1.59-2.15.36-.72.26-1.49-.05-2.21-.87-2.05-2.36-3.9-3.64-5.69-1.33-1.9-2.62-3.85-3.49-6-.07-.48-.68-.32-.53.09h0Z"/>
        <path class="cls-1" d="m92.48,27.09c-1.49,1.33-2.87,2.82-4.1,4.41-1.23,1.59-2.1,2.98-1.9,5.03.21,2.05.72,4.16,1.08,6.26.41,2.15.77,4.31,1.18,6.46.1.51.21,1.08.31,1.64.1.82-.36.97-.97,1.28-.97.46-1.9.92-2.77,1.44-.67.36-1.23.82-1.39,1.59-.21.87-.15,1.85-.05,2.72.21,1.95.82,3.8,1.49,5.64.72,1.95,1.39,3.9,1.9,5.9.56,2.36.97,4.77,1.13,7.18.05,1.13.1,2.31,0,3.44-.05.31-.1.62-.15.97-.05.15-.15.36-.1.51.1.41.77.92,1.03,1.23.26.31.72-.15.46-.46-.31-.36-.62-.72-.97-1.08l.1.31c.51-1.85.41-3.85.26-5.75s-.46-3.9-.92-5.85-1.03-3.69-1.64-5.49c-.67-1.8-1.33-3.64-1.69-5.54-.15-.92-.26-1.9-.21-2.87.05-.51.05-1.03.46-1.39s.92-.62,1.39-.87c.77-.41,1.59-.82,2.36-1.18.72-.31,1.18-.62,1.13-1.49-.1-.92-.31-1.85-.51-2.77-.21-1.08-.41-2.15-.56-3.23l-1.08-6c-.21-1.18-.51-2.36-.46-3.54s.67-2.15,1.39-3.13c1.33-1.8,2.82-3.39,4.51-4.87.01-.34-.45-.75-.71-.5h0Z"/>
        <path class="cls-1" d="m90.12,26.99c.46,2.51.97,4.98,1.44,7.49.46,2.51,1.08,5.03,1.44,7.59.21,1.28.21,2.56-.31,3.8-.41,1.03-1.08,1.95-1.8,2.82-1.28,1.59-2.67,3.23-2.98,5.34-.51,4.05,4.1,6.46,5.95,9.49,2.62,4.41-1.54,8.46-2.36,12.77-.21,1.08-.21,2.26.15,3.33.36,1.08,1.08,1.85,1.64,2.72s1.03,2.05.21,2.98c-.72.77-1.85,1.03-2.82,1.23-.41.1-.26.72.15.62,1.49-.31,3.49-.92,3.74-2.72.31-1.95-1.69-3.33-2.31-5.03-.82-2.31.26-4.82,1.28-6.93.97-2.05,2.05-4.21,1.85-6.57-.41-4.21-4.82-6.05-6.46-9.59-1.13-2.46.46-4.82,1.95-6.67,1.33-1.64,2.67-3.33,2.82-5.54.1-1.39-.21-2.77-.46-4.1l-.82-4.36-1.69-8.87c-.04-.36-.66-.21-.61.2h0Z"/>
        <path class="cls-1" d="m88.17,26.79c-1.54-.26-2.82.87-3.33,2.26-.36.92-.36,1.95-.41,2.87,0,1.08-.05,2.15-.15,3.23-.41,4.41-1.59,8.72-3.03,12.93-.67,1.95-1.28,3.9-1.23,6s.62,4.1,1.18,6.1,1.08,4.21.05,6.1c-.41.77-1.08,1.33-1.59,2.05-.51.72-.72,1.54-.56,2.36.15,1.13.72,2.15,1.18,3.18.51,1.08,1.03,2.21,1.59,3.28.56,1.08,1.23,2.15,1.8,3.23.51.97.97,2.46-.21,3.18-.36.21-.05.77.31.56,1.39-.82,1.18-2.56.56-3.85-.97-1.9-2.05-3.69-2.98-5.59-.51-1.03-.97-2.05-1.39-3.13-.41-1.08-.41-2.05.31-3.03.51-.67,1.13-1.28,1.54-2s.56-1.54.62-2.36c.1-1.95-.56-3.85-1.08-5.75-.56-2.1-.92-4.31-.56-6.52.36-2.05,1.18-4,1.8-5.95s1.18-4.1,1.59-6.21c.46-2.31.77-4.67.82-7.03.05-1.13-.05-2.36.36-3.44s1.33-2.1,2.56-1.9c.51.14.66-.47.25-.57h0Z"/>
      </g>
      <g>
        <path class="cls-2" d="m64.11,17.81c-.92,1.64-1.49,3.49-1.69,5.39-.1.97-.1,1.9.05,2.87.15.97.56,2.05.36,3.03-.21.82-1.03,1.44-1.59,2.05-.51.56-.92,1.28-1.08,2.05-.41,1.64.1,3.39.62,4.98.62,2,1.28,3.9,1.39,6,.1,2.15-.26,4.26-.87,6.36-.56,1.85-1.28,3.8-1.13,5.8.1,1.8.97,3.28,1.85,4.77.51.87.97,1.74,1.23,2.67.26,1.18,0,2.31-.41,3.44-.62,1.8-1.44,3.9-.15,5.64.26.31.77,0,.56-.31-1.23-1.69-.21-3.74.36-5.44s.51-3.23-.21-4.82-1.85-2.92-2.31-4.57c-.56-2,.05-4.1.62-6.05.56-1.95,1.08-3.8,1.18-5.8s-.21-3.95-.77-5.8c-.51-1.74-1.28-3.49-1.39-5.28-.05-.92.1-1.8.62-2.56.46-.72,1.13-1.18,1.64-1.85.51-.72.67-1.49.56-2.36-.15-1.13-.41-2.15-.41-3.28,0-2.26.56-4.51,1.64-6.46.1-.52-.46-.88-.67-.47h0Z"/>
        <path class="cls-1" d="m67.14,18.06c1.18,1.8,2.15,3.69,2.82,5.75.36,1.03.77,2.21.41,3.28-.26.92-.97,1.64-1.59,2.31-1.18,1.33-2,2.77-2.31,4.57-.31,1.8,0,3.33.77,4.87.82,1.74,1.9,3.39,1.49,5.39-.36,1.64-1.28,3.08-2.05,4.51-.72,1.33-1.33,2.82-1.23,4.36.1,1.8,1.03,3.39,1.8,4.98.46.97.92,1.95,1.08,3.03.21,1.23.1,2.46-.05,3.69-.31,2.26-.92,4.51-.77,6.82,0,.41.67.41.62,0-.21-4.05,1.9-8.11.46-12.11-.62-1.74-1.74-3.33-2.26-5.13-.51-1.8,0-3.54.87-5.13.72-1.44,1.59-2.77,2.05-4.31.46-1.64.21-3.18-.56-4.67-.46-.92-.97-1.8-1.28-2.77-.31-.92-.41-1.9-.31-2.82.15-2.05,1.13-3.59,2.46-5.08.62-.67,1.23-1.44,1.49-2.31.31-1.08.05-2.15-.26-3.18-.72-2.26-1.74-4.36-3.03-6.36-.31-.35-.87-.04-.62.31h0Z"/>
        <path class="cls-1" d="m70.68,18.53c1.49,1.23,2.51,2.87,2.92,4.72.51,2,.15,3.9-.51,5.8-.62,1.8-1.44,3.69-.92,5.59.26.97.92,1.8,1.23,2.77.31.97.21,1.95-.1,2.87-.56,1.8-1.69,3.44-1.9,5.39s.31,3.74.77,5.59c.51,1.95,1.08,4.05.67,6.05s-1.64,3.74-2.51,5.59c-1.03,2.1-1.54,4.41-1.39,6.77.05.87.05,2.05.72,2.77.46.51,2.82,1.08,2.1,2-.26.31.31.67.56.31.46-.56.15-1.28-.36-1.74-.77-.72-1.9-.56-2.21-1.8-.51-2.26-.21-4.77.62-6.87.72-1.95,1.95-3.59,2.67-5.54s.62-3.85.21-5.75-1.23-4.05-1.28-6.16c-.05-2.1.92-3.85,1.64-5.75.36-.87.62-1.8.56-2.72-.05-.92-.46-1.74-.87-2.56-.56-1.08-.82-2.05-.67-3.28.15-1.08.56-2.1.92-3.13.72-2.05,1.08-4,.62-6.16-.46-2-1.54-3.85-3.13-5.18-.26-.3-.72.11-.36.42h0Z"/>
        <path class="cls-1" d="m64.88,17.81c.72.87,1.44,1.74,2.1,2.56.31.41.82.92.82,1.44,0,.62-.51,1.23-.77,1.74-.51.97-1.03,2-1.59,2.98-.46.87-1.08,1.74-1.23,2.72-.15.97.26,1.74.77,2.51.62.97,1.23,1.9,1.8,2.87.56.87,1.28,1.8,1.23,2.92-.05,1.13-.72,2.26-1.08,3.23-.82,2.1-1.59,4.21-2.41,6.36-.82,2.15-1.64,4.05-2.21,6.1-.51,1.8-.67,3.8.05,5.59.72,1.74,2.21,2.98,3.08,4.62.36.72.26,1.18,0,1.9-.15.56-.31,1.13-.41,1.69-.26,1.08-.36,2.21-.41,3.33-.1,2.36.21,4.72.87,6.98.1.41.72.21.62-.15-.62-2.1-.92-4.26-.82-6.46.05-1.13.15-2.26.41-3.39.1-.51.21-.97.36-1.49.15-.51.36-.92.41-1.44.05-.87-.56-1.69-1.03-2.36-.51-.77-1.13-1.44-1.64-2.21-1.28-1.9-1.39-4-.82-6.16s1.44-4.16,2.21-6.21c.82-2.15,1.64-4.31,2.46-6.46.41-1.03.92-2.05,1.08-3.08.15-.92-.1-1.74-.51-2.51-.51-.92-1.13-1.85-1.74-2.77-.62-.92-1.69-2.1-1.54-3.28.1-.62.46-1.13.72-1.69.31-.56.62-1.18.92-1.74.56-1.08,1.23-2.15,1.74-3.28.41-.92.21-1.64-.41-2.36-.82-1.03-1.64-2-2.51-3.03-.31-.24-.77.22-.52.53h0Z"/>
        <path class="cls-2" d="m68.78,17.86c.82,2.1,1.64,4.21,2.46,6.31.21.51.46,1.03.41,1.59s-.36,1.08-.62,1.59c-.46.82-1.03,1.59-1.49,2.36-.92,1.49-1.8,3.03-2,4.77-.26,2.05.72,3.95,1.54,5.75.92,2.1,2.05,4.16,2.82,6.31.82,2.31-.36,4.21-1.74,5.95-1.23,1.59-2.15,3.13-2.51,5.18-.15.97-.21,1.95-.26,2.87,0,.77-.21,1.69.46,2.26.36.31.82.46,1.13.82.41.36.67.87.87,1.33.36.92.51,1.85.72,2.82.46,2.56.92,5.13,1.39,7.69.05.41.72.26.62-.15-.41-2.26-.82-4.46-1.23-6.67-.31-1.69-.46-3.59-1.54-5.03-.21-.26-.41-.51-.72-.72-.46-.36-1.08-.51-1.13-1.18-.05-.97.05-2.05.15-3.03.1-1.08.36-2.21.82-3.18s1.13-1.85,1.8-2.67c1.08-1.44,2.26-3.08,2.1-4.98-.05-.97-.51-1.85-.87-2.67-.46-1.03-.92-2.05-1.44-3.13-.51-1.08-.97-2.1-1.44-3.18-.46-1.08-.92-2.15-.97-3.33-.1-1.95.87-3.69,1.85-5.28.56-.92,1.18-1.8,1.69-2.72.51-.87.77-1.69.46-2.67-.36-1.18-.92-2.36-1.33-3.54l-1.39-3.64c-.15-.34-.76-.19-.61.17h0Z"/>
        <path class="cls-1" d="m65.24,17.09c-1.54.46-3.13,1.08-3.64,2.77-.26.92-.26,1.9-.31,2.82-.05,1.03-.05,2-.15,3.03-.1,2.05-.41,4.1-1.18,6-.72,1.74-2,3.23-2.62,5.03-.67,2-.1,4.16-.05,6.21,0,1.03.05,2.05.21,3.08.15,1.03.46,2.1.72,3.13.51,2.05.36,4.1.31,6.21-.05,1.8.05,3.69.97,5.34.56,1.03,1.39,1.95,1.64,3.08.26,1.18,0,2.41-.41,3.54s-.97,2.05-1.33,3.13c-.26.77-.31,1.59.26,2.21.26.31.72-.15.46-.46-.67-.77.05-2,.41-2.72.36-.82.77-1.64,1.03-2.51.51-1.8.46-3.49-.51-5.08-.51-.82-1.03-1.54-1.33-2.46s-.41-1.85-.46-2.82c-.05-1.85.21-3.69,0-5.54-.21-2-.97-3.9-1.13-5.9-.1-1.03-.05-2.1-.1-3.13-.05-1.03-.26-2.1-.26-3.18,0-2,1.13-3.54,2.1-5.18s1.49-3.28,1.74-5.08c.31-2.1.36-4.21.46-6.31.05-1.03,0-2.31.72-3.13.67-.77,1.74-1.13,2.72-1.39.3-.18.14-.79-.27-.69h0Z"/>
        <path class="cls-1" d="m65.76,17.3c-1.13,1.8-2.31,3.8-2,6,.15,1.13.67,2.21,1.13,3.23.56,1.18,1.08,2.41,1.64,3.59s1.08,2.41,1.64,3.59c.51,1.13,1.28,2.46.97,3.74-.26,1.18-1.44,2.05-2.26,2.87l-2.82,2.82c-.82.82-1.74,1.54-2.41,2.46-.62.82-.62,1.8-.26,2.72.87,2.1,2.56,3.54,4,5.18.77.92,1.49,2.1,1.23,3.33-.15.77-.72,1.39-1.39,1.85-1.23.87-2.77,1.39-3.9,2.46-1.59,1.59-1.44,3.95-.51,5.9.56,1.23,1.39,2.31,2.1,3.39.87,1.28,1.69,2.51,2.56,3.8.26.36.77,0,.56-.31-1.39-2.1-2.92-4.16-4.21-6.31-1.08-1.85-1.8-4.36-.05-6.05,1.13-1.08,2.72-1.54,3.95-2.51,1.23-.97,1.85-2.41,1.33-3.95-.67-2.05-2.62-3.33-3.85-4.98-.67-.92-1.74-2.26-1.49-3.44.21-1.08,1.49-2,2.26-2.77.92-.92,1.8-1.8,2.72-2.72.77-.77,1.64-1.54,2.31-2.41,1.39-1.9.31-4-.56-5.9-1.18-2.56-2.41-5.13-3.54-7.8-.56-1.33-.87-2.67-.51-4.05.36-1.28,1.08-2.46,1.8-3.59.33-.2-.24-.5-.44-.14h0Z"/>
        <path class="cls-1" d="m71.3,18.99c1.49,3.74,4.16,6.77,6.26,10.21.51.87,1.33,1.95,1.03,2.98-.26.87-1.03,1.54-1.54,2.26-1.13,1.54-1.49,3.49-1.54,5.39-.05,2.36.26,4.67-.21,7.03-.21,1.08-.51,2.1-.67,3.18-.15.97-.1,1.85,0,2.82s.21,1.9-.51,2.56c-.62.51-.97,1.03-.67,1.85.26.77,1.74,1.64,1.39,2.46-.26.62-.36,1.03-.05,1.64.41.82,1.33,1.49.87,2.51-.51,1.08-1.33,2-1.95,3.03-1.18,1.95-2.1,4.16-1.54,6.46.1.41.72.26.62-.15-.56-2.31.46-4.46,1.69-6.36.87-1.33,2.56-2.92,1.64-4.57-.31-.51-1.13-1.23-.92-1.9.1-.36.36-.56.36-.97-.05-.36-.26-.72-.51-1.03-.31-.41-.72-.72-.97-1.18-.36-.77.21-1.03.67-1.54.51-.51.62-1.28.62-2-.05-.92-.26-1.85-.21-2.77.05-1.13.36-2.21.62-3.33.46-2.26.31-4.46.31-6.72,0-2,.15-4.21,1.33-5.9.51-.72,1.23-1.33,1.59-2.15.36-.72.26-1.49-.05-2.21-.87-2.05-2.36-3.9-3.64-5.69-1.33-1.9-2.62-3.85-3.49-6-.07-.48-.69-.27-.53.09h0Z"/>
        <path class="cls-1" d="m68.63,17.3c-1.49,1.33-2.87,2.82-4.1,4.41-1.23,1.59-2.1,2.98-1.9,5.03.21,2.05.72,4.16,1.08,6.26.41,2.15.77,4.31,1.18,6.46.1.51.21,1.08.31,1.64.1.82-.36.97-.97,1.28-.97.46-1.9.92-2.77,1.44-.67.36-1.23.82-1.39,1.59-.21.87-.15,1.85-.05,2.72.21,1.95.82,3.8,1.49,5.64.72,1.95,1.39,3.85,1.9,5.9.56,2.36.97,4.77,1.13,7.23.05,1.13.1,2.31,0,3.44-.05.31-.1.62-.15.97-.05.15-.15.36-.1.51.1.41.77.92,1.03,1.23s.72-.15.46-.46c-.31-.36-.62-.72-.97-1.08l.1.31c.51-1.85.41-3.85.26-5.75s-.46-3.9-.92-5.85c-.46-1.95-1.03-3.69-1.64-5.49-.62-1.8-1.33-3.64-1.69-5.54-.15-.92-.26-1.9-.21-2.87.05-.51.05-1.03.46-1.39s.92-.62,1.39-.87c.77-.41,1.59-.82,2.36-1.18.72-.31,1.18-.62,1.13-1.49-.1-.92-.31-1.85-.51-2.77-.21-1.08-.41-2.15-.56-3.23l-1.08-6c-.21-1.18-.51-2.36-.46-3.54s.67-2.15,1.39-3.13c1.33-1.8,2.82-3.39,4.51-4.87.06-.4-.4-.81-.71-.55h0Z"/>
        <path class="cls-1" d="m66.32,17.19c.46,2.51.97,4.98,1.44,7.49.46,2.51,1.08,5.03,1.44,7.59.21,1.28.21,2.56-.31,3.8-.41,1.03-1.08,1.95-1.8,2.82-1.28,1.59-2.67,3.23-2.98,5.34-.51,4.05,4.1,6.46,5.95,9.49,2.62,4.41-1.54,8.46-2.36,12.77-.21,1.08-.21,2.26.15,3.33.36,1.08,1.08,1.85,1.64,2.72s1.03,2.05.21,2.98c-.72.77-1.85,1.03-2.82,1.23-.41.1-.26.72.15.62,1.49-.31,3.49-.92,3.74-2.72.31-1.95-1.69-3.33-2.31-5.03-.82-2.31.26-4.82,1.28-6.93.97-2.05,2.05-4.21,1.85-6.57-.41-4.21-4.82-6.05-6.46-9.59-1.13-2.46.46-4.82,1.95-6.67,1.33-1.64,2.67-3.33,2.82-5.54.1-1.39-.21-2.77-.46-4.1l-.82-4.36-1.69-8.87c-.04-.36-.66-.21-.61.2h0Z"/>
        <path class="cls-1" d="m64.37,17.04c-1.54-.26-2.82.87-3.33,2.26-.36.92-.36,1.95-.41,2.87,0,1.08-.05,2.15-.15,3.23-.41,4.41-1.59,8.72-3.03,12.93-.67,1.95-1.28,3.9-1.23,6,.05,2.1.62,4.1,1.18,6.1s1.08,4.21.05,6.1c-.41.77-1.08,1.33-1.59,2.05-.51.72-.72,1.54-.56,2.36.15,1.13.72,2.15,1.18,3.18.51,1.08,1.03,2.21,1.59,3.28s1.23,2.15,1.8,3.23c.51.97.97,2.46-.21,3.18-.36.21-.05.77.31.56,1.39-.82,1.18-2.56.56-3.85-.97-1.9-2.05-3.69-2.98-5.59-.51-1.03-.97-2.05-1.39-3.13s-.41-2.05.31-3.03c.51-.67,1.13-1.28,1.54-2s.56-1.54.62-2.36c.1-1.95-.56-3.85-1.08-5.69-.56-2.1-.92-4.31-.56-6.52.36-2.05,1.18-4,1.8-5.95s1.18-4.1,1.59-6.21c.46-2.31.77-4.67.82-7.03.05-1.13-.05-2.36.36-3.44s1.33-2.1,2.56-1.9c.51.04.66-.58.25-.63h0Z"/>
      </g>
      <g>
        <path class="cls-2" d="m49.34,1.91c.97,2.98,1.49,6.1,1.64,9.23.05,1.54.05,3.08-.05,4.67-.1,1.64-.51,3.28-.31,4.92.15,1.23.77,2.31,1.39,3.39.72,1.23,1.18,2.46,1.33,3.85.36,3.03-.26,6.05-.82,8.98-.56,2.92-1.08,6.1-1.18,9.23s.1,6.41.62,9.59c.51,3.18,1.33,6.62,1.39,10,.05,3.13-.82,5.95-1.85,8.87-.51,1.49-.97,3.03-1.23,4.57-.26,1.69-.1,3.33.15,5.03.56,3.23,1.9,6.98.46,10.16-.15.36.41.72.56.31,1.13-2.56.62-5.59.05-8.26-.36-1.64-.72-3.28-.77-4.92-.05-1.59.21-3.13.67-4.62.77-2.77,2-5.39,2.36-8.26.41-3.23-.1-6.52-.67-9.7-.62-3.39-1.13-6.72-1.23-10.11s.21-6.72.87-10c.56-2.92,1.23-5.85,1.28-8.82,0-1.33-.1-2.72-.51-4s-1.08-2.26-1.69-3.39c-.87-1.69-.67-3.39-.46-5.23s.31-3.54.26-5.34c-.05-3.49-.62-6.98-1.69-10.31-.11-.41-.72-.26-.57.16h0Z"/>
        <path class="cls-1" d="m46.31,1.65c-1.18,3.03-2.1,6.1-2.72,9.29-.62,2.98-1.13,5.95.1,8.87.51,1.23,1.23,2.41,1.8,3.64.56,1.33.97,2.77,1.18,4.21.51,3.03.36,6.16-.46,9.13-.82,2.98-1.85,5.69-1.69,8.77.15,2.77,1.08,5.39,1.9,8.05.87,2.77,1.64,5.59,1.49,8.57-.21,2.92-1.33,5.95-2.1,8.87-.92,3.54-.97,7.08-.67,10.67.31,3.59.92,7.49.77,11.29,0,.41.62.41.62,0,.26-6.62-1.85-13.29-.62-19.85.56-2.98,1.74-5.75,2.31-8.72.56-2.98.31-5.64-.41-8.46s-1.8-5.34-2.31-8.05c-.26-1.44-.41-2.92-.26-4.36.15-1.59.62-3.13,1.08-4.67.87-2.87,1.44-5.69,1.33-8.72-.1-2.77-.72-5.49-1.95-7.95-.72-1.44-1.54-2.82-1.9-4.41-.41-1.85-.1-3.8.26-5.64.67-3.54,1.64-6.98,2.98-10.36.04-.38-.57-.53-.73-.17h0Z"/>
        <path class="cls-1" d="m42.88,2.21c-3.33,4.72-3.9,11.29-2.92,16.83.62,3.44,1.74,6.93,1.33,10.41-.21,1.69-.87,3.28-1.23,4.92-.36,1.54-.31,3.13-.1,4.67.51,3.28,1.8,6.41,2,9.75.21,3.33-.41,6.93-.97,10.36-.51,3.23-.92,6.52-.46,9.75s1.64,6.26,2.51,9.39c1.08,3.74,1.49,7.64,1.28,11.54-.05.97-.05,1.95-.31,2.92-.26.97-.77,1.39-1.49,1.95-.97.72-1.49,2.15-.92,3.28.21.36.72.05.56-.31-.31-.67-.05-1.59.41-2.15.41-.46,1.03-.72,1.44-1.18.92-1.03.87-2.72.92-4,.21-3.28-.05-6.62-.72-9.85-.67-3.23-1.9-6.1-2.62-9.23-.82-3.39-.72-6.82-.26-10.26.46-3.18,1.08-6.41,1.23-9.64.05-1.64,0-3.28-.31-4.92s-.72-3.13-1.13-4.67c-.41-1.54-.77-3.18-.77-4.77,0-1.74.46-3.28.97-4.92.97-3.23.62-6.36-.05-9.59-.41-1.9-.82-3.8-1.03-5.75-.15-1.69-.15-3.44.05-5.18.36-3.13,1.23-6.41,3.08-8.98.28-.37-.29-.67-.49-.37h0Z"/>
        <path class="cls-1" d="m48.62.98c-.77,1.64-1.59,3.23-2.36,4.87-.62,1.33-.92,2.51-.51,3.95.97,3.39,2.26,6.72,3.13,10.16.21.87.36,1.8.21,2.67s-.46,1.69-.77,2.51c-.62,1.69-1.28,3.39-1.9,5.03-.56,1.49-1.13,2.98-1.13,4.62s.51,3.39.87,5.03c.82,3.59,1.59,7.13,2.41,10.67.82,3.54,1.64,6.87,2.26,10.36.62,3.49.97,6.87.1,10.16-.77,3.03-2.77,5.64-3.28,8.67-.15.82,0,1.54.15,2.36.21.97.36,1.95.46,2.92.26,1.9.41,3.8.46,5.69.1,3.9-.15,7.85-.82,11.7-.05.41.56.56.62.15,1.18-6.62,1.18-13.49,0-20.11-.15-.77-.36-1.54-.26-2.36.1-.82.41-1.64.72-2.41.56-1.39,1.23-2.72,1.8-4.1,1.28-3.08,1.49-6.26,1.18-9.54s-1.18-6.72-1.9-10c-.77-3.54-1.59-7.03-2.36-10.57-.41-1.8-.82-3.59-1.18-5.34-.36-1.74-.72-3.44-.26-5.18.41-1.64,1.13-3.23,1.69-4.82s1.33-3.18,1.74-4.87c.46-1.85-.1-3.59-.67-5.34-.62-1.9-1.18-3.8-1.8-5.75-.31-.92-.62-1.85-.87-2.77-.26-1.03-.1-1.95.31-2.92.82-1.74,1.69-3.49,2.51-5.23.22-.21-.34-.57-.55-.21h0Z"/>
        <path class="cls-2" d="m44.62,1.44c-.82,3.54-1.59,7.08-2.41,10.62-.36,1.54-.62,2.98-.26,4.51.36,1.54,1.03,3.03,1.54,4.46,1.08,2.87,2.15,5.8,2.36,8.87.26,3.49-.77,6.82-1.69,10.11s-2,6.77-2.72,10.21c-.67,3.13-.05,6.16,1.18,9.08.62,1.49,1.39,2.98,1.95,4.46.56,1.54.92,3.13,1.08,4.77.15,1.64.26,3.33.31,5.03,0,.82.05,1.64.05,2.46,0,.51-.1.92-.41,1.33-.21.26-.46.46-.67.72-.87,1.08-1.23,2.51-1.54,3.8-.31,1.69-.46,3.44-.67,5.13-.41,4.05-.87,8.05-1.28,12.11-.05.41.62.41.62,0,.41-3.59.77-7.23,1.18-10.82.21-1.64.31-3.33.56-5.03.21-1.33.46-2.77,1.08-4,.31-.56.67-.92,1.08-1.39.51-.51.62-1.13.67-1.85.05-1.64-.05-3.33-.1-4.98-.15-3.13-.72-6.16-1.95-9.03-1.33-3.03-2.87-6.05-2.77-9.44.05-1.69.51-3.33.97-4.98.46-1.64.92-3.39,1.39-5.08.87-3.28,2-6.57,2.31-9.95.31-3.08-.36-6.1-1.33-9.03-.56-1.64-1.18-3.23-1.8-4.82-.31-.82-.62-1.64-.82-2.46-.26-1.03-.21-2,0-3.03.82-3.95,1.8-7.85,2.67-11.8.14-.18-.48-.34-.58.02h0Z"/>
        <path class="cls-1" d="m48.52,1.19c1.08.56,2.05,1.18,2.67,2.26.77,1.44.77,3.18.82,4.77.1,3.18.1,6.36.31,9.54s.56,6.16,1.44,9.13,2.26,5.69,2.51,8.82c.15,1.69,0,3.44-.1,5.13-.1,1.69-.1,3.39-.15,5.08s-.1,3.33-.31,5.03c-.21,1.69-.51,3.33-.72,5.03-.36,3.13-.21,6.31-.15,9.44.05,3.13-.05,6.21-1.08,9.13-.56,1.59-1.23,3.08-1.49,4.72-.26,1.64-.15,3.33.1,5.03.26,1.8.72,3.49,1.23,5.23.41,1.39,1.03,3.28.26,4.62-.21.36.36.67.56.31.56-1.08.46-2.36.21-3.54-.31-1.54-.82-3.03-1.18-4.51-.77-3.33-.97-6.62.21-9.85.51-1.44,1.08-2.87,1.39-4.41.26-1.44.36-2.92.41-4.41.1-3.18-.15-6.41,0-9.59.15-3.44.97-6.82,1.13-10.31.1-1.8.05-3.54.1-5.34.05-1.8.26-3.49.26-5.28,0-3.13-1.03-5.95-2.05-8.93-1.03-2.98-1.64-6.21-1.9-9.44-.31-3.69-.26-7.44-.41-11.18-.05-1.59-.15-3.28-.92-4.72-.67-1.13-1.69-1.85-2.82-2.41-.38-.12-.69.44-.33.65h0Z"/>
        <path class="cls-1" d="m47.7,1.08c1.28,3.39,2.36,6.82,1.9,10.47-.26,1.8-.72,3.49-1.18,5.23-.51,1.85-1.03,3.74-1.49,5.59-.46,1.85-.97,3.59-1.44,5.34-.46,1.74-.97,3.39-1.13,5.18-.15,1.59.05,3.08.72,4.51.72,1.59,1.74,3.08,2.62,4.62.97,1.64,1.95,3.28,2.87,4.87s1.85,3.03,1.69,4.92-.92,3.69-1.69,5.39c-.67,1.49-1.54,2.82-2.31,4.26-1.39,2.62-2.21,5.85-.92,8.67.92,2.1,2.92,3.23,4.31,4.98,2.31,2.92,1.8,7.18.77,10.52-.56,1.85-1.33,3.64-2.05,5.44-.82,2.05-1.59,4.1-2.41,6.1-.15.41.46.56.62.15,1.39-3.49,2.87-6.98,4.1-10.52,1.08-2.98,1.74-6.36.82-9.49-.36-1.18-.97-2.26-1.8-3.13-.77-.82-1.64-1.54-2.41-2.36-2.21-2.31-2.31-5.49-1.23-8.41.62-1.59,1.59-3.03,2.36-4.51s1.44-3.08,1.95-4.67c.51-1.59.77-3.33.15-4.98-.62-1.64-1.64-2.98-2.46-4.41-.97-1.64-1.95-3.28-2.87-4.87-.87-1.49-1.85-2.92-2.15-4.62-.36-1.85.1-3.74.56-5.54.46-1.8.97-3.59,1.44-5.44.56-2.05,1.13-4.16,1.64-6.21.51-1.95,1.13-3.9,1.44-5.9.67-4-.41-7.69-1.8-11.39-.16-.35-.77-.2-.62.21h0Z"/>
        <path class="cls-1" d="m42.11,3.34c-1.44,6.21-4.36,11.8-6.46,17.8-.51,1.49-1.08,3.03-.92,4.62.15,1.33.77,2.51,1.39,3.74,1.39,2.82,1.69,6.05,1.74,9.13.1,3.39-.15,6.72,0,10.11s1.03,6.93.92,10.36c-.05,1.49-.26,2.98-.15,4.46.05.56.15,1.08.36,1.59.31.72.92,1.18,1.03,2,.21,1.59-1.03,2.77-1.44,4.21-.21.67-.1,1.18.1,1.8.26.72.15,1.39-.1,2.1-.46,1.33-1.18,2.56-.97,4.05.15.87.51,1.69.82,2.46.36.87.72,1.74,1.03,2.62,1.33,3.54,2.31,7.28,1.74,11.08-.05.41.56.56.62.15.51-3.18-.05-6.41-1.03-9.44-.51-1.54-1.13-3.08-1.74-4.62-.62-1.54-1.08-2.82-.56-4.46.41-1.13,1.13-2.26.97-3.54-.1-.77-.51-1.28-.26-2.1.26-.82.77-1.49,1.08-2.21.51-1.18.62-2.46-.15-3.54-.87-1.23-.87-2.62-.82-4.05.1-1.59.21-3.13.1-4.67-.1-1.69-.36-3.39-.56-5.08-.46-3.49-.36-6.93-.31-10.41.05-3.13,0-6.36-.77-9.44-.36-1.33-.92-2.56-1.54-3.85-.77-1.54-1.08-3.08-.67-4.77.87-3.39,2.41-6.67,3.74-9.85s2.6-6.61,3.42-10.09c.11-.36-.51-.57-.61-.16h0Z"/>
        <path class="cls-1" d="m44.88,1.19c1.69,2.62,3.18,5.34,4.41,8.21.62,1.39,1.18,2.82,1.39,4.31.21,1.59.05,3.28-.1,4.87-.72,6.67-1.44,13.29-2.15,19.96-.1.82-.21,1.69-.26,2.51-.05.56-.1,1.23.15,1.8.26.56.82.82,1.28,1.18.67.51,1.28,1.08,1.9,1.64.46.41.97.87,1.33,1.39.46.67.56,1.49.56,2.26.1,1.59.05,3.13-.1,4.72-.31,3.23-.97,6.41-1.69,9.59-.67,3.18-1.28,6.21-1.69,9.29-.51,3.54-.82,7.13-.97,10.72-.1,1.85-.15,3.74-.1,5.59.05.92.1,1.8.21,2.67.05.46.1.72-.05,1.13-.21.46-.46.92-.72,1.33-.21.36.36.67.56.31.21-.36.41-.77.62-1.13.1-.26.36-.56.41-.82.05-.36-.1-.82-.15-1.18-.05-.41-.1-.82-.1-1.23-.1-1.64-.1-3.33-.05-4.98.1-3.39.36-6.72.77-10.05s.92-6.57,1.59-9.8c.67-3.23,1.39-6.26,1.85-9.44.21-1.54.36-3.08.41-4.67,0-1.33.15-2.98-.41-4.26s-1.8-2.15-2.82-2.98c-.51-.46-1.08-.82-1.59-1.28-.72-.62-.51-1.59-.41-2.41.72-6.72,1.44-13.49,2.15-20.21.21-1.8.46-3.64.41-5.44-.05-1.74-.51-3.33-1.18-4.92-1.33-3.13-2.92-6.21-4.82-9.08-.28-.27-.85.04-.64.4h0Z"/>
        <path class="cls-1" d="m47.08.37c-.92,8-1.85,16.01-2.72,24.01-.21,1.9-.41,3.8-.26,5.69.1,1.74.51,3.49,1.18,5.13,1.23,3.18,3.03,6.1,3.69,9.44.36,1.85.41,3.8-.1,5.64-.41,1.64-1.18,3.18-2,4.67-1.44,2.62-3.08,5.18-3.9,8.05-1.03,3.49-.67,7.08.15,10.57s2.1,6.98,2.46,10.67c.21,1.95.21,3.9-.26,5.8-.46,1.9-1.49,3.49-1.95,5.34-.41,1.54-.36,3.33.51,4.72.72,1.13,1.85,1.74,3.03,2.15.41.15.56-.46.15-.62-1.18-.41-2.26-1.08-2.82-2.26-.77-1.54-.46-3.33.1-4.92.56-1.59,1.33-3.03,1.69-4.67.36-1.64.41-3.28.26-4.87-.56-7.13-4.67-13.9-2.87-21.14,1.49-6.1,6.87-10.77,6.41-17.39-.26-3.33-1.74-6.31-3.08-9.34-.72-1.54-1.33-3.08-1.69-4.77-.41-1.9-.41-3.8-.26-5.69.31-4.36.97-8.72,1.44-13.08.46-4.36.97-8.77,1.49-13.13.02-.41-.6-.41-.65,0h0Z"/>
        <path class="cls-1" d="m49.8,1.03c1.39-.41,2.21,1.85,2.46,2.82.41,1.64.41,3.39.46,5.08.05,3.39.21,6.77.51,10.16.62,6.72,1.95,13.29,3.18,19.85.62,3.39.87,6.77.56,10.21-.31,3.44-1.03,6.72-1.44,10.11-.36,2.92-.46,6.16.67,8.93.56,1.33,1.39,2.56,1.74,4,.41,1.74,0,3.54-.46,5.23-.92,3.64-1.95,7.23-3.13,10.77-.51,1.64-1.18,3.23-1.39,4.92-.15,1.28-.05,3.03.97,4,.31.31.77-.15.46-.46-1.08-1.08-.92-3.13-.62-4.46.36-1.59.97-3.08,1.49-4.62,1.08-3.28,2.05-6.62,2.87-9.95.41-1.54.77-3.18.56-4.82-.15-1.39-.77-2.56-1.44-3.8-1.49-2.92-1.54-6.26-1.13-9.44.41-3.44,1.18-6.77,1.49-10.21s.1-6.77-.51-10.16c-.62-3.39-1.33-6.72-1.9-10.11s-1.03-6.93-1.33-10.47c-.21-2-.31-4-.41-5.95-.05-1.9-.05-3.74-.1-5.64-.05-1.69-.26-3.44-1.08-4.98-.51-.97-1.44-2-2.62-1.64-.42.17-.22.79.14.63h0Z"/>
      </g>
      <g>
        <path class="cls-2" d="m29.13,15.4c.97,2.21,1.49,4.62,1.64,7.03.05,1.18,0,2.31-.1,3.49s-.51,2.31-.31,3.44c.15.92.72,1.64,1.28,2.36.67.87,1.23,1.74,1.44,2.87.41,2.26-.31,4.67-.87,6.87-.62,2.31-1.08,4.62-1.18,6.98s.21,4.87.72,7.28c.51,2.41,1.33,4.92,1.28,7.49-.05,2.31-1.03,4.31-1.95,6.36-.46,1.03-.92,2.1-1.13,3.23-.21,1.18-.1,2.41.15,3.59.51,2.36,1.85,5.23.51,7.54-.21.36.36.67.56.31,1.03-1.8.67-4,.15-5.9-.36-1.28-.77-2.56-.82-3.9-.05-1.13.21-2.21.62-3.28.72-2,1.9-3.85,2.36-5.95.51-2.41.05-4.87-.51-7.23-.62-2.51-1.18-5.03-1.28-7.64-.1-2.62.21-5.08.82-7.59.56-2.15,1.28-4.36,1.28-6.67,0-1.03-.15-2.05-.56-3.03-.41-.97-1.13-1.64-1.69-2.46-.87-1.28-.62-2.56-.41-4.05.21-1.28.26-2.56.21-3.9-.1-2.62-.67-5.18-1.74-7.54-.06-.37-.63-.06-.47.3h0Z"/>
        <path class="cls-1" d="m26.15,15.04c-1.13,2.15-2.05,4.46-2.72,6.87-.62,2.26-1.13,4.51.05,6.67.51.92,1.23,1.74,1.74,2.67.62.97,1.03,2.05,1.28,3.18.51,2.36.31,4.77-.51,6.98s-1.8,4.16-1.59,6.52c.21,2,1.03,3.85,1.85,5.64.87,2,1.69,4.05,1.54,6.26-.15,2.31-1.28,4.46-2.1,6.62-.92,2.56-1.03,5.13-.72,7.8.31,2.87.92,5.69.77,8.62,0,.41.62.41.62,0,.21-4.92-1.85-9.95-.56-14.83.56-2.21,1.74-4.21,2.26-6.46.51-2.05.31-4.05-.41-6.05s-1.64-3.74-2.26-5.75c-.31-1.03-.51-2.05-.46-3.08.05-1.23.46-2.36.87-3.49.87-2.15,1.59-4.16,1.54-6.46-.05-2.1-.56-4.21-1.69-6-.62-1.03-1.49-1.95-1.95-3.08-.62-1.39-.41-2.87-.1-4.31.67-2.82,1.69-5.54,3.03-8.05.24-.32-.27-.63-.48-.27h0Z"/>
        <path class="cls-1" d="m22.72,15.45c-3.08,3.23-4,8.21-3.03,12.47.56,2.56,1.8,5.13,1.39,7.8-.21,1.23-.82,2.31-1.18,3.49-.36,1.13-.41,2.26-.21,3.39.41,2.46,1.74,4.67,2.05,7.18s-.31,5.18-.82,7.69-.97,4.87-.62,7.34c.36,2.46,1.59,4.77,2.51,7.13,1.13,2.82,1.59,5.9,1.33,8.93-.05.72-.05,1.64-.46,2.31-.36.62-1.03.77-1.59,1.13-.72.51-1.18,1.59-.67,2.41.21.36.77,0,.56-.31-.77-1.18,1.13-1.8,1.8-2.31.82-.72.87-1.85.97-2.87.26-2.56,0-5.18-.72-7.64s-1.9-4.51-2.67-6.87c-.77-2.51-.67-5.03-.15-7.59.46-2.36,1.08-4.72,1.23-7.13.15-2.41-.67-4.72-1.44-7.08-.41-1.13-.72-2.31-.77-3.54-.05-1.23.41-2.36.87-3.49s.72-2.26.72-3.44-.31-2.36-.62-3.49c-.36-1.39-.82-2.77-1.08-4.21-.21-1.28-.21-2.62-.05-3.9.31-2.56,1.33-5.08,3.08-6.93.28-.32-.18-.78-.43-.47h0Z"/>
        <path class="cls-1" d="m28.41,14.63c-.77,1.18-1.54,2.36-2.31,3.54-.62.97-1.03,1.85-.62,3.03.92,2.62,2.26,5.03,3.18,7.64.21.67.36,1.33.21,2-.15.62-.46,1.18-.77,1.69-.67,1.28-1.28,2.56-1.95,3.85-.51.97-1.03,1.95-1.08,3.08-.1,1.28.41,2.51.77,3.69.82,2.67,1.64,5.39,2.46,8.11.77,2.56,1.64,5.08,2.26,7.69s1.03,5.18.21,7.69c-.72,2.21-2.46,3.95-3.23,6.16-.41,1.23.1,2.46.36,3.64.31,1.54.51,3.08.56,4.62.15,2.98-.15,6-.82,8.87-.1.41.51.56.62.15,1.18-4.92,1.18-10.21,0-15.13-.15-.62-.36-1.23-.15-1.9s.51-1.23.87-1.8c.56-.97,1.18-1.9,1.74-2.87,1.13-2.15,1.39-4.46,1.08-6.87-.31-2.41-1.13-4.87-1.85-7.28-.82-2.67-1.59-5.34-2.41-7.95-.41-1.33-.82-2.67-1.23-4.05-.41-1.39-.72-2.56-.21-4,.46-1.23,1.13-2.41,1.74-3.59.56-1.08,1.23-2.21,1.64-3.39.41-1.28,0-2.46-.46-3.59-.62-1.44-1.23-2.92-1.85-4.36-.31-.72-.62-1.39-.87-2.1-.3-.83-.3-1.49.16-2.26.82-1.33,1.74-2.67,2.56-4,.21-.36-.35-.67-.61-.31h0Z"/>
        <path class="cls-2" d="m24.41,14.99c-.82,2.67-1.64,5.34-2.46,8-.36,1.13-.62,2.21-.21,3.39.36,1.08.92,2.05,1.44,3.08,1.08,2.1,2.21,4.31,2.46,6.67.26,2.62-.77,5.08-1.64,7.49-.87,2.41-2,5.03-2.72,7.59-.67,2.31-.1,4.51,1.03,6.62.62,1.08,1.28,2.1,1.9,3.18.62,1.08,1.03,2.36,1.23,3.59.21,1.28.31,2.56.36,3.9,0,.56.05,1.13.05,1.69,0,.36,0,.72-.26,1.03-.15.21-.41.36-.62.51-1.85,1.49-2,4.31-2.31,6.46-.46,3.08-.87,6.21-1.33,9.29-.05.41.56.56.62.15.41-2.77.77-5.54,1.18-8.31.15-1.18.31-2.41.56-3.59.21-1.08.51-2.15,1.18-3.03.56-.72,1.49-.97,1.64-2,.15-1.18,0-2.51-.1-3.69-.15-2.36-.62-4.62-1.8-6.72-1.23-2.21-2.92-4.31-2.92-6.98,0-1.28.46-2.46.87-3.64.46-1.28.92-2.62,1.39-3.9.87-2.46,2.05-4.92,2.36-7.54.26-2.21-.31-4.36-1.18-6.41-.51-1.18-1.13-2.36-1.74-3.49-.72-1.39-1.44-2.72-1.08-4.31.36-1.44.87-2.87,1.33-4.31l1.44-4.62c.1-.36-.52-.51-.67-.1h0Z"/>
        <path class="cls-1" d="m28.41,14.88c.92.36,1.9.77,2.51,1.54.77.97.82,2.31.87,3.54.1,2.41.1,4.87.31,7.28.21,2.26.56,4.51,1.44,6.67s2.05,3.9,2.46,6.05c.26,1.33.1,2.67-.05,4-.15,1.33-.15,2.56-.15,3.85s-.1,2.62-.31,3.9-.51,2.46-.72,3.74c-.67,4.57.82,9.59-1.28,13.9-.51,1.08-1.18,2.15-1.39,3.39-.21,1.23-.15,2.46.1,3.64.26,1.33.72,2.62,1.18,3.85.41,1.03,1.08,2.51.31,3.54-.26.31.31.67.56.31.56-.77.46-1.74.26-2.56-.31-1.18-.82-2.26-1.18-3.44-.36-1.23-.67-2.46-.72-3.74,0-1.33.36-2.56.97-3.74.51-1.03,1.03-2,1.28-3.13.26-1.13.36-2.21.41-3.33.05-2.46-.21-4.98,0-7.44s1.03-5.08,1.13-7.64c.05-1.39.05-2.72.1-4.1.05-1.39.26-2.62.21-3.9-.1-2.36-1.23-4.36-2.21-6.41-1.03-2.31-1.54-4.77-1.8-7.23-.26-2.82-.15-5.59-.41-8.41-.1-1.13-.36-2.26-1.13-3.13-.72-.77-1.69-1.18-2.67-1.54-.28-.23-.49.39-.08.54h0Z"/>
        <path class="cls-1" d="m27.54,14.78c1.33,2.62,2.41,5.23,1.74,8.21-.31,1.33-.82,2.62-1.28,3.9-.51,1.44-1.03,2.82-1.54,4.26-.51,1.44-.97,2.77-1.49,4.16-.46,1.28-.92,2.62-.92,4,.05,1.28.62,2.31,1.33,3.28.87,1.13,1.74,2.21,2.62,3.28.92,1.18,1.85,2.31,2.77,3.49.46.56.92,1.13,1.13,1.8.26.72.1,1.49-.1,2.21-.46,1.33-1.18,2.62-2,3.8-.77,1.08-1.69,2.05-2.36,3.23-1.03,1.8-1.44,4.16-.21,5.95,1.03,1.49,2.72,2.15,4.05,3.33,2.21,2,1.95,5.13.87,7.69-.62,1.44-1.39,2.77-2.1,4.16-.77,1.49-1.59,2.98-2.41,4.46-.21.36.36.67.56.31,1.39-2.56,2.87-5.13,4.1-7.8,1.08-2.21,1.8-4.87.87-7.23-.67-1.74-2.26-2.67-3.69-3.69-.77-.51-1.54-1.13-1.95-2-.62-1.18-.51-2.56-.05-3.8.46-1.23,1.39-2.31,2.21-3.39.82-1.08,1.59-2.26,2.15-3.49.51-1.08.97-2.26.77-3.44-.21-1.18-1.13-2.15-1.85-3.08-.97-1.23-1.95-2.46-2.92-3.69-.92-1.13-2-2.26-2.67-3.54-.72-1.44-.46-2.98,0-4.41.46-1.44,1.03-2.82,1.49-4.21.56-1.59,1.18-3.23,1.74-4.87.56-1.49,1.18-3.03,1.54-4.62.67-3.08-.51-5.8-1.85-8.46-.19-.47-.76-.16-.55.2h0Z"/>
        <path class="cls-1" d="m21.9,16.37c-1.44,4.72-4.36,8.72-6.41,13.13-.51,1.08-1.08,2.21-.97,3.39.1,1.03.67,1.85,1.23,2.67,1.39,2.05,1.85,4.36,1.95,6.82.1,2.77-.21,5.54.05,8.31.26,2.62,1.08,5.13.82,7.75-.1,1.03-.26,2.05-.05,3.03.1.41.26.82.51,1.13.41.51.87.82.77,1.59-.21,1.18-1.33,1.85-1.54,2.98-.05.41.1.72.26,1.08.21.56.05,1.03-.21,1.54-.46.92-1.08,1.74-.92,2.82.21,1.23,1.08,2.41,1.64,3.49,1.39,2.62,2.56,5.59,1.95,8.62-.1.41.51.56.62.15.46-2.36-.05-4.77-.97-6.93-.51-1.18-1.13-2.31-1.74-3.44-.26-.51-.62-1.08-.77-1.64-.21-.67-.05-1.23.26-1.8.36-.77.97-1.49.92-2.36,0-.46-.36-.82-.41-1.23-.05-.56.51-1.18.82-1.59.56-.77,1.08-1.85.56-2.77-.21-.41-.67-.72-.87-1.08-.26-.46-.31-1.03-.31-1.54,0-1.18.21-2.31.21-3.49-.05-1.28-.26-2.51-.46-3.8-.26-1.39-.46-2.77-.51-4.16-.05-1.39,0-2.77.05-4.16.05-2.36,0-4.87-.77-7.13-.36-1.03-.87-1.95-1.49-2.82-.77-1.18-1.13-2.26-.67-3.64.92-2.56,2.46-4.98,3.8-7.39,1.33-2.41,2.56-4.82,3.33-7.39.08-.39-.53-.55-.68-.14h0Z"/>
        <path class="cls-1" d="m24.72,14.88c1.59,1.8,3.03,3.8,4.31,5.85.62.97,1.18,2.05,1.44,3.18.26,1.23.1,2.56-.1,3.8-.72,5.08-1.49,10.21-2.21,15.29-.1.82-.51,2.05.05,2.77.26.36.67.51,1.03.72.56.31,1.08.67,1.64,1.03,1.03.67,2.15,1.28,2.31,2.62.15,1.18.05,2.36-.05,3.54-.26,2.41-.97,4.77-1.64,7.13s-1.28,4.72-1.74,7.13c-.51,2.67-.82,5.39-1.03,8.16-.1,1.39-.15,2.77-.05,4.16.05.62.1,1.28.21,1.9.05.36.1.51-.1.82-.21.31-.46.62-.67.97-.26.36.31.67.56.31.31-.41.82-.92.97-1.39.05-.21,0-.36-.05-.56-.1-.41-.15-.82-.21-1.23-.1-1.23-.1-2.51-.05-3.74.1-2.62.36-5.18.77-7.75.41-2.56.97-4.98,1.69-7.44.72-2.46,1.39-4.67,1.8-7.08.21-1.13.31-2.31.31-3.49,0-.97,0-2.1-.56-2.92-.56-.82-1.64-1.33-2.46-1.9-.51-.31-1.03-.62-1.54-.92-.36-.21-.72-.36-.77-.87-.05-.36.05-.72.1-1.08.77-5.23,1.54-10.47,2.26-15.7.21-1.28.41-2.62.21-3.95-.15-1.18-.67-2.26-1.23-3.28-1.33-2.36-2.98-4.57-4.72-6.57-.28-.22-.74.19-.48.49h0Z"/>
        <path class="cls-1" d="m26.87,14.11c-.92,6.16-2,12.36-2.82,18.57-.21,1.39-.31,2.77-.1,4.16.21,1.39.72,2.56,1.33,3.69,1.28,2.36,3.13,4.51,3.64,7.28s-.97,5.23-2.67,7.44c-1.39,1.85-2.92,3.69-3.64,5.9-1.85,5.64,2.46,10.67,2.87,16.16.1,1.59-.1,3.13-.87,4.57-.62,1.13-1.39,2.26-1.64,3.59-.21,1.13.1,2.26.87,3.08.77.77,1.8,1.13,2.82,1.44.41.1.56-.51.15-.62-.97-.26-2-.62-2.62-1.39-.87-1.03-.77-2.36-.26-3.49.46-1.03,1.13-2,1.59-3.03.51-1.13.67-2.41.62-3.64-.21-5.49-4.67-10.57-3.03-16.16,1.33-4.46,6.31-7.39,6.52-12.21.1-2.67-1.28-5.03-2.62-7.18-.72-1.08-1.44-2.21-1.9-3.44-.51-1.33-.72-2.72-.67-4.16.05-1.69.41-3.39.67-5.03l.77-5.03,1.59-10.26c.07-.49-.55-.65-.6-.24h0Z"/>
        <path class="cls-1" d="m29.64,14.78c1.23-.26,2.1,1.08,2.46,2.05.41,1.18.41,2.51.46,3.74.05,2.62.21,5.18.56,7.8s.82,5.03,1.33,7.54c.51,2.51,1.28,4.92,1.9,7.39.62,2.67.77,5.28.36,8-.36,2.51-1.13,4.92-1.49,7.44-.26,2.1-.15,4.41,1.03,6.26.56.92,1.33,1.8,1.59,2.87.26,1.33-.26,2.72-.67,4-.97,2.82-2.05,5.54-3.28,8.26-.82,1.74-2,4.57-.05,6.05.31.26.67-.31.31-.56-1.03-.77-.82-2.41-.46-3.49.41-1.23,1.03-2.36,1.54-3.54,1.03-2.36,1.95-4.77,2.77-7.18.36-1.08.67-2.26.51-3.39-.15-1.08-.82-1.95-1.44-2.87-1.48-2.15-1.53-4.66-1.07-7.17.46-2.51,1.18-4.92,1.44-7.49.26-2.56.05-5.13-.62-7.64s-1.39-5.08-1.95-7.64-1.03-5.28-1.33-8c-.15-1.49-.26-2.92-.36-4.41s0-2.82-.15-4.26c-.21-1.85-1.23-4.82-3.64-4.36-.31.04-.16.65.25.6h0Z"/>
      </g>
      <g>
        <path class="cls-1" d="m99.77,24.63c4.26,3.44,2.15,9.59,2,14.16-.05,2.41.41,4.62,1.74,6.62.67.97,1.33,2.05.97,3.28-.31,1.03-1.08,1.85-1.69,2.72-1.33,1.95-1.44,4.26-1.18,6.52.15,1.23.41,2.46.56,3.69.15,1.28,0,2.51-.46,3.74-.41,1.13-.97,2.15-1.39,3.28s-.77,2.36-.82,3.59c-.21,2.51.36,5.03,1.13,7.39.46,1.39.97,2.77,1.49,4.16.51,1.39,1.28,3.03.82,4.51-.36,1.33-1.49,2-2.77,2.26-.72.15-1.69.41-1.59,1.33.05.41.67.41.62,0-.05-.51.62-.62.97-.67.46-.1.92-.15,1.39-.41.82-.41,1.54-1.13,1.85-2,.46-1.13.26-2.36-.1-3.54-.41-1.28-.92-2.51-1.39-3.8-.92-2.51-1.74-5.13-1.85-7.8-.05-1.33.1-2.67.51-4,.36-1.18.97-2.31,1.44-3.44.46-1.08.82-2.15.82-3.33.05-1.23-.26-2.46-.41-3.69-.41-2.46-.62-5.18.82-7.34.56-.87,1.28-1.64,1.69-2.62s.36-1.9-.05-2.82c-.51-1.13-1.33-2.05-1.8-3.18-.46-1.13-.67-2.46-.67-3.74-.05-4.98,2.46-11.59-2.21-15.39-.34-.2-.8.21-.44.52h0Z"/>
        <path class="cls-1" d="m102.13,26.79c1.69,1.69,2.41,3.95,2.1,6.31-.15,1.18-.46,2.31-.31,3.49.1,1.03.51,1.85,1.18,2.67.72.87,1.9,2,1.59,3.23-.15.62-.67,1.03-1.08,1.49-.36.41-.67.82-.92,1.28-1.08,1.95-1.08,4.05-.41,6.1.41,1.18.92,2.36,1.13,3.59s.26,2.62.1,3.9c-.26,2.56-1.08,5.08-1.95,7.54-.87,2.46-1.8,4.72-2.15,7.18-.15,1.18.26,2,.87,3.03.62,1.08.87,2.26.87,3.49,0,2.82-1.13,5.49-1.13,8.31,0,2.62.97,5.95-1.28,8-.31.26.15.72.46.46,1.74-1.59,1.8-4,1.59-6.21-.1-1.44-.21-2.82,0-4.21.21-1.28.51-2.56.77-3.9.41-2.31.36-4.51-.87-6.57-.36-.62-.67-1.18-.67-1.9s.26-1.44.41-2.1c.31-1.28.77-2.51,1.18-3.74,1.64-4.77,3.69-10,2-15.03-.41-1.23-1.03-2.46-1.18-3.8-.15-1.23.1-2.46.62-3.59.26-.51.56-1.03.97-1.44.36-.41.77-.77,1.03-1.23.51-.87.26-1.9-.21-2.72-.67-1.13-1.85-1.95-2.21-3.23s.05-2.82.21-4.16c.31-2.51-.51-4.98-2.31-6.77-.25-.19-.66.27-.4.53h0Z"/>
        <path class="cls-2" d="m97.2,25.14c-1.59,3.59-2.05,7.64-1.39,11.49.36,2.1,1.44,4.16,1.33,6.36-.1,2.21-1.13,4.16-1.95,6.1-1.54,3.64-2.82,7.75-1.9,11.75.46,2.1,1.49,4,2.31,6s1.74,4.1,2.31,6.21c.36,1.33-.1,2.36-.72,3.49-.51.92-.92,1.9-1.23,2.92-.62,2.1-.67,4.36-.26,6.57.1.41.72.26.62-.15-.41-2-.31-4.1.21-6.1.26-.97.67-1.9,1.13-2.77.41-.77.87-1.54.97-2.41.15-.97-.21-1.9-.51-2.82-.36-1.03-.77-2.1-1.13-3.13-.77-1.95-1.69-3.85-2.41-5.8-.77-1.95-1.08-4.05-.87-6.16.21-2.1.82-4.16,1.59-6.1.77-1.95,1.74-3.69,2.26-5.64.51-1.95.1-3.85-.46-5.8-1.33-4.51-1.23-9.23.67-13.59.15-.47-.41-.78-.57-.42h0Z"/>
        <path class="cls-1" d="m98.9,24.84c-1.39.87-1.59,2.62-1.23,4.1.46,2,2.05,3.49,2.46,5.49.51,2.31-1.03,4.46-1.59,6.62-.62,2.31-.21,4.41.46,6.67.31,1.13.56,2.31.41,3.49-.1,1.03-.46,2.05-.87,3.03-.77,1.95-1.85,3.85-2.1,5.95-.31,2.41.26,4.82.62,7.18.21,1.23.41,2.46.62,3.69s.51,2.56.56,3.9c.05.72-.05,1.44-.26,2.1-.15.51-.26,1.03-.05,1.59.15.46.51.77.77,1.18.36.46.56.97.67,1.54.36,2.26-.67,4.46-.05,6.67.1.41.72.26.62-.15-.51-1.95.21-3.9.15-5.9,0-.82-.21-1.64-.67-2.31-.26-.36-.56-.67-.77-1.03-.36-.67,0-1.39.1-2.05.21-1.03.1-2.1-.05-3.13-.21-1.23-.41-2.46-.62-3.64-.41-2.41-.92-4.87-1.08-7.34-.15-2.46.51-4.36,1.44-6.46.77-1.8,1.64-3.59,1.59-5.59,0-2.26-1.18-4.36-1.23-6.62-.05-2.36,1.13-4.31,1.74-6.52.31-1.08.41-2.21.1-3.33s-.87-2-1.44-2.98c-.87-1.54-2-4.31-.05-5.59.41-.26.11-.77-.25-.56h0Z"/>
        <path class="cls-1" d="m99.61,26.63l.26,13.49.15,6.72c0,1.13.05,2.31.05,3.44s.05,2.21-.31,3.23c-.31.92-.82,1.8-1.08,2.72-.21.82-.26,1.69-.15,2.56.26,1.9,1.18,3.59,2,5.28.41.82.97,1.69,1.13,2.56.1.36.1.77,0,1.18-.21.46-.62.62-1.08.77-.56.21-1.13.46-1.23,1.13-.05.41.05.77.15,1.13.15.56.31,1.13.46,1.74.31,1.23.62,2.46.92,3.69.26,1.08.46,2.26.92,3.23.41.87,1.18,1.44,1.8,2.15.77.92,1.18,2,1.33,3.18.05.41.67.26.62-.15-.1-.87-.41-1.69-.82-2.46-.41-.77-1.08-1.39-1.69-2.05-.77-.77-.97-1.74-1.23-2.77s-.56-2.1-.82-3.18-.56-2.21-.82-3.33c-.1-.51-.41-1.18.1-1.54.31-.21.72-.26,1.08-.41,1.33-.62,1.13-2.26.62-3.39-.77-1.8-1.9-3.49-2.51-5.34-.31-.97-.51-1.95-.41-2.98s.56-1.95.97-2.92c.82-1.85.62-3.9.56-5.9l-.15-6.72c-.1-5.03-.21-10.11-.31-15.13.11-.34-.56-.34-.51.07h0Z"/>
        <path class="cls-2" d="m103.97,28.27c.72,1.18,1.13,2.51,1.18,3.85.05,1.33-.31,2.56-.77,3.8-.41,1.13-.92,2.31-.92,3.49s.56,2.1,1.23,3.08c.82,1.13,1.33,2.26,1.28,3.69,0,1.33-.31,2.62-.46,3.95-.31,2.87-.1,5.8.15,8.67.1,1.54.41,2.98.92,4.41.51,1.33,1.23,2.92.41,4.31-.21.36.36.67.56.31.62-1.03.51-2.21.15-3.33-.41-1.28-.97-2.51-1.18-3.85-.26-1.54-.31-3.13-.41-4.72-.05-1.49-.1-2.98-.05-4.41.1-2.56,1.23-5.54.05-8-.56-1.13-1.59-1.95-1.9-3.18-.36-1.39.26-2.77.77-4.05.51-1.39.92-2.77.82-4.31-.1-1.44-.51-2.77-1.28-4-.19-.37-.75-.07-.55.29h0Z"/>
        <path class="cls-1" d="m95.66,25.76c-.56,1.95-.92,3.9-.97,5.95s.31,4.16.41,6.26c.1,2.1-.62,4.1-.97,6.16-.36,2.05-.21,4.16-.36,6.21s-.67,4.05-.87,6.1c-.21,2.05.05,4.16.36,6.21.31,2.15.41,4.26.36,6.46-.05,1.08-.1,2.15-.05,3.23.05,1.08.21,2.05.36,3.08.15,1.13.21,2.36-.26,3.44-.41.92-1.08,1.64-1.54,2.51-.67,1.23-.77,3.08.62,3.8.36.21.67-.36.31-.56-1.74-.92-.26-3.18.46-4.21.46-.67.87-1.33,1.03-2.15.21-.92.15-1.85,0-2.82s-.26-1.9-.31-2.82c-.05-1.08,0-2.15,0-3.23.05-2,.05-3.95-.26-5.95-.26-2-.62-4.05-.51-6.1.1-2.05.62-3.95.87-5.95.26-2,.1-3.95.26-5.9.15-1.95.87-3.85,1.08-5.85.26-2.31-.31-4.62-.36-6.93-.05-2.31.31-4.51.97-6.72.09-.43-.52-.63-.63-.22h0Z"/>
        <path class="cls-1" d="m97.15,25.71c.31,4.31.05,8.62-.72,12.82-.41,2.1-.92,4.21-1.54,6.31-.31,1.03-.67,2-1.03,3.03-.31.77-.92,1.69-.62,2.56.31.77,1.18,1.33,1.64,2,.56.77,1.03,1.59,1.28,2.46.62,1.95.31,3.8-.41,5.69s-1.28,3.8-1.49,5.9c-.21,2.15-.1,4.31,0,6.46.26,5.13.51,10.31.82,15.44,0,.41.67.41.62,0-.26-4.57-.46-9.13-.72-13.7-.21-4.31-.62-8.72.92-12.88.67-1.8,1.39-3.49,1.18-5.44-.21-1.69-.87-3.23-1.95-4.57-.26-.36-.56-.62-.87-.97-.21-.21-.41-.41-.51-.77-.05-.36.05-.67.21-.97.41-.97.77-2,1.13-2.98.72-2.05,1.28-4.16,1.69-6.26.97-4.67,1.28-9.44.97-14.16.02-.38-.65-.38-.6.03h0Z"/>
        <path class="cls-1" d="m99.87,25.71c1.33,1.39,2.77,2.82,3.08,4.82.36,2.15-.36,4.41-.67,6.52-.62,4.26-.92,8.52-.82,12.82.05,2.1.26,4.16.36,6.26.05.92.05,1.9-.72,2.56-.56.51-1.33.77-1.9,1.28s-.72,1.28-.72,2.05c-.05,1.08-.05,2.21-.05,3.33-.05,2.26-.1,4.51-.15,6.77-.1,5.03-.21,10.05-.31,15.13,0,.41.62.41.62,0,.1-4.57.21-9.13.26-13.7.05-2.31.1-4.62.15-6.93,0-1.13.05-2.31.05-3.44s-.15-2.26.82-2.98c.62-.46,1.33-.72,1.85-1.28s.67-1.28.72-2.05c.05-.97-.15-2-.21-2.98-.1-1.13-.15-2.21-.15-3.33-.15-4.46.1-8.98.77-13.39.31-2.21,1.03-4.51.67-6.77-.31-2.1-1.8-3.69-3.28-5.18-.22-.28-.68.18-.37.49h0Z"/>
        <path class="cls-1" d="m103.31,26.32c.41,1.64,1.03,3.18,1.54,4.77s.87,3.18,1.18,4.82c.56,3.23.72,6.57.72,9.85-.05,3.33-.31,6.67-.67,10-.15,1.69-.36,3.39-.56,5.03-.1.82-.21,1.69-.31,2.51-.1.82-.05,2.05-.51,2.82-.41.67-1.08.97-1.23,1.74s.05,1.69.15,2.46c.26,2,.51,4.05.77,6.05.05.41.72.41.62,0-.21-1.74-.46-3.54-.67-5.28-.1-.82-.26-1.64-.31-2.46-.05-.51.05-.92.36-1.28.21-.26.51-.46.72-.72.41-.51.46-1.18.51-1.8.1-.92.26-1.85.36-2.77.21-1.74.41-3.54.62-5.28.72-6.62,1.18-13.29.26-19.9-.26-1.8-.62-3.59-1.13-5.34-.56-1.85-1.28-3.59-1.74-5.49-.17-.29-.78-.14-.68.27h0Z"/>
      </g>
      <g>
        <path class="cls-1" d="m57.81,14.83c4.26,3.44,2.15,9.59,2,14.16-.05,2.41.41,4.62,1.74,6.62.67.97,1.33,2.05.97,3.28-.31,1.03-1.08,1.85-1.69,2.72-1.33,1.95-1.44,4.26-1.18,6.52.15,1.23.41,2.46.56,3.69.15,1.28,0,2.51-.46,3.74-.41,1.13-.97,2.15-1.39,3.28-.41,1.13-.77,2.36-.82,3.59-.21,2.51.36,5.03,1.13,7.39.46,1.39.97,2.77,1.49,4.16.51,1.39,1.28,3.03.82,4.51-.36,1.33-1.49,2-2.77,2.26-.72.15-1.69.41-1.59,1.33.05.41.67.41.62,0-.05-.51.62-.62.97-.67.46-.1.92-.15,1.39-.41.82-.41,1.54-1.13,1.85-2,.46-1.13.26-2.36-.1-3.54-.41-1.28-.92-2.51-1.39-3.8-.92-2.51-1.74-5.13-1.85-7.8-.05-1.33.1-2.67.51-4,.36-1.18.97-2.31,1.44-3.44.46-1.08.82-2.15.82-3.33.05-1.23-.26-2.46-.41-3.69-.41-2.46-.62-5.18.82-7.34.56-.87,1.28-1.64,1.69-2.62s.36-1.9-.05-2.82c-.51-1.13-1.33-2.05-1.8-3.18-.46-1.13-.67-2.46-.67-3.74-.05-4.98,2.46-11.59-2.21-15.39-.34-.2-.8.21-.44.52h0Z"/>
        <path class="cls-1" d="m60.16,16.99c1.69,1.69,2.41,3.95,2.1,6.31-.15,1.18-.46,2.31-.31,3.49.1,1.03.51,1.85,1.18,2.67.72.87,1.9,2,1.59,3.23-.15.62-.67,1.03-1.08,1.49-.36.41-.67.82-.92,1.28-1.08,1.95-1.08,4.05-.41,6.1.41,1.18.92,2.36,1.13,3.59s.26,2.62.1,3.9c-.26,2.56-1.08,5.08-1.95,7.49s-1.8,4.72-2.15,7.18c-.15,1.18.26,2,.87,3.03.62,1.08.87,2.26.87,3.49,0,2.82-1.13,5.49-1.13,8.31,0,2.62.97,5.95-1.28,8-.31.26.15.72.46.46,1.74-1.59,1.8-4,1.59-6.21-.1-1.44-.21-2.82,0-4.21.21-1.28.51-2.56.77-3.9.41-2.31.36-4.51-.87-6.57-.36-.62-.67-1.18-.67-1.9s.26-1.44.41-2.1c.31-1.28.77-2.51,1.18-3.74,1.64-4.77,3.69-10,2-15.03-.41-1.23-1.03-2.46-1.18-3.8-.15-1.23.1-2.46.62-3.59.26-.51.56-1.03.97-1.44.36-.41.77-.77,1.03-1.23.51-.87.26-1.9-.21-2.72-.67-1.13-1.85-1.95-2.21-3.23-.36-1.33.05-2.82.21-4.16.31-2.51-.51-4.98-2.31-6.77-.24-.14-.7.32-.4.58h0Z"/>
        <path class="cls-2" d="m55.24,15.35c-1.59,3.59-2.05,7.64-1.39,11.49.36,2.1,1.44,4.16,1.33,6.36s-1.13,4.16-1.95,6.1c-1.54,3.64-2.82,7.75-1.9,11.75.46,2.1,1.49,4,2.31,6s1.74,4.1,2.31,6.21c.36,1.33-.1,2.36-.72,3.49-.51.92-.92,1.9-1.23,2.92-.62,2.1-.67,4.36-.26,6.57.1.41.72.26.62-.15-.41-2-.31-4.1.21-6.1.26-.97.67-1.9,1.13-2.77.41-.77.87-1.54.97-2.41.15-.97-.21-1.9-.51-2.82-.36-1.03-.77-2.1-1.13-3.13-.77-1.95-1.69-3.85-2.41-5.8s-1.08-4.05-.87-6.16.82-4.16,1.59-6.1c.77-1.95,1.74-3.69,2.26-5.64.51-1.95.1-3.85-.46-5.8-1.33-4.51-1.23-9.23.67-13.59.15-.48-.42-.78-.57-.42h0Z"/>
        <path class="cls-1" d="m56.93,15.04c-1.39.87-1.59,2.62-1.23,4.1.46,2,2.05,3.49,2.46,5.49.51,2.31-1.03,4.46-1.59,6.62-.62,2.31-.21,4.41.46,6.67.31,1.13.56,2.31.41,3.49-.1,1.03-.46,2.05-.87,3.03-.77,1.95-1.85,3.85-2.1,5.95-.31,2.41.26,4.82.62,7.18.21,1.23.41,2.46.62,3.69s.51,2.56.56,3.9c.05.72-.05,1.44-.26,2.1-.15.51-.26,1.03-.05,1.59.15.46.51.77.77,1.18.36.46.56.97.67,1.54.36,2.26-.67,4.46-.05,6.67.1.41.72.26.62-.15-.51-1.95.21-3.9.15-5.9,0-.82-.21-1.64-.67-2.31-.26-.36-.56-.67-.77-1.03-.36-.67,0-1.39.1-2.05.21-1.03.1-2.1-.05-3.13-.21-1.23-.41-2.46-.62-3.64-.41-2.41-.92-4.87-1.08-7.34-.15-2.46.51-4.36,1.44-6.46.77-1.8,1.64-3.59,1.59-5.59,0-2.26-1.18-4.36-1.23-6.62-.05-2.36,1.13-4.31,1.74-6.52.31-1.08.41-2.21.1-3.33-.31-1.13-.87-2-1.44-2.98-.87-1.54-2-4.31-.05-5.59.42-.25.06-.77-.25-.56h0Z"/>
        <path class="cls-1" d="m57.6,16.83l.26,13.49.15,6.72c0,1.13.05,2.31.05,3.44s.05,2.21-.31,3.23c-.31.92-.82,1.8-1.08,2.72-.21.82-.26,1.69-.15,2.56.26,1.9,1.18,3.59,2,5.28.41.82.97,1.69,1.13,2.56.1.36.1.77,0,1.18-.21.46-.62.62-1.08.77-.56.21-1.13.46-1.23,1.13-.05.41.05.77.15,1.13.15.56.31,1.13.46,1.74.31,1.23.62,2.46.92,3.69.26,1.08.46,2.26.92,3.23.41.87,1.18,1.44,1.8,2.15.77.92,1.18,2,1.33,3.18.05.41.67.26.62-.15-.1-.87-.41-1.69-.82-2.46-.41-.77-1.08-1.39-1.69-2.05-.77-.77-.97-1.74-1.23-2.77s-.56-2.1-.82-3.18-.56-2.21-.82-3.33c-.1-.51-.41-1.18.1-1.54.31-.21.72-.26,1.08-.41,1.33-.62,1.13-2.26.62-3.39-.77-1.8-1.9-3.49-2.51-5.34-.31-.97-.51-1.95-.41-2.98s.56-1.95.97-2.92c.82-1.85.62-3.9.56-5.9l-.15-6.72c-.1-5.03-.21-10.11-.31-15.13.16-.34-.51-.34-.51.07h0Z"/>
        <path class="cls-2" d="m62.01,18.48c.72,1.18,1.13,2.51,1.18,3.85.05,1.33-.31,2.56-.77,3.8-.41,1.13-.92,2.31-.92,3.49s.56,2.1,1.23,3.08c.82,1.13,1.33,2.26,1.28,3.69,0,1.33-.31,2.62-.46,3.95-.31,2.87-.1,5.8.15,8.67.1,1.54.41,2.98.92,4.41.51,1.33,1.23,2.92.41,4.31-.21.36.36.67.56.31.62-1.03.51-2.21.15-3.33-.41-1.28-.97-2.51-1.18-3.85-.26-1.54-.31-3.13-.41-4.72-.05-1.49-.1-2.98-.05-4.41.1-2.56,1.23-5.54.05-8-.56-1.13-1.59-1.95-1.9-3.18-.36-1.39.26-2.77.77-4.05.51-1.39.92-2.77.82-4.31-.1-1.44-.51-2.77-1.28-4-.24-.38-.75-.07-.55.29h0Z"/>
        <path class="cls-1" d="m53.7,15.96c-.56,1.95-.92,3.9-.97,5.95-.05,2.05.31,4.16.41,6.26s-.62,4.1-.97,6.16c-.36,2.05-.21,4.16-.36,6.21s-.67,4.05-.87,6.1.05,4.16.36,6.21c.31,2.15.41,4.26.36,6.46-.05,1.08-.1,2.15-.05,3.23.05,1.08.21,2.05.36,3.08.15,1.13.21,2.36-.26,3.44-.41.92-1.08,1.64-1.54,2.51-.67,1.23-.77,3.08.62,3.8.36.21.67-.36.31-.56-1.74-.92-.26-3.18.46-4.21.46-.67.87-1.33,1.03-2.15.21-.92.15-1.85,0-2.82s-.26-1.9-.31-2.82c-.05-1.08,0-2.15,0-3.23.05-2,.05-3.95-.26-5.95-.31-2-.62-4.05-.51-6.1.1-2.05.62-3.95.87-5.95.26-2,.1-3.95.26-5.9.15-1.95.87-3.85,1.08-5.85.26-2.31-.31-4.62-.36-6.93s.31-4.51.97-6.72c.09-.42-.53-.58-.63-.22h0Z"/>
        <path class="cls-1" d="m55.14,15.91c.31,4.31.05,8.62-.72,12.82-.41,2.1-.92,4.21-1.54,6.31-.31,1.03-.67,2-1.03,3.03-.31.77-.92,1.69-.62,2.56.31.77,1.18,1.33,1.64,2,.56.77,1.03,1.59,1.28,2.46.62,1.95.31,3.8-.41,5.69s-1.28,3.8-1.49,5.9c-.21,2.15-.1,4.31,0,6.46.26,5.13.51,10.31.82,15.44,0,.41.67.41.62,0-.26-4.57-.46-9.13-.72-13.7-.21-4.31-.62-8.77.92-12.88.67-1.8,1.39-3.49,1.18-5.44-.21-1.69-.87-3.23-1.95-4.57-.26-.36-.56-.62-.87-.97-.21-.21-.41-.41-.51-.77-.05-.36.05-.67.21-.97.41-.97.77-2,1.13-2.98.72-2.05,1.28-4.16,1.69-6.26.97-4.67,1.28-9.44.97-14.16.01-.38-.6-.38-.6.03h0Z"/>
        <path class="cls-1" d="m57.86,15.91c1.33,1.39,2.77,2.82,3.08,4.82.36,2.15-.36,4.41-.67,6.52-.62,4.26-.92,8.52-.82,12.82.05,2.1.26,4.16.36,6.26.05.92.05,1.9-.72,2.56-.56.51-1.33.77-1.9,1.28s-.72,1.28-.72,2.05c-.05,1.08-.05,2.21-.05,3.33-.05,2.26-.1,4.51-.15,6.77-.1,5.03-.21,10.05-.31,15.13,0,.41.62.41.62,0,.1-4.57.21-9.13.26-13.7.05-2.31.1-4.62.15-6.93,0-1.13.05-2.31.05-3.44s-.15-2.26.82-2.98c.62-.46,1.33-.72,1.85-1.28s.67-1.28.72-2.05c.05-.97-.15-2-.21-2.98-.1-1.13-.15-2.21-.15-3.33-.15-4.46.1-8.98.77-13.39.31-2.21,1.03-4.51.67-6.77-.31-2.1-1.8-3.69-3.28-5.18-.22-.28-.68.18-.37.49h0Z"/>
        <path class="cls-1" d="m61.29,16.53c.41,1.64,1.03,3.18,1.54,4.77s.87,3.18,1.18,4.82c.56,3.23.72,6.57.72,9.85-.05,3.33-.31,6.67-.67,10-.15,1.69-.36,3.39-.56,5.03-.1.82-.21,1.69-.31,2.51s-.05,2.05-.51,2.82c-.41.67-1.08.97-1.23,1.74s.05,1.69.15,2.46c.26,2,.51,4.05.77,6.05.05.41.72.41.62,0-.21-1.74-.46-3.54-.67-5.28-.1-.82-.26-1.64-.31-2.46-.05-.51.05-.92.36-1.28.21-.26.51-.46.72-.72.41-.51.46-1.18.51-1.8.1-.92.26-1.85.36-2.77.21-1.74.41-3.54.62-5.28.72-6.62,1.18-13.29.26-19.9-.26-1.8-.62-3.59-1.13-5.34-.56-1.85-1.28-3.59-1.74-5.49-.11-.3-.78-.09-.68.27h0Z"/>
      </g>
      <g>
        <path class="cls-1" d="m38.41,10.16c-1.8,1.8-2.51,4.36-2.77,6.82-.31,3.23.31,6.46.51,9.7.21,3.03.05,6.1-1.39,8.82-.62,1.13-1.28,2.31-1.33,3.64-.05,1.23.46,2.36,1.08,3.39.72,1.18,1.39,2.31,1.74,3.69.36,1.49.36,3.03.26,4.51-.21,3.03-1.08,6.05-.41,9.03.67,2.98,2.15,5.59,2.46,8.62.36,3.18-.21,6.41-1.03,9.49-.46,1.69-.97,3.39-1.44,5.08-.46,1.59-1.03,3.18-1.03,4.87,0,1.33.51,2.72,1.54,3.64.46.41.97.67,1.59.77.56.15,1.44.26,1.39.97-.05.41.62.41.62,0,.1-.97-.82-1.39-1.64-1.54-1.28-.31-2.21-1.13-2.62-2.41-.51-1.59-.05-3.28.36-4.82.41-1.44.87-2.87,1.28-4.31.82-2.92,1.54-5.9,1.69-8.98.05-1.49-.05-3.03-.36-4.51-.31-1.49-.82-2.77-1.28-4.1-.51-1.44-1.03-2.92-1.13-4.46-.1-1.54.15-3.03.36-4.51.36-2.77.67-5.69-.26-8.41-.41-1.23-1.18-2.31-1.8-3.49-.72-1.28-.92-2.56-.41-4,.46-1.33,1.33-2.46,1.8-3.8.46-1.33.62-2.67.72-4.05.21-3.59-.56-7.13-.62-10.72-.05-3.03.41-6.46,2.62-8.67.22-.05-.19-.51-.5-.26h0Z"/>
        <path class="cls-1" d="m36.05,12.88c-1.69,2.05-2.51,4.77-2.36,7.44.05,1.49.41,2.92.41,4.41,0,1.59-.51,2.77-1.44,4.05-.77,1.08-1.49,2.26-1.39,3.64.1,1.39,1.08,2.15,1.69,3.23,1.59,2.67,1.44,5.64.56,8.46-.46,1.44-.82,2.87-1.03,4.41-.21,1.59-.15,3.18,0,4.77.31,3.08,1.08,6.05,1.9,9.03.46,1.54.87,3.08,1.28,4.67.41,1.59.92,3.23.92,4.82,0,1.44-.97,2.62-1.39,4-.41,1.39-.46,2.82-.36,4.21.1,1.69.41,3.33.72,4.98.31,1.85.46,3.64.36,5.54-.15,2.98-.67,6.62,1.54,9.03.26.31.72-.15.46-.46-2-2.26-1.49-5.69-1.33-8.46.1-1.54,0-3.08-.21-4.62s-.56-3.08-.72-4.67c-.15-1.44-.26-2.92,0-4.36.1-.62.26-1.28.51-1.85.26-.67.67-1.28.87-1.95.46-1.28.15-2.67-.15-4-.31-1.54-.72-3.08-1.13-4.57-1.64-5.9-3.74-12.16-2.15-18.26.36-1.44.92-2.77,1.13-4.21.21-1.28.21-2.62-.1-3.9-.31-1.28-.77-2.41-1.49-3.44-.36-.51-.77-.92-1.03-1.49-.36-.77-.21-1.64.1-2.46.56-1.33,1.69-2.36,2.15-3.8.51-1.49.36-3.08.15-4.62-.21-1.64-.36-3.23,0-4.87.36-1.64.97-3.03,2-4.26.25-.28-.21-.74-.47-.44h0Z"/>
        <path class="cls-2" d="m40.88,11.6c1.64,4.67,2.05,9.8,1.18,14.67-.41,2.36-1.28,4.72-1.23,7.18.05,2.46.97,4.62,1.74,6.82,1.69,4.77,3.08,9.95,2.05,15.03-.51,2.46-1.49,4.82-2.31,7.18-.82,2.36-1.74,4.98-2.26,7.49-.26,1.33-.15,2.51.36,3.8s1.08,2.41,1.44,3.69c.77,2.72.92,5.59.46,8.41-.05.41.56.56.62.15.41-2.36.36-4.72-.05-7.08-.21-1.18-.51-2.31-.97-3.44-.46-1.13-1.03-2.15-1.28-3.28-.26-1.44.26-2.82.62-4.16.36-1.28.77-2.51,1.13-3.74.77-2.46,1.8-4.82,2.46-7.28,1.39-4.92.56-10-.97-14.77-.77-2.36-1.8-4.62-2.26-7.03-.51-2.62.21-5.08.77-7.64,1.18-5.34.87-10.98-.97-16.11-.07-.45-.69-.25-.53.11h0Z"/>
        <path class="cls-1" d="m39.34,11.55c1.69,1.33,1.23,4.1.56,5.85-.92,2.31-2.31,4.41-2.15,6.98s1.44,4.87,1.85,7.44c.26,1.54.26,3.13-.05,4.67-.26,1.33-.62,2.62-.82,3.95-.41,2.51.05,4.87.87,7.28s1.9,4.92,2,7.59c.15,2.87-.41,5.8-.82,8.67-.21,1.49-.41,2.92-.56,4.41-.15,1.49-.46,2.87-.51,4.31,0,.77.05,1.49.21,2.21.21.87.41,1.64-.05,2.46-.26.51-.67.97-.87,1.54-.21.51-.31,1.03-.41,1.54-.31,2.67.72,5.39.1,8.05-.1.41.51.56.62.15.51-2.36-.15-4.72-.15-7.08,0-1.23.26-2.36.92-3.39.31-.46.56-.87.62-1.39.1-.62-.05-1.23-.15-1.8-.31-1.44-.21-2.87,0-4.36s.41-3.03.62-4.51c.41-2.92.92-5.9,1.08-8.82.15-2.77-.41-5.28-1.33-7.9s-1.85-4.98-1.64-7.69c.1-1.49.51-2.87.82-4.36.26-1.33.41-2.67.36-4.05-.15-2.72-1.39-5.13-1.9-7.8-.31-1.54-.1-3.03.46-4.51.51-1.28,1.23-2.51,1.69-3.85.62-1.85.87-4.67-.87-6-.35-.31-.81.15-.5.41h0Z"/>
        <path class="cls-1" d="m38.41,13.14c-.1,5.39-.15,10.72-.26,16.11l-.1,7.9-.05,3.95c0,1.28-.1,2.56.05,3.8.15,1.23.51,2.31.92,3.44.41,1.13.67,2.31.62,3.59-.1,2.46-1.13,4.82-2.05,7.08-.62,1.54-1.85,3.74-1.03,5.44.15.31.41.56.67.72.36.26.92.31,1.23.62.46.46.15,1.23.05,1.8-.15.72-.31,1.39-.46,2.1-.31,1.44-.62,2.87-.87,4.31-.26,1.44-.41,2.87-.97,4.16-.51,1.13-1.49,1.95-2.05,3.08s-.87,2.26-1.03,3.49c-.05.41.62.41.62,0,.15-1.23.51-2.46,1.13-3.54.56-.92,1.39-1.64,1.85-2.62.51-1.03.62-2.26.87-3.39.26-1.33.56-2.62.82-3.95.26-1.33.51-2.56.77-3.8.15-.77.26-1.64-.46-2.21-.31-.21-.72-.31-1.03-.51-.51-.26-.72-.72-.77-1.28-.05-1.03.31-2,.72-2.92.92-2.26,2-4.46,2.41-6.87.21-1.03.26-2.1.1-3.18-.15-1.23-.67-2.31-1.03-3.49-.82-2.46-.51-5.18-.46-7.69l.15-8.05c.1-6,.21-12,.31-18.01-.05-.49-.67-.49-.67-.08h0Z"/>
        <path class="cls-2" d="m34.1,14.83c-1.39,2.77-1.59,5.95-.77,8.93.46,1.64,1.13,3.23,1.23,4.92s-.87,2.98-1.64,4.46c-1.54,2.92-.56,6.26-.36,9.39.26,3.59.05,7.23-.21,10.82-.15,2-.62,3.8-1.18,5.69-.46,1.54-.77,3.18,0,4.72.21.36.72.05.56-.31-.77-1.49-.26-3.23.21-4.77.46-1.54.82-3.03.97-4.62.36-3.49.51-7.03.31-10.52-.05-1.64-.31-3.28-.46-4.92-.15-1.64-.21-3.28.51-4.77.62-1.28,1.54-2.36,1.8-3.8.26-1.44-.05-2.92-.46-4.31-.51-1.8-1.13-3.49-1.13-5.39s.36-3.64,1.18-5.28c.16-.29-.35-.6-.56-.24h0Z"/>
        <path class="cls-1" d="m42.36,12.27c.62,2.46.92,4.92.97,7.44s-.36,4.92-.41,7.39c-.05,2.46.51,4.62.87,6.98.41,2.46.31,4.98.41,7.49s.51,4.87.82,7.34.15,4.92-.1,7.39c-.26,2.46-.56,4.92-.51,7.39.05,2.51.21,4.98-.05,7.44s-.72,4.98.41,7.34c.51,1.03,1.23,2,1.54,3.18.21.92.26,2.31-.67,2.87-.36.21,0,.77.31.56,1.33-.87,1.28-2.82.77-4.16-.36-1.03-1.03-1.9-1.44-2.87-.56-1.18-.67-2.41-.62-3.64.05-1.23.26-2.41.36-3.59.1-1.28.1-2.56.05-3.85-.05-2.56-.15-5.13.1-7.69s.62-5.08.62-7.64-.56-5.03-.82-7.59-.15-5.08-.31-7.59c-.15-2.51-.87-4.87-1.08-7.34-.26-2.87.31-5.75.36-8.62s-.31-5.64-.97-8.36c-.09-.44-.71-.23-.61.13h0Z"/>
        <path class="cls-1" d="m40.88,12.01c-.31,5.18-.05,10.36.67,15.49.36,2.51.82,5.03,1.44,7.54.31,1.28.67,2.51,1.03,3.8.15.56.36,1.13.51,1.69.26.72.46,1.39,0,2.1-.62.92-1.33,1.69-1.8,2.72-.46.97-.82,1.95-1.03,3.03-.46,2.26-.15,4.41.56,6.62.77,2.51,1.33,4.98,1.49,7.59.15,2.62.05,5.18-.05,7.8-.26,6.21-.51,12.41-.77,18.67,0,.41.62.41.62,0,.26-5.54.46-11.08.72-16.62.21-5.08.62-10.31-.67-15.24-.62-2.41-1.64-4.67-1.44-7.23.15-2.31,1.03-4.57,2.51-6.31.67-.82,1.03-1.54.72-2.67-.36-1.23-.77-2.41-1.13-3.59-.72-2.51-1.28-5.03-1.74-7.59-1.03-5.85-1.33-11.8-1.03-17.7.05-.51-.61-.51-.61-.1h0Z"/>
        <path class="cls-1" d="m38.31,11.5c-1.39,1.74-2.72,3.54-3.18,5.75-.51,2.51.1,5.13.41,7.59.72,5.34,1.03,10.72.97,16.11,0,2.67-.15,5.39-.36,8.05-.05,1.03-.1,2.1.26,3.03.31.87.97,1.39,1.69,1.9.41.26.77.56,1.03.97.36.56.36,1.28.36,1.9,0,1.33.05,2.72.05,4.1.05,2.72.1,5.44.15,8.16.1,6.21.21,12.41.31,18.62,0,.41.67.41.62,0-.1-5.39-.21-10.77-.26-16.21-.05-2.67-.1-5.34-.15-8.05,0-1.33-.05-2.72-.05-4.1,0-1.23.05-2.51-.1-3.69-.15-.87-.56-1.54-1.28-2.05-.87-.67-1.64-1.13-1.9-2.31-.26-1.18-.05-2.36.05-3.49.1-1.28.15-2.56.21-3.85.21-5.28,0-10.62-.51-15.85-.15-1.39-.31-2.77-.51-4.16-.21-1.49-.46-3.03-.46-4.57s.26-2.92.97-4.21c.62-1.13,1.39-2.15,2.21-3.18.19-.31-.22-.77-.53-.46h0Z"/>
        <path class="cls-1" d="m34.72,12.63c-.41,2.05-1.03,4-1.54,6s-.87,3.95-1.18,5.95c-.56,4-.77,8.05-.72,12.11s.31,8.16.62,12.21c.15,2.1.36,4.26.56,6.41.1,1.08.21,2.15.31,3.23.1.97.15,1.95.36,2.87.1.46.26.82.51,1.23.31.41.72.77.87,1.28.31,1.03-.05,2.31-.15,3.33-.26,2.41-.51,4.82-.77,7.23-.05.41.62.41.62,0,.21-2.1.41-4.16.67-6.26.1-1.08.26-2.1.31-3.18.05-.77-.05-1.54-.51-2.15-.21-.31-.51-.56-.67-.92-.26-.51-.31-1.13-.41-1.69-.1-1.03-.21-2.1-.31-3.13-.21-2.1-.41-4.26-.62-6.41-.72-8.11-1.23-16.31-.31-24.47.26-2.26.62-4.51,1.18-6.72s1.28-4.51,1.74-6.82c.16-.36-.46-.51-.56-.1h0Z"/>
      </g>
      <g>
        <path class="cls-1" d="m13.17,22.32c-4.1,3.33-2.56,9.13-2.26,13.59.21,2.56-.1,5.03-1.54,7.18-.56.87-1.18,1.8-1.23,2.87-.05,1.03.46,1.9,1.03,2.67.67.97,1.39,1.85,1.74,3.03.36,1.18.36,2.41.31,3.59-.21,2.46-1.08,4.98-.41,7.44s2.15,4.57,2.46,7.13-.31,5.39-1.13,7.9c-.46,1.44-.97,2.82-1.54,4.26-.46,1.28-.97,2.62-.82,4,.15,1.08.77,2,1.69,2.62.46.31.92.46,1.49.56.41.05,1.33.15,1.28.72-.05.41.62.41.62,0,.1-.77-.67-1.13-1.33-1.28-1.08-.26-2-.46-2.67-1.49-.77-1.18-.51-2.62-.05-3.9s.92-2.46,1.33-3.69c.87-2.41,1.64-4.92,1.8-7.49.15-2.56-.51-4.62-1.49-6.87-.51-1.13-1.03-2.31-1.23-3.54-.21-1.39.1-2.77.31-4.1.36-2.21.62-4.57-.21-6.72-.77-2-3.28-3.69-2.26-6,.46-1.03,1.23-1.9,1.74-2.98.51-1.08.67-2.1.77-3.23.46-5.08-2.72-12.16,2.05-16.01.32-.1-.09-.51-.45-.26h0Z"/>
        <path class="cls-1" d="m10.81,24.48c-1.54,1.54-2.46,3.64-2.41,5.8.05,1.23.36,2.41.41,3.64.05,1.44-.46,2.41-1.33,3.44-.67.77-1.33,1.59-1.44,2.62-.15,1.18.56,1.85,1.28,2.67,1.74,1.95,1.95,4.51,1.13,6.93-.46,1.28-.92,2.51-1.13,3.85-.21,1.23-.21,2.51-.05,3.74.26,2.56,1.03,5.03,1.85,7.49.41,1.23.87,2.46,1.28,3.69s.97,2.67.97,4.05c.05,1.28-.97,2.26-1.39,3.44-.36,1.08-.41,2.21-.36,3.33.1,1.39.41,2.72.67,4.05.31,1.54.46,3.03.36,4.62-.15,2.51-.56,5.44,1.54,7.34.31.26.77-.15.46-.46-1.95-1.74-1.49-4.57-1.33-6.87.15-2.56-.56-4.92-.92-7.49-.21-1.23-.26-2.46,0-3.64s1.08-2.1,1.44-3.23,0-2.31-.31-3.33c-.31-1.23-.72-2.41-1.13-3.64-1.64-4.77-3.69-10-1.95-15.03.41-1.13.92-2.26,1.08-3.49.15-1.03.05-2.05-.26-3.03-.31-.97-.77-1.85-1.44-2.62-.41-.46-.92-.82-1.13-1.44-.21-.67,0-1.33.36-1.95.62-1.03,1.59-1.8,2.05-2.87.46-1.08.31-2.41.1-3.59-.21-1.39-.36-2.67-.05-4.05s1.03-2.46,2-3.44c.42-.38-.04-.84-.35-.53h0Z"/>
        <path class="cls-2" d="m15.64,23.6c1.64,3.8,2.05,8.11,1.08,12.11-.46,2-1.33,3.9-1.13,5.95.21,1.9,1.03,3.59,1.8,5.28,1.64,3.85,3.08,8.16,1.95,12.36-.56,2.05-1.54,3.95-2.36,5.9-.41.97-.77,2-1.18,2.98-.41.97-.82,2.05-1.03,3.13-.41,2.15,1.18,3.85,1.85,5.8.77,2.21.92,4.57.46,6.82-.1.41.51.56.62.15.36-1.9.36-3.8-.05-5.69-.21-.92-.51-1.85-.92-2.72s-1.03-1.74-1.33-2.72c-.31-1.13.15-2.26.51-3.33.36-1.08.77-2.1,1.18-3.13.77-2,1.8-3.95,2.51-6,1.39-4,.62-8.11-.87-11.95-.72-1.95-1.8-3.74-2.26-5.75-.56-2.31.21-4.31.77-6.46,1.12-4.31.76-8.93-1.04-13.03-.15-.41-.72-.05-.56.3h0Z"/>
        <path class="cls-1" d="m14.2,23.55c1.69,1.08,1.08,3.49.31,4.98-.92,1.74-2.15,3.39-1.95,5.44.21,2.05,1.44,4,1.85,6.1.26,1.23.21,2.51-.1,3.74-.26,1.08-.62,2.1-.82,3.23-.41,2,.05,3.85.82,5.69.82,2,1.85,3.9,2.05,6.05.21,2.41-.41,4.87-.77,7.28-.21,1.23-.41,2.46-.62,3.69-.21,1.08-.41,2.21-.46,3.33-.05.62,0,1.23.15,1.85.21.77.41,1.39-.05,2.05-.62.82-1.08,1.49-1.23,2.56-.31,2.15.67,4.31.1,6.46-.1.41.51.56.62.15.51-1.95-.15-3.9-.15-5.85,0-1.13.36-1.9,1.03-2.77.67-.87.62-1.59.36-2.56-.36-1.28-.15-2.51.05-3.85.21-1.33.41-2.56.62-3.8.41-2.36.92-4.82,1.03-7.23.05-2.21-.56-4.1-1.49-6.1-.92-2-1.9-4.16-1.54-6.46.21-1.13.56-2.21.82-3.33.26-1.13.41-2.26.26-3.44-.26-2.26-1.54-4.16-1.95-6.36-.46-2.62,1.49-4.36,2.31-6.67.56-1.59.51-3.74-1.03-4.72-.27-.23-.58.29-.22.54h0Z"/>
        <path class="cls-1" d="m13.17,24.73c-.1,4.46-.21,8.93-.26,13.39l-.15,6.72c0,1.08-.05,2.21-.05,3.33,0,1.03-.05,2.1.15,3.13.21.92.67,1.8,1.03,2.67.36.92.46,1.95.31,2.92-.26,2.05-1.33,3.85-2.26,5.64-.56,1.13-1.54,2.77-.72,4.05.41.62,1.08.67,1.69.97.62.31.36.92.26,1.49-.15.56-.31,1.13-.46,1.74-.31,1.23-.62,2.46-.92,3.69-.26,1.08-.41,2.41-1.03,3.33-.51.87-1.44,1.44-2,2.31-.56.87-.92,1.8-1.03,2.82-.05.41.56.56.62.15.15-.97.46-1.95,1.03-2.77.51-.72,1.23-1.28,1.74-2,.56-.77.72-1.74.97-2.67.26-1.08.56-2.1.82-3.18s.56-2.21.87-3.33c.15-.67.41-1.44-.21-1.95-.56-.46-1.54-.36-1.9-1.08-.41-.77.05-1.74.36-2.46.82-1.74,1.85-3.44,2.41-5.28s.46-3.44-.26-5.13c-.46-1.08-.87-2-.92-3.18-.05-1.08,0-2.15.05-3.23l.15-6.72c.1-5.08.21-10.21.31-15.29.07-.49-.6-.49-.6-.08h0Z"/>
        <path class="cls-2" d="m8.87,26.12c-1.33,2.15-1.64,4.82-.82,7.23.46,1.33,1.13,2.62,1.23,4.05s-.72,2.31-1.49,3.39c-1.64,2.36-.82,4.98-.56,7.64.31,2.98.1,6.05-.21,9.03-.15,1.69-.67,3.18-1.23,4.77-.41,1.23-.67,2.56.05,3.74.21.36.77.05.56-.31-.77-1.23-.21-2.67.26-3.9.46-1.23.82-2.41.97-3.74.36-2.82.51-5.8.31-8.67-.15-2.62-1.33-5.64.21-8.05.62-.92,1.44-1.74,1.64-2.87.26-1.18-.05-2.36-.46-3.49-.51-1.44-1.13-2.77-1.13-4.31s.41-3.03,1.18-4.31c.25-.25-.31-.56-.51-.2h0Z"/>
        <path class="cls-1" d="m17.12,24.07c.56,1.95.92,3.95.97,6s-.36,4.1-.41,6.16c-.05,2.05.56,3.8.92,5.75s.31,4.05.41,6.05.51,3.9.82,5.85c.31,2.15.1,4.26-.21,6.41-.26,1.9-.51,3.8-.46,5.75.05,2.1.21,4.21-.1,6.31-.26,2-.56,3.9.56,5.69.51.82,1.18,1.54,1.44,2.46.26.82.15,1.85-.67,2.26-.36.21-.05.77.31.56,1.18-.62,1.28-2.15.87-3.28-.31-.77-.82-1.39-1.23-2.05-.56-.87-.92-1.8-.92-2.87s.21-2,.31-2.98.15-2.05.15-3.08c-.05-2.15-.15-4.31.05-6.46.26-2.15.62-4.16.67-6.26.05-2.1-.46-4.05-.77-6.05-.31-2.1-.21-4.26-.36-6.41-.15-2.15-.87-4.05-1.08-6.1-.26-2.36.31-4.72.36-7.08.05-2.36-.31-4.57-.97-6.77-.14-.43-.76-.27-.66.14h0Z"/>
        <path class="cls-1" d="m15.64,23.81c-.26,4.21-.05,8.41.67,12.52.36,2.1.87,4.26,1.49,6.31.31,1.03.67,2,1.03,3.03.21.46.36.97.56,1.44.26.67.36,1.18-.21,1.74-1.23,1.23-2.21,2.62-2.62,4.36s-.26,3.49.36,5.23c.77,2.05,1.39,3.95,1.59,6.1.21,2.15.1,4.31,0,6.46-.26,5.13-.51,10.31-.82,15.44,0,.41.62.41.62,0,.26-4.57.46-9.13.72-13.7.21-4.21.62-8.57-.82-12.62-.67-1.9-1.54-3.64-1.28-5.75.26-1.9,1.18-3.59,2.56-4.92.56-.56.97-1.13.72-2-.31-1.03-.77-1.95-1.13-2.98-.72-2.05-1.28-4.1-1.74-6.21-1.04-4.7-1.34-9.58-1.04-14.45,0-.41-.66-.41-.66,0h0Z"/>
        <path class="cls-1" d="m13.12,23.4c-1.23,1.28-2.56,2.62-3.08,4.41-.56,1.9-.1,3.9.26,5.85.77,4.41,1.13,8.87,1.08,13.34,0,2.26-.15,4.46-.36,6.67-.15,1.64-.05,3.08,1.44,4.05.77.46,1.59.82,1.8,1.8.21,1.13.1,2.36.1,3.49.05,2.31.1,4.62.15,6.93.1,5.18.21,10.31.31,15.49,0,.41.67.41.62,0-.1-4.46-.21-8.98-.26-13.44-.05-2.21-.1-4.46-.15-6.67,0-1.13-.05-2.31-.05-3.44,0-.92.1-2.05-.21-2.92-.56-1.54-2.67-1.54-3.08-3.18-.21-.92-.05-1.85.05-2.77.1-1.13.15-2.21.21-3.33.21-4.36,0-8.67-.56-12.98-.15-1.13-.31-2.26-.51-3.39s-.46-2.31-.46-3.54c0-2.46,1.54-4.21,3.18-5.85.24-.37-.22-.83-.48-.52h0Z"/>
        <path class="cls-1" d="m9.48,24.32c-.41,1.64-1.03,3.18-1.54,4.77s-.87,3.18-1.18,4.82c-.56,3.23-.77,6.52-.72,9.8.05,3.28.31,6.67.62,10,.15,1.74.36,3.54.56,5.28.1.82.21,1.69.31,2.51s.15,1.69.36,2.51c.21.72.62,1.03,1.08,1.54.72.77.31,2.05.15,2.98-.26,2-.51,4.05-.77,6.05-.05.41.56.41.62,0,.21-1.74.46-3.54.67-5.28.15-1.33.77-3.08-.26-4.21-.21-.26-.51-.46-.72-.77-.21-.36-.26-.77-.31-1.18-.15-.92-.26-1.85-.36-2.82-.21-1.74-.41-3.44-.62-5.18-.72-6.62-1.23-13.34-.31-19.96.26-1.8.62-3.59,1.13-5.34.56-1.85,1.28-3.59,1.74-5.49.27-.28-.35-.44-.45-.03h0Z"/>
      </g>
      <g>
        <path class="cls-1" d="m81.25,12.73c-4.1,3.33-2.56,9.13-2.26,13.59.21,2.56-.1,5.03-1.54,7.18-.56.87-1.18,1.8-1.23,2.87-.05,1.03.46,1.9,1.03,2.67.67.97,1.39,1.85,1.74,3.03.36,1.18.36,2.41.31,3.59-.21,2.46-1.08,4.98-.41,7.44s2.15,4.57,2.46,7.13-.31,5.39-1.13,7.9c-.46,1.44-1.03,2.82-1.54,4.26-.46,1.28-1.03,2.62-.82,4,.15,1.08.77,2,1.69,2.62.46.31.92.46,1.49.56.41.05,1.33.15,1.28.72-.05.41.62.41.62,0,.1-.77-.67-1.13-1.33-1.28-1.08-.26-2-.46-2.67-1.49-.77-1.18-.51-2.62-.05-3.9s.92-2.46,1.33-3.69c.87-2.41,1.64-4.92,1.8-7.49s-.51-4.62-1.49-6.87c-.51-1.13-1.03-2.31-1.23-3.54-.21-1.39.1-2.77.31-4.1.36-2.21.62-4.57-.26-6.72-.77-2-3.28-3.69-2.26-6,.46-1.03,1.23-1.9,1.74-2.98.51-1.08.67-2.1.77-3.23.46-5.08-2.72-12.16,2.05-16.01.37-.06-.09-.52-.4-.26h0Z"/>
        <path class="cls-1" d="m78.89,14.94c-1.54,1.54-2.46,3.64-2.41,5.8.05,1.23.36,2.41.41,3.64.05,1.44-.46,2.41-1.33,3.44-.67.77-1.33,1.59-1.44,2.62-.15,1.18.56,1.85,1.28,2.67,1.74,1.95,1.95,4.51,1.13,6.93-.46,1.28-.92,2.51-1.13,3.85-.21,1.23-.21,2.51-.05,3.74.26,2.56,1.03,5.03,1.85,7.44.41,1.23.87,2.46,1.28,3.69s.97,2.67.97,4.05c.05,1.28-1.03,2.26-1.39,3.44-.36,1.08-.41,2.21-.36,3.33.1,1.39.41,2.72.67,4.05.31,1.54.51,3.03.36,4.62-.15,2.51-.56,5.44,1.54,7.34.31.26.77-.15.46-.46-1.95-1.74-1.49-4.57-1.33-6.87.15-2.56-.56-4.92-.92-7.49-.21-1.23-.26-2.46,0-3.64s1.03-2.1,1.44-3.23,0-2.31-.26-3.33c-.31-1.23-.72-2.41-1.13-3.64-1.64-4.77-3.69-10-1.95-15.03.41-1.13.92-2.26,1.08-3.49.15-1.03.05-2.05-.26-3.03-.31-.97-.77-1.85-1.44-2.62-.41-.46-.92-.82-1.13-1.44-.26-.67,0-1.33.36-1.95.62-1.03,1.59-1.8,2.05-2.87.46-1.08.31-2.41.1-3.59-.21-1.39-.36-2.67-.05-4.05s1.03-2.46,2-3.44c.32-.33-.14-.79-.4-.48h0Z"/>
        <path class="cls-2" d="m83.71,14.01c1.64,3.8,2.05,8.11,1.08,12.11-.46,2-1.33,3.9-1.13,5.95.21,1.9,1.03,3.59,1.8,5.28,1.64,3.85,3.08,8.16,1.95,12.36-.56,2.05-1.54,3.95-2.36,5.9-.41.97-.77,2-1.18,2.98s-.82,2.05-1.03,3.13c-.41,2.15,1.18,3.85,1.85,5.8.77,2.21.92,4.57.46,6.82-.1.41.51.56.62.15.36-1.9.36-3.8-.05-5.69-.21-.92-.51-1.85-.92-2.72-.41-.87-1.03-1.74-1.33-2.72-.31-1.13.15-2.26.51-3.33.36-1.08.77-2.1,1.18-3.13.77-2,1.8-3.95,2.51-6,1.39-4,.62-8.11-.87-11.95-.72-1.95-1.8-3.74-2.26-5.75-.56-2.31.21-4.31.77-6.46,1.13-4.31.77-8.93-1.03-13.03-.21-.36-.72-.06-.57.3h0Z"/>
        <path class="cls-1" d="m82.22,13.96c1.69,1.08,1.08,3.49.31,4.98-.92,1.74-2.15,3.39-1.95,5.44.21,2.05,1.49,4,1.85,6.1.26,1.23.21,2.51-.1,3.74-.26,1.08-.62,2.1-.82,3.23-.41,2,.05,3.85.82,5.69.82,2,1.85,3.9,2.05,6.05.21,2.41-.41,4.87-.77,7.28-.21,1.23-.41,2.46-.62,3.69-.21,1.08-.41,2.21-.46,3.33-.05.62,0,1.23.15,1.85.21.77.41,1.39-.05,2.05-.62.82-1.08,1.49-1.23,2.56-.26,2.15.67,4.31.1,6.46-.1.41.51.56.62.15.51-1.95-.15-3.9-.15-5.85,0-1.13.36-1.9,1.03-2.77s.62-1.59.36-2.56c-.36-1.28-.15-2.51.05-3.85s.41-2.56.62-3.8c.41-2.36.92-4.82,1.03-7.23.05-2.21-.56-4.1-1.49-6.1-.92-2-1.9-4.16-1.54-6.46.21-1.13.56-2.21.82-3.33s.41-2.26.26-3.44c-.26-2.26-1.54-4.16-1.95-6.36-.46-2.62,1.49-4.36,2.31-6.67.56-1.59.51-3.74-1.03-4.72-.22-.23-.52.34-.22.54h0Z"/>
        <path class="cls-1" d="m81.25,15.19c-.1,4.46-.21,8.93-.26,13.39l-.15,6.72c0,1.08-.05,2.21-.05,3.33,0,1.03-.05,2.1.15,3.13.21.92.72,1.8,1.03,2.67.36.92.46,1.95.31,2.92-.26,2.05-1.33,3.85-2.26,5.64-.56,1.13-1.54,2.77-.72,4.05.41.62,1.08.67,1.69.97.62.31.36.92.26,1.49-.15.56-.31,1.13-.46,1.74-.31,1.23-.62,2.46-.92,3.69-.26,1.08-.41,2.41-1.03,3.33-.51.87-1.44,1.44-2,2.31-.56.87-.92,1.8-1.03,2.82-.05.41.56.56.62.15.15-.97.46-1.95,1.03-2.77.51-.72,1.23-1.28,1.74-2,.56-.77.72-1.74.97-2.67.26-1.08.56-2.15.82-3.18s.56-2.21.82-3.33c.15-.67.41-1.44-.21-1.95-.51-.46-1.54-.36-1.9-1.08-.41-.77.05-1.74.36-2.46.82-1.74,1.85-3.44,2.41-5.28s.46-3.44-.26-5.13c-.46-1.08-.87-2-.92-3.18-.05-1.08,0-2.15,0-3.23l.15-6.72c.1-5.08.21-10.21.31-15.29.11-.49-.5-.49-.5-.08h0Z"/>
        <path class="cls-2" d="m76.94,16.53c-1.33,2.15-1.64,4.82-.82,7.23.46,1.33,1.13,2.62,1.23,4.05.1,1.44-.72,2.31-1.49,3.39-1.64,2.36-.82,4.98-.56,7.64.31,2.98.1,6.05-.21,9.03-.15,1.69-.67,3.18-1.23,4.77-.41,1.23-.67,2.56.05,3.74.21.36.77.05.56-.31-.77-1.23-.21-2.67.26-3.9.46-1.23.82-2.41.97-3.74.36-2.82.51-5.8.31-8.67-.15-2.62-1.33-5.64.21-8.05.62-.92,1.44-1.74,1.64-2.87.26-1.18-.05-2.36-.46-3.49-.51-1.44-1.13-2.77-1.13-4.31s.41-3.03,1.18-4.31c.26-.2-.3-.56-.51-.2h0Z"/>
        <path class="cls-1" d="m85.2,14.52c.56,1.95.92,3.95.97,6s-.36,4.1-.41,6.16c-.05,2.05.56,3.8.92,5.75s.31,4.05.41,6.05c.1,2,.51,3.9.82,5.85.31,2.15.1,4.26-.21,6.41-.26,1.9-.51,3.8-.46,5.75.05,2.1.21,4.21-.1,6.31-.26,2-.56,3.9.56,5.69.51.82,1.18,1.54,1.44,2.46.26.82.15,1.85-.67,2.26-.36.21-.05.77.31.56,1.18-.62,1.28-2.15.87-3.28-.31-.77-.82-1.39-1.23-2.05-.56-.87-.92-1.8-.92-2.87s.21-2,.31-2.98.15-2.05.15-3.08c-.05-2.15-.15-4.31.05-6.46.21-2.15.62-4.16.67-6.26.05-2.1-.46-4.05-.77-6.05-.31-2.1-.21-4.26-.36-6.41s-.87-4.05-1.08-6.1c-.26-2.36.31-4.72.36-7.08s-.31-4.57-.97-6.77c-.2-.42-.81-.27-.66.14h0Z"/>
        <path class="cls-1" d="m83.66,14.27c-.26,4.21-.05,8.41.67,12.52.36,2.1.87,4.26,1.49,6.31.31,1.03.67,2,1.03,3.03.21.46.36.97.56,1.44.26.67.36,1.18-.21,1.74-1.23,1.23-2.21,2.62-2.62,4.36s-.26,3.49.36,5.23c.77,2.05,1.39,3.95,1.59,6.1.21,2.15.1,4.31,0,6.46-.26,5.13-.51,10.31-.82,15.44,0,.41.62.41.62,0,.26-4.57.46-9.13.72-13.7.21-4.21.62-8.57-.82-12.62-.67-1.9-1.54-3.64-1.28-5.75.26-1.9,1.18-3.59,2.56-4.92.56-.56.97-1.13.72-2-.31-1.03-.77-1.95-1.13-2.98-.72-2.05-1.28-4.1-1.74-6.21-1.03-4.72-1.33-9.59-1.03-14.47,0-.39-.62-.39-.67.02h0Z"/>
        <path class="cls-1" d="m81.15,13.81c-1.23,1.28-2.56,2.62-3.08,4.41-.56,1.9-.1,3.9.26,5.85.77,4.41,1.13,8.87,1.08,13.34,0,2.26-.15,4.46-.36,6.67-.15,1.64-.05,3.08,1.44,4.05.77.46,1.59.82,1.8,1.8.21,1.13.1,2.36.1,3.49.05,2.31.1,4.62.15,6.93.1,5.18.21,10.31.31,15.49,0,.41.67.41.62,0-.1-4.46-.21-8.98-.26-13.44-.05-2.21-.1-4.46-.15-6.67,0-1.13-.05-2.31-.05-3.44,0-.92.1-2.05-.21-2.92-.56-1.54-2.67-1.54-3.08-3.18-.21-.92,0-1.85.05-2.77.1-1.13.15-2.21.21-3.33.21-4.36,0-8.67-.56-12.98-.15-1.13-.31-2.26-.51-3.39s-.46-2.31-.46-3.54c0-2.46,1.54-4.21,3.13-5.85.34-.37-.13-.83-.43-.52h0Z"/>
        <path class="cls-1" d="m77.56,14.73c-.41,1.64-1.03,3.18-1.54,4.77s-.87,3.18-1.18,4.82c-.56,3.23-.77,6.52-.72,9.8.05,3.28.31,6.67.62,10,.15,1.74.36,3.54.56,5.28.1.82.21,1.69.31,2.51s.15,1.69.36,2.51c.21.72.62,1.03,1.08,1.54.72.77.31,2.05.15,2.98-.26,2-.51,4.05-.77,6.05-.05.41.56.41.62,0,.21-1.74.46-3.54.67-5.28.15-1.33.77-3.08-.26-4.21-.26-.26-.51-.46-.72-.77-.21-.36-.26-.77-.31-1.18-.15-.92-.26-1.85-.36-2.82-.21-1.74-.41-3.44-.62-5.18-.72-6.62-1.23-13.34-.26-19.96.26-1.8.62-3.59,1.13-5.34.56-1.85,1.28-3.59,1.74-5.49.21-.24-.4-.39-.5-.03h0Z"/>
      </g>
      <path class="cls-1" d="m96.13,26.27c.36-.67,1.18-.67,1.85-.77.72-.1,1.39-.67,2.1-.51.67.15,1.18.62,1.8.87.26.15,1.95.51,1.49,1.08-.26.31.21.77.46.46.56-.62.05-1.44-.62-1.69-.46-.21-.97-.31-1.39-.56-.41-.21-.77-.46-1.18-.62-.41-.15-.82-.21-1.23-.1-.51.1-.92.36-1.44.46-.87.21-1.9.21-2.36,1.08-.25.35.31.66.52.3h0Z"/>
      <path class="cls-1" d="m87.82,27.5c.26-.05.46-.1.72-.1.21,0,.41.05.62.05s.36-.05.56-.1c.21-.05.46-.05.67-.05.77,0,1.59-.05,2.26.46.31.26.67-.31.31-.56-.72-.51-1.64-.56-2.51-.51-.26,0-.46,0-.67.05s-.41.1-.67.1-.46-.05-.72-.05-.51.05-.72.1c-.42.1-.27.72.15.61h0Z"/>
      <path class="cls-1" d="m77.86,15.29c.62-1.13,2.05-1.69,3.28-1.9.87-.15,1.59.26,2.36.56.67.31,1.44.51,1.9,1.08.26.31.72-.15.46-.46-.56-.62-1.44-.87-2.21-1.23-.82-.36-1.64-.77-2.56-.62-1.44.26-3.08.92-3.8,2.26-.2.37.37.72.57.31h0Z"/>
      <path class="cls-1" d="m70.89,17.86c-2.1-1.33-4.67-1.18-7.08-1.03-.41,0-.41.67,0,.62,2.31-.15,4.72-.31,6.77.97.36.21.67-.36.31-.56h0Z"/>
      <path class="cls-1" d="m54.06,16.53c1.13-1.13,2.77-1.85,4.36-1.49.72.15,1.44.51,1.95,1.08.46.51.77,1.13,1.44,1.39.36.15.56-.46.15-.62s-.62-.56-.87-.87c-.26-.31-.51-.56-.82-.82-.62-.51-1.39-.77-2.21-.87-1.69-.21-3.33.56-4.57,1.74-.2.25.26.71.57.46h0Z"/>
      <path class="cls-1" d="m43.13,2.78c.97-.82,2.15-1.49,3.39-1.85s2.72-.51,3.64.51c.26.31.72-.15.46-.46-1.03-1.13-2.62-1.13-4-.77-1.44.41-2.77,1.13-3.9,2.1-.36.31.11.78.41.47h0Z"/>
      <path class="cls-1" d="m35.13,13.35c.36-.67.72-1.33,1.39-1.64s1.59-.51,2.41-.62c.36-.05.77-.1,1.08-.05s.56.36.82.56c.36.26,1.9.51,1.54,1.18-.21.36.36.67.56.31.46-.77-.31-1.44-.97-1.74-.26-.1-.51-.15-.72-.31-.21-.1-.31-.26-.51-.41-.36-.26-.77-.31-1.23-.26-1.03.05-2.1.26-3.08.67-.97.41-1.44,1.13-1.9,2-.16.36.41.66.61.31h0Z"/>
      <path class="cls-1" d="m29.18,13.96c-.56-.1-1.13-.1-1.74-.1-.51,0-1.13,0-1.64.15s-1.03.51-1.49.77c-.51.31-1.08.56-1.59.87-.36.21-.05.77.31.56.46-.26.92-.51,1.39-.77.46-.26.92-.56,1.44-.77.51-.21,1.03-.15,1.54-.15s1.08,0,1.59.1c.45.01.6-.61.19-.66h0Z"/>
      <path class="cls-1" d="m10.04,24.99c-.26-.72.72-1.23,1.23-1.49.62-.41,1.33-.72,2.1-.67s1.49.46,2.15.72c.36.15.67.31,1.03.46.31.15.67.26.87.56.26.31.77,0,.56-.31-.51-.72-1.54-.97-2.36-1.33-.87-.36-1.74-.82-2.67-.72s-1.74.51-2.51,1.03c-.62.41-1.39,1.08-1.08,1.9.22.36.84.21.68-.15h0Z"/>
      <path class="cls-1" d="m13.79,24.89c.15-.56.15-1.13.05-1.74,0-.05-.1-.15-.15-.21-.05-.05-.15-.05-.26-.05-.21.05-.26.21-.21.41,0-.05,0,.05,0,.05v.98s0-.05,0,.05-.05.26-.05.36c-.05.15.05.36.21.41.15.05.36-.06.41-.26h0Z"/>
      <path class="cls-1" d="m9.07,48.33c.46-.31,1.08,0,1.59,0,.62,0,1.18-.21,1.8-.15.62.05,1.23.21,1.85.36.51.15,1.03.31,1.39.77.26.31.72-.15.46-.46-.41-.46-.92-.67-1.49-.87-.67-.21-1.39-.41-2.05-.46-.67-.05-1.39.26-2.1.15-.56-.05-1.18-.26-1.74.1-.38.25-.07.82.29.56h0Z"/>
      <path class="cls-1" d="m59.55,119.13c.56-1.39.05-2.87.41-4.31.36-1.44,1.28-2.62,1.59-4.1.31-1.49.15-2.82.05-4.31s.21-3.28,1.74-3.95c.21-.1.05-.41-.21-.31-2.87,1.28-1.59,5.23-1.85,7.64-.15,1.69-1.03,2.98-1.59,4.51-.26.72-.31,1.44-.31,2.21,0,.87.1,1.69-.26,2.51-.03.26.33.36.43.11h0Z"/>
      <path class="cls-1" d="m66.42,106.35c1.08-1.59,1.95-3.33,2.62-5.13.36-.92.67-1.9,1.39-2.56.62-.56,1.39-.92,2.1-1.23,1.44-.62,2.72-1.23,3.54-2.62s1.08-3.03,1.28-4.57c.05-.26-.36-.36-.36-.1-.21,1.59-.46,3.33-1.39,4.72-.97,1.49-2.62,1.9-4.1,2.62-.62.31-1.23.72-1.69,1.23-.51.56-.77,1.33-1.03,2-.72,1.9-1.64,3.74-2.77,5.44-.05.2.26.41.41.2h0Z"/>
      <path class="cls-1" d="m65.96,115.94c-.41,1.39.1,2.77.62,4,.56,1.33,1.23,2.87.62,4.31-.1.21.26.41.31.21,1.33-2.92-2.05-5.49-1.18-8.41.09-.21-.32-.31-.37-.11h0Z"/>
    </g>
  </g>
</svg>