<?xml version="1.0" encoding="UTF-8"?>
<svg id="Calque_2" data-name="Calque 2" xmlns="http://www.w3.org/2000/svg" viewBox="0 0 35.18 40.01">
  <defs>
    <style>
      .cls-1 {
        fill: #57523b;
      }
    </style>
  </defs>
  <g id="Calque_1-2" data-name="Calque 1">
    <path class="cls-1" d="m15.08,40.01l.75-25.19L.1,21.01c-.72-2.15,2.46-5.36,7.18-7.21,1.81-.71,3.65-1.15,5.32-1.25l.46-.03L.01,7.5c.48-1.08,1.99-1.7,4.16-1.7,1.81,0,3.94.44,6,1.23,1.41.54,2.75,1.24,3.88,2.01l.29.2L10.28.09c.17-.06.35-.09.55-.09,1.7,0,3.97,2.34,5.41,5.57.85,1.9,1.29,3.9,1.23,5.47v.12l.21-.03v-.09c-.05-1.57.39-3.56,1.24-5.47,1.43-3.23,3.71-5.57,5.41-5.57.19,0,.38.03.55.09l-4.07,9.17.29-.2c1.14-.78,2.49-1.49,3.91-2.04,2.07-.79,4.2-1.23,6-1.23,2.17,0,3.68.62,4.16,1.7l-13.05,5.02.46.03c1.67.11,3.51.54,5.32,1.25,4.71,1.85,7.89,5.06,7.18,7.21l-16.03-6.31,1.03,25.32h-5Zm2.41-26.21l-.02.14.14-.02.09-.02v-.09s-.11-.96-.11-.96l-.1.95h0Z"/>
  </g>
</svg>