<?xml version="1.0" encoding="UTF-8"?>
<svg id="Calque_2" data-name="Calque 2" xmlns="http://www.w3.org/2000/svg" viewBox="0 0 97.36 128.02">
  <defs>
    <style>
      .cls-1 {
        fill: #fe76b8;
      }
    </style>
  </defs>
  <g id="Calque_1-2" data-name="Calque 1">
    <path class="cls-1" d="m82.53,2.24s-34.18-10.7-36.58,14.68c0,0-12.78-16.23-28.13-.85,0,0-8.8-.85-10.38,10,0,0-5.18,17.78,8.8,18.3,0,0-9.83,12.6,6.23,14.85,0,0-4.65,3.1-.18,8.63,4.48,5.53,12.78,0,12.78,0,0,0,7.08-1.9,5.18,11.05,0,0-9.15-4.65-11.73,3.28s3.28,11.55,5,11.73c0,0-2.93,1.9-1.9,4.48,0,0-4.65,1.4-3.8,5.18,0,0-21.75-5.35-20.35,15.53,0,0-8.13,2.08-7.43,5.18,0,0,8.63-.18,18.3,2.75s11.9-1.55,11.9-1.55c0,0-23.13-1.23-21.75-3.28,1.4-2.08,4.65-1.9,6.4-2.25s2.93-1.73,6.55-2.25c3.63-.53,17.6-.85,20.53.68,0,0-6.73,4.33-22.78,4.33,0,0,14.68,4.48,32.43-2.58,0,0,7.25-2.75-4.48-3.8-11.73-1.03-10.38-2.75-10.38-2.75,0,0,9.33,0,10.38.68,0,0-3.45-4.48-17.1-5.18,0,0,6.23-.35,6.9-2.25.68-1.9-1.03-4.65-1.03-4.65,0,0,1.03-5,3.8-2.43,0,0,5.18,5.35,4.48-.35,0,0-2.58-1.9-1.55-3.1l1.04-1.25s1.9-.35,2.08,2.75,13.13,4.15,10.7-5.53c0,0-5.88-7.43-2.08-13.13,0,0,5.7,16.93,18.13,12.6s8.13-11.55,5-15.88c0,0,19.85,7.58,19.85-15.38,0,0-.35-16.73-8.63-16.38,0,0,5.53-8.63-3.8-10.38,0,0,16.05-3.8,9.65-18.3-6.35-14.41-12.05-13.18-12.05-13.18h0Z"/>
  </g>
</svg>