<?xml version="1.0" encoding="UTF-8"?>
<svg id="Calque_2" data-name="Calque 2" xmlns="http://www.w3.org/2000/svg" viewBox="0 0 30.39 40.09">
  <defs>
    <style>
      .cls-1 {
        fill: #57523b;
        stroke: #000;
        stroke-miterlimit: 10;
        stroke-width: .1px;
      }
    </style>
  </defs>
  <g id="Calque_1-2" data-name="Calque 1">
    <path class="cls-1" d="m27.63,18.29c-1.33-1.02-1.64-1.44-1.16-1.63,4-1.53,1.86-9.56-2.76-10.34-1.52-.25-1.73-.44-1.98-1.74C21.13,1.36,18.02-.12,15.2.08c-.13,0-.26-.02-.39-.03-2.71-.04-5.56,1.45-6.14,4.53-.24,1.3-.45,1.72-1.99,1.74-4.74.08-6.76,7.05-2.75,10.34.4.33.17.61-1.17,1.63-6.8,5.17.53,15.5,7.48,10.54,1.02-.73,1.18-.74,1.41-.14.48,1.26.27,7.34-.34,9.35l-.61,2h8.95l-.59-2c-.61-2.01-.83-8.08-.35-9.35.23-.6.39-.59,1.41.14,6.99,4.97,14.31-5.35,7.51-10.54h0Z"/>
  </g>
</svg>