<?xml version="1.0" encoding="UTF-8"?>
<svg id="Calque_2" data-name="Calque 2" xmlns="http://www.w3.org/2000/svg" viewBox="0 0 75.2 100.01">
  <defs>
    <style>
      .cls-1 {
        fill: #fe76b8;
      }
    </style>
  </defs>
  <g id="Calque_1-2" data-name="Calque 1">
    <path class="cls-1" d="m46.36,97.25s-25.35,6.2-31.23,0c0,0-7.96-14.73,8.26-53.04,0,0-5.72-7.15-13.98-13.81C1.68,24.17-4.04,7.36,3.61,0c0,0-1.03,9.04,11.92,14.91,11.75,5.35,13.71,7.78,14.89,16.01,0,0,.85-11.22,21.76-9.46,0,0,14.76,3.59,23.02-10.29,0,0-3.24,23.27-22.69,27.99s-16.79,3.54-22.39,6.48c.03.03-5.57,15.94,16.24,51.61h0Z"/>
  </g>
</svg>