<?xml version="1.0" encoding="UTF-8"?>
<svg id="Calque_2" data-name="Calque 2" xmlns="http://www.w3.org/2000/svg" viewBox="0 0 100 100">
  <defs>
    <style>
      .cls-1 {
        fill: #9c936d;
      }

      .cls-2 {
        fill-rule: evenodd;
      }
    </style>
  </defs>
  <g id="Calque_1-2" data-name="Calque 1">
    <circle class="cls-1" cx="50" cy="50" r="50"/>
    <path class="cls-2" d="m27.62,77.72l-1.08-1.08c13.3-15.86,27.35-22.01,38.69-31.92,11.53-10.09,12.13-11.29,13.49-12.65,3.21-3.21,3.4-8.24.42-11.22-2.98-2.98-8.01-2.79-11.22.42-1.38,1.36-2.57,1.96-12.66,13.49-9.91,11.36-17.43,25.36-31.99,38.64l-1.08-1.08c-.53-.53-1.69-.23-2.59.67-.9.9-1.2,2.05-.65,2.59l5.4,5.4c.53.53,1.69.25,2.59-.65.9-.93,1.22-2.1.67-2.63h0Z"/>
  </g>
</svg>