<?xml version="1.0" encoding="UTF-8"?>
<svg id="Calque_2" data-name="Calque 2" xmlns="http://www.w3.org/2000/svg" viewBox="0 0 100 100">
  <defs>
    <style>
      .cls-1 {
        fill: #e8629f;
      }
    </style>
  </defs>
  <g id="Calque_1-2" data-name="Calque 1">
    <circle class="cls-1" cx="50" cy="50" r="50"/>
    <path d="m27.72,61.45c1.9-1.27,3.17-3.17,3.17-5.1,0-2.54-1.27-4.46-3.81-5.73v-7.64l22.91,10.18,34.99-15.91-34.99-15.91-35.01,15.93,7.64,3.17v10.18c-2.54,1.27-3.81,3.17-3.81,5.73,0,1.9,1.27,3.81,3.17,5.1l-3.17,10.81c-1.9,6.37,3.17,6.37,3.17,6.37h6.37s5.1,0,3.17-6.37l-3.81-10.81Z"/>
    <path d="m37.27,54.44v1.9c0,2.54-1.27,5.1-2.54,7,1.27,2.54,2.54,5.1,2.54,8.91v3.81c3.17,1.27,7.64,2.54,12.73,2.54,15.91,0,22.28-9.54,22.28-9.54v-19.07l-22.28,10.18-12.73-5.73Z"/>
  </g>
</svg>