<?xml version="1.0" encoding="UTF-8"?>
<svg id="Calque_2" data-name="Calque 2" xmlns="http://www.w3.org/2000/svg" viewBox="0 0 100 100">
  <defs>
    <style>
      .cls-1 {
        fill: #9c936d;
      }
    </style>
  </defs>
  <g id="Calque_1-2" data-name="Calque 1">
    <circle class="cls-1" cx="50" cy="50" r="50"/>
    <path d="m71.75,46.91c-2.35-1.78-2.86-2.52-2.03-2.84,7.02-2.7,3.26-16.74-4.85-18.1-2.66-.44-3.03-.78-3.46-3.05-1.06-5.63-6.49-8.22-11.43-7.87-.23-.02-.46-.04-.69-.05-4.74-.09-9.74,2.54-10.74,7.92-.42,2.28-.78,3.02-3.47,3.05-8.31.14-11.83,12.35-4.81,18.1.69.56.3,1.06-2.05,2.84-11.9,9.05.92,27.13,13.09,18.45,1.78-1.27,2.06-1.29,2.47-.23.85,2.2.48,12.84-.58,16.35l-1.06,3.51h15.68l-1.02-3.51c-1.06-3.53-1.46-14.14-.62-16.35.41-1.04.69-1.04,2.47.23,12.19,8.68,25.01-9.4,13.1-18.45h0Z"/>
  </g>
</svg>