<?xml version="1.0" encoding="UTF-8"?>
<svg id="Calque_2" data-name="Calque 2" xmlns="http://www.w3.org/2000/svg" viewBox="0 0 100 100">
  <defs>
    <style>
      .cls-1 {
        fill: #e8629f;
      }
    </style>
  </defs>
  <g id="Calque_1-2" data-name="Calque 1">
    <circle class="cls-1" cx="50" cy="50" r="50"/>
    <path d="m28.05,28.05l-10.55,10.55,5.07,5.07,5.07,5.07.11-.11c.14-.14.56-.14.67,0,.06.08,1.03.14,4.15.27l4.07.17.35.75c.41.89,1.93,3.9,2.55,5.09,1.23,2.35,2.85,5.19,4.07,7.14,2.93,4.69,5.2,7.56,8.26,10.46,2.63,2.48,4.76,4.15,7.53,5.89.06.03.1.11.09.18-.02.2.16.32.35.24.14-.06.21-.05.49.12.91.53,3.03,1.53,3.69,1.74.2.06.23.09.22.18,0,.06.02.14.06.18.08.08.32.08.41-.01.04-.04.31.01.72.14.86.26,1.65.45,2.49.59.73.13,2.19.27,2.65.26.27,0,.29,0,.55.26.31.31.32.31.69-.06.24-.24.26-.25.78-.31,1.87-.21,3.85-.9,5.41-1.88.63-.4,1.51-1.26,1.9-1.86,1.05-1.62,1.71-3.44,1.96-5.41l.08-.66.27-.27c.16-.16.27-.31.27-.37s-.11-.2-.24-.34l-.24-.25-.04-.72c-.08-1.67-.37-3.27-.86-4.77-.15-.46-.16-.58-.09-.69.12-.17.06-.34-.13-.4-.13-.04-.18-.13-.46-.83-.29-.73-1.04-2.24-1.49-3.07-.16-.29-.19-.39-.15-.55.06-.22-.05-.37-.23-.32-.1.02-.14,0-.21-.13-.17-.32-.97-1.52-1.46-2.21-2.23-3.13-5.44-6.61-8.11-8.78-2.7-2.2-5.39-4.01-9.81-6.59-2.09-1.22-5.72-3.13-8.81-4.63l-1.09-.53-.04-.9c-.02-.49-.1-2.32-.17-4.06-.09-2.22-.16-3.19-.22-3.23-.13-.11-.15-.51-.02-.68l.1-.14-5.04-5.07-5.05-5.07-10.55,10.55Z"/>
  </g>
</svg>