<?xml version="1.0" encoding="UTF-8"?>
<svg id="Calque_2" data-name="Calque 2" xmlns="http://www.w3.org/2000/svg" viewBox="0 0 100 100">
  <defs>
    <style>
      .cls-1 {
        fill: #9c936d;
      }
    </style>
  </defs>
  <g id="Calque_1-2" data-name="Calque 1">
    <circle class="cls-1" cx="50" cy="50" r="50"/>
    <path d="m36.37,15.47C14.51,23.63,6.54,38.22,17.16,48.48c1.13,1.09,2.2,2.17,3.23,3.23l6.16,6.16c.63.63,1.11,2.22.25,2.98-1.01.86-2.56.23-3.19-.39l-2.17-2.19c-1.48,2.59-1.82,5.73-.09,9.4,3.28,6.97,14.2,10.32,21.64,8.36,1.68-.44,6-1.43,9.47-.44l9.52,9.49c1.94,1.94,5.06,1.94,7,0l17.05-17.05c1.94-1.94,1.94-5.06,0-7l-11.62-11.62c.23-2.33-.04-4.85-.93-7.57-7.2-22.2-18.82-33.21-37.11-26.37Zm42.24,46.88l-14.87,14.87-5.26-5.26,14.87-14.87,5.26,5.26Z"/>
  </g>
</svg>