<?xml version="1.0" encoding="UTF-8"?>
<svg id="Calque_2" data-name="Calque 2" xmlns="http://www.w3.org/2000/svg" viewBox="0 0 100 100">
  <defs>
    <style>
      .cls-1 {
        fill: #9c936d;
      }
    </style>
  </defs>
  <g id="Calque_1-2" data-name="Calque 1">
    <circle class="cls-1" cx="50" cy="50" r="50"/>
    <path d="m80.11,82.19h.11l-1.53-2.72-26.7-50.63,4.99-9.45-3.26-1.73-3.83,7.21-3.99-7.55-3.26,1.73,5.06,9.59c-2.17,4.5-17.05,32.33-27.07,50.95l-1.46,2.72,13.23-.02,3.28.02.02-.04,28.45-.05.04.07,12.89-.11h3.05Zm-30.18-32.8c3.03,10.25,9.45,23.49,12.31,29.17l-24.66.04c2.86-5.66,9.29-18.94,12.35-29.21h0Z"/>
  </g>
</svg>