<?xml version="1.0" encoding="UTF-8"?>
<svg id="Calque_2" data-name="Calque 2" xmlns="http://www.w3.org/2000/svg" viewBox="0 0 100 100">
  <defs>
    <style>
      .cls-1 {
        fill: #9c936d;
      }
    </style>
  </defs>
  <g id="Calque_1-2" data-name="Calque 1">
    <circle class="cls-1" cx="50" cy="50" r="50"/>
    <path d="m84.09,56.31s-9.44-.63-18.77,3.32c1.75-2.05,3.46-4.32,5.01-6.84,7.72-12.56,8.41-26.17,8.41-26.17,0,0-11.82,6.77-19.54,19.33-1.13,1.85-2.1,3.7-2.95,5.56.51-3.09.86-6.4.86-9.86,0-16.1-7.13-29.15-7.13-29.15,0,0-7.13,13.05-7.13,29.15,0,3.47.34,6.77.86,9.86-.85-1.85-1.82-3.7-2.95-5.56-7.72-12.56-19.54-19.33-19.54-19.33,0,0,.69,13.6,8.41,26.17,1.55,2.52,3.26,4.8,5.01,6.84-9.33-3.95-18.77-3.32-18.77-3.32,0,0,5.7,7.11,15.06,11.09,3.58,1.52,7.16,2.36,10.23,2.84-1.45.11-3,.32-4.57.71-6.83,1.68-11.55,5.84-11.55,5.84,0,0,6.31,1.46,13.14-.19,4.43-1.08,7.94-3.21,9.89-4.57l-1.62,13.03c-.07.62.09,1.23.48,1.71.37.48.92.74,1.5.74h3.12c.58,0,1.11-.26,1.5-.74.37-.48.55-1.09.48-1.71l-1.62-13.03c1.94,1.36,5.47,3.49,9.88,4.57,6.83,1.68,13.14.19,13.14.19,0,0-4.74-4.16-11.55-5.84-1.57-.39-3.12-.6-4.59-.71,3.07-.48,6.67-1.31,10.25-2.84,9.33-3.99,15.03-11.09,15.03-11.09Z"/>
  </g>
</svg>