<?xml version="1.0" encoding="UTF-8"?>
<svg id="Calque_2" data-name="Calque 2" xmlns="http://www.w3.org/2000/svg" viewBox="0 0 100 100">
  <defs>
    <style>
      .cls-1 {
        fill: #9c936d;
      }
    </style>
  </defs>
  <g id="Calque_1-2" data-name="Calque 1">
    <circle class="cls-1" cx="50" cy="50" r="50"/>
    <path d="m84.11,63.6h-5.98v-20.74c0-3.21-1.11-5.91-3.35-8.13-2.24-2.2-4.94-3.32-8.08-3.32H27.9c-3.21,0-5.91,1.11-8.13,3.32-2.2,2.2-3.32,4.92-3.32,8.13v14.67c0,2.33.83,4.3,2.49,5.98s3.65,2.49,5.98,2.49h13.35c.16-2.38,1.11-4.39,2.82-6.05s3.79-2.49,6.23-2.49,4.44.83,6.17,2.49c1.75,1.66,2.66,3.65,2.79,5.98h30.14c0-1.55-.76-2.33-2.31-2.33Zm-36.4-18.66c0,1.55-.79,2.33-2.4,2.33h-17.76c-1.55,0-2.33-.78-2.33-2.33v-3.99c0-1.55.78-2.33,2.33-2.33h17.74c1.6,0,2.4.78,2.4,2.33v3.99h.02Zm23.39-.09c0,1.6-.78,2.4-2.33,2.4h-8.2c-1.55,0-2.33-.79-2.33-2.4v-3.9c0-1.55.78-2.33,2.33-2.33h8.2c1.55,0,2.33.78,2.33,2.33v3.9Z"/>
    <path d="m47.28,60.02c-1.83,0-3.37.63-4.64,1.9-1.27,1.27-1.9,2.82-1.9,4.64s.63,3.3,1.9,4.57c1.27,1.27,2.82,1.9,4.64,1.9s3.28-.63,4.57-1.9c1.27-1.27,1.9-2.79,1.9-4.57s-.63-3.37-1.9-4.64c-1.27-1.25-2.8-1.9-4.57-1.9Zm1.99,8.55c-.55.55-1.22.83-1.99.83s-1.45-.28-1.99-.83-.83-1.22-.83-1.99c0-.83.28-1.5.83-2.03.55-.53,1.22-.79,1.99-.79s1.43.26,1.99.79c.55.53.83,1.2.83,2.03,0,.78-.28,1.43-.83,1.99Z"/>
  </g>
</svg>