<?xml version="1.0" encoding="UTF-8"?>
<svg id="Calque_2" data-name="Calque 2" xmlns="http://www.w3.org/2000/svg" viewBox="0 0 100 100">
  <defs>
    <style>
      .cls-1 {
        fill: #e8629f;
      }
    </style>
  </defs>
  <g id="Calque_1-2" data-name="Calque 1">
    <circle class="cls-1" cx="50" cy="50" r="50"/>
    <path d="m69.1,21.48v.95c0,3.95-3.21,7.14-7.14,7.14h-23.84c-3.95,0-7.14-3.19-7.14-7.14v-.95h-13.58v57.2h13.56v-.63c0-3.95,3.19-7.14,7.14-7.14h23.83c3.95,0,7.14,3.21,7.14,7.14v.63h13.28V21.48h-13.25Zm-43.7,51.83h-2.01c-1.32,0-2.38-.78-2.38-1.73s1.08-1.73,2.38-1.73h2.01c1.32,0,2.38.78,2.38,1.73s-1.08,1.73-2.38,1.73Zm0-9.33h-2.01c-1.32,0-2.38-.78-2.38-1.73s1.08-1.73,2.38-1.73h2.01c1.32,0,2.38.78,2.38,1.73s-1.08,1.73-2.38,1.73Zm0-9.33h-2.01c-1.32,0-2.38-.78-2.38-1.73s1.08-1.73,2.38-1.73h2.01c1.32,0,2.38.78,2.38,1.73s-1.08,1.73-2.38,1.73Zm0-9.35h-2.01c-1.32,0-2.38-.78-2.38-1.73s1.08-1.73,2.38-1.73h2.01c1.32,0,2.38.78,2.38,1.73s-1.08,1.73-2.38,1.73Zm0-9.33h-2.01c-1.32,0-2.38-.78-2.38-1.73s1.08-1.73,2.38-1.73h2.01c1.32,0,2.38.78,2.38,1.73s-1.08,1.73-2.38,1.73Zm0-9.33h-2.01c-1.32,0-2.38-.78-2.38-1.73s1.08-1.73,2.38-1.73h2.01c1.32,0,2.38.78,2.38,1.73s-1.08,1.73-2.38,1.73Zm43.7,30.58c0,3.95-3.21,7.14-7.14,7.14h-23.84c-3.95,0-7.14-3.21-7.14-7.14v-14.3c0-3.95,3.19-7.14,7.14-7.14h23.83c3.95,0,7.14,3.19,7.14,7.14l.02,14.3h0Zm7.85,20.12h-1.99c-1.32,0-2.38-.78-2.38-1.73s1.06-1.73,2.38-1.73h2.01c1.32,0,2.38.78,2.38,1.73-.02.95-1.08,1.73-2.4,1.73Zm0-9.33h-1.99c-1.32,0-2.38-.78-2.38-1.73s1.06-1.73,2.38-1.73h2.01c1.32,0,2.38.78,2.38,1.73s-1.08,1.73-2.4,1.73Zm0-9.35h-1.99c-1.32,0-2.38-.78-2.38-1.73s1.06-1.73,2.38-1.73h2.01c1.32,0,2.38.78,2.38,1.73-.02.97-1.08,1.73-2.4,1.73Zm0-9.33h-1.99c-1.32,0-2.38-.78-2.38-1.73s1.06-1.73,2.38-1.73h2.01c1.32,0,2.38.78,2.38,1.73-.02.95-1.08,1.73-2.4,1.73Zm0-9.33h-1.99c-1.32,0-2.38-.78-2.38-1.73s1.06-1.73,2.38-1.73h2.01c1.32,0,2.38.78,2.38,1.73-.02.95-1.08,1.73-2.4,1.73Zm0-9.33h-1.99c-1.32,0-2.38-.78-2.38-1.73s1.06-1.73,2.38-1.73h2.01c1.32,0,2.38.78,2.38,1.73-.02.95-1.08,1.73-2.4,1.73Z"/>
  </g>
</svg>