<?xml version="1.0" encoding="UTF-8"?>
<svg id="Calque_2" data-name="Calque 2" xmlns="http://www.w3.org/2000/svg" viewBox="0 0 100 100">
  <defs>
    <style>
      .cls-1 {
        fill: #e8629f;
      }
    </style>
  </defs>
  <g id="Calque_1-2" data-name="Calque 1">
    <circle class="cls-1" cx="50" cy="50" r="50"/>
    <g>
      <path d="m50,14.99l-7.39,22.56c-.78,2.33-2.72,4.29-5.06,5.06l-22.56,7.39,22.56,7.39c2.33.78,4.29,2.72,5.06,5.06l7.39,22.56,7.39-22.57c.78-2.33,2.72-4.29,5.06-5.06l22.56-7.39-22.57-7.37c-2.33-.78-4.29-2.72-5.06-5.06l-7.37-22.56Z"/>
      <path d="m74.89,64.76l-1.94,6.61c-.39.78-.78,1.16-1.55,1.55l-6.61,1.94,6.61,1.94c.78.39,1.16.78,1.55,1.55l1.94,6.61,1.94-6.61c.39-.78.78-1.16,1.55-1.55l6.61-1.94-6.61-1.94c-.78-.39-1.16-.78-1.55-1.55l-1.94-6.61Z"/>
      <path d="m25.11,14.99l-2.33,6.61c0,.39-.78,1.16-1.16,1.16l-6.63,2.35,6.61,1.94c.39.39,1.16.78,1.16,1.55l1.94,6.61,1.94-6.61c.39-.78.78-1.16,1.55-1.55l6.61-1.94-6.23-2.33c-.78,0-1.16-.78-1.55-1.16l-1.92-6.63Z"/>
    </g>
  </g>
</svg>