<?xml version="1.0" encoding="UTF-8"?>
<svg id="Calque_2" data-name="Calque 2" xmlns="http://www.w3.org/2000/svg" viewBox="0 0 100 100">
  <defs>
    <style>
      .cls-1 {
        fill: #e8629f;
      }
    </style>
  </defs>
  <g id="Calque_1-2" data-name="Calque 1">
    <circle class="cls-1" cx="50" cy="50" r="50"/>
    <path d="m77.35,16.26c-.53,0-1.04.11-1.5.34l-39.52,9.91c-1.89,0-3.42,1.53-3.42,3.42v31.39c-5.34-1.89-11.2.92-13.09,6.24-1.89,5.34.92,11.2,6.24,13.09s11.2-.92,13.09-6.24c.39-1.11.58-2.28.58-3.44v-21.34l34.2-8.55v9.98c-5.34-1.89-11.2.92-13.09,6.24-1.89,5.34.92,11.2,6.24,13.09,5.34,1.89,11.2-.92,13.09-6.24.39-1.11.58-2.28.58-3.44V19.68c0-1.89-1.52-3.42-3.4-3.42Zm-37.62,26.53v-10.26l34.2-8.54v10.26l-34.2,8.54Z"/>
  </g>
</svg>