<?xml version="1.0" encoding="UTF-8"?>
<svg id="Calque_2" data-name="Calque 2" xmlns="http://www.w3.org/2000/svg" viewBox="0 0 100 100">
  <defs>
    <style>
      .cls-1 {
        fill: #e8629f;
      }
    </style>
  </defs>
  <g id="Calque_1-2" data-name="Calque 1">
    <circle class="cls-1" cx="50" cy="50" r="50"/>
    <g>
      <path d="m33.58,75.34c-4.96-2.79-7.97-9.33-5.75-19.08,1.57-6.84,6.12-15.31,2.63-22.35,4.23,2.93,8.64,9.89,13.09,17.76.3-8.5-4.11-14.07-.93-25.7,2.17,14.37,10.9,15.27,15.34,28.34,1.89-6.16,5.8-8.17,3.9-23.44,19.28,26.31,8.29,35.68,4.44,45.08l1.25-13.09c-6.05,17.48-10.88,20.71-15.26,24.6,2.45-8.2,3.4-16.4-1.55-24.6-1.2,13.47-4.6,10.67-5.29,21.5-6.81-5.13-8.2-10.41-9.42-18.99-.97,1.01-2.52,5.2-2.45,9.96h0Z"/>
      <path d="m47.67,12.5c-5.04,20.48,4.16,20.28,9.26,32.31,3.58-18.55-7.13-14.37-9.26-32.31h0Z"/>
    </g>
  </g>
</svg>