<?xml version="1.0" encoding="UTF-8"?>
<svg id="Calque_2" data-name="Calque 2" xmlns="http://www.w3.org/2000/svg" viewBox="0 0 100 100">
  <defs>
    <style>
      .cls-1 {
        fill: #9c936d;
      }
    </style>
  </defs>
  <g id="Calque_1-2" data-name="Calque 1">
    <circle class="cls-1" cx="50" cy="50" r="50"/>
    <path d="m50,12.5c-20.67,0-37.5,16.83-37.5,37.5s16.83,37.5,37.5,37.5,37.5-16.83,37.5-37.5S70.67,12.5,50,12.5Zm1.75,10.67l12.29-4.13c4.22,1.92,7.97,4.67,11.06,8.06l-.02,13.07-10.9,2.65-12.42-9.03v-10.62h-.02Zm-15.87-4.07l12.36,4.09v10.62l-12.42,9.03-10.83-2.65-.02-12.33c0-.23-.07-.44-.18-.62,3.07-3.44,6.84-6.21,11.08-8.15Zm-15.49,47.55c-2.2-3.9-3.65-8.27-4.16-12.93l7.69-10.19,10.83,2.65,4.74,14.57-6.79,9.95-12.31-4.04Zm36.14,16.7c-2.12.41-4.29.63-6.53.63-2.47,0-4.89-.28-7.21-.79l-7.25-10.37,6.81-9.95h15.31l6.16,9.91-7.28,10.56Zm10.12-12.66l-6.16-9.93,4.74-14.59,10.92-2.65,7.64,10.04c-.49,4.62-1.9,8.96-4.06,12.84l-13.09,4.29Z"/>
  </g>
</svg>