<?xml version="1.0" encoding="UTF-8"?>
<svg id="Calque_2" data-name="Calque 2" xmlns="http://www.w3.org/2000/svg" viewBox="0 0 100 100">
  <defs>
    <style>
      .cls-1 {
        fill: #9c936d;
      }
    </style>
  </defs>
  <g id="Calque_1-2" data-name="Calque 1">
    <circle class="cls-1" cx="50" cy="50" r="50"/>
    <path d="m54.89,50c-2.68,0-4.87,2.19-4.87,4.87s2.19,4.87,4.87,4.87,4.87-2.19,4.87-4.87c-.05-2.66-2.2-4.8-4.87-4.87m0-29.21c14.78-.42,27.11,11.2,27.58,25.96.35,5.57-.65,11.13-2.93,16.23-13.32,0-16.56,12.98-27.92,12.98-7.14,0-10.39-5.52-11.04-12.98h-2.93l-3.9,13.95c-.46,1.53-1.98,2.5-3.56,2.28h-9.38c-1.8,0-3.25-1.45-3.25-3.25s1.45-3.25,3.25-3.25v-9.74c-1.8,0-3.25-1.45-3.25-3.25s1.45-3.25,3.25-3.25h12.33l1.62-5.19c-1.82-.9-3.83-1.34-5.84-1.31h-1.31l-.32-3.25c.48-14.78,12.8-26.38,27.58-25.96m-27.58,42.19v9.74h.97l2.93-9.74h-3.9Z"/>
  </g>
</svg>