<?xml version="1.0" encoding="UTF-8"?>
<svg id="Calque_2" data-name="Calque 2" xmlns="http://www.w3.org/2000/svg" viewBox="0 0 100 100">
  <defs>
    <style>
      .cls-1 {
        fill: #e8629f;
      }
    </style>
  </defs>
  <g id="Calque_1-2" data-name="Calque 1">
    <circle class="cls-1" cx="50" cy="50" r="50"/>
    <path d="m50,17.41c-16.63,0-30.18,13.54-30.18,30.18,0,10.76,5.68,20.19,14.2,25.54h-.26l-4.66,9.28h41.78l-4.64-9.28h-.26c8.5-5.34,14.2-14.78,14.2-25.54,0-16.63-13.56-30.18-30.18-30.18Zm-.58,7v16.24c-1.45.12-2.8.69-3.92,1.62l-11.48-11.48c4.02-3.84,9.4-6.24,15.4-6.38Zm1.16,0c6,.14,11.38,2.56,15.4,6.38l-11.48,11.48-.02-.02c-1.11-.93-2.47-1.5-3.92-1.6v-16.24h.02Zm-17.39,7.2l11.48,11.48-.02.02c-.93,1.11-1.5,2.47-1.6,3.92h-16.24c.14-6,2.56-11.39,6.38-15.41Zm33.6,0c3.83,4.02,6.24,9.42,6.38,15.4h-16.24c-.12-1.45-.69-2.8-1.62-3.92l11.48-11.48Zm-39.98,16.56h16.24c.12,1.45.69,2.8,1.62,3.92l-11.48,11.48c-3.83-4.02-6.24-9.42-6.38-15.4Zm30.12,0h16.24c-.14,6-2.56,11.38-6.38,15.4l-11.48-11.48.02-.02c.92-1.09,1.48-2.47,1.6-3.9Zm-11.43,4.73s0,.02,0,0c.65.55,1.39.97,2.17,1.23v16.54c-5.29-.53-10.04-2.84-13.67-6.3l11.5-11.48Zm8.99,0l11.48,11.48c-3.63,3.46-8.38,5.77-13.67,6.3v-16.53c.79-.28,1.53-.71,2.19-1.25Z"/>
  </g>
</svg>