<?xml version="1.0" encoding="UTF-8"?>
<svg id="Calque_2" data-name="Calque 2" xmlns="http://www.w3.org/2000/svg" viewBox="0 0 100 100">
  <defs>
    <style>
      .cls-1 {
        fill: #9c936d;
      }
    </style>
  </defs>
  <g id="Calque_1-2" data-name="Calque 1">
    <circle class="cls-1" cx="50" cy="50" r="50"/>
    <g>
      <path d="m77.21,20.97c-20.07-3.21-22.06,13.33-22.06,13.32,16.47,5.66,22.06-13.32,22.06-13.32Z"/>
      <path d="m60.67,39.93c-4.3,0-8.2,1.69-11.04,4.51-2.87-2.82-6.75-4.51-11.06-4.51-8.73,0-15.8,7.05-15.8,15.77,0,.34,0,.62.05.93h.07c.25,3.39,1.32,7.64,3.9,12.91,0,0,4.44,8.45,7.97,12.35l.32.3c1.73,1.75,4.11,2.82,6.75,2.82,3.21,0,6.05-1.55,7.78-3.97h.05c1.73,2.42,4.57,3.97,7.78,3.97,2.61,0,5.03-1.09,6.74-2.82l.32-.3c3.54-3.88,7.97-12.35,7.97-12.35,2.57-5.26,3.65-9.49,3.93-12.91h.04c.02-.34.02-.62.02-.93,0-8.71-7.09-15.77-15.78-15.77h0Z"/>
      <path d="m44.04,28.1s-.44-14.23-17.76-13.02c0,0,3.33,16.58,17.76,13.02h0Z"/>
      <path d="m48.82,41.11l.71.07,4.06-21.71-.21-.12c-.14-.09-3.53-2.03-5.36-2.03-.55,0-.95.18-1.18.51-.3.42-.26,1.08.09,1.96,1.73,4.3,1.9,21.15,1.9,21.32h0Z"/>
    </g>
  </g>
</svg>