<?xml version="1.0" encoding="UTF-8"?>
<svg id="Calque_2" data-name="Calque 2" xmlns="http://www.w3.org/2000/svg" viewBox="0 0 100 100">
  <defs>
    <style>
      .cls-1 {
        fill: #e8629f;
      }
    </style>
  </defs>
  <g id="Calque_1-2" data-name="Calque 1">
    <circle class="cls-1" cx="50" cy="50" r="50"/>
    <path d="m75.68,17.5h-30c-1.55,0-3.09,1.11-3.09,2.91v3.07c-2.08-.26-4.11.28-5.96,5.78,0,3.16.07,6.33.16,9.54-3.23,13.14-9.72,20.67-14.34,31.82-2.1,11.23,12.73,16.54,17.3,4.99.21-.81.28-1.69.18-2.56-.05-.41-.14-23.88-.12-35.78l2.77.02-.02,40.67h3.17l.04,4.55,29.22-.02.02-4.53,2.73.02V19.81c0-1.23-.71-2.31-2.06-2.31h0Zm-38.98,56.88c-2.86,8.22-11.98,5.7-11.64-1.96,3.97-8.29,9.08-18.2,11.99-23.86.25,8.8.37,17.53-.35,25.82h0Zm34.9-33.49c0,1.02-.55,1.76-1.71,1.76l-19.28-.05c-1.11,0-2.06-.83-2.06-2.01l.09-14.87c0-1.18.83-1.83,1.92-1.83h19.15c1.06,0,1.89.42,1.89,1.89v15.11h0Z"/>
  </g>
</svg>