<?xml version="1.0" encoding="UTF-8"?>
<svg id="Calque_2" data-name="Calque 2" xmlns="http://www.w3.org/2000/svg" viewBox="0 0 100 100">
  <defs>
    <style>
      .cls-1 {
        fill: #e8629f;
      }
    </style>
  </defs>
  <g id="Calque_1-2" data-name="Calque 1">
    <circle class="cls-1" cx="50" cy="50" r="50"/>
    <path d="m45.33,40.58v9.33H14.99v-9.33h30.34Zm9.33,0v9.33h30.34v-9.33h-30.34Zm-34.99,13.99v21.01c0,3.86,3.14,7,7,7h18.66v-28.01h-25.66Zm34.99,0v27.99h18.66c3.86,0,7-3.14,7-7v-20.99h-25.66Zm9.33-37.32c-6.54-.21-12.36,4.16-14,10.49-1.64-6.35-7.44-10.71-14-10.49-4.99-.16-9.17,3.77-9.33,8.77v.56c-.72,4.39,2.26,8.55,6.65,9.28.74.12,1.52.14,2.26.05h28.61c4.46.71,8.64-2.35,9.33-6.81.12-.85.12-1.69,0-2.52,0-5.15-4.18-9.33-9.33-9.33-.05,0-.11,0-.18,0Zm-27.99,14c-2.36.21-4.44-1.52-4.67-3.88-.02-.26-.02-.53,0-.78-.21-2.36,1.52-4.44,3.88-4.67.26-.02.53-.02.78,0,5.15,0,9.33,4.18,9.33,9.33h-9.31Zm27.99,0h-9.33c0-5.15,4.18-9.33,9.33-9.33,2.57,0,4.67,2.08,4.67,4.67.21,2.36-1.52,4.44-3.88,4.67-.26,0-.53,0-.79-.02Z"/>
  </g>
</svg>