<?xml version="1.0" encoding="UTF-8"?>
<svg id="Calque_2" data-name="Calque 2" xmlns="http://www.w3.org/2000/svg" viewBox="0 0 100 98.06">
  <defs>
    <style>
      .cls-1 {
        fill: none;
        isolation: isolate;
      }

      .cls-2 {
        fill: #e86936;
      }

      .cls-3 {
        fill: #fcbe19;
      }

      .cls-4 {
        fill: #e6629f;
      }

      .cls-5 {
        fill: #1d1d1b;
      }
    </style>
  </defs>
  <g id="Calque_1-2" data-name="Calque 1">
    <path class="cls-3" d="m99.3,28.72v-.07c-1.36-9.51-5.24-18.89-11.22-27.15l-1.08-1.5-1.8.49c-6.53,1.76-12.37,2.63-17.82,2.63-3.49,0-6.86-.37-10-1.09l-.25-.05c-2.12-.51-4.3-1.04-6.44-1.61l-.74-.19-.74.23c-5.94,1.82-11.77,2.73-17.34,2.73-3,0-5.93-.26-8.73-.81-3.25-.67-5.93-1.27-8.47-1.85l-1.73-.41-1.02,1.43c-3.67,5.08-6.56,10.6-8.57,16.46C1.28,23.95.18,30.09.08,36.23c-.74,13.99,3.83,28.61,12.54,40.16,9.38,12.42,22.63,20.11,37.25,21.63l.34.04.32-.05c4.87-.69,10.32-2.73,15.79-5.91,5.4-3.12,10.71-7.3,15.36-12.08,5.01-5.12,9.1-10.71,12.19-16.6,3.4-6.51,5.38-13.09,5.89-19.58.55-5.27.07-10.6-.46-15.12h0Z"/>
    <path class="cls-4" d="m50.46,93.22c23.62-4.62,46.18-31.01,44.98-56.87-.18-4.3-.62-8.63-1.73-12.81H6.3c-1.75,6.93-2.26,14.25-1.39,21.34,2.8,24.11,20.94,46.8,45.54,48.33h0Z"/>
    <path class="cls-2" d="m35.11,21.59H6.96l.35-1.22c1.41-5.06,3.81-9.81,6.81-14.11l.79-1.16c2.73.83,5.54,1.36,8.34,1.99,8.48,1.39,17.29.62,25.49-1.91l1.25-.34c1.76.49,3.53.95,5.29,1.41,9.79,2.45,20.18,1.85,29.76-1.16,3.58,4.97,6.51,10.48,7.99,16.49h-57.93Z"/>
    <g class="cls-1">
      <path class="cls-5" d="m29.32,63.94h-6.47v-22.15h-7.55v-4.3c1.99-.09,3.39-.22,4.19-.4,1.27-.28,2.3-.84,3.1-1.68.55-.58.96-1.34,1.24-2.3.16-.58.24-1,.24-1.28h5.25v32.11Z"/>
      <path class="cls-5" d="m51.25,43.1c2.85,0,5.19.97,7.01,2.9,1.82,1.93,2.74,4.41,2.74,7.42s-.89,5.64-2.68,7.93c-1.79,2.29-4.56,3.43-8.33,3.43-4.05,0-7.03-1.69-8.95-5.07-1.49-2.64-2.24-6.05-2.24-10.23,0-2.45.1-4.44.31-5.98.37-2.73,1.09-5.01,2.15-6.82.92-1.55,2.12-2.8,3.6-3.74,1.48-.94,3.26-1.42,5.33-1.42,2.98,0,5.36.76,7.13,2.29,1.77,1.53,2.77,3.56,2.99,6.1h-6.29c0-.52-.2-1.09-.6-1.71-.68-1-1.71-1.51-3.08-1.51-2.05,0-3.51,1.15-4.39,3.46-.47,1.27-.8,3.15-.97,5.63.78-.93,1.69-1.61,2.72-2.04,1.03-.43,2.21-.64,3.54-.64Zm-4.25,6.02c-1.24.96-1.86,2.51-1.86,4.65,0,1.73.47,3.14,1.4,4.23.93,1.09,2.11,1.64,3.54,1.64s2.51-.53,3.31-1.58c.8-1.06,1.21-2.43,1.21-4.11,0-1.88-.46-3.31-1.37-4.31-.92-1-2.04-1.49-3.37-1.49-1.08,0-2.03.32-2.86.97Z"/>
      <path class="cls-5" d="m71.29,38.23c-.71.95-1.05,2.21-1.02,3.79h-5.89c.06-1.59.33-3.11.82-4.54.52-1.25,1.33-2.41,2.44-3.48.83-.75,1.81-1.33,2.95-1.73,1.14-.4,2.53-.6,4.19-.6,3.07,0,5.55.79,7.43,2.38,1.88,1.59,2.82,3.72,2.82,6.39,0,1.89-.56,3.48-1.68,4.78-.71.81-1.45,1.37-2.21,1.66.58,0,1.4.49,2.48,1.48,1.61,1.49,2.41,3.53,2.41,6.11,0,2.72-.94,5.11-2.82,7.16-1.88,2.06-4.67,3.09-8.36,3.09-4.55,0-7.71-1.48-9.48-4.45-.93-1.58-1.45-3.65-1.55-6.2h6.2c0,1.28.21,2.35.62,3.19.77,1.55,2.16,2.33,4.19,2.33,1.24,0,2.32-.42,3.24-1.27.92-.85,1.38-2.07,1.38-3.67,0-2.11-.86-3.52-2.57-4.23-.97-.4-2.51-.6-4.61-.6v-4.52c2.05-.03,3.48-.23,4.3-.6,1.4-.62,2.1-1.88,2.1-3.77,0-1.23-.36-2.22-1.07-2.99-.72-.77-1.72-1.15-3.02-1.15-1.49,0-2.58.47-3.28,1.42Z"/>
    </g>
  </g>
</svg>