<?xml version="1.0" encoding="UTF-8"?>
<svg id="Calque_2" data-name="Calque 2" xmlns="http://www.w3.org/2000/svg" viewBox="0 0 100 98.06">
  <defs>
    <style>
      .cls-1 {
        fill: none;
        isolation: isolate;
      }

      .cls-2 {
        fill: #e86936;
      }

      .cls-3 {
        fill: #fcbe19;
      }

      .cls-4 {
        fill: #e6629f;
      }

      .cls-5 {
        fill: #1d1d1b;
      }
    </style>
  </defs>
  <g id="Calque_1-2" data-name="Calque 1">
    <path class="cls-3" d="m99.3,28.72v-.07c-1.36-9.51-5.24-18.89-11.22-27.15l-1.08-1.5-1.8.49c-6.53,1.76-12.37,2.63-17.82,2.63-3.49,0-6.86-.37-10-1.09l-.25-.05c-2.12-.51-4.3-1.04-6.44-1.61l-.74-.19-.74.23c-5.94,1.82-11.77,2.73-17.34,2.73-3,0-5.93-.26-8.73-.81-3.25-.67-5.93-1.27-8.47-1.85l-1.71-.41-1.04,1.43c-3.67,5.06-6.56,10.6-8.57,16.46C1.28,23.94.18,30.09.08,36.23c-.74,13.99,3.83,28.61,12.54,40.16,9.38,12.42,22.63,20.11,37.25,21.63l.34.04.32-.05c4.87-.69,10.32-2.73,15.79-5.91,5.4-3.12,10.71-7.3,15.36-12.08,5.01-5.12,9.1-10.71,12.19-16.6,3.4-6.51,5.38-13.09,5.89-19.58.55-5.27.07-10.6-.46-15.12h0Z"/>
    <path class="cls-4" d="m50.46,93.22c23.62-4.62,46.18-31.01,44.98-56.87-.18-4.3-.62-8.63-1.73-12.81H6.3c-1.75,6.93-2.26,14.25-1.39,21.34,2.8,24.11,20.94,46.8,45.54,48.33h0Z"/>
    <path class="cls-2" d="m35.11,21.57H6.96l.35-1.22c1.41-5.06,3.81-9.81,6.81-14.11l.79-1.16c2.73.83,5.54,1.36,8.34,1.99,8.48,1.39,17.29.62,25.49-1.91l1.25-.34c1.76.49,3.53.95,5.29,1.41,9.79,2.45,20.18,1.85,29.76-1.16,3.6,5.01,6.51,10.51,7.99,16.51l-57.93-.02h0Z"/>
    <g class="cls-1">
      <path class="cls-5" d="m36.16,46.79c3.47,0,6.32,1.18,8.54,3.53,2.22,2.36,3.33,5.37,3.33,9.04s-1.09,6.87-3.26,9.66c-2.18,2.79-5.56,4.18-10.14,4.18-4.93,0-8.56-2.06-10.9-6.18-1.82-3.22-2.73-7.37-2.73-12.46,0-2.99.13-5.41.38-7.28.45-3.33,1.32-6.1,2.62-8.31,1.12-1.89,2.58-3.41,4.38-4.56,1.81-1.15,3.97-1.73,6.49-1.73,3.63,0,6.53.93,8.69,2.79,2.16,1.86,3.37,4.34,3.64,7.43h-7.66c0-.63-.24-1.32-.73-2.08-.83-1.22-2.08-1.83-3.75-1.83-2.5,0-4.28,1.4-5.34,4.21-.58,1.55-.97,3.83-1.19,6.85.95-1.13,2.06-1.96,3.32-2.48,1.26-.52,2.7-.78,4.32-.78Zm-5.18,7.34c-1.51,1.17-2.27,3.06-2.27,5.67,0,2.1.57,3.82,1.7,5.15,1.13,1.33,2.57,2,4.32,2s3.05-.64,4.03-1.93c.98-1.29,1.47-2.95,1.47-5,0-2.28-.56-4.03-1.67-5.25-1.12-1.21-2.48-1.82-4.1-1.82-1.31,0-2.47.4-3.48,1.19Z"/>
      <path class="cls-5" d="m66.89,46.79c3.47,0,6.32,1.18,8.54,3.53,2.22,2.36,3.33,5.37,3.33,9.04s-1.09,6.87-3.26,9.66c-2.18,2.79-5.56,4.18-10.14,4.18-4.93,0-8.56-2.06-10.9-6.18-1.82-3.22-2.73-7.37-2.73-12.46,0-2.99.13-5.41.38-7.28.45-3.33,1.32-6.1,2.62-8.31,1.12-1.89,2.58-3.41,4.38-4.56,1.81-1.15,3.97-1.73,6.49-1.73,3.63,0,6.53.93,8.69,2.79,2.16,1.86,3.37,4.34,3.64,7.43h-7.66c0-.63-.24-1.32-.73-2.08-.83-1.22-2.08-1.83-3.75-1.83-2.5,0-4.28,1.4-5.34,4.21-.58,1.55-.97,3.83-1.19,6.85.95-1.13,2.06-1.96,3.32-2.48,1.26-.52,2.7-.78,4.32-.78Zm-5.18,7.34c-1.51,1.17-2.27,3.06-2.27,5.67,0,2.1.57,3.82,1.7,5.15,1.13,1.33,2.57,2,4.32,2s3.05-.64,4.03-1.93c.98-1.29,1.47-2.95,1.47-5,0-2.28-.56-4.03-1.67-5.25-1.12-1.21-2.48-1.82-4.1-1.82-1.31,0-2.47.4-3.48,1.19Z"/>
    </g>
  </g>
</svg>