<?xml version="1.0" encoding="UTF-8"?>
<svg id="Calque_2" data-name="Calque 2" xmlns="http://www.w3.org/2000/svg" viewBox="0 0 100 100">
  <defs>
    <style>
      .cls-1 {
        fill: #e8629f;
      }
    </style>
  </defs>
  <g id="Calque_1-2" data-name="Calque 1">
    <circle class="cls-1" cx="50" cy="50" r="50"/>
    <g>
      <path d="m42.56,28.54c1.48,0,2.77-.53,3.88-1.6,1.09-1.08,1.64-2.38,1.64-3.92s-.55-2.77-1.64-3.88c-1.09-1.09-2.38-1.64-3.88-1.64s-2.84.55-3.92,1.64c-1.08,1.09-1.6,2.4-1.6,3.88s.53,2.84,1.6,3.92c1.08,1.08,2.38,1.6,3.92,1.6h0Z"/>
      <path d="m21.15,44.2c.93.55,1.64.35,2.13-.58l8.24-14.18c.55-.93.35-1.64-.58-2.13l-2.65-1.57c-.93-.55-1.64-.35-2.13.58l-8.24,14.18c-.55.93-.35,1.64.58,2.13l2.65,1.57Z"/>
      <path d="m76.44,18.73l-3.39,15.33-5.77,2.38-5.03,14.09,4.78,10.79-1.32,4.2-11.13,3.3-.65,4.94-17.71,4.37.16,2.96h43.26c.78,0,1.41-.26,1.94-.78.53-.53.78-1.16.78-1.94V20.05l-5.93-1.32Z"/>
      <path d="m41.5,59.77l1.57,9.89c.23,1.64,1.22,2.61,2.96,2.87,1.22.16,2.26-.18,3.17-1.02.9-.85,1.27-1.89,1.11-3.09l-1.89-11.94c-.21-1.27-.9-2.15-2.06-2.65l-8.57-3.88,5.43-9.47,2.72,3.46c.21.34.55.58.99.74l10.3,2.96c.26.11.51.16.74.16.78,0,1.43-.3,1.98-.9s.83-1.29.83-2.06c0-1.38-.65-2.28-1.98-2.72l-8.91-2.63-6.75-8.17c-.93-1.09-2.26-1.78-3.95-2.06-2.96-.44-5.19.6-6.67,3.12l-7.5,12.95c-.49.83-.71,1.83-.65,3.05l.25,16.4-5.68,12.19c-.21.49-.35.9-.41,1.23-.16,1.04.05,1.96.65,2.77.6.79,1.43,1.27,2.47,1.45,1.76.26,3-.34,3.7-1.82l6.26-13.35c.21-.49.34-1.02.34-1.57l-.09-10.14,9.63,4.22Z"/>
    </g>
  </g>
</svg>