<?xml version="1.0" encoding="UTF-8"?>
<svg id="Calque_2" data-name="Calque 2" xmlns="http://www.w3.org/2000/svg" viewBox="0 0 100 100">
  <defs>
    <style>
      .cls-1 {
        fill: #e8629f;
      }
    </style>
  </defs>
  <g id="Calque_1-2" data-name="Calque 1">
    <circle class="cls-1" cx="50" cy="50" r="50"/>
    <path d="m17.34,25.54c-1.39,0-2.33.93-2.33,2.33v44.32c0,1.39.93,2.33,2.33,2.33s2.33-.93,2.33-2.33v-7h60.65v7c0,1.39.93,2.33,2.33,2.33s2.33-.93,2.33-2.33v-9.33c0-1.39-.93-2.33-2.33-2.33H19.66V27.87c0-1.39-.93-2.33-2.33-2.33Zm13.99,2.33c-3.74,0-7,3.26-7,7h0c0,3.74,3.26,7,7,7h0c3.74,0,7-3.26,7-7h0c0-3.72-3.26-7-7-7h0Zm16.33,4.67c-7,0-7,7-7,7v7h-14c-1.39,0-2.33.93-2.33,2.33v4.67c0,1.39.93,2.33,2.33,2.33h58.32v-11.66c0-11.66-11.66-11.66-11.66-11.66h-25.66v-.02Z"/>
  </g>
</svg>