<?xml version="1.0" encoding="UTF-8"?>
<svg id="Calque_2" data-name="Calque 2" xmlns="http://www.w3.org/2000/svg" viewBox="0 0 100 100">
  <defs>
    <style>
      .cls-1 {
        fill: #e8629f;
      }
    </style>
  </defs>
  <g id="Calque_1-2" data-name="Calque 1">
    <circle class="cls-1" cx="50" cy="50" r="50"/>
    <path d="m87.3,62.56c-.14-.18-.37-.26-.58-.26h-.18l-11.46-27.57c4.39-.95,6.77-3.44,8.66-6.03.12-.16.09-.39-.05-.53-.16-.14-.39-.12-.53.02-1.83,1.8-6.49,3.97-9.51,3.97-.14,0-.3,0-.42-.02h-.04c-3.32-.02-6.95-1.29-10.76-3.77-3.05-2.05-6.77-3.3-11.31-3.81l-.34-7.8c-.02-.42-.37-.76-.79-.74h-.05c-.42,0-.76.34-.78.74l-.3,7.8c-4.55.51-8.25,1.76-11.31,3.81-3.83,2.49-7.44,3.76-10.78,3.77h-.04c-.14.02-.28.02-.42.02-3.02,0-7.67-2.17-9.51-3.97-.14-.14-.37-.14-.53-.02s-.18.35-.05.53c1.89,2.59,4.27,5.08,8.66,6.03l-11.46,27.57h-.18c-.23,0-.44.11-.58.26-.14.18-.21.41-.18.62.78,5.17,6.42,9.08,13.12,9.08s12.35-3.9,13.12-9.08c.04-.23-.04-.46-.18-.62-.14-.18-.37-.26-.58-.26h-.18l-11.18-27.3c.05,0,.09.02.14.02h.04c5.2-.09,7.95-1.55,10.62-2.96.18-.09.34-.18.51-.26,1.13-.42,2.2-.93,3.25-1.45,2.38-1.15,4.62-2.24,7.39-2.24h.18l-1.92,50.86h-15.36c-.42,0-.78.35-.78.78v3.47c0,.42.35.78.78.78h37.02c.42,0,.78-.35.78-.78v-3.49c0-.42-.35-.78-.78-.78h-15.36l-1.92-50.86h.18c2.77,0,5.01,1.09,7.39,2.24,1.04.51,2.13,1.04,3.25,1.45.18.09.34.18.51.26,2.66,1.41,5.41,2.87,10.62,2.96h.04c.05,0,.09-.02.14-.02l-11.16,27.3h-.18c-.23,0-.44.11-.58.26-.14.18-.21.41-.18.62.78,5.17,6.42,9.08,13.12,9.08s12.35-3.9,13.12-9.08c.05-.19-.02-.42-.16-.6h0Zm-72.15-.26l10.58-25.45,10.41,25.45H15.15Zm59.12-25.45l10.58,25.45h-20.99l10.41-25.45Z"/>
  </g>
</svg>