<?xml version="1.0" encoding="UTF-8"?>
<svg id="Calque_2" data-name="Calque 2" xmlns="http://www.w3.org/2000/svg" viewBox="0 0 100 100">
  <defs>
    <style>
      .cls-1 {
        fill: #e8629f;
      }
    </style>
  </defs>
  <g id="Calque_1-2" data-name="Calque 1">
    <circle class="cls-1" cx="50" cy="50" r="50"/>
    <g>
      <path d="m38.06,66.12c-3.53.09-6.01-2.03-6.83-2.7-3.03-2.56-3.93-5.87-4.99-9.89-1.36-5.11-1.23-9.24-1.2-10.21.28-6.84,2.63-11.71,4.11-14.73.97-1.96,2.8-4.27,6.49-8.85.65-.81,1.75-2.15,3.32-2.22,1.52-.09,2.61,1.01,2.7,1.11,1.13,1.18,1.08,2.77,1.11,4.59,0,0,0,.02.71,7.44.16,1.69.83,4.11,2.15,8.85,2.24,8.15,2.84,8.94,3.02,12.05.14,2.52.26,5.08-1.11,7.92-.41.83-1.82,3.67-5.06,5.38-.76.42-2.31,1.23-4.41,1.27Z"/>
      <path d="m29.91,79.14c-2.24-1.96-3.58-3.84-3.93-4.3-1.27-1.82-1.98-3.39-2.29-4.14-.49-1.18-1.62-3.95-.67-4.8.16-.14.46-.3.79-.32.67-.04,1.18.51,1.36.67,0,0,2.05,1.46,6.08,4.36,2.2,1.57,4.04,2.65,4.04,2.65,1.68.99,2.84,1.53,3.56,2.91.12.23.51,1.01.55,2.08.02.58.11,2.12-1.04,3.25-1.04,1.04-2.42,1.04-2.7,1.04-1.04-.02-1.82-.51-3.32-1.5-1.23-.85-2.12-1.59-2.43-1.89Z"/>
      <path d="m61.92,66.12c3.53.09,6.01-2.03,6.83-2.7,3.03-2.56,3.93-5.87,4.99-9.89,1.36-5.11,1.23-9.24,1.2-10.21-.28-6.84-2.63-11.71-4.11-14.73-.97-1.96-2.8-4.27-6.49-8.85-.65-.81-1.75-2.15-3.32-2.22-1.52-.09-2.61,1.01-2.7,1.11-1.13,1.18-1.08,2.77-1.11,4.59,0,0,0,.02-.71,7.44-.16,1.69-.83,4.11-2.15,8.85-2.24,8.15-2.84,8.94-3.02,12.05-.14,2.52-.26,5.08,1.11,7.92.41.83,1.82,3.67,5.06,5.38.76.42,2.31,1.23,4.41,1.27Z"/>
      <path d="m70.07,79.14c2.24-1.96,3.58-3.84,3.93-4.3,1.27-1.82,1.98-3.39,2.29-4.14.49-1.18,1.62-3.95.67-4.8-.16-.14-.46-.3-.79-.32-.67-.04-1.18.51-1.36.67,0,0-2.05,1.46-6.08,4.36-2.2,1.57-4.04,2.65-4.04,2.65-1.68.99-2.84,1.53-3.56,2.91-.12.23-.51,1.01-.55,2.08-.02.58-.11,2.12,1.04,3.25,1.04,1.04,2.42,1.04,2.7,1.04,1.04-.02,1.82-.51,3.32-1.5,1.22-.85,2.1-1.59,2.43-1.89Z"/>
    </g>
  </g>
</svg>