<?xml version="1.0" encoding="UTF-8"?>
<svg id="Calque_2" data-name="Calque 2" xmlns="http://www.w3.org/2000/svg" viewBox="0 0 100 100">
  <defs>
    <style>
      .cls-1 {
        fill: #e8629f;
      }
    </style>
  </defs>
  <g id="Calque_1-2" data-name="Calque 1">
    <circle class="cls-1" cx="50" cy="50" r="50"/>
    <path d="m83.76,62.73l-5.5-14.94c-2.31-6.01,5.59-7.07,5.59-7.07,1.76-.97,0-2.03,0-2.03-1.83.44-3.19-2.12-3.19-2.12l-1.04-2.38c-.56-1.41-.72-1.59-.09-4.32.63-2.75-1.39-2.61-1.76-2.2-.35.41-1.48,1.02-2.31.09-.85-.93-2.96-.88-2.96-.88l-.79-1.76h-.88l-.88,1.76h-15.5v.53H21.98v-.88h-.63c-.07-.71-.56-1.23-.56-1.23-2.65,0-3.19,2.2-3.19,2.2h-2.08c-1.2,2.38.09,5.04.09,5.04h2.31v7.16h4.87l.41,1.15h12.15c11.34,0,9.35,10.51,9.35,10.51,8.55,4.34,13.92,1.59,13.92,1.59,4.23-.97,5.03,3,5.03,3l2.87,12.65c.25,2.2-.11,3.53-.11,3.53v.18h0v1.78s-.07.97,1.15.81l13.4-1.25c.32.6.92,1.02,1.6,1.02,1.02,0,1.87-.92,1.87-2.06,0-.23-.04-.41-.11-.55h.41c.97-5.93-.95-9.31-.95-9.31h0Zm-5.24-34.83c.34,0,.62.3.62.67s-.28.67-.62.67-.62-.3-.62-.67c.02-.37.28-.67.62-.67Zm-16.9,20.86c-.25,1.59-1.76,2.47-1.76,2.47-5.19,1.92-8.52,1.39-11.15.51-3.21-1.08-3-4.5-3-4.5,0-4.69,4.39-4.6,4.39-4.6h3.6c1.99,5.31-2.87,7.69-2.87,7.69-.63.18,0,.71,0,.71,2.96-.09,5.36-5.4,5.36-5.4l-.07-2.2,1.11-.79c4.39.04,4.64,4.53,4.39,6.12h0Zm22.13,23.83c0,.74-.55,1.34-1.22,1.34s-1.22-.6-1.22-1.34c0-.19.04-.37.11-.53l2.22-.02c.07.18.11.35.11.55"/>
  </g>
</svg>