<?xml version="1.0" encoding="UTF-8"?>
<svg id="Calque_2" data-name="Calque 2" xmlns="http://www.w3.org/2000/svg" viewBox="0 0 100 100">
  <defs>
    <style>
      .cls-1 {
        fill: #e8629f;
      }
    </style>
  </defs>
  <g id="Calque_1-2" data-name="Calque 1">
    <circle class="cls-1" cx="50" cy="50" r="50"/>
    <path d="m82.19,63.35l-2.1-13.23c-.23-1.41-1.11-2.1-2.63-2.1-.71,0-1.34.3-1.92.88l-9.72,9.12c-.71.58-1.06,1.29-1.06,2.1,0,1.41.63,2.31,1.92,2.72l2.45.79c-1.23,3.33-3.17,6.17-5.87,8.54-2.68,2.36-5.78,3.9-9.29,4.6v-43.21c3.92-1.69,5.87-4.67,5.87-8.94,0-2.63-.95-4.89-2.84-6.79-1.9-1.9-4.2-2.84-6.88-2.84s-4.89.95-6.79,2.84c-1.9,1.9-2.84,4.16-2.84,6.79,0,4.27,1.99,7.25,5.96,8.94v43.28c-3.56-.71-6.74-2.24-9.54-4.6-2.8-2.36-4.81-5.24-6.05-8.62l2.45-.79c1.29-.41,1.92-1.31,1.92-2.72,0-.76-.32-1.46-.97-2.1l-9.81-9.12c-.58-.58-1.23-.88-1.92-.88-1.52,0-2.4.71-2.63,2.1l-2.1,13.23c-.05.28-.09.49-.09.62,0,1.87.97,2.8,2.89,2.8.3,0,.55-.04.79-.09l2.28-.79c1.87,5.61,5.22,10.19,10.04,13.76s10.26,5.34,16.33,5.34,11.48-1.82,16.38-5.43c4.73-3.51,8.02-8.06,9.89-13.67l2.28.79c.23.05.49.09.79.09,1.92,0,2.89-.93,2.89-2.8-.02-.11-.05-.3-.11-.6h0ZM50.12,28.66c-1.06,0-1.98-.39-2.77-1.18s-1.18-1.75-1.18-2.86.39-1.98,1.18-2.75c.79-.79,1.71-1.18,2.77-1.18,1.11,0,2.06.39,2.84,1.18.79.79,1.18,1.71,1.18,2.75,0,1.11-.39,2.06-1.18,2.86-.78.79-1.73,1.18-2.84,1.18Z"/>
  </g>
</svg>