<?xml version="1.0" encoding="UTF-8"?>
<svg id="Calque_2" data-name="Calque 2" xmlns="http://www.w3.org/2000/svg" viewBox="0 0 100 100">
  <defs>
    <style>
      .cls-1 {
        fill: #e8629f;
      }
    </style>
  </defs>
  <g id="Calque_1-2" data-name="Calque 1">
    <circle class="cls-1" cx="50" cy="50" r="50"/>
    <g>
      <path d="m33.16,17.8c-1.13-1.87-3.37-2.63-4.87-1.5-8.62,6.37-14.62,16.12-15.73,26.98-.37,1.87,1.5,3.74,3.74,3.74h18.73c0-5.63,3-10.49,7.5-12.73-4.13-7.11-7.5-13.1-9.37-16.49Z"/>
      <path d="m83.74,47.04c2.24,0,3.74-1.5,3.74-3.74-1.13-10.86-6.74-20.62-15.36-26.6-1.5-1.13-4.13-.74-4.87,1.13-2.24,3.37-5.63,9.37-9.74,16.12,4.5,2.63,7.5,7.5,7.5,13.12h18.73v-.04Z"/>
      <path d="m33.16,76.26c-1.13,1.87-.37,4.13,1.5,4.87,9.74,4.5,20.99,4.5,30.72,0,1.87-.74,2.63-3,1.5-4.87-1.87-3.37-5.24-9.37-9.37-16.12-4.5,2.63-10.49,2.63-14.99,0-4.13,6.75-7.5,12.75-9.37,16.12Z"/>
      <circle cx="50.02" cy="47.04" r="7.87"/>
    </g>
  </g>
</svg>