<?xml version="1.0" encoding="UTF-8"?>
<svg id="Calque_2" data-name="Calque 2" xmlns="http://www.w3.org/2000/svg" viewBox="0 0 100 100">
  <defs>
    <style>
      .cls-1 {
        fill: #9c936d;
      }
    </style>
  </defs>
  <g id="Calque_1-2" data-name="Calque 1">
    <circle class="cls-1" cx="50" cy="50" r="50"/>
    <path d="m80.58,24.36c-.63-2.38-2.5-4.25-4.89-4.9-3.14-.85-8.02-1.83-13.74-1.96l20.51,20.55c-.09-5.7-1.06-10.56-1.89-13.69Zm-61.18,51.29c.63,2.38,2.5,4.25,4.89,4.9,3.14.85,8.02,1.83,13.74,1.96l-20.53-20.56c.11,5.7,1.08,10.56,1.9,13.7h0Zm-1.36-22.06l28.34,28.38c17.35-2.54,32.59-15.56,35.57-35.56l-28.34-28.38c-17.37,2.54-32.61,15.56-35.57,35.56Zm41.59-16.19c.41-.41,1.08-.41,1.48,0l1.48,1.48c.41.41.41,1.08,0,1.48l-3.7,3.7,3.7,3.7c.41.41.41,1.08,0,1.48l-1.48,1.48c-.41.41-1.08.41-1.48,0l-3.7-3.7-2.96,2.98,3.7,3.7c.41.41.41,1.08,0,1.48l-1.48,1.48c-.41.41-1.08.41-1.48,0l-3.7-3.7-2.96,2.95,3.7,3.7c.41.41.41,1.08,0,1.48l-1.48,1.48c-.41.41-1.08.41-1.48,0l-3.7-3.7-3.7,3.7c-.41.41-1.08.41-1.48,0l-1.48-1.48c-.41-.41-.41-1.08,0-1.48l3.7-3.7-3.7-3.7c-.41-.41-.41-1.08,0-1.48l1.48-1.48c.41-.41,1.08-.41,1.48,0l3.7,3.7,2.96-2.96-3.7-3.7c-.41-.41-.41-1.08,0-1.48l1.48-1.48c.41-.41,1.08-.41,1.48,0l3.7,3.7,2.96-2.96-3.7-3.7c-.41-.41-.41-1.08,0-1.48l1.48-1.48c.41-.41,1.08-.41,1.48,0l3.7,3.7,3.7-3.7h0Z"/>
  </g>
</svg>