<?xml version="1.0" encoding="UTF-8"?>
<svg id="Calque_2" data-name="Calque 2" xmlns="http://www.w3.org/2000/svg" viewBox="0 0 100 100">
  <defs>
    <style>
      .cls-1 {
        fill: #9c936d;
      }
    </style>
  </defs>
  <g id="Calque_1-2" data-name="Calque 1">
    <circle class="cls-1" cx="50" cy="50" r="50"/>
    <g>
      <path d="m78.61,40.56c1.59,0,2.95-.55,4.06-1.66,1.11-1.11,1.66-2.47,1.66-4.06s-.55-2.95-1.66-4.06-2.47-1.66-4.06-1.66-2.87.55-4.02,1.66-1.71,2.47-1.71,4.06.56,2.95,1.71,4.06c1.15,1.09,2.49,1.66,4.02,1.66Z"/>
      <path d="m78.78,80.18c-.62,0-1.22-.18-1.8-.51L16.86,44.32l-1.2,2.05,60.12,35.36c.92.51,1.9.78,2.98.78,2.22,0,3.9-.93,5.04-2.82l-2.05-1.2c-.69,1.13-1.68,1.69-2.98,1.69h0Z"/>
      <path d="m82.79,53.19l-10.25-5.98-1.11-15.38c-.18-2.05-1.06-3.53-2.65-4.44l-14.78-8.69c-1.38-.79-2.79-1.2-4.27-1.2-2.68,0-4.76,1.08-6.23,3.25-.85,1.31-1.29,2.73-1.29,4.27,0,.69.09,1.36.25,2.05l4.02,13.07-12.05,3.84c-1.71.51-2.68,1.76-2.91,3.76-.34,2.68,1.06,4.18,4.18,4.53.34.05.83-.04,1.45-.25l16.49-5.38c1.59-.56,2.47-1.45,2.65-2.65.18-1.2.23-1.85.18-1.96l-2.47-8.98,9.91,5.89,1.2,8.62c.23,1.53.88,2.63,1.96,3.25l12.89,7.51c.46.28.92.42,1.36.42.85,0,1.57-.3,2.13-.9s.85-1.29.85-2.1c.02-1.13-.49-1.99-1.52-2.56Z"/>
    </g>
  </g>
</svg>