<?xml version="1.0" encoding="UTF-8"?>
<svg id="Calque_2" data-name="Calque 2" xmlns="http://www.w3.org/2000/svg" viewBox="0 0 100 100">
  <defs>
    <style>
      .cls-1 {
        fill: #9c936d;
      }
    </style>
  </defs>
  <g id="Calque_1-2" data-name="Calque 1">
    <circle class="cls-1" cx="50" cy="50" r="50"/>
    <path d="m51.32,66.95c1.43,1.39,1.48,3.67.09,5.11-1.39,1.43-3.67,1.48-5.11.09l-.09-.09-5.11-5.11-10.23,10.23c1.41,1.41,1.41,3.7,0,5.11s-3.7,1.41-5.11,0l-5.11-5.11c-1.41-1.41-1.41-3.7,0-5.11s3.7-1.41,5.11,0l10.23-10.23-5.11-5.11c-1.39-1.43-1.34-3.72.09-5.11,1.39-1.36,3.62-1.36,5.03,0l15.34,15.34h0Zm2.56-2.56l-15.34-15.34,30.69-30.69,12.79,2.56,2.56,12.79-30.69,30.69h0Z"/>
  </g>
</svg>