<?xml version="1.0" encoding="UTF-8"?>
<svg id="Calque_2" data-name="Calque 2" xmlns="http://www.w3.org/2000/svg" viewBox="0 0 100 100">
  <defs>
    <style>
      .cls-1 {
        fill: #9c936d;
      }
    </style>
  </defs>
  <g id="Calque_1-2" data-name="Calque 1">
    <circle class="cls-1" cx="50" cy="50" r="50"/>
    <g>
      <path d="m67.81,57.85c-1.66-3.81-2.91-8.25-3.4-13.1.05-2.38-.28-4.83-.97-7.23-1.32-4.59-3.95-9.07-7.83-12.95-2.56-2.56-5.36-4.67-8.29-6.24-2.2-1.18-4.48-2.08-6.79-2.65-3.46-.85-7-.92-10.37-.09s-6.56,2.61-9.26,5.31c-2.4,2.4-4.07,5.19-4.99,8.15-.69,2.22-.97,4.53-.88,6.86.14,3.49,1.09,6.98,2.73,10.32s3.95,6.53,6.83,9.4c5.19,5.19,11.43,8.13,17.55,8.69,1.01.09,2.01.12,3,.09,5.13.35,9.42,1.55,13.05,3.23,2.17,1.01,4.09,2.17,5.8,3.42l9.19-4.55c-1.99-2.26-3.84-5.2-5.36-8.66Zm-18.5.3c-3.09,1.02-6.65,1.06-10.28.02s-7.32-3.17-10.58-6.44c-2.2-2.2-3.99-4.6-5.31-7.02-.99-1.82-1.69-3.67-2.13-5.47-.65-2.72-.69-5.34-.09-7.76.6-2.43,1.83-4.67,3.86-6.7,1.8-1.8,3.79-2.96,5.91-3.63,1.59-.49,3.26-.71,5.01-.63,2.61.11,5.38.83,8.11,2.17s5.45,3.3,7.94,5.77c4.36,4.36,6.68,9.47,7.13,14.18.23,2.36-.02,4.62-.71,6.68-.69,2.05-1.8,3.9-3.37,5.47-1.59,1.57-3.44,2.68-5.49,3.37Zm11.15,4.5c-1.46-.67-2.96-1.23-4.55-1.71.97-.67,1.9-1.43,2.75-2.28.95-.95,1.78-1.99,2.5-3.09.46,1.53,1.01,3.03,1.64,4.48.86,1.98,1.83,3.83,2.89,5.52-1.6-1.06-3.33-2.05-5.24-2.93Z"/>
      <path d="m74.99,68.45l-8.82,4.36c.51.44.99.88,1.45,1.32.14.14.28.26.42.41.21.21.44.44.65.67l8.91-4.41c-.9-.72-1.78-1.53-2.61-2.35Z"/>
      <path d="m84.51,76.74l-10.28,5.1c.16.21.3.41.42.56.19.26.34.46.44.6.05.07.09.12.11.16l.04.04h0l.02.02.02.02c.14.18.28.35.44.51.71.71,1.66,1.15,2.66,1.23h.02c1.23.09,2.45-.35,3.33-1.23l2.05-2.05c.88-.88,1.32-2.1,1.23-3.35h0c-.07-.55-.25-1.09-.49-1.6Z"/>
      <path d="m80.21,72.96c-.16-.12-.3-.25-.46-.37l-9.26,4.59c.78.9,1.52,1.78,2.15,2.57l10-4.96c-.55-.37-1.41-1.01-2.43-1.83Z"/>
      <path d="m40.41,74.02c-2.33,2.2-2.43,5.86-.23,8.18,2.2,2.33,5.86,2.43,8.18.23s2.43-5.86.23-8.18c-2.19-2.33-5.86-2.43-8.18-.23Z"/>
    </g>
  </g>
</svg>