<?xml version="1.0" encoding="UTF-8"?>
<svg id="Calque_2" data-name="Calque 2" xmlns="http://www.w3.org/2000/svg" viewBox="0 0 100 100">
  <defs>
    <style>
      .cls-1 {
        fill: #e8629f;
      }
    </style>
  </defs>
  <g id="Calque_1-2" data-name="Calque 1">
    <circle class="cls-1" cx="50" cy="50" r="50"/>
    <path d="m86.98,30.46c-.46-.63-1.2-.99-2.06-.99-.18,0-.35.02-.53.04-1.48.11-2.96.26-4.39.41-2.19.23-4.23.44-5.87.44-1.01,0-1.78-.09-2.33-.25l-.04-.02c-6.67-1.8-9.52-3.99-13.46-6.98-.95-.9-2.8-2.33-4.74-2.33-1.25,0-2.31.58-3.07,1.68l-.12.19-.07.21c-.34,1.16-.69,2.35-1.04,3.49-.09.3-.18.6-.26.9-.69-.65-1.52-.99-2.49-.99-1.94,0-3.77,1.43-4.74,2.33-3.92,3.02-6.79,5.19-13.46,6.98l-.04.02c-.53.16-1.32.25-2.33.25-1.64,0-3.7-.21-5.89-.44-1.43-.14-2.89-.3-4.37-.41-.18-.02-.37-.04-.53-.04-.86,0-1.6.35-2.06.99-1.11,1.5-.3,4.06.46,6.53.25.79.48,1.53.58,2.03l.02.09.04.09c2.79,8.71,6.28,18.68,12.61,26.88l.07.07c4.37,4.87,9.49,7.55,14.41,7.55h.26c4.69-.39,8.8-3.93,10.18-8.68,1.87,1.8,4.29,2.98,6.88,3.19h.26c4.9,0,10.02-2.68,14.41-7.57l.07-.07c6.35-8.2,9.84-18.17,12.63-26.88l.04-.09.02-.09c.09-.49.32-1.23.56-2.03.71-2.45,1.5-5.01.41-6.51h0Zm-11.6,16.42c-.18.41-.76.42-.93.42-.23,0-.48-.04-.67-.12l-.09-.04-.11-.02c-2.05-.48-3.63-2.61-3.67-4.94v-.09l-.02-.09c-.11-.67.05-1.43.41-1.9.19-.26.44-.42.72-.46l.07-.02c.05-.02.12-.02.18-.02h.09c1.55,0,2.75,1.66,2.96,3.19l.02.18.07.16c.12.28.25.58.39.86.6,1.27.93,2.12.58,2.87h0Zm-12.59-7.05l-.05.05c-1.59,1.73-3.74,2.75-5.73,2.75-.44,0-.88-.05-1.31-.16-.53-.21-1.01-.79-1.16-1.45-.07-.28-.14-.83.19-1.25,1.15-.95,2.73-1.23,4.41-1.52,1.01-.18,2.05-.35,3.07-.71.46.07.69.53.78.74.18.48.19,1.15-.19,1.53h0Zm-5.96,16.53l.07-.04.05-.05c1.55-1.2,3.32-1.87,4.96-1.87,2.26.04,4.59,1.36,6.24,3.53.37.71.44,1.68.14,2.45-.14.39-.44.88-1.01,1.13h-.07c-.37,0-.85-.37-1.38-.78-.39-.3-.79-.62-1.25-.86-1.27-.79-2.79-1.22-4.41-1.22-1.13,0-2.24.19-3.33.58-.14.04-.3.07-.46.07-.05,0-.56,0-.65-.26l-.04-.09c-.39-.9.28-2.06,1.13-2.59h0Zm-7.72,12.89l-.02.09c-.92,3.76-4.18,6.72-7.76,7.04h-.07c-5.5,0-10.05-4.11-12.28-6.58-6.01-7.8-9.4-17.44-12.1-25.89-.12-.65-.37-1.43-.63-2.28-.32-1.01-.93-3.02-.9-3.84l.11.02c1.46.11,2.93.25,4.36.41,2.26.23,4.37.44,6.17.44,1.29,0,2.31-.12,3.12-.35,7.23-1.96,10.42-4.41,14.46-7.51l.05-.04.05-.05c1.04-.97,2.17-1.6,2.87-1.6.18,0,.39.02.62.3.21.76.44,1.5.63,2.13-.04.11-.05.21-.09.32-.04.12-.07.23-.09.35-.32,1.23-.58,2.33-.79,3.39l-.02.12c-.63,5.63-.86,10.69-.65,15.33.21,4.57.83,8.75,1.89,12.68.04.16.09.34.14.49.04.12.07.26.12.39.07.3.16.6.26.88.02.05.04.11.05.18.02.07.05.14.07.21.04.11.09.23.12.34v.02c.21.53.46,1.06.74,1.55-.05.23-.12.46-.19.74-.11.21-.18.49-.26.74h0Z"/>
    <path d="m44.83,57.18c-1.75-.39-1.87,2.24-2.87,3.19-1.55,2.65-4.51,4.74-7.69,4.34-1.36-.12-3.02-1.43-4.2-.14,1.06,1.98,3.14,3.26,5.33,3.58,1.8.37,3.53-.46,5.26-.78,1.36-.35,2.13-1.55,2.93-2.61.99-1.18,1.75-2.57,1.94-4.13.34-1.16.58-2.77-.69-3.46h0Z"/>
    <path d="m31.2,48.78c-1.16-1.57-2.91-2.61-4.74-3.19-1.57-.72-3.92.49-3.65,2.35,1.18,1.64,3.21,2.24,4.87,3.23.42.16.85.37,1.29.51,1.66.74,3.02-1.48,2.24-2.89Z"/>
    <path d="m39.63,48.54c1.38-.12,2.15-1.46,2.47-2.66.53-1.18,1.71-2.45,1.04-3.83-1.27-.93-2.98-.39-4.18.41-1.82,1.06-1.8,3.72-.63,5.27.26.46.76.83,1.31.81Z"/>
  </g>
</svg>