<?xml version="1.0" encoding="UTF-8"?>
<svg id="Calque_2" data-name="Calque 2" xmlns="http://www.w3.org/2000/svg" viewBox="0 0 100 100">
  <defs>
    <style>
      .cls-1 {
        fill: #e8629f;
      }

      .cls-2 {
        fill: #231f20;
      }
    </style>
  </defs>
  <g id="Calque_1-2" data-name="Calque 1">
    <circle class="cls-1" cx="50" cy="50" r="50"/>
    <path class="cls-2" d="m70,15.17H30c-5.5,0-10,4.5-10,10v40c0,5.5,4.5,10,10,10h40c5.5,0,10-4.5,10-10V25.17c-.02-5.49-4.51-10-10-10Zm-36.17,55.33c-3,0-5.33-2.5-5.33-5.33s2.5-5.33,5.33-5.33c3,0,5.33,2.5,5.33,5.33s-2.33,5.33-5.33,5.33Zm32.33,0c-3,0-5.33-2.5-5.33-5.33s2.5-5.33,5.33-5.33c3,0,5.33,2.5,5.33,5.33s-2.33,5.33-5.33,5.33Zm7.16-25.33c0,1.83-1.5,3.33-3.33,3.33H30c-1.83,0-3.33-1.5-3.33-3.33v-20c0-1.83,1.5-3.33,3.33-3.33h40c1.83,0,3.33,1.5,3.33,3.33v20h-.02Z"/>
    <path class="cls-2" d="m70,81.83c0,1.83-1.5,3.33-3.33,3.33h-33.33c-1.83,0-3.33-1.5-3.33-3.33h0c0-1.83,1.5-3.33,3.33-3.33h33.33c1.82,0,3.33,1.5,3.33,3.33h0Z"/>
  </g>
</svg>