<?xml version="1.0" encoding="UTF-8"?>
<svg id="Calque_2" data-name="Calque 2" xmlns="http://www.w3.org/2000/svg" viewBox="0 0 100 100">
  <defs>
    <style>
      .cls-1 {
        fill: #e8629f;
      }
    </style>
  </defs>
  <g id="Calque_1-2" data-name="Calque 1">
    <circle class="cls-1" cx="50" cy="50" r="50"/>
    <g>
      <rect x="17.5" y="24.55" width="64.99" height="6.98"/>
      <path d="m17.5,35.96v39.47h64.99v-39.47H17.5Zm60.92,19.56c0,6.98-5.66,12.65-12.65,12.65h-31.55c-6.98,0-12.65-5.66-12.65-12.65h0c0-6.98,5.66-12.65,12.65-12.65h31.53c7,0,12.66,5.66,12.66,12.65h0Z"/>
      <rect x="39.38" y="47.04" width="21.23" height="16.97"/>
      <path d="m34.8,52.59v-5.56c-4.69,0-8.48,3.79-8.48,8.48s3.79,8.48,8.48,8.48v-5.56c-1.62,0-2.93-1.31-2.93-2.93s1.31-2.93,2.93-2.93Z"/>
      <path d="m65.19,58.45v5.56c4.69,0,8.48-3.79,8.48-8.48s-3.79-8.48-8.48-8.48v5.56c1.62,0,2.93,1.31,2.93,2.93s-1.31,2.93-2.93,2.93Z"/>
    </g>
  </g>
</svg>