<?xml version="1.0" encoding="UTF-8"?>
<svg id="Calque_2" data-name="Calque 2" xmlns="http://www.w3.org/2000/svg" viewBox="0 0 100 100">
  <defs>
    <style>
      .cls-1 {
        fill: #e8629f;
      }
    </style>
  </defs>
  <g id="Calque_1-2" data-name="Calque 1">
    <circle class="cls-1" cx="50" cy="50" r="50"/>
    <g>
      <path d="m50.04,33.51c11.04.02,20.02,9.01,19.96,20.07-.04,11.02-8.99,19.95-20.04,19.95-11.04-.02-20.02-9.01-19.96-20.07.04-11.02,8.99-19.95,20.04-19.95h0Zm-.05,37.5c9.65,0,17.48-7.83,17.51-17.48.04-9.65-7.81-17.51-17.44-17.53-9.68-.02-17.55,7.83-17.55,17.51s7.85,17.5,17.48,17.5h0Z"/>
      <path d="m37.43,60.34c1.01-1.16,1.92-2.24,2.86-3.32.49-.58.95-1.25,1.5-1.8,1.71-1.64,4.18-1.68,5.91-.02.65.62,1.16,1.39,1.75,2.12.55.67,1.04,1.38,1.64,1.96,1.71,1.64,4.22,1.68,5.89-.04,1.02-1.04,1.83-2.28,2.73-3.4.81-1.01,1.82-1.73,3.16-1.8.65-.02,1.32.12,1.96.19-.67,6.12-5.61,11.41-11.64,12.68-6.26,1.32-12.8-1.46-15.75-6.58h0Z"/>
      <path d="m51.57,37.32c4.6.55,8.36,2.8,11.04,6.81.44.67.3,1.39-.3,1.8-.58.39-1.32.26-1.75-.39-2.24-3.39-5.38-5.27-9.38-5.77-.81-.11-1.25-.69-1.16-1.38.07-.63.65-1.09,1.55-1.08h0Z"/>
      <path d="m41.29,53.53c-1.36.02-2.5-1.09-2.52-2.43-.02-1.39,1.11-2.54,2.5-2.54s2.49,1.13,2.5,2.49c-.04,1.31-1.13,2.45-2.49,2.49Z"/>
      <path d="m38.73,47.23c.02.67-.55,1.25-1.23,1.27-.67.02-1.25-.55-1.27-1.23-.02-.69.55-1.25,1.23-1.27.69.02,1.27.58,1.27,1.23h0Z"/>
      <path d="m81.22,21.13c0-1.23-1.69-2.15-3.86-2.15H22.63c-2.28,0-3.86.93-3.88,2.29v7.92h0v47.6c0,2.72,1.5,4.2,4.2,4.2h54.11c2.66,0,4.18-1.5,4.18-4.14V26.01c.02-1.6.02-3.25-.02-4.89Zm-13.97.53c1.52,0,2.75,1.23,2.75,2.75s-1.23,2.75-2.75,2.75-2.75-1.23-2.75-2.75,1.22-2.75,2.75-2.75Zm-17.25,54.36c-12.42,0-22.49-10.07-22.52-22.49,0-12.42,10.07-22.49,22.49-22.52,12.42,0,22.49,10.07,22.52,22.49.02,12.42-10.07,22.52-22.49,22.52Zm25.84-48.85c-1.52,0-2.75-1.23-2.75-2.75s1.23-2.75,2.75-2.75,2.75,1.23,2.75,2.75-1.22,2.75-2.75,2.75Z"/>
    </g>
  </g>
</svg>