<?xml version="1.0" encoding="UTF-8"?>
<svg id="Calque_2" data-name="Calque 2" xmlns="http://www.w3.org/2000/svg" viewBox="0 0 255.01 65.23">
  <defs>
    <style>
      .cls-1 {
        stroke: #261923;
        stroke-width: 1.06px;
      }

      .cls-1, .cls-2, .cls-3 {
        fill: none;
        stroke-miterlimit: 10;
      }

      .cls-4 {
        fill: #e8629f;
      }

      .cls-5 {
        fill: #fcbe1b;
      }

      .cls-6 {
        fill: #261923;
      }

      .cls-2 {
        stroke-width: 1.99px;
      }

      .cls-2, .cls-3 {
        stroke: #fcbe1b;
      }

      .cls-3 {
        stroke-width: 3.98px;
      }
    </style>
  </defs>
  <g id="Calque_1-2" data-name="Calque 1">
    <g>
      <path class="cls-5" d="m10.68,65.23h222.36s7.53-22.59,21.97-22.59H0v3.23h5.06v10.54l4.8,3.63.82,5.2h0Z"/>
      <rect class="cls-5" x="39.91" y="36.42" width="37.32" height="6.24"/>
      <rect class="cls-4" x="50.66" y="24.56" width="15.88" height="11.83"/>
      <rect class="cls-5" x="49.15" y="12.73" width="18.83" height="11.83"/>
      <rect class="cls-4" x="52.86" y="9.64" width="11.5" height="3.09"/>
      <rect class="cls-5" x="49.15" y="26.36" width="18.83" height="2.33"/>
      <line class="cls-2" x1="58.59" y1="9.64" x2="58.59"/>
      <line class="cls-2" x1="54.71" y1="9.64" x2="54.71" y2="3.69"/>
      <line class="cls-2" x1="62.44" y1="9.64" x2="62.44" y2="3.69"/>
      <g>
        <g>
          <rect class="cls-6" x="36.42" y="46.88" width="2.73" height="2.73"/>
          <path class="cls-4" d="m39.03,47.02v2.39h-2.39v-2.39h2.39m.34-.34h-3.09v3.09h3.09v-3.09h0Z"/>
        </g>
        <g>
          <rect class="cls-6" x="40.94" y="46.88" width="2.73" height="2.73"/>
          <path class="cls-4" d="m43.47,47.02v2.39h-2.39v-2.39h2.39m.34-.34h-3.09v3.09h3.09v-3.09h0Z"/>
        </g>
        <g>
          <rect class="cls-6" x="45.38" y="46.88" width="2.73" height="2.73"/>
          <path class="cls-4" d="m47.91,47.02v2.39h-2.39v-2.39h2.39m.36-.34h-3.09v3.09h3.09v-3.09h0Z"/>
        </g>
        <g>
          <rect class="cls-6" x="49.85" y="46.88" width="2.73" height="2.73"/>
          <path class="cls-4" d="m52.38,47.02v2.39h-2.39v-2.39h2.39m.34-.34h-3.09v3.09h3.09v-3.09h0Z"/>
        </g>
        <g>
          <rect class="cls-6" x="54.29" y="46.88" width="2.73" height="2.73"/>
          <path class="cls-4" d="m56.82,47.02v2.39h-2.39v-2.39h2.39m.34-.34h-3.09v3.09h3.09v-3.09h0Z"/>
        </g>
        <g>
          <rect class="cls-6" x="58.73" y="46.88" width="2.73" height="2.73"/>
          <path class="cls-4" d="m61.34,47.02v2.39h-2.47v-2.39h2.47m.34-.34h-3.09v3.09h3.09v-3.09h0Z"/>
        </g>
        <g>
          <rect class="cls-6" x="63.19" y="46.88" width="2.73" height="2.73"/>
          <path class="cls-4" d="m65.78,47.02v2.39h-2.39v-2.39h2.39m.34-.34h-3.15v3.09h3.09v-3.09h.06Z"/>
        </g>
        <g>
          <rect class="cls-6" x="67.64" y="46.88" width="2.73" height="2.73"/>
          <path class="cls-4" d="m70.25,47.02v2.39h-2.39v-2.39h2.39m.34-.34h-3.09v3.09h3.09v-3.09h0Z"/>
        </g>
        <g>
          <rect class="cls-6" x="72.08" y="46.88" width="2.73" height="2.73"/>
          <path class="cls-4" d="m74.69,47.02v2.39h-2.39v-2.39h2.39m.34-.34h-3.09v3.09h3.09v-3.09h0Z"/>
        </g>
        <g>
          <rect class="cls-6" x="76.54" y="46.88" width="2.73" height="2.73"/>
          <path class="cls-4" d="m79.13,47.02v2.39h-2.39v-2.39h2.39m.34-.34h-3.09v3.09h3.09v-3.09h0Z"/>
        </g>
        <g>
          <rect class="cls-6" x="80.99" y="46.88" width="2.73" height="2.73"/>
          <path class="cls-4" d="m83.6,47.02v2.39h-2.39v-2.39h2.39m.34-.34h-3.09v3.09h3.09v-3.09h0Z"/>
        </g>
        <g>
          <rect class="cls-6" x="85.43" y="46.88" width="2.73" height="2.73"/>
          <path class="cls-4" d="m88.04,47.02v2.39h-2.39v-2.39h2.39m.34-.34h-3.09v3.09h3.09v-3.09h0Z"/>
        </g>
        <g>
          <rect class="cls-6" x="89.89" y="46.88" width="2.73" height="2.73"/>
          <path class="cls-4" d="m92.48,47.02v2.39h-2.39v-2.39h2.39m.36-.34h-3.09v3.09h3.09v-3.09h0Z"/>
        </g>
        <g>
          <rect class="cls-6" x="94.33" y="46.88" width="2.73" height="2.73"/>
          <path class="cls-4" d="m96.94,47.02v2.39h-2.39v-2.39h2.39m.34-.34h-3.09v3.09h3.09v-3.09h0Z"/>
        </g>
        <g>
          <rect class="cls-6" x="98.86" y="46.88" width="2.73" height="2.73"/>
          <path class="cls-4" d="m101.39,47.02v2.39h-2.39v-2.39h2.39m.34-.34h-3.09v3.09h3.09v-3.09h0Z"/>
        </g>
        <g>
          <rect class="cls-6" x="103.3" y="46.88" width="2.73" height="2.73"/>
          <path class="cls-4" d="m105.83,47.02v2.39h-2.39v-2.39h2.39m.36-.34h-3.09v3.09h3.09v-3.09h0Z"/>
        </g>
        <g>
          <rect class="cls-6" x="107.76" y="46.88" width="2.73" height="2.73"/>
          <path class="cls-4" d="m110.29,47.02v2.39h-2.39v-2.39h2.39m.34-.34h-3.09v3.09h3.09v-3.09h0Z"/>
        </g>
      </g>
      <polygon class="cls-4" points="250.63 45.86 0 45.86 0 42.63 255.01 42.63 250.63 45.86"/>
      <polygon class="cls-4" points="5.06 56.4 21.02 56.4 31.56 45.86 5.06 45.86 5.06 56.4"/>
      <g>
        <g>
          <rect class="cls-4" x="116.17" y="44.43" width="23.21" height="9.38"/>
          <path class="cls-6" d="m139.24,44.57v9.04h-22.85v-9.04h22.85m.34-.36h-23.55v9.72h23.55v-9.72h0Z"/>
        </g>
        <g>
          <line class="cls-1" x1="117.01" y1="45.44" x2="138.5" y2="45.44"/>
          <line class="cls-1" x1="117.01" y1="46.82" x2="138.5" y2="46.82"/>
          <line class="cls-1" x1="117.01" y1="48.19" x2="138.5" y2="48.19"/>
          <line class="cls-1" x1="117.01" y1="49.49" x2="138.5" y2="49.49"/>
          <line class="cls-1" x1="117.01" y1="50.86" x2="138.5" y2="50.86"/>
          <line class="cls-1" x1="117.01" y1="52.16" x2="138.5" y2="52.16"/>
        </g>
      </g>
      <g>
        <g>
          <rect class="cls-4" x="150.2" y="44.43" width="23.21" height="9.38"/>
          <path class="cls-6" d="m173.27,44.57v9.04h-22.87v-9.04h22.87m.34-.36h-23.55v9.72h23.55v-9.72h0Z"/>
        </g>
        <g>
          <line class="cls-1" x1="151.01" y1="45.44" x2="172.51" y2="45.44"/>
          <line class="cls-1" x1="151.01" y1="46.82" x2="172.51" y2="46.82"/>
          <line class="cls-1" x1="151.01" y1="48.19" x2="172.51" y2="48.19"/>
          <line class="cls-1" x1="151.01" y1="49.49" x2="172.51" y2="49.49"/>
          <line class="cls-1" x1="151.01" y1="50.86" x2="172.51" y2="50.86"/>
          <line class="cls-1" x1="151.01" y1="52.16" x2="172.51" y2="52.16"/>
        </g>
      </g>
      <g>
        <g>
          <rect class="cls-4" x="184.23" y="44.43" width="23.21" height="9.38"/>
          <path class="cls-6" d="m207.3,44.57v9.04h-22.87v-9.04h22.87m.34-.36h-23.55v9.72h23.55v-9.72h0Z"/>
        </g>
        <g>
          <line class="cls-1" x1="185.04" y1="45.44" x2="206.54" y2="45.44"/>
          <line class="cls-1" x1="185.04" y1="46.82" x2="206.54" y2="46.82"/>
          <line class="cls-1" x1="185.04" y1="48.19" x2="206.54" y2="48.19"/>
          <line class="cls-1" x1="185.04" y1="49.49" x2="206.54" y2="49.49"/>
          <line class="cls-1" x1="185.04" y1="50.86" x2="206.54" y2="50.86"/>
          <line class="cls-1" x1="185.04" y1="52.16" x2="206.54" y2="52.16"/>
        </g>
      </g>
      <polygon class="cls-4" points="235.23 60.03 9.92 60.03 10.68 65.23 233.04 65.23 235.23 60.03"/>
      <g>
        <rect class="cls-6" x="136.91" y="57.84" width="2.47" height="1.43"/>
        <path class="cls-4" d="m139.24,57.98v1.1h-2.13v-1.1h2.13m.34-.34h-2.81v1.77h2.81v-1.77h0Z"/>
      </g>
      <g>
        <rect class="cls-6" x="89.13" y="57.84" width="2.47" height="1.43"/>
        <path class="cls-4" d="m91.39,57.98v1.1h-2.13v-1.1h2.13m.36-.34h-2.73v1.77h2.81v-1.77h-.08Z"/>
      </g>
      <g>
        <rect class="cls-6" x="84.89" y="57.84" width="2.47" height="1.43"/>
        <path class="cls-4" d="m87.14,57.98v1.1h-2.13v-1.1h2.13m.36-.34h-2.81v1.77h2.81v-1.77h0Z"/>
      </g>
      <g>
        <rect class="cls-6" x="63.73" y="14.22" width="2.67" height="8.29"/>
        <path class="cls-4" d="m66.2,14.36v7.95h-2.33v-7.95h2.33m.34-.34h-3.01v8.63h3.01v-8.63h0Z"/>
      </g>
      <g>
        <rect class="cls-6" x="57.24" y="14.22" width="2.67" height="8.29"/>
        <path class="cls-4" d="m59.77,14.36v7.95h-2.33v-7.95h2.33m.34-.34h-3.01v8.63h3.01v-8.63h0Z"/>
      </g>
      <g>
        <rect class="cls-6" x="50.8" y="14.22" width="2.67" height="8.29"/>
        <path class="cls-4" d="m53.25,14.36v7.95h-2.33v-7.95h2.33m.36-.34h-2.95v8.63h3.01v-8.63h-.06Z"/>
      </g>
      <g>
        <rect class="cls-6" x="80.51" y="57.84" width="2.47" height="1.43"/>
        <path class="cls-4" d="m82.76,57.98v1.1h-2.13v-1.1h2.13m.36-.34h-2.81v1.77h2.81v-1.77h0Z"/>
      </g>
      <g>
        <rect class="cls-6" x="44.71" y="57.84" width="2.47" height="1.43"/>
        <path class="cls-4" d="m46.96,57.98v1.1h-2.13v-1.1h2.13m.34-.34h-2.81v1.77h2.81v-1.77h0Z"/>
      </g>
      <g>
        <rect class="cls-6" x="27.65" y="57.84" width="2.47" height="1.43"/>
        <path class="cls-4" d="m29.92,57.98v1.1h-2.13v-1.1h2.13m.34-.34h-2.81v1.77h2.81v-1.77h0Z"/>
      </g>
      <g>
        <rect class="cls-6" x="171.02" y="57.84" width="2.47" height="1.43"/>
        <path class="cls-4" d="m173.27,57.98v1.1h-2.13v-1.1h2.13m.34-.34h-2.81v1.77h2.81v-1.77h0Z"/>
      </g>
      <g>
        <rect class="cls-6" x="205.04" y="57.84" width="2.47" height="1.43"/>
        <path class="cls-4" d="m207.3,57.98v1.1h-2.13v-1.1h2.13m.34-.34h-2.81v1.77h2.81v-1.77h0Z"/>
      </g>
      <line class="cls-3" x1="15.26" y1="42.63" x2="15.26" y2="30.46"/>
      <line class="cls-3" x1="94.06" y1="42.63" x2="94.06" y2="30.46"/>
      <line class="cls-3" x1="133.14" y1="42.63" x2="133.14" y2="30.46"/>
      <line class="cls-3" x1="170.8" y1="42.63" x2="170.8" y2="30.46"/>
      <line class="cls-3" x1="217.08" y1="42.63" x2="217.08" y2="30.46"/>
    </g>
  </g>
</svg>