<?xml version="1.0" encoding="UTF-8"?>
<svg id="Calque_2" data-name="Calque 2" xmlns="http://www.w3.org/2000/svg" viewBox="0 0 165.55 87.92">
  <defs>
    <style>
      .cls-1 {
        fill: #e8629f;
      }

      .cls-2 {
        fill: #fcbe1b;
      }

      .cls-3 {
        fill: #261923;
      }

      .cls-4 {
        fill: none;
        stroke: #e8629f;
        stroke-miterlimit: 10;
        stroke-width: 5.17px;
      }
    </style>
  </defs>
  <g id="Calque_1-2" data-name="Calque 1">
    <g>
      <rect class="cls-2" x="42.02" y="74.06" width="81.49" height="13.86"/>
      <g>
        <line class="cls-4" x1="50.58" y1="74.06" x2="50.58" y2="65.37"/>
        <line class="cls-4" x1="115.28" y1="74.06" x2="115.28" y2="65.37"/>
      </g>
      <rect class="cls-1" x="122.02" y="10.99" width="37.64" height="47.52"/>
      <ellipse class="cls-2" cx="82.78" cy="34.78" rx="82.78" ry="34.78"/>
      <ellipse class="cls-1" cx="82.78" cy="34.78" rx="82.78" ry="23.75"/>
      <ellipse class="cls-2" cx="82.78" cy="34.78" rx="82.78" ry="8.45"/>
      <g>
        <rect class="cls-3" x="51.54" y="77.41" width="28.73" height="7.33"/>
        <path class="cls-1" d="m79.71,78v6.13h-27.52v-6.13h27.52m1.19-1.2h-29.92v8.52h29.92v-8.52h0Z"/>
      </g>
      <g>
        <rect class="cls-3" x="85.25" y="77.41" width="28.73" height="7.33"/>
        <path class="cls-1" d="m113.36,78v6.13h-27.52v-6.13h27.52m1.2-1.2h-29.92v8.52h29.92v-8.52h0Z"/>
      </g>
    </g>
  </g>
</svg>