<?xml version="1.0" encoding="UTF-8"?>
<svg id="Calque_2" data-name="Calque 2" xmlns="http://www.w3.org/2000/svg" viewBox="0 0 201.08 72.12">
  <defs>
    <style>
      .cls-1 {
        fill: #e8629f;
      }

      .cls-2 {
        fill: #fcbe1b;
      }

      .cls-3 {
        fill: #e7629e;
      }

      .cls-4 {
        fill: #261923;
      }
    </style>
  </defs>
  <g id="Calque_1-2" data-name="Calque 1">
    <g>
      <path class="cls-2" d="m197.72,30.98c-1.73-5.22-3.5-3.77-3.5-3.77-1.73-7.82-5.83-4.16-6.66-6.11-3.77-8.78-11.33-4.34-11.33-4.34-6.22-10.71-17.99-3.77-17.99-3.77-10.16-9.55-20-1.16-20-1.16-11.33-14.22-24.66-2.61-24.66-2.61C108.8.9,100.7,0,100.7,0c0,0-8.11.9-13.05,9.27,0,0-13.32-11.61-24.66,2.61,0,0-9.83-8.39-20,1.16,0,0-11.72-6.94-17.99,3.77,0,0-7.56-4.45-11.33,4.34-.83,1.95-4.95-1.73-6.66,6.11,0,0-1.73-1.45-3.5,3.77,0,0-2-1.27-3.5,1.23v39.87h201.08v-39.87c-1.3-2.5-3.36-1.27-3.36-1.27h0Z"/>
      <g>
        <rect class="cls-3" x="83.6" y="4.48" width="3.77" height="67.64"/>
        <rect class="cls-3" x="60.28" y="7.1" width="3.77" height="65.02"/>
        <rect class="cls-3" x="40.73" y="10.26" width="3.77" height="61.86"/>
        <rect class="cls-3" x="22.75" y="14.31" width="3.77" height="57.81"/>
        <rect class="cls-3" x="11.14" y="18.03" width="2.61" height="54.09"/>
      </g>
      <g>
        <g>
          <path class="cls-4" d="m66.89,70.39v-18.76c0-3.94,3.22-7.23,7.23-7.23s7.23,3.22,7.23,7.23v18.77h-14.45v-.02Z"/>
          <path class="cls-1" d="m74.12,45.02c3.66,0,6.66,3,6.66,6.66v18.21h-13.27v-18.25c-.06-3.68,2.94-6.61,6.61-6.61m0-1.12h0c-4.27,0-7.78,3.44-7.78,7.78v19.32h15.49v-19.37c0-4.29-3.44-7.73-7.71-7.73h0Z"/>
        </g>
        <g>
          <path class="cls-4" d="m47.24,70.39v-18.88c0-2.83,2.32-5.17,5.17-5.17s5.17,2.32,5.17,5.17v18.95h-10.32v-.06h-.02Z"/>
          <path class="cls-1" d="m52.34,46.91c2.56,0,4.6,2.06,4.6,4.6v18.38h-9.16v-18.38c0-2.54,2.06-4.6,4.56-4.6m0-1.12h0c-3.16,0-5.72,2.56-5.72,5.72v19.5h11.44v-19.5c0-3.16-2.56-5.72-5.72-5.72h0Z"/>
        </g>
        <g>
          <path class="cls-4" d="m28.51,70.39v-17.2c0-2.83,2.32-5.17,5.17-5.17s5.17,2.32,5.17,5.17v17.22h-10.34v-.02Z"/>
          <path class="cls-1" d="m33.68,48.57c2.56,0,4.6,2.06,4.6,4.6v16.65h-9.22v-16.65c.02-2.54,2.07-4.6,4.62-4.6m0-1.12h0c-3.16,0-5.72,2.56-5.72,5.72v17.77h11.44v-17.75c0-3.17-2.54-5.73-5.72-5.73h0Z"/>
        </g>
        <g>
          <path class="cls-4" d="m15.08,70.39v-16.93c0-1.73,1.38-3.16,3.16-3.16s3.16,1.38,3.16,3.16v16.93h-6.32Z"/>
          <path class="cls-1" d="m18.24,50.85c1.45,0,2.61,1.16,2.61,2.61v16.38h-5.15v-16.38c-.06-1.45,1.12-2.61,2.54-2.61m0-1.12h0c-2.06,0-3.72,1.67-3.72,3.72v17.5h7.38v-17.5c.06-2.06-1.6-3.72-3.66-3.72h0Z"/>
        </g>
        <g>
          <path class="cls-4" d="m6.69,70.39v-16.6c0-.94.77-1.67,1.67-1.67s1.67.77,1.67,1.67v16.6h-3.33Z"/>
          <path class="cls-1" d="m8.42,52.69c.61,0,1.12.5,1.12,1.12v16.05h-2.28v-16.07c0-.6.55-1.1,1.16-1.1m0-1.12h0c-1.23,0-2.22,1.01-2.22,2.22v17.15h4.49v-17.15c-.06-1.21-1.05-2.22-2.28-2.22h0Z"/>
        </g>
        <g>
          <path class="cls-4" d="m66.89,16.09c0-3.94,3.22-7.23,7.23-7.23s7.23,3.22,7.23,7.23v16.71l-14.39.83-.06-17.55h0Z"/>
          <path class="cls-1" d="m74.12,9.43c3.66,0,6.66,3,6.66,6.66v16.21l-13.27.72v-16.93c-.06-3.66,2.94-6.66,6.61-6.66m0-1.12h0c-4.27,0-7.78,3.44-7.78,7.78v18.1l15.49-.9v-17.2c0-4.27-3.44-7.78-7.71-7.78h0Z"/>
        </g>
        <g>
          <path class="cls-4" d="m46.12,19.48c0-3.72,2.72-6.72,6.05-6.72s6.05,3,6.05,6.72v15.66l-12.16.72.06-16.38h0Z"/>
          <path class="cls-1" d="m52.17,13.37c3.05,0,5.5,2.78,5.5,6.16v15.11l-11.04.66v-15.82c.05-3.39,2.5-6.11,5.55-6.11m0-1.12h0c-3.66,0-6.61,3.28-6.61,7.27v17l13.27-.83v-16.21c0-4.01-2.98-7.23-6.66-7.23h0Z"/>
        </g>
        <g>
          <path class="cls-4" d="m28.51,21.43c0-3.61,2.32-6.5,5.17-6.5s5.17,2.94,5.17,6.5v15.38l-10.32,1.23v-16.6h-.02Z"/>
          <path class="cls-1" d="m33.68,15.43c2.56,0,4.6,2.67,4.6,5.94v14.88l-9.22,1.05v-15.87c.02-3.28,2.07-6,4.62-6m0-1.12h0c-3.16,0-5.72,3.16-5.72,7.05v17.22l11.44-1.34v-15.82c0-3.94-2.54-7.12-5.72-7.12h0Z"/>
        </g>
        <g>
          <path class="cls-4" d="m15.74,25.37c0-3.44,1.45-5.78,2.83-5.78s2.83,2.32,2.83,5.78v13.67l-5.66,1.49v-15.16h0Z"/>
          <path class="cls-1" d="m18.58,20.14c.94,0,2.28,2.06,2.28,5.22v13.21l-4.49,1.16v-14.36c-.02-3.17,1.32-5.23,2.22-5.23m0-1.1h0c-1.89,0-3.39,2.83-3.39,6.33v15.82l6.72-1.73v-14.09c.05-3.5-1.45-6.33-3.33-6.33h0Z"/>
        </g>
        <g>
          <path class="cls-4" d="m8.36,29.97c0-2.67.5-4.38.83-4.71.33.39.83,2.11.83,4.71v11.94l-1.73.61.06-12.55h0Z"/>
          <path class="cls-1" d="m9.19,26.86c.17.77.28,1.84.28,3.16v11.55l-.61.22v-11.83c.06-1.32.17-2.37.33-3.09m0-2.22c-.77,0-1.38,2.39-1.38,5.33v13.32l2.83-1.01v-12.33c-.05-2.92-.66-5.31-1.45-5.31h0Z"/>
        </g>
      </g>
      <g>
        <rect class="cls-3" x="114.03" y="4.48" width="3.77" height="67.64"/>
        <rect class="cls-3" x="137.36" y="7.1" width="3.77" height="65.02"/>
        <rect class="cls-3" x="156.9" y="10.26" width="3.77" height="61.86"/>
        <rect class="cls-3" x="174.84" y="14.31" width="3.77" height="57.81"/>
        <rect class="cls-3" x="187.62" y="18.03" width="2.61" height="54.09"/>
      </g>
      <g>
        <g>
          <path class="cls-4" d="m120.1,70.39v-18.76c0-3.94,3.22-7.23,7.23-7.23s7.23,3.22,7.23,7.23v18.77h-14.45v-.02Z"/>
          <path class="cls-1" d="m127.26,45.02c3.66,0,6.66,3,6.66,6.66v18.21h-13.27v-18.25c0-3.68,2.94-6.61,6.61-6.61m0-1.12h0c-4.27,0-7.78,3.44-7.78,7.78v19.32h15.49v-19.37c.05-4.29-3.44-7.73-7.71-7.73h0Z"/>
        </g>
        <g>
          <path class="cls-4" d="m143.85,70.39v-18.88c0-2.83,2.32-5.17,5.17-5.17s5.17,2.32,5.17,5.17v18.95h-10.32v-.06h-.02Z"/>
          <path class="cls-1" d="m149.02,46.91c2.56,0,4.6,2.06,4.6,4.6v18.38h-9.22v-18.38c.02-2.54,2.07-4.6,4.62-4.6m0-1.12h0c-3.16,0-5.72,2.56-5.72,5.72v19.5h11.44v-19.5c0-3.16-2.54-5.72-5.72-5.72h0Z"/>
        </g>
        <g>
          <path class="cls-4" d="m162.51,70.39v-17.2c0-2.83,2.32-5.17,5.17-5.17s5.17,2.32,5.17,5.17v17.22h-10.34v-.02Z"/>
          <path class="cls-1" d="m167.68,48.57c2.56,0,4.6,2.06,4.6,4.6v16.65h-9.22v-16.65c.02-2.54,2.12-4.6,4.62-4.6m0-1.12h0c-3.16,0-5.72,2.56-5.72,5.72v17.77h11.44v-17.75c0-3.17-2.56-5.73-5.72-5.73h0Z"/>
        </g>
        <g>
          <path class="cls-4" d="m179.95,70.39v-16.93c0-1.73,1.38-3.16,3.16-3.16s3.16,1.38,3.16,3.16v16.93h-6.32Z"/>
          <path class="cls-1" d="m183.12,50.85c1.45,0,2.61,1.16,2.61,2.61v16.38h-5.17v-16.38c-.05-1.45,1.12-2.61,2.56-2.61m0-1.12c-2.06,0-3.72,1.67-3.72,3.72v17.5h7.38v-17.5c.06-2.06-1.62-3.72-3.66-3.72h0Z"/>
        </g>
        <g>
          <path class="cls-4" d="m191.28,70.39v-16.6c0-.94.77-1.67,1.67-1.67s1.67.77,1.67,1.67v16.6h-3.33Z"/>
          <path class="cls-1" d="m192.94,52.69c.61,0,1.12.5,1.12,1.12v16.05h-2.28v-16.07c.06-.6.55-1.1,1.16-1.1m0-1.12c-1.23,0-2.22,1.01-2.22,2.22v17.15h4.49v-17.15c0-1.21-.99-2.22-2.28-2.22h0Z"/>
        </g>
        <g>
          <path class="cls-4" d="m120.1,32.8v-16.71c0-3.94,3.22-7.23,7.23-7.23s7.23,3.22,7.23,7.23v17.5l-14.45-.79h0Z"/>
          <path class="cls-1" d="m127.26,9.43c3.66,0,6.66,3,6.66,6.66v16.93l-13.27-.77v-16.16c0-3.66,2.94-6.66,6.61-6.66m0-1.12h0c-4.27,0-7.78,3.44-7.78,7.78v17.22l15.49.9v-18.11c.05-4.27-3.44-7.78-7.71-7.78h0Z"/>
        </g>
        <g>
          <path class="cls-4" d="m143.14,35.14v-15.66c0-3.72,2.72-6.72,6.05-6.72s6.05,3,6.05,6.72v16.38l-12.1-.72h0Z"/>
          <path class="cls-1" d="m149.19,13.37c3.05,0,5.5,2.78,5.5,6.16v15.77l-11.04-.66v-15.16c-.02-3.39,2.48-6.11,5.55-6.11m0-1.12h0c-3.66,0-6.61,3.28-6.61,7.27v16.16l13.27.83v-17.04c-.06-4.01-3-7.23-6.66-7.23h0Z"/>
        </g>
        <g>
          <path class="cls-4" d="m162.51,36.81v-15.38c0-3.61,2.32-6.5,5.17-6.5s5.17,2.94,5.17,6.5v16.6l-10.34-1.23h0Z"/>
          <path class="cls-1" d="m167.68,15.43c2.56,0,4.6,2.67,4.6,5.94v15.99l-9.22-1.05v-14.88c.02-3.28,2.12-5.95,4.62-6m0-1.05h0c-3.16,0-5.72,3.16-5.72,7.05v15.88l11.44,1.34v-17.22c0-3.94-2.56-7.12-5.72-7.05h0Z"/>
        </g>
        <g>
          <path class="cls-4" d="m179.95,39.02v-13.67c0-3.44,1.45-5.78,2.83-5.78s2.83,2.32,2.83,5.78v15.11l-5.66-1.45h0Z"/>
          <path class="cls-1" d="m182.78,20.14c.94,0,2.28,2.06,2.28,5.22v14.39l-4.49-1.16v-13.21c-.05-3.17,1.34-5.23,2.22-5.23m0-1.1h0c-1.89,0-3.39,2.83-3.39,6.33v14.11l6.72,1.73v-15.83c.06-3.5-1.43-6.33-3.33-6.33h0Z"/>
        </g>
        <g>
          <path class="cls-4" d="m191.34,41.91v-11.94c0-2.67.5-4.38.83-4.71.33.39.83,2.11.83,4.71v12.55l-1.67-.61h0Z"/>
          <path class="cls-1" d="m192.17,26.86c.17.77.28,1.84.28,3.16v11.77l-.55-.22v-11.61c-.02-1.26.09-2.37.27-3.09m0-2.22c-.77,0-1.38,2.39-1.38,5.33v12.33l2.78,1.01v-13.32c-.02-2.95-.63-5.34-1.4-5.34h0Z"/>
        </g>
      </g>
      <g>
        <path class="cls-4" d="m92.76,70.39v-19.21c0-4.38,3.55-7.93,7.93-7.93s7.93,3.55,7.93,7.93v19.21h-15.87Z"/>
        <path class="cls-1" d="m100.71,43.86c4.05,0,7.38,3.33,7.38,7.38v18.66h-14.72v-18.73c-.05-4.05,3.22-7.32,7.34-7.32m0-1.12h0c-4.67,0-8.5,3.77-8.5,8.5v19.76h16.93v-19.83c0-4.67-3.77-8.44-8.44-8.44h0Z"/>
      </g>
      <g>
        <path class="cls-4" d="m92.76,31.7V14.92c0-4.38,3.55-7.93,7.93-7.93s7.93,3.55,7.93,7.93v16.78h-15.87Z"/>
        <path class="cls-1" d="m100.71,7.54c4.05,0,7.38,3.33,7.38,7.38v16.21h-14.72V14.92c-.05-4.05,3.22-7.38,7.34-7.38m0-1.12h0c-4.67,0-8.5,3.77-8.5,8.5v17.33h16.93V14.92c0-4.67-3.77-8.5-8.44-8.5h0Z"/>
      </g>
    </g>
  </g>
</svg>