<?xml version="1.0" encoding="UTF-8"?>
<svg id="Calque_2" data-name="Calque 2" xmlns="http://www.w3.org/2000/svg" viewBox="0 0 125.08 75.01">
  <defs>
    <style>
      .cls-1 {
        fill: #ea629f;
      }

      .cls-2 {
        fill: none;
        stroke: #ea629f;
        stroke-miterlimit: 10;
        stroke-width: 2.23px;
      }
    </style>
  </defs>
  <g id="Calque_1-2" data-name="Calque 1">
    <g>
      <path class="cls-2" d="m123.97,62.53C123.97,28.62,96.47,1.12,62.54,1.12S1.12,28.61,1.12,62.53c0,15.14,122.85,15.14,122.85,0Z"/>
      <path class="cls-2" d="m123.97,62.53c0,15.15-122.84,15.15-122.84,0C1.13,28.62,28.63,1.12,62.54,1.12s61.43,27.49,61.43,61.41Z"/>
      <path class="cls-1" d="m123.9,60.56l-1.03,1.03-4.47-4.49,4.49-4.49.31.31c-.11-.76-.22-1.52-.36-2.26l-4.45-4.42,2.73-2.73c-.13-.49-.29-.96-.45-1.45l-3.22,3.22-4.49-4.49,4.49-4.49,1.76,1.76c-.51-1.3-1.07-2.55-1.68-3.75l-.09.09-4.49-4.49,1.34-1.34c-.25-.38-.49-.76-.76-1.14l-1.52,1.52-4.49-4.49,2.1-2.1c-.29-.34-.58-.67-.89-1.01l-2.17,2.17-4.49-4.49,2.12-2.12c-.34-.29-.67-.58-1.03-.87l-2.03,2.03-4.49-4.49,1.36-1.36c-.38-.25-.76-.49-1.16-.74l-1.16,1.16-4.09-4.09c-1.14-.56-2.3-1.09-3.48-1.59l1.21,1.21-4.47,4.56-4.49-4.49,2.97-2.97c-.47-.16-.96-.31-1.45-.45l-2.48,2.48-4.09-4.09c-.76-.16-1.54-.29-2.3-.4l.02.02-4.47,4.47-4.47-4.49.78-.78c-1.16-.04-2.35-.04-3.51-.02l.83.83-4.49,4.49-4.49-4.49.22-.22c-.74.09-1.5.2-2.23.34l-4.38,4.38-2.77-2.77c-.49.13-.98.29-1.45.42l3.28,3.28-4.47,4.47-4.47-4.49,2.01-2.01c-1.41.54-2.81,1.12-4.18,1.74l.27.27-4.49,4.49-1.63-1.63c-.4.25-.78.47-1.16.71l1.85,1.85-4.49,4.49-2.59-2.61c-.36.29-.69.56-1.03.85l2.68,2.68-4.49,4.49-2.79-2.79c-.31.34-.6.65-.92.98l2.77,2.77-4.49,4.49-2.26-2.26c-.27.38-.51.74-.76,1.12l2.08,2.08-4.49,4.49-.92-.92c-.22.42-.42.85-.63,1.27l.6.6-1.61,1.61c-.45,1.03-.85,2.08-1.25,3.15l3.8-3.8,4.49,4.49-4.49,4.49-4.16-4.16c-.16.47-.31.94-.47,1.43l3.69,3.62-4.49,4.49-1.03-1.01c-.11.54-.2,1.07-.29,1.61l.36.36-.49.49c-.11.71-.22,1.45-.31,2.21l1.76-1.76,4.49,4.49-4.49,4.49-2.16-2.2c-.04.6-.07,1.21-.09,1.81l1.34,1.34-1.12,1.12c.18.4.42.76.76,1.14l1.34-1.34,4.49,4.49-.11.11c.94.34,1.97.67,3.08.98l-1.07-1.07,4.45-4.49,4.49,4.49-2.39,2.39c.51.11,1.05.2,1.59.31l1.74-1.74,2.43,2.43c.71.11,1.45.22,2.21.31l-3.71-3.71,4.49-4.49,4.49,4.49-3.89,3.89c.56.07,1.12.13,1.7.2l3.15-3.15,3.84,3.84c.96.09,1.94.16,2.93.22l4.09-4.09,4.49,4.49-.11.11c.74.04,1.47.07,2.23.09l-.22-.22,4.49-4.49,4.49,4.49-.45.45c.94.02,1.88.02,2.84.04l-.49-.49,4.49-4.49,4.49,4.49-.47.47c.94,0,1.88-.02,2.79-.04l-.42-.42,4.49-4.49,4.47,4.49-.16.16c.71-.02,1.41-.07,2.12-.11l-.07-.07,4.49-4.49,4,4c1.05-.09,2.1-.18,3.13-.27l3.73-3.73,3.02,3.02c.56-.07,1.12-.13,1.68-.22l-3.73-3.73,4.49-4.49,4.49,4.49-3.48,3.48c.76-.11,1.52-.22,2.23-.34l2.21-2.21,1.54,1.54c.54-.11,1.07-.2,1.56-.31l-2.17-2.17,4.49-4.49,4.49,4.49-.54.54c1.12-.36,2.12-.74,3.02-1.14l4.96-4.96c-.13-.56-.15-1.19-.17-1.79h0Zm-1.97-8.89l-4.49,4.49-4.49-4.49,4.49-4.49,4.49,4.49Zm-5.43-5.43l-4.49,4.49-4.47-4.49,4.49-4.49,4.47,4.49Zm-15.32-6.37l-4.49-4.49,4.49-4.49,4.49,4.49-4.49,4.49Zm5.43-3.53l4.47,4.49-4.47,4.49-4.49-4.49,4.49-4.49Zm-71.53,4.47l-4.49,4.49-4.49-4.49,4.49-4.49,4.49,4.49Zm-3.53-5.43l4.49-4.49,4.49,4.49-4.49,4.49-4.49-4.49Zm4.47,6.39l4.49,4.49-4.49,4.49-4.47-4.51,4.47-4.47Zm.96-.96l4.49-4.49,4.47,4.49-4.47,4.49-4.49-4.49h0Zm37.06-6.36l-4.49-4.49,4.49-4.49,4.47,4.49-4.47,4.49Zm5.4-3.53l4.49,4.49-4.49,4.49-4.49-4.49,4.49-4.49h0Zm-6.36,4.46l-4.49,4.49-4.47-4.49,4.49-4.49,4.47,4.49h0Zm-9.92-.93l-4.49-4.49,4.49-4.49,4.49,4.49-4.49,4.49Zm-.94.93l-4.49,4.49-4.49-4.49,4.49-4.49,4.49,4.49h0Zm-9.92-.93l-4.49-4.49,4.49-4.49,4.49,4.49-4.49,4.49Zm-.94.93l-4.49,4.49-4.49-4.49,4.49-4.49,4.49,4.49h0Zm-4.49,6.39l4.49,4.49-4.49,4.49-4.47-4.51,4.47-4.47Zm.96-.96l4.49-4.49,4.49,4.49-4.49,4.49-4.49-4.49Zm9.9.96l4.49,4.49-4.49,4.49-4.47-4.51,4.47-4.47Zm.96-.96l4.49-4.49,4.49,4.49-4.49,4.49-4.49-4.49Zm9.9.96l4.49,4.49-4.49,4.47-4.47-4.49,4.47-4.47Zm.96-.96l4.49-4.49,4.47,4.49-4.47,4.49-4.49-4.49Zm9.89.96l4.49,4.49-4.49,4.49-4.47-4.51,4.47-4.47Zm.96-.96l4.49-4.49,4.49,4.49-4.49,4.49-4.49-4.49Zm5.43-5.43l4.49-4.49,4.49,4.49-4.49,4.49-4.49-4.49Zm4.47,6.39l4.49,4.49-4.49,4.49-4.47-4.51,4.47-4.47Zm.96-.96l4.49-4.49,4.49,4.49-4.49,4.49-4.49-4.49Zm4.47-6.36l-4.49-4.49,4.49-4.49,4.49,4.49-4.49,4.49Zm-5.43-5.43l-4.49-4.49,4.49-4.49,4.49,4.49-4.49,4.49Zm-.94.94l-4.49,4.49-4.49-4.49,4.49-4.49,4.49,4.49Zm-9.92-.94l-4.49-4.49,4.49-4.49,4.49,4.49-4.49,4.49Zm-5.42-5.43l-4.49-4.47,4.49-4.49,4.47,4.49-4.47,4.47Zm-.94.94l-4.49,4.49-4.47-4.49,4.47-4.47,4.49,4.47Zm-9.92-.94l-4.49-4.47,4.49-4.49,4.49,4.49-4.49,4.47Zm-.94.94l-4.49,4.49-4.49-4.49,4.49-4.49,4.49,4.49Zm-9.92-.94l-4.49-4.49,4.49-4.49,4.49,4.49-4.49,4.49Zm-.94.94l-4.49,4.49-4.49-4.49,4.49-4.49,4.49,4.49Zm-5.42,5.43l-4.47,4.49-4.49-4.49,4.49-4.49,4.47,4.49Zm-9.92-.94l-4.49-4.49,4.49-4.49,4.49,4.49-4.49,4.49Zm-.94.94l-4.49,4.49-4.49-4.49,4.49-4.49,4.49,4.49Zm-5.43,5.42l-4.49,4.49-4.49-4.49,4.49-4.49,4.49,4.49h0Zm-5.43,5.43l-4.49,4.49-4.49-4.49,4.49-4.49,4.49,4.49Zm0,10.86l-4.49,4.49-4.49-4.49,4.49-4.49,4.49,4.49Zm-3.53-5.43l4.49-4.49,4.49,4.49-4.49,4.49-4.49-4.49Zm9.9.96l4.49,4.49-4.49,4.49-4.49-4.49,4.49-4.49Zm5.43,5.43l4.49,4.49-4.49,4.49-4.49-4.49,4.49-4.49Zm.96-.96l4.49-4.49,4.47,4.49-4.49,4.49-4.47-4.49h0Zm9.89.96l4.49,4.49-4.49,4.49-4.49-4.49,4.49-4.49Zm.96-.96l4.49-4.49,4.49,4.49-4.49,4.49-4.49-4.49Zm9.9.96l4.49,4.49-4.49,4.49-4.49-4.49,4.49-4.49Zm.96-.96l4.49-4.49,4.49,4.49-4.49,4.49-4.49-4.49Zm9.9.96l4.49,4.49-4.49,4.47-4.47-4.49,4.47-4.47Zm.96-.96l4.49-4.49,4.47,4.49-4.47,4.49-4.49-4.49Zm9.89.96l4.49,4.49-4.49,4.49-4.49-4.49,4.49-4.49Zm.96-.96l4.49-4.49,4.49,4.49-4.49,4.49-4.49-4.49Zm9.9.96l4.49,4.49-4.49,4.49-4.49-4.49,4.49-4.49Zm.96-.96l4.49-4.49,4.49,4.49-4.49,4.49-4.49-4.49Zm5.43-5.43l4.49-4.49,4.49,4.49-4.49,4.49-4.49-4.49Zm9.92.96l4.47,4.49-4.47,4.49-4.49-4.49,4.49-4.49Zm9.89-11.82l-4.49,4.49-4.49-4.49,4.49-4.49,4.49,4.49h0Zm-5.42-5.42l-4.47,4.49-4.49-4.49,4.49-4.49,4.47,4.49Zm-5.43-5.43l-4.49,4.49-4.49-4.49,4.49-4.49,4.49,4.49Zm-5.43-5.43l-4.49,4.49-4.49-4.49,4.49-4.49,4.49,4.49Zm-9.92-9.9l4.49,4.49-4.49,4.49-4.49-4.49,4.49-4.49Zm-.94,9.9l-4.49,4.49-4.49-4.49,4.49-4.49,4.49,4.49Zm-5.43-5.43l-4.49,4.49-4.49-4.49,4.49-4.49,4.49,4.49Zm-9.91-9.9l4.47,4.49-4.47,4.49-4.49-4.49,4.49-4.49Zm-.94,9.9l-4.49,4.49-4.47-4.49,4.47-4.47,4.49,4.47Zm-9.92-9.9l4.49,4.49-4.49,4.47-4.49-4.49,4.49-4.47Zm-.94,9.9l-4.49,4.49-4.49-4.49,4.49-4.49,4.49,4.49Zm-9.92-9.9l4.49,4.49-4.49,4.47-4.49-4.49,4.49-4.47Zm-5.43,5.43l4.49,4.49-4.49,4.49-4.49-4.49,4.49-4.49Zm-.93,9.9l-4.47,4.47-4.49-4.47,4.47-4.49,4.49,4.49Zm-9.92-9.9l4.49,4.49-4.49,4.49-4.49-4.49,4.49-4.49Zm-5.43,5.43l4.49,4.47-4.49,4.47-4.49-4.47,4.49-4.47Zm-5.43,5.43l4.49,4.49-4.49,4.49-4.49-4.49,4.49-4.49Zm-5.43,5.43l4.49,4.49-4.49,4.49-4.49-4.49,4.49-4.49Zm-9.89,9.89l4.47-4.47,4.49,4.49-4.49,4.47-4.47-4.49Zm4.46,6.39l4.49,4.47-4.49,4.49-4.47-4.49,4.47-4.47Zm-9.89,9.9l4.49-4.49,4.49,4.49-4.49,4.49-4.49-4.49Zm4.46,15.35l-4.49-4.49,4.49-4.49,4.49,4.49-4.49,4.49Zm.97-9.92l4.47-4.47,4.49,4.49-4.49,4.47-4.47-4.49Zm9.89,9.92l-4.49-4.49,4.49-4.49,4.49,4.49-4.49,4.49Zm.96-9.92l4.49-4.49,4.49,4.49-4.49,4.49-4.49-4.49Zm5.43,5.43l4.49-4.49,4.49,4.49-4.51,4.49-4.47-4.49Zm9.9,9.91l-4.49-4.49,4.49-4.49,4.49,4.49-4.49,4.49Zm.96-9.91l4.47-4.49,4.49,4.49-4.49,4.49-4.47-4.49Zm9.89,9.91l-4.49-4.49,4.49-4.49,4.49,4.49-4.49,4.49Zm.96-9.91l4.49-4.49,4.49,4.49-4.51,4.49-4.47-4.49Zm9.9,9.91l-4.49-4.49,4.49-4.49,4.49,4.49-4.49,4.49Zm.96-9.91l4.49-4.49,4.49,4.49-4.51,4.49-4.47-4.49Zm9.9,9.91l-4.47-4.49,4.49-4.49,4.49,4.49-4.51,4.49Zm.96-9.91l4.49-4.49,4.47,4.49-4.47,4.49-4.49-4.49Zm9.89,9.91l-4.49-4.49,4.49-4.49,4.49,4.49-4.49,4.49Zm.96-9.91l4.49-4.49,4.49,4.49-4.51,4.49-4.47-4.49Zm9.9,9.91l-4.49-4.49,4.49-4.49,4.49,4.49-4.49,4.49Zm5.43-5.42l-4.49-4.49,4.49-4.49,4.49,4.49-4.49,4.49Zm.96-9.92l4.49-4.49,4.49,4.49-4.49,4.49-4.49-4.49Zm9.92,9.92l-4.49-4.49,4.49-4.49,4.47,4.49-4.47,4.49Zm.94-9.92l4.49-4.49,4.49,4.49-4.49,4.49-4.49-4.49Zm9.91,9.92l-4.49-4.49,4.49-4.49,4.49,4.49-4.49,4.49Z"/>
    </g>
  </g>
</svg>