<?xml version="1.0" encoding="UTF-8"?>
<svg id="Calque_2" data-name="Calque 2" xmlns="http://www.w3.org/2000/svg" viewBox="0 0 77.53 118.17">
  <defs>
    <style>
      .cls-1, .cls-2 {
        fill: #e8629f;
      }

      .cls-3 {
        fill: #fcbe1b;
      }

      .cls-4, .cls-5 {
        stroke-width: .44px;
      }

      .cls-4, .cls-5, .cls-6 {
        fill: #261923;
        stroke-miterlimit: 10;
      }

      .cls-4, .cls-6 {
        stroke: #e8629f;
      }

      .cls-5 {
        stroke: #fcbe1b;
      }

      .cls-6 {
        stroke-width: .34px;
      }

      .cls-2 {
        fill-rule: evenodd;
      }
    </style>
  </defs>
  <g id="Calque_1-2" data-name="Calque 1">
    <g>
      <rect class="cls-3" x="3.1" y="6.79" width="71.33" height="111.21"/>
      <rect class="cls-1" x="3.1" y="13.59" width="71.33" height="3.41"/>
      <polygon class="cls-2" points="0 0 0 3.38 3.1 3.38 3.1 6.79 74.43 6.79 74.43 3.38 77.53 3.38 77.53 0 0 0"/>
      <rect class="cls-6" x="33.83" y="99.64" width="9.85" height="18.36"/>
      <rect class="cls-1" x="3.1" y="91.51" width="71.33" height="3.38"/>
      <rect class="cls-1" x="6.59" y="16.97" width="19.74" height="74.52"/>
      <rect class="cls-1" x="51.09" y="16.97" width="19.74" height="74.52"/>
      <rect class="cls-4" x="56.45" y="99.64" width="9.05" height="12.45"/>
      <g>
        <rect class="cls-5" x="56.45" y="75.19" width="9.05" height="12.45"/>
        <rect class="cls-5" x="56.45" y="58.33" width="9.05" height="12.45"/>
        <rect class="cls-5" x="56.45" y="41.47" width="9.05" height="12.45"/>
        <rect class="cls-5" x="56.45" y="24.62" width="9.05" height="12.48"/>
      </g>
      <g>
        <rect class="cls-5" x="11.93" y="75.19" width="9.05" height="12.45"/>
        <rect class="cls-5" x="11.93" y="58.33" width="9.05" height="12.45"/>
        <rect class="cls-5" x="11.93" y="41.47" width="9.05" height="12.45"/>
        <rect class="cls-5" x="11.93" y="24.62" width="9.05" height="12.48"/>
      </g>
      <g>
        <rect class="cls-4" x="34.18" y="75.19" width="9.05" height="12.45"/>
        <rect class="cls-4" x="34.18" y="58.33" width="9.05" height="12.45"/>
        <rect class="cls-4" x="34.18" y="41.47" width="9.05" height="12.45"/>
        <rect class="cls-4" x="34.18" y="24.62" width="9.05" height="12.48"/>
      </g>
      <rect class="cls-4" x="11.93" y="99.64" width="9.05" height="12.45"/>
    </g>
  </g>
</svg>