<?xml version="1.0" encoding="UTF-8"?>
<svg id="Calque_2" data-name="Calque 2" xmlns="http://www.w3.org/2000/svg" viewBox="0 0 84.73 100">
  <defs>
    <style>
      .cls-1 {
        fill: #e8629f;
      }

      .cls-2 {
        fill: #fcbe1b;
      }
    </style>
  </defs>
  <g id="Calque_1-2" data-name="Calque 1">
    <g>
      <polygon class="cls-2" points="42.37 95.77 42.37 95.77 0 95.77 0 100 42.37 100 42.37 100 84.73 100 84.73 95.77 42.37 95.77"/>
      <polygon class="cls-2" points="42.37 90.27 42.37 90.27 6.34 90.27 6.34 94.47 42.37 94.47 42.37 94.47 78.39 94.47 78.39 90.27 42.37 90.27"/>
      <polygon class="cls-2" points="42.37 84.75 42.37 84.75 10.62 84.75 10.62 88.96 42.37 88.96 42.37 88.96 74.12 88.96 74.12 84.75 42.37 84.75"/>
      <polygon class="cls-2" points="42.37 48.91 42.37 48.91 41.35 48.91 41.35 83.99 42.37 83.99 42.37 83.99 43.38 83.99 43.38 48.91 42.37 48.91"/>
      <polygon class="cls-2" points="67.4 48.91 68.07 48.91 68.07 83.99 67.4 83.99 66.72 83.99 66.72 48.91 67.4 48.91"/>
      <polygon class="cls-2" points="42.37 44.57 42.37 44.57 11.09 44.57 11.09 47.8 42.37 47.8 42.37 47.8 73.65 47.8 73.65 44.57 42.37 44.57"/>
      <path class="cls-2" d="m42.37,36.54H2.63v3.6c0,1.76,1.41,3.17,3.17,3.17h73.13c1.76,0,3.17-1.41,3.17-3.17v-3.6h-39.73Z"/>
      <path class="cls-2" d="m42.37,2.79h0s0,0,0,0c0,0,0-.02,0,0h0C31.15,22.51,6.86,35.33,6.86,35.33h71.02S53.59,22.51,42.37,2.79h0Z"/>
      <polygon class="cls-2" points="17.34 48.91 16.66 48.91 16.66 83.99 17.34 83.99 18.02 83.99 18.02 48.91 17.34 48.91"/>
      <path class="cls-2" d="m45.13,2.77c0,1.53-1.23,2.77-2.77,2.77-.54,0-1.03-.16-1.46-.41-.79-.49-1.33-1.37-1.33-2.36,0-1.53,1.23-2.77,2.77-2.77s2.79,1.23,2.79,2.77h0Z"/>
      <g>
        <path class="cls-2" d="m76.91,69.82c-2.99-1.66-3.69-4.32-3.69-4.32-.72.11-1.41.54-2.07,1.15h0s-3.35-1.51-5.28,4.7l1.51.77h0c-.2.41-.31.67-.31.67-3.08-1.51-5.62.02-5.62.02-.61-1.66-.79-2.02-1.59-2.3-.83-.29-1.77-.16-2.54.29-4.07,2.36-7.85,0-7.85,0,.05.11.09.2.13.29,1.33,2.7,4.56,3.82,7.35,2.7,2.12-.85,3.64-.97,4.2-.97-1.26.23-2.02,3.6-2.02,3.6-1.51-1.33-4.05,4.56-4.05,4.56h-1.48v2.54c1.94.09,4.59-5.37,4.59-5.37,0,0,.97,1.51,3.35,1.51s3.17-1.41,3.17-1.41c2.99,1.51,6.07.45,6.07.45,8.01-2.81,2.81,3.26,2.81,3.26l.27,2.02s4.05-4.32,3.08-6.07c-.97-1.76-3.6-1.84-3.6-1.84,1.05-2.12-.54-5.71-.54-5.71,1.91.71,7.11,1.13,4.12-.53h0Z"/>
        <path class="cls-2" d="m27.46,69.82c-2.99-1.66-3.69-4.32-3.69-4.32-.7.11-1.41.54-2.07,1.15h0s-3.35-1.51-5.28,4.7l1.51.77h0c-.2.41-.31.67-.31.67-3.08-1.51-5.63.02-5.63.02-.59-1.66-.81-2.02-1.59-2.3-.83-.29-1.77-.16-2.54.29C3.79,73.16,0,70.8,0,70.8c.05.11.09.2.13.29,1.33,2.7,4.56,3.82,7.35,2.7,2.12-.85,3.64-.97,4.2-.97-1.26.23-2.02,3.6-2.02,3.6-1.48-1.33-4.05,4.56-4.05,4.56h-1.48v2.54c1.94.09,4.59-5.37,4.59-5.37,0,0,.97,1.51,3.35,1.51s3.17-1.41,3.17-1.41c2.99,1.51,6.07.45,6.07.45,8.01-2.81,2.81,3.26,2.81,3.26l.27,2.02s4.05-4.32,3.08-6.07c-.97-1.76-3.6-1.84-3.6-1.84,1.05-2.12-.54-5.71-.54-5.71,1.91.71,7.1,1.13,4.12-.53h0Z"/>
        <path class="cls-2" d="m53.77,55.09c-2.99-1.66-3.69-4.32-3.69-4.32-.7.11-1.41.54-2.07,1.15h0s-3.35-1.51-5.28,4.7l1.51.77h0c-.2.41-.31.67-.31.67-3.08-1.51-5.63.02-5.63.02-.59-1.66-.79-2.02-1.59-2.3-.83-.29-1.77-.16-2.54.29-4.07,2.36-7.85,0-7.85,0,.05.11.09.2.13.29,1.33,2.7,4.56,3.82,7.35,2.7,2.12-.85,3.64-.97,4.2-.97-1.26.23-2.02,3.6-2.02,3.6-1.48-1.33-4.05,4.56-4.05,4.56h-1.48v2.54c1.94.09,4.59-5.37,4.59-5.37,0,0,.97,1.51,3.35,1.51s3.17-1.41,3.17-1.41c2.99,1.51,6.07.45,6.07.45,8.01-2.81,2.81,3.26,2.81,3.26l.27,2.02s4.05-4.32,3.08-6.07c-.97-1.76-3.6-1.84-3.6-1.84,1.05-2.12-.54-5.71-.54-5.71,1.91.7,7.11,1.16,4.12-.53h0Z"/>
      </g>
      <g>
        <path class="cls-1" d="m41.35,5.35s-4.16,16.98-13.85,28.83h-11.66c.45-1.53,15.31-9.91,25.52-28.83h0Z"/>
        <g>
          <circle class="cls-1" cx="10.16" cy="92.37" r="1.17"/>
          <circle class="cls-1" cx="14.77" cy="92.37" r="1.17"/>
          <circle class="cls-1" cx="19.36" cy="92.37" r="1.17"/>
          <circle class="cls-1" cx="23.98" cy="92.37" r="1.17"/>
          <circle class="cls-1" cx="28.59" cy="92.37" r="1.17"/>
          <circle class="cls-1" cx="33.17" cy="92.37" r="1.17"/>
          <circle class="cls-1" cx="37.78" cy="92.37" r="1.17"/>
          <path class="cls-1" d="m42.37,93.55c-.65,0-1.17-.52-1.17-1.17s.52-1.17,1.17-1.17"/>
        </g>
        <path class="cls-1" d="m43.38,5.35s4.16,16.98,13.85,28.83h11.67c-.45-1.53-15.32-9.91-25.52-28.83h0Z"/>
        <path class="cls-1" d="m42.7,5.53l-.34.02-.34-.02s-2.68,24.55-5.02,28.65h10.7c-2.36-4.12-5.02-28.65-5.02-28.65h0Z"/>
        <g>
          <circle class="cls-1" cx="74.55" cy="92.37" r="1.17"/>
          <circle class="cls-1" cx="69.96" cy="92.37" r="1.17"/>
          <circle class="cls-1" cx="65.35" cy="92.37" r="1.17"/>
          <circle class="cls-1" cx="60.76" cy="92.37" r="1.17"/>
          <circle class="cls-1" cx="56.15" cy="92.37" r="1.17"/>
          <circle class="cls-1" cx="51.56" cy="92.37" r="1.17"/>
          <circle class="cls-1" cx="46.95" cy="92.37" r="1.17"/>
          <path class="cls-1" d="m42.37,93.55c.65,0,1.17-.52,1.17-1.17s-.52-1.17-1.17-1.17"/>
        </g>
      </g>
    </g>
  </g>
</svg>