<?xml version="1.0" encoding="UTF-8"?>
<svg id="Calque_2" data-name="Calque 2" xmlns="http://www.w3.org/2000/svg" viewBox="0 0 307.78 134.4">
  <defs>
    <style>
      .cls-1 {
        fill: #e8629f;
      }

      .cls-2 {
        fill: #fcbe1b;
      }

      .cls-3 {
        fill: #fcbe1c;
      }

      .cls-4 {
        fill: #e6629f;
      }

      .cls-5 {
        fill: #261923;
      }

      .cls-6 {
        stroke-dasharray: 0 0 0 0 0 0 2.43 4.86;
      }

      .cls-6, .cls-7, .cls-8, .cls-9, .cls-10, .cls-11 {
        stroke-linejoin: round;
        stroke-width: 2.45px;
      }

      .cls-6, .cls-7, .cls-8, .cls-9, .cls-10, .cls-11, .cls-12 {
        fill: none;
      }

      .cls-6, .cls-9, .cls-11, .cls-12 {
        stroke: #e8629f;
      }

      .cls-7 {
        stroke-dasharray: 0 0 0 0 0 0 2.49 4.99;
      }

      .cls-7, .cls-8, .cls-10 {
        stroke: #fcbe1c;
      }

      .cls-8 {
        stroke-dasharray: 0 0 0 0 0 0 2.45 4.89;
      }

      .cls-9 {
        stroke-dasharray: 0 0 0 0 0 0 2.51 5.02;
      }

      .cls-12 {
        stroke-miterlimit: 10;
        stroke-width: .98px;
      }
    </style>
  </defs>
  <g id="Calque_1-2" data-name="Calque 1">
    <g>
      <g>
        <polyline class="cls-12" points=".36 130.92 94.2 28.81 129.04 42.07"/>
        <g>
          <line class="cls-11" x1="3.25" y1="130.92" x2="4.08" y2="129.99"/>
          <line class="cls-9" x1="7.5" y1="126.32" x2="92.44" y2="33.85"/>
          <polyline class="cls-11" points="94.15 31.99 94.98 31.11 96.11 31.55"/>
          <line class="cls-6" x1="100.66" y1="33.26" x2="125.61" y2="42.8"/>
          <line class="cls-11" x1="127.86" y1="43.63" x2="129.04" y2="44.07"/>
        </g>
        <g>
          <line class="cls-10" x1="1.44" y1="133.56" x2="2.27" y2="132.68"/>
          <line class="cls-7" x1="5.64" y1="129.01" x2="89.75" y2="37.08"/>
          <line class="cls-10" x1="91.46" y1="35.22" x2="92.29" y2="34.34"/>
        </g>
        <line class="cls-8" x1="97.82" y1="32.18" x2="127.18" y2="43.39"/>
      </g>
      <g>
        <polyline class="cls-12" points="307.42 130.92 213.58 28.81 178.74 42.07"/>
        <g>
          <line class="cls-11" x1="304.48" y1="130.92" x2="303.65" y2="129.99"/>
          <line class="cls-9" x1="300.28" y1="126.32" x2="215.34" y2="33.85"/>
          <polyline class="cls-11" points="213.63 31.99 212.8 31.11 211.67 31.55"/>
          <line class="cls-6" x1="207.12" y1="33.26" x2="182.17" y2="42.8"/>
          <line class="cls-11" x1="179.92" y1="43.63" x2="178.74" y2="44.07"/>
        </g>
        <g>
          <line class="cls-10" x1="306.34" y1="133.56" x2="305.51" y2="132.68"/>
          <line class="cls-7" x1="302.13" y1="129.01" x2="218.03" y2="37.08"/>
          <line class="cls-10" x1="216.32" y1="35.22" x2="215.49" y2="34.34"/>
        </g>
        <line class="cls-8" x1="209.96" y1="32.18" x2="180.6" y2="43.39"/>
      </g>
      <path class="cls-1" d="m240.05,65.55c-9.98-9.79-19.81-19.86-26.57-36.74-4.94,10.13-9.93,20.26-15.56,25.29,0,0-22.46-12.53-25.54-17.61v-6.65l-18.54-16.83-18.54,16.83v6.65c-3.08,5.09-25.54,17.61-25.54,17.61-5.63-5.04-10.62-15.17-15.56-25.25-6.75,16.88-16.59,26.96-26.57,36.74.54,23.97-24.85,64.92-25.25,65.36h223c-.49-.49-25.83-41.44-25.34-65.41h0Z"/>
      <path class="cls-1" d="m153.84,12.96V1.16s2.4-4.21,11.3,3.38c8.9,7.58,11.4,3.72,11.4,3.72,0,0-.88,4.21-8.56,3.38-7.63-.88-9.34-3.03-14.14,1.32Z"/>
      <path class="cls-1" d="m94.2,28.81v-11.84s2.4-4.21,11.3,3.38c8.9,7.58,11.4,3.72,11.4,3.72,0,0-.88,4.21-8.56,3.38s-9.34-3.03-14.14,1.37Z"/>
      <path class="cls-1" d="m213.48,28.81v-11.84s2.4-4.21,11.3,3.38c8.9,7.58,11.4,3.72,11.4,3.72,0,0-.88,4.21-8.56,3.38-7.63-.88-9.34-3.03-14.14,1.37Z"/>
      <g>
        <polygon class="cls-2" points="153.84 15.16 144.25 29.35 151.15 29.35 153.84 15.16"/>
        <path class="cls-2" d="m142.15,38.93h-3.42s-14.48,17.12-34.39,26.03h14.38s18.54-16,23.44-26.03h0Z"/>
        <path class="cls-2" d="m146.45,38.93h5.19s0,8.81-5.19,26.42c-.15.54-14.73,0-14.73,0,0,0,11.35-13.89,14.73-26.42Z"/>
        <path class="cls-2" d="m94.49,34.34s2.4,7.83,9,23l-5.38,3.08s-4.21-19.28-3.62-26.08h0Z"/>
        <path class="cls-2" d="m92.78,34.97s-.24,28.18-7.34,30.58c0,0-6.02,45.21-16.83,62.82h-9.83s16.54-31.95,19.23-63.46c0,0,11.35-12.82,14.78-30.63"/>
        <path class="cls-2" d="m89.11,128.42s11.84-34.69,12.18-55.14c0,0,7,7,14.19.88,0,0-1.91,38.02-8.42,54.26h-17.96Z"/>
        <path class="cls-2" d="m130.65,73.28s-1.52,24.02-3.42,43.64c0,0,7.63-2.89,7.29-3.08s8.02-15.31,11.5-20.94v-19.62s-6.65,7.83-15.36,0h0Z"/>
        <path class="cls-2" d="m150.76,89.48s-3.91,26.81-19.91,39.53l-4.4-8.51s9.1-2.89,10.81-5.48l-5.19-7.39s15.61-9.34,18.69-18.15h0Z"/>
        <path class="cls-2" d="m102.13,67.17c0,3.96-3.33,7.19-7.39,7.19s-7.39-3.23-7.39-7.19"/>
        <path class="cls-2" d="m116.9,67.17c0,3.96-3.33,7.19-7.39,7.19s-7.39-3.23-7.39-7.19"/>
        <path class="cls-2" d="m131.68,67.17c0,3.96-3.33,7.19-7.39,7.19s-7.39-3.23-7.39-7.19"/>
        <path class="cls-2" d="m146.4,67.17c0,3.96-3.33,7.19-7.39,7.19s-7.39-3.23-7.39-7.19"/>
        <path class="cls-5" d="m153.84,85.71c-1.52,9.05-8.46,31.12-21.77,45.16h43.54c-13.31-14.04-20.26-36.11-21.77-45.16Z"/>
        <polygon class="cls-2" points="153.84 15.16 163.43 29.35 156.53 29.35 153.84 15.16"/>
        <path class="cls-2" d="m165.53,38.93h3.42s14.48,17.12,34.39,26.03h-14.38s-18.54-16-23.44-26.03h0Z"/>
        <path class="cls-2" d="m161.23,38.93h-5.14s0,8.81,5.19,26.42c.15.54,14.73,0,14.73,0,0,0-11.4-13.89-14.78-26.42Z"/>
        <path class="cls-2" d="m213.24,34.34s-2.4,7.83-9,23l5.38,3.08s4.16-19.28,3.62-26.08h0Z"/>
        <path class="cls-2" d="m214.9,34.97s.24,28.18,7.34,30.58c0,0,6.02,45.21,16.83,62.82h9.88s-16.59-31.95-19.23-63.46c0,0-11.35-12.82-14.78-30.63"/>
        <path class="cls-2" d="m218.57,128.42s-11.84-34.69-12.18-55.14c0,0-7,7-14.19.88,0,0,1.91,38.02,8.42,54.26h17.96Z"/>
        <path class="cls-2" d="m177.03,73.28s1.52,24.02,3.42,43.64c0,0-7.63-2.89-7.29-3.08s-8.02-15.31-11.5-20.94v-19.62s6.65,7.83,15.36,0h0Z"/>
        <path class="cls-2" d="m156.92,89.48s3.91,26.81,19.91,39.53l4.4-8.51s-9.1-2.89-10.81-5.48l5.19-7.39s-15.61-9.34-18.69-18.15h0Z"/>
        <path class="cls-2" d="m205.56,67.17c0,3.96,3.33,7.19,7.39,7.19s7.39-3.23,7.39-7.19"/>
        <path class="cls-2" d="m190.78,67.17c0,3.96,3.33,7.19,7.39,7.19s7.39-3.23,7.39-7.19"/>
        <path class="cls-2" d="m176.05,67.17c0,3.96,3.33,7.19,7.39,7.19s7.39-3.23,7.39-7.19"/>
        <path class="cls-2" d="m161.28,67.17c0,3.96,3.33,7.19,7.39,7.19s7.39-3.23,7.39-7.19"/>
        <path class="cls-2" d="m153.84,67.17h-7.39c0,3.96,3.33,7.19,7.39,7.19s7.39-3.23,7.39-7.19h-7.39Z"/>
        <polygon class="cls-2" points="153.84 31.11 137.25 31.11 137.25 36.73 153.84 36.73 170.43 36.73 170.43 31.11 153.84 31.11"/>
      </g>
      <g>
        <path class="cls-3" d="m132.56,130.43v-48.29c0-11.74,9.54-21.28,21.28-21.28s21.28,9.54,21.28,21.28v48.29h-42.57Z"/>
        <path class="cls-4" d="m153.84,61.34c11.45,0,20.79,9.3,20.79,20.79v47.8h-41.54v-47.8c-.05-11.5,9.3-20.79,20.74-20.79m0-.98h0c-12.04,0-21.77,9.74-21.77,21.77v48.78h43.5v-48.78c.05-12.04-9.69-21.77-21.72-21.77h0Z"/>
      </g>
      <path class="cls-5" d="m153.84,90.4c-1.32,8.12-7.34,27.89-18.84,40.51h37.67c-11.5-12.62-17.52-32.39-18.84-40.51Z"/>
      <path class="cls-12" d="m153.89,63.64h0c10.37,0,18.79,8.42,18.79,18.79v.59h-37.53v-.59c0-10.37,8.42-18.79,18.74-18.79Z"/>
      <path class="cls-12" d="m135,130.38c-.24-.39,0-43.54,0-43.54h37.67v44.03"/>
    </g>
  </g>
</svg>