<?xml version="1.0" encoding="UTF-8"?>
<svg id="Calque_2" data-name="Calque 2" xmlns="http://www.w3.org/2000/svg" viewBox="0 0 73.15 110.22">
  <defs>
    <style>
      .cls-1, .cls-2 {
        fill: #e8629f;
      }

      .cls-3 {
        fill: #fcbe1b;
      }

      .cls-4, .cls-5 {
        stroke-width: .44px;
      }

      .cls-4, .cls-5, .cls-6, .cls-7 {
        fill: #261923;
        stroke: #e8629f;
        stroke-miterlimit: 10;
      }

      .cls-4, .cls-2 {
        fill-rule: evenodd;
      }

      .cls-6 {
        stroke-width: .34px;
      }

      .cls-7 {
        stroke-width: .35px;
      }
    </style>
  </defs>
  <g id="Calque_1-2" data-name="Calque 1">
    <g>
      <rect class="cls-3" x=".9" y="5.55" width="71.35" height="104.42"/>
      <rect class="cls-1" y="81.45" width="73.13" height="6.31"/>
      <rect class="cls-1" y="57.4" width="73.13" height="6.31"/>
      <g>
        <path class="cls-4" d="m9.87,65.08h0c-2.05,0-3.74,1.66-3.74,3.74v11.28h7.46v-11.31c0-2.05-1.66-3.71-3.72-3.71h0Z"/>
        <path class="cls-4" d="m20.53,65.08h0c-2.05,0-3.74,1.66-3.74,3.74v11.28h7.46v-11.31c.02-2.05-1.66-3.71-3.72-3.71Z"/>
        <path class="cls-4" d="m31.22,65.08h0c-2.05,0-3.74,1.66-3.74,3.74v11.28h7.46v-11.31c0-2.05-1.67-3.71-3.72-3.71Z"/>
        <path class="cls-4" d="m41.89,65.08h0c-2.05,0-3.74,1.66-3.74,3.74v11.28h7.46v-11.31c.02-2.05-1.67-3.71-3.72-3.71Z"/>
        <path class="cls-4" d="m52.58,65.08h0c-2.05,0-3.74,1.66-3.74,3.74v11.28h7.46v-11.31c0-2.05-1.67-3.71-3.72-3.71Z"/>
        <path class="cls-4" d="m63.24,65.08h0c-2.05,0-3.74,1.66-3.74,3.74v11.28h7.46v-11.31c.02-2.05-1.67-3.71-3.72-3.71Z"/>
      </g>
      <rect class="cls-1" y="33.34" width="73.13" height="6.31"/>
      <g>
        <path class="cls-4" d="m9.87,41.03h0c-2.05,0-3.74,1.66-3.74,3.74v11.31h7.46v-11.31c0-2.08-1.66-3.74-3.72-3.74h0Z"/>
        <path class="cls-4" d="m20.53,41.03h0c-2.05,0-3.74,1.66-3.74,3.74v11.31h7.46v-11.31c.02-2.08-1.66-3.74-3.72-3.74Z"/>
        <path class="cls-4" d="m31.22,41.03h0c-2.05,0-3.74,1.66-3.74,3.74v11.31h7.46v-11.31c0-2.08-1.67-3.74-3.72-3.74Z"/>
        <path class="cls-4" d="m41.89,41.03h0c-2.05,0-3.74,1.66-3.74,3.74v11.31h7.46v-11.31c.02-2.08-1.67-3.74-3.72-3.74Z"/>
        <path class="cls-4" d="m52.58,41.03h0c-2.05,0-3.74,1.66-3.74,3.74v11.31h7.46v-11.31c0-2.08-1.67-3.74-3.72-3.74Z"/>
        <path class="cls-4" d="m63.24,41.03h0c-2.05,0-3.74,1.66-3.74,3.74v11.31h7.46v-11.31c.02-2.08-1.67-3.74-3.72-3.74Z"/>
      </g>
      <polygon class="cls-2" points="0 4.69 0 9.32 0 9.82 0 15.6 73.15 15.6 73.15 9.82 73.15 9.32 73.15 4.69 0 4.69"/>
      <g>
        <path class="cls-4" d="m9.87,16.95h0c-2.05,0-3.74,1.66-3.74,3.74v11.31h7.46v-11.3c0-2.06-1.66-3.72-3.72-3.75h0Z"/>
        <path class="cls-4" d="m20.53,16.95h0c-2.05,0-3.74,1.66-3.74,3.74v11.31h7.46v-11.3c.02-2.06-1.66-3.72-3.72-3.75h0Z"/>
        <path class="cls-4" d="m31.22,16.95h0c-2.05,0-3.74,1.66-3.74,3.74v11.31h7.46v-11.3c0-2.06-1.67-3.72-3.72-3.75h0Z"/>
        <path class="cls-4" d="m41.89,16.95h0c-2.05,0-3.74,1.66-3.74,3.74v11.31h7.46v-11.3c.02-2.06-1.67-3.72-3.72-3.75h0Z"/>
        <path class="cls-4" d="m52.58,16.95h0c-2.05,0-3.74,1.66-3.74,3.74v11.31h7.46v-11.3c0-2.06-1.67-3.72-3.72-3.75h0Z"/>
        <path class="cls-4" d="m63.24,16.95h0c-2.05,0-3.74,1.66-3.74,3.74v11.31h7.46v-11.3c.02-2.06-1.67-3.72-3.72-3.75h0Z"/>
      </g>
      <path class="cls-5" d="m16.95,91.64h0c4.55,0,8.28,3.72,8.28,8.28v10.09H8.67v-10.09c0-4.58,3.7-8.28,8.28-8.28h0Z"/>
      <path class="cls-7" d="m58.77,91.64h0c2.92,0,5.29,2.37,5.29,5.29v13.08h-10.58v-13.08c.03-2.92,2.39-5.29,5.29-5.29Z"/>
      <path class="cls-6" d="m33.79,91.64h0c2.72,0,4.93,2.21,4.93,4.93v13.43h-9.85v-13.43c0-2.74,2.19-4.93,4.92-4.93h0Z"/>
      <rect class="cls-3" x="9.12" width="10.73" height="4.69"/>
      <rect class="cls-3" x="42.01" width="16.97" height="4.69"/>
    </g>
  </g>
</svg>