<?xml version="1.0" encoding="UTF-8"?>
<svg id="Calque_2" data-name="Calque 2" xmlns="http://www.w3.org/2000/svg" viewBox="0 0 53.57 81.16">
  <defs>
    <style>
      .cls-1 {
        fill: #e8629f;
      }

      .cls-2 {
        fill: #fcbe1b;
      }

      .cls-3 {
        fill: #261923;
      }

      .cls-4 {
        fill: none;
        stroke: #e8629f;
        stroke-miterlimit: 10;
        stroke-width: .45px;
      }
    </style>
  </defs>
  <g id="Calque_1-2" data-name="Calque 1">
    <g>
      <rect class="cls-2" y="8.24" width="53.57" height="4.41"/>
      <polygon class="cls-1" points="1.08 12.65 4.5 27.1 49.07 27.1 52.53 12.65 1.08 12.65"/>
      <polygon class="cls-3" points="2.7 13.73 5.94 26.06 47.63 26.06 50.87 13.73 2.7 13.73"/>
      <path class="cls-2" d="m41.5,27.91H11.39h.23v3.02h1.13v.14l4.82,4.95h0v2.12h2.25v43.03h13.95v-43.03h2.25v-2.12h0l4.82-4.95v-.14h1.13v-3.02h.23-.68Zm-21.7,7.52h-1.89l-4.37-4.5h6.26v4.5Zm15.85,0h-1.89v-4.5h6.26l-4.37,4.5Z"/>
      <line class="cls-4" x1="26.78" y1="12.65" x2="26.78" y2="27.1"/>
      <line class="cls-4" x1="34.48" y1="12.65" x2="34.48" y2="27.1"/>
      <line class="cls-4" x1="42.13" y1="12.65" x2="42.13" y2="27.1"/>
      <line class="cls-4" x1="11.43" y1="12.65" x2="11.43" y2="27.1"/>
      <line class="cls-4" x1="19.13" y1="12.65" x2="19.13" y2="27.1"/>
      <line class="cls-4" x1="3.51" y1="19.9" x2="50.06" y2="19.9"/>
      <rect class="cls-2" x="16.57" y="4.14" width="20.44" height="4.14"/>
      <rect class="cls-2" x="21.16" width="11.21" height="4.14"/>
      <rect class="cls-2" x="4.5" y="27.1" width="44.52" height="4.41"/>
    </g>
  </g>
</svg>