<?xml version="1.0" encoding="UTF-8"?>
<svg id="Calque_2" data-name="Calque 2" xmlns="http://www.w3.org/2000/svg" viewBox="0 0 100.89 50.69">
  <defs>
    <style>
      .cls-1 {
        stroke-width: 1.56px;
      }

      .cls-1, .cls-2, .cls-3, .cls-4, .cls-5 {
        stroke: #e8629f;
        stroke-miterlimit: 10;
      }

      .cls-1, .cls-4, .cls-5 {
        fill: none;
      }

      .cls-2, .cls-6, .cls-3 {
        fill: #261923;
      }

      .cls-2, .cls-3, .cls-5 {
        stroke-width: .58px;
      }

      .cls-7, .cls-8 {
        fill: #fcbe1b;
      }

      .cls-3, .cls-8 {
        fill-rule: evenodd;
      }

      .cls-4 {
        stroke-width: 1.36px;
      }
    </style>
  </defs>
  <g id="Calque_1-2" data-name="Calque 1">
    <g>
      <polygon class="cls-8" points="5.51 30.48 52.1 .92 98.7 30.48 98.7 50.69 5.51 50.69 5.51 30.48"/>
      <polygon class="cls-8" points="2.36 20.75 22.44 5.61 42.51 20.75 42.51 50.69 2.36 50.69 2.36 20.75"/>
      <path class="cls-3" d="m16.67,18.16c0-3.17,2.59-5.76,5.76-5.76s5.76,2.59,5.76,5.76"/>
      <polygon class="cls-3" points="25.35 30.48 19.52 30.48 13.68 30.48 13.68 42.44 19.52 42.44 25.35 42.44 31.19 42.44 31.19 30.48 25.35 30.48"/>
      <polygon class="cls-3" points="25.35 18.16 19.52 18.16 13.68 18.16 13.68 23.34 19.52 23.34 25.35 23.34 31.19 23.34 31.19 18.16 25.35 18.16"/>
      <path class="cls-3" d="m71.42,34.52v10.08h10.48v-10.08c0-2.9-2.35-5.23-5.23-5.23h0c-2.9-.02-5.25,2.34-5.25,5.23h0Z"/>
      <path class="cls-3" d="m62.2,17.58v5.09h4.34v-5.09c0-1.46-.98-2.65-2.18-2.65h0c-1.19,0-2.16,1.19-2.16,2.65Z"/>
      <polyline class="cls-1" points="55.2 30.34 22.44 5.61 .47 22.19"/>
      <polyline class="cls-1" points="100.47 31.6 52.1 .92 32.61 13.3"/>
      <circle class="cls-2" cx="52.1" cy="8.74" r="2.84"/>
      <rect class="cls-6" x="36.85" y="30.12" width="14.61" height="20.56"/>
      <polyline class="cls-4" points="33.09 50.69 33.09 30.48 44.15 21.99 55.2 30.34 55.2 50.69"/>
      <circle class="cls-7" cx="44.15" cy="36.93" r=".68"/>
      <line class="cls-5" x1="28.2" y1="30.48" x2="28.2" y2="42.44"/>
      <line class="cls-5" x1="16.67" y1="30.34" x2="16.67" y2="42.44"/>
      <line class="cls-5" x1="22.44" y1="30.48" x2="22.44" y2="42.44"/>
      <line class="cls-5" x1="28.2" y1="18.16" x2="28.2" y2="23.34"/>
      <line class="cls-5" x1="16.67" y1="18.16" x2="16.67" y2="23.34"/>
      <line class="cls-5" x1="22.44" y1="12.4" x2="22.44" y2="23.34"/>
      <line class="cls-5" x1="64.36" y1="14.93" x2="64.36" y2="22.67"/>
      <line class="cls-5" x1="76.66" y1="29.27" x2="76.66" y2="44.58"/>
      <line class="cls-5" x1="81.91" y1="35.92" x2="71.42" y2="35.92"/>
      <line class="cls-5" x1="54.95" y1="8.74" x2="49.27" y2="8.74"/>
      <line class="cls-5" x1="52.1" y1="5.9" x2="52.1" y2="11.59"/>
    </g>
  </g>
</svg>