<?xml version="1.0" encoding="UTF-8"?>
<svg id="Calque_2" data-name="Calque 2" xmlns="http://www.w3.org/2000/svg" viewBox="0 0 100 72.53">
  <defs>
    <style>
      .cls-1 {
        stroke-width: 1.65px;
      }

      .cls-1, .cls-2 {
        fill: none;
      }

      .cls-1, .cls-2, .cls-3, .cls-4 {
        stroke: #e8629f;
        stroke-miterlimit: 10;
      }

      .cls-5, .cls-6 {
        fill: #e8629f;
      }

      .cls-7, .cls-8 {
        fill: #fcbe1b;
      }

      .cls-9, .cls-3, .cls-4 {
        fill: #261923;
      }

      .cls-2, .cls-3, .cls-4 {
        stroke-width: 1.39px;
      }

      .cls-3, .cls-6, .cls-8 {
        fill-rule: evenodd;
      }
    </style>
  </defs>
  <g id="Calque_1-2" data-name="Calque 1">
    <g>
      <rect class="cls-7" x="4.76" y="30.63" width="95.24" height="41.87"/>
      <polygon class="cls-6" points="77.49 8.11 12.14 8.11 0 30.63 77.49 30.63 77.49 8.11"/>
      <path class="cls-9" d="m52.38,46.54h0c4.1,0,7.45,3.33,7.45,7.45v18.54h-14.88v-18.54c-.02-4.1,3.31-7.45,7.43-7.45h0Z"/>
      <polyline class="cls-1" points="41.12 72.53 41.12 44.76 52.38 30.63 63.63 44.76 63.63 72.53"/>
      <rect class="cls-7" x="13.91" y="5.27" width="5.96" height="2.84"/>
      <rect class="cls-5" x="13.03" y="2.64" width="7.69" height="2.63"/>
      <path class="cls-2" d="m44.93,72.53v-18.55c0-4.12,3.33-7.45,7.45-7.45h0c4.12,0,7.45,3.33,7.45,7.45v18.54"/>
      <circle class="cls-7" cx="52.38" cy="58.52" r=".7"/>
      <g>
        <polygon class="cls-8" points="54.06 30.13 76.52 .81 98.99 30.13 54.06 30.13"/>
        <path class="cls-5" d="m76.52,1.62l21.45,28.01h-42.91L76.52,1.62m0-1.62l-23.45,30.62h46.93L76.52,0h0Z"/>
      </g>
      <path class="cls-4" d="m76.52,12.01h0c1.64,0,2.97,1.33,2.97,2.97v6.02h-5.95v-6.02c0-1.62,1.34-2.97,2.98-2.97h0Z"/>
      <polygon class="cls-3" points="85.46 46.54 79.5 46.54 73.55 46.54 73.55 63.71 79.5 63.71 85.46 63.71 91.41 63.71 91.41 46.54 85.46 46.54"/>
      <polygon class="cls-3" points="24.92 46.54 18.98 46.54 13.03 46.54 13.03 63.71 18.98 63.71 24.92 63.71 30.88 63.71 30.88 46.54 24.92 46.54"/>
      <line class="cls-2" x1="21.95" y1="46.54" x2="21.95" y2="63.71"/>
      <line class="cls-2" x1="82.47" y1="46.54" x2="82.47" y2="63.71"/>
    </g>
  </g>
</svg>