<?xml version="1.0" encoding="UTF-8"?>
<svg id="Calque_2" data-name="Calque 2" xmlns="http://www.w3.org/2000/svg" viewBox="0 0 53.13 117.44">
  <defs>
    <style>
      .cls-1 {
        fill: #ea629f;
      }

      .cls-2 {
        fill: none;
        stroke: #ea629f;
        stroke-miterlimit: 10;
        stroke-width: 2.38px;
      }
    </style>
  </defs>
  <g id="Calque_1-2" data-name="Calque 1">
    <g>
      <circle class="cls-1" cx="26.57" cy="26.57" r="2.81"/>
      <g>
        <polygon class="cls-1" points="26.57 26.57 43.1 5.44 36.57 1.68 26.57 26.57"/>
        <polygon class="cls-1" points="26.57 26.57 51.45 16.55 47.69 10.02 26.57 26.57"/>
        <polygon class="cls-1" points="26.57 26.57 53.13 30.33 53.13 22.8 26.57 26.57"/>
        <polygon class="cls-1" points="26.57 26.57 47.69 43.1 51.45 36.58 26.57 26.57"/>
        <polygon class="cls-1" points="26.57 26.57 36.57 51.45 43.1 47.69 26.57 26.57"/>
        <polygon class="cls-1" points="26.57 26.57 22.8 53.13 30.33 53.13 26.57 26.57"/>
        <polygon class="cls-1" points="26.57 26.57 10.02 47.69 16.55 51.45 26.57 26.57"/>
        <polygon class="cls-1" points="26.57 26.57 1.67 36.58 5.43 43.1 26.57 26.57"/>
        <polygon class="cls-1" points="26.57 26.57 0 22.8 0 30.33 26.57 26.57"/>
        <polygon class="cls-1" points="26.57 26.57 5.43 10.02 1.67 16.55 26.57 26.57"/>
        <polygon class="cls-1" points="26.57 26.57 16.55 1.68 10.02 5.44 26.57 26.57"/>
        <polygon class="cls-1" points="26.57 26.57 30.33 0 22.8 0 26.57 26.57"/>
      </g>
      <g>
        <g>
          <path class="cls-2" d="m7.37,117.04c.32-.91,19.18-90.49,19.18-90.49"/>
          <path class="cls-2" d="m45.76,117.04c-.32-.91-19.18-90.49-19.18-90.49"/>
        </g>
        <g>
          <line class="cls-2" x1="19.34" y1="60.86" x2="33.77" y2="60.86"/>
          <line class="cls-2" x1="16.74" y1="73.04" x2="36.36" y2="73.04"/>
          <line class="cls-2" x1="14.14" y1="85.22" x2="38.95" y2="85.22"/>
          <line class="cls-2" x1="11.55" y1="97.41" x2="41.54" y2="97.41"/>
          <line class="cls-2" x1="8.95" y1="109.59" x2="44.13" y2="109.59"/>
        </g>
      </g>
    </g>
  </g>
</svg>