<?xml version="1.0" encoding="UTF-8"?>
<svg id="Calque_2" data-name="Calque 2" xmlns="http://www.w3.org/2000/svg" viewBox="0 0 72.69 300">
  <defs>
    <style>
      .cls-1 {
        fill: #e8629f;
      }

      .cls-2, .cls-3 {
        fill: #261923;
      }

      .cls-3, .cls-4 {
        fill-rule: evenodd;
      }

      .cls-4 {
        fill: #fcbe1b;
      }
    </style>
  </defs>
  <g id="Calque_1-2" data-name="Calque 1">
    <g>
      <polygon class="cls-4" points="60.68 289.23 60.68 202.89 55.07 196.56 55.07 94.07 42.42 80.03 42.42 0 27.7 9.11 27.7 44.23 30.11 47.8 30.11 140.78 22.92 147.67 22.92 202.25 16.68 208.83 16.68 257.16 12.01 257.16 12.01 289.23 60.68 289.23"/>
      <g>
        <rect class="cls-2" x="33.39" y="11.18" width="6.21" height="27.74"/>
        <path class="cls-1" d="m39.45,11.33v27.4h-5.87V11.33h5.87m.34-.34h-6.55v28.08h6.55V10.99h0Z"/>
      </g>
      <g>
        <polygon class="cls-3" points="29.36 212.94 33.39 209.21 33.39 155.23 39.94 148.68 39.94 86.91 50.06 97.04 50.06 225.28 29.36 243.09 29.36 212.94"/>
        <path class="cls-1" d="m40.13,87.33l9.75,9.75v128.09l-20.36,17.5v-29.62l3.95-3.65.11-.11v-53.98l6.44-6.44.11-.11v-61.43m-.34-.83v62.11l-6.55,6.55v53.98l-4.07,3.76v30.56l21.08-18.11V96.96l-10.46-10.46h0Z"/>
      </g>
      <g>
        <polygon class="cls-3" points="29.36 281.33 29.36 270.68 50.06 252.87 50.06 281.33 29.36 281.33"/>
        <path class="cls-1" d="m49.87,253.25v27.93h-20.36v-10.43l20.36-17.5m.38-.75l-21.08,18.11v10.92h21.08v-29.02h0Z"/>
      </g>
      <polygon class="cls-1" points="39.15 2.03 31.99 9.11 31.99 43.14 33.84 45.47 33.84 140.89 27.21 147.89 27.21 203.34 21.61 208.27 21.61 256.49 17.62 259.05 17.62 289.23 12.01 289.23 12.01 257.16 16.68 257.16 16.68 208.83 22.92 202.25 22.92 147.67 30.11 140.78 30.11 47.8 27.7 44.23 27.7 9.11 39.15 2.03"/>
      <rect class="cls-1" x="7.11" y="289.23" width="58.49" height="5.38"/>
      <rect class="cls-1" y="294.62" width="72.69" height="5.38"/>
    </g>
  </g>
</svg>