<?xml version="1.0" encoding="UTF-8"?>
<svg id="Calque_2" data-name="Calque 2" xmlns="http://www.w3.org/2000/svg" viewBox="0 0 68.18 139.55">
  <defs>
    <style>
      .cls-1 {
        fill: #e8629f;
      }

      .cls-2 {
        fill: #fcbe1b;
      }

      .cls-3 {
        fill: none;
        stroke: #ea629f;
        stroke-miterlimit: 10;
        stroke-width: 5.31px;
      }
    </style>
  </defs>
  <g id="Calque_1-2" data-name="Calque 1">
    <g>
      <polyline class="cls-3" points="13.82 139.55 13.82 22.8 40.69 22.8 40.69 139.55"/>
      <g>
        <g>
          <g>
            <polygon class="cls-2" points="27.53 25.16 54.48 26.95 54.48 27.53 27.53 29.32 27.53 25.16"/>
            <path class="cls-2" d="m54.45,27.24l-26.64,1.76v-3.52l26.64,1.76m.06.58v-1.15l-26.64-1.76-.61-.03v4.76l.61-.03,26.64-1.79h0Z"/>
          </g>
          <g>
            <polygon class="cls-2" points="29.32 27.53 27.53 54.48 26.95 54.48 25.16 27.53 29.32 27.53"/>
            <path class="cls-2" d="m27.24,54.45l-1.76-26.64h3.55l-1.79,26.64m-.58.06h1.15l1.76-26.64.03-.61h-4.73l.03.61,1.76,26.64h0Z"/>
          </g>
          <g>
            <polygon class="cls-2" points="26.95 29.32 .03 27.53 .03 26.95 26.95 25.16 26.95 29.32"/>
            <path class="cls-2" d="m.03,27.24l26.64-1.76v3.55L.03,27.24m-.03-.58v1.15l26.64,1.76.61.03v-4.73l-.61.03L0,26.66h0Z"/>
          </g>
          <g>
            <polygon class="cls-2" points="25.16 26.95 26.95 .03 27.53 .03 29.32 26.95 25.16 26.95"/>
            <path class="cls-2" d="m27.24.03l1.76,26.64h-3.52L27.24.03m.58-.03h-1.15l-1.76,26.64-.03.61h4.76l-.03-.61L27.82,0h0Z"/>
          </g>
        </g>
        <g>
          <g>
            <polygon class="cls-2" points="25.94 25.77 40.43 13.07 40.86 13.48 28.16 27.99 25.94 25.77"/>
            <path class="cls-2" d="m40.63,13.3l-12.5,14.26-1.79-1.79,14.28-12.47m-.38-.43l-14.28,12.47-.46.4.43.43,1.79,1.79.43.43.4-.46,12.5-14.26-.81-.81h0Z"/>
          </g>
          <g>
            <polygon class="cls-2" points="25.94 27.59 28.16 25.37 40.86 39.85 40.43 40.26 25.94 27.59"/>
            <path class="cls-2" d="m28.14,25.8l12.5,14.26-14.26-12.5,1.76-1.76m.03-.87l-.43.43-1.79,1.79-.43.43.46.4,14.26,12.5.81-.81-12.47-14.28-.4-.46h0Z"/>
          </g>
          <g>
            <polygon class="cls-2" points="13.65 39.85 26.35 25.37 28.57 27.59 14.05 40.26 13.65 39.85"/>
            <path class="cls-2" d="m26.38,25.8l1.79,1.79-14.26,12.5,12.47-14.28m-.03-.87l-.43.46-12.5,14.26.81.81,14.28-12.47.46-.4-.43-.43-1.79-1.79-.4-.43h0Z"/>
          </g>
          <g>
            <polygon class="cls-2" points="13.65 13.48 14.05 13.07 28.57 25.77 26.35 27.99 13.65 13.48"/>
            <path class="cls-2" d="m13.88,13.3l14.26,12.5-1.79,1.79-12.47-14.28m.38-.43l-.81.81,12.5,14.26.4.46.43-.43,1.79-1.79.43-.43-.46-.4-14.28-12.47h0Z"/>
          </g>
        </g>
      </g>
      <g>
        <path class="cls-1" d="m38.9,80.71c-.14,0-.32-.03-.46-.12l-26.14-13.82c-.46-.23-.52-.63-.52-.87s.06-.63.52-.87l26.14-13.82c.14-.09.29-.12.46-.12s.32.03.46.12l26.14,13.82c.46.23.52.63.52.87s-.06.63-.52.87l-26.14,13.82c-.14.09-.32.12-.46.12Z"/>
        <path class="cls-2" d="m38.9,53.41l23.61,12.5-23.61,12.5-23.61-12.5,23.61-12.5m0-4.47c-.52,0-1.01.12-1.47.38l-26.14,13.82c-2.22,1.18-2.22,4.39,0,5.57l26.14,13.82c.46.23.95.38,1.47.38s1.01-.12,1.47-.38l26.14-13.82c2.22-1.18,2.22-4.39,0-5.57l-26.14-13.82c-.46-.26-.98-.38-1.47-.38h0Z"/>
      </g>
      <g>
        <g>
          <path class="cls-1" d="m17.49,59.1c-1.64,0-3-1.36-3-3s1.36-3,3-3,3,1.33,3,3-1.36,3-3,3Z"/>
          <path class="cls-2" d="m17.49,53.67c1.33,0,2.42,1.1,2.42,2.42s-1.1,2.42-2.42,2.42-2.42-1.1-2.42-2.42,1.1-2.42,2.42-2.42m0-1.15c-1.99,0-3.58,1.59-3.58,3.58s1.59,3.58,3.58,3.58,3.58-1.62,3.58-3.58-1.62-3.58-3.58-3.58h0Z"/>
        </g>
        <g>
          <circle class="cls-1" cx="24.64" cy="56.1" r="3"/>
          <path class="cls-2" d="m24.64,53.67c1.33,0,2.42,1.1,2.42,2.42s-1.1,2.42-2.42,2.42-2.42-1.1-2.42-2.42,1.1-2.42,2.42-2.42m0-1.15c-1.99,0-3.58,1.59-3.58,3.58s1.59,3.58,3.58,3.58,3.58-1.59,3.58-3.58-1.62-3.58-3.58-3.58h0Z"/>
        </g>
        <g>
          <path class="cls-1" d="m31.8,59.1c-1.64,0-3-1.36-3-3s1.36-3,3-3,3,1.36,3,3-1.36,3-3,3Z"/>
          <path class="cls-2" d="m31.8,53.67c1.33,0,2.42,1.1,2.42,2.42s-1.1,2.42-2.42,2.42-2.42-1.1-2.42-2.42,1.1-2.42,2.42-2.42m0-1.15c-1.99,0-3.58,1.59-3.58,3.58s1.59,3.58,3.58,3.58,3.58-1.59,3.58-3.58-1.59-3.58-3.58-3.58h0Z"/>
        </g>
        <g>
          <circle class="cls-1" cx="38.96" cy="56.1" r="3"/>
          <path class="cls-2" d="m38.96,53.67c1.33,0,2.42,1.1,2.42,2.42s-1.1,2.42-2.42,2.42-2.42-1.1-2.42-2.42,1.1-2.42,2.42-2.42m0-1.15c-1.99,0-3.58,1.59-3.58,3.58s1.59,3.58,3.58,3.58,3.58-1.59,3.58-3.58-1.59-3.58-3.58-3.58h0Z"/>
        </g>
        <g>
          <circle class="cls-1" cx="46.11" cy="56.1" r="3"/>
          <path class="cls-2" d="m46.11,53.67c1.33,0,2.42,1.1,2.42,2.42s-1.1,2.42-2.42,2.42-2.42-1.1-2.42-2.42,1.1-2.42,2.42-2.42m0-1.15c-1.99,0-3.58,1.59-3.58,3.58s1.59,3.58,3.58,3.58,3.58-1.59,3.58-3.58-1.59-3.58-3.58-3.58h0Z"/>
        </g>
        <g>
          <circle class="cls-1" cx="53.27" cy="56.1" r="3"/>
          <path class="cls-2" d="m53.27,53.67c1.33,0,2.42,1.1,2.42,2.42s-1.1,2.42-2.42,2.42-2.42-1.1-2.42-2.42,1.1-2.42,2.42-2.42m0-1.15c-1.99,0-3.58,1.59-3.58,3.58s1.59,3.58,3.58,3.58,3.58-1.59,3.58-3.58-1.59-3.58-3.58-3.58h0Z"/>
        </g>
        <g>
          <path class="cls-1" d="m60.43,59.1c-1.64,0-3-1.36-3-3s1.36-3,3-3,3,1.36,3,3-1.36,3-3,3Z"/>
          <path class="cls-2" d="m60.43,53.67c1.33,0,2.42,1.1,2.42,2.42s-1.1,2.42-2.42,2.42-2.42-1.1-2.42-2.42,1.1-2.42,2.42-2.42m0-1.15c-1.99,0-3.58,1.59-3.58,3.58s1.59,3.58,3.58,3.58,3.58-1.59,3.58-3.58-1.59-3.58-3.58-3.58h0Z"/>
        </g>
      </g>
    </g>
  </g>
</svg>