<?xml version="1.0" encoding="UTF-8"?>
<svg id="Calque_2" data-name="Calque 2" xmlns="http://www.w3.org/2000/svg" viewBox="0 0 39.53 104.18">
  <defs>
    <style>
      .cls-1 {
        fill: #e8629f;
      }

      .cls-2 {
        fill: #fcbe1b;
      }

      .cls-3 {
        fill: #261923;
      }

      .cls-4 {
        fill: none;
        stroke: #e8629f;
        stroke-miterlimit: 10;
        stroke-width: .84px;
      }
    </style>
  </defs>
  <g id="Calque_1-2" data-name="Calque 1">
    <g>
      <polygon class="cls-2" points="34.17 26.59 28.3 26.59 11.26 26.59 5.36 26.59 5.36 30.02 7.96 30.02 5.36 104.09 19.76 104.09 34.17 104.09 31.57 30.02 34.17 30.02 34.17 26.59"/>
      <rect class="cls-1" x=".75" y="86.46" width="37.98" height="17.71"/>
      <polygon class="cls-1" points="32.58 58.91 6.95 58.91 6.49 72.35 33.08 72.35 32.58 58.91"/>
      <polygon class="cls-1" points="31.61 31.03 7.96 31.03 7.45 44.47 32.07 44.47 31.61 31.03"/>
      <g>
        <path class="cls-3" d="m28.1,80.23v-4.9c0-.88.71-1.63,1.63-1.63s1.63.71,1.63,1.63v4.9h-3.27Z"/>
        <path class="cls-1" d="m29.73,73.9c.8,0,1.42.63,1.42,1.42v4.69h-2.85v-4.69c0-.8.63-1.42,1.42-1.42m0-.42c-1,0-1.84.84-1.84,1.84v5.07h3.64v-5.07c.04-1-.8-1.84-1.8-1.84h0Z"/>
      </g>
      <g>
        <path class="cls-3" d="m9.42,52.84v-4.9c0-.88.71-1.63,1.63-1.63s1.63.71,1.63,1.63v4.9h-3.27Z"/>
        <path class="cls-1" d="m11.05,46.52c.8,0,1.42.63,1.42,1.42v4.69h-2.85v-4.69c0-.75.63-1.42,1.42-1.42m0-.38c-1,0-1.84.84-1.84,1.84v5.07h3.64v-5.07c.04-1.05-.8-1.84-1.8-1.84h0Z"/>
      </g>
      <path d="m11.05,88.31h0c1.67,0,3.01,1.34,3.01,3.01v12.85h-6.03v-12.9c0-1.63,1.34-2.97,3.01-2.97h0Z"/>
      <rect class="cls-2" y="26.59" width="39.53" height="3.43"/>
      <polygon class="cls-2" points="31.36 8.33 19.76 0 8.16 8.33 8.16 26.59 31.36 26.59 31.36 8.33"/>
      <polyline class="cls-4" points=".5 26.59 .5 20.1 39.02 20.1 39.02 26.59"/>
      <g>
        <g>
          <rect class="cls-3" x="9.42" y="9.17" width="4.19" height="8.21"/>
          <path class="cls-1" d="m13.36,9.38v7.79h-3.77v-7.79h3.77m.42-.42h-4.56v8.63h4.61v-8.63h-.04Z"/>
        </g>
        <g>
          <rect class="cls-3" x="26.25" y="9.17" width="4.19" height="8.21"/>
          <path class="cls-1" d="m30.19,9.38v7.79h-3.77v-7.79h3.77m.42-.42h-4.61v8.63h4.61v-8.63h0Z"/>
        </g>
        <g>
          <rect class="cls-3" x="14.65" y="9.17" width="10.51" height="8.21"/>
          <path class="cls-1" d="m24.96,9.38v7.79h-10.09v-7.79h10.09m.42-.42h-10.93v8.63h10.93v-8.63h0Z"/>
        </g>
      </g>
    </g>
  </g>
</svg>