<?xml version="1.0" encoding="UTF-8"?>
<svg id="Calque_2" data-name="Calque 2" xmlns="http://www.w3.org/2000/svg" viewBox="0 0 46.48 128">
  <defs>
    <style>
      .cls-1 {
        fill: #e8629f;
      }

      .cls-2 {
        fill: #fcbe1b;
      }

      .cls-3 {
        fill: #261923;
      }
    </style>
  </defs>
  <g id="Calque_1-2" data-name="Calque 1">
    <g>
      <g>
        <g>
          <rect class="cls-1" y="115.57" width="46.48" height="12.43"/>
          <g>
            <rect class="cls-3" x="2.32" y="116.62" width="5.82" height="4.97"/>
            <path class="cls-2" d="m7.96,116.81v4.59H2.51v-4.59h5.44m.38-.38H2.13v5.35h6.2v-5.35h0Z"/>
          </g>
          <g>
            <rect class="cls-3" x="20.33" y="116.62" width="5.82" height="4.97"/>
            <path class="cls-2" d="m25.96,116.81v4.59h-5.44v-4.59h5.44m.38-.38h-6.2v5.35h6.2v-5.35h0Z"/>
          </g>
          <g>
            <rect class="cls-3" x="38.31" y="116.62" width="5.82" height="4.97"/>
            <path class="cls-2" d="m43.95,116.81v4.59h-5.44v-4.59h5.44m.38-.38h-6.2v5.35h6.2v-5.35h0Z"/>
          </g>
          <g>
            <rect class="cls-3" x="33.08" y="116.62" width="2.72" height="4.97"/>
            <path class="cls-2" d="m35.61,116.81v4.59h-2.34v-4.59h2.34m.38-.38h-3.1v5.35h3.1v-5.35h0Z"/>
          </g>
          <g>
            <rect class="cls-3" x="10.68" y="116.62" width="2.72" height="4.97"/>
            <path class="cls-2" d="m13.21,116.81v4.59h-2.34v-4.59h2.34m.38-.38h-3.1v5.35h3.1v-5.35h0Z"/>
          </g>
        </g>
        <g>
          <rect class="cls-1" y="103.12" width="46.48" height="12.43"/>
          <g>
            <rect class="cls-3" x="2.32" y="104.19" width="5.82" height="4.97"/>
            <path class="cls-2" d="m7.96,104.38v4.59H2.51v-4.59h5.44m.38-.38H2.13v5.35h6.2v-5.35h0Z"/>
          </g>
          <g>
            <rect class="cls-3" x="20.33" y="104.19" width="5.82" height="4.97"/>
            <path class="cls-2" d="m25.96,104.38v4.59h-5.44v-4.59h5.44m.38-.38h-6.2v5.35h6.2v-5.35h0Z"/>
          </g>
          <g>
            <rect class="cls-3" x="38.31" y="104.19" width="5.82" height="4.97"/>
            <path class="cls-2" d="m43.95,104.38v4.59h-5.44v-4.59h5.44m.38-.38h-6.2v5.35h6.2v-5.35h0Z"/>
          </g>
          <g>
            <rect class="cls-3" x="33.08" y="104.19" width="2.72" height="4.97"/>
            <path class="cls-2" d="m35.61,104.38v4.59h-2.34v-4.59h2.34m.38-.38h-3.1v5.35h3.1v-5.35h0Z"/>
          </g>
          <g>
            <rect class="cls-3" x="10.68" y="104.19" width="2.72" height="4.97"/>
            <path class="cls-2" d="m13.21,104.38v4.59h-2.34v-4.59h2.34m.38-.38h-3.1v5.35h3.1v-5.35h0Z"/>
          </g>
        </g>
        <g>
          <rect class="cls-1" y="90.69" width="46.48" height="12.43"/>
          <g>
            <rect class="cls-3" x="2.32" y="91.74" width="5.82" height="4.97"/>
            <path class="cls-2" d="m7.96,91.93v4.59H2.51v-4.59h5.44m.38-.38H2.13v5.35h6.2v-5.35h0Z"/>
          </g>
          <g>
            <rect class="cls-3" x="20.33" y="91.74" width="5.82" height="4.97"/>
            <path class="cls-2" d="m25.96,91.93v4.59h-5.44v-4.59h5.44m.38-.38h-6.2v5.35h6.2v-5.35h0Z"/>
          </g>
          <g>
            <rect class="cls-3" x="38.31" y="91.74" width="5.82" height="4.97"/>
            <path class="cls-2" d="m43.95,91.93v4.59h-5.44v-4.59h5.44m.38-.38h-6.2v5.35h6.2v-5.35h0Z"/>
          </g>
          <g>
            <rect class="cls-3" x="33.08" y="91.74" width="2.72" height="4.97"/>
            <path class="cls-2" d="m35.61,91.93v4.59h-2.34v-4.59h2.34m.38-.38h-3.1v5.35h3.1v-5.35h0Z"/>
          </g>
          <g>
            <rect class="cls-3" x="10.68" y="91.74" width="2.72" height="4.97"/>
            <path class="cls-2" d="m13.21,91.93v4.59h-2.34v-4.59h2.34m.38-.38h-3.1v5.35h3.1v-5.35h0Z"/>
          </g>
        </g>
        <g>
          <rect class="cls-1" y="78.25" width="46.48" height="12.43"/>
          <g>
            <rect class="cls-3" x="2.32" y="79.31" width="5.82" height="4.97"/>
            <path class="cls-2" d="m7.96,79.5v4.59H2.51v-4.59h5.44m.38-.38H2.13v5.35h6.2v-5.35h0Z"/>
          </g>
          <g>
            <rect class="cls-3" x="20.33" y="79.31" width="5.82" height="4.97"/>
            <path class="cls-2" d="m25.96,79.5v4.59h-5.44v-4.59h5.44m.38-.38h-6.2v5.35h6.2v-5.35h0Z"/>
          </g>
          <g>
            <rect class="cls-3" x="38.31" y="79.31" width="5.82" height="4.97"/>
            <path class="cls-2" d="m43.95,79.5v4.59h-5.44v-4.59h5.44m.38-.38h-6.2v5.35h6.2v-5.35h0Z"/>
          </g>
          <g>
            <rect class="cls-3" x="33.08" y="79.31" width="2.72" height="4.97"/>
            <path class="cls-2" d="m35.61,79.5v4.59h-2.34v-4.59h2.34m.38-.38h-3.1v5.35h3.1v-5.35h0Z"/>
          </g>
          <g>
            <rect class="cls-3" x="10.68" y="79.31" width="2.72" height="4.97"/>
            <path class="cls-2" d="m13.21,79.5v4.59h-2.34v-4.59h2.34m.38-.38h-3.1v5.35h3.1v-5.35h0Z"/>
          </g>
        </g>
        <g>
          <rect class="cls-1" y="65.82" width="46.48" height="12.43"/>
          <g>
            <rect class="cls-3" x="2.32" y="66.86" width="5.82" height="4.97"/>
            <path class="cls-2" d="m7.96,67.05v4.59H2.51v-4.59h5.44m.38-.38H2.13v5.35h6.2v-5.35h0Z"/>
          </g>
          <g>
            <rect class="cls-3" x="20.33" y="66.86" width="5.82" height="4.97"/>
            <path class="cls-2" d="m25.96,67.05v4.59h-5.44v-4.59h5.44m.38-.38h-6.2v5.35h6.2v-5.35h0Z"/>
          </g>
          <g>
            <rect class="cls-3" x="38.31" y="66.86" width="5.82" height="4.97"/>
            <path class="cls-2" d="m43.95,67.05v4.59h-5.44v-4.59h5.44m.38-.38h-6.2v5.35h6.2v-5.35h0Z"/>
          </g>
          <g>
            <rect class="cls-3" x="33.08" y="66.86" width="2.72" height="4.97"/>
            <path class="cls-2" d="m35.61,67.05v4.59h-2.34v-4.59h2.34m.38-.38h-3.1v5.35h3.1v-5.35h0Z"/>
          </g>
          <g>
            <rect class="cls-3" x="10.68" y="66.86" width="2.72" height="4.97"/>
            <path class="cls-2" d="m13.21,67.05v4.59h-2.34v-4.59h2.34m.38-.38h-3.1v5.35h3.1v-5.35h0Z"/>
          </g>
        </g>
        <g>
          <rect class="cls-1" y="53.37" width="46.48" height="12.43"/>
          <g>
            <rect class="cls-3" x="2.32" y="54.44" width="5.82" height="4.97"/>
            <path class="cls-2" d="m7.96,54.63v4.59H2.51v-4.59h5.44m.38-.38H2.13v5.35h6.2v-5.35h0Z"/>
          </g>
          <g>
            <rect class="cls-3" x="20.33" y="54.44" width="5.82" height="4.97"/>
            <path class="cls-2" d="m25.96,54.63v4.59h-5.44v-4.59h5.44m.38-.38h-6.2v5.35h6.2v-5.35h0Z"/>
          </g>
          <g>
            <rect class="cls-3" x="38.31" y="54.44" width="5.82" height="4.97"/>
            <path class="cls-2" d="m43.95,54.63v4.59h-5.44v-4.59h5.44m.38-.38h-6.2v5.35h6.2v-5.35h0Z"/>
          </g>
          <g>
            <rect class="cls-3" x="33.08" y="54.44" width="2.72" height="4.97"/>
            <path class="cls-2" d="m35.61,54.63v4.59h-2.34v-4.59h2.34m.38-.38h-3.1v5.35h3.1v-5.35h0Z"/>
          </g>
          <g>
            <rect class="cls-3" x="10.68" y="54.44" width="2.72" height="4.97"/>
            <path class="cls-2" d="m13.21,54.63v4.59h-2.34v-4.59h2.34m.38-.38h-3.1v5.35h3.1v-5.35h0Z"/>
          </g>
        </g>
        <g>
          <rect class="cls-1" y="40.94" width="46.48" height="12.45"/>
          <g>
            <rect class="cls-3" x="2.32" y="42.01" width="5.82" height="4.97"/>
            <path class="cls-2" d="m7.96,42.2v4.59H2.51v-4.59h5.44m.38-.38H2.13v5.35h6.2v-5.35h0Z"/>
          </g>
          <g>
            <rect class="cls-3" x="20.33" y="42.01" width="5.82" height="4.97"/>
            <path class="cls-2" d="m25.96,42.2v4.59h-5.44v-4.59h5.44m.38-.38h-6.2v5.35h6.2v-5.35h0Z"/>
          </g>
          <g>
            <rect class="cls-3" x="38.31" y="42.01" width="5.82" height="4.97"/>
            <path class="cls-2" d="m43.95,42.2v4.59h-5.44v-4.59h5.44m.38-.38h-6.2v5.35h6.2v-5.35h0Z"/>
          </g>
          <g>
            <rect class="cls-3" x="33.08" y="42.01" width="2.72" height="4.97"/>
            <path class="cls-2" d="m35.61,42.2v4.59h-2.34v-4.59h2.34m.38-.38h-3.1v5.35h3.1v-5.35h0Z"/>
          </g>
          <g>
            <rect class="cls-3" x="10.68" y="42.01" width="2.72" height="4.97"/>
            <path class="cls-2" d="m13.21,42.2v4.59h-2.34v-4.59h2.34m.38-.38h-3.1v5.35h3.1v-5.35h0Z"/>
          </g>
        </g>
        <g>
          <rect class="cls-1" y="28.49" width="46.48" height="12.45"/>
          <g>
            <rect class="cls-3" x="2.32" y="29.56" width="5.82" height="4.97"/>
            <path class="cls-2" d="m7.96,29.75v4.59H2.51v-4.59h5.44m.38-.38H2.13v5.35h6.2v-5.35h0Z"/>
          </g>
          <g>
            <rect class="cls-3" x="20.33" y="29.56" width="5.82" height="4.97"/>
            <path class="cls-2" d="m25.96,29.75v4.59h-5.44v-4.59h5.44m.38-.38h-6.2v5.35h6.2v-5.35h0Z"/>
          </g>
          <g>
            <rect class="cls-3" x="38.31" y="29.56" width="5.82" height="4.97"/>
            <path class="cls-2" d="m43.95,29.75v4.59h-5.44v-4.59h5.44m.38-.38h-6.2v5.35h6.2v-5.35h0Z"/>
          </g>
          <g>
            <rect class="cls-3" x="33.08" y="29.56" width="2.72" height="4.97"/>
            <path class="cls-2" d="m35.61,29.75v4.59h-2.34v-4.59h2.34m.38-.38h-3.1v5.35h3.1v-5.35h0Z"/>
          </g>
          <g>
            <rect class="cls-3" x="10.68" y="29.56" width="2.72" height="4.97"/>
            <path class="cls-2" d="m13.21,29.75v4.59h-2.34v-4.59h2.34m.38-.38h-3.1v5.35h3.1v-5.35h0Z"/>
          </g>
        </g>
        <g>
          <rect class="cls-1" y="16.06" width="46.48" height="12.45"/>
          <g>
            <rect class="cls-3" x="2.32" y="17.13" width="5.82" height="4.97"/>
            <path class="cls-2" d="m7.96,17.32v4.59H2.51v-4.59h5.44m.38-.38H2.13v5.35h6.2v-5.35h0Z"/>
          </g>
          <g>
            <rect class="cls-3" x="20.33" y="17.13" width="5.82" height="4.97"/>
            <path class="cls-2" d="m25.96,17.32v4.59h-5.44v-4.59h5.44m.38-.38h-6.2v5.35h6.2v-5.35h0Z"/>
          </g>
          <g>
            <rect class="cls-3" x="38.31" y="17.13" width="5.82" height="4.97"/>
            <path class="cls-2" d="m43.95,17.32v4.59h-5.44v-4.59h5.44m.38-.38h-6.2v5.35h6.2v-5.35h0Z"/>
          </g>
          <g>
            <rect class="cls-3" x="33.08" y="17.13" width="2.72" height="4.97"/>
            <path class="cls-2" d="m35.61,17.32v4.59h-2.34v-4.59h2.34m.38-.38h-3.1v5.35h3.1v-5.35h0Z"/>
          </g>
          <g>
            <rect class="cls-3" x="10.68" y="17.13" width="2.72" height="4.97"/>
            <path class="cls-2" d="m13.21,17.32v4.59h-2.34v-4.59h2.34m.38-.38h-3.1v5.35h3.1v-5.35h0Z"/>
          </g>
        </g>
        <g>
          <rect class="cls-1" y="3.62" width="46.48" height="12.45"/>
          <g>
            <rect class="cls-3" x="2.32" y="4.68" width="5.82" height="4.97"/>
            <path class="cls-2" d="m7.96,4.87v4.59H2.51v-4.59h5.44m.38-.38H2.13v5.35h6.2v-5.35h0Z"/>
          </g>
          <g>
            <rect class="cls-3" x="20.33" y="4.68" width="5.82" height="4.97"/>
            <path class="cls-2" d="m25.96,4.87v4.59h-5.44v-4.59h5.44m.38-.38h-6.2v5.35h6.2v-5.35h0Z"/>
          </g>
          <g>
            <rect class="cls-3" x="38.31" y="4.68" width="5.82" height="4.97"/>
            <path class="cls-2" d="m43.95,4.87v4.59h-5.44v-4.59h5.44m.38-.38h-6.2v5.35h6.2v-5.35h0Z"/>
          </g>
          <g>
            <rect class="cls-3" x="33.08" y="4.68" width="2.72" height="4.97"/>
            <path class="cls-2" d="m35.61,4.87v4.59h-2.34v-4.59h2.34m.38-.38h-3.1v5.35h3.1v-5.35h0Z"/>
          </g>
          <g>
            <rect class="cls-3" x="10.68" y="4.68" width="2.72" height="4.97"/>
            <path class="cls-2" d="m13.21,4.87v4.59h-2.34v-4.59h2.34m.38-.38h-3.1v5.35h3.1v-5.35h0Z"/>
          </g>
        </g>
      </g>
      <g>
        <rect class="cls-2" y="35.35" width="46.48" height="5.6"/>
        <rect class="cls-2" y="22.92" width="46.48" height="5.6"/>
        <rect class="cls-2" y="47.79" width="46.48" height="5.6"/>
        <rect class="cls-2" y="10.47" width="46.48" height="5.6"/>
        <rect class="cls-2" width="46.48" height="3.62"/>
        <rect class="cls-2" y="85.1" width="46.48" height="5.58"/>
        <rect class="cls-2" y="122.42" width="46.48" height="5.58"/>
        <rect class="cls-2" y="60.22" width="46.48" height="5.58"/>
        <rect class="cls-2" y="109.98" width="46.48" height="5.58"/>
        <rect class="cls-2" y="97.55" width="46.48" height="5.58"/>
        <rect class="cls-2" y="72.67" width="46.48" height="5.58"/>
      </g>
    </g>
  </g>
</svg>