<?xml version="1.0" encoding="UTF-8"?>
<svg id="Calque_2" data-name="Calque 2" xmlns="http://www.w3.org/2000/svg" viewBox="0 0 128 87.56">
  <defs>
    <style>
      .cls-1 {
        fill: #e8629f;
      }

      .cls-2 {
        fill: #fcbe1b;
      }

      .cls-3 {
        fill: #261923;
      }

      .cls-4 {
        fill: none;
        stroke: #e8629f;
        stroke-miterlimit: 10;
        stroke-width: .65px;
      }
    </style>
  </defs>
  <g id="Calque_1-2" data-name="Calque 1">
    <g>
      <rect class="cls-2" y="47.52" width="128" height="40.04"/>
      <path class="cls-1" d="m95.12,29.48h-62.25c-4.21,0-7.61,3.42-7.61,7.61v50.44h77.47v-50.44c0-4.19-3.42-7.61-7.61-7.61h0Z"/>
      <path class="cls-2" d="m43.69,18.45h40.6c2.56,0,4.64,2.09,4.64,4.64v64.46h-49.86V23.09c0-2.56,2.06-4.64,4.62-4.64h0Z"/>
      <path class="cls-1" d="m73.92,12.86h-19.87c-1.23,0-2.21.99-2.21,2.21v72.46h24.3V15.07c0-1.23-.99-2.21-2.21-2.21h0Z"/>
      <path class="cls-2" d="m63.99,0h0c4.11,0,7.44,3.33,7.44,7.44v80.12h-14.88V7.44c.02-4.11,3.35-7.44,7.44-7.44h0Z"/>
      <g>
        <rect class="cls-3" x="77.73" y="74.65" width="9.78" height="12.66"/>
        <path class="cls-1" d="m87.3,74.87v12.23h-9.35v-12.23h9.35m.43-.43h-10.21v13.09h10.21v-13.09h0Z"/>
      </g>
      <g>
        <rect class="cls-3" x="110.48" y="74.65" width="9.78" height="12.66"/>
        <path class="cls-1" d="m120.04,74.87v12.23h-9.35v-12.23h9.35m.43-.43h-10.21v13.09h10.21v-13.09h0Z"/>
      </g>
      <g>
        <rect class="cls-3" x="7.74" y="74.65" width="9.78" height="12.66"/>
        <path class="cls-1" d="m17.31,74.87v12.23H7.96v-12.23h9.35m.43-.43H7.53v13.09h10.21v-13.09h0Z"/>
      </g>
      <g>
        <rect class="cls-3" x="59.11" y="74.65" width="9.78" height="6.97"/>
        <path class="cls-1" d="m68.68,74.87v6.54h-9.35v-6.54h9.35m.43-.43h-10.21v7.4h10.21v-7.4h0Z"/>
      </g>
      <g>
        <rect class="cls-2" x="30.45" y="53.22" width="67.11" height="6.97"/>
        <path class="cls-1" d="m97.34,53.43v6.54H30.66v-6.54h66.68m.43-.43H30.23v7.4h67.54v-7.4h0Z"/>
      </g>
      <g>
        <rect class="cls-3" x="40.49" y="74.65" width="9.78" height="12.66"/>
        <path class="cls-1" d="m50.06,74.87v12.23h-9.35v-12.23h9.35m.43-.43h-10.21v13.09h10.21v-13.09h0Z"/>
      </g>
      <rect class="cls-1" y="45.5" width="25.26" height="2.02"/>
      <rect class="cls-1" x="102.74" y="45.5" width="25.26" height="2.02"/>
      <polygon class="cls-1" points="63.99 9.7 60.33 11.63 61.04 7.55 58.08 4.67 62.16 4.06 63.99 .37 65.82 4.06 69.92 4.67 66.96 7.55 67.67 11.63 63.99 9.7"/>
      <g>
        <line class="cls-4" x1="25.26" y1="51.22" y2="51.22"/>
        <line class="cls-4" x1="25.26" y1="53.45" y2="53.45"/>
        <line class="cls-4" x1="25.26" y1="55.71" y2="55.71"/>
      </g>
      <g>
        <line class="cls-4" x1="128" y1="51.22" x2="102.74" y2="51.22"/>
        <line class="cls-4" x1="128" y1="53.45" x2="102.74" y2="53.45"/>
        <line class="cls-4" x1="128" y1="55.71" x2="102.74" y2="55.71"/>
      </g>
      <g>
        <line class="cls-4" x1="80.37" y1="12.86" x2="80.37" y2="53"/>
        <line class="cls-4" x1="82.61" y1="12.86" x2="82.61" y2="53"/>
        <line class="cls-4" x1="84.87" y1="12.86" x2="84.87" y2="53"/>
      </g>
      <g>
        <line class="cls-4" x1="43.13" y1="12.86" x2="43.13" y2="53"/>
        <line class="cls-4" x1="45.37" y1="12.86" x2="45.37" y2="53"/>
        <line class="cls-4" x1="47.63" y1="12.86" x2="47.63" y2="53"/>
      </g>
    </g>
  </g>
</svg>