<?xml version="1.0" encoding="UTF-8"?>
<svg id="Calque_2" data-name="Calque 2" xmlns="http://www.w3.org/2000/svg" viewBox="0 0 205.3 121.43">
  <defs>
    <style>
      .cls-1 {
        fill: #e8629f;
      }

      .cls-2 {
        fill: #fcbe1b;
      }

      .cls-3 {
        fill: #fcbe1c;
      }

      .cls-4 {
        fill: #e6629f;
      }

      .cls-5 {
        fill: #261923;
      }
    </style>
  </defs>
  <g id="Calque_1-2" data-name="Calque 1">
    <g>
      <rect class="cls-2" x="43.04" y="53.96" width="119.19" height="52.49"/>
      <g>
        <rect class="cls-2" x="43.62" y="54.54" width="16.37" height="51.33"/>
        <path class="cls-4" d="m59.4,55.12v50.18h-15.21v-50.18h15.21m1.16-1.16h-17.52v52.49h17.52v-52.49h0Z"/>
      </g>
      <g>
        <rect class="cls-2" x="62.84" y="54.54" width="16.37" height="51.33"/>
        <path class="cls-4" d="m78.62,55.12v50.18h-15.21v-50.18h15.21m1.16-1.16h-17.52v52.49h17.52v-52.49h0Z"/>
      </g>
      <path class="cls-1" d="m77.23,40.8c0,4.44,2.55,8.26,2.55,8.26v4.94h-17.52s-1.27-2.01-1.27-6.33,4.82-7.14,4.82-7.14c0,0,5.21-3.28,5.21-5.67,0,2.39,3.44,4.63,6.21,5.94h0Z"/>
      <polygon class="cls-1" points="102.63 53.96 79.78 53.96 79.78 107.8 102.63 107.8 125.48 107.8 125.48 53.96 102.63 53.96"/>
      <polygon class="cls-2" points="102.63 55.27 81.44 55.27 81.44 106.49 102.63 106.49 123.82 106.49 123.82 55.27 102.63 55.27"/>
      <polygon class="cls-1" points="102.63 106.49 0 106.49 0 121.43 102.63 121.43 205.3 121.43 205.3 106.49 102.63 106.49"/>
      <g>
        <rect class="cls-3" x="87.15" y="60.98" width="30.96" height="44.89"/>
        <path class="cls-1" d="m117.53,61.56v43.73h-29.8v-43.73h29.8m1.16-1.16h-32.11v46.05h32.11v-46.05h0Z"/>
      </g>
      <g>
        <rect class="cls-2" x="145.32" y="54.54" width="16.37" height="51.33"/>
        <path class="cls-4" d="m161.11,55.12v50.18h-15.21v-50.18h15.21m1.16-1.16h-17.52v52.49h17.52v-52.49h0Z"/>
      </g>
      <g>
        <rect class="cls-2" x="126.06" y="54.54" width="16.37" height="51.33"/>
        <path class="cls-4" d="m141.85,55.12v50.18h-15.21v-50.18h15.21m1.16-1.16h-17.52v52.49h17.52v-52.49h0Z"/>
      </g>
      <polygon class="cls-2" points="102.63 48.63 79.78 48.63 79.78 53.96 102.63 53.96 125.48 53.96 125.48 48.63 102.63 48.63"/>
      <path class="cls-1" d="m128.07,40.8c0,4.44-2.55,8.26-2.55,8.26v4.94h17.52s1.27-2.01,1.27-6.33-4.82-7.14-4.82-7.14c0,0-5.17-3.2-5.17-5.64-.08,2.35-3.51,4.59-6.25,5.91h0Z"/>
      <g>
        <path class="cls-1" d="m80.13,48.56c-.73-1.39-3.9-7.64-3.9-14.98,0-8.3,7.68-16.13,11.97-18.18,3.55-1.7,12.12-9.22,14.44-13.59,2.32,4.36,10.88,11.89,14.44,13.59,4.28,2.08,11.97,9.92,11.97,18.18,0,7.33-3.13,13.59-3.9,14.98h-45Z"/>
        <path class="cls-3" d="m102.63,2.97c1.2,1.89,3.13,3.98,4.86,5.67,3.4,3.36,7.06,6.21,9.3,7.29,1.74.85,4.71,3.05,7.37,6.6,1.93,2.59,4.25,6.6,4.25,11.08,0,6.75-2.74,12.58-3.67,14.4h-44.27c-.93-1.81-3.67-7.64-3.67-14.4,0-4.48,2.32-8.49,4.25-11.08,2.66-3.55,5.64-5.75,7.37-6.6,2.24-1.08,5.91-3.94,9.3-7.29,1.78-1.7,3.71-3.82,4.9-5.67m0-2.97c0,3.09-10.27,12.78-14.67,14.9s-12.31,10.19-12.31,18.72,4.13,15.55,4.13,15.55h45.7s4.13-6.99,4.13-15.55-7.91-16.6-12.31-18.72-14.67-11.81-14.67-14.9h0Z"/>
      </g>
      <g>
        <path class="cls-5" d="m66.97,101.59v-9.49c.15-.58.62-2.01,1.89-2.32,1-.23,1.74-.77,2.16-1.16.42.39,1.2.93,2.2,1.16,1.27.31,1.74,1.78,1.85,2.32v9.49h-8.11Z"/>
        <path class="cls-1" d="m71.02,89.35c.5.39,1.2.77,2.05.96.93.23,1.31,1.39,1.43,1.81v8.84h-6.95v-8.84c.12-.42.5-1.58,1.43-1.81.89-.19,1.54-.58,2.05-.96m0-1.58s-.85,1.12-2.32,1.43c-1.85.46-2.28,2.7-2.32,2.78v10.15h9.26v-10.15c-.04-.12-.46-2.32-2.32-2.78-1.47-.31-2.32-1.43-2.32-1.43h0Z"/>
      </g>
      <g>
        <path class="cls-5" d="m66.97,76v-9.49c.15-.58.62-2.01,1.89-2.32,1-.23,1.74-.77,2.16-1.16.42.39,1.2.93,2.2,1.16,1.27.31,1.74,1.78,1.85,2.32v9.49h-8.11Z"/>
        <path class="cls-1" d="m71.02,63.76c.5.39,1.2.77,2.05.96.93.23,1.31,1.39,1.43,1.81v8.84h-6.95v-8.84c.12-.42.5-1.58,1.43-1.81.89-.15,1.54-.58,2.05-.96m0-1.58s-.85,1.12-2.32,1.43c-1.85.46-2.28,2.7-2.32,2.78v10.15h9.26v-10.15c-.04-.12-.46-2.32-2.32-2.78-1.47-.31-2.32-1.43-2.32-1.43h0Z"/>
      </g>
      <g>
        <path class="cls-5" d="m47.75,101.59v-9.49c.15-.58.62-2.01,1.89-2.32,1-.23,1.74-.77,2.16-1.16.42.39,1.2.93,2.2,1.16,1.27.31,1.74,1.78,1.85,2.32v9.49h-8.11Z"/>
        <path class="cls-1" d="m51.8,89.35c.5.39,1.2.77,2.05.96.93.23,1.31,1.39,1.43,1.81v8.84h-6.95v-8.84c.12-.42.5-1.58,1.43-1.81.85-.19,1.54-.58,2.05-.96m0-1.58s-.85,1.12-2.32,1.43c-1.85.46-2.28,2.7-2.32,2.78v10.15h9.26v-10.15c-.04-.12-.46-2.32-2.32-2.78-1.47-.31-2.32-1.43-2.32-1.43h0Z"/>
      </g>
      <g>
        <path class="cls-5" d="m47.75,76v-9.49c.15-.58.62-2.01,1.89-2.32,1-.23,1.74-.77,2.16-1.16.42.39,1.2.93,2.2,1.16,1.27.31,1.74,1.78,1.85,2.32v9.49h-8.11Z"/>
        <path class="cls-1" d="m51.8,63.76c.5.39,1.2.77,2.05.96.93.23,1.31,1.39,1.43,1.81v8.84h-6.95v-8.84c.12-.42.5-1.58,1.43-1.81.85-.15,1.54-.58,2.05-.96m0-1.58s-.85,1.12-2.32,1.43c-1.85.46-2.28,2.7-2.32,2.78v10.15h9.26v-10.15c-.04-.12-.46-2.32-2.32-2.78-1.47-.31-2.32-1.43-2.32-1.43h0Z"/>
      </g>
      <g>
        <path class="cls-5" d="m113.9,75.61h0c.04.08.04.04,0,0Z"/>
        <g>
          <path class="cls-5" d="m91.94,105.91v-30.22c.31-1.58,1.54-6.83,5.21-7.99,2.74-.77,4.63-2.86,5.44-3.94.85,1.08,2.74,3.16,5.48,3.94,3.67,1.16,4.9,6.41,5.21,7.99h0v30.22h-21.34Z"/>
          <path class="cls-1" d="m102.63,64.65c1.04,1.2,2.86,2.86,5.29,3.59,2.66.85,4.21,4.44,4.82,7.49v29.57h-20.23v-29.57c.58-3.09,2.16-6.64,4.82-7.49,2.47-.69,4.28-2.39,5.29-3.59m0-1.89s-2.08,3.36-5.64,4.36c-4.44,1.43-5.56,8.14-5.64,8.49v30.84h22.54v-30.8c-.08-.39-1.2-7.1-5.64-8.49-3.55-1.04-5.64-4.4-5.64-4.4h0Z"/>
        </g>
      </g>
      <g>
        <path class="cls-5" d="m130.19,101.59v-9.49c.15-.58.62-2.01,1.89-2.32,1-.23,1.74-.77,2.16-1.16.42.39,1.2.93,2.2,1.16,1.27.31,1.74,1.78,1.85,2.32v9.49h-8.11Z"/>
        <path class="cls-1" d="m134.24,89.35c.5.39,1.2.77,2.05.96.93.23,1.31,1.39,1.43,1.81v8.84h-6.95v-8.84c.12-.42.5-1.58,1.43-1.81.89-.19,1.54-.58,2.05-.96m0-1.58s-.85,1.12-2.32,1.43c-1.85.46-2.28,2.7-2.32,2.78v10.15h9.26v-10.15c-.04-.12-.46-2.32-2.32-2.78-1.47-.31-2.32-1.43-2.32-1.43h0Z"/>
      </g>
      <g>
        <path class="cls-5" d="m130.19,76v-9.49c.15-.58.62-2.01,1.89-2.32,1-.23,1.74-.77,2.16-1.16.42.39,1.2.93,2.2,1.16,1.27.31,1.74,1.78,1.85,2.32v9.49h-8.11Z"/>
        <path class="cls-1" d="m134.24,63.76c.5.39,1.2.77,2.05.96.93.23,1.31,1.39,1.43,1.81v8.84h-6.95v-8.84c.12-.42.5-1.58,1.43-1.81.89-.15,1.54-.58,2.05-.96m0-1.58s-.85,1.12-2.32,1.43c-1.85.46-2.28,2.7-2.32,2.78v10.15h9.26v-10.15c-.04-.12-.46-2.32-2.32-2.78-1.47-.31-2.32-1.43-2.32-1.43h0Z"/>
      </g>
      <g>
        <path class="cls-5" d="m99.85,81.13v-6.52c.12-.39.42-1.35,1.31-1.58.69-.15,1.2-.54,1.51-.81.31.27.81.66,1.51.81.89.23,1.2,1.24,1.27,1.58v6.52h-5.6Z"/>
        <path class="cls-3" d="m102.63,72.72c.35.27.81.54,1.39.66.66.15.93.96,1,1.27v6.1h-4.82v-6.1c.08-.27.35-1.08,1-1.27.62-.12,1.12-.39,1.43-.66m.04-1.08s-.58.77-1.58,1c-1.27.31-1.58,1.85-1.58,1.93v6.95h6.37v-6.95c0-.08-.35-1.58-1.58-1.93-1.04-.23-1.62-1-1.62-1h0Z"/>
      </g>
      <g>
        <path class="cls-5" d="m99.85,100.35v-6.52c.12-.39.42-1.35,1.31-1.58.69-.15,1.2-.54,1.51-.81.31.27.81.66,1.51.81.89.23,1.2,1.24,1.27,1.58v6.52h-5.6Z"/>
        <path class="cls-3" d="m102.63,91.94c.35.27.81.54,1.39.66.66.15.93.96,1,1.27v6.1h-4.82v-6.1c.08-.27.35-1.08,1-1.27.62-.12,1.12-.39,1.43-.66m.04-1.04s-.58.77-1.58,1c-1.27.31-1.58,1.85-1.58,1.93v6.95h6.37v-6.95c0-.08-.35-1.58-1.58-1.93-1.04-.27-1.62-1-1.62-1h0Z"/>
      </g>
      <g>
        <path class="cls-5" d="m149.45,101.59v-9.49c.15-.58.62-2.01,1.89-2.32,1-.23,1.74-.77,2.16-1.16.42.39,1.2.93,2.2,1.16,1.27.31,1.74,1.78,1.85,2.32v9.49h-8.11Z"/>
        <path class="cls-1" d="m153.5,89.35c.5.39,1.2.77,2.05.96.93.23,1.31,1.39,1.43,1.81v8.84h-6.95v-8.84c.12-.42.5-1.58,1.43-1.81.85-.19,1.54-.58,2.05-.96m-.04-1.58s-.85,1.12-2.32,1.43c-1.85.46-2.28,2.7-2.32,2.78v10.15h9.26v-10.15c-.04-.12-.46-2.32-2.32-2.78-1.43-.31-2.28-1.43-2.32-1.43h0Z"/>
      </g>
      <g>
        <path class="cls-5" d="m149.45,76v-9.49c.15-.58.62-2.01,1.89-2.32,1-.23,1.74-.77,2.16-1.16.42.39,1.2.93,2.2,1.16,1.27.31,1.74,1.78,1.85,2.32v9.49h-8.11Z"/>
        <path class="cls-1" d="m153.5,63.76c.5.39,1.2.77,2.05.96.93.23,1.31,1.39,1.43,1.81v8.84h-6.95v-8.84c.12-.42.5-1.58,1.43-1.81.85-.15,1.54-.58,2.05-.96m-.04-1.58s-.85,1.12-2.32,1.43c-1.85.46-2.28,2.7-2.32,2.78v10.15h9.26v-10.15c-.04-.12-.46-2.32-2.32-2.78-1.43-.31-2.28-1.43-2.32-1.43h0Z"/>
      </g>
      <g>
        <path class="cls-2" d="m18.49,78.85l-.73-29.6-.04-2.28-.62-24.78s-1.04-3.16-3.24-3.16-3.24,3.16-3.24,3.16l-.62,24.78-.08,2.28-.73,29.6-.08,2.28-.66,25.36h10.73l-.66-25.4-.04-2.24h0Z"/>
        <rect class="cls-1" x="7.84" y="53.15" width="11.93" height="2.28"/>
        <rect class="cls-1" x="7.84" y="27.79" width="11.93" height="2.28"/>
        <rect class="cls-1" x="7.14" y="82.33" width="13.35" height="2.28"/>
        <g>
          <path class="cls-1" d="m15.75,16.13c-.58-.27-1.93-1.54-1.93-1.93,0,.39-1.35,1.66-1.93,1.93s-1.62,1.31-1.62,2.43.54,2.05.54,2.05h5.98s.54-.93.54-2.05-1-2.16-1.58-2.43h0Z"/>
          <rect class="cls-1" x="9.15" y="20.61" width="9.34" height="1.04"/>
          <rect class="cls-2" x="9.88" y="21.65" width="7.84" height="6.14"/>
        </g>
      </g>
      <g>
        <path class="cls-2" d="m35.74,85.22l-.58-22.77-.04-1.74-.46-19.03s-.81-2.43-2.51-2.43-2.51,2.43-2.51,2.43l-.46,19.03-.04,1.74-.58,22.77-.04,1.74-.5,19.53h8.26l-.5-19.53-.04-1.74h0Z"/>
        <rect class="cls-1" x="27.56" y="65.46" width="9.19" height="1.74"/>
        <rect class="cls-1" x="27.56" y="45.97" width="9.19" height="1.74"/>
        <rect class="cls-1" x="27.02" y="87.89" width="10.27" height="1.74"/>
        <g>
          <path class="cls-1" d="m33.62,36.98c-.42-.19-1.47-1.2-1.47-1.51,0,.31-1.04,1.27-1.47,1.51-.42.19-1.24,1.04-1.24,1.89s.42,1.54.42,1.54h4.59s.42-.69.42-1.54-.85-1.66-1.27-1.89h0Z"/>
          <rect class="cls-1" x="28.56" y="40.45" width="7.18" height=".81"/>
          <rect class="cls-2" x="29.14" y="41.22" width="6.02" height="4.71"/>
        </g>
      </g>
      <g>
        <path class="cls-2" d="m186.85,78.85l.73-29.6.08-2.28.62-24.78s1.04-3.16,3.24-3.16,3.24,3.16,3.24,3.16l.62,24.78.08,2.28.73,29.6.08,2.28.66,25.36h-10.73l.66-25.36v-2.28Z"/>
        <rect class="cls-1" x="185.58" y="53.15" width="11.93" height="2.28"/>
        <rect class="cls-1" x="185.58" y="27.79" width="11.93" height="2.28"/>
        <rect class="cls-1" x="184.84" y="82.33" width="13.35" height="2.28"/>
        <g>
          <path class="cls-1" d="m189.63,16.13c.58-.27,1.93-1.54,1.93-1.93,0,.39,1.35,1.66,1.93,1.93s1.62,1.31,1.62,2.43-.54,2.05-.54,2.05h-5.94s-.54-.93-.54-2.05.96-2.16,1.54-2.43h0Z"/>
          <rect class="cls-1" x="186.89" y="20.61" width="9.34" height="1.04"/>
          <rect class="cls-2" x="187.62" y="21.65" width="7.84" height="6.14"/>
        </g>
      </g>
      <g>
        <path class="cls-2" d="m169.64,85.22l.58-22.77.04-1.74.46-19.03s.81-2.43,2.51-2.43,2.51,2.43,2.51,2.43l.46,19.03.04,1.74.58,22.77.04,1.74.5,19.53h-8.26l.5-19.53.04-1.74h0Z"/>
        <rect class="cls-1" x="168.63" y="65.46" width="9.19" height="1.74"/>
        <rect class="cls-1" x="168.63" y="45.97" width="9.19" height="1.74"/>
        <rect class="cls-1" x="168.05" y="87.89" width="10.27" height="1.74"/>
        <g>
          <path class="cls-1" d="m171.72,36.98c.42-.19,1.47-1.2,1.47-1.51,0,.31,1.04,1.27,1.47,1.51.42.19,1.24,1.04,1.24,1.89s-.42,1.54-.42,1.54h-4.55s-.42-.69-.42-1.54.81-1.66,1.24-1.89h0Z"/>
          <rect class="cls-1" x="169.6" y="40.45" width="7.18" height=".81"/>
          <rect class="cls-2" x="170.18" y="41.22" width="6.02" height="4.71"/>
        </g>
      </g>
      <g>
        <g>
          <path class="cls-5" d="m99,119.88v-8.38c.12-.5.54-1.81,1.74-2.08.89-.19,1.54-.73,1.93-1.08.35.35,1,.85,1.93,1.08,1.2.31,1.58,1.66,1.7,2.08v8.38h-7.29Z"/>
          <path class="cls-3" d="m102.63,108.84c.42.35,1.04.73,1.81.93.96.23,1.31,1.35,1.43,1.78v7.95h-6.52v-7.95c.12-.42.46-1.54,1.43-1.78.81-.15,1.47-.58,1.85-.93m0-1.08s-.73.96-2.01,1.24c-1.58.39-1.97,2.35-2.01,2.43v8.8h8.07v-8.8c-.04-.08-.42-2.01-2.01-2.43-1.27-.27-2.01-1.24-2.05-1.24h0Z"/>
        </g>
        <g>
          <path class="cls-5" d="m87.73,119.88v-8.38c.12-.5.54-1.81,1.74-2.08.89-.19,1.54-.73,1.93-1.08.35.35,1,.85,1.93,1.08,1.2.31,1.58,1.66,1.7,2.08v8.38h-7.29Z"/>
          <path class="cls-3" d="m91.36,108.84c.42.35,1.04.73,1.81.93.96.23,1.31,1.35,1.43,1.78v7.95h-6.52v-7.95c.12-.42.46-1.54,1.43-1.78.81-.15,1.43-.58,1.85-.93m0-1.08s-.73.96-2.01,1.24c-1.58.39-1.97,2.35-2.01,2.43v8.8h8.07v-8.8c-.04-.08-.42-2.01-2.01-2.43-1.27-.27-2.05-1.24-2.05-1.24h0Z"/>
        </g>
        <g>
          <path class="cls-5" d="m76.46,119.88v-8.38c.12-.5.54-1.81,1.74-2.08.89-.19,1.54-.73,1.93-1.08.35.35,1,.85,1.93,1.08,1.2.31,1.58,1.66,1.7,2.08v8.38h-7.29Z"/>
          <path class="cls-3" d="m80.09,108.84c.42.35,1.04.73,1.81.93.96.23,1.31,1.35,1.43,1.78v7.95h-6.52v-7.95c.12-.42.46-1.54,1.43-1.78.81-.15,1.43-.58,1.85-.93m0-1.08s-.73.96-2.01,1.24c-1.58.39-1.97,2.35-2.01,2.43v8.8h8.07v-8.8c-.04-.08-.42-2.01-2.01-2.43-1.31-.27-2.05-1.24-2.05-1.24h0Z"/>
        </g>
        <g>
          <path class="cls-5" d="m65.19,119.88v-8.38c.12-.5.54-1.81,1.74-2.08.89-.19,1.54-.73,1.93-1.08.35.35,1,.85,1.93,1.08,1.2.31,1.58,1.66,1.7,2.08v8.38h-7.29Z"/>
          <path class="cls-3" d="m68.82,108.84c.42.35,1.04.73,1.81.93.96.23,1.31,1.35,1.43,1.78v7.95h-6.52v-7.95c.12-.42.46-1.54,1.43-1.78.81-.15,1.43-.58,1.85-.93m0-1.08s-.73.96-2.01,1.24c-1.58.39-1.97,2.35-2.01,2.43v8.8h8.07v-8.8c-.04-.08-.42-2.01-2.01-2.43-1.31-.27-2.05-1.24-2.05-1.24h0Z"/>
        </g>
        <g>
          <path class="cls-5" d="m53.88,119.88v-8.38c.12-.5.54-1.81,1.74-2.08.89-.19,1.54-.73,1.93-1.08.35.35,1,.85,1.93,1.08,1.2.31,1.58,1.66,1.7,2.08v8.38h-7.29Z"/>
          <path class="cls-3" d="m57.55,108.84c.42.35,1.04.73,1.81.93.93.23,1.31,1.35,1.43,1.78v7.95h-6.52v-7.95c.12-.42.46-1.54,1.43-1.78.81-.15,1.43-.58,1.85-.93m0-1.08s-.73.96-2.01,1.24c-1.58.39-1.97,2.35-2.01,2.43v8.8h8.07v-8.8c-.04-.08-.42-2.01-2.01-2.43-1.31-.27-2.05-1.24-2.05-1.24h0Z"/>
        </g>
        <g>
          <path class="cls-5" d="m42.61,119.88v-8.38c.12-.5.54-1.81,1.74-2.08.89-.19,1.54-.73,1.93-1.08.35.35,1,.85,1.93,1.08,1.2.31,1.62,1.66,1.7,2.08v8.38h-7.29Z"/>
          <path class="cls-3" d="m46.24,108.84c.42.35,1.04.73,1.81.93.93.23,1.31,1.35,1.43,1.78v7.95h-6.52v-7.95c.12-.42.46-1.54,1.43-1.78.81-.15,1.47-.58,1.85-.93m.04-1.08s-.73.96-2.01,1.24c-1.58.39-1.97,2.35-2.01,2.43v8.8h8.07v-8.8c-.04-.08-.42-2.01-2.01-2.43-1.31-.27-2.05-1.24-2.05-1.24h0Z"/>
        </g>
        <g>
          <path class="cls-5" d="m31.34,119.88v-8.38c.12-.5.54-1.81,1.74-2.08.89-.19,1.54-.73,1.93-1.08.35.35,1,.85,1.93,1.08,1.2.31,1.58,1.66,1.7,2.08v8.38h-7.29Z"/>
          <path class="cls-3" d="m34.97,108.84c.42.35,1.04.73,1.81.93.93.23,1.31,1.35,1.43,1.78v7.95h-6.48v-7.95c.12-.42.46-1.54,1.43-1.78.77-.15,1.43-.58,1.81-.93m0-1.08s-.73.96-2.01,1.24c-1.58.39-1.97,2.35-2.01,2.43v8.8h8.07v-8.8c-.04-.08-.42-2.01-2.01-2.43-1.27-.27-2.01-1.24-2.05-1.24h0Z"/>
        </g>
        <g>
          <path class="cls-5" d="m20.07,119.88v-8.38c.12-.5.54-1.81,1.74-2.08.89-.19,1.54-.73,1.93-1.08.35.35,1,.85,1.93,1.08,1.2.31,1.58,1.66,1.7,2.08v8.38h-7.29Z"/>
          <path class="cls-3" d="m23.7,108.84c.42.35,1.04.73,1.81.93.93.23,1.31,1.35,1.43,1.78v7.95h-6.48v-7.95c.12-.42.46-1.54,1.43-1.78.77-.15,1.39-.58,1.81-.93m0-1.08s-.73.96-2.01,1.24c-1.58.39-1.97,2.35-2.01,2.43v8.8h8.07v-8.8c-.04-.08-.42-2.01-2.01-2.43-1.27-.27-2.05-1.24-2.05-1.24h0Z"/>
        </g>
        <g>
          <path class="cls-5" d="m177.93,119.88v-8.38c.12-.5.54-1.81,1.74-2.08.89-.19,1.54-.73,1.93-1.08.35.35,1,.85,1.93,1.08,1.2.31,1.62,1.66,1.7,2.08v8.38h-7.29Z"/>
          <path class="cls-3" d="m181.6,108.84c.42.35,1.04.73,1.81.93.96.23,1.31,1.35,1.43,1.78v7.95h-6.52v-7.95c.12-.42.46-1.54,1.43-1.78.81-.15,1.43-.58,1.85-.93m0-1.08s-.73.96-2.01,1.24c-1.58.39-2.01,2.35-2.01,2.43v8.8h8.07v-8.8c-.04-.08-.42-2.01-2.01-2.43-1.31-.27-2.05-1.24-2.05-1.24h0Z"/>
        </g>
        <g>
          <path class="cls-5" d="m166.66,119.88v-8.38c.12-.5.54-1.81,1.74-2.08.89-.19,1.54-.73,1.93-1.08.35.35,1,.85,1.93,1.08,1.2.31,1.62,1.66,1.7,2.08v8.38h-7.29Z"/>
          <path class="cls-3" d="m170.29,108.84c.42.35,1.04.73,1.81.93.96.23,1.31,1.35,1.43,1.78v7.95h-6.52v-7.95c.12-.42.46-1.54,1.43-1.78.81-.15,1.43-.58,1.85-.93m0-1.08s-.73.96-2.01,1.24c-1.58.39-2.01,2.35-2.01,2.43v8.8h8.07v-8.8c-.04-.08-.42-2.01-2.01-2.43-1.27-.27-2.01-1.24-2.05-1.24h0Z"/>
        </g>
        <g>
          <path class="cls-5" d="m155.39,119.88v-8.38c.12-.5.54-1.81,1.74-2.08.89-.19,1.54-.73,1.93-1.08.35.35,1,.85,1.93,1.08,1.2.31,1.58,1.66,1.7,2.08v8.38h-7.29Z"/>
          <path class="cls-3" d="m159.02,108.84c.42.35,1.04.73,1.81.93.96.23,1.31,1.35,1.43,1.78v7.95h-6.52v-7.95c.12-.42.46-1.54,1.43-1.78.81-.15,1.43-.58,1.85-.93m0-1.08s-.73.96-2.01,1.24c-1.58.39-1.97,2.35-2.01,2.43v8.8h8.07v-8.8c-.04-.08-.42-2.01-2.01-2.43-1.27-.27-2.05-1.24-2.05-1.24h0Z"/>
        </g>
        <g>
          <path class="cls-5" d="m144.12,119.88v-8.38c.12-.5.54-1.81,1.74-2.08.89-.19,1.54-.73,1.93-1.08.35.35,1,.85,1.93,1.08,1.2.31,1.58,1.66,1.7,2.08v8.38h-7.29Z"/>
          <path class="cls-3" d="m147.75,108.84c.42.35,1.04.73,1.81.93.96.23,1.31,1.35,1.43,1.78v7.95h-6.52v-7.95c.12-.42.46-1.54,1.43-1.78.81-.15,1.43-.58,1.85-.93m0-1.08s-.73.96-2.01,1.24c-1.58.39-1.97,2.35-2.01,2.43v8.8h8.07v-8.8c-.04-.08-.42-2.01-2.01-2.43-1.27-.27-2.05-1.24-2.05-1.24h0Z"/>
        </g>
        <g>
          <path class="cls-5" d="m132.85,119.88v-8.38c.12-.5.54-1.81,1.74-2.08.89-.19,1.54-.73,1.93-1.08.35.35,1,.85,1.93,1.08,1.2.31,1.58,1.66,1.7,2.08v8.38h-7.29Z"/>
          <path class="cls-3" d="m136.48,108.84c.42.35,1.04.73,1.81.93.96.23,1.31,1.35,1.43,1.78v7.95h-6.52v-7.95c.12-.42.46-1.54,1.43-1.78.81-.15,1.43-.58,1.85-.93m0-1.08s-.73.96-2.01,1.24c-1.58.39-1.97,2.35-2.01,2.43v8.8h8.03v-8.8c-.04-.08-.42-2.01-2.01-2.43-1.27-.27-2.01-1.24-2.01-1.24h0Z"/>
        </g>
        <g>
          <path class="cls-5" d="m121.54,119.88v-8.38c.12-.5.54-1.81,1.74-2.08.89-.19,1.54-.73,1.93-1.08.35.35,1,.85,1.93,1.08,1.2.31,1.58,1.66,1.7,2.08v8.38h-7.29Z"/>
          <path class="cls-3" d="m125.21,108.84c.42.35,1.04.73,1.81.93.96.23,1.31,1.35,1.43,1.78v7.95h-6.52v-7.95c.12-.42.46-1.54,1.43-1.78.81-.15,1.43-.58,1.85-.93m0-1.08s-.73.96-2.01,1.24c-1.58.39-1.97,2.35-2.01,2.43v8.8h8.07v-8.8c-.04-.08-.42-2.01-2.01-2.43-1.31-.27-2.05-1.24-2.05-1.24h0Z"/>
        </g>
        <g>
          <path class="cls-5" d="m110.27,119.88v-8.38c.12-.5.54-1.81,1.74-2.08.89-.19,1.54-.73,1.93-1.08.35.35,1,.85,1.93,1.08,1.2.31,1.58,1.66,1.7,2.08v8.38h-7.29Z"/>
          <path class="cls-3" d="m113.94,108.84c.42.35,1.04.73,1.81.93.96.23,1.31,1.35,1.43,1.78v7.95h-6.52v-7.95c.12-.42.46-1.54,1.43-1.78.77-.15,1.43-.58,1.85-.93m0-1.08s-.73.96-2.01,1.24c-1.58.39-1.97,2.35-2.01,2.43v8.8h8.07v-8.8c-.04-.08-.42-2.01-2.01-2.43-1.31-.27-2.05-1.24-2.05-1.24h0Z"/>
        </g>
      </g>
      <g>
        <path class="cls-1" d="m47.01,46.05c-.39-.19-1.31-1.04-1.31-1.31,0,.27-.93,1.12-1.31,1.31s-1.08.89-1.08,1.66.35,1.39.35,1.39h4.05s.35-.62.35-1.39-.66-1.47-1.04-1.66h0Z"/>
        <rect class="cls-1" x="42.53" y="49.1" width="6.33" height=".69"/>
        <rect class="cls-2" x="43.04" y="49.79" width="5.33" height="4.17"/>
      </g>
      <g>
        <path class="cls-1" d="m160.87,46.05c-.39-.19-1.31-1.04-1.31-1.31,0,.27-.93,1.12-1.31,1.31s-1.08.89-1.08,1.66.39,1.39.39,1.39h4.05s.39-.62.39-1.39-.73-1.47-1.12-1.66h0Z"/>
        <rect class="cls-1" x="156.4" y="49.1" width="6.33" height=".69"/>
        <rect class="cls-2" x="156.9" y="49.79" width="5.33" height="4.17"/>
      </g>
    </g>
  </g>
</svg>