<?xml version="1.0" encoding="UTF-8"?>
<svg id="Calque_2" data-name="Calque 2" xmlns="http://www.w3.org/2000/svg" viewBox="0 0 74.43 118.17">
  <defs>
    <style>
      .cls-1, .cls-2 {
        fill: #e8629f;
      }

      .cls-3 {
        stroke: #fcbe1b;
      }

      .cls-3, .cls-4 {
        stroke-width: .44px;
      }

      .cls-3, .cls-4, .cls-5 {
        fill: #261923;
        stroke-miterlimit: 10;
      }

      .cls-3, .cls-4, .cls-2, .cls-6 {
        fill-rule: evenodd;
      }

      .cls-4, .cls-5 {
        stroke: #e8629f;
      }

      .cls-5 {
        stroke-width: .34px;
      }

      .cls-6 {
        fill: #fcbe1b;
      }
    </style>
  </defs>
  <g id="Calque_1-2" data-name="Calque 1">
    <g>
      <polygon class="cls-6" points="65.49 65.47 60.96 55.94 52.48 49.01 46.24 42.44 46.24 31.71 39.92 21.13 41.04 10.4 39.87 6.79 3.1 6.79 3.1 33.92 8.83 39.83 9.69 47.7 8.32 54.23 7.46 60.78 4.85 65.98 3.1 67.2 3.1 118 74.43 118 74.43 69.26 65.49 65.47"/>
      <path class="cls-5" d="m38.37,99.64h.8c2.5,0,4.54,2.04,4.54,4.54v13.83h-9.85v-13.83c-.02-2.5,2.01-4.54,4.51-4.54Z"/>
      <rect class="cls-1" x="3.1" y="91.51" width="71.34" height="3.39"/>
      <polygon class="cls-2" points="65.49 65.47 60.96 55.94 52.48 49.01 51.09 47.57 51.09 91.51 70.85 91.51 70.85 67.73 65.49 65.47"/>
      <polygon class="cls-2" points="6.59 37.53 8.83 39.83 9.69 47.7 8.32 54.23 7.46 60.78 6.59 62.53 6.59 91.51 26.33 91.51 26.33 16.97 6.59 16.97 6.59 37.53"/>
      <path class="cls-4" d="m60.96,99.64h0c-2.5,0-4.54,2.04-4.54,4.54v7.94h9.07v-7.94c0-2.5-2.01-4.54-4.54-4.54h0Z"/>
      <path class="cls-3" d="m60.96,75.19h0c-2.5,0-4.54,2.04-4.54,4.54v7.94h9.07v-7.94c0-2.52-2.01-4.54-4.54-4.54h0Z"/>
      <g>
        <path class="cls-3" d="m16.46,75.19h0c-2.5,0-4.54,2.04-4.54,4.54v7.94h9.05v-7.94c0-2.52-2.01-4.54-4.51-4.54h0Z"/>
        <path class="cls-3" d="m16.46,58.33h0c-2.5,0-4.54,2.04-4.54,4.54v7.94h9.05v-7.94c0-2.5-2.01-4.54-4.51-4.54h0Z"/>
        <path class="cls-3" d="m16.46,41.46h0c-2.5,0-4.54,2.04-4.54,4.54v7.94h9.05v-7.94c0-2.5-2.01-4.54-4.51-4.54h0Z"/>
        <path class="cls-3" d="m16.46,24.63h0c-2.5,0-4.54,2.04-4.54,4.54v7.94h9.05v-7.94c0-2.52-2.01-4.54-4.51-4.54h0Z"/>
      </g>
      <g>
        <path class="cls-4" d="m38.77,75.19h0c-2.5,0-4.54,2.04-4.54,4.54v7.94h9.05v-7.94c.02-2.52-2.01-4.54-4.51-4.54h0Z"/>
        <path class="cls-4" d="m38.77,58.33h0c-2.5,0-4.54,2.04-4.54,4.54v7.94h9.05v-7.94c.02-2.5-2.01-4.54-4.51-4.54h0Z"/>
        <path class="cls-4" d="m38.77,41.46h0c-2.5,0-4.54,2.04-4.54,4.54v7.94h9.05v-7.94c.02-2.5-2.01-4.54-4.51-4.54h0Z"/>
        <path class="cls-4" d="m38.77,24.63h0c-2.5,0-4.54,2.04-4.54,4.54v7.94h9.05v-7.94c.02-2.52-2.01-4.54-4.51-4.54h0Z"/>
      </g>
      <path class="cls-4" d="m16.46,99.64h0c-2.5,0-4.54,2.04-4.54,4.54v7.94h9.05v-7.94c0-2.5-2.01-4.54-4.51-4.54h0Z"/>
      <path class="cls-3" d="m60.96,58.33c-2.5,0-4.54,2.04-4.54,4.54v7.94h9.07v-5.33l-3.32-6.97c-.38-.11-.77-.18-1.22-.18h0Z"/>
      <polygon class="cls-2" points="38.77 3.39 39.16 0 0 0 0 3.39 3.1 3.39 3.1 6.79 39.87 6.79 38.77 3.39"/>
      <polygon class="cls-2" points="40.71 13.59 3.1 13.59 3.1 16.97 40.34 16.97 40.71 13.59"/>
    </g>
  </g>
</svg>