<?xml version="1.0" encoding="UTF-8"?>
<svg id="Calque_2" data-name="Calque 2" xmlns="http://www.w3.org/2000/svg" viewBox="0 0 234.56 110.75">
  <defs>
    <style>
      .cls-1 {
        stroke: #e6629f;
        stroke-width: .86px;
      }

      .cls-1, .cls-2 {
        fill: none;
        stroke-miterlimit: 10;
      }

      .cls-3, .cls-4 {
        fill: #e8629f;
      }

      .cls-5, .cls-6 {
        fill: #fcbe1b;
      }

      .cls-7 {
        fill: #e6629f;
      }

      .cls-8, .cls-9 {
        fill: #261923;
      }

      .cls-2 {
        stroke: #fcbe1b;
        stroke-width: 1.28px;
      }

      .cls-9, .cls-4, .cls-6 {
        fill-rule: evenodd;
      }
    </style>
  </defs>
  <g id="Calque_1-2" data-name="Calque 1">
    <g>
      <g>
        <polygon class="cls-4" points="123.42 19.01 117.26 15.93 111.14 19.01 111.14 19.99 123.42 19.99 123.42 19.01"/>
        <line class="cls-2" x1="117.26" y1="9.72" x2="117.26"/>
        <polygon class="cls-4" points="119.57 10.66 117.26 7.88 114.99 10.66 114.99 11.52 119.57 11.52 119.57 10.66"/>
        <rect class="cls-5" x="111.91" y="19.99" width="10.7" height="9.38"/>
        <rect class="cls-5" x="114.99" y="11.52" width="4.58" height="5.57"/>
        <rect class="cls-5" x="111.14" y="29.37" width="12.29" height="2.18"/>
        <rect class="cls-5" x="110.28" y="31.55" width="13.96" height="5.57"/>
        <path class="cls-8" d="m117.3,12.12h0c.73,0,1.28.56,1.28,1.28v3.08h-2.57v-3.08c0-.68.56-1.28,1.28-1.28Z"/>
        <path class="cls-8" d="m117.3,20.93h0c1.24,0,2.27,1.03,2.27,2.27v6.16h-4.54v-6.16c0-1.24,1.03-2.27,2.27-2.27h0Z"/>
      </g>
      <g>
        <polygon class="cls-6" points="79.11 49.06 117.26 35.19 155.4 49.06 79.11 49.06"/>
        <path class="cls-3" d="m117.26,36.35l32.06,11.64h-64.13l32.06-11.64m0-2.27l-44.22,16.1h88.45l-44.22-16.1h0Z"/>
      </g>
      <g>
        <circle class="cls-3" cx="117.26" cy="42.64" r="4.41"/>
        <circle class="cls-5" cx="117.26" cy="42.64" r=".73"/>
        <line class="cls-2" x1="117.26" y1="42.64" x2="117.26" y2="39.09"/>
        <line class="cls-2" x1="117.26" y1="42.64" x2="120.85" y2="42.64"/>
      </g>
      <rect class="cls-3" y="53.26" width="3" height="57.49"/>
      <rect class="cls-5" x="3" y="53.26" width="114.26" height="57.49"/>
      <rect class="cls-3" x="3" y="97.65" width="75.26" height="2.44"/>
      <rect class="cls-3" y="50.13" width="117.26" height="3.13"/>
      <g>
        <polygon class="cls-4" points="1.46 49.7 22.22 36.35 109.77 36.35 72.99 49.7 1.46 49.7"/>
        <path class="cls-5" d="m107.33,36.77l-34.42,12.54H2.91l19.44-12.54h84.98m4.88-.86H22.13L0,50.13h73.03l39.17-14.21h0Z"/>
      </g>
      <g>
        <g>
          <rect class="cls-8" x="98.98" y="76.03" width="5.78" height="22.69"/>
          <path class="cls-7" d="m104.29,76.46v21.83h-4.92v-21.83h4.92m.86-.86h-6.64v23.55h6.64v-23.55h0Z"/>
        </g>
        <g>
          <rect class="cls-8" x="98.98" y="55.31" width="5.78" height="12.63"/>
          <path class="cls-7" d="m104.29,55.74v11.77h-4.92v-11.77h4.92m.86-.86h-6.64v13.49h6.64v-13.49h0Z"/>
        </g>
        <rect class="cls-7" x="98.55" y="70.34" width="6.64" height="3.34"/>
      </g>
      <g>
        <g>
          <rect class="cls-8" x="84.85" y="76.03" width="5.78" height="22.69"/>
          <path class="cls-7" d="m90.2,76.46v21.83h-4.92v-21.83h4.92m.86-.86h-6.64v23.55h6.64v-23.55h0Z"/>
        </g>
        <g>
          <rect class="cls-8" x="84.85" y="55.31" width="5.78" height="12.63"/>
          <path class="cls-7" d="m90.2,55.74v11.77h-4.92v-11.77h4.92m.86-.86h-6.64v13.49h6.64v-13.49h0Z"/>
        </g>
        <rect class="cls-7" x="84.42" y="70.34" width="6.64" height="3.34"/>
      </g>
      <g>
        <g>
          <rect class="cls-8" x="67.08" y="55.05" width="9.29" height="16.57"/>
          <path class="cls-7" d="m75.9,55.48v15.71h-8.43v-15.71h8.43m.86-.86h-10.15v17.42h10.15v-17.42h0Z"/>
        </g>
        <g>
          <rect class="cls-8" x="54.67" y="55.05" width="9.29" height="16.57"/>
          <path class="cls-7" d="m63.53,55.48v15.71h-8.43v-15.71h8.43m.86-.86h-10.15v17.42h10.15v-17.42h0Z"/>
        </g>
        <g>
          <rect class="cls-8" x="42.3" y="55.05" width="9.29" height="16.57"/>
          <path class="cls-7" d="m51.12,55.48v15.71h-8.39v-15.71h8.39m.86-.86h-10.1v17.42h10.15v-17.42h-.04Z"/>
        </g>
        <g>
          <rect class="cls-8" x="29.88" y="55.05" width="9.29" height="16.57"/>
          <path class="cls-7" d="m38.74,55.48v15.71h-8.43v-15.71h8.43m.86-.86h-10.15v17.42h10.15v-17.42h0Z"/>
        </g>
        <g>
          <rect class="cls-8" x="17.47" y="55.05" width="9.29" height="16.57"/>
          <path class="cls-7" d="m26.33,55.48v15.71h-8.43v-15.71h8.43m.86-.86h-10.15v17.42h10.15v-17.42h0Z"/>
        </g>
        <g>
          <rect class="cls-8" x="5.09" y="55.05" width="9.29" height="16.57"/>
          <path class="cls-7" d="m13.96,55.48v15.71H5.52v-15.71h8.43m.86-.86H4.67v17.42h10.15v-17.42h0Z"/>
        </g>
      </g>
      <g>
        <g>
          <rect class="cls-8" x="67.08" y="100.48" width="9.29" height="7.53"/>
          <path class="cls-7" d="m75.9,100.9v6.68h-8.43v-6.68h8.43m.86-.86h-10.15v8.39h10.15v-8.39h0Z"/>
        </g>
        <g>
          <rect class="cls-8" x="54.67" y="100.48" width="9.29" height="7.53"/>
          <path class="cls-7" d="m63.53,100.9v6.68h-8.43v-6.68h8.43m.86-.86h-10.15v8.39h10.15v-8.39h0Z"/>
        </g>
        <g>
          <rect class="cls-8" x="42.3" y="100.48" width="9.29" height="7.53"/>
          <path class="cls-7" d="m51.12,100.9v6.68h-8.39v-6.68h8.39m.86-.86h-10.1v8.39h10.15v-8.39h-.04Z"/>
        </g>
        <g>
          <rect class="cls-8" x="29.88" y="100.48" width="9.29" height="7.53"/>
          <path class="cls-7" d="m38.74,100.9v6.68h-8.43v-6.68h8.43m.86-.86h-10.15v8.39h10.15v-8.39h0Z"/>
        </g>
        <g>
          <rect class="cls-8" x="17.47" y="100.48" width="9.29" height="7.53"/>
          <path class="cls-7" d="m26.33,100.9v6.68h-8.43v-6.68h8.43m.86-.86h-10.15v8.39h10.15v-8.39h0Z"/>
        </g>
        <g>
          <rect class="cls-8" x="5.09" y="100.48" width="9.29" height="7.53"/>
          <path class="cls-7" d="m13.96,100.9v6.68H5.52v-6.68h8.43m.86-.86H4.67v8.39h10.15v-8.39h0Z"/>
        </g>
      </g>
      <g>
        <g>
          <rect class="cls-8" x="67.08" y="76.03" width="9.29" height="14.73"/>
          <path class="cls-7" d="m75.9,76.46v13.87h-8.43v-13.87h8.43m.86-.86h-10.15v15.58h10.15v-15.58h0Z"/>
        </g>
        <g>
          <rect class="cls-8" x="54.67" y="76.03" width="9.29" height="14.73"/>
          <path class="cls-7" d="m63.53,76.46v13.87h-8.43v-13.87h8.43m.86-.86h-10.15v15.58h10.15v-15.58h0Z"/>
        </g>
        <g>
          <rect class="cls-8" x="42.3" y="76.03" width="9.29" height="14.73"/>
          <path class="cls-7" d="m51.12,76.46v13.87h-8.39v-13.87h8.39m.86-.86h-10.1v15.58h10.15v-15.58h-.04Z"/>
        </g>
        <g>
          <rect class="cls-8" x="29.88" y="76.03" width="9.29" height="14.73"/>
          <path class="cls-7" d="m38.74,76.46v13.87h-8.43v-13.87h8.43m.86-.86h-10.15v15.58h10.15v-15.58h0Z"/>
        </g>
        <g>
          <rect class="cls-8" x="17.47" y="76.03" width="9.29" height="14.73"/>
          <path class="cls-7" d="m26.33,76.46v13.87h-8.43v-13.87h8.43m.86-.86h-10.15v15.58h10.15v-15.58h0Z"/>
        </g>
        <g>
          <rect class="cls-8" x="5.09" y="76.03" width="9.29" height="14.73"/>
          <path class="cls-7" d="m13.96,76.46v13.87H5.52v-13.87h8.43m.86-.86H4.67v15.58h10.15v-15.58h0Z"/>
        </g>
      </g>
      <line class="cls-1" x1="4.67" y1="91.19" x2="76.76" y2="91.19"/>
      <rect class="cls-3" x="231.52" y="53.26" width="3" height="57.49"/>
      <rect class="cls-5" x="117.26" y="53.26" width="114.26" height="57.49"/>
      <g>
        <polygon class="cls-4" points="75.3 110.75 117.26 110.75 117.26 99.15 77.91 99.15 75.3 110.75"/>
        <polygon class="cls-4" points="156.64 99.15 117.26 99.15 117.26 110.75 159.25 110.75 156.64 99.15"/>
      </g>
      <rect class="cls-3" x="156.26" y="97.65" width="75.26" height="2.44"/>
      <rect class="cls-3" x="117.26" y="50.13" width="117.26" height="3.13"/>
      <rect class="cls-3" x="107.03" y="53.26" width="3.81" height="45.89"/>
      <rect class="cls-3" x="151.93" y="53.26" width="3.81" height="45.89"/>
      <rect class="cls-3" x="92.9" y="53.26" width="3.81" height="45.89"/>
      <rect class="cls-3" x="123.72" y="53.26" width="3.81" height="45.89"/>
      <rect class="cls-3" x="78.77" y="53.26" width="3.81" height="45.89"/>
      <rect class="cls-3" x="137.85" y="53.26" width="3.81" height="45.89"/>
      <g>
        <polygon class="cls-4" points="161.57 49.7 124.75 36.35 212.3 36.35 233.1 49.7 161.57 49.7"/>
        <path class="cls-5" d="m212.17,36.77l19.44,12.54h-69.95l-34.46-12.54h84.98m.26-.86h-90.07l39.17,14.26h73.03l-22.13-14.26h0Z"/>
      </g>
      <g>
        <g>
          <rect class="cls-8" x="129.8" y="76.03" width="5.78" height="22.69"/>
          <path class="cls-7" d="m135.15,76.46v21.83h-4.92v-21.83h4.92m.86-.86h-6.64v23.55h6.64v-23.55h0Z"/>
        </g>
        <g>
          <rect class="cls-8" x="129.8" y="55.31" width="5.78" height="12.63"/>
          <path class="cls-7" d="m135.15,55.74v11.77h-4.92v-11.77h4.92m.86-.86h-6.64v13.49h6.64v-13.49h0Z"/>
        </g>
        <rect class="cls-7" x="129.37" y="70.34" width="6.64" height="3.34"/>
      </g>
      <g>
        <g>
          <rect class="cls-8" x="143.93" y="76.03" width="5.78" height="22.69"/>
          <path class="cls-7" d="m149.24,76.46v21.83h-4.92v-21.83h4.92m.86-.86h-6.64v23.55h6.64v-23.55h0Z"/>
        </g>
        <g>
          <rect class="cls-8" x="143.93" y="55.31" width="5.78" height="12.63"/>
          <path class="cls-7" d="m149.24,55.74v11.77h-4.92v-11.77h4.92m.86-.86h-6.64v13.49h6.64v-13.49h0Z"/>
        </g>
        <rect class="cls-7" x="143.5" y="70.34" width="6.64" height="3.34"/>
      </g>
      <g>
        <g>
          <rect class="cls-8" x="158.18" y="55.05" width="9.29" height="16.57"/>
          <path class="cls-7" d="m167.05,55.48v15.71h-8.43v-15.71h8.43m.86-.86h-10.15v17.42h10.15v-17.42h0Z"/>
        </g>
        <g>
          <rect class="cls-8" x="170.6" y="55.05" width="9.29" height="16.57"/>
          <path class="cls-7" d="m179.46,55.48v15.71h-8.43v-15.71h8.43m.86-.86h-10.15v17.42h10.15v-17.42h0Z"/>
        </g>
        <g>
          <rect class="cls-8" x="182.97" y="55.05" width="9.29" height="16.57"/>
          <path class="cls-7" d="m191.83,55.48v15.71h-8.43v-15.71h8.43m.86-.86h-10.15v17.42h10.15v-17.42h0Z"/>
        </g>
        <g>
          <rect class="cls-8" x="195.39" y="55.05" width="9.29" height="16.57"/>
          <path class="cls-7" d="m204.25,55.48v15.71h-8.43v-15.71h8.43m.86-.86h-10.15v17.42h10.15v-17.42h0Z"/>
        </g>
        <g>
          <rect class="cls-8" x="207.8" y="55.05" width="9.29" height="16.57"/>
          <path class="cls-7" d="m216.62,55.48v15.71h-8.43v-15.71h8.43m.86-.86h-10.15v17.42h10.15v-17.42h0Z"/>
        </g>
        <g>
          <rect class="cls-8" x="220.17" y="55.05" width="9.29" height="16.57"/>
          <path class="cls-7" d="m229.03,55.48v15.71h-8.43v-15.71h8.43m.86-.86h-10.15v17.42h10.15v-17.42h0Z"/>
        </g>
      </g>
      <g>
        <g>
          <rect class="cls-8" x="158.18" y="100.48" width="9.29" height="7.53"/>
          <path class="cls-7" d="m167.05,100.9v6.68h-8.43v-6.68h8.43m.86-.86h-10.15v8.39h10.15v-8.39h0Z"/>
        </g>
        <g>
          <rect class="cls-8" x="170.6" y="100.48" width="9.29" height="7.53"/>
          <path class="cls-7" d="m179.46,100.9v6.68h-8.43v-6.68h8.43m.86-.86h-10.15v8.39h10.15v-8.39h0Z"/>
        </g>
        <g>
          <rect class="cls-8" x="182.97" y="100.48" width="9.29" height="7.53"/>
          <path class="cls-7" d="m191.83,100.9v6.68h-8.43v-6.68h8.43m.86-.86h-10.15v8.39h10.15v-8.39h0Z"/>
        </g>
        <g>
          <rect class="cls-8" x="195.39" y="100.48" width="9.29" height="7.53"/>
          <path class="cls-7" d="m204.25,100.9v6.68h-8.43v-6.68h8.43m.86-.86h-10.15v8.39h10.15v-8.39h0Z"/>
        </g>
        <g>
          <rect class="cls-8" x="207.8" y="100.48" width="9.29" height="7.53"/>
          <path class="cls-7" d="m216.62,100.9v6.68h-8.43v-6.68h8.43m.86-.86h-10.15v8.39h10.15v-8.39h0Z"/>
        </g>
        <g>
          <rect class="cls-8" x="220.17" y="100.48" width="9.29" height="7.53"/>
          <path class="cls-7" d="m229.03,100.9v6.68h-8.43v-6.68h8.43m.86-.86h-10.15v8.39h10.15v-8.39h0Z"/>
        </g>
      </g>
      <g>
        <g>
          <rect class="cls-8" x="158.18" y="76.03" width="9.29" height="14.73"/>
          <path class="cls-7" d="m167.05,76.46v13.87h-8.43v-13.87h8.43m.86-.86h-10.15v15.58h10.15v-15.58h0Z"/>
        </g>
        <g>
          <rect class="cls-8" x="170.6" y="76.03" width="9.29" height="14.73"/>
          <path class="cls-7" d="m179.46,76.46v13.87h-8.43v-13.87h8.43m.86-.86h-10.15v15.58h10.15v-15.58h0Z"/>
        </g>
        <g>
          <rect class="cls-8" x="182.97" y="76.03" width="9.29" height="14.73"/>
          <path class="cls-7" d="m191.83,76.46v13.87h-8.43v-13.87h8.43m.86-.86h-10.15v15.58h10.15v-15.58h0Z"/>
        </g>
        <g>
          <rect class="cls-8" x="195.39" y="76.03" width="9.29" height="14.73"/>
          <path class="cls-7" d="m204.25,76.46v13.87h-8.43v-13.87h8.43m.86-.86h-10.15v15.58h10.15v-15.58h0Z"/>
        </g>
        <g>
          <rect class="cls-8" x="207.8" y="76.03" width="9.29" height="14.73"/>
          <path class="cls-7" d="m216.62,76.46v13.87h-8.43v-13.87h8.43m.86-.86h-10.15v15.58h10.15v-15.58h0Z"/>
        </g>
        <g>
          <rect class="cls-8" x="220.17" y="76.03" width="9.29" height="14.73"/>
          <path class="cls-7" d="m229.03,76.46v13.87h-8.43v-13.87h8.43m.86-.86h-10.15v15.58h10.15v-15.58h0Z"/>
        </g>
      </g>
      <line class="cls-1" x1="229.89" y1="91.19" x2="157.76" y2="91.19"/>
      <g>
        <g>
          <rect class="cls-8" x="112.63" y="79.8" width="9.29" height="18.92"/>
          <path class="cls-7" d="m121.5,80.23v18.07h-8.43v-18.07h8.43m.86-.86h-10.15v19.78h10.15v-19.78h0Z"/>
        </g>
        <g>
          <path class="cls-9" d="m112.63,78.94c.17-2.44,2.18-4.32,4.62-4.32s4.5,1.93,4.62,4.32h-9.25Z"/>
          <path class="cls-7" d="m117.26,75.05c2.05,0,3.81,1.5,4.15,3.47h-8.31c.39-1.97,2.1-3.47,4.15-3.47m0-.86h0c-2.78,0-5.05,2.27-5.05,5.05v.13h10.15v-.13c0-2.78-2.27-5.05-5.09-5.05h0Z"/>
        </g>
        <g>
          <rect class="cls-8" x="112.63" y="55.31" width="9.29" height="12.63"/>
          <path class="cls-7" d="m121.5,55.74v11.77h-8.43v-11.77h8.43m.86-.86h-10.15v13.49h10.15v-13.49h0Z"/>
        </g>
        <rect class="cls-7" x="112.21" y="70.34" width="10.15" height="3.34"/>
      </g>
    </g>
  </g>
</svg>