<?xml version="1.0" encoding="UTF-8"?>
<svg id="Calque_2" data-name="Calque 2" xmlns="http://www.w3.org/2000/svg" viewBox="0 0 74.08 275">
  <defs>
    <style>
      .cls-1, .cls-2 {
        fill: #e8629f;
      }

      .cls-3 {
        stroke-width: .82px;
      }

      .cls-3, .cls-4 {
        fill: #261923;
        stroke: #e8629f;
        stroke-miterlimit: 10;
      }

      .cls-4 {
        stroke-width: .85px;
      }

      .cls-2, .cls-5 {
        fill-rule: evenodd;
      }

      .cls-5 {
        fill: #fcbe1b;
      }
    </style>
  </defs>
  <g id="Calque_1-2" data-name="Calque 1">
    <g>
      <g>
        <path class="cls-5" d="m.42,274.54V.5c17.63,3.28,32.53,12.12,44.3,26.28,11.11,13.39,19.64,31.29,25.97,54.75.62,2.32,1.23,4.71,1.81,7.14.39,1.62.77,3.28,1.12,4.9v180.97H.42Z"/>
        <path class="cls-1" d="m.85,1.04c8.68,1.66,16.71,4.67,23.92,8.99,7.22,4.32,13.81,10.03,19.64,17.02,5.59,6.75,10.65,14.86,15.01,24.19,4.17,8.87,7.83,19.1,10.88,30.41.62,2.28,1.23,4.67,1.81,7.1.39,1.58.77,3.24,1.12,4.86v180.5H.85V1.04M0,0v274.96h74.08V93.49c-.39-1.66-.77-3.32-1.16-4.98-.58-2.43-1.2-4.78-1.81-7.14-6.02-22.23-14.43-40.94-26.08-54.91C33.49,12.58,18.75,3.36,0,0h0Z"/>
      </g>
      <g>
        <rect class="cls-3" x="8.72" y="93.88" width="62.05" height="5.17"/>
        <rect class="cls-3" x="8.72" y="106.69" width="62.05" height="5.17"/>
        <rect class="cls-3" x="8.72" y="119.5" width="62.05" height="5.17"/>
        <rect class="cls-3" x="8.72" y="132.31" width="62.05" height="5.17"/>
      </g>
      <g>
        <rect class="cls-3" x="8.72" y="153.76" width="62.05" height="5.17"/>
        <rect class="cls-3" x="8.72" y="166.57" width="62.05" height="5.17"/>
        <rect class="cls-3" x="8.72" y="179.38" width="62.05" height="5.17"/>
        <rect class="cls-3" x="8.72" y="192.2" width="62.05" height="5.17"/>
      </g>
      <g>
        <rect class="cls-3" x="8.72" y="212.11" width="62.05" height="5.17"/>
        <rect class="cls-3" x="8.72" y="224.92" width="62.05" height="5.17"/>
        <rect class="cls-3" x="8.72" y="237.73" width="62.05" height="5.17"/>
        <rect class="cls-3" x="8.72" y="250.54" width="62.05" height="5.17"/>
      </g>
      <rect class="cls-1" y="259.53" width="74.08" height="15.47"/>
      <polygon class="cls-2" points="4.48 274.96 0 274.96 0 0 4.48 .93 4.48 274.96"/>
      <rect class="cls-1" x="4.48" y="142.81" width="69.61" height="7.14"/>
      <g>
        <rect class="cls-4" x="8.72" y="32.49" width="36.35" height="5.17"/>
        <rect class="cls-4" x="8.72" y="45.3" width="43.79" height="5.17"/>
        <rect class="cls-4" x="8.72" y="58.11" width="50.43" height="5.17"/>
        <rect class="cls-4" x="8.72" y="70.92" width="55.87" height="5.17"/>
      </g>
      <path class="cls-2" d="m72.97,88.55H4.48v-7.14h66.64c.66,2.35,1.27,4.71,1.85,7.14h0Z"/>
      <rect class="cls-1" x="4.48" y="201.15" width="69.61" height="7.14"/>
      <path class="cls-2" d="m45.07,26.51H0V0c18.75,3.36,33.49,12.58,45.07,26.51Z"/>
    </g>
  </g>
</svg>