<?xml version="1.0" encoding="utf-8"?>
<!-- Generator: Adobe Illustrator 27.6.1, SVG Export Plug-In . SVG Version: 6.00 Build 0)  -->
<svg version="1.1" id="Calque_1" xmlns="http://www.w3.org/2000/svg" xmlns:xlink="http://www.w3.org/1999/xlink" x="0px" y="0px"
	 viewBox="0 0 128 128" style="enable-background:new 0 0 128 128;" xml:space="preserve">
<style type="text/css">
	.st0{fill:#FCBE1B;}
	.st1{fill:#261923;}
	.st2{fill:#E8629F;}
</style>
<g>
	<rect x="22.92" y="83.56" class="st0" width="87.23" height="15.6"/>
	<g>
		<rect x="87.5" y="83.84" class="st1" width="8.62" height="15.05"/>
		<path class="st2" d="M95.85,84.11v14.5h-8.07v-14.5H95.85 M96.4,83.56h-9.17v15.6h9.17V83.56L96.4,83.56z"/>
	</g>
	<g>
		<polygon class="st2" points="14.63,83.29 64,31.31 113.34,83.29 		"/>
		<path class="st0" d="M64,31.7l48.71,51.29H15.29L64,31.7 M64,30.9L14,83.56h100L64,30.9L64,30.9L64,30.9z"/>
	</g>
	<g>
		<polygon class="st2" points="46.45,48.83 64,30.38 81.52,48.83 		"/>
		<path class="st0" d="M64,30.79l16.89,17.79H47.11L64,30.79 M64,29.99L45.82,49.13h36.33L64,29.99L64,29.99L64,29.99z"/>
	</g>
	<g>
		<polygon class="st2" points="52,41.88 64,29.25 76,41.88 		"/>
		<path class="st0" d="M64,29.64l11.37,11.97H52.63L64,29.64 M64,28.84L51.37,42.16h25.29L64,28.84L64,28.84L64,28.84z"/>
	</g>
</g>
</svg>
