<?xml version="1.0" encoding="utf-8"?>
<!-- Generator: Adobe Illustrator 28.2.0, SVG Export Plug-In . SVG Version: 6.00 Build 0)  -->
<svg version="1.1" id="Calque_1" xmlns="http://www.w3.org/2000/svg" xmlns:xlink="http://www.w3.org/1999/xlink" x="0px" y="0px"
	 viewBox="0 0 566.9 566.9" style="enable-background:new 0 0 566.9 566.9;" xml:space="preserve">
<style type="text/css">
	.st0{fill:#9C936D;}
</style>
<circle class="st0" cx="283.5" cy="283.5" r="283.5"/>
<path d="M283.4,235.3c-78.3,0-93.9,71.4-93.9,108.6l0,0c-19.1,6.4-37,15.8-53.2,27.9c-27.3,20.7-32.8,59.5-12.5,87
	c21.3,26.7,59.7,32.2,87.6,12.5c21.2-14.4,46.4-21.9,72-21.6c25.6-0.3,50.8,7.2,72,21.6c26.8,21.5,66,17.3,87.6-9.4
	c21.6-25.5,18.4-63.6-7.1-85.1c-0.8-0.6-1.5-1.3-2.3-1.9l-3.1-3.1c-16.7-11.2-34.5-20.5-53.2-27.9l0,0
	C377.3,307,361.7,235.3,283.4,235.3z"/>
<path d="M113.8,182.1c-23,11.5-33.3,38.7-23.8,62.6c2,25.9,24.4,45.4,50.4,43.8c23-11.5,33.3-38.7,23.8-62.6
	C162.2,200,139.7,180.4,113.8,182.1z"/>
<path d="M453.4,182.1c23,11.5,33.3,38.7,23.8,62.6c-2,25.9-24.4,45.4-50.4,43.8c-23-11.5-33.3-38.7-23.8-62.6
	C405,200,427.4,180.4,453.4,182.1z"/>
<path d="M207.7,88.1c-21.3,2.8-31.3,29.4-23.8,58.5c3.4,25.8,24.4,45.8,50.4,47.9c21.3-2.8,31.3-29.4,23.8-58.5
	C254.6,110.2,233.6,90.3,207.7,88.1z"/>
<path d="M359.5,88.1c21.3,2.8,31.3,29.4,23.8,58.5c-3.5,25.9-24.6,45.9-50.7,47.9c-21.3-2.5-31.3-29.4-23.8-58.5
	C312.2,110.1,333.4,90.1,359.5,88.1z"/>
</svg>
