<?xml version="1.0" encoding="utf-8"?>
<!-- Generator: Adobe Illustrator 28.2.0, SVG Export Plug-In . SVG Version: 6.00 Build 0)  -->
<svg version="1.1" id="Calque_1" xmlns="http://www.w3.org/2000/svg" xmlns:xlink="http://www.w3.org/1999/xlink" x="0px" y="0px"
	 viewBox="0 0 566.9 566.9" style="enable-background:new 0 0 566.9 566.9;" xml:space="preserve">
<style type="text/css">
	.st0{fill:#E8629F;}
</style>
<circle class="st0" cx="283.5" cy="283.5" r="283.5"/>
<path d="M406.4,292.1c-20.6-17.4-52.7-29.5-96.3-36.3l-3.9-0.7V136.2c13.9,0.8,28.1,2.8,42.7,6c19.7,4.3,40.6,10.8,62.7,19.6v-47.1
	c-22-6.1-43.5-10.6-64.5-13.6c-13.8-2-27.5-3.3-40.9-4V69h-50.9v29c-33.2,3.1-60.3,11.8-81.3,25.9c-26.8,18.2-40.2,43-40.2,74.6
	c0,27.2,9.7,48.5,29.2,63.8c19.1,15,49.9,26.1,92.3,33.3V427c-16.5-1.1-33.2-3.7-50.1-7.8c-22.7-5.6-46-13.9-69.7-24.9v49.7
	c24.7,7.5,48.5,13.1,71.4,17c16.8,2.8,32.9,4.5,48.3,5.3v27.8h50.9v-28.7c37.7-3.1,67.4-11.6,89.2-25.5
	c28.1-17.9,42.2-44.1,42.2-78.6C437.6,332.4,427.2,309.3,406.4,292.1L406.4,292.1z M209.5,230.4c-11.4-8.1-17.1-20.1-17.1-35.9
	c0-18.8,8.6-33.3,25.7-43.5c10-5.9,22.3-10,37.1-12.5v107.8C233.7,241.9,218.5,236.6,209.5,230.4L209.5,230.4z M349.4,411.3
	c-11.4,6.8-25.8,11.5-43.2,14V304.1c22.9,4.8,39.8,11.4,50.8,19.8c13.1,9.9,19.7,23.6,19.7,41.1C376.6,385,367.5,400.5,349.4,411.3z
	"/>
</svg>
