<?xml version="1.0" encoding="utf-8"?>
<!-- Generator: Adobe Illustrator 28.2.0, SVG Export Plug-In . SVG Version: 6.00 Build 0)  -->
<svg version="1.1" id="Calque_1" xmlns="http://www.w3.org/2000/svg" xmlns:xlink="http://www.w3.org/1999/xlink" x="0px" y="0px"
	 viewBox="0 0 566.9 566.9" style="enable-background:new 0 0 566.9 566.9;" xml:space="preserve">
<style type="text/css">
	.st0{fill:#9C936D;}
	.st1{fill-rule:evenodd;clip-rule:evenodd;}
</style>
<circle class="st0" cx="283.5" cy="283.5" r="283.5"/>
<g>
	<path class="st1" d="M156.6,440.7l-6.1-6.1c75.4-89.9,155.1-124.8,219.4-181c65.4-57.2,68.8-64,76.5-71.7
		c18.2-18.2,19.3-46.7,2.4-63.6c-16.9-16.9-45.4-15.8-63.6,2.4c-7.8,7.7-14.6,11.1-71.8,76.5c-56.2,64.4-98.8,143.8-181.4,219.1
		l-6.1-6.1c-3-3-9.6-1.3-14.7,3.8s-6.8,11.6-3.7,14.7l30.6,30.6c3,3,9.6,1.4,14.7-3.7C157.9,450.3,159.7,443.7,156.6,440.7
		L156.6,440.7z"/>
</g>
</svg>
