<?xml version="1.0" encoding="utf-8"?>
<!-- Generator: Adobe Illustrator 28.2.0, SVG Export Plug-In . SVG Version: 6.00 Build 0)  -->
<svg version="1.1" id="Calque_1" xmlns="http://www.w3.org/2000/svg" xmlns:xlink="http://www.w3.org/1999/xlink" x="0px" y="0px"
	 viewBox="0 0 566.9 566.9" style="enable-background:new 0 0 566.9 566.9;" xml:space="preserve">
<style type="text/css">
	.st0{fill:#E8629F;}
	.st1{fill:none;}
</style>
<circle class="st0" cx="283.5" cy="283.5" r="283.5"/>
<rect x="274" y="274" class="st1" width="19" height="19"/>
<path d="M197.5,99.2c-33.5,0-73.7,18.3-73.7,67.5v134V394c0,0,0,24.6,24.6,24.6v24.6c0,0,0,24.6,24.6,24.6s24.6-24.6,24.6-24.6
	v-24.6h172v24.6c0,0,0,24.6,24.6,24.6s24.6-24.6,24.6-24.6v-24.6c0,0,24.6,0,24.6-24.6V166.7c0-50.3-30.4-67.5-63.9-67.5H197.5z
	 M203.6,136.1h159.7c3.4,0,6.1,2.7,6.1,6.1c0,3.4-2.7,6.1-6.1,6.1H203.6c-3.4,0-6.1-2.7-6.1-6.1
	C197.5,138.8,200.2,136.1,203.6,136.1z M172.9,172.9H394c24.6,0,24.6,23.8,24.6,23.8v74.5c0,0,0,24.6-24.6,24.6H172.9
	c-24.6,0-24.6-24.6-24.6-24.6v-73.7C148.3,197.5,148.3,172.9,172.9,172.9z M172.9,344.9c13.6,0,24.6,11,24.6,24.6
	s-11,24.6-24.6,24.6s-24.6-11-24.6-24.6S159.3,344.9,172.9,344.9z M394,344.9c13.6,0,24.6,11,24.6,24.6S407.6,394,394,394
	s-24.6-11-24.6-24.6S380.4,344.9,394,344.9z"/>
</svg>
