<?xml version="1.0" encoding="utf-8"?>
<!-- Generator: Adobe Illustrator 28.2.0, SVG Export Plug-In . SVG Version: 6.00 Build 0)  -->
<svg version="1.1" id="Calque_1" xmlns="http://www.w3.org/2000/svg" xmlns:xlink="http://www.w3.org/1999/xlink" x="0px" y="0px"
	 viewBox="0 0 566.9 566.9" style="enable-background:new 0 0 566.9 566.9;" xml:space="preserve">
<style type="text/css">
	.st0{fill:#9C936D;}
</style>
<circle class="st0" cx="283.5" cy="283.5" r="283.5"/>
<path d="M454.2,466l0.6,0l-8.7-15.4L294.7,163.5l28.3-53.6l-18.5-9.8l-21.7,40.9l-22.6-42.8l-18.5,9.8l28.7,54.4
	c-12.3,25.5-96.7,183.3-153.5,288.9l-8.3,15.4l75-0.1l18.6,0.1l0.1-0.2l161.3-0.3l0.2,0.4l73.1-0.6l17.3,0L454.2,466z M283.1,280
	c17.2,58.1,53.6,133.2,69.8,165.4l-139.8,0.2C229.3,413.5,265.8,338.2,283.1,280L283.1,280z"/>
</svg>
