<?xml version="1.0" encoding="utf-8"?>
<!-- Generator: Adobe Illustrator 28.2.0, SVG Export Plug-In . SVG Version: 6.00 Build 0)  -->
<svg version="1.1" id="Capa_1" xmlns="http://www.w3.org/2000/svg" xmlns:xlink="http://www.w3.org/1999/xlink" x="0px" y="0px"
	 viewBox="0 0 566.9 566.9" style="enable-background:new 0 0 566.9 566.9;" xml:space="preserve">
<style type="text/css">
	.st0{fill:#9C936D;}
</style>
<circle class="st0" cx="283.5" cy="283.5" r="283.5"/>
<path id="XMLID_277_" d="M476.8,319.3c0,0-53.5-3.6-106.4,18.8c9.9-11.6,19.6-24.5,28.4-38.8c43.8-71.2,47.7-148.4,47.7-148.4
	s-67,38.4-110.8,109.6c-6.4,10.5-11.9,21-16.7,31.5c2.9-17.5,4.9-36.3,4.9-55.9c0-91.3-40.4-165.3-40.4-165.3s-40.4,74-40.4,165.3
	c0,19.7,1.9,38.4,4.9,55.9c-4.8-10.5-10.3-21-16.7-31.5c-43.8-71.2-110.8-109.6-110.8-109.6s3.9,77.1,47.7,148.4
	c8.8,14.3,18.5,27.2,28.4,38.8c-52.9-22.4-106.4-18.8-106.4-18.8s32.3,40.3,85.4,62.9c20.3,8.6,40.6,13.4,58,16.1
	c-8.2,0.6-17,1.8-25.9,4c-38.7,9.5-65.5,33.1-65.5,33.1s35.8,8.3,74.5-1.1c25.1-6.1,45-18.2,56.1-25.9l-9.2,73.9
	c-0.4,3.5,0.5,7,2.7,9.7c2.1,2.7,5.2,4.2,8.5,4.2h17.7c3.3,0,6.3-1.5,8.5-4.2c2.1-2.7,3.1-6.2,2.7-9.7l-9.2-73.9
	c11,7.7,31,19.8,56,25.9c38.7,9.5,74.5,1.1,74.5,1.1s-26.9-23.6-65.5-33.1c-8.9-2.2-17.7-3.4-26-4c17.4-2.7,37.8-7.4,58.1-16.1
	C444.5,359.6,476.8,319.3,476.8,319.3z"/>
</svg>
