<?xml version="1.0" encoding="utf-8"?>
<!-- Generator: Adobe Illustrator 28.2.0, SVG Export Plug-In . SVG Version: 6.00 Build 0)  -->
<svg version="1.1" id="Calque_1" xmlns="http://www.w3.org/2000/svg" xmlns:xlink="http://www.w3.org/1999/xlink" x="0px" y="0px"
	 viewBox="0 0 566.9 566.9" style="enable-background:new 0 0 566.9 566.9;" xml:space="preserve">
<style type="text/css">
	.st0{fill:#9C936D;}
</style>
<circle class="st0" cx="283.5" cy="283.5" r="283.5"/>
<path d="M476.9,360.6H443V243c0-18.2-6.3-33.5-19-46.1c-12.7-12.5-28-18.8-45.8-18.8h-220c-18.2,0-33.5,6.3-46.1,18.8
	c-12.5,12.5-18.8,27.9-18.8,46.1v83.2c0,13.2,4.7,24.4,14.1,33.9s20.7,14.1,33.9,14.1h75.7c0.9-13.5,6.3-24.9,16-34.3
	c9.7-9.4,21.5-14.1,35.3-14.1c13.5,0,25.2,4.7,35,14.1c9.9,9.4,15.1,20.7,15.8,33.9H490C490,365,485.7,360.6,476.9,360.6z
	 M270.5,254.8c0,8.8-4.5,13.2-13.6,13.2H156.2c-8.8,0-13.2-4.4-13.2-13.2v-22.6c0-8.8,4.4-13.2,13.2-13.2h100.6
	c9.1,0,13.6,4.4,13.6,13.2V254.8z M403.1,254.3c0,9.1-4.4,13.6-13.2,13.6h-46.5c-8.8,0-13.2-4.5-13.2-13.6v-22.1
	c0-8.8,4.4-13.2,13.2-13.2h46.5c8.8,0,13.2,4.4,13.2,13.2V254.3z"/>
<path d="M268.1,340.3c-10.4,0-19.1,3.6-26.3,10.8c-7.2,7.2-10.8,16-10.8,26.3c0,10,3.6,18.7,10.8,25.9c7.2,7.2,16,10.8,26.3,10.8
	c10,0,18.6-3.6,25.9-10.8c7.2-7.2,10.8-15.8,10.8-25.9c0-10.3-3.6-19.1-10.8-26.3C286.8,344,278.1,340.3,268.1,340.3z M279.4,388.8
	c-3.1,3.1-6.9,4.7-11.3,4.7c-4.4,0-8.2-1.6-11.3-4.7s-4.7-6.9-4.7-11.3c0-4.7,1.6-8.5,4.7-11.5c3.1-3,6.9-4.5,11.3-4.5
	c4.4,0,8.1,1.5,11.3,4.5c3.1,3,4.7,6.8,4.7,11.5C284.1,381.9,282.5,385.6,279.4,388.8z"/>
</svg>
