<?xml version="1.0" encoding="utf-8"?>
<!-- Generator: Adobe Illustrator 28.2.0, SVG Export Plug-In . SVG Version: 6.00 Build 0)  -->
<svg version="1.1" id="Calque_1" xmlns="http://www.w3.org/2000/svg" xmlns:xlink="http://www.w3.org/1999/xlink" x="0px" y="0px"
	 viewBox="0 0 566.9 567.4" style="enable-background:new 0 0 566.9 567.4;" xml:space="preserve">
<style type="text/css">
	.st0{fill:#E8629F;}
</style>
<circle class="st0" cx="283.5" cy="283.5" r="283.5"/>
<path d="M391.8,121.8v5.4c0,22.4-18.2,40.5-40.5,40.5H216.1c-22.4,0-40.5-18.1-40.5-40.5v-5.4H98.6v324.3h76.9v-3.6
	c0-22.4,18.1-40.5,40.5-40.5h135.1c22.4,0,40.5,18.2,40.5,40.5v3.6h75.3V121.8H391.8z M144,415.7h-11.4c-7.5,0-13.5-4.4-13.5-9.8
	c0-5.4,6.1-9.8,13.5-9.8H144c7.5,0,13.5,4.4,13.5,9.8C157.5,411.3,151.4,415.7,144,415.7z M144,362.8h-11.4
	c-7.5,0-13.5-4.4-13.5-9.8c0-5.4,6.1-9.8,13.5-9.8H144c7.5,0,13.5,4.4,13.5,9.8C157.5,358.4,151.4,362.8,144,362.8z M144,309.9
	h-11.4c-7.5,0-13.5-4.4-13.5-9.8c0-5.4,6.1-9.8,13.5-9.8H144c7.5,0,13.5,4.4,13.5,9.8C157.5,305.4,151.4,309.9,144,309.9z
	 M144,256.9h-11.4c-7.5,0-13.5-4.4-13.5-9.8c0-5.4,6.1-9.8,13.5-9.8H144c7.5,0,13.5,4.4,13.5,9.8C157.5,252.6,151.4,256.9,144,256.9
	z M144,204h-11.4c-7.5,0-13.5-4.4-13.5-9.8c0-5.4,6.1-9.8,13.5-9.8H144c7.5,0,13.5,4.4,13.5,9.8C157.5,199.6,151.4,204,144,204z
	 M144,151.1h-11.4c-7.5,0-13.5-4.4-13.5-9.8c0-5.4,6.1-9.8,13.5-9.8H144c7.5,0,13.5,4.4,13.5,9.8C157.5,146.7,151.4,151.1,144,151.1
	z M391.8,324.5c0,22.4-18.2,40.5-40.5,40.5H216.1c-22.4,0-40.5-18.2-40.5-40.5v-81.1c0-22.4,18.1-40.5,40.5-40.5h135.1
	c22.4,0,40.5,18.1,40.5,40.5L391.8,324.5L391.8,324.5z M436.3,438.6H425c-7.5,0-13.5-4.4-13.5-9.8c0-5.4,6-9.8,13.5-9.8h11.4
	c7.5,0,13.5,4.4,13.5,9.8C449.8,434.2,443.8,438.6,436.3,438.6z M436.3,385.7H425c-7.5,0-13.5-4.4-13.5-9.8s6-9.8,13.5-9.8h11.4
	c7.5,0,13.5,4.4,13.5,9.8S443.8,385.7,436.3,385.7z M436.3,332.7H425c-7.5,0-13.5-4.4-13.5-9.8c0-5.4,6-9.8,13.5-9.8h11.4
	c7.5,0,13.5,4.4,13.5,9.8C449.8,328.4,443.8,332.7,436.3,332.7z M436.3,279.8H425c-7.5,0-13.5-4.4-13.5-9.8c0-5.4,6-9.8,13.5-9.8
	h11.4c7.5,0,13.5,4.4,13.5,9.8C449.8,275.4,443.8,279.8,436.3,279.8z M436.3,226.9H425c-7.5,0-13.5-4.4-13.5-9.8
	c0-5.4,6-9.8,13.5-9.8h11.4c7.5,0,13.5,4.4,13.5,9.8C449.8,222.5,443.8,226.9,436.3,226.9z M436.3,174H425c-7.5,0-13.5-4.4-13.5-9.8
	c0-5.4,6-9.8,13.5-9.8h11.4c7.5,0,13.5,4.4,13.5,9.8C449.8,169.6,443.8,174,436.3,174z"/>
</svg>
