<?xml version="1.0" encoding="utf-8"?>
<!-- Generator: Adobe Illustrator 28.2.0, SVG Export Plug-In . SVG Version: 6.00 Build 0)  -->
<svg version="1.1" id="Calque_1" xmlns="http://www.w3.org/2000/svg" xmlns:xlink="http://www.w3.org/1999/xlink" x="0px" y="0px"
	 viewBox="0 0 566.9 566.9" style="enable-background:new 0 0 566.9 566.9;" xml:space="preserve">
<style type="text/css">
	.st0{fill:#E8629F;}
</style>
<circle class="st0" cx="283.5" cy="283.5" r="283.5"/>
<path d="M423.1,105.9c-1.1-0.7-2.6-0.8-3.8-0.2c0,0-29.6,14.5-53.7,14.5c-11.8,0-24.2-4.5-36.4-9.3c-12.2-4.8-24.2-9.8-36.1-9.8
	s-26.3,5-40.9,9.8c-14.6,4.8-29.4,9.4-40.1,9.4c-10.6,0-24.2-4.6-34.9-9.4c-7.1-3.2-13-6.4-16.1-8.1c-0.2-1.9-2-3.5-3.9-3.5h-11.4
	c-2,0-3.9,1.9-3.9,3.9v360.7c0,2,1.9,3.9,3.9,3.9h11.4c2,0,3.9-1.9,3.9-3.9V308.5c0.1,0.1,0.3,0.2,0.4,0.4c4.1,3.5,9.4,6.8,15.3,9.6
	c11.8,5.7,25.3,9.9,35.3,9.9c12.8,0,27.8-5,42.5-9.8c14.7-4.8,29-9.4,38.5-9.4c9.5,0,20.9,4.5,33.2,9.3c12.3,4.8,25.5,9.8,39.3,9.8
	c27.1,0,57.2-15.3,57.2-15.3c1.3-0.6,2.1-2,2.2-3.5V109.2C424.9,107.9,424.2,106.6,423.1,105.9L423.1,105.9z"/>
</svg>
