<?xml version="1.0" encoding="utf-8"?>
<!-- Generator: Adobe Illustrator 28.2.0, SVG Export Plug-In . SVG Version: 6.00 Build 0)  -->
<svg version="1.1" id="Calque_1" xmlns="http://www.w3.org/2000/svg" xmlns:xlink="http://www.w3.org/1999/xlink" x="0px" y="0px"
	 viewBox="0 0 566.9 566.9" style="enable-background:new 0 0 566.9 566.9;" xml:space="preserve">
<style type="text/css">
	.st0{fill:#9C936D;}
</style>
<circle class="st0" cx="283.5" cy="283.5" r="283.5"/>
<path d="M311.2,283.5c-15.2,0-27.6,12.4-27.6,27.6c0,15.2,12.4,27.6,27.6,27.6s27.6-12.4,27.6-27.6
	C338.5,296,326.3,283.9,311.2,283.5 M311.2,117.9c83.8-2.4,153.7,63.5,156.4,147.2c2,31.6-3.7,63.1-16.6,92
	c-75.5,0-93.9,73.6-158.3,73.6c-40.5,0-58.9-31.3-62.6-73.6h-16.6l-22.1,79.1c-2.6,8.7-11.2,14.2-20.2,12.9H118
	c-10.2,0-18.4-8.2-18.4-18.4s8.2-18.4,18.4-18.4v-55.2c-10.2,0-18.4-8.2-18.4-18.4c0-10.2,8.2-18.4,18.4-18.4h69.9l9.2-29.4
	c-10.3-5.1-21.7-7.6-33.1-7.4h-7.4l-1.8-18.4C157.5,181.3,227.4,115.5,311.2,117.9 M154.8,357.1v55.2h5.5l16.6-55.2H154.8z"/>
</svg>
