<?xml version="1.0" encoding="utf-8"?>
<!-- Generator: Adobe Illustrator 28.2.0, SVG Export Plug-In . SVG Version: 6.00 Build 0)  -->
<svg version="1.1" id="Calque_1" xmlns="http://www.w3.org/2000/svg" xmlns:xlink="http://www.w3.org/1999/xlink" x="0px" y="0px"
	 viewBox="0 0 566.9 566.9" style="enable-background:new 0 0 566.9 566.9;" xml:space="preserve">
<style type="text/css">
	.st0{fill:#9C936D;}
</style>
<circle class="st0" cx="283.5" cy="283.5" r="283.5"/>
<g>
	<path d="M437.8,118.9c-113.8-18.2-125.1,75.6-125.1,75.5C406.1,226.5,437.8,118.9,437.8,118.9z"/>
	<path d="M344,226.4c-24.4,0-46.5,9.6-62.6,25.6c-16.3-16-38.3-25.6-62.7-25.6c-49.5,0-89.6,40-89.6,89.4c0,1.9,0,3.5,0.3,5.3h0.4
		c1.4,19.2,7.5,43.3,22.1,73.2c0,0,25.2,47.9,45.2,70l1.8,1.7c9.8,9.9,23.3,16,38.3,16c18.2,0,34.3-8.8,44.1-22.5h0.3
		c9.8,13.7,25.9,22.5,44.1,22.5c14.8,0,28.5-6.2,38.2-16l1.8-1.7c20.1-22,45.2-70,45.2-70c14.6-29.8,20.7-53.8,22.3-73.2h0.2
		c0.1-1.9,0.1-3.5,0.1-5.3C433.5,266.4,393.3,226.4,344,226.4L344,226.4z"/>
	<path d="M249.7,159.3c0,0.1-2.5-80.7-100.7-73.8C149,85.5,167.9,179.5,249.7,159.3L249.7,159.3z"/>
	<path d="M276.8,233.1l4,0.4l23-123.1l-1.2-0.7c-0.8-0.5-20-11.5-30.4-11.5c-3.1,0-5.4,1-6.7,2.9c-1.7,2.4-1.5,6.1,0.5,11.1
		C275.8,136.6,276.8,232.1,276.8,233.1L276.8,233.1z"/>
</g>
</svg>
