<?xml version="1.0" encoding="utf-8"?>
<!-- Generator: Adobe Illustrator 28.2.0, SVG Export Plug-In . SVG Version: 6.00 Build 0)  -->
<svg version="1.1" id="Calque_1" xmlns="http://www.w3.org/2000/svg" xmlns:xlink="http://www.w3.org/1999/xlink" x="0px" y="0px"
	 viewBox="0 0 566.9 566.9" style="enable-background:new 0 0 566.9 566.9;" xml:space="preserve">
<style type="text/css">
	.st0{fill:#E8629F;}
</style>
<circle class="st0" cx="283.5" cy="283.5" r="283.5"/>
<path d="M257,230.1V283H85v-52.9H257z M309.9,230.1V283h172v-52.9H309.9z M111.5,309.4v119.1c0,21.9,17.8,39.7,39.7,39.7H257V309.4
	H111.5z M309.9,309.4v158.7h105.8c21.9,0,39.7-17.8,39.7-39.7V309.4H309.9z M362.8,97.8c-37.1-1.2-70.1,23.6-79.4,59.5
	c-9.3-36-42.2-60.7-79.4-59.5c-28.3-0.9-52,21.4-52.9,49.7c0,1.1,0,2.2,0,3.2c-4.1,24.9,12.8,48.5,37.7,52.6
	c4.2,0.7,8.6,0.8,12.8,0.3h162.2c25.3,4,49-13.3,52.9-38.6c0.7-4.8,0.7-9.6,0-14.3c0-29.2-23.7-52.9-52.9-52.9
	C363.5,97.8,363.2,97.8,362.8,97.8z M204.1,177.2c-13.4,1.2-25.2-8.6-26.5-22c-0.1-1.5-0.1-3,0-4.4c-1.2-13.4,8.6-25.2,22-26.5
	c1.5-0.1,3-0.1,4.4,0c29.2,0,52.9,23.7,52.9,52.9H204.1z M362.8,177.2h-52.9c0-29.2,23.7-52.9,52.9-52.9c14.6,0,26.5,11.8,26.5,26.5
	c1.2,13.4-8.6,25.2-22,26.5C365.8,177.3,364.3,177.3,362.8,177.2z"/>
</svg>
