<?xml version="1.0" encoding="utf-8"?>
<!-- Generator: Adobe Illustrator 28.2.0, SVG Export Plug-In . SVG Version: 6.00 Build 0)  -->
<svg version="1.1" id="uuid-780d101c-2695-42c7-ada4-1c334a9276a5"
	 xmlns="http://www.w3.org/2000/svg" xmlns:xlink="http://www.w3.org/1999/xlink" x="0px" y="0px" viewBox="0 0 566.9 566.9"
	 style="enable-background:new 0 0 566.9 566.9;" xml:space="preserve">
<style type="text/css">
	.st0{fill:#FCBE19;}
	.st1{fill:#E6629F;}
	.st2{fill:#E86936;}
	.st3{fill:#1D1D1B;}
	.st4{font-family:'Helvetica-Bold';}
	.st5{font-size:257.1501px;}
</style>
<path class="st0" d="M562.9,168.3l0-0.2l0-0.2c-7.7-53.9-29.7-107.1-63.6-153.9l-6.1-8.5L483,8.3c-37,10-70.1,14.9-101,14.9
	c-19.8,0-38.9-2.1-56.7-6.2l-1.4-0.3c-12-2.9-24.4-5.9-36.5-9.1l-4.2-1.1l-4.2,1.3c-33.7,10.3-66.7,15.5-98.3,15.5
	c-17,0-33.6-1.5-49.5-4.6c-18.4-3.8-33.6-7.2-48-10.5l-9.8-2.3L67.6,14C46.8,42.8,30.4,74.1,19,107.3C7.2,141.3,1,176.1,0.4,210.9
	c-4.2,79.3,21.7,162.2,71.1,227.7c53.2,70.4,128.3,114,211.2,122.6l1.9,0.2l1.8-0.3c27.6-3.9,58.5-15.5,89.5-33.5
	c30.6-17.7,60.7-41.4,87.1-68.5c28.4-29,51.6-60.7,69.1-94.1c19.3-36.9,30.5-74.2,33.4-111C568.6,224.1,565.9,193.9,562.9,168.3
	L562.9,168.3z"/>
<path class="st1" d="M286,534c133.9-26.2,261.8-175.8,255-322.4c-1-24.4-3.5-48.9-9.8-72.6H35.7c-9.9,39.3-12.8,80.8-7.9,121
	C43.7,396.7,146.5,525.3,286,534L286,534L286,534z"/>
<path class="st2" d="M199,127.9H39.4l2-6.9C49.4,92.3,63,65.4,80,41l4.5-6.6c15.5,4.7,31.4,7.7,47.3,11.3
	c48.1,7.9,98,3.5,144.5-10.8l7.1-1.9c10,2.8,20,5.4,30,8c55.5,13.9,114.4,10.5,168.7-6.6c20.3,28.2,36.9,59.4,45.3,93.5L199,127.9
	L199,127.9z"/>
<text transform="matrix(1 0 0 1 68.882 368.0102)" class="st3 st4 st5">163</text>
</svg>
