<?xml version="1.0" encoding="utf-8"?>
<!-- Generator: Adobe Illustrator 28.2.0, SVG Export Plug-In . SVG Version: 6.00 Build 0)  -->
<svg version="1.1" id="Calque_1" xmlns="http://www.w3.org/2000/svg" xmlns:xlink="http://www.w3.org/1999/xlink" x="0px" y="0px"
	 viewBox="0 0 566.9 566.9" style="enable-background:new 0 0 566.9 566.9;" xml:space="preserve">
<style type="text/css">
	.st0{fill:#E8629F;}
</style>
<circle class="st0" cx="283.5" cy="283.5" r="283.5"/>
<path d="M98.3,144.8c-7.9,0-13.2,5.3-13.2,13.2v198.4v52.9c0,7.9,5.3,13.2,13.2,13.2s13.2-5.3,13.2-13.2v-39.7h343.9v39.7
	c0,7.9,5.3,13.2,13.2,13.2s13.2-5.3,13.2-13.2v-52.9c0-7.9-5.3-13.2-13.2-13.2H111.5V158C111.5,150.1,106.2,144.8,98.3,144.8z
	 M177.6,158c-21.2,0-39.7,18.5-39.7,39.7l0,0c0,21.2,18.5,39.7,39.7,39.7l0,0c21.2,0,39.7-18.5,39.7-39.7l0,0
	C217.3,176.6,198.8,158,177.6,158L177.6,158z M270.2,184.5c-39.7,0-39.7,39.7-39.7,39.7v39.7h-79.4c-7.9,0-13.2,5.3-13.2,13.2v26.5
	c0,7.9,5.3,13.2,13.2,13.2h92.6h238.1v-66.1c0-66.1-66.1-66.1-66.1-66.1H270.2z"/>
</svg>
