<?xml version="1.0" encoding="utf-8"?>
<!-- Generator: Adobe Illustrator 28.2.0, SVG Export Plug-In . SVG Version: 6.00 Build 0)  -->
<svg version="1.1" id="Calque_1" xmlns="http://www.w3.org/2000/svg" xmlns:xlink="http://www.w3.org/1999/xlink" x="0px" y="0px"
	 viewBox="0 0 566.9 566.9" style="enable-background:new 0 0 566.9 566.9;" xml:space="preserve">
<style type="text/css">
	.st0{fill:#E8629F;}
</style>
<circle class="st0" cx="283.5" cy="283.5" r="283.5"/>
<g>
	<path d="M215.8,374.9c-20,0.5-34.1-11.5-38.7-15.3c-17.2-14.5-22.3-33.3-28.3-56.1c-7.7-29-7-52.4-6.8-57.9
		c1.6-38.8,14.9-66.4,23.3-83.5c5.5-11.1,15.9-24.2,36.8-50.2c3.7-4.6,9.9-12.2,18.8-12.6c8.6-0.5,14.8,5.7,15.3,6.3
		c6.4,6.7,6.1,15.7,6.3,26c0,0,0,0.1,4,42.2c0.9,9.6,4.7,23.3,12.2,50.2c12.7,46.2,16.1,50.7,17.1,68.3c0.8,14.3,1.5,28.8-6.3,44.9
		c-2.3,4.7-10.3,20.8-28.7,30.5C236.5,370.1,227.7,374.7,215.8,374.9z"/>
	<path d="M169.6,448.7c-12.7-11.1-20.3-21.8-22.3-24.4c-7.2-10.3-11.2-19.2-13-23.5c-2.8-6.7-9.2-22.4-3.8-27.2
		c0.9-0.8,2.6-1.7,4.5-1.8c3.8-0.2,6.7,2.9,7.7,3.8c0,0,11.6,8.3,34.5,24.7c12.5,8.9,22.9,15,22.9,15c9.5,5.6,16.1,8.7,20.2,16.5
		c0.7,1.3,2.9,5.7,3.1,11.8c0.1,3.3,0.6,12-5.9,18.4c-5.9,5.9-13.7,5.9-15.3,5.9c-5.9-0.1-10.3-2.9-18.8-8.5
		C176.4,454.6,171.4,450.4,169.6,448.7z"/>
	<path d="M351.1,374.9c20,0.5,34.1-11.5,38.7-15.3c17.2-14.5,22.3-33.3,28.3-56.1c7.7-29,7-52.4,6.8-57.9
		c-1.6-38.8-14.9-66.4-23.3-83.5c-5.5-11.1-15.9-24.2-36.8-50.2c-3.7-4.6-9.9-12.2-18.8-12.6c-8.6-0.5-14.8,5.7-15.3,6.3
		c-6.4,6.7-6.1,15.7-6.3,26c0,0,0,0.1-4,42.2c-0.9,9.6-4.7,23.3-12.2,50.2c-12.7,46.2-16.1,50.7-17.1,68.3
		c-0.8,14.3-1.5,28.8,6.3,44.9c2.3,4.7,10.3,20.8,28.7,30.5C330.4,370.1,339.2,374.7,351.1,374.9z"/>
	<path d="M397.3,448.7c12.7-11.1,20.3-21.8,22.3-24.4c7.2-10.3,11.2-19.2,13-23.5c2.8-6.7,9.2-22.4,3.8-27.2
		c-0.9-0.8-2.6-1.7-4.5-1.8c-3.8-0.2-6.7,2.9-7.7,3.8c0,0-11.6,8.3-34.5,24.7c-12.5,8.9-22.9,15-22.9,15
		c-9.5,5.6-16.1,8.7-20.2,16.5c-0.7,1.3-2.9,5.7-3.1,11.8c-0.1,3.3-0.6,12,5.9,18.4c5.9,5.9,13.7,5.9,15.3,5.9
		c5.9-0.1,10.3-2.9,18.8-8.5C390.4,454.6,395.4,450.4,397.3,448.7z"/>
</g>
</svg>
