<?xml version="1.0" encoding="utf-8"?>
<!-- Generator: Adobe Illustrator 28.2.0, SVG Export Plug-In . SVG Version: 6.00 Build 0)  -->
<svg version="1.1" id="Calque_1" xmlns="http://www.w3.org/2000/svg" xmlns:xlink="http://www.w3.org/1999/xlink" x="0px" y="0px"
	 viewBox="0 0 566.9 566.9" style="enable-background:new 0 0 566.9 566.9;" xml:space="preserve">
<style type="text/css">
	.st0{fill:#E8629F;}
</style>
<circle class="st0" cx="283.5" cy="283.5" r="283.5"/>
<path d="M467.7,303.7v81.9c0,11.3-9.2,20.5-20.5,20.5c-11.3,0-20.5-9.2-20.5-20.5l0,0c-2.3-10.3-10.5-18.3-20.9-20.5h-20.1v66.7
	c0,8.4-6.8,15.1-15.1,15.1H114.4c-8.4,0-15.1-6.8-15.1-15.1V298.4c0-8.4,6.8-15.1,15.1-15.1h256.3c8.4,0,15.1,6.8,15.1,15.1v25.8
	h20.1c10.4-2.1,18.5-10.1,20.9-20.5c0-11.3,9.2-20.5,20.5-20.5C458.5,283.2,467.7,292.4,467.7,303.7z M160.6,160.4
	c-33.9,0-61.4,27.5-61.4,61.4s27.5,61.4,61.4,61.4s61.4-27.5,61.4-61.4S194.5,160.4,160.6,160.4z M160.6,242.3
	c-11.3,0-20.5-9.2-20.5-20.5c0-11.3,9.2-20.5,20.5-20.5c11.3,0,20.5,9.2,20.5,20.5C181.1,233.1,171.9,242.3,160.6,242.3z
	 M303.9,119.4c-45.2,0-81.9,36.7-81.9,81.9s36.7,81.9,81.9,81.9s81.9-36.7,81.9-81.9S349.2,119.4,303.9,119.4z M303.9,242.3
	c-22.6,0-40.9-18.3-40.9-40.9s18.3-40.9,40.9-40.9s40.9,18.3,40.9,40.9S326.6,242.3,303.9,242.3z"/>
</svg>
