<?xml version="1.0" encoding="utf-8"?>
<!-- Generator: Adobe Illustrator 28.2.0, SVG Export Plug-In . SVG Version: 6.00 Build 0)  -->
<svg version="1.1" id="Calque_1" xmlns="http://www.w3.org/2000/svg" xmlns:xlink="http://www.w3.org/1999/xlink" x="0px" y="0px"
	 viewBox="0 0 566.9 566.9" style="enable-background:new 0 0 566.9 566.9;" xml:space="preserve">
<style type="text/css">
	.st0{fill:#E8629F;}
</style>
<circle class="st0" cx="283.5" cy="283.5" r="283.5"/>
<path d="M479.2,248.1c-2.3-2.9-5.9-4.6-9.6-4.6H303.8l41.6-111.7c0.8-2.2,0.7-4.5-0.2-6.6c-1-2.1-2.7-3.7-4.9-4.5l-13.6-5.1
	c-4.5-1.7-9.5,0.6-11.2,5.1l-45.7,122.8H97.3c-3.7,0-7.3,1.7-9.6,4.6c-2.3,2.9-3.2,6.8-2.3,10.4l43.1,183.9
	c1.3,5.5,6.2,9.4,11.9,9.4c0,0,0,0,0.1,0l286.1-1.3c5.7,0,10.6-3.9,11.8-9.4l43.1-182.7C482.4,254.9,481.6,251.1,479.2,248.1
	L479.2,248.1z M313.2,268v47.7h-62.8V268H313.2z M313.2,332v52.4h-62.8V332H313.2z M234.1,315.7h-59.3V268h59.3V315.7z M234.1,332
	v52.4h-59.3V332H234.1z M234.1,400.6V427l-59.3,0.3v-26.6H234.1z M250.4,400.6h62.8v26l-62.8,0.3V400.6z M329.5,400.6h61v25.7
	l-61,0.3V400.6z M329.5,384.3V332h61v52.4H329.5z M329.5,315.7V268h61v47.7H329.5z M158.5,268v47.7h-28c-2.4,0-4.5,1-6,2.6
	L112.7,268H158.5z M127.6,331.4c0.9,0.3,1.9,0.5,2.9,0.5h28v52.4h-12.5c-2.1,0-4,0.8-5.5,2.1L127.6,331.4z M143.7,400.3
	c0.7,0.2,1.4,0.3,2.2,0.3h12.5v26.7l-8.4,0L143.7,400.3z M406.8,426.2v-25.6h16l-6,25.6L406.8,426.2z M426.7,384.3
	c-0.1,0-0.1,0-0.2,0h-19.7V332h32.3L426.7,384.3z M442.9,315.7c-0.3,0-0.6-0.1-0.9-0.1h-35.1V268h47.4L442.9,315.7z"/>
</svg>
