<?xml version="1.0" encoding="utf-8"?>
<!-- Generator: Adobe Illustrator 28.2.0, SVG Export Plug-In . SVG Version: 6.00 Build 0)  -->
<svg version="1.1" id="Calque_1" xmlns="http://www.w3.org/2000/svg" xmlns:xlink="http://www.w3.org/1999/xlink" x="0px" y="0px"
	 viewBox="0 0 566.9 566.9" style="enable-background:new 0 0 566.9 566.9;" xml:space="preserve">
<style type="text/css">
	.st0{fill:#9C936D;}
</style>
<circle class="st0" cx="283.5" cy="283.5" r="283.5"/>
<path d="M291,379.6c8.1,7.9,8.4,20.8,0.5,29c-7.9,8.1-20.8,8.4-29,0.5c-0.2-0.2-0.3-0.3-0.5-0.5l-29-29l-58,58c8,8,8,21,0,29
	c-8,8-21,8-29,0l-29-29c-8-8-8-21,0-29c8-8,21-8,29,0l58-58l-29-29c-7.9-8.1-7.6-21.1,0.5-29c7.9-7.7,20.5-7.7,28.5,0L291,379.6
	L291,379.6z M305.5,365.1l-87-87l174-174l72.5,14.5l14.5,72.5L305.5,365.1L305.5,365.1z"/>
</svg>
