<?xml version="1.0" encoding="utf-8"?>
<!-- Generator: Adobe Illustrator 28.2.0, SVG Export Plug-In . SVG Version: 6.00 Build 0)  -->
<svg version="1.1" id="_x32_" xmlns="http://www.w3.org/2000/svg" xmlns:xlink="http://www.w3.org/1999/xlink" x="0px" y="0px"
	 viewBox="0 0 566.9 566.9" style="enable-background:new 0 0 566.9 566.9;" xml:space="preserve">
<style type="text/css">
	.st0{fill:#9C936D;}
</style>
<circle class="st0" cx="283.5" cy="283.5" r="283.5"/>
<g>
	<path d="M384.5,328c-9.4-21.6-16.5-46.8-19.3-74.3c0.3-13.5-1.6-27.4-5.5-41c-7.5-26-22.4-51.4-44.4-73.4
		c-14.5-14.5-30.4-26.5-47-35.4c-12.5-6.7-25.4-11.8-38.5-15c-19.6-4.8-39.7-5.2-58.8-0.5c-19.1,4.7-37.2,14.8-52.5,30.1
		c-13.6,13.6-23.1,29.4-28.3,46.2c-3.9,12.6-5.5,25.7-5,38.9c0.8,19.8,6.2,39.6,15.5,58.5c9.3,18.9,22.4,37,38.7,53.3
		c29.4,29.4,64.8,46.1,99.5,49.3c5.7,0.5,11.4,0.7,17,0.5c29.1,2,53.4,8.8,74,18.3c12.3,5.7,23.2,12.3,32.9,19.4l52.1-25.8
		C403.6,364.3,393.1,347.6,384.5,328z M279.6,329.7c-17.5,5.8-37.7,6-58.3,0.1c-20.6-5.9-41.5-18-60-36.5
		c-12.5-12.5-22.6-26.1-30.1-39.8c-5.6-10.3-9.6-20.8-12.1-31c-3.7-15.4-3.9-30.3-0.5-44c3.4-13.8,10.4-26.5,21.9-38
		c10.2-10.2,21.5-16.8,33.5-20.6c9-2.8,18.5-4,28.4-3.6c14.8,0.6,30.5,4.7,46,12.3c15.5,7.6,30.9,18.7,45,32.7
		c24.7,24.7,37.9,53.7,40.4,80.4c1.3,13.4-0.1,26.2-4,37.9c-3.9,11.6-10.2,22.1-19.1,31C301.7,319.5,291.2,325.8,279.6,329.7z
		 M342.8,355.2c-8.3-3.8-16.8-7-25.8-9.7c5.5-3.8,10.8-8.1,15.6-12.9c5.4-5.4,10.1-11.3,14.2-17.5c2.6,8.7,5.7,17.2,9.3,25.4
		c4.9,11.2,10.4,21.7,16.4,31.3C363.4,365.8,353.6,360.2,342.8,355.2z"/>
	<path d="M425.2,388.1l-50,24.7c2.9,2.5,5.6,5,8.2,7.5c0.8,0.8,1.6,1.5,2.4,2.3c1.2,1.2,2.5,2.5,3.7,3.8l50.5-25
		C434.9,397.3,429.9,392.7,425.2,388.1z"/>
	<path d="M479.2,435.1L420.9,464c0.9,1.2,1.7,2.3,2.4,3.2c1.1,1.5,1.9,2.6,2.5,3.4c0.3,0.4,0.5,0.7,0.6,0.9l0.2,0.2l0,0l0,0l0.1,0.1
		l0.1,0.1c0.8,1,1.6,2,2.5,2.9c4,4,9.4,6.5,15.1,7l0.1,0c7,0.5,13.9-2,18.9-7l11.6-11.6c5-5,7.5-11.9,7-19v0
		C481.6,441.1,480.6,438,479.2,435.1z"/>
	<path d="M454.8,413.7c-0.9-0.7-1.7-1.4-2.6-2.1l-52.5,26c4.4,5.1,8.6,10.1,12.2,14.6l56.7-28.1C465.5,422,460.6,418.4,454.8,413.7z
		"/>
	<path d="M229.1,419.7c-13.2,12.5-13.8,33.2-1.3,46.4c12.5,13.2,33.2,13.8,46.4,1.3c13.2-12.5,13.8-33.2,1.3-46.4
		C263.1,407.8,242.3,407.2,229.1,419.7z"/>
</g>
</svg>
