<?xml version="1.0" encoding="utf-8"?>
<!-- Generator: Adobe Illustrator 28.2.0, SVG Export Plug-In . SVG Version: 6.00 Build 0)  -->
<svg version="1.1" id="Calque_1" xmlns="http://www.w3.org/2000/svg" xmlns:xlink="http://www.w3.org/1999/xlink" x="0px" y="0px"
	 viewBox="0 0 566.9 566.9" style="enable-background:new 0 0 566.9 566.9;" xml:space="preserve">
<style type="text/css">
	.st0{fill:#E8629F;}
</style>
<circle class="st0" cx="283.5" cy="283.5" r="283.5"/>
<g>
	<rect x="99.2" y="139.2" width="368.5" height="39.6"/>
	<path d="M99.2,203.9v223.8h368.5V203.9H99.2z M444.6,314.8c0,39.6-32.1,71.7-71.7,71.7H194c-39.6,0-71.7-32.1-71.7-71.7l0,0
		c0-39.6,32.1-71.7,71.7-71.7h178.8C412.5,243.1,444.6,275.2,444.6,314.8L444.6,314.8L444.6,314.8z"/>
	<rect x="223.3" y="266.7" width="120.4" height="96.2"/>
	<path d="M197.3,298.2v-31.5c-26.6,0-48.1,21.5-48.1,48.1s21.5,48.1,48.1,48.1v-31.5c-9.2,0-16.6-7.4-16.6-16.6
		S188.1,298.2,197.3,298.2z"/>
	<path d="M369.6,331.4v31.5c26.6,0,48.1-21.5,48.1-48.1s-21.5-48.1-48.1-48.1v31.5c9.2,0,16.6,7.4,16.6,16.6
		S378.8,331.4,369.6,331.4z"/>
</g>
</svg>
