<?xml version="1.0" encoding="utf-8"?>
<!-- Generator: Adobe Illustrator 28.2.0, SVG Export Plug-In . SVG Version: 6.00 Build 0)  -->
<svg version="1.1" id="Calque_1" xmlns="http://www.w3.org/2000/svg" xmlns:xlink="http://www.w3.org/1999/xlink" x="0px" y="0px"
	 viewBox="0 0 566.9 566.9" style="enable-background:new 0 0 566.9 566.9;" xml:space="preserve">
<style type="text/css">
	.st0{fill:#E8629F;}
</style>
<circle class="st0" cx="283.5" cy="283.5" r="283.5"/>
<g>
	<path d="M283.7,190c62.6,0.1,113.5,51.1,113.2,113.8c-0.2,62.5-51,113.1-113.6,113.1c-62.6-0.1-113.5-51.1-113.2-113.8
		C170.3,240.6,221.1,190,283.7,190L283.7,190z M283.4,402.6c54.7,0,99.1-44.4,99.3-99.1s-44.3-99.3-98.9-99.4
		c-54.9-0.1-99.5,44.4-99.5,99.3S228.8,402.6,283.4,402.6L283.4,402.6z"/>
	<path d="M212.2,342.1c5.7-6.6,10.9-12.7,16.2-18.8c2.8-3.3,5.4-7.1,8.5-10.2c9.7-9.3,23.7-9.5,33.5-0.1c3.7,3.5,6.6,7.9,9.9,12
		c3.1,3.8,5.9,7.8,9.3,11.1c9.7,9.3,23.9,9.5,33.4-0.2c5.8-5.9,10.4-12.9,15.5-19.3c4.6-5.7,10.3-9.8,17.9-10.2
		c3.7-0.1,7.5,0.7,11.1,1.1c-3.8,34.7-31.8,64.7-66,71.9C266,386.9,228.9,371.1,212.2,342.1L212.2,342.1z"/>
	<path d="M292.4,211.6c26.1,3.1,47.4,15.9,62.6,38.6c2.5,3.8,1.7,7.9-1.7,10.2c-3.3,2.2-7.5,1.5-9.9-2.2
		c-12.7-19.2-30.5-29.9-53.2-32.7c-4.6-0.6-7.1-3.9-6.6-7.8C284,214.1,287.3,211.5,292.4,211.6L292.4,211.6z"/>
	<path d="M234.1,303.5c-7.7,0.1-14.2-6.2-14.3-13.8c-0.1-7.9,6.3-14.4,14.2-14.4c7.7,0,14.1,6.4,14.2,14.1
		C248,296.8,241.8,303.3,234.1,303.5z"/>
	<path d="M219.6,267.8c0.1,3.8-3.1,7.1-7,7.2c-3.8,0.1-7.1-3.1-7.2-7c-0.1-3.9,3.1-7.1,7-7.2C216.3,260.9,219.6,264.1,219.6,267.8
		L219.6,267.8z"/>
	<path d="M460.5,119.8c0-7-9.6-12.2-21.9-12.2c-103.4,0-206.9,0-310.3,0c-12.9,0-21.9,5.3-22,13c0,7.1,0,14.3,0,21.5
		c0,7.7,0,15.5,0,23.4l0,0c0,89.9,0,179.8,0,269.9c0,15.4,8.5,23.8,23.8,23.8c102.2,0,204.6,0,306.8,0c15.1,0,23.7-8.5,23.7-23.5
		c0-94.5,0-189,0-283.5v-4.7C460.7,138.4,460.7,129.1,460.5,119.8z M381.3,122.8c8.6,0,15.6,7,15.6,15.6s-7,15.6-15.6,15.6
		c-8.6,0-15.6-7-15.6-15.6S372.6,122.8,381.3,122.8z M283.5,431c-70.4,0-127.5-57.1-127.7-127.5c0-70.4,57.1-127.5,127.5-127.7
		c70.4,0,127.5,57.1,127.7,127.5C411.1,373.7,353.9,431,283.5,431z M430,154c-8.6,0-15.6-7-15.6-15.6s7-15.6,15.6-15.6
		c8.6,0,15.6,7,15.6,15.6C445.6,147,438.7,154,430,154z"/>
</g>
</svg>
