<?xml version="1.0" encoding="utf-8"?>
<!-- Generator: Adobe Illustrator 28.2.0, SVG Export Plug-In . SVG Version: 6.00 Build 0)  -->
<svg version="1.1" id="Calque_1" xmlns="http://www.w3.org/2000/svg" xmlns:xlink="http://www.w3.org/1999/xlink" x="0px" y="0px"
	 viewBox="0 0 566.9 566.9" style="enable-background:new 0 0 566.9 566.9;" xml:space="preserve">
<style type="text/css">
	.st0{fill:#E8629F;}
	.st1{opacity:0.5;enable-background:new    ;}
</style>
<circle class="st0" cx="283.5" cy="283.5" r="283.5"/>
<g>
	<path class="st1" d="M203.2,476l42.6-250.8l40.2-24l39.3,24.7c0,0,36,254.2,31.8,252.2C352.9,476,204.1,479.1,203.2,476z"/>
	<path d="M456.1,376.7L318.7,259.1l137.4-117.6c2-1.7,3.2-4.3,3.3-7c0.1-2.7-1-5.3-3-7.1l-46.6-43.6c-2-1.8-4.6-2.8-7.3-2.5
		c-2.7,0.3-5.1,1.6-6.7,3.8l-110,150l-110-150c-1.6-2.2-4-3.6-6.7-3.8c-2.7-0.3-5.4,0.7-7.3,2.5l-46.6,43.6c-2,1.8-3,4.4-3,7.1
		c0.1,2.7,1.3,5.2,3.3,7l137.4,117.6L115.4,376.7c-2,1.7-3.2,4.3-3.3,7s1,5.3,3,7.1l46.6,43.6c1.8,1.6,4.1,2.5,6.5,2.5
		c0.3,0,0.6,0,0.9,0c2.7-0.3,5.1-1.6,6.7-3.8l110-150l110,150c1.6,2.2,4,3.6,6.7,3.8c0.3,0,0.6,0,0.9,0c2.4,0,4.7-0.9,6.5-2.5
		l46.6-43.6c2-1.8,3-4.4,3-7.1C459.3,381,458.1,378.4,456.1,376.7L456.1,376.7z M279.8,259.1l6-5.8l6,5.8l-6,5.8L279.8,259.1z"/>
</g>
</svg>
