<?xml version="1.0" encoding="UTF-8"?>
<svg id="Calque_2" data-name="Calque 2" xmlns="http://www.w3.org/2000/svg" viewBox="0 0 263.37 232.88">
  <defs>
    <style>
      .cls-1 {
        fill: #e763a0;
      }
    </style>
  </defs>
  <g id="Calque_1-2" data-name="Calque 1">
    <g>
      <path class="cls-1" d="m40.88,201.37c-1.5-1.5-3.5-3-6-3-1.5,0-2.5,0-3.5.5,0-1,0-2-.5-2.5-.5-1.5-1.5-3.5-3-4.5-1.5-1-2.5-1.5-4.5-2-1.5-.5-3-.5-4.5,0-1.5,0-3,.5-4.5,2-1,1-2.5,2.5-4.5,4L.38,206.37c-.5.5-.5,1.5,0,2l26,24c.5,0,.5.5,1,.5h0q.5,0,1-.5l8-9c1-1,2-2.5,3-3,1.5-2,2.5-3,3-3.5,1-1.5,2-3,2-5,.5-2,0-3.5-.5-5-.5-2.5-1.5-4-3-5.5Zm-28,4.5l2-2c1.5-1.5,2.5-3,4-4.5,0,0,1-.5,1.5-.5s.5,0,1,.5c0,0,.5.5,1,.5.5.5.5,1,.5,1,0,.5-.5,1.5-1,2,0,0-.5.5-.5,1-.5.5-1.5,2-3,3l-2,2.5-3.5-3.5Zm22,5.5c0,.5,0,1-.5,1.5h0l-.5.5c-.5.5-1.5,1.5-2,2.5l-4,4-5-4.5,3-3.5c2.5-3,3.5-4,4-4h1.5c.5,0,.5.5,1,.5s.5.5,1,.5c.5.5,1,1.5,1,2q.5,0,.5.5Z"/>
      <path class="cls-1" d="m47.88,161.88c-5,0-9,2-13.5,6.5-2,2-3,4-4,6l-.5,1c-.5,1.5-1,4-.5,6.5,0,.5,0,1,.5,1.5,0,1.5.5,2.5,1,4,1,2.5,3,5,6,8h0c4.5,4,9,6,13.5,6,5,0,9.5-2,13-6.5,4-4.5,6-9,5.5-13.5,0-4.5-2-9-7-13.5-4-4-9-6-14-6Zm11.5,20c0,2.5-.5,4.5-2,6-2,2-3.5,2.5-6,2.5-2,0-4.5-1.5-7.5-3.5-2.5-2.5-4-4.5-4-7-.5-2.5,1-4.5,1.5-5.5,1.5-1.5,4-2.5,6-2.5s5,1.5,7.5,3.5c2.5,2,4.5,5,4.5,6.5Z"/>
      <path class="cls-1" d="m72.88,130.88c-.5-.5-1.5-.5-2,0l-4.5,4.5q-.5.5-.5,1t.5,1l13.5,13-22-5c-.5,0-1,0-1.5.5l-5,5q-.5.5-.5,1,0,.5.5,1l25,24.5q.5.5,1,.5h0c.5,0,1,0,1-.5l4.5-5c.5-.5.5-1.5,0-2l-12.5-12.5,21.5,5c.5,0,1,0,1.5-.5l5-5q.5-.5.5-1,0-.5-.5-1l-25.5-24.5Z"/>
      <path class="cls-1" d="m150.88,95.38c-2.5-1.5-5-1.5-6.5-1-1.5,0-4,1-8.5,3l-10.5,5c-.5.5-1,1-.5,2l12.5,26.5-23.5-21.5c-.5-.5-1-.5-1.5,0l-7,3.5c-.5.5-1,1-1,1.5l3,37.5c0,.5.5,1,.5,1h1l7-3.5c.5-.5,1-1,1-1.5l-1-7.5,10.5-5,5.5,5.5c.5.5,1,.5,1.5.5l7-3.5.5-.5,6-3c.5-.5,1-1,.5-2l-5-10.5,4-1c3-1,5-2.5,6.5-3.5l.5-.5c1.5-.5,2.5-2,3-4,.5-1.5,1-3,1-5s-.5-4-1.5-6c-1-3-2.5-5.5-5-6.5Zm-37,27.5l6,5.5-5,2.5-1-8Zm34-15.5c-.5.5-1,1.5-1,2-1,1-2.5,2-4.5,2.5l-2.5,1-3-6.5,2-1c.5-.5,1-.5,1.5-1,1-.5,2-1,2.5-1h.5c1.5-.5,2-.5,2.5,0s1.5,1,2,2c0,.5,0,1,0,2Z"/>
      <path class="cls-1" d="m213.38,45.88l6-7c.5-.5.5-1.5,0-2l-4.5-4c-.5,0-.5-.5-1-.5s-.5,0-1,.5l-18.5,21c-.5.5-.5,1.5,0,2h0c-.5-.5-1.5-.5-2,0l-18,19c-.5.5-.5,1.5,0,2l2,2c-2-1-4-1-6.5-.5-1.5.5-3.5,1.5-6,3l-11.5,7c-.5.5-1,1.5-.5,2l17.5,30q.5.5,1,.5h.5l7-3c.5,0,.5-.5.5-1v-1l-6-10,2.5-1.5c2-1,3.5-2,4.5-3,.5-.5,1-.5,1.5-1,1-1,2-2,3-4,1-2,1-3.5,1-5.5-.5-2-1-3.5-2-5.5l17,16.5q.5.5,1,.5h0q.5,0,1-.5l18.5-19.5q.5-.5.5-1t-.5-1l-4.5-4c-.5-.5-1.5-.5-2,0l-12.5,13-5-4.5,12-11.5q.5-.5.5-1c0-.5,0-1-.5-1l-4.5-4c-.5-.5-1.5-.5-2,0l-11.5,11.5-3.5-3.5,12-13q.5-.5.5-1,0-.5-.5-1h0c.5,0,.5.5,1,.5s.5,0,1-.5l6-7,21,18.5c.5,0,.5.5,1,.5s1,0,1-.5l4.5-5q.5-.5.5-1,0-.5-.5-1l-21-19Zm-38.5,46q0,.5-.5,1s-.5.5-.5,1c-.5,1-2.5,2-4,3l-2.5,1.5-3.5-6,2-1.5c1.5-1,2.5-1.5,3.5-2,.5,0,.5-.5.5-.5,1.5-.5,2-.5,2.5,0h.5s1,.5,1,1c1,1,1,2,1,2.5Z"/>
      <path class="cls-1" d="m262.88,30.38l-22-17.5,5.5-7c0-.5.5-.5.5-1s0-.5-.5-1l-4.5-3.5c-.5-.5-1.5-.5-2,0l-17.5,22.5c0,.5-.5.5-.5,1s0,.5.5,1h0c-.5-.5-1.5-.5-2,0l-4.5,5.5c0,.5-.5.5-.5,1s0,.5.5,1l27.5,22c.5,0,.5.5,1,.5s1,0,1-.5l4.5-5.5c0-.5.5-.5.5-1s0-.5-.5-1l-26-21,3,2.5c.5.5,1.5.5,2,0l5.5-7,21.5,17c.5,0,.5.5,1,.5s1,0,1-.5l5-5.5q.5-.5.5-1,0-1-.5-1.5Z"/>
    </g>
  </g>
</svg>