<?xml version="1.0" encoding="UTF-8"?>
<svg id="Calque_2" data-name="Calque 2" xmlns="http://www.w3.org/2000/svg" viewBox="0 0 133 448.72">
  <defs>
    <style>
      .cls-1 {
        fill: #e763a0;
      }
    </style>
  </defs>
  <g id="Calque_1-2" data-name="Calque 1">
    <g id="Calque_1-2" data-name="Calque 1-2">
      <g>
        <path class="cls-1" d="m15.5,38.22c1,0,2,0,2.5-.5,2.5-.5,4-2,5.5-3.5,1-1,1.5-2.5,1.5-3.5,1,.5,1.5,1,2.5,1.5,1.5.5,3.5.5,5,0,2,0,3.5-.5,5-2,1-1,2-3,3-4,.5-1.5.5-3,.5-4.5,0-1-.5-2.5-.5-4,0-1-.5-1.5-.5-2.5l-3-14c0-.5-.5-.5-.5-1-.5,0-.5-.5-1,0L1,8.22c-1,0-1,1-1,1.5l3,14c.5,3,1,4.5,1.5,6,.5,2,2,3.5,3.5,4.5,1,1,2.5,2.5,4.5,3,1,.5,2,1,3,1Zm16.5-17.5v1l-.5.5c-.5.5-1,.5-1,.5-1,0-1.5,0-2.5-.5-.5-.5-1-1-1-1.5s0-1-.5-2.5c0-.5-.5-1.5-.5-2.5l-.5-3,5-1,.5,2.5c.5,2,.5,3.5,1,4.5v1c0,.5,0,1,0,1Zm-15.5-6l1,4c1,3.5,1,5,1,6,0,.33-.17.67-.5,1l-.5.5c-.5.5-1,.5-1,.5-1,0-1.5,0-2.5-.5-.5-.5-1-.5-1.5-1.5,0,0,0-.5-.5-.5,0,0-.5-.5-1-3.5l-1-5s6.5-1,6.5-1Z"/>
        <path class="cls-1" d="m22,71.72c2,0,5-.5,9.5-1.5l18-4c1,0,1-1,1-1.5l-1.5-7c0-1-1-1.5-1.5-1l-19,3.5c-1,0-2,.5-3,.5s-2.5.5-2.5.5c-1.5,0-2,0-2.5-.5l-.5-.5c-.5-.5-1-2.5-1-2.5,0-2,0-3.5.5-4.5s1-1.5,2-2c0,0,.5,0,.5-.5,0,0,1-.5,5-1l18.5-4.5c1,0,1-1,1-1.5l-1.5-6.5c0-1-1-1-1.5-1l-18.5,4c-4.5.5-7,1.5-9,2.5-1,.5-2.5,1.5-4,4-1.5,1.5-2,3.5-2.5,5s0,3.5,0,6.5v1.5c.5,2.5,1.5,5,2.5,7,1,1.5,2.5,3.5,4,4,2.5.5,4,1,6,1Z"/>
        <path class="cls-1" d="m24,111.22c.33,0,.67-.17,1-.5l6-5.5c1-1,2-2.5,3-3.5.5-.5,1-1,1.5-2,.5-.5.5-1,1-1.5,1,1.5,2,3,3.5,3.5,2,1.5,4.5,2,8,1.5,2.5,0,4.5-1.5,6-2.5,2-1.5,3-3.5,3-5.5,0-1.5,0-4.5-1-8.5l-3.5-14.5c0-1-1-1-1.5-1l-34.5,7.5c-.5,0-.5.5-1,.5,0,.5-.5.5,0,1l1.5,5.5c0,.5,1,1,1.5,1l13.5-2.5v.5c.5,1.5.5,2,.5,3,0,.33-.17.67-.5,1q-.5.5-.5,1c-.5,1-2,2.5-3.5,4.5l-6.5,6.5c-.5.5-.5,1-.5,1.5l2,8.5s.5,0,1,.5h0Zm24-21c0,.67-.17,1.17-.5,1.5v.5c-.5.5-1.5,1-2,1-.33.33-.67.33-1,0h-.5c-.33,0-.5-.17-.5-.5q0-.5-.5-.5s-1-2-1.5-5.5l-.5-3.5,6-1.5,1,3.5c0,1,.5,2,.5,2.5-1,1.5-.5,2-.5,2.5Z"/>
        <path class="cls-1" d="m66.5,135.72c0-.5.5-.5,0-1l-1.5-6.5c0-1-1-1-1.5-1l-18,4,16.5-15.5c.5-.5.5-1,.5-1.5l-1.5-7c0-.5-.5-.5-.5-1-.5,0-.5-.5-1,0l-34.5,7.5c-.5,0-.5.5-1,.5,0,.5-.5.5,0,1l1.5,6c0,.5,1,1,1.5,1l17.5-4-16,15.5c-.5.5-.5,1-.5,1.5l1.5,7.5c0,.5.5.5.5,1h1.5l34.5-7.5c0,.5,0,0,.5-.5Z"/>
        <path class="cls-1" d="m54,192.72c2,0,3.5,0,5.5-.5,6-1.5,10-4.5,13-8,2.5-3.5,3.5-8.5,2-14-.5-3-1.5-5.5-3-7.5-1-1.5-2.5-3.5-4.5-4.5s-4-1.5-6-2c-3-.5-6.5-.5-9.5.5h0c-4.5,1.5-9,3-12.5,8-2.5,3.5-3.5,8.5-2,14,1,5.5,3.5,9,8.5,12,2,1,5,2,8.5,2Zm-9-16.5c-.5-2,0-5,1-6,2-2,4.5-3,8-4,3.5-.5,6.5-.5,8,0,2,1.5,3,3,3.5,5.5.5,2.5,0,4.5-1,6.5-1.5,2-3.5,3-7,4-4,.5-6.5.5-9-1-1.5-.5-3-2.5-3.5-5Z"/>
        <path class="cls-1" d="m66.5,225.72l18-4c1,0,1-1,1-1.5l-1.5-7c0-1-1-1.5-1.5-1l-19,3.5c-1,0-2,.5-3,.5s-2,.5-3,.5c-1.5,0-2,0-2.5-.5l-.5-.5c-.5-.5-1-2.5-1-2.5,0-2,0-3.5.5-4.5s1-1.5,2-2c0,0,.5,0,.5-.5,0,0,1-.5,5-1l18.5-4c1,0,1-1,1-1.5l-1.5-7c0-.5-.5-.5-.5-1-.5,0-.5-.5-1,0l-18.5,4.5c-4.5.5-7,1.5-9,2.5l-.5.5c-1,1-2.5,1.5-3,3-1.5,1.5-2,3.5-2.5,5s0,3.5,0,6.5v1.5c.5,2.5,1.5,5,2.5,7,1,1.5,2.5,3.5,4,4s3,1,5.5,1c3,0,6-.5,10-1.5Z"/>
        <path class="cls-1" d="m84,254.72c0,.5.5,1,1.5,1h.5l6-1.5c.5,0,1-1,1-1.5l-6-27.5c0-.5-.5-.5-.5-1-.5,0-.5-.5-1,0l-6,1.5c-1,0-1,1-1,1.5l2,8.5-27,6c-1,0-1,1-1,1.5l1.5,7c0,.5.5.5.5,1,.5,0,.5.5,1,0l26.5-5.5s2,9,2,9Z"/>
        <path class="cls-1" d="m80,308.72c2,0,3.5,0,5.5-.5,6-1.5,10-4.5,13-8,2.5-3.5,3.5-8.5,2-14-.5-3-1.5-5.5-3-7.5-1-1.5-2.5-3.5-4.5-4.5s-4-1.5-6-2c-3-.5-6.5-.5-9.5.5-6,1-10,4-13,8-2.5,3.5-3.5,8.5-2,14,1,5.5,3.5,9,8.5,12,2.5,1,5.5,2,9,2Zm-9-16.5c-.5-2,0-5,1-6,2-2,4.5-3.5,8-4,1.5-.5,3-.5,4-.5,1.5,0,3,0,4,.5,2,1.5,3.5,3,3.5,5.5.5,2.5,0,4.5-1,6.5-1.5,2-3.5,3-7,4-4,1-6.5,1-8.5-.5-2-1-3.5-3-4-5.5Z"/>
        <path class="cls-1" d="m87.5,335.22c0,.5.5.5.5,1h1.5l6-1.5c.5,0,1-1,1-1.5l-3-13,5.5-1.5,3,15c0,.5.5.5.5,1h1l6-1.5c.5,0,1-1,1-1.5l-5-23.5c0-.5-.5-.5-.5-1-.5,0-.5-.5-1,0l-34.5,7.5c-1,0-1,1-1,1.5l1.5,7.5c0,.5.5.5.5,1s.5.5,1,0l13-3,3,13.5h0Z"/>
        <path class="cls-1" d="m94,364.72c0,.5.5.5.5,1h1.5l6-1.5c.5,0,1-1,1-1.5l-2.5-13,5.5-1.5,3,15c0,.5,1,1,1.5,1l6-1c.5,0,.5-.5,1-.5,0-.5.5-.5,0-1l-5-23.5c0-.5-.5-.5-.5-1-.5,0-.5-.5-1,0l-34.5,7.5c-1,0-1,1-1,1.5l1.5,7.5c0,.5.5.5.5,1,.5,0,.5.5,1,0l13-3s2.5,13,2.5,13Z"/>
        <path class="cls-1" d="m119.5,373.72l-1.5-7c0-.5-.5-.5-.5-1-.5,0-.5-.5-1,0l-34.5,7.5c-1,0-1,1-1,1.5l1.5,7c0,.5.5.5.5,1h1.5l34.5-7.5c.5,0,1-.5.5-1.5Z"/>
        <path class="cls-1" d="m102,414.22c.5,0,1.5-.5,1.5-1.5l.5-7c0-.5,0-1-.5-1s-.5-.5-1-.5c-2.5,0-4-.5-4.5-1.5l-.5-.5c-1-1-2-2-2.5-3.5-.5-2,0-3.5,1-5.5,1.5-1.5,4-3,8-4,4-1,7-.5,8.5.5,1.5,1,3,2.5,3.5,4.5.5,1.5,0,3-.5,4-.5,1-1.5,2-3,3-.5.5-1,1-.5,2l3,6.5c0,.5.5.5,1,1h1c2.5-1.5,5-3,6-5.5,2-3.5,3-7.5,1.5-12-1-5.5-4-9.5-8-11.5-4.5-2.5-9.5-3.5-15.5-1.5-6,1.5-10,4.5-13,8-2.5,4-3.5,8.5-2,13.5,1,4,3,7,5.5,9,3.5,2,7,3.5,10.5,3.5Z"/>
        <path class="cls-1" d="m128.5,413.72c0-.5-.5-.5-.5-1-.5,0-.5-.5-1,0l-34.5,7.5c-.5,0-.5.5-1,.5,0,.5-.5.5,0,1l6,26c0,.5.5.5.5,1h1l6-1.5c1,0,1-1,1-1.5l-4-17.5,6.5-1.5,3,16.5c0,.5.5.5.5,1,.5,0,.5.5,1,0l6-1.5c1,0,1-1,1-1.5l-3.5-16,4.5-1,3.5,17c0,.5.5.5.5,1h1l6-1.5c.5,0,1-1,1-1.5l-4.5-25.5h0Z"/>
      </g>
    </g>
  </g>
</svg>