<?xml version="1.0" encoding="UTF-8"?>
<svg id="Calque_2" data-name="Calque 2" xmlns="http://www.w3.org/2000/svg" viewBox="0 0 183.82 323.38">
  <defs>
    <style>
      .cls-1 {
        fill: #e763a0;
      }
    </style>
  </defs>
  <g id="Calque_1-2" data-name="Calque 1">
    <g id="Calque_1-2" data-name="Calque 1-2">
      <g>
        <path class="cls-1" d="m31.94,292.88c-.5-.5-1.5-.5-2,.5l-4.5,6c0,.5-.5.5-.5,1s.5.5.5,1c2,1.5,3.5,3,4,4.5.5,1,.5,2.5,0,4.5s-1.5,3-3.5,4c-2,1-5,.5-9-1-3.5-1.5-6.5-3-7-5-.5-1.5-1.5-3.5-.5-6,.5-1,1.5-2.5,3-3.5,1-1,2.5-1,4-1,.5,0,1.5-.5,1.5-1.5l.5-7c0-.5,0-1-.5-1s-.5-.5-1-.5c-3,0-6,.5-8,1.5-3.5,1.5-6,5-7.5,9-2,5-2,9.5.5,14,2,4,6.5,7.5,12.5,9.5,3,1,5.5,1.5,8,1.5s5-.5,7-1.5c4.5-2.5,7.5-5.5,9-10.5,1.5-4,1.5-7.5.5-11-1.5-2.5-3.5-5-7-7.5Z"/>
        <path class="cls-1" d="m31.94,252.37c-6-1-11.5-.5-15,2-4,2.5-6.5,7-7.5,12.5-.5,2.5-.5,5.5,0,8,.5,1.5,1.5,3.5,2.5,5.5,1,1.5,2.5,3.5,4.5,4.5,1.5,1,4.5,3,9,4,2,.5,3.5.5,5,.5,3.5,0,7-1,9.5-2.5,4-2.5,6.5-7,7.5-12.5,1-5,0-10-2.5-14-2.5-4.5-7-7-13-8Zm7.5,20c-.5,2.5-1.5,4-4,5.5-2,1.5-5,1.5-8.5,1-4-1-6.5-2.5-7.5-4-1-1.5-1.5-3.5-1-6,1-3,2-4.5,4-5.5,2.5-1.5,5-1.5,8.5-1,4,1,6.5,2.5,7.5,4s1.5,3.5,1,6Z"/>
        <path class="cls-1" d="m50.94,226.37c-1-1.5-2-3-3.5-4.5-1.5-1-3.5-1.5-5-2-2-.5-5-.5-9.5-.5H14.44c-1,0-1.5.5-1.5,1.5v7c0,1,.5,1.5,1.5,1.5h20c2,0,3.5,0,4.5.5h1.5c1,.5,1.5,1,2,1.5.5,1,1,2,1,3.5s-.5,3-1,3.5c-1,1-1.5,1-3,1.5-.5.5-3,.5-5.5.5H14.94c-1,0-1.5.5-1.5,1.5v8.5h3v-.5h17.5c4,0,7,0,9.5-.5,1.5-.5,3.5-1,4.5-2.5,1-1,2-2.5,3-4v-.5c.5-1,1-4,1-8,.5-4-.5-6.5-1-8,.5.5,0,0,0,0Z"/>
        <path class="cls-1" d="m56.94,186.88l-34.5-7.5c-.5,0-1.5.5-1.5,1l-1.5,6.5v1c0,.5.5.5,1,.5l18,4-21,7.5c-.5,0-1,.5-1,1l-1.5,7c0,1,.5,1.5,1,1.5l34.5,7.5h.5c.5,0,1-.5,1.5-1l1.5-6.5v-1c0-.5-.5-.5-1-.5l-17.5-4,21-7.5c.5,0,1-.5,1-1l1.5-7c-1-.5-1.5-1.5-2-1.5Z"/>
        <path class="cls-1" d="m40.44,156.87l4.5-7.5v-1c0-.5-.5-.5-1-1l-5.5-3c-.5-.5-1.5,0-2,.5l-13,25v1c0,.5.5.5,1,1l5.5,2.5c.5.5,1.5,0,2-.5l4.5-8.5,24.5,13h1c.5,0,.5-.5,1-.5l3-6.5c.5-.5,0-1.5-.5-2,0,0-25-12.5-25-12.5Z"/>
        <path class="cls-1" d="m86.44,126.87l-8,.5c-1.5,0-2.5.5-3.5.5-1.5,0-3,.5-4,.5-.5,0-1,.5-2,.5.5-2,.5-3.5-.5-5-.5-2.5-2.5-5-5-6-2-1-4-1-6.5-1s-4,1-6,2c0,0-.5,0-.5.5-.5.5-.5,1-1,1.5-1,1.5-2.5,3-3.5,6l-7,13.5v1c0,.5.5.5.5,1l31,16h1c.5,0,.5-.5,1-.5l3-6.5c.5-.5,0-1.5-.5-2l-11.5-6.5h0c.5-.5.5-1,1-1.5.5-.5.5-1,.5-1,.5,0,.5-.5,1-.5s1-.5,1.5-.5,1.5-.5,3-.5c1,0,2,0,3-.5l9-1c.5,0,1-.5,1-.5l4-7.5v-1.5c0-.5-.5-1-1-1Zm-29.5,12.5l-5.5-3,2-3.5c1-1.5,1.5-2.5,1.5-3s.5-1,.5-1c1-1,1.5-1,1.5-1,1,0,1.5,0,2.5.5.5.5,1,.5,1.5,1.5.5.5.5,1,.5,2,0,.5-1,3-2.5,5.5,0,0-2,2-2,2Z"/>
        <path class="cls-1" d="m87.94,105.38l-7-22.5c0-.5-.5-1-1-1s-1,0-1.5.5l-5,6c-.5.5-.5,1-.5,1.5l4.5,12.5-13.5-2.5c-.5,0-1,0-1.5.5l-5.5,6.5c-.5.5-.5,1,0,1.5,0,.5.5,1,1,1l23.5,3.5,11,9c.5,0,.5.5,1,.5h0c.33,0,.67-.17,1-.5l4-5c.5-.5.5-1.5,0-2l-10.5-9.5Z"/>
        <path class="cls-1" d="m120.94,75.38c-2-2-4.5-3-5.5-3.5h-.5c-2,0-3.5,0-6,.5-1.5.5-4,2-7.5,4-4,2.5-5,3-5,3h-1.5c-.33-.33-.5-.83-.5-1.5.5-1.5,1-2.5,2-4,1.5-1.5,2-2,3-2h.5c.5,0,1,0,2.5,1,.5.5,1.5.5,2-.5l4.5-5.5c0-.5.5-.5.5-1s0-.5-.5-1c-3-2.5-6-3.5-9-3-3,.5-6.5,2.5-10,6-2.5,2.5-4,4.5-4.5,6.5-1,2.5-1,4.5-.5,6.5.5,2,1,4,3,5,2.5,2.5,5.5,3.5,8.5,3,2.5,0,4.5-1.5,8-3.5l.5-.5c1-.5,2-1,2.5-1.5,1-.5,2-1,2.5-1.5,1-1,1.5-1,2-1l1,.5c1,1,1,1.5,1,2.5s-.5,2.5-2,4-2.5,2-3.5,2h-.5c-1,.5-2.5,0-4-1.5-.5,0-.5-.5-1-.5s-.5.5-1,.5l-3.5,7c0,.5-.5.5-.5,1s.5.5.5,1c3,2.5,6,3.5,8.5,3.5h1.5c4-.5,7.5-2.5,10.5-6,2.5-2.5,3.5-5,5-7,1-2,1.5-4.5.5-7-.5-2-1.5-3.5-3.5-5.5Z"/>
        <path class="cls-1" d="m111.94,49.38c-.5-.5-1.5-.5-2,0l-5,5c-.33.33-.5.67-.5,1s.17.67.5,1l25.5,24c.33.33.67.5,1,.5s.67-.17,1-.5l5-5c.33-.33.5-.67.5-1s-.17-.67-.5-1c0,0-25.5-24-25.5-24Z"/>
        <path class="cls-1" d="m148.44,36.88c-2-2-4.5-4-7.5-5.5-2-1-4.5-1.5-7-1.5-2,0-4.5.5-7,1.5-1.5,1-3,2.5-5,4.5l-9,9.5c-.5.5-.5,1.5,0,2l25.5,24.5c.33.33.67.5,1,.5h0c.33,0,.67-.17,1-.5l9-10c2-2,3.5-3.5,4-5.5,1-2,1.5-4.5,1.5-6,0-3-.5-5-2-7.5-1-2-2.5-4-4.5-6Zm-3,14c0,.5-.5,1.5-1,2.5v.5c0,.5-1,1.5-2,2.5l-2.5,3-15-14,1.5-1.5c1.5-2,3-3.5,3.5-3.5,0,0,.5,0,.5-.5.5-.5,2-1,2.5-1,1,0,1.5.5,2.5.5l.5.5c1.5,1,3,2,4.5,3.5,2,2,3,3.5,3.5,4.5,1,1,1.5,2.5,1.5,3Z"/>
        <path class="cls-1" d="m183.44,23.88l-4-4c-.33-.33-.67-.5-1-.5-.5,0-1,0-1,.5l-12.5,13.5-5-4.5,11-12c.33-.33.5-.67.5-1s-.17-.67-.5-1l-4.5-4c-.5-.5-1.5-.5-2,0l-11,12-3.5-3.5,12-13c.33-.33.5-.67.5-1s-.17-.67-.5-1l-4.5-4c-.5-.5-1.5-.5-2,0l-18,19c-.33.33-.5.67-.5,1,0,.33.17.67.5,1l25.5,24c.33.33.67.5,1,.5.5,0,1,0,1-.5l18.5-19.5c.5-.5.5-1.5,0-2Z"/>
      </g>
    </g>
  </g>
</svg>