<?xml version="1.0" encoding="UTF-8"?>
<svg id="Calque_2" data-name="Calque 2" xmlns="http://www.w3.org/2000/svg" viewBox="0 0 355.09 48.09">
  <defs>
    <style>
      .cls-1 {
        fill: #e763a0;
      }
    </style>
  </defs>
  <g id="Calque_1-2" data-name="Calque 1">
    <g id="Calque_1-2" data-name="Calque 1-2">
      <g>
        <path class="cls-1" d="m30.09,5.09C27.09,2.09,24.09.59,19.09.09s-10,1-13,4.5C2.59,7.59.59,12.09.09,19.09c-.5,5.5,1,10.5,4,14,3.5,4,7,6,12,6.5,4,0,7.5-.5,10.5-2.5,3-1.5,5-5,6-9,0-.5,0-1.5-1-1.5l-6.5-2.5c-.5-.5-1.5,0-2,1-1,2-2,3.5-3,5-1.5,1-2.5,1.5-4,1.5-2.5-.5-4-1.5-5-3s-1.5-5-1-8.5c0-4,1-6.5,2.5-8l.5-.5c1-1.5,2.5-2,5.5-2,1.5,0,2.5.5,3.5,2,1,.5,1.5,1.5,2,3.5,0,.5,1,1,1.5,1l7-1.5c1,0,1-1,1-1.5-.5-4-1.5-6.5-3.5-8Z"/>
        <path class="cls-1" d="m167.09,9.59l-8-.5c-.5,0-1,0-1.5.5l-7.5,11.5-7-12.5c0-.5-.5-.5-1-.5l-8.5-.5h-1l-25.5-1.5c-.5,0-1.5.5-1.5,1.5l-.5,6c0,.5,0,1,.5,1s.5.5,1,.5l13.5,1-16.5,18.5-9-27.5c0-.5-.5-1-1-1l-7.5-.5c-.5,0-1,.5-1.5,1l-14.5,32.5-3.5-5.5c-1.5-3-2.5-5-4-6.5l-1.5-1.5c2-.5,3.5-1.5,4.5-2.5,2-1.5,3.5-4.5,3.5-7.5.5-2,0-4.5-1-6.5-1-1.5-3-3-4.5-4h-.5c-1.5-.5-4.5-1-8.5-1.5l-15-1c-1,0-1.5.5-1.5,1.5l-2.5,35c0,.33.17.67.5,1,0,.5.5.5,1,.5l7,.5c.33,0,.67-.17,1-.5.5,0,.5-.5.5-1l1-13h0c1,0,1.5,0,2.5.5h1s.5.5,1,.5c0,.5.5,1,1,1.5.5,1,1.5,2,2.5,4l4.5,7.5c0,.5.5.5,1,.5l8.5.5h0c0,.5.5.5,1,.5l7.5.5c.5,0,1-.5,1.5-1l3-7,12,1,2,7c0,.5.5,1,1.5,1l5,.5h.5l28,1.5h0c.5,0,1.5-.5,1.5-1.5l.5-6c0-.5,0-1-.5-1-.33-.33-.67-.5-1-.5l-17-1,18.5-21s.5-.5.5-1v-2.5l11,19.5-.5,14.5c0,.5.5,1.5,1,1.5l7.5,1h0c.33,0,.67-.17,1-.5s.5-.67.5-1l.5-14.5,14-19.5c.5-.5.5-1,0-1.5s-.5-1-1-1Zm-119,2l4.5.5c1.5,0,3,0,4,.5h1s1,0,1,.5c.5,1,.5,1.5.5,2.5,0,.5-.5,1.5-.5,1.5l-.5.5-.5.5h-6.5l-3.5-.5s.5-6,.5-6Zm43,15.5l-5.5-.5,3-7.5,2.5,8Z"/>
        <path class="cls-1" d="m211.09,9.09h-7c-.5,0-1,0-1,.5s-.5.5-.5,1l.5,12.5-11,.5-.5-12c0-1-.5-1.5-1.5-1.5h-7c-.33,0-.67.17-1,.5s-.5.67-.5,1l1,35c0,.5,0,1,.5,1s.5.5,1,.5h0l7-.5c1,0,1.5-.5,1.5-1.5l-.5-14,11-.5.5,14c0,1,.5,1.5,1.5,1.5h7c.33,0,.67-.17,1-.5.33-.33.5-.67.5-1l-1-35c0-1-1-1.5-1.5-1.5Z"/>
        <path class="cls-1" d="m234.59,7.59c-3,0-6,.5-8.5,1.5-1.5,1-3,2-5,4-.33.33-.67.67-1,1-1,1-2,2.5-2.5,4-1,2.5-1.5,6-1.5,9.5,0,5.5,2,10,6,14,3,3,8,5,13.5,5s10-2,13-5.5c3-3.5,4.5-8,4.5-14.5,0-6-2-11-5.5-14.5-2.5-2.5-7.5-4.5-13-4.5Zm8.5,19c0,4.5-.5,7-2,8.5-1.5,2-3.5,3-6,3-2,0-4.5-1-6-2.5s-2.5-4.5-2.5-8c0-4.5,1-7,2-8,1.5-2,4-2.5,6-2.5h1.5c2,0,3.5.5,4.5,1.5,1.5,1.5,2.5,4.5,2.5,8Z"/>
        <path class="cls-1" d="m285.09,7.09h-7c-.33,0-.67.17-1,.5s-.5.67-.5,1l.5,19.5v5.5c-.5,1-1,1.5-1.5,2.5-.5.5-2,1-3.5,1-2,0-3,0-3.5-1-1-1-1.5-1.5-2-3-.5-.5-.5-3-.5-5.5l-.5-19c0-1-.5-1.5-1.5-1.5h-7c-.5,0-1,0-1,.5-.33.33-.5.67-.5,1l1,19c0,3.5.5,6.5,1,9.5.5,1.5,1,3.5,2,4.5,1,1.5,2,2,3,2.5.5,0,1,.5,1,.5,1.5,1,4,1,7,1h1.5c.5,0,1.5-.5,2-.5,2-.5,3.5-.5,5-1.5s3-2,4.5-3.5c1-1.5,1.5-2.5,2-5,.5-2,.5-5,.5-9.5l-.5-18.5c1,.5,0,0-.5,0Z"/>
        <path class="cls-1" d="m315.59,22.09c-2-1.5-5-2.5-8-2.5-3-.5-5-1.5-6-2-.33-.33-.5-.67-.5-1l.5-1c1.5-1,2.5-1.5,4-1.5,2,0,3,0,3.5.5,1,1,2,2,2,3,0,.5,1,1,1.5,1l7-.5c.5,0,1.5-.5,1.5-1.5,0-3.5-1.5-6.5-4-8.5s-6-3-11-3c-3,0-5.5.5-7.5,1.5-2.5.5-4.5,2.5-5.5,4-1,2-1.5,3.5-1.5,6,0,3.5,2,6,4,8,1.5,1.5,4,2.5,8.5,4,1.5.5,3,1,4,1,.5,0,1,0,1.5.5.5,0,1,.5,1,.5,0,.33.17.5.5.5s.5.33.5,1c0,1-.5,1.5-1,2.5-.5.5-1.5,1-4,1-1.5,0-3-.5-4-1-1-1-1.5-2.5-2-4.5,0-.5-1-1-1.5-1l-7,1.5c-1,0-1.5,1-1,1.5.5,4.5,2.5,8,5,9.5,2.5,2,6.5,3.5,11.5,3.5,3,0,6-.5,8-1.5,2.5-1,4-2.5,5-4.5,1-1.5,1.5-4,1.5-6.5,0-3-.5-4.5-2-7-1.5-1.5-3-2.5-4.5-3.5Z"/>
        <path class="cls-1" d="m354.59,35.09c0-1-.5-1.5-1.5-1.5l-17.5,1.5-.5-6.5,16-1c.33,0,.67-.17,1-.5s.5-.67.5-1l-.5-6c0-.33-.17-.67-.5-1-.5,0-.5-.5-1-.5l-16,1.5-.5-5,17.5-1c.33,0,.67-.17,1-.5,0-.5.5-.5.5-1l-.5-6c0-1-.5-1.5-1.5-1.5l-26,1c-.33,0-.67.17-1,.5-.33.33-.5.67-.5,1l1.5,35c0,.33.17.67.5,1,.5,0,.5.5,1,.5h0l27-1.5c.33,0,.67-.17,1-.5,0-.5.5-.5.5-1,0,0-.5-6-.5-6Z"/>
      </g>
    </g>
  </g>
</svg>