<?xml version="1.0" encoding="UTF-8"?>
<svg id="Calque_2" data-name="Calque 2" xmlns="http://www.w3.org/2000/svg" viewBox="0 0 347.5 69.87">
  <defs>
    <style>
      .cls-1 {
        fill: #e763a0;
      }
    </style>
  </defs>
  <g id="Calque_1-2" data-name="Calque 1">
    <g id="Calque_1-2" data-name="Calque 1-2">
      <g>
        <path class="cls-1" d="m54.5,36.38l13-14.5c.5-.5.5-1,.5-1.5s-.5-1-1-1l-8-1.5c-.5,0-1,0-1.5.5l-7,8-4-10c0-.5-.5-1-1-1l-8-1c-.5,0-1,0-1.5.5-.5.5-.5,1,0,1.5l7.5,17.5-13.5,14.5,1-4.5c0-.5,0-1-.5-1s-.5-.5-1-.5l-18-3,1-6.5,16,3c1,0,1.5-.5,1.5-1l1-5.5v-1c0-.5-.5-.5-1-.5l-16-3,1-5,17,3c1,0,1.5-.5,1.5-1l1-6c0-.5,0-1-.5-1,0-.5-.5-.5-1-.5l-26-4c-1,0-1.5.5-1.5,1L0,46.38c0,.5,0,1,.5,1,0,.5.5.5,1,.5l26.5,4h0c.33,0,.67-.17,1-.5,0,.5.5.5,1,1l8.5,1.5c.5,0,1,0,1.5-.5l8-9,4.5,11.5c0,.5.5,1,1,1l8.5,1.5h0c.5,0,1,0,1-.5.5-.5.5-1,0-1.5,0,0-8.5-20-8.5-20Z"/>
        <path class="cls-1" d="m79.5,32.38s0-.5,0,0c1.5-2,4-2,5.5-2,1,.5,1.5,1,2.5,1.5.5.5,1,1,1.5,1,1,.5,1.5,1.5,1.5,3.5,0,.5,0,1,.5,1,.33.33.67.5,1,.5l7-.5c.5,0,1,0,1-.5s.5-.5.5-1c-.5-3.5-1-6-2.5-7.5-2.5-3.5-6-5.5-10.5-6-5.5-.5-9.5.5-13.5,3.5s-6,7.5-7,14c-.5,6.5.5,11,3,14.5,3,4,7,6.5,11.5,7h3c3,0,5.5-.5,7.5-2,3-2,5.5-5,7-8,.5-.5,0-1.5-.5-2l-6.5-3.5h-1c-.5,0-.5.5-1,1-1,2-2.5,3.5-3.5,5-1.5,1-2.5,1-4,1-2-.5-3-1.5-4.5-3.5-1.5-2-1.5-5-1-9,0-4.5.5-7,2.5-8Z"/>
        <path class="cls-1" d="m131,38.38c1,0,1.5-.5,1.5-1l1-6c0-.5,0-1-.5-1,0-.5-.5-.5-1-.5l-26-4c-1,0-1.5.5-1.5,1l-5.5,35c0,1,.5,1.5,1,1.5l26.5,4.5h0c.33,0,.67-.17,1-.5.5,0,.5-.5.5-1l1-6c0-.5,0-1-.5-1s-.5-.5-1-.5l-17-2.5,1-6.5,16,3h1c.5,0,.5-.5.5-1l1-6c0-1-.5-1.5-1-1.5l-16.5-3,1-5s17.5,2,17.5,2Z"/>
        <path class="cls-1" d="m148.5,38.88c1.5,0,3,.5,3.5,1,1,1,1.5,1.5,1.5,3,0,1,.5,1.5,1.5,1.5h7c1,0,1.5-.5,1.5-1.5,0-4-1-6.5-3.5-9-3.5-2.5-6.5-4-11-4-2,0-4.5.5-7.5,1-2,1-4,2-5,4-1.5,1.5-2.5,3.5-2.5,6,0,3,1,6,3.5,8,2,2,5,3.5,8.5,4.5,3,1,4.5,1.5,5.5,2,1,.5,2,1,2,1.5v1c0,1-.5,1.5-1.5,2.5-1,.5-2.5,1-4,1s-3-1-4-2c-1-.5-1.5-1.5-2-4,0-.5-.5-1-1.5-1l-7,.5c-.5,0-1.5.5-1.5,1.5,0,4.5,1.5,8,4.5,9.5,2.5,2.5,6.5,4,11,4,3,0,6-.5,8-1,2-.5,4.5-2,6-4,1.5-2,2-4.5,2-6.5s0-4.5-1-6c-.5-2.5-2.5-3.5-4-4.5s-4-2-8-3l-1-.5c-2.5-.5-4.5-1-5-2-.33-.33-.5-.67-.5-1v-.5h.5c1-2,2-2,4-2Z"/>
        <path class="cls-1" d="m189,45.88c-2-1-5-1.5-8.5-2-2-.5-3.5-.5-4.5-.5h-1.5l-.5-.5c0-.5.5-1,.5-1.5h.5c1-.5,2-1,3.5-1,1.5-.5,2.5,0,3.5.5s1.5,1.5,2,2.5c0,.5,1,1,1.5,1l7-1c1,0,1.5-1,1-1.5-.5-4-2.5-7-5-8.5-2-2-6-3-11-2.5-3,.5-5,1-7.5,2s-3.5,3-4.5,4.5c-1,2-1,3.5-1,6,.5,2.5,1.5,5.5,5,7.5,2,1,4.5,2,9,2.5,1,0,2,.5,3,.5,1.5,0,2,.5,3,.5.5.5,1.5,1,2,1,.33.33.5.67.5,1,0,.5-.5,1.5-1,2.5-.5.5-2,1.5-4.5,1.5-2,.5-3,0-4.5-1-1.5-1-2-2-2.5-4,0-.5-.5-.5-.5-1-.5,0-.5-.5-1,0l-7,1.5c-.5,0-.5.5-1,.5,0,.5-.5.5,0,1,1,4,3,7,5.5,9.5,2,1.5,5,2.5,8.5,2.5h3.5c3-.5,5.5-1,8-2s4-3,5-5c1-2.5,1-4.5,1-7-.5-2.5-1-4-2.5-6-1.5-1.5-3.5-3-5-3.5h0Z"/>
        <path class="cls-1" d="m239,22.88c-.5,0-.5-.5-1-.5l-7,1c-.5,0-.5.5-1,.5,0,.5-.5.5-.5,1l2,12-11.5,2-2-12c0-1-1-1.5-1.5-1l-6.5,1c-.5,0-.5.5-1,.5,0,.5-.5.5-.5,1l5,35c0,.33.17.67.5,1q.5.5,1,.5h0l7-1c1,0,1.5-1,1-1.5l-2-13.5,11-1.5,2,13.5c0,.33.17.67.5,1,.5,0,.5.5,1,.5l7-1c1,0,1.5-1,1-1.5l-5-35c1-1.5.5-1.5.5-2Z"/>
        <path class="cls-1" d="m250.5,20.38h-1l-7,2c-.5,0-1,1-1,1.5l8.5,34c0,.5.5.5.5,1h1l7-2c.5,0,1-1,1-1.5l-8-34c-.5-.5-.5-1-1-1Z"/>
        <path class="cls-1" d="m286,41.88l-15.5,3.5-6.5-26.5c0-.5-1-1-1.5-1l-7.5,1.5c-.5,0-.5.5-1,.5,0,.5-.5.5,0,1l8.5,34c0,.5.5,1,1.5,1h.5l24-5.5c.5,0,.5-.5,1-.5,0-.5.5-.5,0-1l-1.5-6c-.5-1-1-1.5-2-1Z"/>
        <path class="cls-1" d="m315,34.38l-15.5,3.5-6.5-26.5c0-.5-1-1-1.5-1l-7,1.5c-.5,0-.5.5-1,.5,0,.5-.5.5,0,1l8.5,34c0,.5.5,1,1.5,1h.5l24-5.5c.5,0,.5-.5,1-.5,0-.5.5-.5,0-1l-1.5-6c-1-1-1.5-1.5-2.5-1Z"/>
        <path class="cls-1" d="m346.5,22.38c0-.5-.5-1-.5-1.5-.5-1.5-1.5-3-2.5-4s-2.5-2-5-3c-2-.5-5-.5-8.5-.5-3,.5-5.5,0-6-.5l-.5-.5v-1.5c.5-.5,2-1.5,4-2s3-.5,3.5,0c.5,0,1,1,1.5,2,0,.5.5,1,.5,1,.5.5,1,.5,1.5.5l7-2c.5,0,.5-.5,1-.5s0-.5,0-1c-1-3-3-5.5-6-7.5-3.5-2-7-1.5-11.5-.5-2.5,1-5,2-6.5,3-2.5,1-3.5,3-4,5.5-.5,2-.5,4.5,0,6.5,1,3,3,5,5.5,6.5,1.5,1,5,1.5,9.5,1.5h6c.5,0,1,.5,1.5.5h1c.33.33.5.67.5,1,0,1,0,2-.5,2.5l-.5.5c-.5.5-2.5,1.5-3.5,2.5-1.5.5-3.5,0-4.5-.5-1-.5-2-2-3-4-.5-.5-1-1-2-.5l-6.5,2.5c-.5,0-.5.5-1,1v1c2,4.5,4,6.5,7.5,8,1.5,1,3.5,1.5,5.5,1.5,1.5,0,3.5,0,5.5-.5,3-.5,5-1.5,8-3.5,1.5-1.5,3.5-3.5,4-5.5,0-3,0-5.5-1-8h0Z"/>
      </g>
    </g>
  </g>
</svg>