<?xml version="1.0" encoding="UTF-8"?>
<svg id="Calque_2" data-name="Calque 2" xmlns="http://www.w3.org/2000/svg" viewBox="0 0 331.5 137.02">
  <defs>
    <style>
      .cls-1 {
        fill: #e763a0;
      }
    </style>
  </defs>
  <g id="Calque_1-2" data-name="Calque 1">
    <g id="Calque_1-2" data-name="Calque 1-2">
      <g>
        <path class="cls-1" d="m26,108.02l-12.5,4-1.5-5.5,15-4.5c.5,0,.5-.5,1-.5v-1l-2.5-5.5c-.5-.5-1-1-1.5-1l-23,7c-.5,0-.5.5-1,.5v1l10.5,33.5c0,.5.5,1,1.5,1h.5l6.5-2c.5,0,.5-.5,1-.5v-1l-4-13,13-4c.5,0,.5-.5,1-.5v-1l-2-5.5c-.5-1-1.5-1.5-2-1.5Z"/>
        <path class="cls-1" d="m37.5,90.52l-7,1.5c-.5,0-.5.5-1,.5,0,.5-.5.5,0,1l8.5,34c0,.5.5,1,1.5,1h.5l7-1.5c.5,0,.5-.5,1-.5,0-.5.5-.5,0-1l-8.5-34c-.5-.5-1.5-1-2-1Z"/>
        <path class="cls-1" d="m73.5,111.52l-15.5,3.5-6.5-26.5c0-.5-1-1-1.5-1l-7,1.5c-.5,0-.5.5-1,.5,0,.5-.5.5,0,1l8.5,34c0,.5.5,1,1.5,1h.5l24-5.5c.5,0,.5-.5,1-.5,0-.5.5-.5,0-1l-1.5-6c-1-.5-2-1-2.5-1Z"/>
        <path class="cls-1" d="m105,74.02l-10.5,2.5c-.5,0-1,.5-1,1.5l-.5,19.5-9.5-17.5c-.5-.5-1-1-1.5-.5l-10.5,2.5c-.5,0-.5.5-1,.5,0,.5-.5.5,0,1l8.5,34c0,.5.5,1,1.5,1h.5l6-1.5c1,0,1-1,1-1.5l-4-16,8,15.5c.5.5,1,1,1.5.5l7.5-2c.5,0,1-.5,1-1.5v-16.5l3.5,15.5c0,1,1,1,1.5,1l6.5-1.5c.5,0,.5-.5,1-.5,0-.5.5-.5,0-1l-8-34c0-.5-1-1-1.5-1Z"/>
        <path class="cls-1" d="m152.5,81.52c-1.5-2-3-2.5-5-3s-5-.5-8.5-.5c-2.5,0-5.5,0-6-.5h-.5l-.5-.5v-1.5c.5-.5,2-1.5,4-2,2-.5,3-.5,3.5,0,1,.5,1.5,1.5,2.5,2.5.5.5,1,1,1.5.5l6.5-2.5c.5-.5,1-1,1-2-1-3.5-3.5-6-6.5-7.5-3.5-1-7-1-11,0-3,.5-5.5,1.5-7,3-2,1-3,3-3.5,5.5s-.5,4.5,0,6c.5,3.5,3,5.5,5.5,7,2,1,5,1,9.5,1h8l.5.5.5.5v.5c.5,1,.5,1.5-.5,3-1,1-2,2-3.5,2.5s-3.5.5-4.5,0-2.5-1.5-3-3.5c-1-.5-1.5-.5-2.5-.5l-6.5,2.5c-.5,0-.5.5-1,1v1c1.5,4,4,6.5,7.5,9,2,.5,3.5,1,5.5,1s4-.5,6-1c3.5-1,6-2,7.5-3.5,2-1.5,3.5-3.5,4-6,.5-2,.5-4.5,0-6.5s-1-4.5-3.5-6Z"/>
        <path class="cls-1" d="m177.5,59.52c.5-.5,1-1,1-2l-2-5.5c0-.5-.5-.5-.5-1h-1l-26,10c-.5.5-1,1-1,2l2,5.5c.5.5,1,1,2,1l8.5-3,9.5,26c0,.5.5.5,1,1h1l7-3c.5-.5,1-1,1-2l-10-26s7.5-3,7.5-3Z"/>
        <path class="cls-1" d="m208.5,41.02c0-.5-.5-.5-.5-1h-1l-6.5,2.5c-.5,0-.5.5-1,.5v1l7,18c.5.5.5,1.5,1,2,.5,1,1,2.5,1,3v.5c0,.5,0,1-.5,2-1,1.5-1.5,2-3.5,2.5-2,1-3,.5-4,.5-1-.5-2-1-3-2l-.5-.5c-.5-1-1.5-2.5-2-4.5l-7-18c-.5-.5-1-1-2-1l-6.5,2.5c-.5.5-1,1-1,2l6,18c1.5,3.5,3,6.5,4.5,8.5,1,1,2,2,3.5,3,2,1,3.5,1.5,6,1.5,2,0,5-.5,8-1.5,2.5-1,4.5-2,6-3.5,1.5-1,3-3,3.5-4.5.5-1.5.5-4,.5-5.5s-.5-4-2.5-9c0,0-5.5-17-5.5-17Z"/>
        <path class="cls-1" d="m244.5,35.52c-1.5-1.5-3-3-5.5-4.5-2-1-4-1-6.5-1h-.5c-.5,0-1,.5-2,.5-1.5.5-3,1-4.5,1.5l-12,4.5c-.5.5-1,1-1,2l12,33c0,.5.5.5,1,1h1l12.5-5c2.5-1,4-2,6-3.5,1.5-1.5,3-3,4-5s1.5-5,1.5-7.5-.5-5.5-1.5-8-2.5-5.5-4.5-8Zm-12,25.5l-7.5-19.5,2.5-1c2.5-1.5,4-2,5-2s2,0,3,.5,1.5,1.5,2.5,2c.5,1,1.5,2.5,2.5,5,1,3,1.5,5,1.5,6,0,2,0,2.5-.5,3.5s-1,1.5-1.5,2c-.5,0-.5.5-1,.5-.5.5-1.5,1-3,1.5,0,0-3.5,1.5-3.5,1.5Z"/>
        <path class="cls-1" d="m255,21.02h-1l-7,2.5c-.5.5-1,1-1,2l12.5,33c0,.5.5.5.5,1h1l6.5-2.5c.5-.5,1-1,1-2l-12.5-33c.5-.5,0-.5,0-1Z"/>
        <path class="cls-1" d="m288,13.52c-4.5-2-9.5-2-14.5,0-3,1-5.5,2.5-7,4.5-1,1-2,2.5-3,4.5-1,1.5-1.5,4-1.5,6-.5,3,0,6,1.5,10,2,5.5,5,9.5,9.5,11.5,2,1,4.5,1.5,7,1.5s5-.5,7.5-1.5c5.5-2,9-5.5,11-10,1.5-4.5,1.5-9.5-.5-15-2.5-5-5.5-9-10-11.5Zm.5,24c-1,2-2.5,4-4.5,4.5-2.5,1-4.5,1-6-.5-2-1.5-4-3.5-5.5-7-1.5-3.5-1.5-6,0-8.5,1-2,2.5-4,4.5-4.5s4-.5,6.5.5c2,1,3.5,3.5,5,6.5.5,4,.5,7,0,9Z"/>
        <path class="cls-1" d="m330.5,20.52c-1-2-2-4-4-5-1.5-1-3.5-2-5.5-2-2-.5-4.5,0-7,.5h-1.5c-4,.5-5.5.5-6,0-.5,0-.5-.5-.5-.5,0-.67.17-1.33.5-2,.5-1.5,2-2,3-2,2-1,3-.5,3.5-.5,1,.5,1.5,1,2.5,2.5.5.5,1,1,2,.5l6.5-3c.5-.5,1-1,.5-1.5-1-3.5-3.5-6-7-7-3-1-7-.5-11.5,1-2.5,1-4.5,2-6.5,4-2,2-3,3.5-3.5,5.5-.5,1.5-.5,3.5.5,6,1,3,3.5,5,6,6,1.5,1,4.5,1.5,9.5.5,3-.5,5-.5,6-.5h2l.5.5.5.5c.5,1,0,1.5-.5,2.5h0c-1,1-2,1.5-4,2.5-1.5,1-3,1-4.5.5-1-.5-2.5-1.5-3-3.5-.5-.5-1-1-2-.5l-6,3c-.5,0-.5.5-.5,1v1c2,3.5,5,6.5,8.5,8,1,.5,2.5.5,4,.5,2.5,0,5-.5,8-1.5,3-1.5,5-2.5,7-4,1.5-1.5,3-4,3.5-6-.5-2.5-.5-4.5-1-7Z"/>
      </g>
    </g>
  </g>
</svg>