<?xml version="1.0" encoding="UTF-8"?>
<svg id="Calque_2" data-name="Calque 2" xmlns="http://www.w3.org/2000/svg" viewBox="0 0 141.71 195">
  <defs>
    <style>
      .cls-1 {
        fill: #e763a0;
      }
    </style>
  </defs>
  <g id="Calque_1-2" data-name="Calque 1">
    <g id="Calque_1-2" data-name="Calque 1-2">
      <g>
        <path class="cls-1" d="m25.71,31.5h.5l5-3c.5,0,.5-.5.5-1v-1l-7-11.5,5-3,8,13.5c.5.5,1,1,2,.5l5-2.5c.5,0,.5-.5.5-1v-1L33.21.5c0-.5-.5-.5-1-.5h-1L.71,18c-.5.5-1,1.5-.5,2l3.5,6c.5.5,1.5,1,2,.5l12-7,7,11.5c.5,0,.5.5,1,.5Z"/>
        <path class="cls-1" d="m47.21,61l16-9.5c.5-.5,1-1.5.5-2l-3.5-6c0-.5-.5-.5-1-.5h-1l-17,10c-2.5,1.5-4.5,2.5-5.5,3-.5.5-1.5.5-2.5,0s-2-1.5-3-3c-1-1-1-2-1-3.5,0-1,.5-2.5,1-3,0,0,1-1,2-1.5s1.5-1,2.5-1.5l16.5-10c.5-.5,1-1.5.5-2l-3.5-6c0-.5-.5-.5-1-.5h-1l-16,10.5c-3.5,2-6,3.5-8,5-1,1-2,2-3,4-.5,1.5-.5,3.5-.5,5.5v.5c.5,1,1,3.5,3,7.5,1.5,2,3,4,5,5.5,1.5,1,3.5,2,6,2,1.5,0,3.5,0,5.5-.5,2.5,0,5.5-2,9-4Z"/>
        <path class="cls-1" d="m81.71,82v-1l-3.5-5.5c-.5-.5-1.5-1-2-.5l-16,9.5,10.5-20v-1.5l-3.5-6c0-.5-.5-.5-1-.5h-1l-30.5,18c-.5,0-.5.5-.5,1v1l3.5,5.5c.5.5,1.5,1,2,.5l16-9-10.5,19.5v1.5l3.5,6c0,.5.5.5,1,.5h1l30.5-18c.5-.5.5-1,.5-1Z"/>
        <path class="cls-1" d="m77.71,118c.33.33.67.5,1,.5.33,0,.67-.17,1-.5l5-3.5c.5,0,.5-.5.5-1v-1l-8-10.5,4.5-3,8.5,13c0,.5.5.5,1,.5h1l5-3.5c.5-.5,1-1.5.5-2l-13.5-20c0-.5-.5-.5-1-.5h-1l-29,20c-.5.5-1,1-.5,2l3.5,6c0,.5.5.5,1,.5h1l11.5-7.5s8,10.5,8,10.5Z"/>
        <path class="cls-1" d="m140.71,162.5h0c-1.5-2-3-4-5.5-7l-10-11c-.33-.33-.67-.5-1-.5h-.5v-1l-4-6c0-.5-.5-.5-1-.5h-1l-23,17,17-26c.5-.5.5-1,0-1.5l-4.5-6.5c-.5-.5-1-.5-1.5-.5l-36.5,9c-.5,0-1,.5-1,1v1.5l4.5,6c.5.5,1,.5,1.5.5l7-2,7,10-4,6c-.5.5-.5,1,0,1.5l4.5,6.5v.5l4,6c0,.5.5.5,1,.5h.5c.33,0,.67-.17,1-.5l26-19-23.5,22c-.5.5-.5,1.5,0,2l4.5,5c.33.33.67.5,1,.5s.67-.17,1-.5l10-9c.5.5.5,1,1,1.5.5,1,1,1.5,1,1.5v1.5c0,.5-.5,1.5-.5,2,0,1-.5,2.5-1,4.5l-2,9c0,.5,0,1,.5,1.5l6,6.5c.33.33.67.5,1,.5h.5c.5,0,1-.5,1-1l2.5-8c1-3.5,1.5-5.5,1.5-7.5v-2c1.5,1,3.5,1.5,5,1.5,2.5,0,5-.5,7.5-3,2-2,3-3.5,3.5-5.5,0-3-.5-5.5-1-7Zm-9,3.5c0,.33-.33.83-1,1.5-1,1-1.5,1-2,1-.67,0-1.17-.17-1.5-.5l-4.5-4.5-2.5-3,4.5-4,2.5,3c1.5,1.5,2,2.5,2.5,3l1,1c1,1,1,1.5,1,2.5Zm-33.5-35.5l-4.5,6.5-3-4.5,7.5-2Z"/>
      </g>
    </g>
  </g>
</svg>