<?xml version="1.0" encoding="UTF-8"?>
<svg id="Calque_2" data-name="Calque 2" xmlns="http://www.w3.org/2000/svg" viewBox="0 0 342 46">
  <defs>
    <style>
      .cls-1 {
        fill: #e763a0;
      }
    </style>
  </defs>
  <g id="Calque_1-2" data-name="Calque 1">
    <g id="Calque_1-2" data-name="Calque 1-2">
      <g>
        <path class="cls-1" d="m35.5,22.5l-15.5.5c-1,0-1.5.5-1.5,1.5v6c0,1,.5,1.5,1.5,1.5h7v2h-.5c-1,.5-2,1-3,1.5-1.5.5-3,1-4,1-2.5,0-5-1-6.5-2.5s-2.5-4.5-2.5-8.5.5-6.5,2-8,4-2.5,6.5-2.5c1.5,0,3,.5,4,1.5,1,.5,2,2,2.5,3.5,0,.5,1,1,1.5,1l7.5-1.5c.5,0,.5-.5,1-.5,0-.5.5-.5,0-1-1-3.5-2.5-6-5.5-8-3-2.5-7.5-3-11.5-3s-7.5,1.5-9.5,2c-3.5,2-5.5,4.5-7,7.5S0,23,0,27c0,3,1,7,2.5,9.5,1,3.5,4.5,6,6.5,7.5,3,1.5,6,2,10.5,2,2,0,5.5-.5,9-2,3-1,5.5-2.5,7-4.5.33-.33.5-.67.5-1l1-14.5c0-1-.5-1.5-1.5-1.5Z"/>
        <path class="cls-1" d="m57,5c-3,0-6,.5-8.5,1.5-1.5,1-3,2-5,4-.5.5-.5,1-1,1-1,1-2,2.5-2.5,4-1,2.5-1.5,6-1.5,9.5h0c.5,6.5,2.5,11,6,14,3,3,8,5,13.5,5s10-2,13-5.5c3-3.5,4.5-8,4.5-14.5,0-6-2-11-5.5-14.5-2.5-2.5-7.5-4.5-13-4.5Zm9,19c0,4.5-.5,6.5-2,8.5-1.5,2-3.5,3-6,3-2,0-4.5-1-6-2.5s-2.5-4.5-2.5-8,.5-6.5,2-9c1.5-2,4-2.5,6-2.5,2.5,0,4,.5,6,2.5,1.5,1.5,2.5,4.5,2.5,8Z"/>
        <path class="cls-1" d="m105.5,4.5l-28,1c-1,0-1.5.5-1.5,1.5v6c0,.5,0,1,.5,1,.33.33.67.5,1,.5l9-.5,1,27.5c0,1,.5,1.5,1.5,1.5h7c.5,0,1,0,1-.5.33-.33.5-.67.5-1l-1-27.5,9-.5c1,0,1.5-.5,1.5-1.5v-6c0-.5,0-1-.5-1-.33-.33-.67-.5-1-.5Z"/>
        <path class="cls-1" d="m139,4h-7c-.5,0-1,0-1,.5-.33.33-.5.67-.5,1l.5,12.5-11,.5-.5-12.5c0-1-.5-1.5-1.5-1.5h-7c-.33,0-.67.17-1,.5-.33.33-.5.67-.5,1l1,35c0,1,.5,1.5,1.5,1.5h7c.5,0,1,0,1-.5.33-.33.5-.67.5-1l-.5-14,11-.5.5,14c0,1,.5,1.5,1.5,1.5h7c.33,0,.67-.17,1-.5.33-.33.5-.67.5-1l-1-35c0-1-1-1.5-1.5-1.5Z"/>
        <path class="cls-1" d="m213.5,2.5h-10.5c-.5,0-1,.5-1.5,1l-4.5,19-5.5-19c0-.5-.5-1-1.5-1h-10.5c-.33,0-.67.17-1,.5-.5,0-.5.5-.5,1l.5,28-12-28c0-.5-.5-1-1.5-1h-7.5c-.5,0-1,.5-1.5,1l-13,35v1.5c.33.33.67.5,1,.5h7.5c.5,0,1-.5,1.5-1l2.5-7,12-.5,3,7c0,.5.5,1,1.5,1h7.5l6.5.5h0c.33,0,.67-.17,1-.5.33-.33.5-.67.5-1l-.5-16,4.5,16.5c0,.5.5,1,1.5,1h7c.5,0,1-.5,1.5-1l4-17,.5,16c0,1,.5,1.5,1.5,1.5h6.5c.33,0,.67-.17,1-.5.33-.33.5-.67.5-1l-.5-35c0-1-1-1.5-1.5-1.5Zm-49,21.5h-5.5l2.5-7.5,3,7.5Z"/>
        <path class="cls-1" d="m263,25.5l-7-2h-1c-.5,0-.5.5-.5,1-.5,2-1,3.5-2,4,0,0-.5,0-.5.5-1,1-2,1.5-4,1.5-2.5.5-4,0-5-2-1.5-2-2-5-2-8.5,0-4.5,1-7,2-8,2-2,3.5-2.5,5.5-2.5,1.5,0,2.5.5,4,1,0,.5.5.5.5,1,.5,1,1.5,2,1.5,3,0,.5.5.5.5,1h1l7-2c.5,0,.5-.5,1-.5v-1c-1-2.5-2-5.5-3.5-6.5-2.5-2.5-6.5-4-11.5-4-5.5,0-10,2-13,5.5-3.5,3.5-5,8-5,14.5,0,6,1.5,11,5,14,3,3,7.5,5,12.5,5,4.5,0,7.5-1,10.5-3.5,3-2,4.5-5,5.5-9.5-.5-1-1-1.5-1.5-2Z"/>
        <path class="cls-1" d="m341.5.5c0-.5-.5-.5-1-.5h-8c-.5,0-1,.5-1,.5l-7,12-7-11.5c-.33-.33-.67-.5-1-.5h-8.5c-.33,0-.67.17-1,.5l-.5-.5h-28.5c-1,0-1.5.5-1.5,1.5h0c-.33-.33-.67-.5-1-.5h-7c-.33,0-.67.17-1,.5-.33.33-.5.67-.5,1l.5,35c0,1,.5,1.5,1.5,1.5h7c.33,0,.67-.17,1-.5s.5-.67.5-1l-.5-29c.33.33.67.5,1,.5h9l.5,28c0,1,.5,1.5,1.5,1.5h7c.33,0,.67-.17,1-.5s.5-.67.5-1l-.5-28.5h9c1,0,1.5-.5,1.5-1.5v-3.5l12,18,.5,14.5c0,1,.5,1.5,1.5,1.5h7c.5,0,1,0,1-.5.33-.33.5-.67.5-1l-.5-14.5,12.5-20c0-.5,0-1.5-.5-1.5Z"/>
      </g>
    </g>
  </g>
</svg>