<?xml version="1.0" encoding="UTF-8"?>
<svg id="Calque_2" data-name="Calque 2" xmlns="http://www.w3.org/2000/svg" viewBox="0 0 310.5 138">
  <defs>
    <style>
      .cls-1 {
        fill: #e763a0;
      }
    </style>
  </defs>
  <g id="Calque_1-2" data-name="Calque 1">
    <g id="Calque_1-2" data-name="Calque 1-2">
      <g>
        <path class="cls-1" d="m34,3.5l-7-1.5h-1c-.5,0-.5.5-.5,1l-1.5,12.5-11-1,1.5-12c0-1-.5-1.5-1-1.5L5.5,0c-.5,0-1,0-1,.5-.5,0-.5.5-.5,1L0,36.5c0,.5,0,1,.5,1s.5.5,1,.5l7,.5c.5,0,1.5-.5,1.5-1l2-13.5,11,1-2,14c0,1,.5,1.5,1,1.5l7,1h0c.33,0,.67-.17,1-.5.5,0,.5-.5.5-1l4-35c.5-1,0-1.5-.5-1.5Z"/>
        <path class="cls-1" d="m57,5.5c-3-.5-5.5,0-8,.5-2,.5-4,1-5.5,3l-4,4s0,.5-.5.5c-1.5,3.5-2,6.5-2.5,9.5h0c-.5,6,.5,11,3.5,15.5,3,4,7.5,6,13,6.5h2.5c4.5,0,8-1.5,11.5-4s6-7.5,6.5-13.5c.5-6.5-.5-11-3.5-15-3-4.5-7.5-6.5-13-7Zm6.5,20c-.5,4.5-2,6.5-3.5,8-2.5,1.5-4,2-6.5,2-3-.5-4.5-1.5-5.5-3.5-1-1.5-1.5-4-1.5-8,.5-3.5,1.5-6,3.5-8,2-1.5,4.5-2,7-2,2.5.5,4,1.5,5.5,3.5,1,1.5,1.5,4.5,1,8Z"/>
        <path class="cls-1" d="m100.5,42l-16-3,4.5-27c0-.5,0-1-.5-1s-.5-.5-1-.5l-7-1c-1,0-1.5.5-1.5,1l-5.5,34.5c0,1,.5,1.5,1,1.5l24.5,4h0c.5,0,1.5-.5,1.5-1l1-6c.5-1,0-1.5-1-1.5Z"/>
        <path class="cls-1" d="m129,50l-15.5-4,7-26.5c0-.5,0-1.5-1-1.5l-7-2h-1c-.5,0-.5.5-.5,1l-9.5,33c0,1,0,1.5,1,1.5l24,6.5h.5c.5,0,1-.5,1.5-1l1.5-5.5v-1s-1-.5-1-.5Z"/>
        <path class="cls-1" d="m170,29.5l-8-2c-.5,0-1,0-1.5.5l-10,10-4-13c0-.5-.5-1-1-1l-7.5-2c-.5,0-1,0-1.5.5,0-.5,0,0,0,.5l7,22.5-4,14.5v1s.5.5,1,.5l6.5,1.5h.5c.5,0,1-.5,1.5-1l4-14,17.5-16c.5-.5.5-1,.5-1.5-.5-.5-.5-1-1-1Z"/>
        <path class="cls-1" d="m216.5,47c0-.5-.5-.5-1-1l-6.5-2.5c-.5-.5-1.5,0-2,1l-5,11.5-10.5-4.5,5-11.5v-1s-.5-.5-1-1l-6.5-2.5c-.5-.5-1.5,0-2,1l-13.5,32.5v1l1,1,6.5,2.5c.5.5,1.5,0,2-1l5.5-12.5,10.5,4.5-5.5,12.5v1c0,.5.5.5,1,1l6.5,2.5h.5c.5,0,1-.5,1.5-1l13.5-32.5s0-1,0-1Z"/>
        <path class="cls-1" d="m248,67.5c-1.5-4.5-4.5-8-10-11-2.5-1-5-2-8-2-2,0-4,0-6,1s-3.5,2-5.5,3.5c-2.5,2.5-4.5,5-6,8h0c-2.5,5.5-3,10.5-1.5,14.5,1.5,4.5,4.5,8,10,11,3,1.5,6,2,8.5,2,2,0,3.5-.5,5.5-1,4.5-1.5,8-5.5,11-10.5,2.5-6.5,3.5-11.5,2-15.5Zm-11.5,11c-2,3.5-4,5.5-6,6.5-2.5,1-4.5,1-6-.5-1.5-1-4-3-4.5-5-1-2.5-.5-5,1.5-8.5h0c2-3.5,3.5-5.5,6-6.5,1-.5,2-.5,3-.5s2.5.5,3.5,1c1.5,1,4,2.5,4.5,5,.5,3,0,5.5-2,8.5Z"/>
        <path class="cls-1" d="m278,104.5c3-4.5,4.5-9.5,3.5-14.5-.5-5-3-8.5-8-12-2.5-1.5-5-2.5-7.5-3-1.5-.5-4-.5-6.5,0-2,.5-4,1-6,2-2.5,1.5-5,4-7,7-3.5,5.5-4.5,10-3.5,14.5.5,5,3,8.5,8,12,3.5,2.5,7,3.5,10.5,3.5,1,0,2.5,0,3.5-.5,5.5-1,10-4,13-9Zm-8-5.5c-2.5,3-4.5,5-6.5,5.5s-4.5,0-6.5-1.5c-1.5-1-3-3-3.5-5.5,0-2,.5-5,2.5-8h0c2-3,4-5,6.5-5.5h1.5c1.5,0,3,.5,5,1.5s3,3,3.5,5.5c.5,2-.5,4.5-2.5,8Z"/>
        <path class="cls-1" d="m309,111c-.5-2-3-4.5-4.5-6l-9-10h-1s-.5,0-1,.5l-25.5,25c-.5.5-.5,1.5,0,2l9,9.5c2,2,3.5,3,5.5,4.5,2,1,4.5,1.5,6,1.5,2.5,0,5-.5,7.5-1.5,2-1,4.5-2.5,6-4.5,2.5-2,4.5-4.5,6-7,2-2.5,2.5-5.5,2.5-7.5,0-2.5-.5-4.5-1.5-6.5Zm-9.5,4c0,1-.5,1.5-.5,2.5l-.5,1c-.5,1-2,2.5-3.5,4.5-2,2-3.5,3.5-4.5,3.5,0,0-.5,0-.5.5-.5.5-1.5.5-2.5.5-.5,0-1.5-.5-2-.5l-3-3-2.5-3,14.5-14v.5s0,.5.5.5c2,2,3.5,3.5,3.5,4,.5,1.5,1,2.5,1,3Z"/>
      </g>
    </g>
  </g>
</svg>