<?xml version="1.0" encoding="UTF-8"?>
<svg id="Calque_2" data-name="Calque 2" xmlns="http://www.w3.org/2000/svg" viewBox="0 0 305.2 401.5">
  <defs>
    <style>
      .cls-1 {
        fill: #e8629f;
      }

      .cls-2 {
        fill: #fe76b8;
      }
    </style>
  </defs>
  <g id="Calque_1-2" data-name="Calque 1">
    <g id="Calque_1-2" data-name="Calque 1-2">
      <g>
        <g>
          <path class="cls-2" d="m32.2,378.5c-1.5-1-3.5-2-6.5-3l-21-7c-.5,0-1.5,0-2,1l-2.5,6.5c-.5.5,0,1.5,1,2l21.5,7.5c3.5,1,4,2,4.5,2,0,0,.5,1,0,2.5-.5,1-1,1.5-2,2-.5,0-1.5,0-3.5-.5h-1c-.5,0-.5.5-.5,1l-1.5,6.5c0,.5,0,1.5,1,1.5,2,.5,4,1,5.5,1s3-.5,4.5-1c3-1.5,5-4,6-7.5,1-3,1-6,.5-8-.5-3-2-5-4-6.5Z"/>
          <path class="cls-2" d="m42.2,344c-1.5-1-4.5-2-8.5-3.5l-17.5-6h-1c-.5,0-1,.5-1,.5l-2,7c-.5.5,0,1.5,1,2l18.5,6.5c2.5,1,4.5,1.5,5.5,2s1.5,1,1.5,2c.5,1,0,2-.5,4-.5,1.5-1.5,2.5-2,3.5-1,.5-2,1-3,.5-.5,0-2-.5-5.5-1.5l-18.5-7c-.5,0-1.5,0-2,1l-2.5,6.5v1c0,.5.5.5,1,.5l18,6c4,1.5,7,2,9,2.5h1c1.5,0,2.5-.5,4-1s3.5-1.5,4.5-3.5c1.5-1.5,2.5-4,4-7.5,1-3,1.5-5,1-7.5,0-2-.5-4-1.5-5.5-.5-.5-2-1.5-3.5-2.5Z"/>
          <path class="cls-2" d="m36.7,299c-.5,0-.5-.5-1,0-.5,0-.5.5-1,.5l-3.5,5.5c-.5.5,0,1.5.5,2l15.5,10h-22.5c-.5,0-1,0-1,.5l-3.5,6c-.5.5,0,1.5.5,2l30,18.5h1.5c.5,0,.5-.5,1-.5l3.5-5.5c.5-.5,0-1.5-.5-2l-15-9.5h22c.5,0,1,0,1-.5l4-6c.5-.5,0-1.5-.5-2,0,0-31-19-31-19Z"/>
          <path class="cls-2" d="m74.7,276c-.5,0-.5-.5-1-.5s-.5,0-1,.5l-9.5,12c0,.5-.5.5-.5,1s0,.5.5,1l4.5,3.5c.5.5,1.5.5,2,0l4-5.5,2,1.5c0,1-.5,2-.5,3.5-.5,1.5-1,2.5-2,3.5-1.5,2-3.5,3-6,3.5-2.5,0-5-1-8-3.5-3-2-4.5-4.5-4.5-6.5-.5-2.5.5-4.5,2-6.5,1-1.5,2.5-2.5,3.5-2.5,1.5-.5,2.5-.5,4,0,.5.5,1.5,0,2-.5l3.5-6.5v-1c0-.5,0-1-.5-1-3.5-1.5-6.5-2-10-1-3,1-6.5,3-9,7-2,3-3.5,5.5-4,8.5-.5,3.5-.5,7,1,10s3.5,6,6.5,8.5c3,2,6,3.5,9,4.5,1,.5,2.5.5,3.5.5,2,0,4.5-.5,6.5-1.5,3-1.5,6-3.5,8.5-6.5,2-2.5,3.5-5,4-8.5,1-3,1.5-6,1-8,0-.33-.17-.67-.5-1l-11-8.5h0Z"/>
          <path class="cls-2" d="m129.7,244c0-.5-.5-.5-1-.5h-1l-15.5,9.5-3.5-6,14-8.5c.5,0,.5-.5.5-1v-1l-3-5c-.5-.5-1.5-1-2-.5l-14,8.5-2.5-4,15-9c.5,0,.5-.5.5-1v-1l-3-5c0-.5-.5-.5-1-.5h-1l-22.5,13.5c-.5.5-1,1.5-.5,2l14.5,24h0c-.33,0-.67.17-1,.5l-10,13-22-17c-.5-.5-1.5-.5-2,0l-4.5,5.5c0,.5-.5.5-.5,1s0,.5.5,1l27.5,21.5c.5,0,.5.5,1,.5s1,0,1-.5l14.5-19h.5l23-14c.5-.5,1-1.5.5-2,0,0-2.5-5-2.5-5Z"/>
          <path class="cls-2" d="m212.2,171.5c-2-2.5-4.5-4-7-4.5-2.5-.5-5-.5-7,1-1.5.5-3.5,2.5-7,5.5l-8.5,7.5v.5l-6.5,3.5c-.5,0-.5.5-.5,1l-.5,11-9.5-5.5h-1.5l-7.5,4c-.33.33-.5.83-.5,1.5,0,.5.5,1,1,1l17,9-1.5,20.5-2.5-4.5c0-.5-.5-.5-1-.5h-1l-16,8.5-3-6,14.5-7.5c.5-.5,1-1,.5-2l-2.5-5.5c0-.5-.5-.5-1-.5h-1l-15.5,8-2.5-4.5,15.5-8c.5-.5,1-1,.5-2l-3-5.5c0-.5-.5-.5-1-.5h-1l-23,12c-.5.5-1,1-.5,2l16.5,31c0,.5.5.5,1,.5h1l24-12.5c.5-.5.5-1,.5-1.5h1.5l7.5-4c.5,0,.5-.5.5-1l1-12.5,11,6h1.5l7.5-4c.33-.33.5-.83.5-1.5,0-1-.5-1-1-1l-18.5-9.5,1-16,20.5,24c0,.5.5.5,1,.5h0c.33,0,.67-.17,1-.5l5.5-4.5c.5,0,.5-.5.5-1s0-.5-.5-1l-7.5-9,2.5-2c2.5-2,4.5-4,5.5-5.5,1-1,1.5-2.5,2-4s.5-3.5,0-5c-.5-2-1.5-4-3-5.5h0Zm-7,8.5c0,.5,0,1.5-.5,2,0,.5-1,1.5-3.5,3.5l-2,1.5-4.5-5.5,1.5-1.5c2.5-2,3.5-2.5,4-3s1.5-.5,2.5-.5,1.5.5,2,1c0,1,.5,1.5.5,2.5Z"/>
          <path class="cls-2" d="m246.7,161c-.5-.5-1.5-.5-2,0l-12.5,13.5-5-4.5,11-12c.33-.33.5-.67.5-1,0-.33-.17-.67-.5-1l-4.5-4c-.5-.5-1.5-.5-2,0l-11,12-3.5-3.5,12-13c.5-.5.5-1.5,0-2l-4.5-4c-.33-.33-.67-.5-1-.5s-.67.17-1,.5l-17.5,19c-.5.5-.5,1.5,0,2l26,24c.33.33.67.5,1,.5.5,0,1,0,1-.5l18-19.5c.33-.33.5-.67.5-1s-.17-.67-.5-1c0,0-4.5-4-4.5-4Z"/>
          <path class="cls-2" d="m263.7,130c-1.5-2-3.5-3.5-6-5.5-3-2-5.5-3-8-4-2.5-.5-5-1-7-.5-2.5.5-4.5,1.5-6.5,3-1.5,1-3,3-4.5,5.5l-7.5,11c0,.5-.5.5,0,1s.5.5.5,1l29,19.5h1.5c.5,0,.5-.5,1-.5l7.5-11c1.5-2.5,2.5-4.5,3-6,.5-2.5,1-4.5.5-6.5-.5-2-2-4.5-3.5-7Zm-27.5,7.5l1-1.5c2-3,3-4,3.5-4.5,1-1,1.5-1,2.5-1.5h3.5c1.5.5,3,1.5,5,2.5,2,1.5,3.5,3,4.5,4,1,1.5,1.5,2,1.5,3s0,1.5-.5,2.5c0,.5-.5,1.5-2,3.5l-2,3s-17-11-17-11Z"/>
          <path class="cls-2" d="m285.7,100.5l-26-10,3.5-8.5v-1c0-.5-.5-.5-1-.5l-5.5-2c-.5-.5-1.5,0-2,1l-10,26v1l.5.5c-.5,0-1.5,0-1.5,1l-2.5,6.5v1c0,.5.5.5,1,.5l33,12.5h.5c.5,0,1-.5,1.5-1l2.5-6.5v-1c0-.5-.5-.5-1-.5l-26.5-10.5h.5c.5,0,.5-.5,1-1l3.5-8.5,26,10h.5c.5,0,1-.5,1.5-1l2.5-6.5v-1c-1,0-1.5-.5-2-.5Z"/>
          <path class="cls-2" d="m281.7,36c-6-.5-11,.5-15,3.5-4,3-6,7.5-6.5,13-.5,3,0,6,.5,8s1.5,3.5,3,5.5c.5,1,1.5,1.5,2,2l-4.5-1.5h-1c-.5,0-.5.5-1,1l-2.5,6.5c-.5.5,0,1.5,1,2l33,12.5h1c.5,0,.5-.5,1-1l2.5-6.5c.5-.5,0-1.5-1-2l-16-6h3c4.5,0,8.5-1,11.5-3.5,4-3,6-7.5,6.5-13s-.5-10-4-14c-3-3.5-7.5-6-13.5-6.5Zm-12.5,17c.5-2.5,1.5-4.5,3-5.5,1.5-1,3.5-1.5,6-1.5h2.5c3.5.5,6.5,1.5,8,3.5,1.5,1.5,2,4,2,6-.5,2.5-1.5,4.5-3.5,5.5-2,1.5-4.5,2-8.5,1.5-3.5-.5-6.5-1.5-8-3-1.5-2-2-4-1.5-6.5Z"/>
          <path class="cls-2" d="m304.7,5.5c0-.5-.5-.5-1-.5l-35-5c-.5,0-1,0-1,.5-.5,0-.5.5-.5,1l-1,6.5c0,1,.5,1.5,1,1.5l18.5,2.5-20.5,9c-.5,0-1,.5-1,1l-1,7c0,.33.17.67.5,1,0,.5.5.5,1,.5l35,5h0c.33,0,.67-.17,1-.5.5,0,.5-.5.5-1l1-6.5c0-1-.5-1.5-1-1.5l-18-2.5,20-9c.5,0,1-.5,1-1l1-7c0-.5-.5-1-.5-1Z"/>
        </g>
        <path class="cls-1" d="m1.8,376.1l2.25-6.65,21.3,7.25c2.85.95,4.55,2.1,5.85,3.05,1.75,1.1,2.65,3,3.6,4.95.3,2.2.6,4.45-.35,7.25-1.15,3.3-2.9,5.35-5.4,6.6-2.55,1.25-5.7,1.25-9,.1l1.15-6.45c1.9.65,3.45.65,4.6.5,1.75-.45,2.55-1.25,3-2.65s.35-2.55-.3-3.8c-.8-.8-2.5-1.9-4.9-2.7l-21.75-7.4" vector-effect="none"/>
        <path class="cls-1" d="m6.6,361.9l2.25-6.65,18,6.1c2.85.95,4.75,1.6,5.85,1.45,1.6,0,2.7-.15,3.95-.75,1.25-.65,2.25-1.9,2.85-3.8s.65-3.5.5-4.6c-.6-1.25-1.4-2.05-2.2-2.85s-2.7-1.45-5.5-2.4l-18.45-6.3,2.25-6.65,17.5,5.95c3.8,1.3,6.65,2.25,8.35,3.4,1.25.95,2.5,1.9,3.6,3.35s1.1,3,1.55,4.75c0,1.6-.35,4.1-1.3,6.95-1.15,3.3-2.4,5.5-3.35,6.8-1.45,1.1-2.85,2.2-4.15,2.8-1.25.65-2.85.6-4.45.6-2.05-.15-4.9-1.15-8.7-2.45l-18.45-6.3" vector-effect="none"/>
        <path class="cls-1" d="m51.05,342.8l-29.65-18.6,3.7-5.95,27.6.2-19.9-12.5,3.45-5.5,29.65,18.6-3.7,5.95-26.9-.35,19.5,12.2-3.7,5.95" vector-effect="none"/>
        <path class="cls-1" d="m69.35,292.5l-4.75-3.7,9.5-12.25,11.05,8.6c.25,2.1-.15,4.3-.8,7.6-1.05,3-2.2,5.25-4,7.65-2.15,2.75-5.1,4.9-7.8,6s-6.2,1.5-8.8.75c-3.3-.65-5.95-2.1-8.75-4.25s-4.9-5.1-6.35-8.1-1.5-6.2-.85-9.5c.75-2.6,1.5-5.2,3.65-7.95,2.75-3.55,5.7-5.7,8.5-6.05s6-.4,8.7,1.05l-3.1,6.45c-1.5-.5-3.3-.65-5-.1s-3,1.45-4.25,3.05c-1.85,2.35-2.6,4.95-2.2,7.75s2.1,5.45,5.25,7.9,6.55,3.8,9.35,3.45,5.15-1.7,6.95-4.1c.9-1.2,1.45-2.7,1.95-4.15.5-1.5.65-3.3.85-4.4l-3.55-2.75-5.5,7.1" vector-effect="none"/>
        <path class="cls-1" d="m93.05,283.1l-27.65-21.45,4.3-5.55,22.9,17.75,10.7-13.85,4.75,3.7-15,19.35" vector-effect="none"/>
        <path class="cls-1" d="m108.7,263.7l-18.2-29.9,22.2-13.55,3.1,5.1-16.2,9.9,4.15,6.85,14.95-9.1,3.1,5.1-14.95,9.1,4.95,8.1,16.65-10.15,3.1,5.1-22.65,13.8" vector-effect="none"/>
        <path class="cls-1" d="m147.1,241.55l-16.15-31.05,23.05-12,2.75,5.3-16.85,8.8,3.7,7.1,15.5-8.1,2.75,5.3-15.5,8.1,4.4,8.4,17.3-9,2.75,5.3-23.5,12.25" vector-effect="none"/>
        <path class="cls-1" d="m173.25,227.95l1.45-22-17.9-9.45,7.4-4.15,11.7,6.6.5-13.45,7-3.9-1.3,20.2,19.25,9.85-7.4,4.15-12.85-6.55-1.15,14.4-7,3.9" vector-effect="none"/>
        <path class="cls-1" d="m206.15,208.15l-22.8-26.55,8.75-7.5c3.4-2.95,5.3-4.55,6.8-5.15,1.85-.9,3.65-1.15,6.05-.6s4.1,1.75,6.05,4c1.3,1.5,2.2,3.35,2.8,4.85.2,1.8.1,3.2,0,4.6s-.9,2.75-1.7,3.4c-.8,1.35-2.7,3-5.35,5.25l-3.4,2.95,8.8,10.25-5.7,4.9m-13.9-26.95l6.5,7.6,3.05-2.6c2.3-1.95,3.4-2.95,3.85-3.95s.5-1.75.55-2.45c-.25-1.1-.2-1.8-.85-2.55-1-1.15-2-1.55-2.7-1.65-1.4-.1-2.1-.15-3.25.8l-3.8,3.25-2.65,2.3" vector-effect="none"/>
        <path class="cls-1" d="m231.85,185.5l-25.7-23.75,17.65-19.1,4.4,4.05-12.9,13.95,5.9,5.45,11.85-12.85,4.4,4.05-11.85,12.85,7,6.45,13.25-14.3,4.4,4.05-18,19.45" vector-effect="none"/>
        <path class="cls-1" d="m225.8,140.3l7.25-10.8c1.7-2.5,2.8-4.15,4.05-5.1,1.55-1.4,3.5-2.5,5.55-2.9,2.1-.4,4.3-.1,6.5.15,2.65.55,4.7,1.95,7.6,3.9,2.5,1.7,4.3,3.5,5.65,5,1.5,2.25,2.6,4.15,2.75,6.65.25,1.4,0,3.6-.3,5.8-.4,1.5-1.55,3.2-3.2,5.65l-7.55,11.2-28.6-19.3m8.75-3.15l19.5,13.15,3.05-4.55c1.1-1.65,1.95-2.9,2.1-4s.3-2.2.45-3.35c.15-1.1-.8-2.35-1.8-3.6-.95-1.25-2.6-2.35-5.1-4.05s-4.15-2.8-5.65-3.2-2.65-.55-4-.3-2.35.8-3.2,2.05c-.55.85-2.1,2.2-3.75,4.7l-1.95,2.9" vector-effect="none"/>
        <path class="cls-1" d="m275.6,126.95l-32.65-12.65,2.55-6.55,32.65,12.65-2.55,6.55" vector-effect="none"/>
        <path class="cls-1" d="m282.8,108.25l-27.5-10.65-3.8,9.8-5.6-2.15,10.1-26.1,5.6,2.15-3.8,9.8,27.5,10.65-2.55,6.55" vector-effect="none"/>
        <path class="cls-1" d="m291.1,86.85l-32.65-12.65,2.55-6.55,32.65,12.65-2.55,6.55" vector-effect="none"/>
        <path class="cls-1" d="m278.2,71.25c-3.5-.4-6.4-1.2-8.8-2.5-1.9-1.2-3.25-2.35-4.6-4.05-1.35-1.65-2.15-3.25-2.5-4.8-.75-2.1-1-4.65-.65-7.6.55-4.95,2.55-9.3,6.35-11.9s7.95-3.65,13.9-3c5.45.6,9.8,2.6,12.95,5.95s4.2,7.5,3.6,12.95c-.55,4.95-2.55,9.3-6.35,11.9-3.8,2.6-8.45,3.6-13.9,3m.3-7.5c4,.45,7.05-.25,9.25-2,2.2-1.75,3.4-3.65,3.75-6.65s-.45-5.1-2.2-7.3-4.7-3.05-8.65-3.45-7.05.25-9.2,1.5c-2.2,1.75-3.4,3.65-3.75,6.65s.4,5.6,2.2,7.3c1.7,2.7,4.65,3.55,8.6,3.95" vector-effect="none"/>
        <path class="cls-1" d="m299.5,34.05l-34.65-4.8.95-6.95,25.25-11.15-23.3-3.2.9-6.45,34.65,4.8-.95,6.95-24.7,10.7,22.8,3.15-.95,6.95" vector-effect="none"/>
      </g>
    </g>
  </g>
</svg>