<?xml version="1.0" encoding="UTF-8"?>
<svg id="Calque_2" data-name="Calque 2" xmlns="http://www.w3.org/2000/svg" viewBox="0 0 333.25 119">
  <defs>
    <style>
      .cls-1 {
        fill: #e8629f;
      }
    </style>
  </defs>
  <g id="Calque_1-2" data-name="Calque 1">
    <g id="Calque_1-2" data-name="Calque 1-2">
      <g>
        <path class="cls-1" d="m90.21,62.5c-1.5-1-3.5-2-5.5-2s-5,0-8.5,1c-4.5,1-6,.5-6.5.5s-1-.5-1-.5v-1c.5-1,1.5-2,3-2.5s3-1,3.5-.5c1,0,1.5,1,2.5,2,.5.5,1,1,2,.5l6.5-3c.5-.5,1-1,.5-2-1.5-3-4-5.5-7.5-6.5-3-1-7-.5-11.5,1.5-2.5,1-4.5,2.5-6.5,4.5-1.5,1.5-2.5,3.5-3,6-.5,2,0,4,1,6,1.5,3,3.5,5,7,6,2,.5,5.5.5,9.5,0,3-.5,5-1,5.5-1h2c.5,0,.5.5,1,1,.5,1,.5,1.5,0,2.5s-1.5,2-3.5,3c-1.5.5-3,1-4.5.5-1.5-.5-2.5-1.5-3.5-3-.5-.5-1-1-2-.5l-6,3.5c-.5,0-.5.5-.5,1v1c0,.5.5.5.5,1l-21-17.5c-.5-.5-1-.5-1.5,0l-5.5,2c-.5.5-1,1-.5,1.5l4,34-1.5-1.5c0-.5-.5-.5-1-.5h-1l-14.5,7.5-13-24.5c0-.5-.5-.5-1-.5h-1l-6.5,3.5c-.5.5-1,1-.5,2l16.5,31c0,.5.5.5,1,.5h1l22-11.5.5-.5h.5l6.5-3.5c.5-.5,1-1,.5-1.5v-8l10.5-5.5,5.5,5c.5.5,1,.5,1.5,0l7-3.5c.5,0,.5-.5.5-1s0-1-.5-1l-1-1c.5,0,.5.5,1,.5,1,.5,2.5.5,3.5.5,2.5,0,5-.5,8-2s5.5-3,7-4.5c1.5-2,2.5-4,3-6.5s0-4.5-1-6.5c-.5-3-2-5-3.5-6Zm-43,22l-1-8,6,5.5-5,2.5Z"/>
        <path class="cls-1" d="m105.71,43l8-3.5c.5-.5,1-1,.5-2l-2.5-5.5c0-.5-.5-.5-1-.5h-1l-25.5,11.5c-.5.5-1,1-.5,2l2.5,5.5c0,.5.5.5,1,.5h1l8-3.5,11.5,25.5c0,.5,1,1,1.5,1h.5l6.5-3c.5,0,.5-.5.5-1v-1s-11-26-11-26Z"/>
        <path class="cls-1" d="m156.21,31l-13,3.5-1.5-5.5,15-4c.5,0,.5-.5,1-.5v-1l-1.5-6c0-1-1-1-1.5-1l-23.5,6.5c-.5,0-.5.5-1,.5v1l9,34c0,.5.5,1,1.5,1h.5l7-2c.5,0,.5-.5,1-.5v-1l-3.5-13,13-3.5c.5,0,.5-.5,1-.5v-1l-1.5-6c-.5-.5-1.5-1-2-1Z"/>
        <path class="cls-1" d="m168.21,13.5l-7,1.5c-.5,0-.5.5-1,.5,0,.5-.5.5,0,1l7,34.5c0,.5.5,1,1.5,1h.5l7-1.5c.5,0,.5-.5,1-.5s.5-.5,0-1l-7-34.5c-.5-.5-1-1-2-1Z"/>
        <path class="cls-1" d="m206.71,36c-.5,0-.5-.5-1,0l-18,3.5-1.5-6.5,16-3.5c.5,0,.5-.5,1-.5s.5-.5,0-1l-1-6c0-1-1-1.5-1.5-1l-16,3.5-1-5,17-3.5c1,0,1.5-1,1-1.5l-1-6c0-.5-.5-.5-.5-1-.5,0-.5-.5-1,0l-25.5,5.5c-1,0-1.5,1-1,1.5l7,34.5c0,.5.5.5.5,1h1.5l26-5.5c1,0,1.5-1,1-1.5l-1-6c-.5-.5-1-1-1-1Z"/>
        <path class="cls-1" d="m231.21,20c-2-1-4.5-1.5-8-2-4.5-.5-5.5-1.5-6-1.5-.33-.33-.5-.67-.5-1,0-.5,0-1,.5-1,1-.5,2-1,4-1.5,1.5,0,3,0,3.5.5,1,.5,1.5,1.5,1.5,3,0,.5,1,1,1.5,1l7-1c1,0,1.5-1,1-1.5-.5-3.5-2-6.5-4.5-8.5s-6.5-2.5-11-2.5c-3,0-5.5,1-7.5,2-2,1-3.5,2.5-4.5,4.5-1,2-1.5,4-1.5,6,.5,3,1.5,6,4.5,8,2,1.5,5,2.5,9,3,3.5.5,5,1,5.5,1,1.5.5,2,.5,2,1,.33.33.5.67.5,1,0,1-.5,1.5-1,2.5-1,1-2,1.5-4,1.5s-3,0-4.5-1-2-2-2.5-4c0-.5-1-1-1.5-1l-7,1.5c-.5,0-.5.5-1,.5,0,.5-.5.5,0,1,1,4,2.5,7.5,5.5,9.5,2.5,1.5,5.5,2.5,9,2.5h2.5c3-.5,6-1,8-2s4-3,5-5,1.5-4.5,1.5-6.5c0-2.5-1-4.5-2-6-1.5-2-3-3-5-4h0Z"/>
        <path class="cls-1" d="m265.71,1.5l-28,2c-1,0-1.5.5-1.5,1.5l.5,6c0,.33.17.67.5,1,.5,0,.5.5,1,.5l9-.5,2,28c0,.33.17.67.5,1,.5,0,.5.5,1,.5h0l7-.5c.33,0,.67-.17,1-.5,0-.5.5-.5.5-1l-2-28.5,9-.5c.33,0,.67-.17,1-.5,0-.5.5-.5.5-1l-.5-6c0-1-.5-1.5-1.5-1.5Z"/>
        <path class="cls-1" d="m332.21,21c-1-1.5-2.5-3-4.5-4s-4.5-2-8-3c-4.5-1-5.5-2-6-2v-1c0-.5,0-1,.5-1,1-.5,2-1,4-1,1.5,0,3,.5,3.5,1,.5.5,1,1.5,1.5,3,0,.5.5,1.5,1.5,1h7c1,0,1.5-.5,1.5-1.5,0-3.5-1.5-6.5-4-9-2.5-2-6-3.5-11-3.5-3,0-5.5.5-7.5,1-2,1-4,2-5,4-1,2-2,4-2,6,0,3,1,6,3.5,8,1.5,1.5,4.5,3,8.5,4,3,1,5,1.5,5.5,1.5,1.5.5,1.5,1,2,1,.33.33.5.67.5,1,0,1-.5,1.5-1.5,2.5-1,.5-2.5,1-4.5,1s-3-.5-4-1.5-1.5-2.5-2-4.5c0-.5-.5-1.5-1.5-1l-6.5,1.5c-.33,0-.67.17-1,.5s-.5.67-.5,1v1l-11-25.5c0-.5-.5-1-1.5-1h-7.5c-.5,0-1,.5-1.5,1l-12,36v1.5c.33.33.67.5,1,.5h7.5c.5,0,1-.5,1.5-1l2.5-7h12l3,7c0,.5,1,1,1.5,1h7.5c.5,0,1-.5,1-.5.5-.5.5-1,0-1.5l-1-2c.5.5.5,1,1,1.5,2.5,2.5,6.5,3.5,11,3.5h.5c3,0,5.5-.5,7.5-1,2.5-1,4-2.5,5.5-4.5,1.5-2,2-4,2-6.5,1-3.5.5-5.5-.5-7.5Zm-48,1l2.5-7.5,3,7.5h-5.5Z"/>
      </g>
    </g>
  </g>
</svg>