<?xml version="1.0" encoding="UTF-8"?>
<svg id="Calque_2" data-name="Calque 2" xmlns="http://www.w3.org/2000/svg" viewBox="0 0 308.7 149">
  <defs>
    <style>
      .cls-1 {
        fill: #e763a0;
      }
    </style>
  </defs>
  <g id="Calque_1-2" data-name="Calque 1">
    <g id="Calque_1-2" data-name="Calque 1-2">
      <g>
        <path class="cls-1" d="m26.7,35.5l-15-5.5L21.2,4.5c.5-.5,0-1.5-1-2L13.7,0h-1c-.5,0-.5.5-.5,1L.2,34c-.5.5,0,1.5,1,2l23,8.5h1c.5,0,.5-.5.5-1l2-6c.5-1,0-1.5-1-2Z"/>
        <path class="cls-1" d="m77.7,24.5c0-.5-.5-.5-1-.5l-26.5-9.5c-.5,0-1.5,0-1.5.5,0-.5,0-1.5-1-1.5l-6.5-2.5h-1c-.5,0-.5.5-.5,1l-12,33v1c0,.5.5.5,1,.5l7,2.5h1c.5,0,.5-.5.5-1l9.5-27v.5c0,.5.5.5,1,.5l8.5,3-9.5,26c-.5.5,0,1.5,1,2l6.5,2.5h1c.5,0,.5-.5.5-1l9.5-26,8.5,3c.5,0,1.5,0,2-1l2-5.5s0-.5,0-.5Z"/>
        <path class="cls-1" d="m105.2,41.5l2-5.5v-1c0-.5-.5-.5-1-.5l-26.5-9.5c-.5-.5-1.5,0-2,1l-1.5,5v1c0,.5.5.5,1,.5l8.5,3.5-9.5,26c-.5.5,0,1.5,1,2l6.5,2.5h1c.5,0,.5-.5.5-1l9.5-26,8.5,3c1,0,2-.5,2-1Z"/>
        <path class="cls-1" d="m124.7,72l-15-5.5,9.5-25.5c.5-.5,0-1.5-.5-2l-6.5-3h-1c-.5,0-.5.5-1,1l-12,33c-.5.5,0,1.5,1,2l23,8.5h1c.5,0,.5-.5.5-1l2-5.5c.5-1,0-1.5-1-2Z"/>
        <path class="cls-1" d="m164.2,55.5l-24.5-9h-1c-.5,0-.5.5-.5,1l-12,33c-.5.5,0,1.5,1,2l25,9.5h1c.5,0,.5-.5.5-1l2-5.5c.5-.5,0-1.5-1-2l-17-6.5,2.5-6.5,15,5.5c.5.5,1.5,0,2-1l2-5.5v-1c0-.5-.5-.5-1-.5l-15-5.5,1.5-5,16.5,6c.5.5,1.5,0,2-1l2-5.5c.5-.5,0-1-1-1.5Z"/>
        <path class="cls-1" d="m266.7,110v-1c0-.5-.5-.5-1-.5l-12.5-4.5,2-5.5,14,5.5h1c.5,0,.5-.5.5-1l2-5.5c.5-.5,0-1.5-1-2l-22.5-8.5h-1c-.5,0-.5.5-.5,1l-10,27-1-32.5c0-.5-.5-1-1-1.5l-7-2.5c-.5,0-1,0-1.5.5l-25,28.5,12-32.5v-1c0-.5-.5-.5-1-.5l-10-3.5c-.5,0-1.5,0-1.5.5l-11,16,2-19.5c0-.5-.5-1.5-1-1.5l-10-3.5c-.5-.5-1.5,0-2,1l-11,33v1c0,.5.5.5,1,.5l6,1.5c.5,0,1.5,0,1.5-1l5.5-15-2,17c0,.5.5,1,1,1.5l6.5,2.5c.5,0,1.5,0,1.5-.5l9.5-14-5.5,15.5c-.5.5,0,1.5,1,2l6,2.5h1c.5,0,.5-.5.5-.5v.5c0,.5.5,1,1,1l7,2.5c.5,0,1,0,1.5-.5l5-5.5,11,4.5v7.5c0,.5.5,1,1,1.5l7.5,2.5.5.5,7,2.5h.5c.5,0,1-.5,1.5-1l4.5-12.5,12.5,4.5c1,.5,1.5,0,2-1,0,0,2-6,2-6Zm-44-10l5-6.5v8s-5-1.5-5-1.5Z"/>
        <path class="cls-1" d="m307.2,108.5c0-.5-.5-1-1-1.5l-7-2.5c-.5,0-1,0-1.5.5l-24,27,11-30.5c.5-.5,0-1.5-1-2l-6.5-2.5h-1c-.5,0-.5.5-.5,1l-11.5,33c-.5.5,0,1.5,1,2l6.5,2.5h1c0,.5.5.5,1,.5l7,2.5c.5,0,1,0,1.5-.5l5-5.5,11,4.5v7.5c0,.5.5,1,1,1.5l7.5,3h.5c.33,0,.67-.17,1-.5.33-.33.5-.67.5-1,0,0-1.5-39-1.5-39Zm-14.5,16.5l5-6v8l-5-2Z"/>
      </g>
    </g>
  </g>
</svg>