<?xml version="1.0" encoding="UTF-8"?>
<svg id="Calque_2" data-name="Calque 2" xmlns="http://www.w3.org/2000/svg" viewBox="0 0 158 300.5">
  <defs>
    <style>
      .cls-1 {
        fill: #e8629f;
      }
    </style>
  </defs>
  <g id="Calque_1-2" data-name="Calque 1">
    <g id="Calque_1-2" data-name="Calque 1-2">
      <g>
        <path class="cls-1" d="m39,273.5l-6-.5c-1,0-1.5.5-1.5,1l-2,16-27-3c-1,0-1.5.5-1.5,1l-1,7c0,.5,0,1,.5,1s.5.5,1,.5l34.5,4h0c.5,0,1.5-.5,1.5-1.5l3-24.5c0-.5,0-1-.5-1s-.5,0-1,0Z"/>
        <path class="cls-1" d="m26,234c-6-.5-11,.5-15,3.5s-6,7.5-6.5,13c-.5,3,0,6,.5,8.5.5,2,1.5,3.5,3,5.5,1.5,1.5,3,3,5,4,2.5,1.5,5.5,2.5,9.5,3h3c4.5,0,8.5-1,11.5-3.5,4-3,6-7.5,6.5-13s-.5-10-3.5-14c-3.5-4-8-6.5-14-7Zm-3,26.5c-3.5-.5-6.5-1.5-8-3s-2-4-2-6.5c.5-2.5,1.5-4.5,3-5.5s3.5-1.5,6-1.5h2.5c3.5.5,6.5,1.5,8,3.5,1.5,1.5,2,4,2,6-.5,2.5-1.5,4.5-3.5,5.5-2,1.5-4.5,2-8,1.5Z"/>
        <path class="cls-1" d="m85,159.5c0-.5-.5-.5-1-.5s-.5,0-1,.5l-12.5,10-17.5-21.5c-.5-.5-1.5-.5-2,0l-5.5,4.5c-.5,0-.5.5-.5,1s0,.5.5,1l16,20-28.5-7c-.5,0-1,0-1.5.5l-4.5,6c-.5.5-.5,1,0,1.5l20,30.5c-1.5-2-3.5-4-6.5-5.5-.5-.5-1.5,0-2,.5l-3,7c0,.5-.5.5,0,1,0,.5.5.5.5,1,2,1,3.5,2,4,3.5.5,1.5,1,2.5.5,4-.5,2-1.5,3.5-3.5,4.5-2,1-5,1-9,0-3.5-1-6-2-7.5-4-1-1.5-1.5-3.5-1-5.5.5-1.5,1-2.5,2-3.5s2.5-1,4-1h0c.33,0,.67-.17,1-.5.33-.33.5-.67.5-1v-7c0-.5,0-1-.5-1-.33-.33-.67-.5-1-.5-3,0-6,1-8,2.5-3.5,2-5.5,5.5-6.5,10-1,5-.5,10,2,14s7,6.5,13,8c2,.5,4,.5,6,.5,3.5,0,6.5-1,9-2.5,4-2.5,7-6,8-11,1-4,.5-7.5-.5-10.5-.5-.5-.5-1-1-2l.5.5c.33.33.67.5,1,.5h0c.5,0,1,0,1-.5l4.5-6c.5-.5.5-1,0-1.5l-4-6.5,7-10,7.5,2c.5,0,1,0,1.5-.5l2-3c.33,0,.5-.17.5-.5l19.5-15.5c.5,0,.5-.5.5-1s0-.5-.5-1c0,0-3.5-4.5-3.5-4.5Zm-40,26.5l-4.5-6.5,8,2s-3.5,4.5-3.5,4.5Z"/>
        <path class="cls-1" d="m86.5,121l4-8v-1c0-.5-.5-.5-.5-1l-5.5-2.5h-1c-.5,0-.5.5-1,.5l-12,25v1c0,.5.5.5.5,1l5.5,2.5c.5.5,1.5,0,2-.5l4-8,25,12h1c.5,0,.5-.5,1-.5l3-6.5c.5-.5,0-1.5-.5-2,0,0-25.5-12-25.5-12Z"/>
        <path class="cls-1" d="m117,81.5c-5.5-2.5-10.5-3-15-1.5s-8,5-10.5,10c-1.5,2.5-2,5.5-2,8,0,2,0,4,1,6,.5,2,2,4,3,5.5,2,2,4.5,4,8,5.5,3.5,1.5,6.5,2.5,9.5,2.5,2,0,3.5-.5,5-1,4.5-1.5,8-5,10.5-10s3-10,1-14.5c-1.5-4.5-5.5-8-10.5-10.5Zm-12,24c-3.5-1.5-5.5-3.5-6.5-5.5-1-2-1-4.5.5-6.5,1-2.5,2.5-3.5,5-4.5,2-.5,5,0,8.5,1.5s5.5,3.5,6.5,5.5c1,2,1,4.5,0,6.5s-2.5,3.5-5,4c-3,1-5.5.5-9-1Z"/>
        <path class="cls-1" d="m114.5,30.5c-.5,0-1-.5-1,0-.5,0-.5.5-1,1l-2,6.5c0,.5,0,1.5.5,1.5l16.5,9.5-19.5-1c-.5,0-1,.5-1.5,1l-2.5,8c0,.5,0,1.5.5,1.5l16,10-19-1.5c-.5,0-1.5.5-1.5,1l-2,7v1c0,.5.5.5,1,.5l36,2.5h0c.5,0,1-.5,1.5-1l2.5-7.5c0-.5,0-1.5-.5-1.5l-18-11,22,1c.5,0,1-.5,1.5-1l2-7c0-.5,0-1.5-.5-1.5,0,0-31-19-31-19Z"/>
        <path class="cls-1" d="m158,10.5c0-.5-.5-.5-1-.5L123,0h-1c-.5,0-.5.5-.5,1l-2,6.5c0,.5,0,1.5,1,2l17.5,5-22,6c-.5,0-1,.5-1,1l-2,6.5c0,.5,0,1.5,1,2l34,10h.5c.5,0,1-.5,1.5-1l2-6.5v-1c0-.5-.5-.5-1-.5l-17.5-5,21-6c.5,0,1-.5,1-1l2-7c.5-.5.5-1,.5-1.5Z"/>
      </g>
    </g>
  </g>
</svg>