<?xml version="1.0" encoding="UTF-8"?>
<svg id="Calque_2" data-name="Calque 2" xmlns="http://www.w3.org/2000/svg" viewBox="0 0 271.71 206.5">
  <defs>
    <style>
      .cls-1 {
        fill: #e763a0;
      }
    </style>
  </defs>
  <g id="Calque_1-2" data-name="Calque 1">
    <g id="Calque_1-2" data-name="Calque 1-2">
      <g>
        <path class="cls-1" d="m12,29.5L25.5,5.5c.5-.5,0-1.5-.5-2l-6-3.5h-1c-.5,0-.5.5-1,.5L0,31v1c0,.5.5.5.5,1l21.5,11.5h.5c.5,0,1,0,1-.5l3-5c0-.5.5-.5,0-1,0-.5-.5-.5-.5-1,0,0-14-7.5-14-7.5Z"/>
        <path class="cls-1" d="m68,32.5c-1-4.5-4.5-8-9-11-3-2-5.5-2.5-8-2.5-1.5,0-4,0-6,1-1.5.5-3.5,1.5-5.5,2.5-2,1.5-4,4-6.5,7.5h0c-3,6-3.5,10.5-2,14.5,1,4.5,4.5,8,9,11,3.5,2,6.5,3,9.5,3,1.5,0,3-.5,4.5-1,5-1.5,8.5-5,11.5-10,2.5-5,3.5-10.5,2.5-15Zm-11.5,10c-1.5,3-4,5-6.5,6s-4.5,1-6-.5c-2-1.5-3.5-3-4-5.5-1-2,0-4.5,1.5-8s3.5-5.5,6.5-6c2.5-.5,4.5-.5,6.5,1,2,1.5,3.5,3,4,5,.5,2.5,0,5-2,8Z"/>
        <path class="cls-1" d="m89.5,39.5c-.5-.5-1.5-.5-2-1-1.5-.5-3-1.5-4.5-1.5-2.5-.5-5-.5-6.5.5s-3,2-4.5,4c-2,2.5-2.5,5.5-1,8.5.5,2.5,2.5,5,5.5,8,2,2.5,3.5,4,4,4.5.67.67,1,1.17,1,1.5v1c-1,1-1.5,1.5-2.5,1.5h-.5c-.5,0-1.5,0-3-1l-1-.5c-1.5-.5-2.5-1.5-3-3s-.5-3,.5-4.5c.5-.5,0-1.5-.5-2l-6-3c-.5-.5-1.5,0-2,.5-2,4-2.5,8-1.5,11,1,3,3.5,5.5,7.5,9,2.5,1.5,5,2.5,7.5,3,1,0,2,.5,3,.5,1.5,0,3-.5,4-1,2.5-1.5,4-3,5-4.5,1.5-2,2.5-4,2.5-6.5,0-1.5-.5-4-1.5-5.5-1-2-2.5-4.5-5-7-2-2.5-3-4-3.5-5,0-.5,0-1,.5-1.5s.5-.5,1-.5c1,0,3,.5,4,1.5,1.5,1,2.5,2.5,2.5,3,.5,1,0,2-.5,3.5,0,.5,0,1.5.5,1.5l6,3h1c.5,0,.5-.5,1-.5,2-3.5,2-6.5,1-9.5-2-2.5-4.5-5-9-8Z"/>
        <path class="cls-1" d="m126.5,97l.5-1c1-1.5,1.5-3,1.5-5,0-1.5,0-4-1-6l-.5-.5c-1-1.5-2.5-4-5-6-2-2-3-4-3.5-5v-1c.33-.33.67-.5,1-.5.5,0,2,.5,3.5,2,1.5,1,2.5,2.5,2.5,3,.5,1.5.5,2.5-.5,3.5-.5.5-.5,1.5.5,2l6,4.5c.5.5,1,.5,1,0s1-.5,1-.5c1.5-3.5,2-6,1.5-9.5-.5-3-3-6-7-9-3-2-5-2.5-7-3-2.5-.5-4.5,0-6.5.5s-3.5,2-4.5,3.5c-1.5,2.5-2.5,5-1.5,8.5.5,2,2,5,5,8,1.5,1.5,2.5,3,4,4.5,0,0,0,.5.5.5.33.33.5.67.5,1,0,.5,0,1-.5,1-1,1-1.5,1.5-2.5,1.5s-2,0-4-1.5c-1.5-1-2.5-2.5-3-4-.5-1,0-2.5,1-4.5.5-.5,0-1.5-.5-2l-6-3.5h-1c-.5,0-.5.5-1,.5-2.5,4-2.5,8-1,10.5.5,3,3,6.5,7,9,2.5,2,5,3,7.5,4,1,.5,2,.5,3,.5,1.5,0,2.5-.5,4-1,2.5-1.5,4-3.5,5-5Z"/>
        <path class="cls-1" d="m194,115l-5-4c-.5,0-.5-.5-1-.5s-.5,0-1,.5l-11.5,14.5,2.5-22.5c0-.5,0-1-.5-1l-5.5-4.5c-.5,0-.5-.5-1-.5s-.5,0-1,.5l-17.5,22.5,7.5-30.5c0-.5,0-1-.5-1.5l-6-4.5c-.5-.5-1-.5-1.5,0l-31.5,21c-.33.33-.5.67-.5,1,0,.5,0,1,.5,1l6,4.5c.5.5,1,.5,1.5,0l6-4.5,9.5,7-2,7.5c0,.5,0,1,.5,1.5l6.5,4.5h0l5.5,4c.5.5,1.5.5,2-.5l11-14-2.5,23c0,.5,0,1,.5,1.5l5.5,4.5c.5,0,.5.5,1,.5h0c.33,0,.67-.17,1-.5l21.5-28c.5-1,.5-2,0-2.5Zm-46-17.5l-2,8-4.5-3,6.5-5Z"/>
        <path class="cls-1" d="m215,143c.5,0,.5.5,1,.5s.5,0,1-.5l3.5-4.5c.5-.5.5-1.5,0-2l-22-17.5c-.5,0-.5-.5-1-.5s-.5,0-1,.5l-3.5,4.5c0,.5-.5.5-.5,1s0,.5.5,1l7.5,5.5-17.5,22c-.5.5-.5,1.5,0,2l5.5,4.5c.5,0,.5.5,1,.5h0c.33,0,.67-.17,1-.5l17.5-22,7,5.5Z"/>
        <path class="cls-1" d="m240,176c3.5-5,5.5-9.5,5-14.5,0-4.5-2.5-9-7-12.5l-1.5-1c-2-1-4-2.5-6-3-1.5-.5-4-.5-6-.5-2.5,0-4.5.5-6,1.5-3,1-5.5,3.5-7.5,6.5-3.5,5-5.5,9.5-5,14.5.5,4.5,3,8.5,7.5,12.5,4,3,7.5,4.5,11.5,4.5h2c5-.5,9.5-3,13-8Zm-5-14c0,2.5-1,5-3,7.5s-5,4.5-7,5c-3,.5-4.5,0-6.5-1.5-2-2-3-3.5-3-6,0-3,1-5.5,3-8,2.5-2.5,5-4.5,6.5-4h.5c2.5-.5,4.5,0,6.5,1.5,2,1.5,3,4,3,5.5Z"/>
        <path class="cls-1" d="m271.5,179c-1-2.5-3-5.5-7-8.5-3-2-5-2.5-7-3-2.5-.5-4.5,0-6.5.5s-3.5,2-4.5,3.5c-1.5,2.5-2.5,5-1.5,8.5.5,2,2,5,5,8,1,1,2,2.5,2.5,3.5.33.33.5.67.5,1q0,.5.5.5c.33.33.5.67.5,1v1c-1,1-1.5,1-2.5,1s-2,0-4-1.5c-1.5-1.5-2-2.5-2.5-4-.5-1,0-2.5,1-4.5.5-.5,0-1.5-.5-2l-6-3.5h-1c-.5,0-.5.5-1,.5-2,4-2.5,7.5-1.5,11.5.5,3,3,6.5,7,9.5,2.5,2,5,3,7.5,4,1,.5,2,.5,3,.5,1.5,0,2.5-.5,4-1,2-.5,4-2.5,5.5-4l.5-1c1-1.5,1.5-3,1.5-5,0-1.5,0-4-1-5.5-.5-1.5-2-4-4.5-7-2-2.5-3-4.5-3.5-5.5v-1c.33-.33.67-.5,1-.5,1,0,2.5,1,3.5,2,1.5,1,2.5,2.5,2.5,3,.5,1.5.5,2.5-.5,3.5,0,.5-.5.5,0,1,0,.5.5.5.5,1l6,4c.5,0,1,.5,1,0,.5,0,.5-.5,1-.5.5-4.5,1-7.5.5-11h0Z"/>
      </g>
    </g>
  </g>
</svg>