<?xml version="1.0" encoding="UTF-8"?>
<svg id="Calque_2" data-name="Calque 2" xmlns="http://www.w3.org/2000/svg" viewBox="0 0 261.56 262.68">
  <defs>
    <style>
      .cls-1 {
        fill: #e763a0;
      }
    </style>
  </defs>
  <g id="Calque_1-2" data-name="Calque 1">
    <g id="Calque_1-2" data-name="Calque 1-2">
      <g>
        <path class="cls-1" d="m40.37,237.18c-.33-.33-.67-.5-1-.5s-.67.17-1,.5l-10.5,12.5-21-18c-.5,0-.5-.5-1-.5s-.5,0-1,.5l-4.5,5.5c-.5.5-.5,1.5,0,2l26,23c.5,0,.5.5,1,.5h0c.33,0,.67-.17,1-.5l16.5-19c.5-.5.5-1.5,0-2l-4.5-4Z"/>
        <path class="cls-1" d="m56.87,202.68c-4-4-8.5-6-14-6-5,0-9.5,2-13,6.5-2,2-4,4-4.5,7-.5,1.5-.5,4-.5,6,0,2.5.5,4,1.5,6,1,2,3,4.5,6,7.5h0c4,3.5,9,6,14,6.5,5,0,9.5-2,13-6.5,4-4.5,5.5-9,5-13.5-.5-5-3-9.5-7.5-13.5Zm-2,13.5c0,3-.5,5-2,6.5-2,2-3.5,2.5-6,2.5-2,0-5-1.5-7.5-3.5-3-2.5-4.5-4.5-4.5-7-.5-2,.5-4,2-6s3.5-3,6-3c2,0,4.5,1.5,7.5,3.5,3,3,4,6,4.5,7Z"/>
        <path class="cls-1" d="m79.82,183.18h-.5c-2-.5-3.5-1-5.5-.5-2,.5-4.5,1.5-8,3-2.5,1.5-5,2-6,2-.33,0-.67-.17-1-.5,0-.5-.5-1-.5-1.5.5-1,1-2,2.5-3,2-1.5,2.5-1.5,3.5-1.5.5,0,1.5.5,2.5,1,.5,0,.5.5,1,.5.5.5,1,.5,1.5,0l5.5-4.5c.5-.5.5-1.5,0-2-2.5-3-5.5-4.5-8.5-4.5-3.5,0-7,1.5-10.5,4.5-2,2-3.5,3.5-4.5,6s-1,4-1,6c0,2.5,1,4,2.5,6,2,2,4.5,4,8,4,2,0,5-1,9-2.5,2-1,3-1.5,4-2,.5,0,1-.5,1-.5,1.5-.5,2-.5,2.5-.5s.5,0,1,.5c1,1,1,1.5.5,2v.5c0,1.5-1.5,2.5-2.5,3.5-1.5,1.5-3.5,1.5-4,1.5-1,0-2-1-4-2-.5-.5-1.5-.5-2,0l-5,5c-.5.5-.5,1.5,0,2,2.5,3,6,5,7,5.5h.5c4,0,7.5-1.5,11-4.5,2-2,4-4,5-6,2-2.5,2-5,2-7,0-2.5-1-5-2.5-6.5-1-2-2.5-3.5-4.5-4Z"/>
        <path class="cls-1" d="m93.88,160.68l8-4.5c.5-.5,1-1.5.5-2l-3-5c0-.5-.5-.5-1-.5h-1l-23.5,15c-.5.5-1,1.5-.5,2l3,5c0,.5.5.5,1,.5h1l8-5,15,23.5c0,.5.5.5,1,.5h.5c.33,0,.67-.17,1-.5l5.5-4c.5-.5,1-1.5.5-2l-16-23Z"/>
        <path class="cls-1" d="m121.38,135.18c0-.5-.5-.5-1-.5h-1l-6,4c-.5.5-1,1.5-.5,2l19,29.5c0,.5.5.5,1,.5h1.5l6-4c.5-.5,1-1.5.5-2,0,0-19.5-29.5-19.5-29.5Z"/>
        <path class="cls-1" d="m155.87,133.68c-2-1-3.5-1-6-1h-1c-2,.5-4.5,1-7.5,2.5-2.5,1.5-5,2-6,2-.33,0-.67-.17-1-.5v-.5l-.5-.5v-.5c.5-1,1.5-2.5,3-3,2-1,2.5-1.5,4-1.5,1,0,1.5,0,3,1.5.5.5,1,.5,2,0l6-4c.5,0,.5-.5.5-1s0-1-.5-1c-2-3-5-4.5-8.5-5s-7.5.5-11,3.5c-2,1.5-4.5,3-5.5,5.5-1,2-1.5,4-1.5,6s.5,4,1.5,5.5c1.5,2.5,4,4,7.5,4.5,2.5.5,5.5,0,9.5-1.5,1.5-.5,2.5-1,3.5-1.5.5-.5,1.5-.5,1.5-.5h3c.5.5,1,.5,1,1h0c.5,1,.5,1.5.5,2.5-.5,1-1,2-3,3.5-1,1-3,1-4,1.5-1-.5-2.5-1-4-2.5-.5-.5-1.5-.5-2,0l-5.5,4.5c-.5,0-.5.5-.5,1s0,1,.5,1c2.5,3,6,5,10,5.5,2.5,0,6.5-.5,11-4l.5-.5c2.5-2,4.5-3.5,5.5-5.5,1-2,1.5-4.5,1.5-7-.5-2-1-4-2-6-2.5-2-4-3.5-5.5-4Z"/>
        <path class="cls-1" d="m188.87,85.68c-.5-.5-1-.5-1.5,0l-6,4.5c-.5.5-.5,1-.5,1.5l9.5,35.5-2-3c0-.5-.5-.5-1-.5s-1,0-1,.5l-13,9-16.5-22c-.5-.5-1.5-1-2-.5l-5.5,4c-.5,0-.5.5-.5,1s0,1,.5,1l20.5,28c.33.33.67.5,1,.5s.67-.17,1-.5l20-14c.5-.5.5-1,.5-2h.5c.33,0,.67-.17,1-.5l6-4.5c.5-.5.5-1,.5-1.5l-2-7,10-7.5,6,4c.5.5,1,.5,1.5,0l6-4.5c.33-.33.5-.67.5-1,0-.5-.5-1-.5-1l-33-19.5Zm5.5,21.5l-2.5-8,6.5,4.5-4,3.5Z"/>
        <path class="cls-1" d="m243.37,37.18c-2-1.5-4.5-2.5-7.5-3.5-6.5-2-11-2.5-16,0l-.5.5c-1.5,1-3,2-4,4-.5,1-1.5,3-2.5,6l-4,12.5v1h0c-.5,0-.5.5-1,.5l-3.5,5.5c0,.5-.5.5,0,1s.5.5.5,1l15.5,10-22.5-.5h0c-.5,0-1,0-1,.5l-4,6c0,.5-.5.5,0,1,0,.5.5.5.5,1l29.5,19h1.5c.5,0,.5-.5,1-.5l3.5-5.5c.5-.5,0-1.5-.5-2l-15.5-10,22,.5c.5,0,1,0,1-.5l4-6c0-.5.5-.5,0-1,0-.5-.5-.5-.5-1l-27.5-18,32,10h.5c.5,0,1-.5,1.5-1l4-12.5.5-1.5c.5-2,.5-3.5.5-4.5,0-2,0-4.5-1-6-2.5-2.5-5-5-6.5-6Zm-24,14.5l.5-1.5c.5-1,.5-2,1-2.5.5-1,.5-1.5.5-2l.5-.5c.5-.5,1-1.5,2-2s2.5-1,3.5-1,2.5.5,4,.5l1.5.5c2,.5,4,1,5.5,2,1,1,2,2,2,2.5.5.5.5,1.5.5,2.5,0,.5,0,1-.5,1.5,0,.5-.5,1.5-.5,2l-1,3.5s-19.5-5.5-19.5-5.5Z"/>
        <path class="cls-1" d="m261.37,12.18c-.5-2-1-4.5-3-6-2-2-3.5-3-5.5-3.5-3-.5-5-.5-6.5,0-1.5.5-3.5,1.5-5,3-1.5,1-3,3-5,7-1.5,3-3,4.5-3.5,5-.5.5-1,.5-2,.5-.33,0-.5-.17-.5-.5-.5-1-.5-2.5,0-4,.5-2,1.5-3,2-3,0,0,.5,0,.5-.5.5-.5,1.5-.5,3.5-.5.5,0,1-.5,1.5-1l1.5-7V.68c0-.5-.5-.5-1-.5-3.5-.5-6.5,0-9.5,2-2,1.5-5,4.5-6,10-1,1.5-1.5,4-1,6,0,2.5,1,4,2.5,6,1.5,1.5,3.5,3,5,3.5,2.5,1,5.5.5,9-1.5,1.5-1.5,3.5-3.5,5.5-7.5.5-1,1-2,1.5-2.5.5-1,1-2,1.5-2l.5-.5c0-.5.5-.5,1-1h1c1,.5,1.5,1,2,1.5.5,1,.5,3,0,4.5s-1,3-2.5,3.5c-1,.5-2,1-4.5,1-.5,0-1,.5-1.5,1l-1.5,7v1c.33.67.67,1,1,1h2.5c3,0,6-.5,9-3.5,3-2,5-5,6-9.5,1.5-2,2-5.5,1.5-8Z"/>
      </g>
    </g>
  </g>
</svg>