<?xml version="1.0" encoding="UTF-8"?>
<svg id="Calque_2" data-name="Calque 2" xmlns="http://www.w3.org/2000/svg" viewBox="0 0 295 114">
  <defs>
    <style>
      .cls-1 {
        fill: #e763a0;
      }
    </style>
  </defs>
  <g id="Calque_1-2" data-name="Calque 1">
    <g id="Calque_1-2" data-name="Calque 1-2">
      <g>
        <path class="cls-1" d="m68,21l-15.5-4,1.5-5,17,4c1,0,1.5-.5,1.5-1l1.5-5.5v-1c0-.5-.5-.5-1-.5L47.5,1.5h-1c-.5,0-.5.5-.5,1l-7.5,30-2-31c0-1-.5-1.5-1.5-1.5l-10.5.5c-.5,0-1,.5-1.5,1l-3.5,19.5L13.5,2.5c0-.5-.5-1-1.5-1L1.5,2c-.33,0-.67.17-1,.5C.17,2.83,0,3.17,0,3.5l2,35c0,.33.17.67.5,1,.5,0,.5.5,1,.5h0l6.5-.5c1,0,1.5-.5,1.5-1.5l-1-16.5,5,16.5c0,.5.5,1,1.5,1h6.5c.5,0,1.5-.5,1.5-1l3.5-17,1,16c0,.33.17.67.5,1s.67.5,1,.5l6.5-.5h.5c0,.5.5.5,1,.5l26,7h1c.5,0,.5-.5.5-1l1.5-6c0-1-.5-1.5-1-1.5l-17.5-4.5,2-6.5,15,4.5h1c.5,0,.5-.5.5-1l1.5-6c0-1.5-.5-2-1.5-2.5Z"/>
        <path class="cls-1" d="m100.5,53l5.5-13c.5-.5,0-1.5-.5-2l-14-6c-.5-.5-1.5,0-2,.5l-2.5,6v1c0,.5.5.5,1,1l6.5,2.5-1,2c-2.5.5-5,.5-7.5-.5-2-.5-3.5-2-4.5-4.5-1-2-.5-4.5,1-8.5,1.5-3.5,3-5.5,5.5-6.5,2-1,4-1,6.5,0,2,1,2.5,2,3.5,3s1,2.5,1,4c0,.5.5,1,1,1.5l7,1.5h1c.5,0,.5-.5.5-1,.5-4,0-7-1.5-10-1.5-2.5-4-4.5-8.5-7-3-1-6-1.5-9-1.5h0c-4,.5-7,2-9.5,4-3,2.5-5,5-6.5,8.5-2,3.5-2,7.5-2,10,0,3.5,1,6.5,3.5,9.5,2.5,3,5,4.5,8.5,6,2.5,1.5,5.5,2,9,2,3,0,6-.5,8-1-.5-1,0-1,0-1.5Z"/>
        <path class="cls-1" d="m133.5,31.5l-7-2.5c-.5,0-1,0-1.5.5l-25.5,28c0,.5-.5,1,0,1.5,0,.5.5,1,1,1l7,2.5c.5,0,1,0,1.5-.5l5-5.5,11,4.5v7.5c0,.5.5,1,1,1.5l7,3h1.5c.33-.33.5-.67.5-1v-38c-.5-1.5-.5-2-1.5-2.5Zm-14,18l5-6v8s-5-2-5-2Z"/>
        <path class="cls-1" d="m171.5,47c0-.5-.5-.5-1-.5l-26.5-9.5c-.5-.5-1.5,0-2,1l-2,5.5v1c0,.5.5.5,1,.5l8.5,3-9.5,26c-.5.5,0,1.5,1,2l6.5,2.5h1c.5,0,.5-.5.5-1l9.5-26,8.5,3c.5,0,1.5,0,2-1l2-5.5c.5-.5.5-1,.5-1Z"/>
        <path class="cls-1" d="m199,64l2-5.5v-1c0-.5-.5-.5-1-.5l-26.5-9.5c-.5-.5-1.5,0-2,1l-1.5,5v1c0,.5.5.5,1,.5l8.5,3.5-9.5,26c-.5.5,0,1.5,1,2l6.5,2.5h1c.5,0,.5-.5.5-1l9.5-26,8.5,3c1,0,2-.5,2-1Z"/>
        <path class="cls-1" d="m221,63l-7-2c-.5,0-1,0-1.5.5l-23.5,29.5c-.5.5-.5,1,0,1.5,0,.5.5,1,1,1l7.5,2.5c.5,0,1,0,1.5-.5l4.5-6,11.5,3.5.5,7.5c0,.5.5,1,1,1.5l7.5,2.5h.5c.33,0,.67-.17,1-.5.5-.5.5-1,.5-1l-3.5-38c-.5-1.5-1-1.5-1.5-2Zm-7,20l-5.5-2,5-6.5.5,8.5Z"/>
        <path class="cls-1" d="m258.5,94.5l-6.5-3h-1c-.5,0-.5.5-1,1-.5,1.5-1.5,2.5-2,3.5-.33.33-.5.67-.5,1-1.5,1-2.5,1-4,.5-2.5,0-3.5-1-5-3s-1.5-5-1-9c1-4,2-6.5,3.5-7.5l.5-.5c1.5-2,4-1.5,5-1.5,2,.5,3,1.5,4,2,1,1,1.5,2,1.5,3.5,0,.5,0,1,.5,1,.33.33.67.5,1,.5l7-.5c.5,0,1,0,1-.5s.5-.5.5-1c-.5-3.5-1-6-3-7.5-3-3.5-6.5-5.5-11-6-5.5-1-10,0-13.5,3.5-4,3-6,7.5-7,14-1,5.5,0,10.5,2.5,14.5,3,4,7,6.5,11.5,7h3c3,0,5.5-.5,7.5-2,3-2,5.5-5,7-8,.5-.5,0-1.5-.5-2Z"/>
        <path class="cls-1" d="m286.5,75c0-.5-.5-1-1-1l-7.5-1c-.5,0-1,0-1.5.5l-19,33v1.5c0,.5.5.5,1,1l7.5,1c.5,0,1,0,1.5-.5l3.5-6.5,12,1.5,2,7.5c0,.5.5,1,1,1l7.5,1h0c.5,0,1,0,1-.5.5-.5.5-1,.5-1.5,0,0-8.5-37-8.5-37Zm-5,19.5l-5.5-1,3.5-7s2,8,2,8Z"/>
      </g>
    </g>
  </g>
</svg>