<?xml version="1.0" encoding="UTF-8"?>
<svg id="Calque_2" data-name="Calque 2" xmlns="http://www.w3.org/2000/svg" viewBox="0 0 477.71 137.5">
  <defs>
    <style>
      .cls-1 {
        fill: #e8629f;
      }

      .cls-2 {
        fill: #fe76b8;
      }
    </style>
  </defs>
  <g id="Calque_1-2" data-name="Calque 1">
    <g id="Calque_1-2" data-name="Calque 1-2">
      <g>
        <g>
          <path class="cls-2" d="m32,88.5c0-.5-.5-.5-1-.5h-1l-9,5.5c-.5.5-1,1-.5,1.5l5,19-13.5-14c-.5-.5-1-.5-1.5,0l-10,5-.5.5v1l17.5,30.5c.33.33.67.5,1,.5h.5l5.5-3.5c.5,0,.5-.5.5-1v-1l-8-14,12,12.5c.5.5,1,.5,1.5,0l6-3.5c.5-.5,1-1,.5-1.5l-4.5-16.5,8,14c.5.5,1,1,2,.5l5.5-3.5c.5,0,.5-.5.5-1v-1s-16.5-29.5-16.5-29.5Z"/>
          <path class="cls-2" d="m62.5,74.5c-4.5-1.5-9.5-.5-14.5,2-2.5,1.5-5,3.5-6.5,5.5-1,1.5-2,3.5-2.5,5.5s-.5,4-.5,6.5c.5,3,1.5,6,3.5,9,3,5,7,8.5,11.5,10,1.5.5,3,.5,4.5.5,3,0,6.5-1,10-3,5-3,8-6.5,9-11,1-4.5,0-9.5-3-15-3-5-6.5-8.5-11.5-10Zm-5.5,9c1,0,1.5,0,2.5.5,2,.5,4,2.5,6,6,2,3,2.5,6,2,8.5s-1.5,4-4,5c-2,1-4,1.5-6.5.5-2.5-.5-4.5-2.5-6-6-2-3-2.5-6-2-8s2-4,4-5c1.5-1.5,2.5-1.5,4-1.5Z"/>
          <path class="cls-2" d="m104,68.5l-9-16c-.5-.5-1.5-1-2-.5l-6.5,3.5c-.5,0-.5.5-.5,1v1l9.5,17c1.5,2.5,2,4,2.5,5,.5,1,.5,1.5,0,2.5s-1.5,2-2.5,2.5c-1.5,1-2.5,1-4,1-1,0-2-.5-2.5-1.5-.5-.5-1-1.5-3-4.5l-9.5-16.5c-.5-.5-1.5-1-2-.5l-6,3.5c-.5,0-.5.5-.5,1v1l9.5,16.5c2,3.5,4,6,5.5,7.5,1,1,2.5,2,4,2.5s2.5.5,4,.5h1.5c2,0,4.5-1,8-3,2.5-1.5,4.5-3,6-4.5,1.5-1.5,2-3.5,2.5-5,.5-2,0-3.5-.5-5.5-1-2-2.5-4.5-4.5-8.5Z"/>
          <path class="cls-2" d="m129.5,36.5h-1l-6,2.5c-.5.5-1,1-1,2l7,17-18-13.5c-.5-.5-1-.5-1.5,0l-6.5,2.5c-.5,0-.5.5-1,1v1l13,32.5c0,.5,1,1,1.5,1h.5l6-2.5c.5,0,.5-.5,1-1s0-.5,0-1l-6.5-16.5,17.5,13c.5.5,1,.5,1.5,0l6.5-2.5c.5-.5,1-1,1-2l-13-32.5c0-.5-.5-1-1-1Z"/>
          <path class="cls-2" d="m165.5,27.5c-.5,0-.5-.5-1,0l-27.5,6c-1,0-1,1-1,1.5l1.5,6c0,.5.5.5.5,1s.5.5,1,0l9-2,6,27c0,.5.5.5.5,1h1.5l7-1.5c1,0,1-1,1-1.5l-6-27,9-2c1,0,1-1,1-1.5l-1.5-6c-.33-.33-.67-.67-1-1Z"/>
          <path class="cls-2" d="m216,16l-10.5,2.5c-.5,0-1,.5-1,1.5l-1,19.5-9-17.5c-.5-.5-1-1-1.5-.5l-10.5,2.5c-.5,0-.5.5-1,.5,0,.5-.5.5,0,1l7.5,34.5c0,.5.5.5.5,1h1.5l6.5-1.5c1,0,1-1,1-1.5l-3-16.5,7.5,15.5c.5.5,1,1,1.5.5l6.5-1.5c.5,0,1-.5,1-1.5l.5-17,3.5,16c0,1,1,1,1.5,1l6.5-1.5c.5,0,.5-.5,1-.5,0-.5.5-.5,0-1l-7.5-34.5c.5-.5-.5-1-1.5-1Z"/>
          <path class="cls-2" d="m251,10c0-.5-.5-.5-.5-1-.5,0-.5-.5-1,0l-7.5,1.5c-.5,0-.5.5-1,.5,0,.5-.5.5,0,1l4,19c.5,2.5,1,4.5,1,5.5s0,1.5-1,2.5c-.5,1-2,1.5-3.5,1.5-1.5.5-3,.5-4,0s-1.5-1-2-2c0-.5-.5-2-1.5-5.5l-3.5-18.5c0-.5-.5-.5-.5-1-.5,0-.5-.5-1,0l-7,1.5c-1,0-1,1-1,1.5l4,18.5c1,4,2,7,2.5,9,.5,1.5,2,3,3,4,1.5,1,3,2,5.5,2.5h2.5c1.5,0,3.5,0,6-1,3-.5,5-1.5,7-2.5,1.5-1,3-2.5,4-4s1.5-3.5,1.5-5.5-.5-5-1.5-9c0,0-4.5-18.5-4.5-18.5Z"/>
          <path class="cls-2" d="m291.5,24.5l-7-.5c-.5,0-1,0-1,.5-.33.33-.5.67-.5,1,0,2.5-.5,4-1.5,5.5-1,1-2,2-3.5,2.5-2,.5-4,0-5.5-1-1.5-1.5-3-4-4-8-1-3.5-.5-6.5.5-8.5,1-2,2.5-3,4.5-3.5,1.5-.5,3,0,4,.5s2,1.5,3,3c0,.5.5.5,1,.5h1l6.5-3c.5,0,.5-.5.5-1v-1c-1.5-3-3.5-5-5.5-6-3.5-2-7.5-2.5-12-1.5-5,1-9,4-11.5,8s-3,9.5-1.5,15.5c1.5,5.5,4,10,8,12.5,3,2,6,3,9,3,1.5,0,2.5,0,4-.5,4-1,7-2.5,9.5-5,2-2.5,3.5-6,3.5-10.5-.5-2-1-2.5-1.5-2.5Z"/>
          <path class="cls-2" d="m327.5,3l-7-1c-.33,0-.67.17-1,.5-.33.33-.5.67-.5,1l-1.5,12.5-11-1,1.5-12.5c0-1-.5-1.5-1.5-1.5l-7-1c-1,0-1.5.5-1.5,1.5l-4,35c0,1,.5,1.5,1.5,1.5l7,1c.33,0,.67-.17,1-.5.5,0,.5-.5.5-1l1.5-14,11,1-1.5,14c0,1,.5,1.5,1.5,1.5l7,1h0c.5,0,1.5-.5,1.5-1.5l4-35c0-.33-.17-.67-.5-1-.33-.33-.67-.5-1-.5Z"/>
          <path class="cls-2" d="m370,8c0-.5-.5-.5-1-.5l-10.5-1c-.5,0-1,.5-1.5,1l-7,18-3-19.5c0-.5-.5-1-1-1l-10.5-1c-.33,0-.67.17-1,.5-.5,0-.5.5-.5,1l-4,35c0,.33.17.67.5,1,.33.33.67.5,1,.5l6.5.5c1,0,1.5-.5,1.5-1.5l2-16,2.5,17c0,.5.5,1,1,1l7,.5c.5,0,1.5-.5,1.5-1l6-16-2,16c0,.33.17.67.5,1,.33.33.67.5,1,.5l6.5.5h0c.5,0,1.5-.5,1.5-1.5l4-35c-.5.5-1,.5-1,0h0Z"/>
          <path class="cls-2" d="m390,9c-3-.5-6,0-8,.5s-3.5,1.5-5.5,3c-1.5,1.5-3,3-4,5-1.5,2.5-2.5,5.5-3,9.5-.5,6,.5,11,3.5,14.5,3,4,7.5,6,13,6.5h2.5c4.5,0,8-1.5,11.5-4,3.5-3,6-7.5,6.5-13.5.5-6-.5-11-3.5-15-3-3.5-7.5-5.5-13-6.5Zm6.5,20.5c-.5,3.5-1.5,6.5-3,8-1.5,1.5-4,2-6,2-2.5-.5-4.5-1.5-5.5-3-1.5-2-2-4.5-1.5-8.5.5-3.5,1.5-6.5,3-8,1.5-1.5,3.5-2,6.5-2,2.5.5,4.5,1.5,5.5,3,1,2,1.5,5,1,8.5Z"/>
          <path class="cls-2" d="m477,23.5l-25.5-6.5h-1c-.5,0-.5.5-.5,1l-8.5,33-3.5-7c-1.5-3-2.5-5-3.5-6.5-.5-.5-1-1-1.5-1.5,2-.5,3.5-1.5,5-2.5,2-2,3-4,3.5-7,0-2.5,0-4.5-1-6.5-1-2-2.5-3.5-4.5-4.5s-4.5-1.5-8.5-2l-15-1.5c-1,0-1.5.5-1.5,1.5l-4,35c0,1,.5,1.5,1.5,1.5l7,1c.33,0,.67-.17,1-.5.33-.33.5-.67.5-1l1.5-13h0c2,0,2.5.5,3,.5s1,.5,1.5,1.5c.5.5,1,2,3,5.5l4.5,8c0,.5.5.5,1,1l8.5,1h0c.5,0,1,0,1-.5v.5c0,.5.5.5,1,.5l26,6.5h.5c.5,0,1-.5,1.5-1l1.5-6c0-1-.5-1.5-1-1.5l-17.5-4.5,1.5-6.5,16,4c.5,0,1.5-.5,1.5-1l1.5-6c0-1-.5-1.5-1-1.5l-16-4,1-5,17,4.5h1c.5,0,.5-.5.5-1l1.5-6c.5-1,0-2-.5-2h0Zm-56.5-1.5l4,.5c3.5.5,4.5.5,5,.5,1,0,1.5.5,1.5,1,.5.5.5,1,.5,2s-.5,1.5-.5,2c-.5.5-1,.5-1.5,1-.5,0-1.5,0-6-.5l-4-.5,1-6Z"/>
        </g>
        <path class="cls-1" d="m19.15,136.45L1.65,106.15l9.1-5.25,17.6,17.55-6.35-24.05,9.1-5.25,17.45,30.35-5.65,3.25-13.7-23.85,7.65,27.3-6.05,3.5-19.8-20.35,13.7,23.85-5.65,3.25" vector-effect="none"/>
        <path class="cls-1" d="m43.3,102.35c-1.75-3.05-2.8-5.9-3.2-8.55-.15-2.25,0-4.05.55-6.1s1.35-3.65,2.4-4.85c1.25-1.85,3.15-3.55,5.75-5.05,4.35-2.5,9-3.45,13.35-1.9,4.1,1.1,7.65,4.25,10.65,9.45,2.75,4.75,3.7,9.4,2.85,13.95-1.1,4.1-3.55,7.85-8.35,10.55-4.35,2.5-9,3.45-13.35,1.9-4.35-1.55-7.65-4.25-10.65-9.45m6.5-3.75c2,3.45,4.35,5.55,7.1,6.3s4.95.6,7.55-.9,3.85-3.35,4.55-6.1-.35-5.6-2.3-9.05-4.35-5.55-6.65-6.55c-2.75-.75-4.95-.6-7.55.9s-4.25,3.6-4.55,6.1c-.75,2.75-.1,5.85,1.9,9.3" vector-effect="none"/>
        <path class="cls-1" d="m69.25,67.2l6.05-3.5,9.5,16.45c1.5,2.6,2.5,4.35,3.45,4.95,1.2,1.05,2.1,1.65,3.5,2.05,1.35.35,2.9.05,4.65-.95s2.8-2.2,3.4-3.1c.35-1.35.3-2.5.25-3.6-.5-.85-1.05-2.85-2.55-5.45l-9.75-16.9,6.05-3.5,9.25,16.05c2,3.45,3.5,6.05,4.05,8.05.3,1.55.65,3.1.5,4.9s-1.15,3-1.95,4.6c-1.05,1.2-2.95,2.85-5.55,4.35-3.05,1.75-5.45,2.55-7,2.85-1.8-.1-3.6-.25-4.95-.6-1.35-.35-2.55-1.4-3.75-2.45-1.45-1.5-2.95-4.1-4.9-7.55l-9.75-16.9" vector-effect="none"/>
        <path class="cls-1" d="m116.55,81l-13.05-32.45,6.5-2.6,22.2,16.4-8.75-21.8,6.05-2.45,13.05,32.45-6.5,2.6-21.55-16.1,8.6,21.35-6.5,2.6" vector-effect="none"/>
        <path class="cls-1" d="m155.4,67.1l-6.4-28.8-10.25,2.3-1.3-5.85,27.35-6.05,1.3,5.85-10.25,2.3,6.4,28.8-6.85,1.5" vector-effect="none"/>
        <path class="cls-1" d="m191.05,59.15l-7.6-34.15,10.25-2.3,11.55,22,1.15-24.85,10.25-2.3,7.6,34.15-6.35,1.4-5.95-26.85-.85,28.35-6.85,1.5-12.8-25.3,5.95,26.85-6.35,1.4" vector-effect="none"/>
        <path class="cls-1" d="m222,16.45l6.85-1.5,4.1,18.55c.65,2.95,1.1,4.9,1.8,5.75.8,1.35,1.5,2.2,2.7,3,1.2.75,2.75.9,4.7.5s3.3-1.25,4.15-1.95c.75-1.2,1.05-2.3,1.3-3.35-.2-1-.15-3.05-.8-5.95l-4.25-19.05,6.85-1.5,4,18.05c.85,3.9,1.5,6.85,1.45,8.9-.15,1.55-.35,3.15-1,4.85s-2,2.5-3.25,3.8c-1.35.8-3.7,1.85-6.6,2.5-3.4.75-5.95.8-7.55.65-1.7-.65-3.35-1.3-4.55-2.05s-2-2.1-2.8-3.45c-.9-1.85-1.55-4.75-2.45-8.7l-4.25-19.05" vector-effect="none"/>
        <path class="cls-1" d="m283.9,25.25l7.25.45c-.1,4.1-1.5,7-3.55,9.5s-4.7,4.1-8.6,5c-4.4,1-8.6.4-12.3-2.4-3.6-2.3-6-6.35-7.2-11.7-1.3-5.85-.8-10.55,1.45-14.15s5.75-6.4,10.65-7.5c4.4-1,8.15-.25,11.1,1.65,1.8,1.15,3.7,2.75,4.85,5.6l-6.5,3c-.9-1.85-2.2-3.1-3.4-3.85s-3.25-.8-5.2-.4c-2.45.55-4.15,1.95-5.7,4.35-1.05,2.3-1.35,5.4-.5,9.35,1,4.4,2.6,7.1,4.5,8.75s4.05,2.15,6.5,1.65c1.95-.45,3.3-1.25,4.45-3.05,1.75-1.4,2.25-3.6,2.2-6.15" vector-effect="none"/>
        <path class="cls-1" d="m295.75,36.4l3.75-34.8,6.95.75-1.5,13.9,13.9,1.5,1.5-13.9,6.95.75-3.75,34.8-6.95-.75,1.65-15.4-13.9-1.5-1.65,15.4-6.95-.75" vector-effect="none"/>
        <path class="cls-1" d="m331.3,40.35l3.8-34.8,10.45,1.15,3.85,24.55,9.05-23.15,10.45,1.15-3.8,34.8-6.45-.7,2.95-27.35-9.95,26.6-6.95-.75-4-28.1-2.95,27.35-6.45-.7" vector-effect="none"/>
        <path class="cls-1" d="m370.95,27.05c.4-3.5,1.2-6.4,2.45-8.8,1.2-1.9,2.35-3.25,4-4.6s3.25-2.15,4.8-2.5c2.1-.8,4.65-1,7.6-.7,4.95.55,9.3,2.5,11.9,6.3s3.65,7.95,3,13.9c-.6,5.45-2.55,9.8-5.95,12.95-3.3,2.65-7.5,4.2-12.95,3.6-4.95-.55-9.3-2.5-11.9-6.3s-3.6-8.45-3-13.9m7.45.8c-.45,4,.25,7.05,2,9.25s3.65,3.4,6.65,3.75,5.1-.45,7.3-2.25,3.05-4.7,3.45-8.7-.25-7.05-1.5-9.2c-1.75-2.2-3.65-3.4-6.65-3.75s-5.55.4-7.3,2.25c-2.15,1.3-3.45,4.15-3.95,8.6" vector-effect="none"/>
        <path class="cls-1" d="m408.8,48.8l3.8-34.8,14.9,1.6c4,.45,6.4,1.2,7.85,1.85s2.75,2.3,3.6,3.9,1.1,3.65.9,5.65c-.25,2.5-1.55,4.85-3.2,6.2s-4.3,2.55-7.35,2.7c1.4,1.15,2.75,2.3,3.65,3.4s2.15,3.25,3.4,5.9l3.7,7.45-8.45-.9-4.15-8c-1.7-2.7-2.5-4.8-3.45-5.4s-1.4-1.15-1.85-1.7c-.95-.6-1.95-.7-3.45-.9l-1.5-.15-1.55,14.4-6.95-.75m9.25-20.1l5.45.6c3.5.4,5.45.6,6.5.2s1.6-.85,2.15-1.3c.55-.45.65-1.45.75-2.45s-.3-2.05-.65-3.1c-.45-.55-1.4-1.15-2.3-1.75l-4.95-.55-5.45-.6-.95,8.95" vector-effect="none"/>
        <path class="cls-1" d="m442.4,52.85l8.5-33.95,25.2,6.3-1.45,5.8-18.45-4.6-1.95,7.75,17,4.25-1.45,5.8-17-4.25-2.3,9.2,18.9,4.75-1.45,5.8-25.7-6.45" vector-effect="none"/>
      </g>
    </g>
  </g>
</svg>