<?xml version="1.0" encoding="UTF-8"?>
<svg id="Calque_2" data-name="Calque 2" xmlns="http://www.w3.org/2000/svg" viewBox="0 0 350.75 79.68">
  <defs>
    <style>
      .cls-1 {
        fill: #e763a0;
      }
    </style>
  </defs>
  <g id="Calque_1-2" data-name="Calque 1">
    <g id="Calque_1-2" data-name="Calque 1-2">
      <g>
        <path class="cls-1" d="m36,33.68h-10.5c-.5,0-1,.5-1.5,1l-5.5,19-4.5-19c0-.5-.5-1-1.5-1H2c-1,0-1.5.5-1.5,1.5l-.5,35c0,.33.17.67.5,1,.33.33.67.5,1,.5h6.5c1,0,1.5-.5,1.5-1.5l.5-16,4,16.5c0,.5.5,1,1.5,1h6.5c.5,0,1-.5,1.5-1l4.5-16.5-.5,16c0,.33.17.67.5,1s.67.5,1,.5h6.5c1,0,1.5-.5,1.5-1.5l.5-35c0-.33-.17-.67-.5-1,0-.5-.5-.5-1-.5Z"/>
        <path class="cls-1" d="m57.5,33.68c-3.5,0-6,.5-8,1-1.5.5-3.5,1.5-5,3.5-1.5,1.5-2.5,3-3.5,5.5-1.5,2.5-2,5.5-2,9.5,0,6,1.5,10.5,5,14.5,3.5,3.5,8.5,5.5,13.5,5.5,5.5,0,10.5-1.5,13.5-5,3.5-3.5,5.5-8.5,5.5-14.5s-1.5-10.5-5-14.5c-3.5-3.5-8.5-5.5-14-5.5Zm8.5,19c0,3.5-1,6.5-2.5,8-2,2-3.5,2.5-6,2.5s-4-.5-6-2.5c-1-1.5-2-4-2-8,0-3.5,1-6.5,2.5-8,1.5-2,4-2.5,6-2.5s4.5.5,6,2.5c1,2,2,5,2,8Z"/>
        <path class="cls-1" d="m111.5,37.18c0-.5-.5-.5-1-.5l-7.5-.5c-.5,0-1,.5-1.5,1l-9,21.5-6-22.5c0-.5-.5-1-1.5-1l-7.5-.5c-.5,0-1,0-1,.5-.5.5-.5,1-.5,1.5l10,36c0,.5.5,1,1.5,1h7.5c.5,0,1-.5,1.5-1l15-34s0-1.5,0-1.5Z"/>
        <path class="cls-1" d="m122.5,38.68c0-.5-.5-.5-1-.5l-7-.5c-.5,0-1.5.5-1.5,1.5l-3.5,35c0,.5,0,1,.5,1s.5.5,1,.5l7,.5h0c.5,0,1.5-.5,1.5-1.5l3.5-35c-.5-.5-.5-1-.5-1Z"/>
        <path class="cls-1" d="m152.5,41.18l-26-2.5c-1,0-1.5.5-1.5,1.5l-3.5,35c0,.5,0,1,.5,1,0,.5.5.5,1,.5l26.5,2.5h0c.33,0,.67-.17,1-.5.5,0,.5-.5.5-1l.5-6c0-1-.5-1.5-1.5-1.5l-18-2,.5-6.5,16.5,2c.5,0,1,0,1-.5.5,0,.5-.5.5-1l.5-6c0-1-.5-1.5-1.5-1.5l-16-1.5.5-5,17.5,2c.5,0,1,0,1-.5.5,0,.5-.5.5-1l.5-6c0-1-.5-1.5-1-1.5Z"/>
        <path class="cls-1" d="m213,41.68c-.33-.33-.67-.5-1-.5h-7c-.5,0-1.5.5-1.5,1l-3.5,18.5-5.5-18.5c0-.5-1-1-1.5-1l-8.5.5c-.5,0-1,.5-1.5,1l-4,18.5-4.5-18c0-.5-.5-1-1.5-1h-7.5c-.5,0-1,0-1,.5-.5.5-.5,1,0,1l9.5,35c0,.5.5,1,1.5,1h7.5c.5,0,1-.5,1.5-1l5-21.5,6.5,21c0,.5.5,1,1.5,1h7.5c.5,0,1-.5,1.5-1l7.5-35.5c-1-.5-1-1-1-1Z"/>
        <path class="cls-1" d="m243,42.18c-3.5-3-8.5-4.5-14-4-2.5.5-5,1.5-7.5,2.5-1.5.5-3.5,2-4.5,4-1,1.5-2,3-2.5,5.5-1,2.5-1,5.5-.5,9.5.5,5.5,2.5,10,6.5,14.5,3,2.5,7,4,11.5,4h2.5c5.5-1,10-3.5,12.5-7,2.5-4.5,3.5-9,3-15-1-6-3-10.5-7-14Zm-4.5,22.5c-1,2-2.5,3-5.5,3.5-2.5.5-4.5,0-6.5-2-2-1-3-3.5-3.5-7.5s0-7,2-8.5c1-2,2.5-3,5.5-3.5,1.5-.5,4,0,6.5,1.5,1.5,1,2.5,3.5,3,7.5s0,6.5-1.5,9Z"/>
        <path class="cls-1" d="m276,31.18c-4-2-9-2.5-14.5-.5-2.5,1-5,2.5-7,4s-3,3-4,5c-1,1.5-1.5,4-1.5,6.5s.5,6,1.5,9.5h0c2,6,5.5,9.5,9.5,11.5,2.5,1,5,1.5,7.5,1.5,2,0,4.5-.5,7-1,5-1.5,8.5-4.5,11-9,2-4.5,2-9.5,0-15-2-6.5-5-10.5-9.5-12.5Zm0,23.5c-1,2-2.5,3-4.5,4-2.5,1-4.5,1-6.5-.5-2-.5-3-2.5-4.5-6.5-1.5-3.5-1.5-6-.5-8.5,1-2,2-3.5,4.5-4,1-.5,2-.5,3-.5s2.5.5,3.5,1c2,.5,3,2.5,4.5,6.5,1,3.5,1.5,6.5.5,8.5Z"/>
        <path class="cls-1" d="m319.5,34.18c-.5-2-1-4.5-2.5-6.5-2-4-4.5-6.5-5.5-7.5s-3.5-3-6-4c-2-.5-4.5-1-6.5-.5-2,1-4.5,1.5-7,3l-12,5.5c-.5,0-.5.5-1,1v1l16.5,31.5c.5.5.5,1,1.5,1h.5l12-6c2.5-1,5-2.5,6-4,1.5-1.5,3-3.5,3.5-5.5.5-2.5,1-5.5.5-8,0,0,0-1,0-1Zm-18.5,12.5l-9-18,1.5-.5c3.5-2,4.5-2.5,5-2.5h.5c.5-.5,1.5-.5,2,0h.5c1,0,1.5.5,2.5,1.5.5.5.5,1,1,1.5,1,1,1.5,2.5,2.5,4,.5,1.5,1,3,1.5,4.5,0,.5.5,1,.5,1.5.5,2,.5,2.5,0,3-.5,1-1,1-1.5,2-.5.5-1.5,1-3,1.5,0,0-4,1.5-4,1.5Z"/>
        <path class="cls-1" d="m350,20.18c-1.5-2.5-3-4-4.5-5-2-1-3.5-1.5-6-1.5-2,0-4.5,0-8.5,1-4.5,1.5-5.5,1-6,1-.5-.5-1-.5-1.5-1v-1c1-1.5,1.5-2,3.5-3,1.5-1,3-1,3-1h.5c.5,0,1.5.5,2.5,2,.5.5,1,1,2,.5l6-3.5c.5-.5,1-1,.5-2-2-3.5-4.5-5.5-7.5-6.5-3-.5-7,0-11,2-3,1-4.5,2.5-6,4.5-1.5,1.5-3,3.5-3,6,0,1.5,0,4,1,5.5,1,3,3.5,4.5,7,6,2.5.5,5.5.5,9-.5,1,0,2-.5,3-.5,1.5,0,2-.5,2.5-.5h.5c1-.5,1.5-.5,1.5-.5l.5.5s0,.5.5.5l.5.5c.5,1,.5,1.5,0,3-.5,1-1,1.5-3.5,2.5-2,1-3.5,1.5-4.5,1-1.5-.5-2.5-1.5-4-3-.5-.5-1-.5-2-.5l-6,3.5c-.5.5-1,1-.5,2,2,4,5,6,8.5,8h3c3,0,6-1,9-2.5,3-1.5,5-3,7-5s3-4,3-6.5c1-2,1-3.5,0-6Z"/>
      </g>
    </g>
  </g>
</svg>