<?xml version="1.0" encoding="UTF-8"?>
<svg id="Calque_2" data-name="Calque 2" xmlns="http://www.w3.org/2000/svg" viewBox="0 0 383 178.21">
  <defs>
    <style>
      .cls-1 {
        fill: #e763a0;
      }
    </style>
  </defs>
  <g id="Calque_1-2" data-name="Calque 1">
    <g id="Calque_1-2" data-name="Calque 1-2">
      <g>
        <path class="cls-1" d="m33,131.21l-10,3.5c-.5,0-1,1-1,1.5l1.5,19.5-11-16c-.5-.5-1-1-1.5-.5l-10,3.5c-.5,0-.5.5-1,.5v1l12,33c0,.5,1,1,1.5,1h.5l6.5-2c.5,0,.5-.5,1-.5s0-1,0-1l-5.5-15,9.5,14c.5.5,1,1,1.5.5l6.5-2.5c.5,0,1-1,1-1.5l-1.5-17,5,15c.5.5,1,1,2,1l6-2c.5,0,.5-.5,1-.5s0-.5,0-1l-12-33.5c-.5-1-1.5-1.5-2-1Z"/>
        <path class="cls-1" d="m75,145.21c-.5-1.5-1-4-2-6.5l-6-17.5c0-.5-.5-.5-.5-1h-1l-6.5,2.5c-.5.5-1,1-1,2l6.5,18.5c.5,1.5.5,2.5,1,3.5,0,.5.5,1.5.5,1.5v.5c0,.5,0,1-.5,2-1,1-1.5,1.5-3.5,2-2,1-3,.5-3.5.5-1-.5-1.5-1-2.5-2-.5-1-1-2.5-2-5.5l-6.5-18c0-.5-.5-.5-.5-1h-1l-6.5,2.5c-1.5.5-1.5,1.5-1.5,2l6,18c1,3.5,2.5,7,3.5,8,.5,1,2,2.5,3.5,3.5,2,1,3.5,1.5,6,1.5,2,0,5-.5,8-1.5,2.5-1,4-2,5.5-3l.5-.5c1.5-1,3-3,3.5-4.5.5-1.5.5-3.5.5-5.5,0,0,0-2,0-2Z"/>
        <path class="cls-1" d="m105,126.71c-1.5-1-3.5-1.5-5.5-2s-5-.5-8.5,0c-4,.5-5.5.5-6.5,0l-.5-.5c0-.5,0-1,.5-1.5.5-1.5,2-2,3-2h.5c1-.5,2.5-.5,3-.5,1,.5,1.5,1,2.5,2.5.5.5,1,1,1.5.5l6.5-2.5c.5,0,.5-.5,1-1s0-1,0-1c-1.5-3-3.5-5.5-7-6.5s-7.5-1-11.5.5c-2.5,1-4.5,2-6.5,4s-3,3.5-3.5,5.5c-.5,2.5-.5,4.5,0,6.5,1,3,3.5,5,6.5,6.5,1,.5,4,1,9,.5,3-.5,5-.5,6-.5h2l.5.5c.33,0,.5.17.5.5v.5c.5,1,.5,1.5,0,2.5-1,1-2.5,2-4,2.5s-3.5.5-4.5,0-2.5-1.5-3-3.5c-.5-.5-1-1-2-.5l-6.5,3c-.5,0-.5.5-.5,1v1c2,4.5,4.5,6.5,8.5,8,1.5.5,3,1,4.5,1,2,0,4.5-.5,7-1.5l2-1c2.5-1,4-2,5.5-3.5s3-4,3.5-6c.5-2.5,0-4.5-.5-6.5,0-3.5-1.5-5-3.5-6.5Z"/>
        <path class="cls-1" d="m110.5,104.21h-1l-6.5,2.5c-.5.5-1,1-1,2l12,33c0,.5.5.5.5,1h1l6.5-2.5c.5-.5,1-1,1-2l-12-33c0-.5,0-1-.5-1Z"/>
        <path class="cls-1" d="m151,116.21h-7c-1,0-1.5.5-1.5,1.5,0,2.5,0,4-1.5,6.5-1,1.5-1.5,2.5-3.5,3-2.5,1-4.5.5-6-.5-1.5-1-3.5-3.5-5-7-1-4-1.5-6.5-.5-8.5s2-3.5,4-4c1-.5,3-.5,4,0,1.5.5,2.5,1.5,3.5,2.5,0,.5.5.5,1,.5h1l6-4c.5-.5,1-1.5.5-2-1.5-2.5-3.5-4-6-5.5-3.5-1.5-8-1.5-12,0-4.5,1.5-8,4.5-10.5,9.5-1.5,4.5-1.5,10,.5,15.5,1.5,5.5,4.5,9.5,9,12,2.5,1,4.5,1.5,7,1.5,2,0,4-.5,6.5-1,4-2,7-4,8.5-6.5,2-3,2.5-7,2-11,1.5-2,.5-2.5,0-2.5Z"/>
        <path class="cls-1" d="m187,92.21l-12.5,4.5-2-5.5,14.5-5c.5,0,.5-.5,1-.5s0-.5,0-1l-2-5.5c-.5-.5-1-1-2-1l-23,8c-.5,0-.5.5-1,.5v1l12,33c0,.5,1,1,1.5,1h.5l7-2.5c.5-.5,1-1,1-2l-4.5-12.5,12.5-4.5c.5,0,.5-.5,1-.5v-1l-2-5.5c-.5-1-1.5-1.5-2-1Z"/>
        <path class="cls-1" d="m224.5,94.21h-1l-17,6.5-2.5-6.5,15-5.5c.5-.5,1-1,1-2l-2-5.5c0-.5-.5-.5-.5-1s-.5,0-1,0l-15,5.5-1.5-5,16.5-6c.5,0,.5-.5,1-.5s0-.5,0-1l-2-5.5c0-.5-.5-.5-.5-1h-1l-24.5,9c-.5,0-.5.5-1,.5s0,.5,0,1l12.5,33c0,.5.5.5.5,1h1l24.5-9.5c.5-.5,1-1,1-2l-2-5.5c-1,.5-1,0-1.5,0Z"/>
        <path class="cls-1" d="m250,72.71c-2-1-3.5-1.5-6-1.5-2,0-4.5,0-8.5,1-4.5,1.5-5.5,1-6,1-.5-.5-1-.5-1.5-1v-1c1-1.5,1.5-2,3.5-3,1.5-1,3-1,3-1h.5c.5,0,1.5.5,2.5,2,.5.5,1,1,2,.5l6-3.5c.5-.5,1-1,.5-2-2-3.5-4.5-5.5-7.5-6.5-3-.5-7,0-11,2-3,1-4.5,2.5-6,4.5-1.5,1.5-3,3.5-3,6,0,1.5,0,4,1,5.5,1,3,3.5,4.5,7,6,2.5.5,5.5.5,9-.5,1,0,2-.5,3-.5s2-.5,2.5-.5h.5c1-.5,1.5-.5,1.5-.5l.5.5s0,.5.5.5l.5.5c.5,1,.5,1.5,0,3-.5,1-1,1.5-3.5,2.5-2,1-3.5,1.5-4.5,1-1.5-.5-2.5-1.5-4-3-.5-.5-1-.5-2-.5l-6,3.5c-.5,0-.5.5-.5,1v1c1.5,2.5,4,4.5,6.5,6,.5.5,1.5,1,2,1.5l.5.5h2.5c3,0,6-1,9-2.5s5-3,7-5,3-4,3-6.5,0-4.5-1-6.5c-.5-2-2.5-3.5-3.5-4.5h0Z"/>
        <path class="cls-1" d="m264.5,51.21l8-4c.5-.5,1-1,.5-2l-2.5-5.5c0-.5-.5-.5-1-.5h-1l-25,12.5c-.5.5-.5,1-.5,2l2.5,5.5c0,.5.5.5,1,.5h1l8-4,12.5,25c0,.5.5.5,1,.5h1l6-3.5c.5-.5,1-1,.5-2,0,0-12-24.5-12-24.5Z"/>
        <path class="cls-1" d="m311.5,18.71h-1.5l-6.5,3.5c-.5.5-1,1-.5,1.5l3.5,23-16.5-16.5c-.5-.5-1-.5-1.5-.5l-7,3.5s-.5,0-.5.5h-1l-6,3.5c-1,.5-1,1-1,2l15.5,31.5c0,.5.5.5,1,.5h1l6-3.5c.5-.5,1-1,.5-2l-13.5-28,24.5,23.5c.33.33.67.5,1,.5h.5l6.5-3.5c.5-.5,1-1,.5-1.5l-4.5-37c.5-.5,0-1-.5-1Z"/>
        <path class="cls-1" d="m383,24.21l-2.5-5.5c0-.5-.5-.5-1-.5h-1l-15,7.5-12.5-25c-.5-.5-1-1-2-.5l-6,3c-.5,0-.5.5-.5,1v1l12.5,25.5-24-21c-.5-.5-1-.5-1.5,0l-6.5,3c-.5.5-1,1-.5,1.5l3.5,37.5c0,.5.5,1,.5,1h1l6.5-3.5c.5-.5,1-1,.5-1.5l-1-7.5,10.5-5.5,6,5.5c.5.5,1,.5,1.5,0l7-3.5h.5l22.5-10.5c1.5-.5,1.5-1,1.5-2Zm-50.5-1l6,5.5-5,2.5-1-8Z"/>
      </g>
    </g>
  </g>
</svg>