<?xml version="1.0" encoding="UTF-8"?>
<svg id="Calque_2" data-name="Calque 2" xmlns="http://www.w3.org/2000/svg" viewBox="0 0 357 242.5">
  <defs>
    <style>
      .cls-1 {
        fill: #e763a0;
      }
    </style>
  </defs>
  <g id="Calque_1-2" data-name="Calque 1">
    <g id="Calque_1-2" data-name="Calque 1-2">
      <g>
        <path class="cls-1" d="m27,196c0-.5-.5-.5-1-.5h-1l-5.5,3.5c-.5.5-1,1.5-.5,2l9.5,16-20.5-10.5h-1.5l-6,3.5c-.5,0-.5.5-.5,1v1l18.5,30c.33.33.67.5,1,.5h.5l6.5-3.5c.5,0,.5-.5.5-1v-1l-9.5-15.5,19.5,10h1.5l6-3.5c.5,0,.5-.5.5-1v-1s-18-30-18-30Z"/>
        <path class="cls-1" d="m59,180.5c-4-1-9,0-14,2.5-3,2-5,3.5-6.5,5.5-1,1.5-1.5,3.5-2,5.5-1,2.5-1,4.5-1,6.5.5,3.5,2,6.5,3.5,9,3.5,5,7,8,12,9.5,1,.5,2.5.5,3.5.5,3.5,0,7-1,10.5-3,4.5-2.5,7.5-6.5,8.5-11.5s0-9.5-3-15c-3-5-7-8.5-11.5-9.5Zm5.5,23.5c-.5,2-1.5,4-4,5-2.5,1.5-4.5,1.5-6,1-2.5-1-4.5-3-6.5-6h0c-2-3-3-5.5-2.5-8s1.5-4,4-5.5c1.5-1,3-1.5,4-1.5.5,0,1.5,0,2,.5,2.5,1,4.5,3,6.5,6,2,3.5,3,6.5,2.5,8.5Z"/>
        <path class="cls-1" d="m111,185.5l-7-3.5c-3-1.5-5-2.5-6.5-3-.5,0-1.5-.5-2-.5,1.5-1.5,2-3,2.5-5,.5-3,0-5-1.5-8-1-2.5-3-3.5-4.5-4.5-2.5-1-4-1.5-6.5-1s-5,2-8,3.5l-13,8c-.5,0-.5.5-.5,1v1l18.5,30c0,.5.5.5,1,.5h1.5l5.5-3.5c.5-.5,1-1.5.5-2l-6.5-11c1-1,2-1,2.5-1s.5,0,1-.5h1c.5,0,1,.5,1.5.5,1,.5,2.5,1,4.5,2l8.5,4h1.5l7.5-4.5c.5-.5.5-1,.5-1.5s-1.5-.5-2-1Zm-23-12c0,.5-.5,1.5-.5,1.5-.5.5-2,1.5-4.5,3.5l-3.5,2-3.5-5,4.5-3c1-.5,2-1.5,2.5-1.5h2c1,.5,1.5,1,2,1.5,0,0,0,.5.5.5.33-.33.5-.17.5.5Z"/>
        <path class="cls-1" d="m114,152l8-5c.5-.5,1-1.5.5-2l-3-5c0-.5-.5-.5-1-.5h-1l-24,14.5c-.5.5-1,1.5-.5,2l3,5c0,.5.5.5,1,.5h1l8-5,14.5,24c.33.33.67.5,1,.5h.5l6-3.5c.5,0,.5-.5.5-1v-1s-14.5-23.5-14.5-23.5Z"/>
        <path class="cls-1" d="m147.5,123c-.5-.5-1.5-1-2-.5l-6,3.5c-.5,0-.5.5-.5,1v1l6.5,11-9.5,5.5-6.5-11c0-.5-.5-.5-1-.5h-1l-6,3.5c-.5,0-.5.5-.5,1v1l18.5,30c.33.33.67.5,1,.5h.5l6-3.5c.5,0,.5-.5.5-1v-1l-7-12,9.5-5.5,7.5,12c.5.5,1,1,2,.5l6-3.5c.5,0,.5-.5.5-1v-1s-18.5-30-18.5-30Z"/>
        <path class="cls-1" d="m199,91.5c-.5-.5-1.5-1-2-.5l-6,3.5c-.5,0-.5.5-.5,1v1l15,24-24.5-18c-.5-.5-1-.5-1.5,0l-6.5,4c-.5.5-1,1-.5,1.5l6.5,37c0,.5.5,1,1,1h1l6.5-4c.5-.5,1-1,.5-1.5l-1.5-7.5,10.5-6.5,6,4.5c.5.5,1,.5,1.5,0l6.5-4h0l6-3.5c.5,0,.5-.5.5-1v-1s-18.5-30-18.5-30Zm-14.5,32l-1.5-8,6.5,5-5,3Z"/>
        <path class="cls-1" d="m248.5,102l-7-3.5c-3-1.5-5-2.5-6.5-3-.5,0-1.5-.5-2-.5,1.5-1.5,2-3,2.5-5,.5-3,0-5-1.5-8-1-2.5-3-3.5-4.5-4.5-2.5-1-4-1.5-6.5-1s-5,2-8,3.5l-13.5,8.5c-.5,0-.5.5-.5,1v1l18.5,30c0,.5.5.5,1,.5h1.5l5.5-3.5c.5-.5,1-1.5.5-2l-6.5-11c1-1,2-1,2.5-1s.5,0,1-.5h1c.5,0,1,.5,1.5.5,1,.5,2.5,1,4.5,2l8.5,4h1.5l7.5-4.5c.5-.5.5-1,.5-1.5-.5-.5-1-1-1.5-1.5Zm-23-12c0,.5-.5,1.5-.5,1.5-.5.5-2,1.5-4.5,3.5l-3.5,2-3.5-5,4.5-3c1-.5,2-1.5,2.5-1.5h2c1,.5,1.5,1,2,1.5,0,0,0,.5.5.5.33-.33.5-.17.5.5Z"/>
        <path class="cls-1" d="m263,65c-1.5-2.5-3.5-4-6-5.5-2-1-4.5-1.5-7-.5-1.5.5-3.5,1.5-6,3l-11,7c-.5.5-1,1.5-.5,2l18.5,30c.33.33.67.5,1,.5h.5l6-3.5c.5,0,.5-.5.5-1v-1l-6-10,2-1h.5c2.5-2,4.5-3.5,6-4.5,1-1,2-2,3-4,1-2,1-3.5,1-5.5-.5-2-1-3.5-2.5-6Zm-8,7.5c0,.33-.17.67-.5,1q-.5.5-.5,1c-.5,1-2.5,2-4,3l-2,1-3.5-6,2-1.5c1.5-1,2.5-1.5,3.5-2,.5,0,.5-.5.5-.5,1.5-.5,2-.5,2.5,0h.5s1,.5,1,1c.5,1.5.5,2,.5,3Z"/>
        <path class="cls-1" d="m287.5,41.5c-4-1-9,0-14,2.5-3,2-5,3.5-6.5,5.5-1,1.5-1.5,3.5-2,5.5-.5,2-.5,4.5-.5,6.5.5,3.5,2,6.5,3.5,9h0c3.5,5,7,8,12,9.5,1,.5,2.5.5,3.5.5,3.5,0,7-1,10.5-3,4.5-2.5,7.5-6.5,8.5-11.5s0-9.5-3-15c-3.5-5-7.5-8.5-12-9.5Zm-9.5,10c1.5-1,3-1.5,4-1.5.5,0,1.5,0,2,.5,2.5,1,4.5,3,6.5,6,2,3.5,3,6.5,2.5,8.5s-1.5,4-4,5c-2.5,1.5-4.5,1.5-6,1-2.5-1-4.5-3-6.5-6h0c-2-3-3-5.5-2.5-8,1-2.5,2-4,4-5.5Z"/>
        <path class="cls-1" d="m340,46.5l-7-3.5c-3-1.5-5-2.5-6.5-3-.5,0-1.5-.5-2-.5,1.5-1.5,2-3,2.5-5,.5-3,0-5-1.5-8-1-2.5-3-3.5-4.5-4.5-2.5-1-4-1.5-6.5-1s-5,2-8,3.5l-13,8c-.5,0-.5.5-.5,1v1l18.5,30c0,.5.5.5,1,.5h.5c.33,0,.67-.17,1-.5l5.5-4c.5-.5,1-1,.5-2l-6.5-11c1-1,2-1,2.5-1h1.5l.5.5c.5,0,1,.5,1.5.5,1,.5,2.5,1,4.5,2l8.5,4h1.5l7.5-4.5c.5-.5.5-1,.5-1.5s-1.5-.5-2-1h0Zm-23-12c0,.5-.5,1.5-.5,1.5-.5.5-2,1.5-4.5,3.5l-3.5,2-3.5-5.5,4-2.5,1.5-1c1-.5,2-1.5,2.5-1.5h2c.5.5,1,.5,1.5,1.5,0,0,0,.5.5.5,0,.33,0,.83,0,1.5Z"/>
        <path class="cls-1" d="m356.5,36.5l-14.5-24,8-5c.5-.5,1-1.5.5-2l-3-5c0-.5-.5-.5-1-.5h-1l-24,14.5c-.5.5-1,1.5-.5,2l3,5c.5.5,1.5,1,2,.5l8.5-5,14.5,24c0,.5.5.5,1,.5h1.5l5.5-3.5s0-.5-.5-1.5Z"/>
      </g>
    </g>
  </g>
</svg>