<?xml version="1.0" encoding="UTF-8"?>
<svg id="Calque_2" data-name="Calque 2" xmlns="http://www.w3.org/2000/svg" viewBox="0 0 268.3 157.33">
  <defs>
    <style>
      .cls-1 {
        fill: #e8629f;
      }

      .cls-2 {
        fill: #fe76b8;
      }
    </style>
  </defs>
  <g id="Calque_1-2" data-name="Calque 1">
    <g id="Calque_1-2" data-name="Calque 1-2">
      <g>
        <g>
          <path class="cls-2" d="m28.1,29.83c.5-2,.5-4,0-6s-2-4.5-4-7.5c-2.5-3.5-2.5-5-2.5-5.5s0-1,.5-1c.33-.33.67-.5,1-.5,1,0,2.5,1,3.5,2s2,2,2,3-.5,2-1,3c-.5.5-.5,1.5,0,2l5,5c.5.5,1.5.5,2,0,2.5-2.5,3.5-5.5,3.5-9s-2-6.5-5.5-10c-2-2-4-3.5-6-4.5s-4.5-1-6.5-.5-4,1.5-5.5,3c-2.5,2.5-3.5,5-3,8.5,0,2.5,1,5,3.5,9,2,3,2.5,4.5,3,5,.5,1,.5,2,.5,2,0,.5,0,1-.5,1-.5.5-1.5,1-2.5,1s-2.5-1-4-2c-1.5-1.5-2-2.5-2-4s.5-3,1.5-4.5c.5-.5.5-1.5-.5-2l-5-5c-.5,0-.5-.5-1-.5s-.5,0-1,.5C1.1,15.83-.4,19.33.1,22.83c.5,3.5,2,7,5.5,10.5,2.5,2.5,4.5,4,7,5,1.5.5,3,1,4.5,1,1,0,1.5,0,2.5-.5,2.5-.5,4.5-1.5,6-3,1-2,2-4,2.5-6Z"/>
          <path class="cls-2" d="m51.6,24.83l-5-5c-.5-.5-1.5-.5-2,0l-25,25c-.33.33-.5.67-.5,1,0,.33.17.67.5,1l5,5c.33.33.67.5,1,.5s.67-.17,1-.5l25-25c.5-1,.5-1.5,0-2Z"/>
          <path class="cls-2" d="m104.1,56.33l-8.5-3.5h-1l-16,8,4.5-11v-1c0-.5-.5-.5-1-.5l-6.5-3c-.5-.5-1.5,0-2,1l-2,5.5c.5-1.5.5-3.5.5-5-.5-4-2.5-7.5-6-10.5-4-3.5-8.5-5-13.5-4.5s-9,3-13,8c-4,4.5-5.5,9-5.5,14s2.5,9,6,12c3,2.5,6.5,4,10,4.5h.5c3,0,6.5-1,9.5-3.5.5-.5,1-1.5.5-2l-4-6c0-.5-.5-.5-1-.5s-1,0-1,.5c-2,1.5-3.5,2-5,2s-3-.5-4-1.5c-1.5-1.5-2.5-3-2.5-5s1.5-5,4-8,5-4.5,7-5,4,0,5.5,1.5c1,1,2,2,2,3.5.5,1.5,0,2.5-.5,4v1c0,.5.5.5.5,1l6.5,3.5h1c.5,0,.5-.5.5-.5l-9,24v1c0,.5.5.5,1,.5l6.5,2.5c.5.5,1.5,0,2-1l3.5-9.5,5.5-2.5,3,17c0,.5.5,1,1,1l8.5,3.5h.5c.33,0,.67-.17,1-.5.5-.5.5-1,.5-1.5l-5-24,16.5-7.5c.5,0,1-1,1-1.5s-1,0-2-.5Z"/>
          <path class="cls-2" d="m143.1,84.33c1-3,1.5-5.5.5-8-.5-2.5-2-4.5-4-6-1-1-4-2-8-3.5l-10.5-4h-1c-.5,0-.5.5-.5,1l-12.5,33c-.5.5,0,1.5,1,2l6.5,2.5h1c.5,0,.5-.5.5-1l4.5-11,3,1c3,1,5.5,2,7.5,2.5,1.5,0,3,0,4.5-.5s3-1,4.5-2.5c1-1.5,2.5-3,3-5.5Zm-15-9.5c3,1,4,1.5,4.5,2s1,1,1.5,2c.5.5,0,1.5,0,2.5-.5.5-.5,1-1,1.5-.5.5-1,.5-2,.5h0c-.5,0-1.5,0-5-1.5l-2.5-1,2.5-6.5s2,.5,2,.5Z"/>
          <path class="cls-2" d="m196.1,91.83l-7-2.5c-.5,0-1,0-1.5.5l-23.5,25,1-2c.5-.5,0-1.5-1-2l-15-6,10-25.5c.5-.5,0-1.5-1-2l-6.5-2.5h-1c-.5,0-.5.5-.5,1l-12.5,32.5c-.5.5,0,1.5,1,2l23,9h.5l.5.5,7,2.5c.5,0,1,0,1.5-.5l5-5.5,11.5,4.5v7.5c0,.5.5,1,1,1.5l7,3h.5c.33,0,.67-.17,1-.5.33-.33.5-.67.5-1l-.5-38c-.5-1-.5-1.5-1-1.5Zm-14,17.5l5.5-6v8l-5.5-2Z"/>
          <path class="cls-2" d="m228.1,131.33l-5.5-4.5c-.33-.33-.67-.5-1-.5-.5,0-.5.5-1,.5-1.5,2-3,3-4,3.5-1.5.5-3,.5-4,0-2-1-3-2-4-4-.5-2,0-5,1.5-8.5s3-6,5-6.5c2-1,3.5-1,6,0,1.5.5,2.5,1.5,3,2.5s1,2.5.5,4v1s.5.5,1,.5l7,1c.5,0,1,0,1-.5.5,0,.5-.5.5-1,.5-3,0-6-1-8-1.5-3.5-4.5-6.5-9-8.5-5-2-9.5-2-14,0s-8,6-10,11.5c-2.5,5.5-2.5,10.5-1,15s5,7.5,9.5,9.5c2.5,1,5,1.5,7,1.5,1,0,2.5,0,3.5-.5,3.5-1,6.5-3,9-6.5,1,0,1-1,0-1.5Z"/>
          <path class="cls-2" d="m267.6,121.33l-24-10h-1c-.5,0-.5.5-1,1l-14,32.5v1c0,.5.5.5,1,1l24.5,10.5h.5c.5,0,1-.5,1.5-1l2.5-5.5v-1c0-.5-.5-.5-1-1l-17-7,2.5-6,15,6.5c.5.5,1.5,0,2-1l2.5-5.5v-1c0-.5-.5-.5-1-1l-15-6.5,2-4.5,16,7h1c.5,0,.5-.5,1-1l2.5-5.5c.5-1,0-1.5-.5-2Z"/>
        </g>
        <path class="cls-1" d="m4.7,13.23l5.3,4.6c-1.4,2.1-1.75,3.9-1.75,5.3.35,1.75,1.05,3.2,2.45,4.6,1.75,1.75,3.2,2.45,4.6,2.45s2.45-.35,3.55-1.4c.7-.7,1.05-1.05,1.05-1.75s-.35-1.75-.7-2.85-1.05-2.45-2.85-4.95c-2.1-3.55-3.2-6-3.2-8.15,0-2.85,1.05-5.3,2.85-7.05,1.4-1.4,2.85-2.1,4.6-2.5,1.75-.35,3.9-.35,5.65.7,2.1.7,3.55,2.1,5.65,4.25,3.2,3.2,4.6,6,4.95,9.2s-.7,5.65-3.2,8.15l-5.3-4.6c1.05-1.75,1.4-2.85,1.4-4.25s-1.05-2.45-2.45-3.9-2.85-2.1-4.6-2.45c-1.05-.35-1.75.35-2.1.7-.7.7-.7,1.4-.7,2.1,0,1.4,1.05,3.2,2.85,6.35,1.75,3.2,3.2,5.3,3.55,7.05s.7,3.55.35,5.3c-.35,1.75-1.4,3.55-2.85,4.95s-3.2,2.45-4.95,2.85c-2.1.7-3.9.35-6.35-.7-2.1-.7-4.25-2.1-6.35-4.25-3.2-3.2-4.95-6.35-5.3-9.55.35-3.9,1.4-7.05,3.9-10.25" vector-effect="none"/>
        <path class="cls-1" d="m20.6,45.43l24.75-24.75,4.95,4.95-24.75,24.75-4.95-4.95" vector-effect="none"/>
        <path class="cls-1" d="m55.5,59.53l4.05,6.05c-3.35,2.4-6.5,3-9.7,2.9-3.2-.1-6.15-1.3-9.15-3.9-3.4-2.9-5.5-6.65-5.5-11.25-.35-4.25,1.45-8.65,5-12.8,3.9-4.55,7.95-7,12.2-7.35s8.55.75,12.35,4c3.4,2.9,5.1,6.35,5.4,9.85.15,2.1,0,4.6-1.55,7.2l-6.3-3.4c.9-1.85,1.15-3.65,1-5.05-.5-1.75-1.3-3.1-2.85-4.4-1.9-1.6-4.05-2.15-6.9-1.95-2.45.55-5.15,2.2-7.75,5.2-2.9,3.4-4.1,6.35-4.25,8.85s.7,4.55,2.6,6.2c1.5,1.3,3,1.9,5.1,1.7,2.15.55,4.25-.35,6.25-1.9" vector-effect="none"/>
        <path class="cls-1" d="m62.2,79.38l12.55-32.65,6.55,2.5-5.55,14.45,19.1-9.25,8.85,3.4-17.45,7.75,5.35,25.1-8.4-3.25-2.95-18.8-7.75,3.45-3.75,9.8-6.55-2.5" vector-effect="none"/>
        <path class="cls-1" d="m107.95,96.98l12.55-32.65,10.75,4.15c4.2,1.6,6.55,2.5,7.75,3.5,1.7,1.2,2.75,2.65,3.4,5.05.7,2.4.45,4.45-.65,7.25-.7,1.85-1.9,3.55-2.9,4.75-1.45,1.05-2.75,1.6-4.05,2.2s-2.85.5-3.8.15c-1.6-.05-3.9-.95-7.2-2.25l-4.2-1.6-4.85,12.6-7-2.7m17.3-25.5l-3.6,9.35,3.75,1.45c2.8,1.1,4.2,1.6,5.3,1.5s1.75-.4,2.4-.7,1.45-1.05,1.85-1.95c.55-1.4.45-2.5.15-3.15-.6-1.3-.85-1.95-2.25-2.5l-4.65-1.8-3.25-1.25" vector-effect="none"/>
        <path class="cls-1" d="m138.25,108.68l12.55-32.65,6.55,2.5-10.4,27.05,16.35,6.3-2.15,5.6-22.85-8.8" vector-effect="none"/>
        <path class="cls-1" d="m196.15,130.88l-7-2.7v-8.55l-13-5-5.65,6.4-7-2.7,25.15-27.8,7,2.7.5,37.7m-7.55-17.9v-13.95l-9.35,10.35,9.35,3.6" vector-effect="none"/>
        <path class="cls-1" d="m221.85,127.48l5.7,4.55c-2.45,3.3-5.25,4.85-8.35,5.7-3.1.9-6.25.65-9.9-.9-4.15-1.75-7.25-4.65-8.7-9.05-1.6-3.9-1.25-8.65.85-13.75,2.3-5.55,5.45-9.1,9.35-10.7s8.4-1.9,13,0c4.15,1.75,6.8,4.45,8.15,7.75.8,1.95,1.4,4.4.7,7.35l-7.05-1.3c.3-2.05,0-3.8-.55-5.1s-2.2-2.55-4.05-3.3c-2.3-.95-4.55-.8-7.15.25-2.15,1.25-4.25,3.65-5.8,7.35-1.75,4.15-1.95,7.3-1.35,9.75s2.05,4.1,4.4,5.1c1.85.75,3.4.9,5.4.1,2.25-.15,3.75-1.15,5.35-3.75" vector-effect="none"/>
        <path class="cls-1" d="m229.1,144.78l13.65-32.2,23.95,10.15-2.35,5.5-17.5-7.4-3.1,7.35,16.1,6.85-2.35,5.5-16.1-6.85-3.7,8.75,17.95,7.6-2.35,5.5-24.4-10.35" vector-effect="none"/>
      </g>
    </g>
  </g>
</svg>