<?xml version="1.0" encoding="UTF-8"?>
<svg id="Calque_2" data-name="Calque 2" xmlns="http://www.w3.org/2000/svg" viewBox="0 0 385.37 147.22">
  <defs>
    <style>
      .cls-1 {
        fill: #e763a0;
      }
    </style>
  </defs>
  <g id="Calque_1-2" data-name="Calque 1">
    <g id="Calque_1-2" data-name="Calque 1-2">
      <g>
        <path class="cls-1" d="m29.38,125.22c-1.5-2-3-2.5-5-3s-5-.5-8.5-.5c-2.5,0-5.5,0-6-.5l-.5-.5-.5-.5v-1.5c.5-.5,2-1.5,4-2s3-.5,4,0,1.5,1,2.5,2.5c.5.5,1,1,1.5.5l6.5-2.5c.5-.5,1-1,1-2-1-3.5-3.5-6.5-6.5-7.5-3-1-7-1-11,0-3,.5-5.5,1.5-7,3-2,1-3,3-3.5,5.5s-.5,4.5,0,6c.5,3.5,3,5.5,5.5,7,2,1,5,1,9.5,1h6c1,.5,2,.5,2.5,0v1c.5,1,.5,1.5-.5,3-1,1-2,2-3.5,2.5s-3.5.5-4.5,0c-1-.5-2.5-1.5-3-3.5-.5-.5-1-1-2-.5l-6.5,2.5c-.5.5-1,1-1,2,1.5,4.5,4.5,7,7,9h.5c2,.5,3.5,1,5.5,1s4-.5,6-1c3.5-1,6-2,7.5-3.5,2-1.5,3.5-3.5,4-6,.5-2,.5-4.5,0-6.5-1-1-1.5-3.5-4-5Z"/>
        <path class="cls-1" d="m59.88,99.72c-4.5-2.5-9.5-2.5-14.5-1-3,1-5.5,2-7.5,4-1.5,1.5-2.5,2.5-3.5,4.5-1,1.5-1.5,4-2,6-.5,2.5,0,5.5,1,9.5h0c2,6,5,10,9.5,12,2.5,1.5,5.5,2,8.5,2,2,0,4-.5,6-1,5.5-1.5,9.5-4.5,11.5-8.5s2.5-9,.5-15c-3-6.5-5.5-10.5-9.5-12.5Zm-1.5,23.5c-1,2-3,3.5-5.5,4.5-2,1-4,.5-6-1-1.5-1-3.5-3.5-4.5-7h0c-1.5-4-1-6.5,0-8.5,1-2,2.5-3.5,5-4,1,0,2-.5,2.5-.5,1.5,0,2.5.5,4,1,1.5,1,3.5,3.5,4.5,7,1,4,1,6.5,0,8.5Z"/>
        <path class="cls-1" d="m100.88,103.22l-5-17.5c0-.5-1-1-2-1l-7,2c-.5,0-.5.5-1,.5s0,.5,0,1l5.5,18.5c1,3.5,1.5,5,1.5,5.5,0,1.5,0,2-.5,2.5l-.5.5c0,.5-1,1.5-3,2-1.5.5-3,.5-4,0-1.5-.5-2-1-2-1.5,0,0,0-.5-.5-.5,0-.5-.5-1.5-1-2.5,0-.5-.5-1.5-.5-2.5l-5.5-18.5c0-.5-1-1-1.5-1l-7,2c-.5,0-.5.5-1,.5v1l6,18.5c1,3.5,2,6.5,3,9,.5,1,2,2.5,3.5,3.5h.5c1,.5,1.5.5,2.5,1,1,0,1.5.5,2.5.5.5,0,1,.5,2,.5,2.5,0,5-1,6.5-1.5,2.5-1,4.5-2,6.5-3.5,1.5-1.5,2.5-2.5,3.5-4.5s1-3.5,1-5.5c0-1.5-.5-3.5-1.5-6.5-.5-.5-.5-1.5-1-2.5Z"/>
        <path class="cls-1" d="m127.38,75.72h-1l-27,8c-.5,0-1,1-1,1.5l1.5,5.5c0,.5.5.5.5,1h1l8.5-2.5,7.5,26.5c0,.5.5,1,1.5,1h.5l7-2c.5,0,.5-.5,1-.5v-1l-7.5-26.5,8.5-2.5c.5,0,1-1,1-1.5l-1.5-5.5c0-1-.5-1-.5-1.5Z"/>
        <path class="cls-1" d="m158.88,65.72l-7,2c-.5,0-.5.5-1,.5v1l3.5,12-11,3-3.5-12c0-.5-1-1-2-1l-7,2c-.5,0-.5.5-1,.5v1l10,34c0,.5.5,1,1.5,1h.5l7-2c.5,0,.5-.5,1-.5v-1l-4-13.5,11-3,4,13.5c0,.5,1,1,1.5,1l7-2c.5,0,.5-.5,1-.5v-1l-10-34c0-.5-1-1-1.5-1Z"/>
        <path class="cls-1" d="m216.37,48.72l-7,2c-.5,0-.5.5-1,.5v1l8,28-19-25c-.5-.5-1-.5-1.5-.5l-7,2c-.5,0-1,.5-1,1l-3.5,38c0,.5,0,1,.5,1s.5.5,1,.5h.5l7-2c.5,0,1-.5,1-1.5l.5-7.5,11.5-3.5,4.5,6c.5.5,1,.5,1.5.5l7.5-2h.5l7-2c.5,0,.5-.5,1-.5v-1l-10-34c-.5-.5-1.5-1-2-1Zm-16,27l-5,1.5.5-8,4.5,6.5Z"/>
        <path class="cls-1" d="m256.37,67.72c-2.5-2.5-4-4-6-5-.5-.5-1-.5-1.5-1,1.5-1,3-2.5,3.5-4,1-2,1-4.5.5-8-.5-1.5-1.5-4.5-3.5-6-1.5-1-3.5-2-6-2-2,0-5,.5-8.5,1.5l-14.5,4c-.5,0-.5.5-1,.5v1l10,34c0,.5.5.5.5,1h1l6.5-2.5c.5-.5,1-1,1-1.5l-3.5-12.5h0c1.5-.5,2-.5,3-.5.33,0,.67.17,1,.5q.5.5,1,.5c.5,0,1.5,1,2.5,2,.5.5,1.5,1.5,2.5,2l7,6.5c.5.5,1,.5,1.5.5l8-2.5c.5,0,1-.5,1-1s0-1-.5-1.5c0,0-5.5-6-5.5-6Zm-12.5-12.5c-.5,1-1,1-1,1.5-.5.5-2,.5-4,1.5l-5,1.5-1.5-5.5,4-1c2-.5,4-1.5,4.5-1.5h2c.5.5.5,1,1,1.5,0,0,0,2,0,2Z"/>
        <path class="cls-1" d="m282.38,34.72c-2-1.5-4.5-2.5-7-2.5-1,0-3,.5-5.5,1-1,.5-2,.5-3.5,1l-11,3c-.5,0-.5.5-1,.5s0,.5,0,1l10,34c0,.5.5.5.5,1h1l7-2.5c.5-.5,1-1,1-1.5l-3-11,3-1c1-.5,1.5-.5,2.5-1,2-.5,3.5-1,4.5-2,1-.5,2.5-1.5,3.5-3,1-1,2-3,2.5-4.5v-.5c0-1.5,0-3.5-.5-6-.5-2-1.5-4.5-4-6Zm-14,15.5l-2-7,1.5-1c1,0,1.5-.5,2.5-.5s2-.5,2-.5c1.5,0,2,.5,2,.5l.5.5c.5.5,1,1,1.5,2v2s0,1-.5,1h-.5l-2,1c-1,.5-1.5.5-2.5,1,0,0-2.5,1-2.5,1Z"/>
        <path class="cls-1" d="m316.37,24.22c-4.5-2.5-9.5-2.5-14.5-1-3,1-5.5,2-7.5,4-1.5,1.5-2.5,2.5-3.5,4.5-1,1.5-1.5,4-2,6.5,0,2.5,0,5.5,1,9.5h0c2.5,6,5,10,9.5,12,2.5,1.5,5.5,2,8.5,2,2,0,4-.5,6-1,5.5-1.5,9.5-4.5,11.5-8.5s2.5-9,.5-15c-3-7-5.5-11-9.5-13Zm-1.5,23.5c-1,2-3,3.5-5.5,4.5-2,1-4,.5-6-1-1.5-1-3.5-3.5-4.5-7h0c-1-3-1-6.5,0-8.5s2.5-3.5,5-4c1,0,2-.5,2.5-.5,1.5,0,2.5.5,4,1,2,1.5,3.5,4,4.5,7,1,4.5,1,7,0,8.5Z"/>
        <path class="cls-1" d="m358.87,37.72c-2.5-2.5-4-4-6-5-.5-.5-1-.5-1.5-1,1.5-1,3-2.5,3.5-4,1-2,1-4.5.5-8-.5-2-1.5-4-3.5-6-1.5-1-3.5-2-6-2-2,0-5,.5-8.5,1.5l-14.5,4c-.5,0-.5.5-1,.5v1l10,34c0,.5.5.5.5,1h1l6.5-2.5c.5-.5,1-1,1-1.5l-3.5-12.5h0c1.5-.5,2-.5,3-.5.33,0,.67.17,1,.5q.5.5,1,.5c.5,0,1.5,1,2.5,2,.5.5,1.5,1.5,2.5,2l7,6.5c.5.5,1,.5,1.5.5l8-2.5c.5,0,1-.5,1-1s0-1-.5-1.5l-5.5-6Zm-12.5-12.5c-.5,1-1,1-1,1.5-.5.5-2,.5-4,1.5l-5,1.5-2-5.5,4-1c2-.5,4-1.5,4.5-1.5h2c.5.5.5,1,1,1.5v1c.33.33.5.67.5,1Z"/>
        <path class="cls-1" d="m384.88,1.22c0-.5-.5-.5-.5-1-.5,0-1-.5-1,0l-27,8c-.5,0-1,1-1,1.5l1.5,5.5c0,.5.5.5.5,1h1l8.5-2.5,7.5,26.5c0,.5.5.5.5,1h1l6.5-2c.5,0,1-1,1-1.5l-7.5-26.5,8.5-2.5c.5,0,1-1,1-1.5,0,0-.5-6-.5-6Z"/>
      </g>
    </g>
  </g>
</svg>