<?xml version="1.0" encoding="UTF-8"?>
<svg id="Calque_2" data-name="Calque 2" xmlns="http://www.w3.org/2000/svg" viewBox="0 0 320 44.5">
  <defs>
    <style>
      .cls-1 {
        fill: #e763a0;
      }
    </style>
  </defs>
  <g id="Calque_1-2" data-name="Calque 1">
    <g id="Calque_1-2" data-name="Calque 1-2">
      <g>
        <path class="cls-1" d="m16,9c1.5,0,2.5.5,4,1,0,0,0,.5.5.5.5,1,1,1.5,1,2.5s.5,1.5,1.5,1.5h7c1,0,1.5-.5,1.5-1.5,0-4-1-6.5-3.5-9-2.5-2-6-3.5-11-4-2,0-4.5.5-7.5,1-2.5.5-4,2-5,3.5-1.5,1.5-2.5,3.5-2.5,6,0,3.5,1.5,6,3.5,8.5,2,2,5,3,8,4,1,.5,2,.5,3,1,1.5.5,2.5,1,3,1,.5.5,1.5.5,1.5,1,0,0,0,.5.5.5v1c0,.5-.5,1.5-1.5,2.5-1.5.5-2.5,1-4.5,1-1.5,0-3-1-4-1.5-.5-.5-1.5-2.5-1.5-4.5,0-.5,0-1-.5-1-.33-.33-.67-.5-1-.5l-7,.5c-.5,0-1.5.5-1.5,1.5,0,5,2,8,4,10,3,3,7.5,4,11.5,4.5,3,0,6,0,8-1,2-.5,4.5-2,6-4l.5-1c1-1.5,1.5-3,1.5-5,0-2.5,0-5-1.5-6.5-.5-2-2.5-3.5-4-4.5-1-.5-2.5-1.5-4-2l-3-1.5h-1c-2.5-.5-4.5-1-5-2-.33-.33-.5-.67-.5-1s.17-.67.5-1c0-1.5,1.5-1.5,3-1.5Z"/>
        <path class="cls-1" d="m56,2c-1.5-.5-4.5-.5-9-.5h-11.5c-1,0-1.5.5-1.5,1.5l-.5,35c0,1,.5,1.5,1.5,1.5l7.5.5h0c.33,0,.67-.17,1-.5.33-.33.5-.67.5-1v-12h3c3,0,5.5,0,8-.5,1.5,0,3-.5,4.5-2,1-1,2-2,3-3.5v-.5c.5-2,1-4,1-6,0-3.5-.5-5.5-2.5-8-1-2-2.5-3.5-5-4Zm-2,12c0,.5-.5,1.5-.5,2-.5.5-1,.5-1.5,1-.5.5-2.5.5-5,.5h-2.5v-7h2c1.5,0,2.5,0,3.5.5h1.5c1.5,0,1.5.5,1.5.5,0,0,0,.5.5.5,0,0,.5,1,.5,2Z"/>
        <path class="cls-1" d="m83,1c-3,0-6,.5-8,1.5-1.5.5-3.5,1.5-5,3.5-1.5,1.5-2.5,3-4,5.5-1,2.5-1.5,6-1.5,9.5,0,6,1.5,11,5,14,3,3.5,8,5.5,13.5,5.5h1.5c4.5,0,9-2,12-5,3-3.5,5-8.5,5-14.5s-1.5-10.5-5-14.5c-3-3.5-7.5-5.5-13.5-5.5Zm9.5,20c0,3.5-1,6.5-2.5,8-2,2-3.5,2.5-6,2.5s-4-.5-6-2.5c-1.5-1.5-2.5-4.5-2.5-8,0-4,1-6.5,3-8v-.5c1.5-2,4-2.5,6-2.5,2.5,0,4,.5,6,2.5.5,1.5,2,4,2,8.5Z"/>
        <path class="cls-1" d="m135,32c-2-4-3.5-5.5-4.5-6.5-.5-.5-1-1-1.5-1,2-1,3.5-2,4.5-3,2-2,3-4.5,3-7.5,0-2.5-.5-4.5-1.5-6.5-1.5-2-3-3.5-4.5-4-2-.5-5-1-8.5-1h-15c-1,0-1.5.5-1.5,1.5l-.5,35c0,.5,0,1,.5,1s.5.5,1,.5l7-.5c.5,0,1.5-.5,1.5-1.5v-13h0c1.5,0,2,0,3,.5.5.5,1,.5,2,2,.5.5,1.5,2,3.5,5l5,7.5c.33.33.67.5,1,.5h8.5c.5,0,1-.5,1-.5.5-.5.5-1,0-1.5,0,0-4-7-4-7Zm-8.5-18v1.5c-.5.5-1,1-1.5,1-.5.5-3,.5-6,.5h-4l.5-5.5h9c.5,0,1,0,1.5.5,0,.5.5,1.5.5,2Z"/>
        <path class="cls-1" d="m167.5,2.5h-28c-1,0-1.5.5-1.5,1.5v6c0,.5,0,1,.5,1,.33.33.67.5,1,.5l9-.5v28c0,.5.5,1.5,1.5,1.5l7,.5h0c.33,0,.67-.17,1-.5.33-.33.5-.67.5-1V11.5h9c1,0,1.5-.5,1.5-1.5v-6c0-1-.5-1.5-1.5-1.5Z"/>
        <path class="cls-1" d="m247.5,33.5c-2-4-3.5-5.5-4.5-6.5-.5-.5-1-1-1.5-1.5,2-.5,3.5-1.5,5-2.5,2-2,3-4.5,3-7.5,0-2.5-.5-4.5-1.5-6.5-1-1.5-2-3-4.5-4-2-.5-5-1-8.5-1h0l-15-.5c-.33,0-.67.17-1,.5s-.5.67-.5,1l-1,29-11-30c0-.5-.5-1-1.5-1h-7.5c-.5,0-1,.5-1.5,1l-14.5,35v1.5c.33.33.67.5,1,.5h7.5c.5,0,1-.5,1.5-1l2.5-7,12,.5,2.5,7c0,.5.5,1,1.5,1h8l7-.5c.5,0,1.5-.5,1.5-1.5l.5-13h2.5c.5.5,1,.5,1,1l.5.5c0,.5.5,1,1,1.5.5,1,1.5,2,2.5,4l5,8c0,.5.5.5,1,.5l8.5.5h0c.5,0,1,0,1-.5.5-.5.5-1,0-1.5,0,0-2.5-7-2.5-7Zm-7.5-17.5c0,.5-.5,1.5-.5,1.5l-.5.5c0,.5-.5.5-.5.5h-10.5l.5-6h4c1,0,3,.5,5,.5.5.5,1.5,1,2,1,.5.5.5,1,.5,2Zm-37,8.5h-5.5l3-7.5,2.5,7.5Z"/>
        <path class="cls-1" d="m320,43l-12.5-36c0-.5-.5-1-1.5-1h-7.5c-.5,0-1,.5-1.5,1l-15,34.5v-5.5c0-1-.5-1.5-1.5-1.5l-17.5-.5.5-6.5,16,.5c.5,0,1,0,1-.5.33-.33.5-.67.5-1v-6c0-1-.5-1.5-1.5-1.5l-16-.5.5-4,17.5.5c.5,0,1,0,1-.5.33-.33.5-.67.5-1v-6c0-1-.5-1.5-1.5-1.5l-26-1c-.33,0-.67.17-1,.5-.33.33-.5.67-.5,1l-1,35c0,.33.17.67.5,1,.33.33.67.5,1,.5l26.5.5h0c.33,0,.67-.17,1-.5v-.5.5c.33.33.67.5,1,.5h7.5c.5,0,1-.5,1.5-1l2.5-7,12,.5,2.5,7.5c0,.5.5,1,1.5,1h7.5c.5,0,1,0,1-.5,1,0,1-.5,1-1Zm-16-15.5h-5.5l3-7.5,2.5,7.5Z"/>
      </g>
    </g>
  </g>
</svg>