<?xml version="1.0" encoding="UTF-8"?>
<svg id="Calque_2" data-name="Calque 2" xmlns="http://www.w3.org/2000/svg" viewBox="0 0 403.37 151">
  <defs>
    <style>
      .cls-1 {
        fill: #e8629f;
      }
    </style>
  </defs>
  <g id="Calque_1-2" data-name="Calque 1">
    <g id="Calque_1-2" data-name="Calque 1-2">
      <g>
        <path class="cls-1" d="m31.38,127c-1.5-1-3.5-1.5-5.5-2s-5-.5-8.5,0c-4,.5-5.5.5-6.5,0l-.5-.5v-1l.5-.5c0-.5,1-1.5,3-2s3-.5,3.5,0c1,.5,1.5,1,2.5,2.5.5.5,1,1,1.5.5l6.5-2.5c.5-.5,1-1,1-2-1-3-3-5.5-7-7.5-3.5-1-7.5-1-11.5.5-2.5,1-4.5,2-6.5,3.5-2,1-3,3-3.5,5.5s-.5,4.5,0,6.5c1,3.5,3.5,5.5,6,6.5,2,1.5,5.5,1.5,9.5,1,3-.5,5-.5,6-.5h2c.5.5,1,1,1.5,1,0,.5,0,1.5-.5,2-1,1-2,2-3.5,2.5-1.5.5-3.5.5-4.5,0s-2.5-1.5-3-3.5h-2.5l-6.5,3c-.5.5-1,1-.5,2,1.5,3.5,4,6.5,8,8.5,1.5.5,3,.5,4,.5,2.5,0,5-.5,7-2,3-1,5.5-2,7.5-3.5,2-1,3.5-3,4-6,.5-2,.5-4.5,0-6.5s-1.5-4.5-3.5-6Z"/>
        <path class="cls-1" d="m59.38,99.5c0-.5-1-1-1.5-1l-7,2c-.5,0-.5.5-1,.5v1l6,18.5c1,3.5,1.5,5,1.5,5.5s-.5,1.5-1,2.5c-1,1-1.5,1.5-3,2s-3,.5-4,0h-.5c-1-.5-1.5-1-2-1.5,0,0,0-.5-.5-.5,0,0-.5-1-1-5l-6-18c0-.5-1-1-1.5-1l-7,2.5c-.5,0-.5.5-1,.5v1l5.5,18c1.5,4,2.5,6.5,3.5,8.5,1,1.5,3,2.5,4.5,3,.5,0,1,.5,1,.5,1,.5,2.5,1,4,1h2c1.5,0,3.5-.5,6.5-1.5,2.5-1,4.5-2,6.5-3,1.5-1,3-3,3.5-4.5s.5-3.5.5-5.5c0-1,0-4-2-9,0,0-6-16.5-6-16.5Z"/>
        <path class="cls-1" d="m98.43,106.5c-1-.5-2.5-1-3.5-1.5.5-1,1-1.5,1-2.5.5-2,.5-3.5,0-5.5s-2-3-3-4c-1-1-2.5-2-4-2.5s-3-.5-4.5-.5-4,.5-6.5,1.5l-13.5,4.5c-.5,0-1,1-1,2l11,33.5c0,.5.5,1,1.5,1h.5l11.5-3.5c1.5-.5,3-1,4-1.5,2-.5,3.5-1,4-1.5,2-.5,3.5-2,4.5-3.5,1-1.5,2-3.5,2-5.5s0-3.5-.5-5.5-1.5-4-3.5-5Zm-6.5,12c-.5,0-2,.5-4.5,1.5l-5,1.5-2-6,4.5-1c3.5-1,5-1.5,5.5-1.5s1.5.5,1.5.5c.5.5,1,1.5,1,2,.5.5.5,1,0,1.5-.5,1-.5,1.5-1,1.5Zm-6.5-14c-1,0-3,1-5,1.5l-3.5,1-1.5-5,2.5-1c4.5-1.5,5.5-1.5,5.5-1.5,1,0,1.5,0,2,.5s.5,1.5,1,2,.5,1,0,1.5c0,.5-.5.5-1,1Z"/>
        <path class="cls-1" d="m127.88,77.5c0-.5-1-1-1.5-1l-7,2c-.5,0-.5.5-1,.5v1l6.5,18.5c1,3.5,1.5,5,1.5,5.5s-.5,1.5-1,2.5c-1,1-1.5,1.5-3,2-1.5.5-3,.5-4,0h-.5c-1-.5-1.5-1-2-1.5-.5-1-1-2.5-2-5.5l-6-18c0-.5-1-1-1.5-1l-7,2c-.5,0-.5.5-1,.5v1l6,17.5c1.5,4,2.5,6.5,3.5,8.5.5,1,2,3,4,3.5.5,0,1,.5,1,.5,1,.5,2.5,1,4,1h2c1.5,0,3.5-.5,6.5-1.5,2.5-1,4.5-2,6.5-3,1.5-1,3-3,3.5-4.5s.5-3.5.5-5.5c0-1,0-4-2-9,0,0-6-16-6-16Z"/>
        <path class="cls-1" d="m169.88,93l-1.5-1.5c-1.5-1.5-3-2.5-4.5-3l-1.5-.5c1.5-1,2.5-2.5,3.5-4.5.5-2.5,1-5,0-7.5-.5-1.5-1.5-4.5-3.5-5.5-1.5-1.5-3.5-2.5-6-2.5-2,0-5,.5-8.5,1.5l-14,4.5c-.5,0-.5.5-1,.5v1l10.5,33.5c0,.5.5.5.5,1h1l7.5-2.5c.5,0,1-1,1-2l-4-12.5h0c1.5-.5,2-.5,3-.5s1,0,1.5.5,1.5,1,2.5,2l9.5,7.5c.5.5,1,.5,1.5,0l8-2.5c.5,0,1-.5,1-1s0-1-.5-1.5l-6-4.5Zm-13.5-13.5v2c-.5.5-.5,1-1,1-1,.5-3,1.5-5.5,2.5l-3.5,1-2.5-6,4-1c2.5-1,4-1.5,4.5-1.5,1,0,1.5,0,2.5.5.5,0,1,.5,1.5,1.5Z"/>
        <path class="cls-1" d="m259.88,34l-6.5,2c-.5,0-.5.5-1,.5v1l5.5,17.5-16.5-14.5c-.5-.5-1-.5-1.5-.5l-6.5,2c-.5,0-.5.5-1,.5v1l8.5,27.5-21-24.5c0,.5-.5.5-1.5.5l-7,2.5c-.5,0-1,.5-1,1l-2.5,37.5c0,.5,0,1,.5,1,0,0,.5.5,1,.5h.5l7-2.5c.5,0,1-.5,1-1l.5-7.5,11.5-4,5,6c.5.5,1,.5,1.5.5l7.5-2.5h.5l6-2c.5,0,1-1,1-2l-5.5-17.5,16.5,14.5c.5.5,1,.5,1.5.5l7-2c.5,0,.5-.5,1-.5v-1l-10.5-33.5c0-.5-1-1-1.5-1Zm-35.5,34l-5,1.5.5-8,4.5,6.5Z"/>
        <path class="cls-1" d="m374.88,27c-1-1-2.5-2-5.5-3h-3c-1.5,0-3-.5-5-.5-3.5,0-6-.5-6.5-1l-.5-.5v-.5c0-.5,0-1,.5-1,.5-1,1.5-1.5,3.5-2,2-.5,3-.5,3.5,0,1,.5,1.5,1.5,2,2.5,0,.5,1,1,1.5,1l7-1c.5,0,.5-.5,1-.5s.5-.5.5-1c-.5-4.5-3.5-6.5-5.5-8-2.5-1.5-6.5-2-12-.5-2.5,1-5,2-7,3.5-.33.33-.67.67-1,1-1,1-2.5,2-3,4-1,2-1,4.5-.5,6,1,3,3,5,5.5,6.5,1.5,1,5,1.5,9.5,1.5h6c1.5,0,2,.5,2,.5.33.33.5.67.5,1,0,1,0,2-.5,2.5l-.5.5c0,.5-1.5,1-3.5,2-1.5.5-3,.5-4.5-.5-1-.5-2-2-3-4-.5-.5-1-1-1.5-.5l-7,2c-.5,0-.5.5-1,.5v1c0,.5.5,1,.5,1.5l-15.5-23c-.5-.5-1-.5-1.5-.5l-7,1.5c-.5,0-1,.5-1,1l-5.5,36-1-3.5c0-.5-1-1-1.5-1l-17.5,4-1.5-6.5,15.5-3.5c.5,0,1-1,1-1.5l-1-6c0-.5-.5-.5-.5-1-.5,0-.5-.5-1,0l-15.5,3.5-1.5-5,17-4c.5,0,.5-.5,1-.5,0-.5.5-.5,0-1l-1.5-6.5c0-1-1-1-1.5-1l-25.5,6c-1,0-1,1-1,1.5l8,34.5c0,.5.5,1,1.5,1h.5l26-5.5c.5,0,.5-.5,1-.5v-.5l.5.5h.5l7.5-1.5c.5,0,1-.5,1-1l1-8,11.5-2.5,4.5,6c.5.5,1,.5,1.5.5l7.5-1.5c.5,0,1-.5,1-1v-1.5l-2-2.5c1,.5,1.5,1,2.5,1.5,1.5,1,3.5,1.5,6,1.5,1.5,0,3.5,0,5.5-.5,3-.5,5.5-1.5,8-3,1.5-1.5,3.5-3.5,4-5.5,1-2,1.5-4.5.5-7-1.5-2-2-3.5-4-5.5Zm-40.5,10.5l-5,1.5,1-8,4,6.5Z"/>
        <path class="cls-1" d="m402.38,1c0-1-1-1-1.5-1l-27,6.5c-.5,0-.5.5-1,.5,0,.5-.5.5,0,1l1.5,6c0,.5.5.5.5,1,.5,0,.5.5,1,0l8.5-2,6.5,26.5c0,.5.5,1,1.5,1h0l7-1c.5,0,1-.5,1-.5,0-.5.5-.5,0-1l-6.5-27,8.5-2c.5,0,.5-.5,1-.5v-1s-1-6.5-1-6.5Z"/>
        <path class="cls-1" d="m201.38,73.5c-1-1-2.5-1.5-3.5-1.5.5-1,1-1.5,1-2.5,0-.5,0-1,.5-1.5v-2c0-.5,0-1-.5-2s-1-1.5-1.5-2.5h0l-1.5-1.5c-1-1-2.5-2-4-2.5s-3-.5-4.5-.5h0c-1.5,0-4,.5-6.5,1.5l-13.5,4.5c-.5,0-1,1-1,2l11,33.5c0,.5.5,1,1.5,1h.5l11.5-3.5c1.5-.5,3-1,4-1.5,2-.5,3.5-1,4-1.5,2-.5,3.5-2,4.5-3.5l.5-.5c1-1,1.5-2.5,1.5-4.5s0-3.5-.5-5.5c-.5-2.5-1.5-4.5-3.5-5.5Zm-5.5,10.5c-.5.5-.5,1-1,1s-2,.5-4.5,1.5l-5,1.5-2-6,4.5-1c3.5-1,5-1.5,5.5-1.5s1.5.5,1.5.5c.5.5,1,1.5,1,2v.5c0,.67,0,1.17,0,1.5Zm-15-16c.5,0,1.5-.5,2-.5,3-1,3.5-1,4-1h2c.5.5.5,1.5,1,2s.5,1,0,1.5-1,1-1.5,1c-1,0-3,1-5,1.5l-3,1-1.5-5.5s2,0,2,0Z"/>
      </g>
    </g>
  </g>
</svg>