<?xml version="1.0" encoding="UTF-8"?>
<svg id="Calque_2" data-name="Calque 2" xmlns="http://www.w3.org/2000/svg" viewBox="0 0 429.91 97.7">
  <defs>
    <style>
      .cls-1 {
        fill: #e763a0;
      }
    </style>
  </defs>
  <g id="Calque_1-2" data-name="Calque 1">
    <g id="Calque_1-2" data-name="Calque 1-2">
      <g>
        <path class="cls-1" d="m29.91,77.2c-1.5-1.5-3-3-5-3.5-2.5-.5-5-1-8-1.5-4.5-.5-6-1-6.5-1.5l-.5-.5c0-.5.5-1.5.5-1.5.5-.5,2-1,3.5-1.5,2,0,2.5,0,3,1,0,.5.5.5.5.5.5.5,1.5,1.5,2,2.5,0,.5,1,1,1.5,1l7-1.5c.5,0,1-1,1-1.5-.5-3.5-2.5-6.5-5-8-3-1.5-6.5-2-11-1.5-3,0-5,1-7,2-2.5,1-3.5,3-4.5,4.5-1,1.5-2,3.5-1,6,.5,3,2.5,6,5,7.5,2,1.5,5,2,9.5,3,2,0,3.5,0,4.5.5h1.5c1,0,1.5.5,2,.5.33.33.5.67.5,1v.5c0,.5,0,1-.5,2-.5.5-2,1-4,1.5-2.5,0-3.5,0-4.5-1h-.5c-1-.5-2-2-2.5-4-.5-.5-1-1-1.5-.5l-6.5,1.5c-.5,0-.5.5-1,.5,0,.5-.5.5,0,1,1,4,3,7,6,9.5,2,1,5,2,8,2h3.5c2.5-.5,5-1.5,8-2.5,2.5-1,3.5-3,4.5-5,1.5-2.5,1.5-5,1-7-1.5-3-2-4.5-3.5-6Z"/>
        <path class="cls-1" d="m61.91,53.2c0-.33-.17-.67-.5-1-.5,0-.5-.5-1-.5l-7,1c-.5,0-.5.5-1,.5,0,.5-.5.5-.5,1l3,19.5c.5,3,.5,5,.5,6s-.5,1.5-1,2.5c-.5.5-2,1-4,1.5-1.5.5-3,0-4-.5-.5,0-1-.5-1.5-2,0-.5,0-1.5-.5-3,0-1-.5-2-.5-3l-3-19c0-1-1-1.5-1.5-1l-7,1c-.5,0-.5.5-1,.5,0,.5-.5.5,0,1l3.5,18.5c.5,3.5,1,6.5,2,9,.5,1,1.5,2.5,3,4,1,1,2.5,2,5,3,1,.5,2,.5,3.5.5s3,0,4.5-.5c2.5,0,4.5-.5,7-2,1.5-1,3-2,3.5-3.5,1.5-1.5,2-3,2-5,.5-2,0-4.5-.5-8,0,0-3-20.5-3-20.5Z"/>
        <path class="cls-1" d="m96.41,64.7c.5-.5,1-1.5,1.5-2.5.5-1.5.5-3.5.5-5,0-2-.5-4-2-5-1-1-2-2-3.5-3l-1-.5c-1-.5-2-1-3.5-1-1,0-3,0-6,.5l-14,2.5c-1,0-1.5,1-1,1.5l5,35.5c0,.5.5.5.5,1,0,0,.5.5,1,.5h0l12-2c6.5-.5,8-1.5,8.5-1.5,2.5-.5,4-2,5-3s2.5-3,3-4.5c.5-2,.5-4,.5-5.5-.5-2-1-4-3-5.5-1-1.5-2.5-2-3.5-2.5Zm-8.5-3.5h0c-.5.5-1.5,1-2.5,1.5,0,0-1,0-2,.5-1,0-1.5,0-2.5.5l-3,.5-.5-5,3-.5c2-.5,3.5-.5,4.5-1h1c0,.5.5.5.5,1,.5.5.5,1,.5,1v.5c1,0,1.33.33,1,1Zm-3.5,10c3-.5,5-.5,6-.5.5.5,1.5,1,2,1,0,0,.5,1,.5,1.5,0,1,0,1.5-.5,2.5-.5.5-1,1-2,1.5-.5,0-1,.5-2,.5-.5,0-1.5,0-2.5.5l-5,1-1-6.5s4.5-1.5,4.5-1.5Z"/>
        <path class="cls-1" d="m133.41,42.7c0-.33-.17-.67-.5-1-.5,0-.5-.5-1-.5l-7,1c-.5,0-.5.5-1,.5,0,.5-.5.5-.5,1l3,19.5c.5,3,.5,5,.5,6s-.5,1.5-1,2.5c-.5.5-2,1-4,1.5-1.5.5-3,0-4-.5-.5,0-1-.5-1.5-2,0-.5,0-1.5-.5-3,0-1-.5-2-.5-3l-3-19c0-1-1-1.5-1.5-1l-7,1c-.5,0-.5.5-1,.5,0,.5-.5.5-.5,1l3,18.5c.5,3.5,1,6.5,2,9,.5,1,1.5,2.5,3,4,1,1,2.5,2,5,3,1,.5,2,.5,3.5.5s3,0,5-.5c2.5-.5,5.5-1,7-2,1.5-1,3-2,3.5-3.5,1.5-1.5,2-3,2-5,.5-2,0-4.5-.5-8,0,0-2.5-20.5-2.5-20.5Z"/>
        <path class="cls-1" d="m171.91,64.7c-1.5-2-3-3-4-4l-1-1c-.5-.5-1-1-1.5-1,1.5-1,3-2,4-3.5,1.5-2.5,2.5-5,2-8s-1-4.5-3-6c-1-1-2.5-2-5.5-3-2,0-5,0-8.5.5l-15,2c-.33,0-.67.17-1,.5,0,.5-.5.5-.5,1l5,35c0,.5.5.5.5,1,0,0,.5.5,1,.5h.5l7.5-1.5c.5,0,1-1,1-1.5l-2-13.5h3.5c.33,0,.67.17,1,.5q.5.5,1,.5c.5,0,1.5,1,4,4l6,7c.5.5,1,.5,1.5.5l8.5-1.5c.5,0,1-.5,1-1s0-1-.5-1.5l-5.5-6h0Zm-10.5-16.5c0,.67-.17,1.33-.5,2-.5.5-.5,1-1.5,1.5-.5.5-2,1-6,1.5l-3.5.5-.5-6,4-1c1,0,3-.5,4.5-.5,1,0,1.5.5,2,.5l.5.5c1,0,1,1,1,1Z"/>
        <path class="cls-1" d="m202.91,49.2c1-1,1.5-2,2-3,.5-1.5.5-3.5.5-5,0-2-.5-4-2-5-1-1-2-2-3.5-3l-1-.5c-1-.5-2-1-3.5-1-1,0-3,0-6,.5l-14,2c-1,0-1.5,1-1,1.5l4.5,35c0,.5.5,1,1.5,1h0l12-1.5c6.5-.5,8-1,8.5-1.5,2.5-.5,4-2,5-3l.5-.5c1-1,2-1.5,2.5-3.5s.5-4,.5-5.5c-.5-2-1-4-3-5.5-1-.5-2.5-1-3.5-1.5Zm-8-4h0c-.5.5-1.5,1-2.5,1.5,0,0-1,0-2,.5-1,0-1.5,0-2.5.5l-3,.5-.5-5.5,1.5-.5c2.5,0,4.5-.5,5-.5h.5c1,0,1.5.5,2,.5l.5.5c.5.5.5,1,.5,1v.5c.67,0,.83.33.5,1Zm-4,10.5c3-.5,5-.5,6-.5.5.5,1.5,1,2,1,0,0,.5,1,.5,1.5,0,1,0,1.5-.5,2.5-.5.5-1,1-2,1.5-.5,0-1,.5-2,.5-.5,0-1.5,0-2.5.5l-5,1-1-7.5,4.5-.5Z"/>
        <path class="cls-1" d="m271.91,22.2c-.5,0-.5-.5-1-.5l-6.5,1c-1,0-1.5,1-1,1.5l2.5,18.5-14.5-17.5c-.33-.33-.67-.5-1-.5l-6.5.5c-.33,0-.67.17-1,.5,0,.5-.5.5-.5,1l4,29.5-16-28c-.5-.5-1-1-1.5-.5l-7.5,1c-.5,0-1,.5-1,1l-9,36.5c0,.5,0,1,.5,1.5s.5.5,1,.5h0l7.5-1c.5,0,1-.5,1-1l2-7,12-1.5,4,6.5c.5.5,1,.5,1.5.5l7.5-1c.5,0,.5-.5,1-.5l6-.5c.33,0,.67-.17,1-.5,0-.5.5-.5.5-1l-2.5-18,14,17c.5.5,1,.5,1.5.5l7-1c1,0,1.5-1,1-1.5l-4.5-35c-1-.5-1.5-1-1.5-1Zm-42,27l-5.5.5,1.5-8,4,7.5Z"/>
        <path class="cls-1" d="m333.91,13.2l-7,1c-.5,0-1,.5-1,1.5l-1.5,19-7.5-18c0-.5-1-1-1.5-1l-8.5,1c-.5,0-1,.5-1,1l-2.5,19-6.5-18c0-.5-1-1-1.5-1l-7,1c-.5,0-1,.5-1,.5,0,0-.5,1,0,1l13,34c0,.5.5,1,1.5,1h0l7.5-1c.5,0,1-.5,1-1l3-22,8.5,20c0,.5,1,1,1.5,1l7.5-1c.5,0,1-.5,1-1.5l3.5-36c0-.5,0-1-.5-1-.5.5-1,.5-1,.5Z"/>
        <path class="cls-1" d="m369.91,38.7c-.5,0-.5-.5-1-.5l-18.5,2.5-1-6.5,16-2.5c.5,0,.5-.5,1-.5s.5-.5.5-1l-1-6c0-1-1-1.5-1.5-1l-16,2.5-.5-4.5,17.5-2.5c.5,0,.5-.5,1-.5,0-.5.5-.5.5-1l-1-6c0-1-1-1.5-1.5-1l-25.5,3.5c-1,0-1.5,1-1,1.5l4.5,35c0,.33.17.67.5,1q.5.5,1,.5h0l26.5-3.5c1,0,1.5-1,1-1.5l-.5-6c-.5-1.5-1-2-1-2Z"/>
        <path class="cls-1" d="m399.41,24.7c-1.5-1.5-3-3-5-3.5-2.5-.5-5-1-8-1.5-1.5,0-3-.5-4.5-.5-1,0-1.5,0-2-.5l-.5-.5c0-.5.5-1.5.5-1.5.5-.5,2-1,4-1.5,1-.5,2.5,0,3.5.5.5.5,1.5,1,2.5,3.5.5.5,1,1,1.5,1l7-1.5c.5,0,1-1,1-1.5-.5-3.5-2.5-6.5-5-8-3-1.5-6.5-2-11-1.5-3,0-5,1-7,2-2.5,1-3.5,3-4.5,4.5-1,2-1,3.5-1,6,0,3,2,6,4.5,7.5,2,1.5,5.5,2.5,9.5,2.5,1,0,2,.5,3,.5,1.5.5,2.5.5,3,.5s1.5.5,1.5.5c.33.33.5.67.5,1,0,.5-.5,2-1,2.5s-2,1-4,1.5c-2.5,0-3.5,0-5-1-.5-.5-2-2-2.5-3.5,0-.5-1-1-1.5-1l-7.5,1c-.5,0-.5.5-1,.5,0,.5-.5.5,0,1,1,4.5,3,7,6,10,2,1,5,2,8,2h3.5c2.5-.5,5.5-1.5,8-2.5,1.5-1,3-2.5,4.5-5s1.5-5,1-6.5c.5-3.5-1-5.5-2-7Z"/>
        <path class="cls-1" d="m428.91,1.2c0-1-1-1.5-1.5-1l-27.5,4c-.5,0-1.5,1-1,1.5l.5,6c0,.33.17.67.5,1,.5,0,.5.5,1,.5l9-1.5,4,27.5c0,.5.5.5.5,1,0,0,.5.5,1,.5h0l7-1c1,0,1.5-1,1-1.5l-4-27.5,9-1.5c.5,0,.5-.5,1-.5s.5-.5.5-1c0,0-1-6.5-1-6.5Z"/>
      </g>
    </g>
  </g>
</svg>