<?xml version="1.0" encoding="UTF-8"?>
<svg id="Calque_2" data-name="Calque 2" xmlns="http://www.w3.org/2000/svg" viewBox="0 0 351 59.5">
  <defs>
    <style>
      .cls-1 {
        fill: #e763a0;
      }
    </style>
  </defs>
  <g id="Calque_1-2" data-name="Calque 1">
    <g id="Calque_1-2" data-name="Calque 1-2">
      <g>
        <path class="cls-1" d="m30,2L2,0c-.5,0-1.5.5-1.5,1.5l-.5,6c0,.5,0,1,.5,1,.33.33.67.5,1,.5l9,.5-2,27.5c0,1,.5,1.5,1.5,1.5l7,.5h0c.33,0,.67-.17,1-.5.5,0,.5-.5.5-1l2-27.5,9,.5c1,0,1.5-.5,1.5-1.5l.5-5.5c0-.5,0-1-.5-1s-.5-.5-1-.5Z"/>
        <path class="cls-1" d="m63.5,4l-7-.5c-.5,0-1.5.5-1.5,1.5l-1,12.5-11-1,1-12c0-.33-.17-.67-.5-1,0-.5-.5-.5-1-.5l-7-.5c-.33,0-.67.17-1,.5s-.5.67-.5,1l-2.5,35c0,.33.17.67.5,1,0,.5.5.5,1,.5l7,.5c.5,0,1.5-.5,1.5-1.5l1.5-14,10.5,1-1,13.5c0,1,.5,1.5,1.5,1.5l7,.5h0c.5,0,1.5-.5,1.5-1.5l2.5-35c0-.33-.17-.67-.5-1q-.5-.5-1-.5Z"/>
        <path class="cls-1" d="m97.5,6l-26-1.5c-1,0-1.5.5-1.5,1.5l-2.5,35c0,1,.5,1.5,1.5,1.5l27,2.5h0c.33,0,.67-.17,1-.5.5,0,.5-.5.5-1l.5-6c0-.33-.17-.67-.5-1-.33-.33-.67-.5-1-.5l-18-1.5.5-6.5,16,1c.5,0,1,0,1-.5s.5-.5.5-1v-6c0-.5-.5-1.5-1.5-1.5l-16-1.5.5-5,17.5,1.5c1,0,1.5-.5,1.5-1.5l.5-6c0-.5,0-1-.5-1,0-.5-.5-.5-1-.5Z"/>
        <path class="cls-1" d="m137.5,23.5l-13-1,.5-5.5,15.5,1c.5,0,1.5-.5,1.5-1.5l.5-6c0-.5,0-1-.5-1,0-.5-.5-.5-1-.5l-24-1.5c-.5,0-1.5.5-1.5,1.5l-2.5,35c0,.5.5,1.5,1,1.5l7,1h0c.33,0,.67-.17,1-.5.5,0,.5-.5.5-1l1-13.5,13,1c1,0,1.5-.5,1.5-1.5l.5-6c0-.5,0-1-.5-1,.5,0,0-.5-.5-.5Z"/>
        <path class="cls-1" d="m166,12.5c0-.5-.5-1-1.5-1l-7.5-.5c-.5,0-1,.5-1.5,1l-16,34v1.5c0,.5.5.5,1,.5l7.5.5c.5,0,1-.5,1.5-1l3-7,12,1,2,7c0,.5.5,1,1.5,1l7.5.5h0c.5,0,1,0,1-.5.5-.5.5-1,0-1.5,0,0-10.5-35.5-10.5-35.5Zm-4,19.5l-5.5-.5,3-7,2.5,7.5Z"/>
        <path class="cls-1" d="m194,11.5c-5-.5-10,1-13,4.5-3.5,3-5.5,7.5-6,14.5-.5,6,.5,11,4,14.5,2.5,3.5,6.5,5.5,12,6h2.5c3,0,5.5-1,8-2.5,3-1.5,5-4.5,6.5-8.5.5-.5,0-1.5-1-2l-6.5-2.5h-1l-1,1c-.5,3-1.5,3-2,3h-1c-1.5,1-2.5,1.5-4,1.5-2,0-3.5-1-5-2.5-1.5-2-2-5-1.5-8.5,0-4,1.5-6.5,2.5-8s2.5-2,5.5-2c1,0,2.5,1,3.5,2,1,.5,1.5,1.5,2,3.5,0,.5,1,1,1.5,1l7-1c.5,0,.5-.5,1-.5s.5-.5,0-1c-.5-2-1.5-5-3.5-7-2.5-3.5-6-5-10.5-5.5Z"/>
        <path class="cls-1" d="m240.5,16l-28-2c-1,0-1.5.5-1.5,1.5l-.5,6c0,.5,0,1,.5,1,.33.33.67.5,1,.5l9,.5-2,27.5c0,1,.5,1.5,1.5,1.5l7,.5h0c.33,0,.67-.17,1-.5.5,0,.5-.5.5-1l2-27.5,9,.5c1,0,1.5-.5,1.5-1.5l.5-5.5c0-.5,0-1-.5-1,0,0-.5-.5-1-.5Z"/>
        <path class="cls-1" d="m261.5,16.5c-2.5,0-5.5,0-8,1-2,.5-4,1.5-5.5,3-1.5,1-2.5,2.5-3.5,4,0,.5-.5.5-1,1.5-.5,2.5-1.5,5.5-1.5,9.5-.5,5.5,1,10.5,4.5,14,2.5,3.5,7,5.5,13,6h2c4.5,0,8-1.5,11.5-4.5,3.5-3,5.5-7.5,6-14,0-6.5-1.5-11-4.5-14.5-3-3.5-7-5.5-13-6Zm7.5,20c-.5,4-1.5,6.5-3,8s-3,2-6,2c-2.5,0-4.5-1-6-3-1-1.5-2-4-1.5-8h0c0-3.5,1-6.5,2.5-8s3.5-2,6.5-2c3,.5,5,1.5,6,3,1,1,2,4,1.5,8Z"/>
        <path class="cls-1" d="m310.5,49.5c-1.5-3-2.5-5-3.5-6.5-.5-.5-1-1-1.5-1.5,2-.5,3.5-1.5,4.5-2.5,2-1.5,3.5-4.5,3.5-7.5.5-2,0-4.5-1-6.5-1.5-2-3-3.5-4.5-4-2-1-4.5-1.5-8.5-1.5h0l-15-1c-1,0-1.5.5-1.5,1.5l-2.5,35c0,1,.5,1.5,1.5,1.5l7,.5c.33,0,.67-.17,1-.5s.5-.67.5-1l1-13h2.5c.33.33.67.5,1,.5.5,0,.5.5,1,.5,0,.5.5,1,1,1.5.5,1,1.5,2,2.5,4l4.5,8c0,.5.5.5,1,.5l8.5.5h0c.5,0,1,0,1-.5.5-.5.5-1,0-1.5,0,0-4-6.5-4-6.5Zm-7.5-19.5c.5.5.5,1,.5,2v1c-.5,0-.5.5-.5.5l-.5.5h-10.5l.5-6,4,.5c1.5,0,3,0,4,.5h1s1,0,1.5,1c0-.5,0,0,0,0Z"/>
        <path class="cls-1" d="m351,24c0-.5-.5-1-1-1l-8-.5c-.5,0-1,0-1.5.5l-7.5,11.5-6.5-12.5c0-.5-.5-.5-1-1h-8.5c-.5,0-1,0-1.5.5s-.5,1,0,1.5l11.5,20.5-1,14.5c0,.5,0,1,.5,1,.33.33.67.5,1,.5h6.5c.5,0,1.5-.5,1.5-1.5l1-14,14.5-19s0-1,0-1Z"/>
      </g>
    </g>
  </g>
</svg>