<?xml version="1.0" encoding="UTF-8"?>
<svg id="Calque_2" data-name="Calque 2" xmlns="http://www.w3.org/2000/svg" viewBox="0 0 417.42 72.21">
  <defs>
    <style>
      .cls-1 {
        fill: #e8629f;
      }
    </style>
  </defs>
  <g id="Calque_1-2" data-name="Calque 1">
    <g id="Calque_1-2" data-name="Calque 1-2">
      <g>
        <path class="cls-1" d="m28.72,24.71L1.22,29.71c-.5,0-.5.5-1,.5,0,.5-.5.5,0,1l1,6c0,1,1,1.5,1.5,1l9-1.5,5,27.5c0,.5.5,1,1.5,1h.5l7-1.5c1,0,1.5-1,1-1.5l-5-27.5,9-1.5c.5,0,.5-.5,1-.5,0-.5.5-.5,0-1l-1.5-6c0-.5-1-1-1.5-1Z"/>
        <path class="cls-1" d="m64.72,20.21c-.5,0-.5-.5-1-.5l-7,1c-1,0-1.5,1-1,1.5l1.5,12.5-11,1.5-1.5-12.5c0-.33-.17-.67-.5-1-.5,0-.5-.5-1-.5l-7,1c-1,0-1.5,1-1,1.5l4.5,35c0,.33.17.67.5,1q.5.5,1,.5h0l7-1c1,0,1.5-1,1-1.5l-1.5-14,11-1.5,1.5,14c0,.33.17.67.5,1,.5,0,.5.5,1,.5l7-1c1,0,1.5-1,1-1.5l-4.5-35s-.5-.5-.5-1Z"/>
        <path class="cls-1" d="m80.22,18.71c-.5,0-.5-.5-1-.5l-7,.5c-1,0-1.5,1-1.5,1.5l3,35c0,.5.5,1.5,1.5,1.5h0l7-.5c.33,0,.67-.17,1-.5s.5-.67.5-1l-3-35s0-.5-.5-1Z"/>
        <path class="cls-1" d="m115.22,46.21c-2-3-3.5-4.5-4.5-6l-1.5-1.5c2-.5,3.5-2,4.5-3,1.5-2,2.5-4.5,2.5-7.5,0-2.5-1-4.5-2-6-1.5-2-3-3-5-3.5-2-1-5-1-9-1l-15,.5c-.33,0-.67.17-1,.5-.33.33-.5.67-.5,1l1.5,35c0,.33.17.67.5,1,.5,0,.5.5,1,.5h0l7-.5c1,0,1.5-.5,1.5-1.5l-.5-13.5h3c.5,0,1,.5,1.5,1,.5.5,1.5,1.5,4,5l5.5,7.5c.33.33.67.5,1,.5l8.5-.5c.5,0,1-.5,1-1v-1.5s-4-5.5-4-5.5Zm-9.5-17c0,1,0,1.5-.5,2s-.5,1-1,1-1.5.5-6,.5h-4l-.5-6h9c1,0,1.5.5,2,1,1,0,1,.5,1,1.5Z"/>
        <path class="cls-1" d="m144.22,33.21c-2-1-4.5-2-8-2.5-4.5-1-5.5-2-6-2-.5-.5-.5-1-.5-1,0-.5,0-1,.5-1,1-.5,2-1,4-1,1.5,0,3,.5,3.5,1s1,1.5,1.5,3c0,.5,1,1,1.5,1l7-.5c1,0,1.5-.5,1.5-1.5,0-3.5-1.5-6.5-4-9-2.5-2-6-3.5-11-3.5-3,0-5.5.5-7.5,1.5s-4,2.5-5,4c-1,2-1.5,4-1.5,6,0,3,1,6,3.5,8,1.5,1.5,4.5,3,8.5,4,3.5,1,5,1.5,5.5,1.5,1.5.5,2,1,2,1,.33.33.5.67.5,1,0,1-.5,1.5-1.5,2.5-1,.5-2.5,1-4.5,1s-3-.5-4-1.5-1.5-2.5-2-4.5c0-.5-1-1-1.5-1l-6.5,1c-.33,0-.67.17-1,.5-.33.33-.5.67-.5,1,.5,4.5,2,7.5,4.5,10s6.5,3.5,11,3.5h.5c3,0,6-.5,8-1.5,2.5-1,4-2.5,5.5-4.5s2-4,2-6.5-.5-4.5-1.5-6.5c-1-1.5-2.5-2.5-4.5-3.5Z"/>
        <path class="cls-1" d="m181.22,18.71l-28-1.5c-1,0-1.5.5-1.5,1.5l-.5,6c0,.33.17.67.5,1,.33.33.67.5,1,.5l9,.5-1.5,27.5c0,.33.17.67.5,1,.33.33.67.5,1,.5l7,.5h0c1,0,1.5-.5,1.5-1.5l1.5-28,9,.5c1,0,1.5-.5,1.5-1.5l.5-6c0-.33-.17-.67-.5-1-.5,0-1,0-1,0Z"/>
        <path class="cls-1" d="m217.22,22.21l-8-1c-.5,0-1,0-1.5.5l-8,11-6-12.5c0-.5-.5-1-1-1l-8.5-1c-.5,0-1,0-1.5.5s-.5,1,0,1.5l10.5,21.5-1.5,14.5c0,1,.5,1.5,1.5,1.5l7,.5h0c.33,0,.67-.17,1-.5.5,0,.5-.5.5-1l1.5-14.5,15-18.5c.5-.5.5-1,0-1.5,0,.5-.5,0-1,0Z"/>
        <path class="cls-1" d="m256.72,32.71c-1.5-1-3.5-1.5-6.5-2.5l-12.5-3.5h-1c-.5,0-.5.5-.5,1l-9,34v1c0,.5.5.5,1,.5l13,3.5c2.5.5,4.5,1,6,1h.5c2.5,0,4.5-.5,6-1.5,2-1,4-3,5.5-5.5,1.5-2,2.5-4.5,3-7.5,1-3.5,1-6.5,1-9s-1-5-2-7c-.5-1.5-2.5-3-4.5-4.5Zm-8,26c-.5.5-1.5.5-2.5.5-.5,0-1.5,0-4-.5l-4-1,5-20,1.5.5c3.5,1,4.5,1.5,5.5,1.5,1,.5,1.5,1,2,2s1,2,1,3c0,1.5,0,3.5-1,6-.5,2.5-1.5,4.5-2,5.5-.5,1-1,2-1.5,2.5Z"/>
        <path class="cls-1" d="m293.72,63.71h-18.5v-6.5h16.5c.33,0,.67-.17,1-.5.33-.33.5-.67.5-1v-6c0-1-.5-1.5-1.5-1.5h-16.5v-5h17.5c1,0,1.5-.5,1.5-1.5v-6c0-.33-.17-.67-.5-1s-.67-.5-1-.5h-26c-1,0-1.5.5-1.5,1.5v35c0,.33.17.67.5,1,.33.33.67.5,1,.5h27c1,0,1.5-.5,1.5-1.5v-6c0-.33-.17-.67-.5-1h-1Z"/>
        <path class="cls-1" d="m320.72,47.71c-2-1-4.5-1.5-8-2-4.5-.5-6-1-6-1.5-.33-.33-.5-.67-.5-1,0-.5,0-1,.5-1,1-1,2-1,4-1.5,1.5,0,3,0,3.5.5,1,.5,1.5,1.5,1.5,3,0,.5,1,1,1.5,1l7-1c1,0,1.5-1,1-1.5-.5-3.5-2-6.5-5-8.5-2.5-2-6.5-2.5-11-2-3,.5-5.5,1-7.5,2s-3.5,2.5-4.5,4.5-1.5,4-1,6c.5,3,2,6,4.5,7.5,2,1.5,5,2.5,9,3,3,.5,5,.5,5.5,1,1.5.5,2,.5,2,1,.33.33.5.67.5,1,0,1,0,1.5-1,2.5s-2,1.5-4,1.5-3,0-4.5-1c-1-1-2-2-2.5-4,0-.5-1-1-1.5-1l-7,1.5c-.5,0-.5.5-1,.5,0,.5-.5.5,0,1,1,4,3,7.5,5.5,9.5,2.5,1.5,5.5,2.5,9,2.5h2.5c3-.5,6-1,8-2,2-1,4-3,5-5s1.5-4.5,1-6.5c0-2.5-1-4.5-2.5-6-.5-2-2-3-4-4h0Z"/>
        <path class="cls-1" d="m391.72,42.21c-2.5-2-5-3-6-4-.5-.5-1.5-.5-2-.5,1.5-1.5,2.5-3,3-4.5,1-2.5.5-5-.5-8-1-2-2.5-4-4-5-2-1-4-2-6-1.5-2,0-4.5,1-8.5,2.5l-13.5,6-.5.5h0l-26,4c-.5,0-.5.5-1,.5,0,.5-.5.5-.5,1l5.5,35c0,.5.5,1,1.5,1h0l26.5-4c.5,0,.5-.5,1-.5,0-.5.5-.5.5-1l-1-6.5c0-.5-.5-.5-.5-1-.5,0-.5-.5-1-.5l-18,3-1-6.5,16-2.5c.5,0,.5-.5,1-.5,0-.5.5-.5.5-1l-1-6c0-1-1-1.5-1.5-1l-16,2.5-1-5,17.5-2.5c.5,0,.5-.5,1-.5v-.5l11.5,26c0,.5.5.5,1,1h1l6.5-3c.5-.5,1-1,.5-2l-5.5-12h0c1.5-.5,2.5-1,3-1s1,0,2,.5c1,.5,2.5,1.5,5.5,3l8,5c.5.5,1,.5,1.5,0l8-3.5c.5,0,1-.5,1-1s0-1-.5-1.5l-8-4.5h0Zm-18-14.5h2c.5.5,1,1,1.5,1.5.5.5.5,1.5.5,2s-.5,1-1,1.5c0,0-1,1-5.5,2.5l-3.5,1.5-2.5-5.5,4-1.5c3.5-1.5,4.5-2,4.5-2h0Z"/>
        <path class="cls-1" d="m417.22,36.21l-14.5-23.5,7.5-5c.5,0,.5-.5.5-1v-1l-3-5c-.5-.5-1.5-1-2-.5l-24,14.5c-.5,0-.5.5-.5,1v1l3,5c.5.5,1.5,1,2,.5l7.5-4.5,14.5,23.5c0,.5.5.5,1,.5h1l6-3.5c1-.5,1.5-1.5,1-2h0Z"/>
      </g>
    </g>
  </g>
</svg>