<?xml version="1.0" encoding="UTF-8"?>
<svg id="Calque_2" data-name="Calque 2" xmlns="http://www.w3.org/2000/svg" viewBox="0 0 287.71 335.5">
  <defs>
    <style>
      .cls-1 {
        fill: #e763a0;
      }
    </style>
  </defs>
  <g id="Calque_1-2" data-name="Calque 1">
    <g id="Calque_1-2" data-name="Calque 1-2">
      <g>
        <path class="cls-1" d="m54.21,32.5c0-.5,0-1-.5-1l-5-5c-.5-.5-1.5-.5-2,0l-15.5,11,9.5-17c.5-.5,0-1.5-.5-1.5l-6.5-6c-.5-.5-1-.5-1.5,0l-15.5,10,9.5-15.5c.5-.5.5-1.5-.5-2L20.21.5c-.33-.33-.67-.5-1-.5-.5,0-1,.5-1,.5L.21,32c-.5.5,0,1.5.5,2l5.5,5c.5.5,1,.5,1.5,0l18.5-11.5-10.5,19.5c-.5.5,0,1.5.5,1.5l5.5,5c.5,0,.5.5,1,.5h1l30-20c0-.5.5-1,.5-1.5Z"/>
        <path class="cls-1" d="m62.21,38.5l-5-5c-.33-.33-.67-.5-1-.5s-.67.17-1,.5l-24,26c-.5.5-.5,1.5,0,2l5,5c.33.33.67.5,1,.5h0c.33,0,.67-.17,1-.5l24-26c.5-.5.5-1.5,0-2Z"/>
        <path class="cls-1" d="m87.21,62.5c0-.33-.17-.67-.5-1l-5-4.5c-.5-.5-1.5-.5-2,0l-12.5,13.5,4.5-22.5c0-.5,0-1-.5-1.5l-5-4.5c-.5-.5-1.5-.5-2,0l-24,26c-.5.5-.5,1.5,0,2l5,5c.33.33.67.5,1,.5.5,0,1,0,1-.5l12-13.5-4,21.5c0,.5,0,1,.5,1.5l5,5c.33.33.67.5,1,.5h0c.33,0,.67-.17,1-.5l24-26c.33-.33.5-.67.5-1Z"/>
        <path class="cls-1" d="m105.21,90.5c.33.33.67.5,1,.5s.67-.17,1-.5l4-4.5c.5-.5.5-1.5,0-2l-20.5-19c-.33-.33-.67-.5-1-.5s-.67.17-1,.5l-4,4.5c-.5.5-.5,1.5,0,2l6.5,6-19,20.5c-.33.33-.5.67-.5,1s.17.67.5,1l5.5,5c.5,0,.5.5,1,.5s1,0,1-.5l19-20.5s6.5,6,6.5,6Z"/>
        <path class="cls-1" d="m115.71,129c0-.5,0-1-.5-1l-13.5-12.5,4-5,12,11c.33.33.67.5,1,.5s.67-.17,1-.5l4-4.5c.5-.5.5-1.5,0-2l-12-11,3.5-3.5,13,12c.33.33.67.5,1,.5s.67-.17,1-.5l4-4.5c.5-.5.5-1.5,0-2l-19-18c-.33-.33-.67-.5-1-.5s-.67.17-1,.5l-24,26c-.5.5-.5,1.5,0,2l19.5,18c.5,0,.5.5,1,.5s.5,0,1-.5l4.5-4s.5-.5.5-1Z"/>
        <path class="cls-1" d="m155.71,127c-1-2.5-3-4.5-6-7l-11-10c-.5-.5-1.5-.5-2,0l-24,26c-.33.33-.5.67-.5,1s.17.67.5,1l6,5c.5.5,1.5.5,2,0l9-10h0c1,.5,1.5,1,1.5,1.5s.5.5.5.5v1.5c0,.5-.5,2-.5,4l-1,11.5c0,.5,0,1,.5,1l6,6c.33.33.67.5,1,.5h.5c.5,0,1-.5,1-1l2-10c.5-2.5.5-4,.5-5.5v-2c1.5,1,3.5,1,5.5,1,2.5,0,4.5-1,7-3.5,2-2,2.5-3.5,3-5.5,0-2.5,0-4.5-1.5-6Zm-9,4.5c0,.5-.5,1-.5,1-.67.67-1.17,1-1.5,1-.67,0-1.33-.17-2-.5-1-.5-2.5-2-4.5-4l-3-2,5-4.5,6.5,6.5c.5.5.5,1,.5,2,0,.67-.17.83-.5.5Z"/>
        <path class="cls-1" d="m196.71,164c0-.5,0-1-.5-1l-5.5-5c-.5-.5-1-.5-1.5,0l-20.5,11,9.5-21c0-.5,0-1-.5-1.5l-5.5-5c-.5-.5-1-.5-1.5-.5s-1,.5-1,1l-14.5,34c0,.5,0,1,.5,1.5l5.5,4.5c.5,0,.5.5,1,.5h.5l33-17c.5-.5,1-1,1-1.5Z"/>
        <path class="cls-1" d="m204.21,173l-4.5-5.5c0-.5-.5-.5-1-.5s-1,0-1,.5l-26.5,23c-.5.5-.5,1.5,0,2l4.5,5.5c0,.5.5.5,1,.5h0c.33,0,.67-.17,1-.5l26.5-23c.5-.5.5-1.5,0-2Z"/>
        <path class="cls-1" d="m200.71,215l-10-13,22-16.5c.5,0,.5-.5.5-1s0-1-.5-1l-4.5-5.5c-.5-.5-1.5-.5-2,0l-27.5,21c-.5.5-.5,1.5-.5,2l15,20c0,.5.5.5,1,.5h0c.33,0,.67-.17,1-.5l5-4c1-.5,1-1.5.5-2Z"/>
        <path class="cls-1" d="m254.71,246.5l-3-7c0-.5-1-1-1.5-1l-31,2s0-.5.5-.5c0-.5,0-1-.5-1l-10-13,22-16.5c.5,0,.5-.5.5-1s0-1-.5-1l-4.5-5.5c-.5-.5-1.5-.5-2,0l-27.5,21c-.5,0-.5.5-.5,1s0,1,.5,1l14.5,18h0l3,7c0,.5,1,1,1.5,1l7.5-1,5,10.5-5.5,5.5c-.5.5-.5,1-.5,1.5l3.5,7c0,.5.5.5,1,1h0c.5,0,1,0,1-.5l25.5-27c1-.5,1-1,1-1.5Zm-19.5,7.5l-2.5-5,8-1-5.5,6Z"/>
        <path class="cls-1" d="m244.71,303h.5l13-5.5c.5,0,.5-.5,1-1v-1l-6-14c0-.5-.5-.5-1-1h-1l-5.5,2.5c-.5,0-.5.5-1,1v1l3,5.5-2,1c-1-.5-2-1-2.5-2-1-1-2-2-2-3-1-2.5-1-5,0-7,1-2.5,3.5-4.5,6.5-5.5,3.5-1.5,6-2,8-1,2,1,3.5,2,4.5,4.5.5,2,1,3.5.5,4.5v.5c0,1-.5,2-2,3-.5.5-1,1-.5,2l3,6c0,.5.5.5,1,1,.5,0,1,0,1-.5,3-2.5,5-5.5,5.5-8,1-3.5.5-7.5-1.5-11.5-1.5-3-3-5.5-5.5-7.5s-5.5-3-9.5-4c-4,0-7,.5-10.5,2-3,1-6,3-8,6-2,2.5-3,5.5-4,9.5,0,3.5.5,6.5,2,10,1,3,3.5,5.5,5,7.5,2,3,4.5,4,6.5,5h1.5Z"/>
        <path class="cls-1" d="m287.21,318.5l-11-23.5c0-1-1-1-1.5-1l-32,14.5c-.5.5-1,1-.5,2l11,24.5c0,.5.5.5,1,.5h1l5.5-2.5c.5-.5,1-1,.5-2l-7.5-16.5,6-3,7,14.5c.5.5,1,1,2,.5l5.5-2.5c.5,0,.5-.5.5-1v-1l-7-15,4.5-2,7.5,16c.5.5,1,1,2,.5l5.5-2.5c.5,0,.5-.5.5-1,0,1,0,.5-.5.5Z"/>
      </g>
    </g>
  </g>
</svg>