<?xml version="1.0" encoding="UTF-8"?>
<svg id="Calque_2" data-name="Calque 2" xmlns="http://www.w3.org/2000/svg" viewBox="0 0 150.52 84.25">
  <defs>
    <style>
      .cls-1 {
        fill: #e8629f;
      }

      .cls-2 {
        fill: #fcbe1b;
      }

      .cls-3 {
        fill: #fcbe1c;
      }

      .cls-4 {
        fill: #261923;
      }
    </style>
  </defs>
  <g id="Calque_1-2" data-name="Calque 1">
    <g>
      <path class="cls-1" d="m63.16,35.95h0c15.72,0,28.46,12.74,28.46,28.46v19.85h-56.91v-19.85c0-15.71,12.75-28.46,28.46-28.46h0Z"/>
      <path class="cls-1" d="m122.06,35.95h0c15.72,0,28.46,12.74,28.46,28.46v19.85h-56.91v-19.85c0-15.71,12.78-28.46,28.46-28.46h0Z"/>
      <path class="cls-2" d="m62.5,37.44h1.28c14.39,0,26.11,11.7,26.11,26.11v20.68h-53.49v-20.7c0-14.39,11.71-26.09,26.11-26.09Z"/>
      <rect class="cls-1" x="55.67" y="62.09" width="14.93" height="22.13"/>
      <g>
        <circle class="cls-4" cx="63.16" cy="48.86" r="4.88"/>
        <path class="cls-1" d="m63.16,44.39c2.45,0,4.47,1.99,4.47,4.47s-1.99,4.47-4.47,4.47-4.47-1.99-4.47-4.47,1.99-4.47,4.47-4.47m0-.83c-2.94,0-5.29,2.35-5.29,5.29s2.35,5.29,5.29,5.29,5.29-2.35,5.29-5.29-2.4-5.29-5.29-5.29h0Z"/>
      </g>
      <g>
        <rect class="cls-4" x="57.37" y="65.06" width="3.89" height="3.89"/>
        <path class="cls-3" d="m60.84,65.49v3.06h-3.06v-3.06h3.06m.83-.83h-4.72v4.72h4.72v-4.72h0Z"/>
      </g>
      <g>
        <rect class="cls-4" x="65.02" y="65.06" width="3.89" height="3.89"/>
        <path class="cls-3" d="m68.53,65.49v3.06h-3.06v-3.06h3.06m.83-.83h-4.72v4.72h4.72v-4.72h0Z"/>
      </g>
      <path class="cls-2" d="m121.4,37.44h1.28c14.39,0,26.11,11.7,26.11,26.11v20.68h-53.45v-20.7c0-14.39,11.67-26.09,26.06-26.09h0Z"/>
      <rect class="cls-1" x="114.57" y="62.09" width="14.93" height="22.13"/>
      <g>
        <circle class="cls-4" cx="122.06" cy="48.86" r="4.88"/>
        <path class="cls-1" d="m122.06,44.39c2.45,0,4.47,1.99,4.47,4.47s-1.99,4.47-4.47,4.47-4.47-1.99-4.47-4.47,2.02-4.47,4.47-4.47m0-.83c-2.94,0-5.29,2.35-5.29,5.29s2.35,5.29,5.29,5.29,5.29-2.35,5.29-5.29-2.35-5.29-5.29-5.29h0Z"/>
      </g>
      <g>
        <rect class="cls-4" x="116.27" y="65.06" width="3.89" height="3.89"/>
        <path class="cls-3" d="m119.74,65.49v3.06h-3.06v-3.06h3.06m.82-.83h-4.72v4.72h4.72v-4.72h0Z"/>
      </g>
      <g>
        <rect class="cls-4" x="123.96" y="65.06" width="3.89" height="3.89"/>
        <path class="cls-3" d="m127.43,65.49v3.06h-3.06v-3.06h3.06m.83-.83h-4.72v4.72h4.72v-4.72h0Z"/>
      </g>
      <g>
        <path class="cls-2" d="m24.15,15.23h5.29v-2.35h1.53v-1.36L15.46.01,0,11.5v1.36h1.53v2.35h5.29v13.86H1.99v-.95h4.83v-.62H1.99v-.87h4.83v-.61H1.99v-.74h4.83v-.62H1.99v-2.73h4.83v-.62H1.33v7.74h.2v2.78h1.03v.13l4.42,4.55h.05v1.94h2.07v45.79h12.78v-45.8h2.07v-1.94h.05l4.42-4.55v-.13h1.03v-2.78h.21v-7.74h-5.5v.62h4.84v2.61h-4.84v.62h4.84v.74h-4.84v.62h4.84v.87h-4.84v.62h4.84v.95h-4.84v-13.73h-.01Zm-15.05,20.72h-1.74l-4.01-4.14h5.75v4.14Zm5.87-13.06h-6.74v-7.66h6.74s0,7.66,0,7.66Zm1.03,0v-7.66h6.74v7.69h-6.74s0-.04,0-.04Zm11.63,8.93l-4.01,4.14h-1.74v-4.14h5.75Z"/>
        <g>
          <rect class="cls-4" x="8.64" y="15.64" width="5.91" height="6.87"/>
          <path class="cls-1" d="m14.15,16.05v6.04h-5.09v-6.04h5.09m.82-.82h-6.74v7.69h6.74v-7.69h0Z"/>
        </g>
        <g>
          <rect class="cls-4" x="16.42" y="15.64" width="5.91" height="6.87"/>
          <path class="cls-1" d="m21.92,16.05v6.04h-5.09v-6.04h5.09m.83-.82h-6.74v7.69h6.74v-7.69h0Z"/>
        </g>
        <polygon class="cls-1" points="0 12.86 0 11.5 15.48 0 30.99 11.5 30.99 12.86 0 12.86"/>
        <rect class="cls-1" x="1.53" y="29.05" width="27.92" height="2.78"/>
      </g>
    </g>
  </g>
</svg>