<?xml version="1.0" encoding="UTF-8"?>
<svg id="Calque_2" data-name="Calque 2" xmlns="http://www.w3.org/2000/svg" viewBox="0 0 76.61 90.23">
  <defs>
    <style>
      .cls-1 {
        stroke-width: .46px;
      }

      .cls-1, .cls-2, .cls-3 {
        fill: #261923;
        stroke: #e8629f;
        stroke-miterlimit: 10;
      }

      .cls-4, .cls-5 {
        fill: #e8629f;
      }

      .cls-6 {
        fill: #fcbe1b;
      }

      .cls-5 {
        fill-rule: evenodd;
      }

      .cls-2 {
        stroke-width: .36px;
      }

      .cls-3 {
        stroke-width: .37px;
      }
    </style>
  </defs>
  <g id="Calque_1-2" data-name="Calque 1">
    <g>
      <rect class="cls-6" x=".95" y="16.34" width="74.71" height="73.64"/>
      <rect class="cls-4" y="60.11" width="76.58" height="6.61"/>
      <rect class="cls-4" y="34.92" width="76.58" height="6.61"/>
      <rect class="cls-4" y="9.73" width="76.58" height="6.61"/>
      <polygon class="cls-5" points="0 4.91 0 9.73 0 10.29 0 16.34 76.61 16.34 76.61 10.29 76.61 9.73 76.61 4.91 0 4.91"/>
      <rect class="cls-1" x="9.08" y="70.77" width="17.33" height="19.23"/>
      <rect class="cls-3" x="56.03" y="70.77" width="11.08" height="19.23"/>
      <rect class="cls-2" x="30.24" y="70.77" width="10.31" height="19.23"/>
      <rect class="cls-6" x="9.55" width="11.24" height="4.91"/>
      <rect class="cls-6" x="44" width="17.77" height="4.91"/>
      <g>
        <rect class="cls-1" x="6.42" y="21" width="7.81" height="9.29"/>
        <rect class="cls-1" x="17.59" y="21" width="7.81" height="9.29"/>
        <rect class="cls-1" x="28.78" y="21" width="7.81" height="9.29"/>
        <rect class="cls-1" x="39.95" y="21" width="7.81" height="9.29"/>
        <rect class="cls-1" x="51.14" y="21" width="7.81" height="9.29"/>
        <rect class="cls-1" x="62.31" y="21" width="7.81" height="9.29"/>
      </g>
      <g>
        <rect class="cls-1" x="6.42" y="46.18" width="7.81" height="9.29"/>
        <rect class="cls-1" x="17.59" y="46.18" width="7.81" height="9.29"/>
        <rect class="cls-1" x="28.78" y="46.18" width="7.81" height="9.29"/>
        <rect class="cls-1" x="39.95" y="46.18" width="7.81" height="9.29"/>
        <rect class="cls-1" x="51.14" y="46.18" width="7.81" height="9.29"/>
        <rect class="cls-1" x="62.31" y="46.18" width="7.81" height="9.29"/>
      </g>
    </g>
  </g>
</svg>