<?xml version="1.0" encoding="UTF-8"?>
<svg id="Calque_2" data-name="Calque 2" xmlns="http://www.w3.org/2000/svg" viewBox="0 0 257.9 351.91">
  <defs>
    <style>
      .cls-1 {
        stroke-width: .86px;
      }

      .cls-1, .cls-2 {
        fill: none;
        stroke: #e8629f;
        stroke-miterlimit: 10;
      }

      .cls-3 {
        fill: #e8629f;
      }

      .cls-4 {
        fill: #fcbe1b;
      }

      .cls-5 {
        fill: #261923;
      }

      .cls-2 {
        stroke-width: 1.71px;
      }
    </style>
  </defs>
  <g id="Calque_1-2" data-name="Calque 1">
    <g>
      <g>
        <polygon class="cls-3" points="150.29 55.34 141.74 51.15 158.85 51.15 150.29 55.34"/>
        <g>
          <rect class="cls-4" x="142.17" y="29" width="16.25" height="21.73"/>
          <path class="cls-3" d="m157.99,29.43v20.87h-15.4v-20.87h15.4m.86-.86h-17.11v22.58h17.11v-22.58h0Z"/>
        </g>
        <path class="cls-3" d="m150.29,13.77c-2.65,9.15-8.55,14.88-8.55,14.88h17.11c0-.09-5.9-5.73-8.55-14.88h0Z"/>
      </g>
      <g>
        <polygon class="cls-3" points="57.48 317.61 33.02 305.72 81.95 305.72 57.48 317.61"/>
        <g>
          <rect class="cls-4" x="33.45" y="131.13" width="48.07" height="174.16"/>
          <path class="cls-3" d="m81.09,131.56v173.3h-47.22v-173.3h47.22m.86-.86h-48.93v175.01h48.93v-175.01h0Z"/>
        </g>
        <path class="cls-3" d="m57.48,88.36c-7.61,26.17-24.46,42.34-24.46,42.34h48.93s-16.85-16.17-24.46-42.34h0Z"/>
        <g>
          <rect class="cls-5" x="52.95" y="147.55" width="10.01" height="17.88"/>
          <path class="cls-3" d="m62.36,148.15v16.68h-8.81v-16.68h8.81m1.2-1.2h-11.21v19.08h11.21v-19.08h0Z"/>
        </g>
      </g>
      <g>
        <polygon class="cls-3" points="124.63 229.24 104.36 217.35 144.82 217.35 124.63 229.24"/>
        <g>
          <rect class="cls-4" x="104.79" y="42.77" width="39.6" height="174.16"/>
          <path class="cls-3" d="m143.96,43.2v173.3h-38.75V43.2h38.75m.86-.86h-40.46v175.01h40.46V42.34h0Z"/>
        </g>
        <path class="cls-3" d="m124.63,0c-6.33,26.17-20.27,42.34-20.27,42.34h40.46s-13.94-16.17-20.19-42.34h0Z"/>
        <g>
          <rect class="cls-5" x="120.95" y="59.11" width="8.21" height="17.96"/>
          <path class="cls-3" d="m128.57,59.71v16.94h-7.1v-16.94h7.1m1.11-1.11h-9.32v19.08h9.32v-19.08h0Z"/>
        </g>
      </g>
      <g>
        <polygon class="cls-3" points="166.37 200.5 152.26 190.75 180.4 190.75 166.37 200.5"/>
        <g>
          <rect class="cls-4" x="152.69" y="94.61" width="27.29" height="95.8"/>
          <path class="cls-3" d="m179.55,95.03v94.95h-26.43v-94.95h26.43m.86-.86h-28.14v96.66h28.14v-96.66h0Z"/>
        </g>
        <path class="cls-3" d="m166.37,36.95c0,37.72-14.11,57.23-14.11,57.23h28.14s-14.03-19.42-14.03-57.23h0Z"/>
        <g>
          <rect class="cls-5" x="163.81" y="107.86" width="5.65" height="14.88"/>
          <path class="cls-3" d="m169.03,108.29v14.03h-4.79v-14.03h4.79m.86-.86h-6.5v15.74h6.42v-15.74h.09Z"/>
        </g>
      </g>
      <g>
        <polygon class="cls-3" points="138.66 250.46 118.39 238.65 158.85 238.65 138.66 250.46"/>
        <g>
          <rect class="cls-4" x="118.81" y="145.16" width="39.6" height="93.07"/>
          <path class="cls-3" d="m157.99,145.59v92.21h-38.75v-92.21h38.75m.86-.86h-40.46v93.92h40.46v-93.92h0Z"/>
        </g>
        <path class="cls-3" d="m138.66,58.59c-6.33,53.21-20.27,86.14-20.27,86.14h40.46s-13.86-32.93-20.19-86.14h0Z"/>
        <g>
          <rect class="cls-5" x="134.98" y="155.34" width="8.21" height="17.96"/>
          <path class="cls-3" d="m142.59,155.94v16.94h-7.1v-16.94h7.1m1.11-1.11h-9.32v19.08h9.32v-19.08h0Z"/>
        </g>
      </g>
      <g>
        <polygon class="cls-3" points="93.75 266.2 76.64 254.39 110.86 254.39 93.75 266.2"/>
        <g>
          <rect class="cls-4" x="77.07" y="79.72" width="33.36" height="174.16"/>
          <path class="cls-3" d="m110,80.15v173.3h-32.5V80.15h32.5m.86-.86h-34.22v175.01h34.22V79.29h0Z"/>
        </g>
        <path class="cls-3" d="m93.75,36.95c-5.3,26.17-17.11,42.34-17.11,42.34h34.22s-11.8-16.17-17.11-42.34h0Z"/>
        <g>
          <rect class="cls-5" x="90.67" y="96.06" width="6.84" height="18.05"/>
          <path class="cls-3" d="m97,96.57v17.11h-5.9v-17.11h5.9m1.03-1.03h-7.87v19.08h7.87v-19.08h0Z"/>
        </g>
      </g>
      <g>
        <polygon class="cls-3" points="24.46 267.14 0 255.25 48.93 255.25 24.46 267.14"/>
        <g>
          <rect class="cls-4" x=".43" y="191.27" width="48.07" height="63.64"/>
          <path class="cls-3" d="m48.07,191.69v62.79H.86v-62.79h47.22m.86-.86H0v64.5h48.93v-64.5h0Z"/>
        </g>
        <path class="cls-3" d="m24.46,148.41C16.85,174.59,0,190.84,0,190.84h48.93s-16.85-16.25-24.46-42.43h0Z"/>
        <g>
          <rect class="cls-5" x="19.93" y="202.81" width="10.01" height="17.88"/>
          <path class="cls-3" d="m29.43,203.41v16.68h-8.9v-16.68h8.9m1.2-1.2h-11.29v19.08h11.21v-19.08h.09Z"/>
        </g>
      </g>
      <g>
        <polygon class="cls-3" points="214.45 204.01 189.98 192.21 238.91 192.21 214.45 204.01"/>
        <g>
          <rect class="cls-4" x="190.41" y="128.14" width="48.07" height="63.64"/>
          <path class="cls-3" d="m238.05,128.57v62.79h-47.22v-62.79h47.22m.86-.86h-48.93v64.5h48.93v-64.5h0Z"/>
        </g>
        <path class="cls-3" d="m214.45,85.37c-7.61,26.17-24.46,42.34-24.46,42.34h48.93s-16.85-16.17-24.46-42.34h0Z"/>
        <g>
          <rect class="cls-5" x="209.91" y="139.77" width="10.01" height="17.88"/>
          <path class="cls-3" d="m219.41,140.37v16.68h-8.81v-16.68h8.81m1.2-1.2h-11.21v19.08h11.21v-19.08h0Z"/>
        </g>
      </g>
      <g>
        <polygon class="cls-3" points="100.34 286.73 68.86 273.81 131.73 273.81 100.34 286.73"/>
        <g>
          <rect class="cls-4" x="69.29" y="203.92" width="62.1" height="69.46"/>
          <path class="cls-3" d="m130.87,204.35v68.6h-61.16v-68.6h61.16m.86-.86h-62.87v70.31h62.87v-70.31h0Z"/>
        </g>
        <path class="cls-3" d="m100.34,157.22c-9.84,28.57-31.48,46.28-31.48,46.28h62.87s-21.64-17.71-31.39-46.28h0Z"/>
        <g>
          <rect class="cls-5" x="94.44" y="221.89" width="13" height="19.42"/>
          <path class="cls-3" d="m106.75,222.57v17.96h-11.63v-17.96h11.63m1.45-1.45h-14.46v20.79h14.46v-20.79h0Z"/>
        </g>
      </g>
      <g>
        <polygon class="cls-3" points="174.41 229.93 150.29 220.01 198.45 220.01 174.41 229.93"/>
        <g>
          <rect class="cls-4" x="150.72" y="166.63" width="47.3" height="53.03"/>
          <path class="cls-3" d="m197.6,167.06v52.18h-46.45v-52.18h46.45m.86-.86h-48.16v53.89h48.16v-53.89h0Z"/>
        </g>
        <path class="cls-3" d="m174.41,130.79c-7.53,21.9-24.12,35.41-24.12,35.41h48.16s-16.51-13.6-24.04-35.41Z"/>
        <g>
          <rect class="cls-5" x="169.97" y="180.23" width="9.92" height="14.88"/>
          <path class="cls-3" d="m179.38,180.83v13.77h-8.9v-13.77h8.9m1.03-1.11h-11.03v15.91h11.03v-15.91h0Z"/>
        </g>
      </g>
      <g>
        <polygon class="cls-3" points="122.49 302.12 110.86 296.48 134.04 296.48 122.49 302.12"/>
        <g>
          <rect class="cls-4" x="111.29" y="266.37" width="22.33" height="29.68"/>
          <path class="cls-3" d="m133.18,266.8v28.83h-21.47v-28.83h21.47m.86-.86h-23.18v30.54h23.18v-30.54h0Z"/>
        </g>
        <path class="cls-3" d="m122.49,245.84c-3.59,12.4-11.55,20.1-11.55,20.1h23.18c-.09,0-8.04-7.7-11.63-20.1h0Z"/>
        <g>
          <rect class="cls-5" x="120.35" y="271.67" width="4.7" height="8.47"/>
          <path class="cls-3" d="m124.8,271.93v7.87h-4.19v-7.87h4.19m.6-.51h-5.3v9.07h5.3v-9.07h0Z"/>
        </g>
      </g>
      <g>
        <polygon class="cls-3" points="246.27 147.04 234.72 141.4 257.9 141.4 246.27 147.04"/>
        <g>
          <rect class="cls-4" x="235.06" y="111.29" width="22.33" height="29.68"/>
          <path class="cls-3" d="m257.04,111.71v28.83h-21.47v-28.83h21.47m.86-.86h-23.18v30.54h23.18v-30.54h0Z"/>
        </g>
        <path class="cls-3" d="m246.27,90.76c-3.59,12.4-11.55,20.1-11.55,20.1h23.18s-8.04-7.7-11.63-20.1h0Z"/>
        <g>
          <rect class="cls-5" x="244.13" y="116.59" width="4.7" height="8.47"/>
          <path class="cls-3" d="m248.58,116.85v7.87h-4.19v-7.87h4.19m.6-.6h-5.3v9.07h5.3v-9.07h0Z"/>
        </g>
      </g>
      <g>
        <polygon class="cls-3" points="195.54 253.02 180.74 247.55 210.34 247.55 195.54 253.02"/>
        <g>
          <rect class="cls-4" x="181.17" y="218.12" width="28.74" height="29"/>
          <path class="cls-3" d="m209.48,218.55v28.14h-27.89v-28.14h27.89m.86-.86h-29.6v29.85h29.6v-29.85h0Z"/>
        </g>
        <path class="cls-3" d="m195.54,190.75c-4.62,12.15-14.8,26.94-14.8,26.94h29.6s-10.18-14.8-14.8-26.94h0Z"/>
        <g>
          <rect class="cls-5" x="192.72" y="225.57" width="6.16" height="8.21"/>
          <path class="cls-3" d="m198.62,225.82v7.53h-5.56v-7.53h5.56m.6-.6h-6.76v8.81h6.76v-8.81h0Z"/>
        </g>
      </g>
      <line class="cls-2" x1="57.48" y1="305.72" x2="57.48" y2="351.91"/>
      <line class="cls-2" x1="24.46" y1="252.77" x2="24.46" y2="298.96"/>
      <line class="cls-2" x1="100.34" y1="275.86" x2="100.34" y2="322.05"/>
      <line class="cls-2" x1="139.09" y1="237.2" x2="139.09" y2="283.39"/>
      <line class="cls-2" x1="214.96" y1="194.26" x2="214.96" y2="240.45"/>
      <line class="cls-2" x1="174.41" y1="221.46" x2="174.41" y2="267.65"/>
      <line class="cls-1" x1="195.8" y1="247.55" x2="195.8" y2="271.42"/>
      <line class="cls-1" x1="246.52" y1="141.4" x2="246.52" y2="165.18"/>
      <line class="cls-1" x1="150.29" y1="51.15" x2="150.29" y2="75.02"/>
      <line class="cls-1" x1="122.49" y1="296.48" x2="122.49" y2="320.34"/>
    </g>
  </g>
</svg>