<?xml version="1.0" encoding="UTF-8"?>
<svg id="Calque_2" data-name="Calque 2" xmlns="http://www.w3.org/2000/svg" viewBox="0 0 218.25 369.04">
  <defs>
    <style>
      .cls-1 {
        fill: #e8629f;
      }

      .cls-2 {
        fill: #fcbe1b;
      }

      .cls-3 {
        fill: #261923;
      }
    </style>
  </defs>
  <g id="Calque_1-2" data-name="Calque 1">
    <g>
      <g>
        <rect class="cls-2" x="113.93" y="218.25" width="38.82" height="89.3"/>
        <path class="cls-1" d="m152.37,218.72v88.27h-37.88v-88.36h37.88m.93-.84h-39.75v90.14h39.75v-90.14h0Z"/>
      </g>
      <g>
        <polygon class="cls-2" points="66.06 198.94 66.06 217.78 66.06 307.92 113.46 307.92 113.46 217.78 132.5 217.78 132.5 198.94 66.06 198.94"/>
        <rect class="cls-1" x="74.18" y="215.92" width="39.28" height="4.67"/>
        <g>
          <circle class="cls-3" cx="78.75" cy="218.25" r="1.4"/>
          <circle class="cls-3" cx="84.54" cy="218.25" r="1.4"/>
          <circle class="cls-3" cx="90.42" cy="218.25" r="1.4"/>
          <circle class="cls-3" cx="96.2" cy="218.25" r="1.4"/>
          <circle class="cls-3" cx="102.08" cy="218.25" r="1.4"/>
          <circle class="cls-3" cx="107.77" cy="218.25" r="1.4"/>
        </g>
        <g>
          <path class="cls-3" d="m79.31,237.1v-9.52c0-1.68,1.31-2.99,2.99-2.99s2.99,1.31,2.99,2.99v9.52h-5.97Z"/>
          <path class="cls-1" d="m82.3,224.97c1.4,0,2.52,1.12,2.52,2.52v9.05h-5.04v-9.05c0-1.4,1.21-2.52,2.52-2.52m0-.93c-1.87,0-3.45,1.59-3.45,3.45v9.98h7v-9.98c0-1.87-1.59-3.45-3.55-3.45h0Z"/>
        </g>
        <g>
          <path class="cls-3" d="m95.36,237.1v-9.52c0-1.68,1.31-2.99,2.99-2.99s2.99,1.31,2.99,2.99v9.52h-5.97Z"/>
          <path class="cls-1" d="m98.44,224.97c1.4,0,2.52,1.12,2.52,2.52v9.05h-5.04v-9.05c-.09-1.4,1.12-2.52,2.52-2.52m0-.93c-1.87,0-3.45,1.59-3.45,3.45v9.98h6.9v-9.98c0-1.87-1.59-3.45-3.45-3.45h0Z"/>
        </g>
      </g>
      <g>
        <rect class="cls-2" x="113.46" y="103.48" width="17.64" height="114.3"/>
        <rect class="cls-2" x="110.2" y="122.51" width="24.26" height="5.88"/>
        <polygon class="cls-1" points="134.46 122.51 131.1 118.88 113.46 118.88 110.2 122.51 134.46 122.51"/>
        <polygon class="cls-1" points="134.46 128.39 131.1 132.03 113.46 132.03 110.2 128.39 134.46 128.39"/>
        <g>
          <rect class="cls-2" x="107.49" y="199.49" width="29.58" height="4.95"/>
          <path class="cls-1" d="m136.7,199.96v4.01h-28.65v-4.01h28.65m.93-.93h-30.51v5.88h30.51v-5.88h0Z"/>
        </g>
        <polygon class="cls-1" points="137.63 199.03 133.43 195.39 111.22 195.39 107.03 199.03 137.63 199.03"/>
        <polygon class="cls-1" points="137.63 204.91 133.43 208.55 111.22 208.55 107.03 204.91 137.63 204.91"/>
        <path class="cls-1" d="m110.48,103.48c6.81-14.37,9.89-55.52,11.94-103.48,2.05,50.57,5.13,92.66,11.66,103.48h-23.61Z"/>
        <g>
          <path class="cls-3" d="m120.37,187.74v-6.53c0-1.12.84-1.96,1.96-1.96s1.96.84,1.96,1.96v6.53h-3.92Z"/>
          <path class="cls-1" d="m122.33,179.71c.84,0,1.49.65,1.49,1.49v6.07h-2.99v-6.07c0-.84.65-1.49,1.49-1.49m0-.93c-1.31,0-2.43,1.12-2.43,2.43v7h4.85v-7c0-1.4-1.12-2.43-2.43-2.43h0Z"/>
        </g>
        <g>
          <path class="cls-3" d="m120.37,152.47v-6.53c0-1.12.84-1.96,1.96-1.96s1.96.84,1.96,1.96v6.53h-3.92Z"/>
          <path class="cls-1" d="m122.33,144.44c.84,0,1.49.65,1.49,1.49v6.07h-2.99v-6.07c0-.84.65-1.49,1.49-1.49m0-.93c-1.31,0-2.43,1.12-2.43,2.43v7h4.85v-7c0-1.4-1.12-2.43-2.43-2.43h0Z"/>
        </g>
      </g>
      <g>
        <rect class="cls-2" x="138.56" y="171.04" width="12.13" height="47.49"/>
        <path class="cls-1" d="m139.31,189.88h10.73c1.21,0,2.24,1.03,2.24,2.24v5.23c0,1.21-1.03,2.24-2.24,2.24h-10.73c-1.21,0-2.24-1.03-2.24-2.24v-5.23c0-1.21,1.03-2.24,2.24-2.24Z"/>
        <path class="cls-1" d="m134.55,171.04c5.79-8.86,8.4-34.34,10.26-64.01,1.77,31.26,4.39,57.29,9.98,64.01h-20.25Z"/>
        <g>
          <path class="cls-3" d="m142.67,184.75v-6.53c0-1.12.84-1.96,1.96-1.96s1.96.84,1.96,1.96v6.53h-3.92Z"/>
          <path class="cls-1" d="m144.63,176.82c.84,0,1.49.65,1.49,1.49v6.07h-2.99v-6.07c0-.84.65-1.49,1.49-1.49m0-.93c-1.31,0-2.43,1.12-2.43,2.43v7h4.85v-7c0-1.4-1.03-2.43-2.43-2.43h0Z"/>
        </g>
      </g>
      <g>
        <g>
          <rect class="cls-2" x="147.15" y="218.9" width="10.17" height="19.59"/>
          <path class="cls-1" d="m156.85,219.37v18.66h-9.24v-18.66h9.24m.93-.93h-11.1v20.53h11.1v-20.53h0Z"/>
        </g>
        <path class="cls-1" d="m146.68,218.44c3.17-2.8,4.67-10.64,5.6-19.87.93,9.7,2.43,17.73,5.51,19.87h-11.1Z"/>
        <path class="cls-1" d="m146.68,238.96s1.12,3.27,5.51,3.27,5.51-3.27,5.51-3.27h-11.01Z"/>
      </g>
      <polygon class="cls-1" points="102.73 199.59 75.39 199.59 82.67 152.93 95.55 152.93 102.73 199.59"/>
      <g>
        <rect class="cls-2" x="98.16" y="152.93" width="10.08" height="46.65"/>
        <path class="cls-1" d="m95.92,152.93c4.2-8.02,6.07-31.07,7.37-57.94,1.31,28.37,3.17,51.88,7.18,57.94h-14.56Z"/>
      </g>
      <g>
        <g>
          <rect class="cls-2" x="63.36" y="199.49" width="9.7" height="21.27"/>
          <path class="cls-1" d="m72.5,199.96v20.34h-8.77v-20.34h8.77m.93-.93h-10.54v22.21h10.64v-22.21h-.09Z"/>
        </g>
        <g>
          <path class="cls-2" d="m64.38,231.87c-1.4,0-2.52-1.12-2.52-2.52v-6.53c0-.65.47-1.12,1.12-1.12h12.13v7.65c0,1.4-1.12,2.52-2.52,2.52h-8.21Z"/>
          <path class="cls-1" d="m74.65,222.17v7.18c0,1.12-.93,2.05-2.05,2.05h-8.21c-1.12,0-2.05-.93-2.05-2.05v-6.53c0-.37.28-.65.65-.65h11.66m.93-.93h-12.6c-.84,0-1.59.75-1.59,1.59v6.53c0,1.68,1.4,2.99,2.99,2.99h8.12c1.68,0,2.99-1.4,2.99-2.99v-8.12h.09Z"/>
        </g>
        <path class="cls-1" d="m61.21,199.03c4.85-5.41,7-21.09,8.49-39.28,1.49,19.22,3.64,35.18,8.3,39.28h-16.8Z"/>
      </g>
      <g>
        <polygon class="cls-2" points="95.46 161.98 94.43 178.03 89.67 161.98 84.82 178.03 83.79 161.98 82.86 178.03 82.86 204.91 96.48 204.91 96.48 178.03 95.46 161.98"/>
        <g>
          <rect class="cls-3" x="86.5" y="181.02" width="6.35" height="7.93"/>
          <path class="cls-1" d="m92.38,181.49v7h-5.41v-7h5.41m.93-.93h-7.28v8.86h7.28v-8.86h0Z"/>
        </g>
        <g>
          <rect class="cls-3" x="86.5" y="195.11" width="6.35" height="7.93"/>
          <path class="cls-1" d="m92.38,195.58v7h-5.41v-7h5.41m.93-.93h-7.28v8.86h7.28v-8.86h0Z"/>
        </g>
      </g>
      <g>
        <rect class="cls-1" x="12.6" y="299.15" width="115.8" height="8.77"/>
        <g>
          <rect class="cls-2" x="181.86" y="311.84" width="10.17" height="56.73"/>
          <path class="cls-1" d="m191.66,312.31v55.8h-9.24v-55.8h9.24m.93-.93h-11.1v57.67h11.1v-57.67h0Z"/>
        </g>
        <path class="cls-1" d="m157.13,271.53c4.95-4.48,7.18-17.45,8.77-32.56,1.49,15.86,3.73,29.11,8.49,32.56h-17.26Z"/>
        <g>
          <polygon class="cls-2" points="151.53 351.78 151.53 295.04 152.65 295.04 152.65 276.29 156.01 276.29 156.01 268.82 160.4 268.82 160.4 271.53 163.1 271.53 163.1 268.82 167.49 268.82 167.49 271.53 170.66 271.53 170.66 268.82 175.05 268.82 175.05 276.29 178.41 276.29 178.41 295.04 179.81 295.04 179.81 351.78 151.53 351.78"/>
          <path class="cls-1" d="m174.58,269.29v7.46h3.36v18.76h1.49v55.8h-27.34v-55.8h1.12v-18.76h3.36v-7.46h3.45v2.71h3.64v-2.71h3.45v2.71h4.01v-2.71h3.45m.93-.93h-5.32v2.71h-2.24v-2.71h-5.32v2.71h-1.77v-2.71h-5.32v7.46h-3.36v18.76h-1.03v57.67h29.21v-57.67h-1.49v-18.76h-3.36v-7.46h0Z"/>
        </g>
        <g>
          <rect class="cls-2" x="2.61" y="308.39" width="166.84" height="60.18"/>
          <path class="cls-1" d="m168.98,308.85v59.25H3.08v-59.25h165.9m.93-.93H2.15v61.12h167.77v-61.12h0Z"/>
        </g>
        <g>
          <g>
            <rect class="cls-2" x="2.61" y="308.39" width="20.06" height="60.18"/>
            <path class="cls-1" d="m22.21,308.85v59.25H3.08v-59.25h19.13m.93-.93H2.15v61.12h20.99v-61.12h0Z"/>
          </g>
          <rect class="cls-2" x="2.15" y="274.89" width="20.99" height="12.41"/>
          <rect class="cls-2" y="293.18" width="25.29" height="8.86"/>
          <g>
            <path class="cls-3" d="m12.5,285.06c-2.15,0-3.92-1.77-3.92-3.92s1.77-3.92,3.92-3.92,3.92,1.77,3.92,3.92-1.77,3.92-3.92,3.92Z"/>
            <path class="cls-1" d="m12.5,277.59c1.96,0,3.45,1.59,3.45,3.45s-1.59,3.45-3.45,3.45-3.45-1.59-3.45-3.45,1.49-3.45,3.45-3.45m0-.93c-2.43,0-4.39,1.96-4.39,4.39s1.96,4.39,4.39,4.39,4.39-1.96,4.39-4.39-1.96-4.39-4.39-4.39h0Z"/>
          </g>
          <polygon class="cls-1" points="2.15 307.92 0 302.04 25.29 302.04 23.14 307.92 2.15 307.92"/>
          <polygon class="cls-1" points="0 293.18 2.15 287.3 23.14 287.3 25.29 293.18 0 293.18"/>
          <path class="cls-1" d="m.65,274.89c6.81-7.65,9.89-29.49,12.04-54.96,2.05,26.87,5.13,49.17,11.76,54.96H.65Z"/>
        </g>
        <g>
          <g>
            <rect class="cls-2" x="40.22" y="308.39" width="20.06" height="60.18"/>
            <path class="cls-1" d="m59.81,308.85v59.25h-19.13v-59.25h19.13m.93-.93h-20.99v61.12h20.99v-61.12h0Z"/>
          </g>
          <rect class="cls-2" x="39.75" y="274.89" width="20.99" height="12.41"/>
          <rect class="cls-2" x="37.6" y="293.18" width="25.29" height="8.86"/>
          <g>
            <path class="cls-3" d="m50.11,285.06c-2.15,0-3.92-1.77-3.92-3.92s1.77-3.92,3.92-3.92,3.92,1.77,3.92,3.92-1.77,3.92-3.92,3.92Z"/>
            <path class="cls-1" d="m50.11,277.59c1.96,0,3.45,1.59,3.45,3.45s-1.59,3.45-3.45,3.45-3.45-1.59-3.45-3.45,1.49-3.45,3.45-3.45m0-.93c-2.43,0-4.39,1.96-4.39,4.39s1.96,4.39,4.39,4.39,4.39-1.96,4.39-4.39-1.96-4.39-4.39-4.39h0Z"/>
          </g>
          <polygon class="cls-1" points="39.75 307.92 37.6 302.04 62.89 302.04 60.74 307.92 39.75 307.92"/>
          <polygon class="cls-1" points="37.6 293.18 39.75 287.3 60.74 287.3 62.89 293.18 37.6 293.18"/>
          <path class="cls-1" d="m38.26,274.89c6.81-7.65,9.89-29.49,12.04-54.96,2.05,26.87,5.13,49.17,11.66,54.96h-23.7Z"/>
        </g>
        <g>
          <g>
            <rect class="cls-2" x="122.51" y="308.39" width="20.06" height="60.18"/>
            <path class="cls-1" d="m142.11,308.85v59.25h-19.13v-59.25h19.13m.93-.93h-20.99v61.12h20.99v-61.12h0Z"/>
          </g>
          <rect class="cls-2" x="122.05" y="274.89" width="20.99" height="12.41"/>
          <rect class="cls-2" x="119.9" y="293.18" width="25.29" height="8.86"/>
          <g>
            <path class="cls-3" d="m132.41,285.06c-2.15,0-3.92-1.77-3.92-3.92s1.77-3.92,3.92-3.92,3.92,1.77,3.92,3.92-1.77,3.92-3.92,3.92Z"/>
            <path class="cls-1" d="m132.41,277.59c1.96,0,3.45,1.59,3.45,3.45s-1.59,3.45-3.45,3.45-3.45-1.59-3.45-3.45,1.49-3.45,3.45-3.45m0-.93c-2.43,0-4.39,1.96-4.39,4.39s1.96,4.39,4.39,4.39,4.39-1.96,4.39-4.39-1.96-4.39-4.39-4.39h0Z"/>
          </g>
          <polygon class="cls-1" points="122.05 307.92 119.9 302.04 145.1 302.04 143.04 307.92 122.05 307.92"/>
          <polygon class="cls-1" points="119.9 293.18 122.05 287.3 143.04 287.3 145.1 293.18 119.9 293.18"/>
          <path class="cls-1" d="m120.46,274.89c6.81-7.65,9.89-29.49,12.04-54.96,2.05,26.87,5.13,49.17,11.66,54.96h-23.7Z"/>
        </g>
        <g>
          <g>
            <rect class="cls-2" x="170.38" y="299.62" width="13.16" height="68.96"/>
            <path class="cls-1" d="m182.98,300.08v68.02h-12.22v-68.02h12.22m.93-.93h-14.09v69.89h14.09v-69.89h0Z"/>
          </g>
          <path class="cls-1" d="m168.33,299.15c4.95-4.48,7.18-17.45,8.77-32.56,1.49,15.86,3.73,29.11,8.49,32.56h-17.26Z"/>
          <g>
            <path class="cls-3" d="m174.95,313.24v-6.53c0-1.12.84-1.96,1.96-1.96s1.96.84,1.96,1.96v6.53h-3.92Z"/>
            <path class="cls-1" d="m176.91,305.21c.84,0,1.49.65,1.49,1.49v6.07h-2.99v-6.07c0-.84.65-1.49,1.49-1.49m0-.93c-1.31,0-2.43,1.12-2.43,2.43v7h4.85v-7c0-1.31-1.12-2.43-2.43-2.43h0Z"/>
          </g>
        </g>
        <path class="cls-1" d="m195.11,288.33c4.95-4.48,7.18-17.45,8.77-32.56,1.49,15.86,3.73,29.11,8.49,32.56h-17.26Z"/>
        <g>
          <polygon class="cls-2" points="189.51 368.57 189.51 311.84 190.63 311.84 190.63 293.08 193.99 293.08 193.99 285.62 198.38 285.62 198.38 288.33 201.08 288.33 201.08 285.62 205.47 285.62 205.47 288.33 208.55 288.33 208.55 285.62 213.02 285.62 213.02 293.08 216.38 293.08 216.38 311.84 217.78 311.84 217.78 368.57 189.51 368.57"/>
          <path class="cls-1" d="m212.56,286.09v7.46h3.36v18.76h1.49v55.8h-27.34v-55.8h1.12v-18.76h3.36v-7.46h3.45v2.71h3.64v-2.71h3.45v2.71h4.01v-2.71h3.45m.93-.93h-5.32v2.71h-2.15v-2.71h-5.41v2.71h-1.77v-2.71h-5.32v7.46h-3.36v18.76h-1.12v57.67h29.21v-57.67h-1.49v-18.76h-3.36l.09-7.46h0Z"/>
        </g>
        <g>
          <rect class="cls-2" x="72.69" y="287.77" width="36.67" height="80.81"/>
          <path class="cls-1" d="m108.89,288.23v79.87h-35.74v-79.87h35.74m.93-.93h-37.6v81.74h37.6v-81.74h0Z"/>
        </g>
        <g>
          <polygon class="cls-1" points="78.47 329.75 84.63 329.75 87.06 323.13 76.23 323.13 78.47 329.75"/>
          <polygon class="cls-1" points="96.95 329.75 103.2 329.75 105.53 323.13 94.71 323.13 96.95 329.75"/>
        </g>
        <g>
          <path class="cls-3" d="m77.73,368.1v-23.79c0-7.28,5.88-13.16,13.16-13.16s13.16,5.88,13.16,13.16v23.79h-26.31Z"/>
          <path class="cls-1" d="m90.88,331.62c7,0,12.69,5.69,12.69,12.69v23.33h-25.38v-23.33c0-7,5.69-12.69,12.69-12.69m0-.93h0c-7.46,0-13.62,6.07-13.62,13.62v24.26h27.25v-24.26c0-7.56-6.16-13.62-13.62-13.62h0Z"/>
        </g>
        <polygon class="cls-1" points="106.84 287.3 75.58 287.3 83.79 240.64 98.53 240.64 106.84 287.3"/>
      </g>
    </g>
  </g>
</svg>