<?xml version="1.0" encoding="UTF-8"?>
<svg id="Calque_2" data-name="Calque 2" xmlns="http://www.w3.org/2000/svg" viewBox="0 0 217.52 252.67">
  <defs>
    <style>
      .cls-1, .cls-2 {
        fill: #e8629f;
      }

      .cls-3, .cls-4 {
        fill: #fcbe1b;
      }

      .cls-5 {
        fill: none;
        stroke: #fcbe1b;
        stroke-miterlimit: 10;
        stroke-width: 1.13px;
      }

      .cls-6 {
        fill: #261923;
      }

      .cls-6, .cls-2, .cls-4 {
        fill-rule: evenodd;
      }
    </style>
  </defs>
  <g id="Calque_1-2" data-name="Calque 1">
    <g>
      <path class="cls-2" d="m159.67,141.14h-60.06s.51,17.45,1.02,17.45h75.13l-16.09-17.45Z"/>
      <path class="cls-2" d="m138.76,134.06c-.23-.06-34.73,0-34.73,0,0,0-6.35-6.74-6.01-7.31s8.1-12.01,8.78-12.18,24.48,0,24.48,0l7.48,19.49h0Z"/>
      <path class="cls-2" d="m205.28,212.76s3.4-7.76,4.93-7.31,3.97,1.53,4.87,5.78,2.44,41.02,2.44,41.02h-12.24v-39.49Z"/>
      <path class="cls-2" d="m113.1,252.25H2.61v-25.5l4.31-5.1s-.28-8.61.57-10.43,4.59-10.43,10.43-10.31c5.84.11,15.98.96,15.98.96,0,0,17.17.06,17.85,0l5.55-.62,3.74-2.27,7.25-4.42,32.35-.91h65.27v5.27l-52.75-.11-.06,53.43h0Z"/>
      <rect class="cls-3" x="113.1" y="198.88" width="92.19" height="53.37"/>
      <rect class="cls-3" x="49.64" y="125.11" width="7.99" height="12.24"/>
      <g>
        <polygon class="cls-4" points="52.24 189.02 43.35 189.02 43.35 155.14 53.94 130.21 67.71 162.33 67.71 194.29 57.06 200.69 52.24 201.26 52.24 189.02"/>
        <path class="cls-1" d="m53.94,131.62l13.2,30.82v31.5l-10.26,6.23-4.02.45v-12.18h-8.95v-33.2l10.03-23.63m0-2.89l-11.16,26.29v34.56h8.95v12.3l5.55-.62,10.99-6.69v-32.35l-14.34-33.49h0Z"/>
      </g>
      <g>
        <path class="cls-4" d="m86.41,197.4c-8.05,0-15.86-2.61-17.56-3.23v-42.16l-1.93-2.21v-22.83l-2.89-3.74v-16.09h-5.78l.06-2.95h51.28v2.95h-2.72v14.79l-3.34,5.1v22.1l-3.4,2.89.28,41.48c-3.46,2.61-8.16,3.91-14,3.91h0Z"/>
        <path class="cls-1" d="m108.96,104.77v1.81h-2.72v15.18l-3.12,4.82-.17.28v21.98l-3,2.55-.4.34v.51l.28,40.91c-3.29,2.44-7.76,3.68-13.37,3.68-7.48,0-14.73-2.27-17.05-3.06v-41.93l-.28-.34-1.64-1.87v-22.78l-.23-.28-2.66-3.4v-16.49h-5.78l.06-1.81,50.09-.11m1.13-1.08h-52.41l-.06,4.08h5.78v15.75l2.89,3.74v22.83l1.93,2.21v42.33s8.84,3.4,18.19,3.4c5.16,0,10.48-1.02,14.51-4.31l-.28-41.48,3.4-2.89v-22.15l3.34-5.1v-14.39h2.72v-4.02h0Z"/>
      </g>
      <rect class="cls-3" x="104.03" y="134.06" width="31.28" height="7.08"/>
      <g>
        <rect class="cls-3" x="181.03" y="175.65" width="21.76" height="22.66"/>
        <path class="cls-1" d="m202.22,176.21v21.53h-20.62v-21.53h20.62m1.13-1.13h-22.89v23.8h22.89v-23.8h0Z"/>
      </g>
      <path class="cls-4" d="m33.83,193.72l-3.63-4.36,21.53.28v22.27s-5.38,8.22-17.9,0v-18.19h0Z"/>
      <g>
        <rect class="cls-3" x="7.48" y="155.59" width="34.73" height="30.82"/>
        <path class="cls-1" d="m41.65,156.16v29.69H8.05v-29.69h33.6m1.13-1.13H6.92v31.96h35.87v-31.96h0Z"/>
      </g>
      <path class="cls-4" d="m33.83,115.87h10.48v16.26s-5.16,5.04-11.11,0l.62-16.26h0Z"/>
      <path class="cls-4" d="m110.38,109.24h10.48v10.99s-5.16,3.4-11.11,0l.62-10.99h0Z"/>
      <rect class="cls-3" x="17.79" y="122.1" width="4.53" height="6.06"/>
      <rect class="cls-3" x="100.63" y="158.59" width="65.27" height="35.13"/>
      <rect class="cls-3" x="188.34" y="163.13" width="11.22" height="11.96"/>
      <g>
        <polygon class="cls-4" points="166.47 168.85 163.92 164.83 163.92 154.85 161.43 150.77 186.93 150.77 183.92 154.85 183.92 165.73 181.49 168.68 181.6 174.51 179.9 174.51 179.9 198.31 166.47 198.42 166.47 168.85"/>
        <path class="cls-1" d="m185.85,151.34l-2.21,3-.23.28v10.88l-2.21,2.66-.28.34v.4l.11,5.04h-1.7v23.8l-12.3.11v-29.18l-.17-.28-2.38-3.68v-10.03l-.17-.28-1.87-3.12,23.4.06m2.21-1.13h-27.65l2.89,4.82v9.97l2.55,3.97v30.03l14.56-.11v-23.8h1.76l-.11-6.23,2.44-2.95v-10.88l3.57-4.82h0Z"/>
      </g>
      <path class="cls-3" d="m144.6,116.78h17.51v6.69c0,1.81-1.47,3.29-3.29,3.29h-10.94c-1.81,0-3.29-1.47-3.29-3.29v-6.69h0Z"/>
      <rect class="cls-3" x="146.98" y="126.75" width="11.62" height="14.39"/>
      <polygon class="cls-4" points="125.05 121.08 133.72 121.08 135.31 125.05 135.31 104.71 125.05 104.71 125.05 121.08"/>
      <g>
        <path class="cls-4" d="m7.48,196.44l-3.85-6.12h26.69l3.63,3.12-.62,8.44c-2.1-.28-9.12-1.13-14.62-1.13h-.96c-4.87.11-8.27,5.16-9.8,8.16l-.45-12.47Z"/>
        <path class="cls-1" d="m30.09,190.83l3.29,2.78-.57,7.54c-2.61-.34-8.95-1.08-14.05-1.08h-.96c-4.31.11-7.42,3.68-9.29,6.69l-.4-10.31v-.28l-.17-.28-3.23-5.16,25.38.11m.4-1.13H2.61l4.31,6.86.57,14.62s3.74-9.8,10.31-9.97h.91c6.46,0,15.13,1.19,15.13,1.19l.68-9.29-4.02-3.4h0Z"/>
      </g>
      <path class="cls-4" d="m63.41,52.24v18.07s1.25,4.76,6.57,6.29v-24.36h-6.57Z"/>
      <g>
        <rect class="cls-3" x="70.55" y="54.68" width="7.65" height="29.35"/>
        <path class="cls-1" d="m77.63,55.24v28.22h-6.52v-28.22h6.52m1.13-1.13h-8.78v30.48h8.78v-30.48h0Z"/>
      </g>
      <path class="cls-4" d="m6.92,180.35S-.17,189.64,0,189.7s30.31.11,30.48,0,2.49-2.83,2.49-2.83l-1.76.06H6.86l.06-6.57h0Z"/>
      <path class="cls-2" d="m38.76,78.7c.06,13.15-2.61,26.46-7.82,38.08h15.64c-4.53-11.56-7.42-24.82-7.82-38.08h0Z"/>
      <path class="cls-2" d="m43.46,158.08c.06,13.88-4.99,19.21-14.17,31.5h27.25c-7.88-12.18-12.47-17.45-13.09-31.5h0Z"/>
      <path class="cls-2" d="m115.31,72.02c.06,13.09-2.55,26.46-7.82,38.08h15.64c-4.48-11.5-7.42-24.82-7.82-38.08h0Z"/>
      <path class="cls-2" d="m130.15,66.63c.06,13.09-2.55,26.46-7.82,38.08h15.64c-4.53-11.56-7.42-24.82-7.82-38.08h0Z"/>
      <path class="cls-2" d="m193.27,125.11c.06,13.15-2.55,26.46-7.82,38.08h15.64c-4.53-11.5-7.48-24.82-7.82-38.08h0Z"/>
      <path class="cls-2" d="m152.82,66.63c.06,17.28-3.4,34.85-10.31,50.14h20.62c-5.95-15.18-9.86-32.69-10.31-50.14h0Z"/>
      <path class="cls-2" d="m174.23,83.06c.06,23.12-4.53,46.63-13.83,67.14h27.65c-7.99-20.34-13.15-43.74-13.83-67.14h0Z"/>
      <path class="cls-2" d="m85.11,0c-3.8,56.32-15.81,90.43-27.42,103.63h53.83c-10.31-14.9-21.13-41.93-26.4-103.63Z"/>
      <path class="cls-2" d="m53.66,94.34c.06,10.82-2.15,21.87-6.46,31.45h12.98c-3.8-9.52-6.23-20.51-6.52-31.45h0Z"/>
      <path class="cls-2" d="m19.72,100.86c0,7.31-1.42,14.73-4.36,21.19h8.73c-2.55-6.4-4.19-13.77-4.36-21.19h0Z"/>
      <path class="cls-2" d="m65.79,30.6c0,7.48-1.42,15.02-4.36,21.64h8.73c-2.49-6.57-4.14-14.11-4.36-21.64h0Z"/>
      <path class="cls-2" d="m73.83,32.92c0,7.31-1.53,14.79-4.7,21.25h9.41c-2.72-6.4-4.48-13.83-4.7-21.25h0Z"/>
      <g>
        <g>
          <path class="cls-6" d="m140.52,193.16v-21.36c0-4.48,3.63-8.1,8.1-8.1s8.1,3.63,8.1,8.1v21.36h-16.2Z"/>
          <path class="cls-1" d="m148.57,164.26c4.14,0,7.54,3.4,7.54,7.54v20.79h-15.02v-20.79c0-4.19,3.34-7.54,7.48-7.54m0-1.13h0c-4.76,0-8.67,3.85-8.67,8.67v21.93h17.28v-21.93c.06-4.82-3.8-8.67-8.61-8.67h0Z"/>
        </g>
        <g>
          <path class="cls-6" d="m171.34,147.49v-5.44c0-1.53,1.25-2.78,2.78-2.78s2.78,1.25,2.78,2.78v5.44h-5.55Z"/>
          <path class="cls-1" d="m174.06,139.84c1.19,0,2.21.96,2.21,2.21v4.87h-4.36v-4.87c0-1.19.96-2.21,2.15-2.21m0-1.13h0c-1.81,0-3.34,1.47-3.34,3.34v6.01h6.63v-6.01c.06-1.81-1.42-3.34-3.29-3.34h0Z"/>
        </g>
        <g>
          <path class="cls-6" d="m81.76,121.99v-5.44c0-1.53,1.25-2.78,2.78-2.78s2.78,1.25,2.78,2.78v5.44h-5.55Z"/>
          <path class="cls-1" d="m84.54,114.34c1.19,0,2.21.96,2.21,2.21v4.87h-4.36v-4.87c-.06-1.19.91-2.21,2.15-2.21m0-1.13h0c-1.81,0-3.34,1.47-3.34,3.34v6.01h6.63v-6.01c0-1.81-1.47-3.34-3.29-3.34h0Z"/>
        </g>
        <g>
          <path class="cls-6" d="m31.05,168.68v-5.44c0-1.53,1.25-2.78,2.78-2.78s2.78,1.25,2.78,2.78v5.44h-5.55Z"/>
          <path class="cls-1" d="m33.83,161.09c1.19,0,2.21.96,2.21,2.21v4.87h-4.36v-4.87c-.06-1.25.91-2.21,2.15-2.21m0-1.13h0c-1.81,0-3.34,1.47-3.34,3.34v6.01h6.63v-6.01c0-1.87-1.47-3.34-3.29-3.34h0Z"/>
        </g>
        <g>
          <path class="cls-6" d="m51.17,149.47v-5.44c0-1.53,1.25-2.78,2.78-2.78s2.78,1.25,2.78,2.78v5.44h-5.55Z"/>
          <path class="cls-1" d="m53.94,141.82c1.19,0,2.21.96,2.21,2.21v4.87h-4.36v-4.87c-.06-1.19.91-2.21,2.15-2.21m0-1.13h0c-1.81,0-3.34,1.47-3.34,3.34v6.01h6.63v-6.01c0-1.81-1.47-3.34-3.29-3.34h0Z"/>
        </g>
        <g>
          <path class="cls-6" d="m104.6,169.98v-5.44c0-1.53,1.25-2.78,2.78-2.78s2.78,1.25,2.78,2.78v5.44h-5.55Z"/>
          <path class="cls-1" d="m107.37,162.39c1.19,0,2.21.96,2.21,2.21v4.87h-4.36v-4.87c-.06-1.25.91-2.21,2.15-2.21m0-1.13c-1.81,0-3.34,1.47-3.34,3.34v5.95h6.63v-6.01c0-1.81-1.47-3.29-3.29-3.29h0Z"/>
        </g>
        <g>
          <path class="cls-6" d="m118.99,169.98v-5.44c0-1.53,1.25-2.78,2.78-2.78s2.78,1.25,2.78,2.78v5.44h-5.55Z"/>
          <path class="cls-1" d="m121.71,162.39c1.19,0,2.21.96,2.21,2.21v4.87h-4.36v-4.87c0-1.25.96-2.21,2.15-2.21m0-1.13c-1.81,0-3.34,1.47-3.34,3.34v5.95h6.63v-6.01c.06-1.81-1.42-3.29-3.29-3.29h0Z"/>
        </g>
        <g>
          <path class="cls-6" d="m128.11,169.98v-5.44c0-1.53,1.25-2.78,2.78-2.78s2.78,1.25,2.78,2.78v5.44h-5.55Z"/>
          <path class="cls-1" d="m130.89,162.39c1.19,0,2.21.96,2.21,2.21v4.87h-4.36v-4.87c-.06-1.25.96-2.21,2.15-2.21m0-1.13h0c-1.81,0-3.34,1.47-3.34,3.34v5.95h6.63v-6.01c.06-1.81-1.47-3.29-3.29-3.29h0Z"/>
        </g>
        <g>
          <path class="cls-6" d="m20.4,168.68v-5.44c0-1.53,1.25-2.78,2.78-2.78s2.78,1.25,2.78,2.78v5.44h-5.55Z"/>
          <path class="cls-1" d="m23.18,161.09c1.19,0,2.21.96,2.21,2.21v4.87h-4.42v-4.87c0-1.25,1.02-2.21,2.21-2.21m0-1.13h0c-1.81,0-3.34,1.47-3.34,3.34v6.01h6.63v-6.01c.06-1.87-1.47-3.34-3.29-3.34h0Z"/>
        </g>
        <g>
          <path class="cls-6" d="m11.68,168.68v-5.44c0-1.53,1.25-2.78,2.78-2.78s2.78,1.25,2.78,2.78v5.44h-5.55Z"/>
          <path class="cls-1" d="m14.45,161.09c1.19,0,2.21.96,2.21,2.21v4.87h-4.36v-4.87c-.06-1.25.96-2.21,2.15-2.21m0-1.13h0c-1.81,0-3.34,1.47-3.34,3.34v6.01h6.63v-6.01c.06-1.87-1.47-3.34-3.29-3.34h0Z"/>
        </g>
        <g>
          <path class="cls-6" d="m169.53,249.31v-27.03c0-1.3,1.08-2.38,2.32-2.38s2.32,1.08,2.32,2.38v27.03h-4.65Z"/>
          <path class="cls-1" d="m171.91,220.47c.96,0,1.76.79,1.76,1.81v26.46h-3.57v-26.46c0-1.02.85-1.81,1.81-1.81m0-1.13c-1.64,0-2.89,1.3-2.89,2.95v27.59h5.84v-27.59c-.06-1.64-1.36-2.95-2.95-2.95h0Z"/>
        </g>
        <g>
          <path class="cls-6" d="m181.03,249.31v-27.03c0-1.3,1.08-2.38,2.32-2.38s2.32,1.08,2.32,2.38v27.03h-4.65Z"/>
          <path class="cls-1" d="m183.36,220.47c.96,0,1.76.79,1.76,1.81v26.46h-3.57v-26.46c.06-1.02.85-1.81,1.81-1.81m0-1.13c-1.64,0-2.89,1.3-2.89,2.95v27.59h5.84v-27.59c0-1.64-1.3-2.95-2.95-2.95h0Z"/>
        </g>
        <g>
          <path class="cls-6" d="m95.65,121.54v-4.93c0-1.3,1.08-2.38,2.32-2.38s2.32,1.08,2.32,2.38v4.93h-4.65Z"/>
          <path class="cls-1" d="m98.03,114.79c.96,0,1.76.79,1.76,1.81v4.36h-3.57v-4.36c0-1.02.79-1.81,1.81-1.81m0-1.13c-1.64,0-2.89,1.3-2.89,2.95v5.5h5.84v-5.5c-.06-1.64-1.36-2.95-2.95-2.95h0Z"/>
        </g>
        <g>
          <path class="cls-6" d="m61.08,182.22c0-1.3,1.08-2.38,2.32-2.38s2.32,1.08,2.32,2.38v13.54l-4.7,2.95v-16.49h.06Z"/>
          <path class="cls-1" d="m63.41,180.41c.96,0,1.76.79,1.76,1.81v13.2l-3.57,2.21v-15.41c.06-.96.85-1.81,1.81-1.81m0-1.13h0c-1.64,0-2.89,1.3-2.89,2.95v17.45l5.84-3.63v-13.88c0-1.59-1.3-2.89-2.95-2.89h0Z"/>
        </g>
        <g>
          <path class="cls-6" d="m68.85,121.54v-4.93c0-1.3,1.08-2.38,2.32-2.38s2.32,1.08,2.32,2.38v4.93h-4.65Z"/>
          <path class="cls-1" d="m71.17,114.79c.96,0,1.76.79,1.76,1.81v4.36h-3.57v-4.36c.06-1.02.85-1.81,1.81-1.81m0-1.13h0c-1.64,0-2.89,1.3-2.89,2.95v5.5h5.84v-5.5c0-1.64-1.3-2.95-2.95-2.95h0Z"/>
        </g>
        <g>
          <path class="cls-6" d="m191.8,249.31v-27.03c0-1.3,1.08-2.38,2.32-2.38s2.32,1.08,2.32,2.38v27.03h-4.65Z"/>
          <path class="cls-1" d="m194.18,220.47c.96,0,1.76.79,1.76,1.81v26.46h-3.57v-26.46c0-1.02.79-1.81,1.81-1.81m0-1.13c-1.64,0-2.89,1.3-2.89,2.95v27.59h5.84v-27.59c-.06-1.64-1.36-2.95-2.95-2.95h0Z"/>
        </g>
        <g>
          <path class="cls-6" d="m158.94,249.31v-27.03c0-1.3,1.08-2.38,2.32-2.38s2.32,1.08,2.32,2.38v27.03h-4.65Z"/>
          <path class="cls-1" d="m161.26,220.47c.96,0,1.76.79,1.76,1.81v26.46h-3.57v-26.46c.06-1.02.85-1.81,1.81-1.81m0-1.13c-1.64,0-2.89,1.3-2.89,2.95v27.59h5.84v-27.59c0-1.64-1.3-2.95-2.95-2.95h0Z"/>
        </g>
        <g>
          <path class="cls-6" d="m148,249.31v-27.03c0-1.3,1.08-2.38,2.32-2.38s2.32,1.08,2.32,2.38v27.03h-4.65Z"/>
          <path class="cls-1" d="m150.32,220.47c.96,0,1.76.79,1.76,1.81v26.46h-3.57v-26.46c.06-1.02.85-1.81,1.81-1.81m0-1.13h0c-1.64,0-2.89,1.3-2.89,2.95v27.59h5.84v-27.59c0-1.64-1.36-2.95-2.95-2.95h0Z"/>
        </g>
        <g>
          <path class="cls-6" d="m137.57,249.31v-27.03c0-1.3,1.08-2.38,2.32-2.38s2.32,1.08,2.32,2.38v27.03h-4.65Z"/>
          <path class="cls-1" d="m139.95,220.47c.96,0,1.76.79,1.76,1.81v26.46h-3.57v-26.46c0-1.02.79-1.81,1.81-1.81m0-1.13c-1.64,0-2.89,1.3-2.89,2.95v27.59h5.84v-27.59c-.06-1.64-1.36-2.95-2.95-2.95h0Z"/>
        </g>
        <g>
          <path class="cls-6" d="m125.62,249.31v-27.03c0-1.3,1.08-2.38,2.32-2.38s2.32,1.08,2.32,2.38v27.03h-4.65Z"/>
          <path class="cls-1" d="m128,220.47c.96,0,1.76.79,1.76,1.81v26.46h-3.57v-26.46c0-1.02.79-1.81,1.81-1.81m0-1.13c-1.64,0-2.89,1.3-2.89,2.95v27.59h5.78v-27.59c0-1.64-1.3-2.95-2.89-2.95h0Z"/>
        </g>
        <g>
          <path class="cls-6" d="m188.91,198.31v-13.15c0-1.3,1.08-2.38,2.32-2.38h3.97c1.3,0,2.32,1.08,2.32,2.38v13.15h-8.61Z"/>
          <path class="cls-1" d="m195.25,183.41c.96,0,1.76.79,1.76,1.81v12.52h-7.59v-12.58c0-.96.79-1.81,1.76-1.81h4.08m0-1.08h-3.97c-1.64,0-2.89,1.3-2.89,2.95v13.66h9.86v-13.71c-.06-1.59-1.36-2.89-3-2.89h0Z"/>
        </g>
        <g>
          <path class="cls-6" d="m72.75,139.61c-1.02,0-1.81-.79-1.81-1.81s.79-1.81,1.81-1.81,1.81.79,1.81,1.81-.85,1.81-1.81,1.81Z"/>
          <path class="cls-1" d="m72.75,136.55c.68,0,1.25.57,1.25,1.25s-.57,1.25-1.25,1.25-1.25-.57-1.25-1.25.51-1.25,1.25-1.25m0-1.13c-1.3,0-2.38,1.08-2.38,2.38s1.08,2.38,2.38,2.38,2.38-1.08,2.38-2.38-1.08-2.38-2.38-2.38h0Z"/>
        </g>
        <g>
          <path class="cls-6" d="m80.8,139.61c-1.02,0-1.81-.79-1.81-1.81s.79-1.81,1.81-1.81,1.81.79,1.81,1.81-.79,1.81-1.81,1.81Z"/>
          <path class="cls-1" d="m80.8,136.55c.68,0,1.25.57,1.25,1.25s-.57,1.25-1.25,1.25-1.25-.57-1.25-1.25.57-1.25,1.25-1.25m0-1.13c-1.3,0-2.38,1.08-2.38,2.38s1.08,2.38,2.38,2.38,2.38-1.08,2.38-2.38-1.02-2.38-2.38-2.38h0Z"/>
        </g>
        <g>
          <path class="cls-6" d="m90.89,139.61c-1.02,0-1.81-.79-1.81-1.81s.79-1.81,1.81-1.81,1.81.79,1.81,1.81-.79,1.81-1.81,1.81Z"/>
          <path class="cls-1" d="m90.89,136.55c.68,0,1.25.57,1.25,1.25s-.57,1.25-1.25,1.25-1.25-.57-1.25-1.25.57-1.25,1.25-1.25m0-1.13c-1.3,0-2.38,1.08-2.38,2.38s1.08,2.38,2.38,2.38,2.38-1.08,2.38-2.38-1.02-2.38-2.38-2.38h0Z"/>
        </g>
        <g>
          <path class="cls-6" d="m98.25,139.61c-1.02,0-1.81-.79-1.81-1.81s.79-1.81,1.81-1.81,1.81.79,1.81,1.81-.85,1.81-1.81,1.81Z"/>
          <path class="cls-1" d="m98.25,136.55c.68,0,1.25.57,1.25,1.25s-.57,1.25-1.25,1.25-1.25-.57-1.25-1.25.51-1.25,1.25-1.25m0-1.13c-1.3,0-2.38,1.08-2.38,2.38s1.08,2.38,2.38,2.38,2.38-1.08,2.38-2.38-1.08-2.38-2.38-2.38h0Z"/>
        </g>
        <g>
          <path class="cls-6" d="m149.36,122.9c-1.02,0-1.81-.79-1.81-1.81s.79-1.81,1.81-1.81,1.81.79,1.81,1.81-.79,1.81-1.81,1.81Z"/>
          <path class="cls-1" d="m149.36,119.84c.68,0,1.25.57,1.25,1.25s-.57,1.25-1.25,1.25-1.25-.57-1.25-1.25.57-1.25,1.25-1.25m0-1.13c-1.3,0-2.38,1.08-2.38,2.38s1.08,2.38,2.38,2.38,2.38-1.08,2.38-2.38-1.08-2.38-2.38-2.38h0Z"/>
        </g>
        <g>
          <path class="cls-6" d="m129.93,111.9c-1.02,0-1.81-.79-1.81-1.81s.79-1.81,1.81-1.81,1.81.79,1.81,1.81-.79,1.81-1.81,1.81Z"/>
          <path class="cls-1" d="m129.93,108.84c.68,0,1.25.57,1.25,1.25s-.57,1.25-1.25,1.25-1.25-.57-1.25-1.25.57-1.25,1.25-1.25m0-1.13c-1.3,0-2.38,1.08-2.38,2.38s1.08,2.38,2.38,2.38,2.38-1.08,2.38-2.38-1.02-2.38-2.38-2.38h0Z"/>
        </g>
        <g>
          <path class="cls-6" d="m45.44,203.07c-1.02,0-1.81-.79-1.81-1.81s.79-1.81,1.81-1.81,1.81.79,1.81,1.81-.79,1.81-1.81,1.81Z"/>
          <path class="cls-1" d="m45.44,200.01c.68,0,1.25.57,1.25,1.25s-.57,1.25-1.25,1.25-1.25-.57-1.25-1.25.57-1.25,1.25-1.25m0-1.13c-1.3,0-2.38,1.08-2.38,2.38s1.08,2.38,2.38,2.38,2.38-1.08,2.38-2.38-1.02-2.38-2.38-2.38h0Z"/>
        </g>
        <g>
          <path class="cls-6" d="m63.41,172.36c-1.02,0-1.81-.79-1.81-1.81s.79-1.81,1.81-1.81,1.81.79,1.81,1.81-.79,1.81-1.81,1.81Z"/>
          <path class="cls-1" d="m63.41,169.3c.68,0,1.25.57,1.25,1.25s-.57,1.25-1.25,1.25-1.25-.57-1.25-1.25.57-1.25,1.25-1.25m0-1.13c-1.3,0-2.38,1.08-2.38,2.38s1.08,2.38,2.38,2.38,2.38-1.08,2.38-2.38-1.08-2.38-2.38-2.38h0Z"/>
        </g>
        <g>
          <path class="cls-6" d="m127.55,206.19c-1.02,0-1.81-.79-1.81-1.81s.79-1.81,1.81-1.81,1.81.79,1.81,1.81-.79,1.81-1.81,1.81Z"/>
          <path class="cls-1" d="m127.55,203.13c.68,0,1.25.57,1.25,1.25s-.57,1.25-1.25,1.25-1.25-.57-1.25-1.25.57-1.25,1.25-1.25m0-1.13c-1.3,0-2.38,1.08-2.38,2.38s1.08,2.38,2.38,2.38,2.38-1.08,2.38-2.38-1.02-2.38-2.38-2.38h0Z"/>
        </g>
        <g>
          <path class="cls-6" d="m146.19,206.19c-1.02,0-1.81-.79-1.81-1.81s.79-1.81,1.81-1.81,1.81.79,1.81,1.81-.79,1.81-1.81,1.81Z"/>
          <path class="cls-1" d="m146.19,203.13c.68,0,1.25.57,1.25,1.25s-.57,1.25-1.25,1.25-1.25-.57-1.25-1.25.57-1.25,1.25-1.25m0-1.13c-1.3,0-2.38,1.08-2.38,2.38s1.08,2.38,2.38,2.38,2.38-1.08,2.38-2.38-1.02-2.38-2.38-2.38h0Z"/>
        </g>
        <g>
          <path class="cls-6" d="m164.37,206.19c-1.02,0-1.81-.79-1.81-1.81s.79-1.81,1.81-1.81,1.81.79,1.81,1.81-.79,1.81-1.81,1.81Z"/>
          <path class="cls-1" d="m164.37,203.13c.68,0,1.25.57,1.25,1.25s-.57,1.25-1.25,1.25-1.25-.57-1.25-1.25.57-1.25,1.25-1.25m0-1.13c-1.3,0-2.38,1.08-2.38,2.38s1.08,2.38,2.38,2.38,2.38-1.08,2.38-2.38-1.02-2.38-2.38-2.38h0Z"/>
        </g>
        <g>
          <path class="cls-6" d="m175.03,206.19c-1.02,0-1.81-.79-1.81-1.81s.79-1.81,1.81-1.81,1.81.79,1.81,1.81-.79,1.81-1.81,1.81Z"/>
          <path class="cls-1" d="m175.03,203.13c.68,0,1.25.57,1.25,1.25s-.57,1.25-1.25,1.25-1.25-.57-1.25-1.25.57-1.25,1.25-1.25m0-1.13c-1.3,0-2.38,1.08-2.38,2.38s1.08,2.38,2.38,2.38,2.38-1.08,2.38-2.38-1.08-2.38-2.38-2.38h0Z"/>
        </g>
        <g>
          <path class="cls-6" d="m186.87,206.19c-1.02,0-1.81-.79-1.81-1.81s.79-1.81,1.81-1.81,1.81.79,1.81,1.81-.79,1.81-1.81,1.81Z"/>
          <path class="cls-1" d="m186.87,203.13c.68,0,1.25.57,1.25,1.25s-.57,1.25-1.25,1.25-1.25-.57-1.25-1.25.57-1.25,1.25-1.25m0-1.13c-1.3,0-2.38,1.08-2.38,2.38s1.08,2.38,2.38,2.38,2.38-1.08,2.38-2.38-1.02-2.38-2.38-2.38h0Z"/>
        </g>
        <g>
          <path class="cls-6" d="m193.27,206.19c-1.02,0-1.81-.79-1.81-1.81s.79-1.81,1.81-1.81,1.81.79,1.81,1.81-.79,1.81-1.81,1.81Z"/>
          <path class="cls-1" d="m193.27,203.13c.68,0,1.25.57,1.25,1.25s-.57,1.25-1.25,1.25-1.25-.57-1.25-1.25.57-1.25,1.25-1.25m0-1.13c-1.3,0-2.38,1.08-2.38,2.38s1.08,2.38,2.38,2.38,2.38-1.08,2.38-2.38-1.08-2.38-2.38-2.38h0Z"/>
        </g>
      </g>
      <polygon class="cls-2" points="17.11 128.17 53.94 128.73 42.78 155.02 5.16 155.02 17.11 128.17"/>
      <path class="cls-2" d="m55.3,152.87c.23-.23,7.25,0,7.25,0l-3.06,21.25h-8.9l4.7-21.25Z"/>
      <g>
        <path class="cls-5" d="m14.45,252.25c.17-.96,1.7-7.31,4.08-8.22s4.59-21.87,4.59-21.87l8.5-8.56s19.21,7.82,20.11,7.99,10.43-1.93,11.73-2.21,9.58-5.04,9.58-5.04l4.14-3.68,7.82,1.76,6.35-3.68,10.77.57,10.99-10.43"/>
        <polyline class="cls-5" points="96.61 252.25 93.1 249.08 83.86 243.47 84.94 230.72 84.94 212.42"/>
        <line class="cls-5" x1="72.98" y1="214.35" x2="84.82" y2="232.31"/>
        <polyline class="cls-5" points="102.11 209.3 110.09 212.42 113.1 214.35"/>
        <polyline class="cls-5" points="31.62 213.61 15.53 212.42 8.45 207.43"/>
      </g>
    </g>
  </g>
</svg>