<?xml version="1.0" encoding="UTF-8"?>
<svg id="Calque_2" data-name="Calque 2" xmlns="http://www.w3.org/2000/svg" viewBox="0 0 129.91 198.87">
  <defs>
    <style>
      .cls-1, .cls-2 {
        fill: none;
      }

      .cls-3 {
        fill: #e8629f;
      }

      .cls-4 {
        fill: #fcbe1b;
      }

      .cls-5 {
        fill: #e6629f;
      }

      .cls-6, .cls-7 {
        fill: #261923;
      }

      .cls-7 {
        fill-rule: evenodd;
      }

      .cls-2 {
        stroke: #e8629f;
        stroke-miterlimit: 10;
        stroke-width: .98px;
      }
    </style>
  </defs>
  <g id="Calque_1-2" data-name="Calque 1">
    <g>
      <polygon class="cls-4" points="129.91 130.69 129.91 198.87 64.98 198.87 64.98 78.78 129.91 130.69"/>
      <polygon class="cls-4" points="0 130.69 0 198.87 64.98 198.87 64.98 78.78 0 130.69"/>
      <g>
        <rect class="cls-4" x="39.25" y="60.57" width="51.45" height="137.61"/>
        <path class="cls-5" d="m90.01,61.26v136.23h-50.07V61.26h50.07m1.38-1.38h-52.82v138.99h52.82V59.89h0Z"/>
      </g>
      <line class="cls-1" x1="38.56" y1="99.87" y2="130.69"/>
      <g>
        <path class="cls-7" d="m46.41,190.16v-31.5c0-10.23,8.3-18.53,18.53-18.53s18.53,8.3,18.53,18.53v31.5h-37.05Z"/>
        <path class="cls-3" d="m64.98,140.82c9.86,0,17.84,8.02,17.84,17.84v30.81h-35.72v-30.81c0-9.81,8.02-17.84,17.88-17.84m0-1.38h0c-10.64,0-19.21,8.62-19.21,19.21v32.19h38.47v-32.19c-.05-10.59-8.67-19.21-19.26-19.21h0Z"/>
      </g>
      <g>
        <path class="cls-7" d="m9.08,180.85v-23.52c0-5.87,4.95-17.42,10.91-17.42s10.91,11.56,10.91,17.42v23.52H9.08Z"/>
        <path class="cls-3" d="m19.99,140.41c2.43,0,5.04,2.2,7.2,6.1,1.93,3.44,3.21,7.8,3.21,10.82v23.02H9.58v-23.02c0-3.03,1.28-7.38,3.21-10.82,2.16-3.85,4.77-6.1,7.2-6.1m0-.96h0c-6.28,0-11.42,11.6-11.42,17.93v23.98h22.79v-23.98c.05-6.33-5.09-17.93-11.37-17.93h0Z"/>
      </g>
      <g>
        <path class="cls-7" d="m98.5,180.85v-23.52c0-5.87,4.95-17.42,10.91-17.42s10.91,11.56,10.91,17.42v23.52h-21.83Z"/>
        <path class="cls-3" d="m109.36,140.41c2.43,0,5.04,2.2,7.2,6.1,1.93,3.44,3.21,7.8,3.21,10.82v23.02h-20.82v-23.02c0-3.03,1.28-7.38,3.21-10.82,2.2-3.85,4.81-6.1,7.2-6.1m.05-.96h0c-6.28,0-11.42,11.6-11.42,17.93v23.98h22.79v-23.98c0-6.33-5.09-17.93-11.37-17.93h0Z"/>
      </g>
      <g>
        <rect class="cls-6" x="45.67" y="67.04" width="38.01" height="57.5"/>
        <path class="cls-3" d="m83.23,67.54v56.54h-37.05v-56.54h37.05m.96-.96h-39.02v58.51h39.02v-58.51h0Z"/>
      </g>
      <polygon class="cls-3" points="64.7 29.26 34.44 59.89 94.97 59.89 64.7 29.26"/>
      <rect class="cls-4" x="54.25" y="8.12" width="20.86" height="4.63"/>
      <rect class="cls-4" x="62.36" width="4.63" height="31.73"/>
      <path class="cls-3" d="m64.7,190.85s-.18,7.98,0,7.98h35.26l-9.49-7.98h-25.77Z"/>
      <path class="cls-3" d="m64.56,190.85s.18,7.98,0,7.98H29.3l9.49-7.98h25.77Z"/>
      <polygon class="cls-3" points="129.91 130.69 129.91 111.79 91.39 99.87 129.91 130.69"/>
      <polygon class="cls-3" points="0 130.69 0 111.79 38.56 99.87 0 130.69"/>
      <line class="cls-2" x1="64.7" y1="67.27" x2="64.7" y2="125.05"/>
      <line class="cls-2" x1="74.38" y1="67.27" x2="74.38" y2="125.05"/>
      <line class="cls-2" x1="54.98" y1="67.27" x2="54.98" y2="125.05"/>
      <line class="cls-2" x1="45.17" y1="76.85" x2="84.19" y2="76.85"/>
      <line class="cls-2" x1="45.17" y1="86.44" x2="84.19" y2="86.44"/>
      <line class="cls-2" x1="45.17" y1="95.97" x2="84.19" y2="95.97"/>
      <line class="cls-2" x1="45.17" y1="105.56" x2="84.19" y2="105.56"/>
      <line class="cls-2" x1="45.17" y1="115.14" x2="84.19" y2="115.14"/>
      <g>
        <line class="cls-2" x1="120.78" y1="157.37" x2="97.99" y2="157.37"/>
        <line class="cls-2" x1="120.78" y1="169.34" x2="97.99" y2="169.34"/>
        <line class="cls-2" x1="109.36" y1="139.44" x2="109.36" y2="181.36"/>
      </g>
      <g>
        <line class="cls-2" x1="31.36" y1="157.37" x2="8.57" y2="157.37"/>
        <line class="cls-2" x1="31.36" y1="169.34" x2="8.57" y2="169.34"/>
        <line class="cls-2" x1="19.99" y1="139.44" x2="19.99" y2="181.36"/>
      </g>
      <line class="cls-2" x1="64.98" y1="139.44" x2="64.98" y2="190.85"/>
    </g>
  </g>
</svg>