<?xml version="1.0" encoding="UTF-8"?>
<svg id="Calque_2" data-name="Calque 2" xmlns="http://www.w3.org/2000/svg" viewBox="0 0 39.53 110.17">
  <defs>
    <style>
      .cls-1, .cls-2, .cls-3 {
        fill: #261923;
        stroke: #e8629f;
        stroke-miterlimit: 10;
      }

      .cls-1, .cls-3 {
        stroke-width: .45px;
      }

      .cls-4, .cls-5 {
        fill: #e8629f;
      }

      .cls-6 {
        fill: #fcbe1b;
      }

      .cls-2 {
        stroke-width: .34px;
      }

      .cls-3, .cls-5 {
        fill-rule: evenodd;
      }
    </style>
  </defs>
  <g id="Calque_1-2" data-name="Calque 1">
    <g>
      <rect class="cls-6" x="1.23" y="4.73" width="37.08" height="105.27"/>
      <path class="cls-1" d="m9.03,91.48h7.85c2.43,0,4.42,1.99,4.42,4.42v4.84H4.62v-4.84c0-2.43,1.96-4.42,4.42-4.42h0Z"/>
      <path class="cls-2" d="m29.94,91.48h0c2.74,0,4.97,2.23,4.97,4.97v13.54h-9.93v-13.54c0-2.74,2.21-4.97,4.95-4.97h0Z"/>
      <rect class="cls-6" x="5.24" width="10.82" height="4.73"/>
      <g>
        <rect class="cls-4" y="81.25" width="39.53" height="6.36"/>
        <rect class="cls-4" y="57" width="39.53" height="6.36"/>
        <rect class="cls-4" y="32.75" width="39.53" height="6.36"/>
        <polygon class="cls-5" points="0 3.84 0 8.5 0 9.03 0 14.86 39.53 14.86 39.53 9.03 39.53 8.5 39.53 3.84 0 3.84"/>
      </g>
      <g>
        <path class="cls-3" d="m8.99,64.72h0c-2.07,0-3.77,1.67-3.77,3.77v11.4h7.52v-11.4c.02-2.1-1.65-3.77-3.75-3.77Z"/>
        <path class="cls-3" d="m19.76,64.72h0c-2.07,0-3.77,1.67-3.77,3.77v11.4h7.52v-11.4c.02-2.1-1.67-3.77-3.75-3.77Z"/>
        <path class="cls-3" d="m30.52,64.72h0c-2.07,0-3.77,1.67-3.77,3.77v11.4h7.52v-11.4c.02-2.1-1.65-3.77-3.75-3.77Z"/>
        <path class="cls-3" d="m8.99,40.47h0c-2.07,0-3.77,1.67-3.77,3.77v11.4h7.52v-11.4c.02-2.1-1.65-3.77-3.75-3.77Z"/>
        <path class="cls-3" d="m19.76,40.47h0c-2.07,0-3.77,1.67-3.77,3.77v11.4h7.52v-11.4c.02-2.1-1.67-3.77-3.75-3.77Z"/>
        <path class="cls-3" d="m30.52,40.47h0c-2.07,0-3.77,1.67-3.77,3.77v11.4h7.52v-11.4c.02-2.1-1.65-3.77-3.75-3.77Z"/>
        <path class="cls-3" d="m8.99,16.22h0c-2.07,0-3.77,1.67-3.77,3.77v11.4h7.52v-11.4c.02-2.1-1.65-3.77-3.75-3.77h0Z"/>
        <path class="cls-3" d="m19.76,16.22h0c-2.07,0-3.77,1.67-3.77,3.77v11.4h7.52v-11.4c.02-2.1-1.67-3.77-3.75-3.77h0Z"/>
        <path class="cls-3" d="m30.52,16.22h0c-2.07,0-3.77,1.67-3.77,3.77v11.4h7.52v-11.4c.02-2.1-1.65-3.77-3.75-3.77h0Z"/>
      </g>
    </g>
  </g>
</svg>