<?xml version="1.0" encoding="UTF-8"?>
<svg id="Calque_2" data-name="Calque 2" xmlns="http://www.w3.org/2000/svg" viewBox="0 0 76.61 90.23">
  <defs>
    <style>
      .cls-1, .cls-2 {
        stroke-width: .46px;
      }

      .cls-1, .cls-2, .cls-3, .cls-4 {
        fill: #261923;
        stroke: #e8629f;
        stroke-miterlimit: 10;
      }

      .cls-5, .cls-6 {
        fill: #e8629f;
      }

      .cls-7 {
        fill: #fcbe1b;
      }

      .cls-2, .cls-6 {
        fill-rule: evenodd;
      }

      .cls-3 {
        stroke-width: .36px;
      }

      .cls-4 {
        stroke-width: .37px;
      }
    </style>
  </defs>
  <g id="Calque_1-2" data-name="Calque 1">
    <g>
      <rect class="cls-7" x=".95" y="16.34" width="74.71" height="73.64"/>
      <rect class="cls-5" y="60.11" width="76.58" height="6.6"/>
      <rect class="cls-5" y="34.92" width="76.58" height="6.6"/>
      <g>
        <path class="cls-2" d="m10.33,42.96h0c-2.15,0-3.92,1.74-3.92,3.92v11.84h7.81v-11.84c0-2.18-1.74-3.92-3.89-3.92h0Z"/>
        <path class="cls-2" d="m21.5,42.96h0c-2.15,0-3.92,1.74-3.92,3.92v11.84h7.81v-11.84c.02-2.18-1.74-3.92-3.89-3.92Z"/>
        <path class="cls-2" d="m32.7,42.96h0c-2.15,0-3.92,1.74-3.92,3.92v11.84h7.81v-11.84c0-2.18-1.74-3.92-3.89-3.92Z"/>
        <path class="cls-2" d="m43.86,42.96h0c-2.15,0-3.92,1.74-3.92,3.92v11.84h7.81v-11.84c.02-2.18-1.74-3.92-3.89-3.92Z"/>
        <path class="cls-2" d="m55.06,42.96h0c-2.15,0-3.92,1.74-3.92,3.92v11.84h7.81v-11.84c0-2.18-1.74-3.92-3.89-3.92Z"/>
        <path class="cls-2" d="m66.23,42.96h0c-2.15,0-3.92,1.74-3.92,3.92v11.84h7.81v-11.84c.02-2.18-1.74-3.92-3.89-3.92Z"/>
      </g>
      <rect class="cls-5" y="9.73" width="76.58" height="6.6"/>
      <g>
        <path class="cls-2" d="m10.33,17.77h0c-2.15,0-3.92,1.74-3.92,3.92v11.84h7.81v-11.86c0-2.15-1.74-3.89-3.89-3.89h0Z"/>
        <path class="cls-2" d="m21.5,17.77h0c-2.15,0-3.92,1.74-3.92,3.92v11.84h7.81v-11.86c.02-2.15-1.74-3.89-3.89-3.89Z"/>
        <path class="cls-2" d="m32.7,17.77h0c-2.15,0-3.92,1.74-3.92,3.92v11.84h7.81v-11.86c0-2.15-1.74-3.89-3.89-3.89Z"/>
        <path class="cls-2" d="m43.86,17.77h0c-2.15,0-3.92,1.74-3.92,3.92v11.84h7.81v-11.86c.02-2.15-1.74-3.89-3.89-3.89Z"/>
        <path class="cls-2" d="m55.06,17.77h0c-2.15,0-3.92,1.74-3.92,3.92v11.84h7.81v-11.86c0-2.15-1.74-3.89-3.89-3.89Z"/>
        <path class="cls-2" d="m66.23,17.77h0c-2.15,0-3.92,1.74-3.92,3.92v11.84h7.81v-11.86c.02-2.15-1.74-3.89-3.89-3.89Z"/>
      </g>
      <polygon class="cls-6" points="0 4.91 0 9.73 0 10.29 0 16.34 76.61 16.34 76.61 10.29 76.61 9.73 76.61 4.91 0 4.91"/>
      <path class="cls-1" d="m17.75,70.77h0c4.77,0,8.67,3.89,8.67,8.67v10.57H9.08v-10.57c0-4.8,3.87-8.67,8.67-8.67h0Z"/>
      <path class="cls-4" d="m61.54,70.77h0c3.06,0,5.54,2.48,5.54,5.54v13.69h-11.08v-13.69c.02-3.06,2.5-5.54,5.54-5.54Z"/>
      <path class="cls-3" d="m35.38,70.77h0c2.85,0,5.17,2.32,5.17,5.17v14.07h-10.31v-14.07c0-2.87,2.29-5.17,5.14-5.17h0Z"/>
      <rect class="cls-7" x="9.55" width="11.24" height="4.91"/>
      <rect class="cls-7" x="44" width="17.77" height="4.91"/>
    </g>
  </g>
</svg>