<?xml version="1.0" encoding="UTF-8"?>
<svg id="Calque_2" data-name="Calque 2" xmlns="http://www.w3.org/2000/svg" viewBox="0 0 72.27 110.16">
  <defs>
    <style>
      .cls-1 {
        stroke-width: .32px;
      }

      .cls-1, .cls-2, .cls-3 {
        fill: #261923;
        stroke-miterlimit: 10;
      }

      .cls-1, .cls-3 {
        stroke: #e8629f;
      }

      .cls-4, .cls-5 {
        fill: #e8629f;
      }

      .cls-6 {
        fill: #fcbe1b;
      }

      .cls-5, .cls-2, .cls-3 {
        fill-rule: evenodd;
      }

      .cls-2 {
        stroke: #fcbe1b;
      }

      .cls-2, .cls-3 {
        stroke-width: .41px;
      }
    </style>
  </defs>
  <g id="Calque_1-2" data-name="Calque 1">
    <g>
      <rect class="cls-6" x="2.89" y="6.33" width="66.5" height="103.67"/>
      <rect class="cls-4" x="2.89" y="12.66" width="66.5" height="3.18"/>
      <polygon class="cls-5" points="0 0 0 3.16 2.89 3.16 2.89 6.33 69.39 6.33 69.39 3.16 72.27 3.16 72.27 0 0 0"/>
      <path class="cls-1" d="m35.77,92.88h.74c2.33,0,4.23,1.9,4.23,4.23v12.89h-9.18v-12.89c-.02-2.33,1.88-4.23,4.21-4.23Z"/>
      <rect class="cls-4" x="2.89" y="85.31" width="66.5" height="3.16"/>
      <rect class="cls-4" x="6.15" y="15.82" width="18.4" height="69.47"/>
      <rect class="cls-4" x="47.63" y="15.82" width="18.4" height="69.47"/>
      <path class="cls-3" d="m56.83,92.88h0c-2.33,0-4.23,1.9-4.23,4.23v7.4h8.46v-7.4c0-2.33-1.88-4.23-4.23-4.23h0Z"/>
      <g>
        <path class="cls-2" d="m56.83,70.09h0c-2.33,0-4.23,1.9-4.23,4.23v7.4h8.46v-7.4c0-2.35-1.88-4.23-4.23-4.23h0Z"/>
        <path class="cls-2" d="m56.83,54.37h0c-2.33,0-4.23,1.9-4.23,4.23v7.4h8.46v-7.4c0-2.33-1.88-4.23-4.23-4.23h0Z"/>
        <path class="cls-2" d="m56.83,38.65h0c-2.33,0-4.23,1.9-4.23,4.23v7.4h8.46v-7.4c0-2.33-1.88-4.23-4.23-4.23h0Z"/>
        <path class="cls-2" d="m56.83,22.96h0c-2.33,0-4.23,1.9-4.23,4.23v7.4h8.46v-7.4c0-2.35-1.88-4.23-4.23-4.23h0Z"/>
      </g>
      <g>
        <path class="cls-2" d="m15.35,70.09h0c-2.33,0-4.23,1.9-4.23,4.23v7.4h8.44v-7.4c0-2.35-1.88-4.23-4.21-4.23h0Z"/>
        <path class="cls-2" d="m15.35,54.37h0c-2.33,0-4.23,1.9-4.23,4.23v7.4h8.44v-7.4c0-2.33-1.88-4.23-4.21-4.23h0Z"/>
        <path class="cls-2" d="m15.35,38.65h0c-2.33,0-4.23,1.9-4.23,4.23v7.4h8.44v-7.4c0-2.33-1.88-4.23-4.21-4.23h0Z"/>
        <path class="cls-2" d="m15.35,22.96h0c-2.33,0-4.23,1.9-4.23,4.23v7.4h8.44v-7.4c0-2.35-1.88-4.23-4.21-4.23h0Z"/>
      </g>
      <g>
        <path class="cls-3" d="m36.14,70.09h0c-2.33,0-4.23,1.9-4.23,4.23v7.4h8.44v-7.4c.02-2.35-1.88-4.23-4.21-4.23h0Z"/>
        <path class="cls-3" d="m36.14,54.37h0c-2.33,0-4.23,1.9-4.23,4.23v7.4h8.44v-7.4c.02-2.33-1.88-4.23-4.21-4.23h0Z"/>
        <path class="cls-3" d="m36.14,38.65h0c-2.33,0-4.23,1.9-4.23,4.23v7.4h8.44v-7.4c.02-2.33-1.88-4.23-4.21-4.23h0Z"/>
        <path class="cls-3" d="m36.14,22.96h0c-2.33,0-4.23,1.9-4.23,4.23v7.4h8.44v-7.4c.02-2.35-1.88-4.23-4.21-4.23h0Z"/>
      </g>
      <path class="cls-3" d="m15.35,92.88h0c-2.33,0-4.23,1.9-4.23,4.23v7.4h8.44v-7.4c0-2.33-1.88-4.23-4.21-4.23h0Z"/>
    </g>
  </g>
</svg>