<?xml version="1.0" encoding="UTF-8"?>
<svg id="Calque_2" data-name="Calque 2" xmlns="http://www.w3.org/2000/svg" viewBox="0 0 64.12 131.18">
  <defs>
    <style>
      .cls-1 {
        fill: #ea629f;
      }

      .cls-2 {
        stroke-width: 1.27px;
      }

      .cls-2, .cls-3, .cls-4, .cls-5 {
        fill: none;
        stroke: #ea629f;
        stroke-miterlimit: 10;
      }

      .cls-3 {
        stroke-width: .47px;
      }

      .cls-4 {
        stroke-width: 2.35px;
      }

      .cls-5 {
        stroke-width: .94px;
      }
    </style>
  </defs>
  <g id="Calque_1-2" data-name="Calque 1">
    <g>
      <path class="cls-4" d="m28.18,25.22C24.75,92.72,2.09,130,2.09,130h13.03s16.94-36.17,16.94-104.78h-3.88Z"/>
      <path class="cls-4" d="m32.06,112.64s-8.16-.73-13.69,8.96"/>
      <line class="cls-5" x1="20.49" y1="114.9" x2="9.27" y2="114.9"/>
      <line class="cls-5" x1="18.06" y1="122.43" x2="5.95" y2="122.43"/>
      <line class="cls-5" x1="2.09" y1="130" x2="18.06" y2="122.43"/>
      <line class="cls-5" x1="5.95" y1="122.43" x2="15.12" y2="130"/>
      <line class="cls-5" x1="9.27" y1="114.9" x2="18.06" y2="122.43"/>
      <line class="cls-5" x1="5.95" y1="122.43" x2="20.49" y2="114.9"/>
      <line class="cls-5" x1="32.06" y1="108.36" x2="12.02" y2="108.36"/>
      <line class="cls-5" x1="20.49" y1="114.9" x2="12.02" y2="108.36"/>
      <line class="cls-5" x1="9.64" y1="114.9" x2="22.32" y2="108.36"/>
      <polyline class="cls-4" points="32.06 95.3 13.22 95.3 14.37 101.37 32.06 101.37"/>
      <line class="cls-5" x1="20.28" y1="80.79" x2="32.06" y2="80.79"/>
      <line class="cls-5" x1="18.37" y1="88.25" x2="26.79" y2="88.25"/>
      <line class="cls-5" x1="28.01" y1="80.79" x2="18.37" y2="88.25"/>
      <line class="cls-5" x1="26.79" y1="88.25" x2="16.33" y2="95.3"/>
      <line class="cls-5" x1="18.37" y1="88.25" x2="25.22" y2="95.3"/>
      <line class="cls-5" x1="20.28" y1="80.79" x2="26.79" y2="88.25"/>
      <line class="cls-5" x1="32.06" y1="32.53" x2="28.01" y2="32.53"/>
      <line class="cls-5" x1="31.8" y1="39.99" x2="27.1" y2="39.99"/>
      <line class="cls-5" x1="31.45" y1="47.37" x2="26.3" y2="47.37"/>
      <line class="cls-5" x1="30.95" y1="54.9" x2="25.28" y2="54.9"/>
      <line class="cls-5" x1="30.32" y1="62.35" x2="24.13" y2="62.35"/>
      <line class="cls-5" x1="29.52" y1="69.72" x2="22.77" y2="69.72"/>
      <line class="cls-5" x1="32.06" y1="76.54" x2="19.21" y2="76.54"/>
      <line class="cls-5" x1="28.18" y1="25.22" x2="32.06" y2="32.53"/>
      <line class="cls-5" x1="32.06" y1="25.22" x2="28.01" y2="32.53"/>
      <line class="cls-5" x1="32.06" y1="32.53" x2="27.1" y2="39.99"/>
      <line class="cls-5" x1="31.8" y1="39.99" x2="28.01" y2="32.53"/>
      <line class="cls-5" x1="26.3" y1="47.37" x2="31.8" y2="39.99"/>
      <line class="cls-5" x1="31.45" y1="47.37" x2="27.1" y2="39.99"/>
      <line class="cls-5" x1="25.28" y1="54.9" x2="31.45" y2="47.37"/>
      <line class="cls-5" x1="30.95" y1="54.9" x2="26.3" y2="47.37"/>
      <line class="cls-5" x1="24.13" y1="62.35" x2="30.95" y2="54.9"/>
      <line class="cls-5" x1="30.32" y1="62.35" x2="25.28" y2="54.9"/>
      <line class="cls-5" x1="22.77" y1="69.72" x2="30.32" y2="62.35"/>
      <line class="cls-5" x1="29.52" y1="69.72" x2="24.13" y2="62.35"/>
      <line class="cls-5" x1="21.55" y1="75.78" x2="29.52" y2="69.72"/>
      <line class="cls-5" x1="28.74" y1="75.78" x2="22.66" y2="70.14"/>
      <line class="cls-2" x1="32.06" y1="95.3" x2="32.06" y2="101.37"/>
      <line class="cls-5" x1="28.16" y1="95.3" x2="28.16" y2="101.37"/>
      <line class="cls-5" x1="20.28" y1="95.3" x2="20.28" y2="101.37"/>
      <line class="cls-5" x1="21.55" y1="111.63" x2="24.13" y2="115.14"/>
      <line class="cls-5" x1="27.03" y1="108.36" x2="28.01" y2="113.37"/>
      <rect class="cls-1" x="28.01" y="23.43" width="8.09" height="1.79"/>
      <rect class="cls-1" x="28.04" y="23.45" width="8.09" height="1.79"/>
      <rect class="cls-1" x="27.35" y="22.66" width="9.38" height="1.96"/>
      <rect class="cls-1" x="26.65" y="19.34" width="10.82" height="1.96"/>
      <rect class="cls-1" x="28.5" y="15.93" width="7.08" height="3.41"/>
      <rect class="cls-1" x="27.4" y="14.45" width="9.27" height="1.49"/>
      <rect class="cls-1" x="30.16" y="9.25" width="3.81" height="1.01"/>
      <rect class="cls-1" x="30.16" y="5.65" width="3.81" height="1.01"/>
      <rect class="cls-1" x="31.38" width="1.34" height="5.65"/>
      <rect class="cls-1" x="31.12" y="6.63" width="1.86" height="2.62"/>
      <path class="cls-1" d="m31.23,10.26h1.64c1.51,0,2.73,1.22,2.73,2.73v1.45h-7.1v-1.45c0-1.51,1.22-2.73,2.73-2.73h0Z"/>
      <g>
        <line class="cls-3" x1="12.86" y1="108.15" x2="19.81" y2="101.61"/>
        <line class="cls-3" x1="17.27" y1="108.36" x2="23.92" y2="101.96"/>
        <line class="cls-3" x1="23.19" y1="106.66" x2="28.16" y2="101.75"/>
        <line class="cls-3" x1="13.22" y1="104.22" x2="18.06" y2="108.1"/>
        <line class="cls-3" x1="15.12" y1="101.37" x2="22.32" y2="108.36"/>
        <line class="cls-3" x1="19.59" y1="101.82" x2="26.18" y2="107.96"/>
        <line class="cls-3" x1="23.92" y1="101.96" x2="30.2" y2="108.05"/>
        <line class="cls-3" x1="25.66" y1="108.22" x2="32.74" y2="101.37"/>
        <line class="cls-3" x1="29.21" y1="108.36" x2="36.86" y2="101.54"/>
        <line class="cls-3" x1="33.87" y1="108.03" x2="40.9" y2="101.67"/>
        <line class="cls-3" x1="38.37" y1="107.94" x2="45.06" y2="101.67"/>
        <line class="cls-3" x1="42.31" y1="108.1" x2="48.81" y2="101.89"/>
        <line class="cls-3" x1="46.79" y1="108.03" x2="50.83" y2="104.22"/>
        <line class="cls-3" x1="50.83" y1="107.98" x2="44.15" y2="101.75"/>
        <line class="cls-3" x1="46.79" y1="108.03" x2="39.92" y2="101.73"/>
        <line class="cls-3" x1="42.83" y1="107.98" x2="35.75" y2="101.73"/>
        <line class="cls-3" x1="38.76" y1="108.1" x2="31.78" y2="101.63"/>
        <line class="cls-3" x1="34.39" y1="107.98" x2="27.73" y2="101.89"/>
      </g>
      <line class="cls-5" x1="20.72" y1="80.3" x2="24.53" y2="76.99"/>
      <line class="cls-5" x1="24.39" y1="80.53" x2="28.25" y2="77.14"/>
      <line class="cls-5" x1="27.52" y1="80.25" x2="24.41" y2="76.73"/>
      <line class="cls-5" x1="23.19" y1="80.44" x2="20.79" y2="76.99"/>
      <path class="cls-4" d="m35.94,25.22c3.43,67.5,26.09,104.78,26.09,104.78h-13.03s-16.94-36.17-16.94-104.78h3.88Z"/>
      <path class="cls-4" d="m32.06,112.64s8.16-.73,13.69,8.96"/>
      <line class="cls-5" x1="43.63" y1="114.9" x2="54.85" y2="114.9"/>
      <line class="cls-5" x1="46.06" y1="122.43" x2="58.17" y2="122.43"/>
      <line class="cls-5" x1="62.03" y1="130" x2="46.06" y2="122.43"/>
      <line class="cls-5" x1="58.17" y1="122.43" x2="48.99" y2="130"/>
      <line class="cls-5" x1="54.85" y1="114.9" x2="46.06" y2="122.43"/>
      <line class="cls-5" x1="58.17" y1="122.43" x2="43.63" y2="114.9"/>
      <line class="cls-5" x1="32.06" y1="108.36" x2="52.1" y2="108.36"/>
      <line class="cls-5" x1="43.63" y1="114.9" x2="52.1" y2="108.36"/>
      <line class="cls-5" x1="54.48" y1="114.9" x2="41.8" y2="108.36"/>
      <polyline class="cls-4" points="32.06 95.3 50.9 95.3 49.75 101.37 32.06 101.37"/>
      <line class="cls-5" x1="43.84" y1="80.79" x2="32.06" y2="80.79"/>
      <line class="cls-5" x1="45.77" y1="88.25" x2="37.33" y2="88.25"/>
      <line class="cls-5" x1="36.11" y1="80.79" x2="45.77" y2="88.25"/>
      <line class="cls-5" x1="37.33" y1="88.25" x2="47.79" y2="95.3"/>
      <line class="cls-5" x1="45.77" y1="88.25" x2="38.9" y2="95.3"/>
      <line class="cls-5" x1="43.84" y1="80.79" x2="37.33" y2="88.25"/>
      <line class="cls-5" x1="32.06" y1="32.53" x2="36.11" y2="32.53"/>
      <line class="cls-5" x1="32.32" y1="39.99" x2="37.02" y2="39.99"/>
      <line class="cls-5" x1="32.67" y1="47.37" x2="37.82" y2="47.37"/>
      <line class="cls-5" x1="33.17" y1="54.9" x2="38.84" y2="54.9"/>
      <line class="cls-5" x1="33.8" y1="62.35" x2="39.99" y2="62.35"/>
      <line class="cls-5" x1="34.6" y1="69.72" x2="41.35" y2="69.72"/>
      <line class="cls-5" x1="32.06" y1="76.54" x2="44.9" y2="76.54"/>
      <line class="cls-5" x1="35.94" y1="25.22" x2="32.06" y2="32.53"/>
      <line class="cls-5" x1="32.06" y1="25.22" x2="36.11" y2="32.53"/>
      <line class="cls-5" x1="32.06" y1="32.53" x2="37.02" y2="39.99"/>
      <line class="cls-5" x1="32.32" y1="39.99" x2="36.11" y2="32.53"/>
      <line class="cls-5" x1="37.82" y1="47.37" x2="32.32" y2="39.99"/>
      <line class="cls-5" x1="32.67" y1="47.37" x2="37.02" y2="39.99"/>
      <line class="cls-5" x1="38.84" y1="54.9" x2="32.67" y2="47.37"/>
      <line class="cls-5" x1="33.17" y1="54.9" x2="37.82" y2="47.37"/>
      <line class="cls-5" x1="39.99" y1="62.35" x2="33.17" y2="54.9"/>
      <line class="cls-5" x1="33.8" y1="62.35" x2="38.84" y2="54.9"/>
      <line class="cls-5" x1="41.35" y1="69.72" x2="33.8" y2="62.35"/>
      <line class="cls-5" x1="34.6" y1="69.72" x2="39.99" y2="62.35"/>
      <line class="cls-5" x1="42.57" y1="75.78" x2="34.6" y2="69.72"/>
      <line class="cls-5" x1="35.4" y1="75.78" x2="41.46" y2="70.14"/>
      <line class="cls-5" x1="35.96" y1="95.3" x2="35.96" y2="101.37"/>
      <line class="cls-5" x1="43.84" y1="95.3" x2="43.84" y2="101.37"/>
      <line class="cls-5" x1="42.57" y1="111.63" x2="39.99" y2="115.14"/>
      <line class="cls-5" x1="37.09" y1="108.36" x2="36.11" y2="113.37"/>
      <line class="cls-5" x1="43.4" y1="80.3" x2="39.59" y2="76.99"/>
      <line class="cls-5" x1="39.73" y1="80.53" x2="35.87" y2="77.14"/>
      <line class="cls-5" x1="36.6" y1="80.25" x2="39.71" y2="76.73"/>
      <line class="cls-5" x1="40.93" y1="80.44" x2="43.33" y2="76.99"/>
      <polygon class="cls-1" points="27.35 22.66 26.65 21.29 37.47 21.29 36.77 22.66 27.35 22.66"/>
      <line class="cls-5" x1="34.6" y1="69.72" x2="29.52" y2="69.72"/>
      <line class="cls-5" x1="28.63" y1="76.54" x2="34.6" y2="69.72"/>
      <line class="cls-5" x1="35.49" y1="76.54" x2="29.52" y2="69.72"/>
    </g>
  </g>
</svg>