<?xml version="1.0" encoding="UTF-8"?>
<svg id="Calque_2" data-name="Calque 2" xmlns="http://www.w3.org/2000/svg" viewBox="0 0 228.11 150">
  <defs>
    <style>
      .cls-1 {
        fill: #e8629f;
      }

      .cls-2 {
        fill: #fcbe1b;
      }

      .cls-3, .cls-4, .cls-5, .cls-6 {
        fill: #261923;
      }

      .cls-4 {
        stroke-width: .23px;
      }

      .cls-4, .cls-5, .cls-6, .cls-7 {
        stroke: #e8629f;
      }

      .cls-4, .cls-5, .cls-6, .cls-7, .cls-8 {
        stroke-miterlimit: 10;
      }

      .cls-5, .cls-8 {
        stroke-width: .45px;
      }

      .cls-6 {
        stroke-width: .34px;
      }

      .cls-7 {
        stroke-width: .91px;
      }

      .cls-7, .cls-8 {
        fill: none;
      }

      .cls-8 {
        stroke: #fcbe1b;
      }
    </style>
  </defs>
  <g id="Calque_1-2" data-name="Calque 1">
    <g>
      <g>
        <rect class="cls-1" x="18.09" y="106.8" width="19.18" height="35.33"/>
        <rect class="cls-1" x="37.28" y="106.8" width="14.74" height="35.33"/>
        <rect class="cls-1" x="52.02" y="106.8" width="27.53" height="36.64"/>
        <rect class="cls-1" x="79.5" y="102.18" width="25.21" height="42.04"/>
        <rect class="cls-1" y="106.8" width="18.09" height="35.33"/>
        <g>
          <rect class="cls-2" x="18.32" y="26.58" width="18.73" height="80"/>
          <path class="cls-1" d="m36.82,26.8v79.55h-18.28V26.8h18.28m.45-.45h-19.18v80.45h19.18V26.35h0Z"/>
        </g>
        <rect class="cls-2" x="37.28" y="52.65" width="14.74" height="54.1"/>
        <rect class="cls-2" y="49.48" width="18.09" height="57.32"/>
        <rect class="cls-1" x="190.84" y="106.8" width="19.18" height="35.33"/>
        <rect class="cls-1" x="176.1" y="106.8" width="14.74" height="35.33"/>
        <rect class="cls-1" x="148.57" y="106.8" width="27.48" height="36.64"/>
        <rect class="cls-1" x="123.4" y="102.18" width="25.21" height="42.04"/>
        <rect class="cls-1" x="209.97" y="106.8" width="18.09" height="35.33"/>
        <g>
          <rect class="cls-2" x="191.06" y="26.58" width="18.73" height="80"/>
          <path class="cls-1" d="m209.52,26.8v79.55h-18.28V26.8h18.28m.45-.45h-19.18v80.45h19.18V26.35h0Z"/>
        </g>
        <rect class="cls-2" x="176.1" y="52.65" width="14.74" height="54.1"/>
        <polygon class="cls-2" points="148.57 34.38 114.06 34.38 79.5 34.38 52.02 34.38 52.02 106.8 79.5 106.8 79.5 102.18 114.06 102.18 148.57 102.18 148.57 106.8 176.1 106.8 176.1 34.38 148.57 34.38"/>
        <rect class="cls-2" x="209.97" y="49.48" width="18.09" height="57.32"/>
      </g>
      <rect class="cls-2" y="142.13" width="52.02" height="4.99"/>
      <polygon class="cls-1" points="1.04 46.35 25.12 35.15 52.02 35.15 52.02 46.35 1.04 46.35"/>
      <rect class="cls-2" x="52.02" y="143.44" width="28.12" height="4.99"/>
      <rect class="cls-2" x="80.13" y="144.26" width="24.58" height="4.99"/>
      <g>
        <rect class="cls-2" x="37.41" y="46.53" width="14.38" height="5.99"/>
        <path class="cls-1" d="m51.65,46.67v5.67h-14.06v-5.67h14.06m.36-.32h-14.74v6.35h14.74v-6.35h0Z"/>
      </g>
      <g>
        <rect class="cls-2" x=".18" y="46.53" width="17.78" height="5.99"/>
        <path class="cls-1" d="m17.78,46.67v5.67H.36v-5.67h17.41m.32-.32H0v6.35h18.09v-6.35h0Z"/>
      </g>
      <g>
        <rect class="cls-2" x="18.28" y="46.53" width="18.82" height="4.81"/>
        <path class="cls-1" d="m36.92,46.67v4.44h-18.46v-4.44h18.46m.36-.32h-19.18v5.12h19.18v-5.12h0Z"/>
      </g>
      <polygon class="cls-1" points="53.24 27.85 75.78 17.37 114.06 17.37 114.06 27.85 53.24 27.85"/>
      <polygon class="cls-1" points="174.83 27.85 152.29 17.37 114.06 17.37 114.06 27.85 174.83 27.85"/>
      <path class="cls-2" d="m128.57,23.63c-1.59,1.22-1.18-.91-.77-1.41.41-.54.77-3.31.77-3.31h-1.81l.41-2h-3.31s.77-1.59-.73-1.95-1.13-2-1.13-2c-.82.18-1.09-1-1.09-1l1.77-1.77h-2.49s-.05-1.41-1.54-1.81-.59-2.9-.59-2.9l-4.08-3.9-4.08,3.9s.91,2.49-.59,2.9-1.54,1.81-1.54,1.81h-2.49l1.77,1.77s-.23,1.18-1.09,1c0,0,.36,1.63-1.13,2s-.73,1.95-.73,1.95h-3.31l.41,2h-1.81s.36,2.77.77,3.31.82,2.68-.77,1.41c-1.59-1.22-3.17,3.63-2.45,4.22h33.92c.95-.59-.68-5.44-2.27-4.22h0Z"/>
      <g>
        <path class="cls-2" d="m91.74,25.8c-.54-.41.63-1.54.45-1.81s-.54-.05-.32-1.95h-5.53c.23,1.9-.14,1.68-.32,1.95s1,1.41.45,1.81-1.54,2.04-1.54,2.04h8.34s-1-1.63-1.54-2.04h0Z"/>
        <g>
          <polygon class="cls-1" points="85.49 22 88.75 18.46 88.8 15.83 89.48 15.83 89.48 18.41 92.74 22 85.49 22"/>
          <path class="cls-2" d="m89.43,15.87v2.58l.05.05,3.17,3.4h-6.98l3.17-3.4.05-.05v-2.58h.54m.14-.09h-.82v2.68l-3.36,3.63h7.53l-3.36-3.63v-2.68h0Z"/>
        </g>
        <g>
          <rect class="cls-3" x="87.71" y="22.49" width="2.86" height="4.63"/>
          <path class="cls-1" d="m90.43,22.58v4.4h-2.63v-4.4h2.63m.23-.23h-3.08v4.85h3.08v-4.85h0Z"/>
        </g>
      </g>
      <g>
        <path class="cls-2" d="m79.5,25.8c-.54-.41.63-1.54.45-1.81s-.54-.05-.32-1.95h-5.53c.23,1.9-.14,1.68-.32,1.95s1,1.41.45,1.81-1.54,2.04-1.54,2.04h8.34s-1-1.63-1.54-2.04h0Z"/>
        <g>
          <polygon class="cls-1" points="73.24 22 76.51 18.46 76.55 15.83 77.23 15.83 77.23 18.41 80.5 22 73.24 22"/>
          <path class="cls-2" d="m77.19,15.87v2.58l.05.05,3.17,3.4h-6.98l3.17-3.4.05-.05v-2.58h.54m.14-.09h-.82v2.68l-3.36,3.63h7.53l-3.36-3.63v-2.68h0Z"/>
        </g>
        <g>
          <rect class="cls-3" x="75.46" y="22.49" width="2.86" height="4.63"/>
          <path class="cls-1" d="m78.18,22.58v4.4h-2.63v-4.4h2.63m.23-.23h-3.08v4.85h3.08v-4.85h0Z"/>
        </g>
      </g>
      <g>
        <path class="cls-2" d="m67.44,25.8c-.54-.41.63-1.54.45-1.81s-.54-.05-.32-1.95h-5.53c.23,1.9-.14,1.68-.32,1.95s1,1.41.45,1.81-1.54,2.04-1.54,2.04h8.34s-1-1.63-1.54-2.04h0Z"/>
        <g>
          <polygon class="cls-1" points="61.18 22 64.44 18.46 64.44 15.83 65.17 15.83 65.17 18.41 68.43 22 61.18 22"/>
          <path class="cls-2" d="m65.12,15.87v2.58l.05.05,3.17,3.4h-6.98l3.17-3.4.05-.05v-2.58h.54m.09-.09h-.82v2.68l-3.36,3.63h7.53l-3.36-3.63v-2.68h0Z"/>
        </g>
        <g>
          <rect class="cls-3" x="63.4" y="22.49" width="2.86" height="4.63"/>
          <path class="cls-1" d="m66.12,22.58v4.4h-2.63v-4.4h2.63m.23-.23h-3.08v4.85h3.08v-4.85h0Z"/>
        </g>
      </g>
      <g>
        <path class="cls-2" d="m48.89,44.31c-.54-.41.63-1.54.45-1.81s-.54-.05-.32-1.95h-5.49c.23,1.9-.14,1.68-.32,1.95s1,1.41.45,1.81-1.54,2.04-1.54,2.04h8.34s-1.04-1.63-1.59-2.04h0Z"/>
        <g>
          <polygon class="cls-1" points="42.68 40.5 45.89 36.96 45.94 34.33 46.62 34.33 46.62 36.96 49.93 40.5 42.68 40.5"/>
          <path class="cls-2" d="m46.58,34.38v2.58l.05.05,3.17,3.4h-7.03l3.17-3.4.05-.05v-2.58h.59m.14-.09h-.82v2.68l-3.36,3.63h7.53l-3.36-3.63v-2.68h0Z"/>
        </g>
        <g>
          <rect class="cls-3" x="44.85" y="41" width="2.86" height="4.63"/>
          <path class="cls-1" d="m47.62,41.13v4.4h-2.63v-4.4h2.63m.23-.23h-3.08v4.85h3.08v-4.85h0Z"/>
        </g>
      </g>
      <g>
        <path class="cls-2" d="m14.51,44.31c-.54-.41.63-1.54.45-1.81s-.54-.05-.32-1.95h-5.49c.23,1.9-.14,1.68-.32,1.95s1,1.41.45,1.81-1.54,2.04-1.54,2.04h8.34s-1.04-1.63-1.59-2.04h0Z"/>
        <g>
          <polygon class="cls-1" points="8.3 40.5 11.56 36.96 11.56 34.33 12.29 34.33 12.29 36.96 15.56 40.5 8.3 40.5"/>
          <path class="cls-2" d="m12.2,34.38v2.58l.05.05,3.17,3.4h-6.98l3.17-3.4.05-.05v-2.58h.54m.14-.09h-.82v2.68l-3.36,3.63h7.53l-3.36-3.63v-2.68h0Z"/>
        </g>
        <g>
          <rect class="cls-3" x="10.48" y="41" width="2.86" height="4.63"/>
          <path class="cls-1" d="m13.24,41.13v4.4h-2.63v-4.4h2.63m.23-.23h-3.08v4.85h3.08v-4.85h0Z"/>
        </g>
      </g>
      <g>
        <g>
          <rect class="cls-3" x="9.16" y="108.3" width="4.26" height="6.89"/>
          <path class="cls-2" d="m13.24,108.52v6.44h-3.81v-6.44h3.81m.45-.45h-4.72v7.35h4.72v-7.35h0Z"/>
        </g>
        <g>
          <rect class="cls-3" x="24.49" y="108.3" width="4.26" height="6.89"/>
          <path class="cls-2" d="m28.53,108.52v6.44h-3.81v-6.44h3.81m.45-.45h-4.72v7.35h4.72v-7.35h0Z"/>
        </g>
        <g>
          <rect class="cls-3" x="44.13" y="108.3" width="4.26" height="6.89"/>
          <path class="cls-2" d="m48.21,108.52v6.44h-3.81v-6.44h3.81m.45-.45h-4.72v7.35h4.72v-7.35h0Z"/>
        </g>
        <g>
          <rect class="cls-3" x="64.62" y="108.25" width="6.94" height="10.16"/>
          <path class="cls-2" d="m71.43,108.43v9.84h-6.58v-9.84h6.58m.32-.36h-7.26v10.52h7.26v-10.52h0Z"/>
        </g>
        <g>
          <rect class="cls-3" x="88.62" y="108.25" width="6.94" height="10.16"/>
          <path class="cls-2" d="m95.42,108.43v9.84h-6.58v-9.84h6.58m.32-.36h-7.26v10.52h7.26v-10.52h0Z"/>
        </g>
      </g>
      <g>
        <g>
          <rect class="cls-3" x="9.16" y="127.57" width="4.26" height="6.89"/>
          <path class="cls-2" d="m13.24,127.8v6.44h-3.81v-6.44h3.81m.45-.45h-4.72v7.35h4.72v-7.35h0Z"/>
        </g>
        <g>
          <rect class="cls-3" x="24.49" y="127.57" width="4.26" height="6.89"/>
          <path class="cls-2" d="m28.53,127.8v6.44h-3.81v-6.44h3.81m.45-.45h-4.72v7.35h4.72v-7.35h0Z"/>
        </g>
        <g>
          <rect class="cls-3" x="44.13" y="127.57" width="4.26" height="6.89"/>
          <path class="cls-2" d="m48.21,127.8v6.44h-3.81v-6.44h3.81m.45-.45h-4.72v7.35h4.72v-7.35h0Z"/>
        </g>
        <g>
          <rect class="cls-3" x="64.62" y="127.48" width="6.94" height="10.16"/>
          <path class="cls-2" d="m71.43,127.66v9.84h-6.58v-9.84h6.58m.32-.32h-7.26v10.52h7.26v-10.52h0Z"/>
        </g>
        <g>
          <rect class="cls-3" x="88.62" y="127.48" width="6.94" height="10.16"/>
          <path class="cls-2" d="m95.42,127.66v9.84h-6.58v-9.84h6.58m.32-.32h-7.26v10.52h7.26v-10.52h0Z"/>
        </g>
      </g>
      <g>
        <g>
          <path class="cls-3" d="m62.63,101.72v-7.71c0-1.22,1-2.18,2.18-2.18s2.18,1,2.18,2.18v7.71h-4.35Z"/>
          <path class="cls-1" d="m64.85,92.02c1.13,0,2.04.91,2.04,2.04v7.53h-4.04v-7.53c-.05-1.13.86-2.04,2-2.04m0-.36h0c-1.32,0-2.36,1.04-2.36,2.36v7.85h4.72v-7.85c0-1.32-1.09-2.36-2.36-2.36h0Z"/>
        </g>
        <g>
          <path class="cls-3" d="m44.08,101.72v-7.71c0-1.22,1-2.18,2.18-2.18s2.18,1,2.18,2.18v7.71h-4.35Z"/>
          <path class="cls-1" d="m46.3,92.02c1.13,0,2.04.91,2.04,2.04v7.53h-4.04v-7.53c-.05-1.13.86-2.04,2-2.04m0-.36h0c-1.32,0-2.36,1.04-2.36,2.36v7.85h4.72v-7.85c0-1.32-1.09-2.36-2.36-2.36h0Z"/>
        </g>
        <g>
          <path class="cls-3" d="m10.52,101.72v-7.71c0-1.22,1-2.18,2.18-2.18s2.18,1,2.18,2.18v7.71h-4.35Z"/>
          <path class="cls-1" d="m12.74,92.02c1.13,0,2.04.91,2.04,2.04v7.53h-4.04v-7.53c-.05-1.13.86-2.04,2-2.04m0-.36h0c-1.32,0-2.36,1.04-2.36,2.36v7.85h4.72v-7.85c0-1.32-1.04-2.36-2.36-2.36h0Z"/>
        </g>
        <g>
          <path class="cls-3" d="m74.69,101.72v-7.71c0-1.22,1-2.18,2.18-2.18s2.18,1,2.18,2.18v7.71h-4.35Z"/>
          <path class="cls-1" d="m76.87,92.02c1.13,0,2.04.91,2.04,2.04v7.53h-4.04v-7.53c0-1.13.91-2.04,2-2.04m0-.36c-1.32,0-2.36,1.04-2.36,2.36v7.85h4.72v-7.85c.05-1.32-1.04-2.36-2.36-2.36h0Z"/>
        </g>
        <g>
          <path class="cls-3" d="m25.99,100.41v-8.53c0-.77.63-1.45,1.41-1.45s1.41.63,1.41,1.45v8.53h-2.81Z"/>
          <path class="cls-1" d="m27.44,90.57c.73,0,1.32.59,1.32,1.27v8.39h-2.58v-8.39c-.05-.68.54-1.27,1.27-1.27m0-.27h0c-.86,0-1.59.68-1.59,1.59v8.66h3.13v-8.66c0-.86-.68-1.59-1.54-1.59h0Z"/>
        </g>
      </g>
      <g>
        <polyline class="cls-7" points="0 65.49 18.09 65.49 19.36 64.85 37.28 64.85 38.28 65.49 52.43 65.49 53.2 65.17 114.06 65.17"/>
        <polyline class="cls-7" points="114.06 83.81 53.2 83.81 52.43 84.13 38.28 84.13 37.28 83.45 19.36 83.45 18.09 84.13 0 84.13"/>
        <polyline class="cls-7" points="0 102.22 18.09 102.22 19.36 101.54 37.28 101.54 38.28 102.22 52.43 102.22 53.38 102.67 80.13 102.67"/>
        <line class="cls-7" x1="114.06" y1="47.89" x2="53.24" y2="47.89"/>
        <line class="cls-7" x1="16.83" y1="30.7" x2="38" y2="30.7"/>
      </g>
      <rect class="cls-1" x="52.02" y="34.38" width="4.35" height="72.38"/>
      <rect class="cls-1" y="52.65" width="3.45" height="54.1"/>
      <rect class="cls-2" y="106.8" width="3.45" height="35.33"/>
      <rect class="cls-2" x="52.02" y="106.8" width="4.35" height="36.64"/>
      <rect class="cls-2" x="80.13" y="102.13" width="3.54" height="42.13"/>
      <g>
        <rect class="cls-2" x="25.08" y="9.12" width="5.22" height="8.25"/>
        <rect class="cls-2" x="27.21" width=".95" height="5.9"/>
        <path class="cls-1" d="m37.28,26.35c0-6.44-4.31-11.66-9.57-11.66s-9.61,5.22-9.61,11.66"/>
        <path class="cls-1" d="m30.29,9.12c0-2.45-1.18-4.4-2.58-4.4s-2.58,2-2.58,4.4"/>
      </g>
      <g>
        <line class="cls-8" x1="18.09" y1="142.13" x2="18.09" y2="106.8"/>
        <line class="cls-8" x1="37.28" y1="106.8" x2="37.28" y2="142.13"/>
      </g>
      <rect class="cls-2" x="176.1" y="142.13" width="52.02" height="4.99"/>
      <g>
        <rect class="cls-2" x="52.11" y="27.94" width="123.85" height="6.35"/>
        <path class="cls-1" d="m175.87,28.07v6.12H52.24v-6.12h123.63m.23-.23H52.02v6.58h124.08v-6.58h0Z"/>
      </g>
      <polygon class="cls-1" points="227.03 46.35 202.94 35.15 176.1 35.15 176.1 46.35 227.03 46.35"/>
      <rect class="cls-2" x="147.98" y="143.44" width="28.12" height="4.99"/>
      <rect class="cls-2" x="123.4" y="144.26" width="24.58" height="4.99"/>
      <g>
        <rect class="cls-2" x="176.23" y="46.53" width="14.38" height="5.99"/>
        <path class="cls-1" d="m190.47,46.67v5.67h-14.06v-5.67h14.06m.36-.32h-14.74v6.35h14.74v-6.35h0Z"/>
      </g>
      <g>
        <rect class="cls-2" x="210.16" y="46.53" width="17.78" height="5.99"/>
        <path class="cls-1" d="m227.75,46.67v5.67h-17.41v-5.67h17.41m.32-.32h-18.09v6.35h18.09v-6.35h0Z"/>
      </g>
      <g>
        <rect class="cls-2" x="190.97" y="46.53" width="18.82" height="4.81"/>
        <path class="cls-1" d="m209.66,46.67v4.44h-18.5v-4.44h18.5m.32-.32h-19.18v5.12h19.18v-5.12h0Z"/>
      </g>
      <g>
        <path class="cls-2" d="m136.32,25.8c.54-.41-.63-1.54-.45-1.81s.54-.05.32-1.95h5.53c-.23,1.9.14,1.68.32,1.95.18.27-1,1.41-.45,1.81s1.54,2.04,1.54,2.04h-8.34s1-1.63,1.54-2.04h0Z"/>
        <g>
          <polygon class="cls-1" points="135.33 22 138.59 18.46 138.59 15.83 139.32 15.83 139.32 18.41 142.58 22 135.33 22"/>
          <path class="cls-2" d="m139.27,15.87v2.58l.05.05,3.17,3.4h-6.98l3.17-3.4.05-.05v-2.58h.54m.09-.09h-.82v2.68l-3.36,3.63h7.53l-3.36-3.63v-2.68h0Z"/>
        </g>
        <g>
          <rect class="cls-3" x="137.5" y="22.49" width="2.86" height="4.63"/>
          <path class="cls-1" d="m140.27,22.58v4.4h-2.63v-4.4h2.63m.23-.23h-3.08v4.85h3.08v-4.85h0Z"/>
        </g>
      </g>
      <g>
        <path class="cls-2" d="m148.57,25.8c.54-.41-.63-1.54-.45-1.81s.54-.05.32-1.95h5.53c-.23,1.9.14,1.68.32,1.95.18.27-1,1.41-.45,1.81s1.54,2.04,1.54,2.04h-8.34s1-1.63,1.54-2.04h0Z"/>
        <g>
          <polygon class="cls-1" points="147.57 22 150.84 18.46 150.84 15.83 151.56 15.83 151.56 18.41 154.83 22 147.57 22"/>
          <path class="cls-2" d="m151.52,15.87v2.58l.05.05,3.17,3.4h-6.98l3.17-3.4.05-.05v-2.58h.54m.09-.09h-.82v2.68l-3.36,3.63h7.53l-3.36-3.63v-2.68h0Z"/>
        </g>
        <g>
          <rect class="cls-3" x="149.75" y="22.49" width="2.86" height="4.63"/>
          <path class="cls-1" d="m152.51,22.58v4.4h-2.63v-4.4h2.63m.23-.23h-3.08v4.85h3.08v-4.85h0Z"/>
        </g>
      </g>
      <g>
        <path class="cls-2" d="m160.63,25.8c.54-.41-.63-1.54-.45-1.81s.54-.05.32-1.95h5.53c-.23,1.9.14,1.68.32,1.95.18.27-1,1.41-.45,1.81s1.54,2.04,1.54,2.04h-8.34s1-1.63,1.54-2.04h0Z"/>
        <g>
          <polygon class="cls-1" points="159.63 22 162.9 18.46 162.9 15.83 163.63 15.83 163.63 18.41 166.89 22 159.63 22"/>
          <path class="cls-2" d="m163.58,15.87v2.58l.05.05,3.17,3.4h-6.98l3.17-3.4.05-.05v-2.58h.54m.09-.09h-.82v2.68l-3.36,3.63h7.53l-3.36-3.63v-2.68h0Z"/>
        </g>
        <g>
          <rect class="cls-3" x="161.86" y="22.49" width="2.86" height="4.63"/>
          <path class="cls-1" d="m164.58,22.58v4.4h-2.63v-4.4h2.63m.23-.23h-3.08v4.85h3.08v-4.85h0Z"/>
        </g>
      </g>
      <g>
        <path class="cls-2" d="m179.18,44.31c.54-.41-.63-1.54-.45-1.81s.54-.05.32-1.95h5.53c-.23,1.9.14,1.68.32,1.95.18.27-1,1.41-.45,1.81s1.54,2.04,1.54,2.04h-8.34s1-1.63,1.54-2.04h0Z"/>
        <g>
          <polygon class="cls-1" points="178.18 40.5 181.4 36.96 181.45 34.33 182.17 34.33 182.17 36.96 185.44 40.5 178.18 40.5"/>
          <path class="cls-2" d="m182.08,34.38v2.58l.05.05,3.17,3.4h-6.98l3.17-3.4.05-.05v-2.58h.54m.14-.09h-.82v2.68l-3.36,3.63h7.53l-3.36-3.63v-2.68h0Z"/>
        </g>
        <g>
          <rect class="cls-3" x="180.36" y="41" width="2.86" height="4.63"/>
          <path class="cls-1" d="m183.13,41.13v4.4h-2.63v-4.4h2.63m.23-.23h-3.08v4.85h3.08v-4.85h0Z"/>
        </g>
      </g>
      <g>
        <path class="cls-2" d="m213.56,44.31c.54-.41-.63-1.54-.45-1.81s.54-.05.32-1.95h5.53c-.23,1.9.14,1.68.32,1.95s-1,1.41-.45,1.81,1.54,2.04,1.54,2.04h-8.34s1-1.63,1.54-2.04h0Z"/>
        <g>
          <polygon class="cls-1" points="212.56 40.5 215.78 36.96 215.82 34.33 216.5 34.33 216.5 36.96 219.81 40.5 212.56 40.5"/>
          <path class="cls-2" d="m216.46,34.38v2.58l.05.05,3.17,3.4h-6.98l3.17-3.4.05-.05v-2.58h.54m.14-.09h-.82v2.68l-3.36,3.63h7.53l-3.36-3.63v-2.68h0Z"/>
        </g>
        <g>
          <rect class="cls-3" x="214.74" y="41" width="2.86" height="4.63"/>
          <path class="cls-1" d="m217.5,41.13v4.4h-2.63v-4.4h2.63m.23-.23h-3.08v4.85h3.08v-4.85h0Z"/>
        </g>
      </g>
      <g>
        <g>
          <path class="cls-3" d="m62.63,46.17v-7.71c0-1.22,1-2.18,2.18-2.18s2.18,1,2.18,2.18v7.71h-4.35Z"/>
          <path class="cls-1" d="m64.85,36.46c1.13,0,2.04.91,2.04,2.04v7.53h-4.04v-7.57c-.05-1.09.86-2,2-2m0-.36h0c-1.32,0-2.36,1.04-2.36,2.36v7.89h4.72v-7.89c0-1.27-1.09-2.36-2.36-2.36h0Z"/>
        </g>
        <g>
          <path class="cls-3" d="m74.69,46.17v-7.71c0-1.22,1-2.18,2.18-2.18s2.18,1,2.18,2.18v7.71h-4.35Z"/>
          <path class="cls-1" d="m76.87,36.46c1.13,0,2.04.91,2.04,2.04v7.53h-4.04v-7.57c0-1.09.91-2,2-2m0-.36c-1.32,0-2.36,1.04-2.36,2.36v7.89h4.72v-7.89c.05-1.27-1.04-2.36-2.36-2.36h0Z"/>
        </g>
        <g>
          <path class="cls-3" d="m86.94,46.17v-7.71c0-1.22,1-2.18,2.18-2.18s2.18,1,2.18,2.18v7.71h-4.35Z"/>
          <path class="cls-1" d="m89.11,36.46c1.13,0,2.04.91,2.04,2.04v7.53h-4.04v-7.57c0-1.09.91-2,2-2m0-.36c-1.32,0-2.36,1.04-2.36,2.36v7.89h4.72v-7.89c.05-1.27-1.04-2.36-2.36-2.36h0Z"/>
        </g>
        <g>
          <path class="cls-3" d="m98.68,46.17v-7.71c0-1.22,1-2.18,2.18-2.18s2.18,1,2.18,2.18v7.71h-4.35Z"/>
          <path class="cls-1" d="m100.91,36.46c1.13,0,2.04.91,2.04,2.04v7.53h-4.08v-7.57c0-1.09.91-2,2.04-2m0-.36c-1.32,0-2.36,1.04-2.36,2.36v7.89h4.72v-7.89c0-1.27-1.04-2.36-2.36-2.36h0Z"/>
        </g>
        <g>
          <path class="cls-3" d="m161.04,46.17v-7.71c0-1.22,1-2.18,2.18-2.18s2.18,1,2.18,2.18v7.71h-4.35Z"/>
          <path class="cls-1" d="m163.26,36.46c1.13,0,2.04.91,2.04,2.04v7.53h-4.04v-7.57c-.05-1.09.86-2,2-2m0-.36c-1.32,0-2.36,1.04-2.36,2.36v7.89h4.72v-7.89c0-1.27-1.04-2.36-2.36-2.36h0Z"/>
        </g>
        <g>
          <path class="cls-3" d="m149.02,46.17v-7.71c0-1.22,1-2.18,2.18-2.18s2.18,1,2.18,2.18v7.71h-4.35Z"/>
          <path class="cls-1" d="m151.2,36.46c1.13,0,2.04.91,2.04,2.04v7.53h-4.04v-7.57c-.05-1.09.86-2,2-2m0-.36c-1.32,0-2.36,1.04-2.36,2.36v7.89h4.72v-7.89c0-1.27-1.04-2.36-2.36-2.36h0Z"/>
        </g>
        <g>
          <path class="cls-3" d="m136.78,46.17v-7.71c0-1.22,1-2.18,2.18-2.18s2.18,1,2.18,2.18v7.71h-4.35Z"/>
          <path class="cls-1" d="m138.95,36.46c1.13,0,2.04.91,2.04,2.04v7.53h-4.04v-7.57c-.05-1.09.86-2,2-2m0-.36c-1.32,0-2.36,1.04-2.36,2.36v7.89h4.72v-7.89c0-1.27-1.04-2.36-2.36-2.36h0Z"/>
        </g>
        <g>
          <path class="cls-3" d="m124.99,46.17v-7.71c0-1.22,1-2.18,2.18-2.18s2.18,1,2.18,2.18v7.71h-4.35Z"/>
          <path class="cls-1" d="m127.16,36.46c1.13,0,2.04.91,2.04,2.04v7.53h-4.04v-7.57c0-1.09.91-2,2-2m.05-.36c-1.32,0-2.36,1.04-2.36,2.36v7.89h4.72v-7.89c0-1.27-1.09-2.36-2.36-2.36h0Z"/>
        </g>
        <path class="cls-6" d="m114.06,36.1c-1.32,0-2.36,1.04-2.36,2.36v7.89h4.72v-7.89c0-1.27-1.09-2.36-2.36-2.36h0Z"/>
      </g>
      <g>
        <g>
          <rect class="cls-3" x="214.6" y="108.3" width="4.26" height="6.89"/>
          <path class="cls-2" d="m218.68,108.52v6.44h-3.81v-6.44h3.81m.45-.45h-4.72v7.35h4.72v-7.35h0Z"/>
        </g>
        <g>
          <rect class="cls-3" x="199.32" y="108.3" width="4.26" height="6.89"/>
          <path class="cls-2" d="m203.35,108.52v6.44h-3.81v-6.44h3.81m.45-.45h-4.72v7.35h4.72v-7.35h0Z"/>
        </g>
        <g>
          <rect class="cls-3" x="179.68" y="108.3" width="4.26" height="6.89"/>
          <path class="cls-2" d="m183.72,108.52v6.44h-3.81v-6.44h3.81m.45-.45h-4.72v7.35h4.72v-7.35h0Z"/>
        </g>
        <g>
          <rect class="cls-3" x="156.51" y="108.25" width="6.94" height="10.16"/>
          <path class="cls-2" d="m163.26,108.43v9.84h-6.58v-9.84h6.58m.36-.36h-7.26v10.52h7.26v-10.52h0Z"/>
        </g>
        <g>
          <rect class="cls-3" x="132.51" y="108.25" width="6.94" height="10.16"/>
          <path class="cls-2" d="m139.27,108.43v9.84h-6.58v-9.84h6.58m.36-.36h-7.26v10.52h7.26v-10.52h0Z"/>
        </g>
      </g>
      <g>
        <g>
          <rect class="cls-3" x="214.6" y="127.57" width="4.26" height="6.89"/>
          <path class="cls-2" d="m218.68,127.8v6.44h-3.81v-6.44h3.81m.45-.45h-4.72v7.35h4.72v-7.35h0Z"/>
        </g>
        <g>
          <rect class="cls-3" x="199.32" y="127.57" width="4.26" height="6.89"/>
          <path class="cls-2" d="m203.35,127.8v6.44h-3.81v-6.44h3.81m.45-.45h-4.72v7.35h4.72v-7.35h0Z"/>
        </g>
        <g>
          <rect class="cls-3" x="179.68" y="127.57" width="4.26" height="6.89"/>
          <path class="cls-2" d="m183.72,127.8v6.44h-3.81v-6.44h3.81m.45-.45h-4.72v7.35h4.72v-7.35h0Z"/>
        </g>
        <g>
          <rect class="cls-3" x="156.51" y="127.48" width="6.94" height="10.16"/>
          <path class="cls-2" d="m163.26,127.66v9.84h-6.58v-9.84h6.58m.36-.32h-7.26v10.52h7.26v-10.52h0Z"/>
        </g>
        <g>
          <rect class="cls-3" x="132.51" y="127.48" width="6.94" height="10.16"/>
          <path class="cls-2" d="m139.27,127.66v9.84h-6.58v-9.84h6.58m.36-.32h-7.26v10.52h7.26v-10.52h0Z"/>
        </g>
      </g>
      <g>
        <g>
          <path class="cls-3" d="m62.63,64.67v-7.71c0-1.22,1-2.18,2.18-2.18s2.18,1,2.18,2.18v7.71h-4.35Z"/>
          <path class="cls-1" d="m64.85,54.97c1.13,0,2.04.91,2.04,2.04v7.53h-4.04v-7.53c-.05-1.13.86-2.04,2-2.04m0-.36h0c-1.32,0-2.36,1.04-2.36,2.36v7.89h4.72v-7.85c0-1.32-1.09-2.4-2.36-2.4h0Z"/>
        </g>
        <g>
          <path class="cls-3" d="m74.69,64.67v-7.71c0-1.22,1-2.18,2.18-2.18s2.18,1,2.18,2.18v7.71h-4.35Z"/>
          <path class="cls-1" d="m76.87,54.97c1.13,0,2.04.91,2.04,2.04v7.53h-4.04v-7.53c0-1.13.91-2.04,2-2.04m0-.36c-1.32,0-2.36,1.04-2.36,2.36v7.89h4.72v-7.85c.05-1.32-1.04-2.4-2.36-2.4h0Z"/>
        </g>
        <g>
          <path class="cls-3" d="m86.94,64.67v-7.71c0-1.22,1-2.18,2.18-2.18s2.18,1,2.18,2.18v7.71h-4.35Z"/>
          <path class="cls-1" d="m89.11,54.97c1.13,0,2.04.91,2.04,2.04v7.53h-4.04v-7.53c0-1.13.91-2.04,2-2.04m0-.36c-1.32,0-2.36,1.04-2.36,2.36v7.89h4.72v-7.85c.05-1.32-1.04-2.4-2.36-2.4h0Z"/>
        </g>
        <g>
          <path class="cls-3" d="m98.68,64.67v-7.71c0-1.22,1-2.18,2.18-2.18s2.18,1,2.18,2.18v7.71h-4.35Z"/>
          <path class="cls-1" d="m100.91,54.97c1.13,0,2.04.91,2.04,2.04v7.53h-4.08v-7.53c0-1.13.91-2.04,2.04-2.04m0-.36c-1.32,0-2.36,1.04-2.36,2.36v7.89h4.72v-7.85c0-1.32-1.04-2.4-2.36-2.4h0Z"/>
        </g>
        <g>
          <path class="cls-3" d="m44.08,64.67v-7.71c0-1.22,1-2.18,2.18-2.18s2.18,1,2.18,2.18v7.71h-4.35Z"/>
          <path class="cls-1" d="m46.3,54.97c1.13,0,2.04.91,2.04,2.04v7.53h-4.04v-7.53c-.05-1.13.86-2.04,2-2.04m0-.36h0c-1.32,0-2.36,1.04-2.36,2.36v7.89h4.72v-7.85c0-1.32-1.09-2.4-2.36-2.4h0Z"/>
        </g>
        <g>
          <path class="cls-3" d="m10.52,64.67v-7.71c0-1.22,1-2.18,2.18-2.18s2.18,1,2.18,2.18v7.71h-4.35Z"/>
          <path class="cls-1" d="m12.74,54.97c1.13,0,2.04.91,2.04,2.04v7.53h-4.04v-7.53c-.05-1.13.86-2.04,2-2.04m0-.36h0c-1.32,0-2.36,1.04-2.36,2.36v7.89h4.72v-7.85c0-1.32-1.04-2.4-2.36-2.4h0Z"/>
        </g>
        <g>
          <path class="cls-3" d="m32.52,64.08v-8.53c0-.77.63-1.45,1.41-1.45s1.41.63,1.41,1.45v8.53h-2.81Z"/>
          <path class="cls-1" d="m33.92,54.24c.73,0,1.32.59,1.32,1.27v8.44h-2.58v-8.39c0-.73.59-1.32,1.27-1.32m0-.27h0c-.86,0-1.59.68-1.59,1.59v8.66h3.13v-8.66c.05-.86-.68-1.59-1.54-1.59h0Z"/>
        </g>
        <g>
          <path class="cls-3" d="m19.5,64.08v-8.53c0-.77.63-1.45,1.41-1.45s1.41.63,1.41,1.45v8.53h-2.81Z"/>
          <path class="cls-1" d="m20.91,54.24c.73,0,1.32.59,1.32,1.27v8.44h-2.58v-8.39c0-.73.54-1.32,1.27-1.32m0-.27h0c-.86,0-1.59.68-1.59,1.59v8.66h3.13v-8.66c.05-.86-.68-1.59-1.54-1.59h0Z"/>
        </g>
        <g>
          <path class="cls-3" d="m25.99,64.08v-8.53c0-.77.63-1.45,1.41-1.45s1.41.63,1.41,1.45v8.53h-2.81Z"/>
          <path class="cls-1" d="m27.44,54.24c.73,0,1.32.59,1.32,1.27v8.44h-2.58v-8.39c-.05-.73.54-1.32,1.27-1.32m0-.27h0c-.86,0-1.59.68-1.59,1.59v8.66h3.13v-8.66c0-.86-.68-1.59-1.54-1.59h0Z"/>
        </g>
        <g>
          <path class="cls-3" d="m161.04,64.67v-7.71c0-1.22,1-2.18,2.18-2.18s2.18,1,2.18,2.18v7.71h-4.35Z"/>
          <path class="cls-1" d="m163.26,54.97c1.13,0,2.04.91,2.04,2.04v7.53h-4.04v-7.53c-.05-1.13.86-2.04,2-2.04m0-.36c-1.32,0-2.36,1.04-2.36,2.36v7.89h4.72v-7.85c0-1.32-1.04-2.4-2.36-2.4h0Z"/>
        </g>
        <g>
          <path class="cls-3" d="m149.02,64.67v-7.71c0-1.22,1-2.18,2.18-2.18s2.18,1,2.18,2.18v7.71h-4.35Z"/>
          <path class="cls-1" d="m151.2,54.97c1.13,0,2.04.91,2.04,2.04v7.53h-4.04v-7.53c-.05-1.13.86-2.04,2-2.04m0-.36c-1.32,0-2.36,1.04-2.36,2.36v7.89h4.72v-7.85c0-1.32-1.04-2.4-2.36-2.4h0Z"/>
        </g>
        <g>
          <path class="cls-3" d="m136.78,64.67v-7.71c0-1.22,1-2.18,2.18-2.18s2.18,1,2.18,2.18v7.71h-4.35Z"/>
          <path class="cls-1" d="m138.95,54.97c1.13,0,2.04.91,2.04,2.04v7.53h-4.04v-7.53c-.05-1.13.86-2.04,2-2.04m0-.36c-1.32,0-2.36,1.04-2.36,2.36v7.89h4.72v-7.85c0-1.32-1.04-2.4-2.36-2.4h0Z"/>
        </g>
        <g>
          <path class="cls-3" d="m124.99,64.67v-7.71c0-1.22,1-2.18,2.18-2.18s2.18,1,2.18,2.18v7.71h-4.35Z"/>
          <path class="cls-1" d="m127.16,54.97c1.13,0,2.04.91,2.04,2.04v7.53h-4.04v-7.53c0-1.13.91-2.04,2-2.04m.05-.36c-1.32,0-2.36,1.04-2.36,2.36v7.89h4.72v-7.85c0-1.32-1.09-2.4-2.36-2.4h0Z"/>
        </g>
        <path class="cls-6" d="m114.06,54.6c-1.32,0-2.36,1.04-2.36,2.36v7.89h4.72v-7.85c0-1.32-1.09-2.4-2.36-2.4h0Z"/>
        <g>
          <path class="cls-3" d="m179.59,64.67v-7.71c0-1.22,1-2.18,2.18-2.18s2.18,1,2.18,2.18v7.71h-4.35Z"/>
          <path class="cls-1" d="m181.81,54.97c1.13,0,2.04.91,2.04,2.04v7.53h-4.04v-7.53c-.05-1.13.86-2.04,2-2.04m0-.36h0c-1.32,0-2.36,1.04-2.36,2.36v7.89h4.72v-7.85c0-1.32-1.04-2.4-2.36-2.4h0Z"/>
        </g>
        <g>
          <path class="cls-3" d="m213.15,64.67v-7.71c0-1.22,1-2.18,2.18-2.18s2.18,1,2.18,2.18v7.71h-4.35Z"/>
          <path class="cls-1" d="m215.33,54.97c1.13,0,2.04.91,2.04,2.04v7.53h-4.04v-7.53c0-1.13.91-2.04,2-2.04m0-.36c-1.32,0-2.36,1.04-2.36,2.36v7.89h4.72v-7.85c.05-1.32-1.04-2.4-2.36-2.4h0Z"/>
        </g>
        <g>
          <path class="cls-3" d="m192.74,64.08v-8.53c0-.77.63-1.45,1.45-1.45s1.45.63,1.45,1.45v8.53h-2.9Z"/>
          <path class="cls-1" d="m194.15,54.24c.73,0,1.27.59,1.27,1.27v8.44h-2.58v-8.39c.05-.73.63-1.32,1.32-1.32m0-.27c-.86,0-1.59.68-1.59,1.59v8.66h3.13v-8.66c.05-.86-.68-1.59-1.54-1.59h0Z"/>
        </g>
        <g>
          <path class="cls-3" d="m205.76,64.08v-8.53c0-.77.63-1.45,1.45-1.45s1.45.63,1.45,1.45v8.53h-2.9Z"/>
          <path class="cls-1" d="m207.16,54.24c.73,0,1.27.59,1.27,1.27v8.44h-2.54v-8.39c0-.73.59-1.32,1.27-1.32m0-.27c-.86,0-1.59.68-1.59,1.59v8.66h3.13v-8.66c.05-.86-.68-1.59-1.54-1.59h0Z"/>
        </g>
        <g>
          <path class="cls-3" d="m199.23,64.08v-8.53c0-.77.63-1.45,1.45-1.45s1.45.63,1.45,1.45v8.53h-2.9Z"/>
          <path class="cls-1" d="m200.68,54.24c.73,0,1.27.59,1.27,1.27v8.44h-2.58v-8.39c0-.73.59-1.32,1.32-1.32m0-.27c-.86,0-1.59.68-1.59,1.59v8.66h3.13v-8.66c0-.86-.68-1.59-1.54-1.59h0Z"/>
        </g>
      </g>
      <g>
        <g>
          <path class="cls-3" d="m62.63,83.22v-7.71c0-1.22,1-2.18,2.18-2.18s2.18,1,2.18,2.18v7.71h-4.35Z"/>
          <path class="cls-1" d="m64.85,73.47c1.13,0,2.04.91,2.04,2.04v7.53h-4.04v-7.53c-.05-1.13.86-2.04,2-2.04m0-.32h0c-1.32,0-2.36,1.04-2.36,2.36v7.85h4.72v-7.85c0-1.32-1.09-2.36-2.36-2.36h0Z"/>
        </g>
        <g>
          <path class="cls-3" d="m74.69,83.22v-7.71c0-1.22,1-2.18,2.18-2.18s2.18,1,2.18,2.18v7.71h-4.35Z"/>
          <path class="cls-1" d="m76.87,73.47c1.13,0,2.04.91,2.04,2.04v7.53h-4.04v-7.53c0-1.13.91-2.04,2-2.04m0-.32c-1.32,0-2.36,1.04-2.36,2.36v7.85h4.72v-7.85c.05-1.32-1.04-2.36-2.36-2.36h0Z"/>
        </g>
        <g>
          <path class="cls-3" d="m44.08,83.22v-7.71c0-1.22,1-2.18,2.18-2.18s2.18,1,2.18,2.18v7.71h-4.35Z"/>
          <path class="cls-1" d="m46.3,73.47c1.13,0,2.04.91,2.04,2.04v7.53h-4.04v-7.53c-.05-1.13.86-2.04,2-2.04m0-.32h0c-1.32,0-2.36,1.04-2.36,2.36v7.85h4.72v-7.85c0-1.32-1.09-2.36-2.36-2.36h0Z"/>
        </g>
        <g>
          <path class="cls-3" d="m10.52,83.22v-7.71c0-1.22,1-2.18,2.18-2.18s2.18,1,2.18,2.18v7.71h-4.35Z"/>
          <path class="cls-1" d="m12.74,73.47c1.13,0,2.04.91,2.04,2.04v7.53h-4.04v-7.53c-.05-1.13.86-2.04,2-2.04m0-.32h0c-1.32,0-2.36,1.04-2.36,2.36v7.85h4.72v-7.85c0-1.32-1.04-2.36-2.36-2.36h0Z"/>
        </g>
        <g>
          <path class="cls-3" d="m86.94,83.22v-7.71c0-1.22,1-2.18,2.18-2.18s2.18,1,2.18,2.18v7.71h-4.35Z"/>
          <path class="cls-1" d="m89.11,73.47c1.13,0,2.04.91,2.04,2.04v7.53h-4.04v-7.53c0-1.13.91-2.04,2-2.04m0-.32c-1.32,0-2.36,1.04-2.36,2.36v7.85h4.72v-7.85c.05-1.32-1.04-2.36-2.36-2.36h0Z"/>
        </g>
        <g>
          <path class="cls-3" d="m98.68,83.22v-7.71c0-1.22,1-2.18,2.18-2.18s2.18,1,2.18,2.18v7.71h-4.35Z"/>
          <path class="cls-1" d="m100.91,73.47c1.13,0,2.04.91,2.04,2.04v7.53h-4.08v-7.53c0-1.13.91-2.04,2.04-2.04m0-.32c-1.32,0-2.36,1.04-2.36,2.36v7.85h4.72v-7.85c0-1.32-1.04-2.36-2.36-2.36h0Z"/>
        </g>
        <g>
          <path class="cls-3" d="m25.99,82.22v-8.53c0-.77.63-1.45,1.41-1.45s1.41.63,1.41,1.45v8.53h-2.81Z"/>
          <path class="cls-1" d="m27.44,72.43c.73,0,1.32.59,1.32,1.27v8.39h-2.58v-8.39c-.05-.73.54-1.27,1.27-1.27m0-.27h0c-.86,0-1.59.68-1.59,1.59v8.66h3.13v-8.66c0-.91-.68-1.59-1.54-1.59h0Z"/>
        </g>
        <g>
          <path class="cls-3" d="m161.04,83.22v-7.71c0-1.22,1-2.18,2.18-2.18s2.18,1,2.18,2.18v7.71h-4.35Z"/>
          <path class="cls-1" d="m163.26,73.47c1.13,0,2.04.91,2.04,2.04v7.53h-4.04v-7.53c-.05-1.13.86-2.04,2-2.04m0-.32c-1.32,0-2.36,1.04-2.36,2.36v7.85h4.72v-7.85c0-1.32-1.04-2.36-2.36-2.36h0Z"/>
        </g>
        <g>
          <path class="cls-3" d="m149.02,83.22v-7.71c0-1.22,1-2.18,2.18-2.18s2.18,1,2.18,2.18v7.71h-4.35Z"/>
          <path class="cls-1" d="m151.2,73.47c1.13,0,2.04.91,2.04,2.04v7.53h-4.04v-7.53c-.05-1.13.86-2.04,2-2.04m0-.32c-1.32,0-2.36,1.04-2.36,2.36v7.85h4.72v-7.85c0-1.32-1.04-2.36-2.36-2.36h0Z"/>
        </g>
        <g>
          <path class="cls-3" d="m179.59,83.22v-7.71c0-1.22,1-2.18,2.18-2.18s2.18,1,2.18,2.18v7.71h-4.35Z"/>
          <path class="cls-1" d="m181.81,73.47c1.13,0,2.04.91,2.04,2.04v7.53h-4.04v-7.53c-.05-1.13.86-2.04,2-2.04m0-.32h0c-1.32,0-2.36,1.04-2.36,2.36v7.85h4.72v-7.85c0-1.32-1.04-2.36-2.36-2.36h0Z"/>
        </g>
        <g>
          <path class="cls-3" d="m213.15,83.22v-7.71c0-1.22,1-2.18,2.18-2.18s2.18,1,2.18,2.18v7.71h-4.35Z"/>
          <path class="cls-1" d="m215.33,73.47c1.13,0,2.04.91,2.04,2.04v7.53h-4.04v-7.53c0-1.13.91-2.04,2-2.04m0-.32c-1.32,0-2.36,1.04-2.36,2.36v7.85h4.72v-7.85c.05-1.32-1.04-2.36-2.36-2.36h0Z"/>
        </g>
        <g>
          <path class="cls-3" d="m136.78,83.22v-7.71c0-1.22,1-2.18,2.18-2.18s2.18,1,2.18,2.18v7.71h-4.35Z"/>
          <path class="cls-1" d="m138.95,73.47c1.13,0,2.04.91,2.04,2.04v7.53h-4.04v-7.53c-.05-1.13.86-2.04,2-2.04m0-.32c-1.32,0-2.36,1.04-2.36,2.36v7.85h4.72v-7.85c0-1.32-1.04-2.36-2.36-2.36h0Z"/>
        </g>
        <g>
          <path class="cls-3" d="m124.99,83.22v-7.71c0-1.22,1-2.18,2.18-2.18s2.18,1,2.18,2.18v7.71h-4.35Z"/>
          <path class="cls-1" d="m127.16,73.47c1.13,0,2.04.91,2.04,2.04v7.53h-4.04v-7.53c0-1.13.91-2.04,2-2.04m.05-.32c-1.32,0-2.36,1.04-2.36,2.36v7.85h4.72v-7.85c0-1.32-1.09-2.36-2.36-2.36h0Z"/>
        </g>
        <path class="cls-6" d="m114.06,73.15c-1.32,0-2.36,1.04-2.36,2.36v7.85h4.72v-7.85c0-1.32-1.09-2.36-2.36-2.36h0Z"/>
        <g>
          <path class="cls-3" d="m199.23,82.22v-8.53c0-.77.63-1.45,1.45-1.45s1.45.63,1.45,1.45v8.53h-2.9Z"/>
          <path class="cls-1" d="m200.68,72.43c.73,0,1.27.59,1.27,1.27v8.39h-2.58v-8.39c0-.73.59-1.27,1.32-1.27m0-.27c-.86,0-1.59.68-1.59,1.59v8.66h3.13v-8.66c0-.91-.68-1.59-1.54-1.59h0Z"/>
        </g>
      </g>
      <g>
        <g>
          <path class="cls-3" d="m161.04,101.72v-7.71c0-1.22,1-2.18,2.18-2.18s2.18,1,2.18,2.18v7.71h-4.35Z"/>
          <path class="cls-1" d="m163.26,92.02c1.13,0,2.04.91,2.04,2.04v7.53h-4.04v-7.53c-.05-1.13.86-2.04,2-2.04m0-.36c-1.32,0-2.36,1.04-2.36,2.36v7.85h4.72v-7.85c0-1.32-1.04-2.36-2.36-2.36h0Z"/>
        </g>
        <g>
          <path class="cls-3" d="m179.59,101.72v-7.71c0-1.22,1-2.18,2.18-2.18s2.18,1,2.18,2.18v7.71h-4.35Z"/>
          <path class="cls-1" d="m181.81,92.02c1.13,0,2.04.91,2.04,2.04v7.53h-4.04v-7.53c-.05-1.13.86-2.04,2-2.04m0-.36h0c-1.32,0-2.36,1.04-2.36,2.36v7.85h4.72v-7.85c0-1.32-1.04-2.36-2.36-2.36h0Z"/>
        </g>
        <g>
          <path class="cls-3" d="m213.15,101.72v-7.71c0-1.22,1-2.18,2.18-2.18s2.18,1,2.18,2.18v7.71h-4.35Z"/>
          <path class="cls-1" d="m215.33,92.02c1.13,0,2.04.91,2.04,2.04v7.53h-4.04v-7.53c0-1.13.91-2.04,2-2.04m0-.36c-1.32,0-2.36,1.04-2.36,2.36v7.85h4.72v-7.85c.05-1.32-1.04-2.36-2.36-2.36h0Z"/>
        </g>
        <g>
          <path class="cls-3" d="m149.02,101.72v-7.71c0-1.22,1-2.18,2.18-2.18s2.18,1,2.18,2.18v7.71h-4.35Z"/>
          <path class="cls-1" d="m151.2,92.02c1.13,0,2.04.91,2.04,2.04v7.53h-4.04v-7.53c-.05-1.13.86-2.04,2-2.04m0-.36c-1.32,0-2.36,1.04-2.36,2.36v7.85h4.72v-7.85c0-1.32-1.04-2.36-2.36-2.36h0Z"/>
        </g>
        <g>
          <path class="cls-3" d="m199.23,100.41v-8.53c0-.77.63-1.45,1.45-1.45s1.45.63,1.45,1.45v8.53h-2.9Z"/>
          <path class="cls-1" d="m200.68,90.57c.73,0,1.27.59,1.27,1.27v8.39h-2.58v-8.39c0-.68.59-1.27,1.32-1.27m0-.27c-.86,0-1.59.68-1.59,1.59v8.66h3.13v-8.66c0-.86-.68-1.59-1.54-1.59h0Z"/>
        </g>
      </g>
      <g>
        <g>
          <path class="cls-3" d="m103.85,27.53v-4.22c0-.77.63-1.41,1.41-1.41s1.41.63,1.41,1.41v4.22h-2.81Z"/>
          <path class="cls-1" d="m105.3,22c.73,0,1.32.59,1.32,1.32v4.08h-2.63v-4.08c0-.73.59-1.32,1.32-1.32m0-.23h0c-.86,0-1.54.68-1.54,1.54v4.31h3.08v-4.31c0-.86-.68-1.54-1.54-1.54h0Z"/>
        </g>
        <path class="cls-4" d="m114.06,13.33c-.86,0-1.54.68-1.54,1.54v3.31h3.08v-3.31c0-.86-.68-1.54-1.54-1.54Z"/>
        <path class="cls-4" d="m114.06,21.77c-.86,0-1.54.68-1.54,1.54v4.31h3.08v-4.31c0-.86-.68-1.54-1.54-1.54Z"/>
        <g>
          <path class="cls-3" d="m121.36,27.53v-4.22c0-.77.63-1.41,1.41-1.41s1.41.63,1.41,1.41v4.22h-2.81Z"/>
          <path class="cls-1" d="m122.81,22c.73,0,1.32.59,1.32,1.32v4.08h-2.63v-4.08c0-.73.59-1.32,1.32-1.32m0-.23c-.86,0-1.54.68-1.54,1.54v4.31h3.08v-4.31c0-.86-.73-1.54-1.54-1.54h0Z"/>
        </g>
      </g>
      <g>
        <polyline class="cls-7" points="228.07 65.49 209.97 65.49 208.75 64.85 190.84 64.85 189.79 65.49 175.69 65.49 174.92 65.17 114.06 65.17"/>
        <polyline class="cls-7" points="114.06 83.81 174.92 83.81 175.69 84.13 189.79 84.13 190.84 83.45 208.75 83.45 209.97 84.13 228.07 84.13"/>
        <polyline class="cls-7" points="228.07 102.22 209.97 102.22 208.75 101.54 190.84 101.54 189.79 102.22 175.69 102.22 174.83 102.67 147.98 102.67"/>
        <line class="cls-7" x1="114.06" y1="47.89" x2="174.83" y2="47.89"/>
        <line class="cls-7" x1="211.29" y1="30.7" x2="190.06" y2="30.7"/>
      </g>
      <path class="cls-1" d="m114.06,85.03c8.62,0,11.7,5.22,11.84,5.44l.32.59.63-.14c1.27-.27,2.49-.36,3.63-.36,7.94,0,10.34,6.49,11.16,8.62.41,1.04.86,1.81,1.36,2.45h-57.91c.5-.59,1-1.36,1.36-2.45.82-2.13,3.22-8.62,11.16-8.62,1.13,0,2.36.14,3.63.36l.63.14.32-.54c.14-.27,3.27-5.49,11.88-5.49m-.05-.91c-9.3,0-12.61,5.9-12.61,5.9-1.36-.27-2.63-.41-3.81-.41-8.03,0-10.84,6.08-11.97,9.21-1.32,3.54-3.72,3.67-3.72,3.67h64.31s-2.4-.09-3.72-3.67c-1.18-3.08-3.95-9.21-11.97-9.21-1.13,0-2.4.14-3.81.41-.05,0-3.4-5.9-12.7-5.9h0Z"/>
      <rect class="cls-1" x="171.7" y="34.38" width="4.35" height="72.38"/>
      <rect class="cls-1" x="224.67" y="52.65" width="3.45" height="54.1"/>
      <rect class="cls-2" x="224.67" y="106.8" width="3.45" height="35.33"/>
      <rect class="cls-2" x="171.7" y="106.8" width="4.35" height="36.64"/>
      <rect class="cls-2" x="144.4" y="102.13" width="3.54" height="42.13"/>
      <g>
        <rect class="cls-2" x="197.77" y="9.12" width="5.22" height="8.25"/>
        <rect class="cls-2" x="199.91" width="1" height="5.9"/>
        <path class="cls-1" d="m190.84,26.35c0-6.44,4.31-11.66,9.57-11.66s9.57,5.22,9.57,11.66"/>
        <path class="cls-1" d="m197.77,9.12c0-2.45,1.18-4.4,2.58-4.4s2.58,2,2.58,4.4"/>
      </g>
      <polygon class="cls-2" points="114.06 102.45 104.71 102.45 104.71 144.26 114.06 144.26 123.4 144.26 123.4 102.45 114.06 102.45"/>
      <path class="cls-1" d="m126.39,144.26h-24.72l-4.54,3.63,7.53,1.95s9.39.36,9.39,0c0,.36,9.3,0,9.3,0l7.53-1.95-4.49-3.63Z"/>
      <g>
        <rect class="cls-3" x="106.08" y="124.94" width="15.96" height="19.09"/>
        <path class="cls-1" d="m121.81,125.12v18.68h-15.51v-18.68h15.51m.41-.41h-16.37v19.5h16.37v-19.5h0Z"/>
      </g>
      <path class="cls-5" d="m114.06,103.44c-11.16,0-6.3,6.67-6.3,6.67v6.58h12.65v-6.58s4.81-6.67-6.35-6.67Z"/>
      <g>
        <line class="cls-8" x1="209.97" y1="142.13" x2="209.97" y2="106.8"/>
        <line class="cls-8" x1="190.84" y1="106.8" x2="190.84" y2="142.13"/>
      </g>
    </g>
  </g>
</svg>