<?xml version="1.0" encoding="UTF-8"?>
<svg id="Calque_2" data-name="Calque 2" xmlns="http://www.w3.org/2000/svg" viewBox="0 0 121.18 77.7">
  <defs>
    <style>
      .cls-1 {
        fill: #e8629f;
      }

      .cls-2 {
        fill: #fcbe1b;
      }

      .cls-3 {
        fill: #fcbe1c;
      }

      .cls-4 {
        fill: #e6629f;
      }

      .cls-5 {
        fill: #261923;
      }
    </style>
  </defs>
  <g id="Calque_1-2" data-name="Calque 1">
    <g>
      <rect class="cls-1" x="36.98" y="1.03" width="47.22" height="76.64"/>
      <rect class="cls-2" x="36.98" width="47.22" height="1.8"/>
      <circle class="cls-2" cx="60.59" cy="14.17" r="8.34"/>
      <rect class="cls-1" x="53.69" y="12.63" width="13.77" height="3.05"/>
      <rect class="cls-1" x="59.05" y="7.27" width="3.05" height="13.77"/>
      <g>
        <rect class="cls-5" x="55.93" y="65.29" width="9.33" height="12.04"/>
        <path class="cls-3" d="m64.89,65.66v11.31h-8.59v-11.31h8.59m.73-.73h-10.06v12.78h10.06v-12.78h0Z"/>
      </g>
      <g>
        <rect class="cls-2" y="22.22" width="36.98" height="55.45"/>
        <rect class="cls-2" x="7.49" y="6.13" width="29.49" height="16.08"/>
        <rect class="cls-1" y="21.3" width="36.98" height="1.8"/>
        <g>
          <g>
            <rect class="cls-5" x="27.43" y="11.31" width="6.5" height="5.69"/>
            <path class="cls-4" d="m33.56,11.68v4.96h-5.77v-4.96h5.77m.73-.73h-7.23v6.43h7.23v-6.43h0Z"/>
          </g>
          <g>
            <rect class="cls-5" x="18.95" y="11.31" width="6.5" height="5.69"/>
            <path class="cls-4" d="m25.12,11.68v4.96h-5.8v-4.96h5.8m.73-.73h-7.27v6.43h7.23v-6.43h.04Z"/>
          </g>
          <g>
            <rect class="cls-5" x="10.5" y="11.31" width="6.5" height="5.69"/>
            <path class="cls-4" d="m16.67,11.68v4.96h-5.8v-4.96h5.8m.73-.73h-7.27v6.43h7.23v-6.43h.04Z"/>
          </g>
        </g>
        <g>
          <g>
            <rect class="cls-5" x="3.42" y="28.02" width="12.89" height="6.54"/>
            <path class="cls-4" d="m15.94,28.39v5.8H3.78v-5.8h12.15m.73-.73H3.05v7.27h13.62v-7.27h0Z"/>
          </g>
          <g>
            <rect class="cls-5" x="3.42" y="40.43" width="12.89" height="6.54"/>
            <path class="cls-4" d="m15.94,40.8v5.8H3.78v-5.8h12.15m.73-.73H3.05v7.27h13.62v-7.27h0Z"/>
          </g>
          <g>
            <rect class="cls-5" x="3.42" y="52.84" width="12.89" height="6.54"/>
            <path class="cls-4" d="m15.94,53.21v5.8H3.78v-5.8h12.15m.73-.73H3.05v7.27h13.62v-7.27h0Z"/>
          </g>
          <g>
            <rect class="cls-5" x="3.42" y="65.25" width="12.89" height="6.54"/>
            <path class="cls-4" d="m15.94,65.62v5.8H3.78v-5.8h12.15m.73-.73H3.05v7.27h13.62v-7.27h0Z"/>
          </g>
        </g>
        <g>
          <g>
            <rect class="cls-5" x="20.6" y="28.02" width="12.89" height="6.54"/>
            <path class="cls-4" d="m33.12,28.39v5.8h-12.15v-5.8h12.15m.73-.73h-13.62v7.27h13.62v-7.27h0Z"/>
          </g>
          <g>
            <rect class="cls-5" x="20.6" y="40.43" width="12.89" height="6.54"/>
            <path class="cls-4" d="m33.12,40.8v5.8h-12.15v-5.8h12.15m.73-.73h-13.62v7.27h13.62v-7.27h0Z"/>
          </g>
          <g>
            <rect class="cls-5" x="20.6" y="52.84" width="12.89" height="6.54"/>
            <path class="cls-4" d="m33.12,53.21v5.8h-12.15v-5.8h12.15m.73-.73h-13.62v7.27h13.62v-7.27h0Z"/>
          </g>
          <g>
            <rect class="cls-5" x="20.6" y="65.25" width="12.89" height="6.54"/>
            <path class="cls-4" d="m33.12,65.62v5.8h-12.15v-5.8h12.15m.73-.73h-13.62v7.27h13.62v-7.27h0Z"/>
          </g>
        </g>
      </g>
      <g>
        <rect class="cls-2" x="84.2" y="22.22" width="36.98" height="55.45"/>
        <rect class="cls-2" x="84.2" y="6.13" width="29.49" height="16.08"/>
        <rect class="cls-1" x="84.2" y="21.3" width="36.98" height="1.8"/>
        <g>
          <g>
            <g>
              <rect class="cls-5" x="87.65" y="28.02" width="12.89" height="6.54"/>
              <path class="cls-4" d="m100.18,28.39v5.8h-12.15v-5.8h12.15m.73-.73h-13.62v7.27h13.62v-7.27h0Z"/>
            </g>
            <g>
              <rect class="cls-5" x="87.65" y="40.43" width="12.89" height="6.54"/>
              <path class="cls-4" d="m100.18,40.8v5.8h-12.15v-5.8h12.15m.73-.73h-13.62v7.27h13.62v-7.27h0Z"/>
            </g>
            <g>
              <rect class="cls-5" x="87.65" y="52.84" width="12.89" height="6.54"/>
              <path class="cls-4" d="m100.18,53.21v5.8h-12.15v-5.8h12.15m.73-.73h-13.62v7.27h13.62v-7.27h0Z"/>
            </g>
            <g>
              <rect class="cls-5" x="87.65" y="65.25" width="12.89" height="6.54"/>
              <path class="cls-4" d="m100.18,65.62v5.8h-12.15v-5.8h12.15m.73-.73h-13.62v7.27h13.62v-7.27h0Z"/>
            </g>
          </g>
          <g>
            <g>
              <rect class="cls-5" x="104.84" y="28.02" width="12.89" height="6.54"/>
              <path class="cls-4" d="m117.36,28.39v5.8h-12.15v-5.8h12.15m.73-.73h-13.62v7.27h13.62v-7.27h0Z"/>
            </g>
            <g>
              <rect class="cls-5" x="104.84" y="40.43" width="12.89" height="6.54"/>
              <path class="cls-4" d="m117.36,40.8v5.8h-12.15v-5.8h12.15m.73-.73h-13.62v7.27h13.62v-7.27h0Z"/>
            </g>
            <g>
              <rect class="cls-5" x="104.84" y="52.84" width="12.89" height="6.54"/>
              <path class="cls-4" d="m117.36,53.21v5.8h-12.15v-5.8h12.15m.73-.73h-13.62v7.27h13.62v-7.27h0Z"/>
            </g>
            <g>
              <rect class="cls-5" x="104.84" y="65.25" width="12.89" height="6.54"/>
              <path class="cls-4" d="m117.36,65.62v5.8h-12.15v-5.8h12.15m.73-.73h-13.62v7.27h13.62v-7.27h0Z"/>
            </g>
          </g>
        </g>
        <g>
          <g>
            <rect class="cls-5" x="104.14" y="11.31" width="6.5" height="5.69"/>
            <path class="cls-4" d="m110.31,11.68v4.96h-5.77v-4.96h5.77m.73-.73h-7.23v6.43h7.23v-6.43h0Z"/>
          </g>
          <g>
            <rect class="cls-5" x="95.7" y="11.31" width="6.5" height="5.69"/>
            <path class="cls-4" d="m101.86,11.68v4.96h-5.77v-4.96h5.77m.73-.73h-7.23v6.43h7.23v-6.43h0Z"/>
          </g>
          <g>
            <rect class="cls-5" x="87.25" y="11.31" width="6.5" height="5.69"/>
            <path class="cls-4" d="m93.38,11.68v4.96h-5.77v-4.96h5.77m.73-.73h-7.23v6.43h7.23v-6.43h0Z"/>
          </g>
        </g>
      </g>
      <g>
        <g>
          <rect class="cls-5" x="52.18" y="40.43" width="7.38" height="6.46"/>
          <path class="cls-3" d="m59.19,40.8v5.73h-6.65v-5.73h6.65m.73-.73h-8.12v7.2h8.12v-7.2h0Z"/>
        </g>
        <g>
          <rect class="cls-5" x="42.71" y="40.43" width="7.38" height="6.46"/>
          <path class="cls-3" d="m49.72,40.8v5.73h-6.65v-5.73h6.65m.73-.73h-8.12v7.2h8.12v-7.2h0Z"/>
        </g>
        <g>
          <rect class="cls-5" x="61.62" y="40.43" width="7.38" height="6.46"/>
          <path class="cls-3" d="m68.63,40.8v5.73h-6.65v-5.73h6.65m.73-.73h-8.12v7.2h8.12v-7.2h0Z"/>
        </g>
        <g>
          <rect class="cls-5" x="71.09" y="40.43" width="7.38" height="6.46"/>
          <path class="cls-3" d="m78.11,40.8v5.73h-6.65v-5.73h6.65m.73-.73h-8.12v7.2h8.12v-7.2h0Z"/>
        </g>
      </g>
      <g>
        <g>
          <rect class="cls-5" x="52.18" y="52.88" width="7.38" height="6.46"/>
          <path class="cls-3" d="m59.19,53.25v5.73h-6.65v-5.73h6.65m.73-.73h-8.12v7.2h8.12v-7.2h0Z"/>
        </g>
        <g>
          <rect class="cls-5" x="42.71" y="52.88" width="7.38" height="6.46"/>
          <path class="cls-3" d="m49.72,53.25v5.73h-6.65v-5.73h6.65m.73-.73h-8.12v7.2h8.12v-7.2h0Z"/>
        </g>
        <g>
          <rect class="cls-5" x="61.62" y="52.88" width="7.38" height="6.46"/>
          <path class="cls-3" d="m68.63,53.25v5.73h-6.65v-5.73h6.65m.73-.73h-8.12v7.2h8.12v-7.2h0Z"/>
        </g>
        <g>
          <rect class="cls-5" x="71.09" y="52.88" width="7.38" height="6.46"/>
          <path class="cls-3" d="m78.11,53.25v5.73h-6.65v-5.73h6.65m.73-.73h-8.12v7.2h8.12v-7.2h0Z"/>
        </g>
      </g>
      <g>
        <g>
          <rect class="cls-5" x="52.18" y="28.05" width="7.38" height="6.46"/>
          <path class="cls-3" d="m59.19,28.42v5.73h-6.65v-5.73h6.65m.73-.73h-8.12v7.2h8.12v-7.2h0Z"/>
        </g>
        <g>
          <rect class="cls-5" x="42.71" y="28.05" width="7.38" height="6.46"/>
          <path class="cls-3" d="m49.72,28.42v5.73h-6.65v-5.73h6.65m.73-.73h-8.12v7.2h8.12v-7.2h0Z"/>
        </g>
        <g>
          <rect class="cls-5" x="61.62" y="28.05" width="7.38" height="6.46"/>
          <path class="cls-3" d="m68.63,28.42v5.73h-6.65v-5.73h6.65m.73-.73h-8.12v7.2h8.12v-7.2h0Z"/>
        </g>
        <g>
          <rect class="cls-5" x="71.09" y="28.05" width="7.38" height="6.46"/>
          <path class="cls-3" d="m78.11,28.42v5.73h-6.65v-5.73h6.65m.73-.73h-8.12v7.2h8.12v-7.2h0Z"/>
        </g>
      </g>
      <g>
        <rect class="cls-5" x="42.71" y="65.29" width="7.38" height="6.46"/>
        <path class="cls-3" d="m49.72,65.66v5.73h-6.65v-5.73h6.65m.73-.73h-8.12v7.2h8.12v-7.2h0Z"/>
      </g>
      <g>
        <rect class="cls-5" x="71.09" y="65.29" width="7.38" height="6.46"/>
        <path class="cls-3" d="m78.11,65.66v5.73h-6.65v-5.73h6.65m.73-.73h-8.12v7.2h8.12v-7.2h0Z"/>
      </g>
    </g>
  </g>
</svg>