<?xml version="1.0" encoding="UTF-8"?>
<svg id="Calque_2" data-name="Calque 2" xmlns="http://www.w3.org/2000/svg" viewBox="0 0 50.9 26.02">
  <defs>
    <style>
      .cls-1 {
        fill: #e8629f;
      }

      .cls-2 {
        fill: #fcbe1b;
      }

      .cls-3 {
        fill: #261923;
      }
    </style>
  </defs>
  <g id="Calque_1-2" data-name="Calque 1">
    <g>
      <path class="cls-1" d="m25.57,0h5.42c11,0,19.91,8.93,19.91,19.91v5.68c0,.24-.2.43-.43.43H6.09c-.24,0-.41-.2-.41-.43v-5.68C5.66,8.93,14.59,0,25.57,0h0Z"/>
      <path class="cls-2" d="m25.84.61h4.89c10.76,0,19.5,8.73,19.5,19.5v5.91H6.35v-5.91C6.35,9.34,15.1.61,25.84.61Z"/>
      <path class="cls-1" d="m6.25,14.11h6.66c2.9,0,5.24,2.35,5.24,5.24v6.66H6.25v-11.91h0Z"/>
      <path class="cls-2" d="m6.25,14.49h6.29c2.9,0,5.24,2.35,5.24,5.24v6.29H6.25v-11.53h0Z"/>
      <path class="cls-1" d="m5.7,14.11h1.12c3.13,0,5.7,2.54,5.7,5.7v6.21H0v-6.21c0-3.15,2.54-5.7,5.7-5.7Z"/>
      <path class="cls-2" d="m5.74,14.49h1.04c2.9,0,5.24,2.35,5.24,5.24v6.29H.49v-6.29c0-2.9,2.35-5.24,5.24-5.24h0Z"/>
      <g>
        <path class="cls-3" d="m2.31,25.82v-5.84c0-1.97,1.62-3.59,3.59-3.59h.75c1.97,0,3.59,1.62,3.59,3.59v5.84H2.31Z"/>
        <path class="cls-1" d="m6.64,16.6c1.87,0,3.39,1.52,3.39,3.39v5.64H2.5v-5.64c0-1.87,1.52-3.39,3.39-3.39h.75m0-.39h-.75c-2.09,0-3.78,1.7-3.78,3.78v6.03h8.32v-6.03c0-2.09-1.7-3.78-3.78-3.78h0Z"/>
      </g>
    </g>
  </g>
</svg>