<?xml version="1.0" encoding="UTF-8"?>
<svg id="Calque_2" data-name="Calque 2" xmlns="http://www.w3.org/2000/svg" viewBox="0 0 99.49 100">
  <defs>
    <style>
      .cls-1, .cls-2 {
        fill: #e8629f;
      }

      .cls-3, .cls-4 {
        fill: #fcbe1b;
      }

      .cls-5, .cls-6 {
        fill: #261923;
      }

      .cls-6, .cls-2, .cls-4 {
        fill-rule: evenodd;
      }
    </style>
  </defs>
  <g id="Calque_1-2" data-name="Calque 1">
    <g>
      <rect class="cls-3" x="27.61" y="28.22" width="44.26" height="71.74"/>
      <g>
        <rect class="cls-5" x="43.52" y="80.34" width="12.41" height="19.18"/>
        <path class="cls-1" d="m55.45,80.82v18.18h-11.45v-18.18h11.45m.96-.96h-13.37v20.11h13.37v-20.11h0Z"/>
      </g>
      <g>
        <path class="cls-6" d="m44.42,68.15v-10.68c0-2.92,2.37-5.32,5.32-5.32s5.32,2.37,5.32,5.32v10.68h-10.65Z"/>
        <path class="cls-1" d="m49.74,52.66c2.66,0,4.84,2.18,4.84,4.84v10.17h-9.69v-10.2c0-2.66,2.18-4.81,4.84-4.81m0-.96h0c-3.21,0-5.81,2.6-5.81,5.81v11.13h11.58v-11.16c0-3.18-2.6-5.77-5.77-5.77h0Z"/>
      </g>
      <rect class="cls-3" x="71.87" y="26.2" width="24.53" height="73.8"/>
      <g>
        <path class="cls-6" d="m76.4,44.77v-7.02c0-1.64,1.35-2.98,2.98-2.98h.06c1.64,0,2.98,1.35,2.98,2.98v7.02h-6.03Z"/>
        <path class="cls-1" d="m79.44,35.28c1.38,0,2.5,1.12,2.5,2.5v6.54h-5.07v-6.54c0-1.38,1.12-2.5,2.5-2.5h.06m0-.96h-.06c-1.92,0-3.46,1.54-3.46,3.46v7.5h6.99v-7.5c0-1.92-1.57-3.46-3.46-3.46h0Z"/>
      </g>
      <g>
        <path class="cls-6" d="m85.86,44.77v-7.02c0-1.64,1.35-2.98,2.98-2.98h.06c1.64,0,2.98,1.35,2.98,2.98v7.02h-6.03Z"/>
        <path class="cls-1" d="m88.9,35.28c1.38,0,2.5,1.12,2.5,2.5v6.54h-5.07v-6.54c0-1.38,1.12-2.5,2.5-2.5h.06m0-.96h-.06c-1.92,0-3.46,1.54-3.46,3.46v7.5h6.99v-7.5c-.03-1.92-1.57-3.46-3.46-3.46h0Z"/>
      </g>
      <g>
        <path class="cls-6" d="m76.4,69.5v-7.02c0-1.64,1.35-2.98,2.98-2.98h.06c1.64,0,2.98,1.35,2.98,2.98v7.02h-6.03Z"/>
        <path class="cls-1" d="m79.44,59.97c1.38,0,2.5,1.12,2.5,2.5v6.54h-5.07v-6.54c0-1.38,1.12-2.5,2.5-2.5h.06m0-.96h-.06c-1.92,0-3.46,1.54-3.46,3.46v7.5h6.99v-7.5c0-1.92-1.57-3.46-3.46-3.46h0Z"/>
      </g>
      <g>
        <path class="cls-6" d="m85.86,69.5v-7.02c0-1.64,1.35-2.98,2.98-2.98h.06c1.64,0,2.98,1.35,2.98,2.98v7.02h-6.03Z"/>
        <path class="cls-1" d="m88.9,59.97c1.38,0,2.5,1.12,2.5,2.5v6.54h-5.07v-6.54c0-1.38,1.12-2.5,2.5-2.5h.06m0-.96h-.06c-1.92,0-3.46,1.54-3.46,3.46v7.5h6.99v-7.5c-.03-1.92-1.57-3.46-3.46-3.46h0Z"/>
      </g>
      <g>
        <path class="cls-6" d="m85.86,91.4v-7.02c0-1.64,1.35-2.98,2.98-2.98h.06c1.64,0,2.98,1.35,2.98,2.98v7.02h-6.03Z"/>
        <path class="cls-1" d="m88.9,81.91c1.38,0,2.5,1.12,2.5,2.5v6.54h-5.07v-6.54c0-1.38,1.12-2.5,2.5-2.5h.06m0-.96h-.06c-1.92,0-3.46,1.54-3.46,3.46v7.5h6.99v-7.5c-.03-1.92-1.57-3.46-3.46-3.46h0Z"/>
      </g>
      <g>
        <path class="cls-6" d="m60.97,91.4v-7.02c0-1.64,1.35-2.98,2.98-2.98h.06c1.64,0,2.98,1.35,2.98,2.98v7.02h-6.03Z"/>
        <path class="cls-1" d="m64.02,81.91c1.38,0,2.5,1.12,2.5,2.5v6.54h-5.07v-6.54c0-1.38,1.12-2.5,2.5-2.5h.06m-.03-.96h-.06c-1.92,0-3.46,1.54-3.46,3.46v7.5h6.99v-7.5c0-1.92-1.54-3.46-3.46-3.46h0Z"/>
      </g>
      <g>
        <path class="cls-6" d="m32.49,91.4v-7.02c0-1.64,1.35-2.98,2.98-2.98h.06c1.64,0,2.98,1.35,2.98,2.98v7.02h-6.03Z"/>
        <path class="cls-1" d="m35.54,81.91c1.38,0,2.5,1.12,2.5,2.5v6.54h-5.07v-6.54c0-1.38,1.12-2.5,2.5-2.5h.06m-.03-.96h-.06c-1.92,0-3.46,1.54-3.46,3.46v7.5h6.99v-7.5c0-1.92-1.54-3.46-3.46-3.46h0Z"/>
      </g>
      <g>
        <polygon class="cls-2" points="69.66 26.72 84.12 1.06 98.59 26.72 69.66 26.72"/>
        <path class="cls-3" d="m84.12,2.08l13.57,24.09h-27.13l13.57-24.09m0-2.08l-.9,1.6-13.57,24.09-.87,1.54h30.69l-.87-1.54L85.02,1.6l-.9-1.6h0Z"/>
      </g>
      <rect class="cls-1" x="71.87" y="53.21" width="24.53" height="2.53"/>
      <rect class="cls-1" x="27.58" y="47.85" width="44.26" height="2.53"/>
      <rect class="cls-1" x="71.87" y="73.67" width="24.53" height="2.53"/>
      <rect class="cls-3" x="3.08" y="26.2" width="24.53" height="73.8"/>
      <g>
        <path class="cls-6" d="m17.06,44.77v-7.02c0-1.64,1.35-2.98,2.98-2.98h.06c1.64,0,2.98,1.35,2.98,2.98v7.02h-6.03Z"/>
        <path class="cls-1" d="m20.11,35.28c1.38,0,2.5,1.12,2.5,2.5v6.54h-5.07v-6.54c0-1.38,1.12-2.5,2.5-2.5h.06m0-.96h-.06c-1.92,0-3.46,1.54-3.46,3.46v7.5h6.99v-7.5c-.03-1.92-1.57-3.46-3.46-3.46h0Z"/>
      </g>
      <g>
        <path class="cls-6" d="m7.6,44.77v-7.02c0-1.64,1.35-2.98,2.98-2.98h.06c1.64,0,2.98,1.35,2.98,2.98v7.02h-6.03Z"/>
        <path class="cls-1" d="m10.65,35.28c1.38,0,2.5,1.12,2.5,2.5v6.54h-5.07v-6.54c0-1.38,1.12-2.5,2.5-2.5h.06m0-.96h-.06c-1.89,0-3.46,1.54-3.46,3.46v7.5h6.99v-7.5c0-1.92-1.57-3.46-3.46-3.46h0Z"/>
      </g>
      <g>
        <path class="cls-6" d="m17.06,69.5v-7.02c0-1.64,1.35-2.98,2.98-2.98h.06c1.64,0,2.98,1.35,2.98,2.98v7.02h-6.03Z"/>
        <path class="cls-1" d="m20.11,59.97c1.38,0,2.5,1.12,2.5,2.5v6.54h-5.07v-6.54c0-1.38,1.12-2.5,2.5-2.5h.06m0-.96h-.06c-1.92,0-3.46,1.54-3.46,3.46v7.5h6.99v-7.5c-.03-1.92-1.57-3.46-3.46-3.46h0Z"/>
      </g>
      <g>
        <path class="cls-6" d="m7.6,69.5v-7.02c0-1.64,1.35-2.98,2.98-2.98h.06c1.64,0,2.98,1.35,2.98,2.98v7.02h-6.03Z"/>
        <path class="cls-1" d="m10.65,59.97c1.38,0,2.5,1.12,2.5,2.5v6.54h-5.07v-6.54c0-1.38,1.12-2.5,2.5-2.5h.06m0-.96h-.06c-1.89,0-3.46,1.54-3.46,3.46v7.5h6.99v-7.5c0-1.92-1.57-3.46-3.46-3.46h0Z"/>
      </g>
      <g>
        <path class="cls-6" d="m7.6,91.4v-7.02c0-1.64,1.35-2.98,2.98-2.98h.06c1.64,0,2.98,1.35,2.98,2.98v7.02h-6.03Z"/>
        <path class="cls-1" d="m10.65,81.91c1.38,0,2.5,1.12,2.5,2.5v6.54h-5.07v-6.54c0-1.38,1.12-2.5,2.5-2.5h.06m0-.96h-.06c-1.89,0-3.46,1.54-3.46,3.46v7.5h6.99v-7.5c0-1.92-1.57-3.46-3.46-3.46h0Z"/>
      </g>
      <g>
        <polygon class="cls-2" points=".87 26.72 15.33 1.06 29.79 26.72 .87 26.72"/>
        <path class="cls-3" d="m15.33,2.08l13.57,24.09H1.76L15.33,2.08m0-2.08l-.9,1.6L.87,25.69l-.87,1.54h30.69l-.87-1.54L16.23,1.6l-.9-1.6h0Z"/>
      </g>
      <rect class="cls-1" x="3.08" y="53.21" width="24.53" height="2.53"/>
      <rect class="cls-1" x="3.08" y="73.67" width="24.53" height="2.53"/>
      <path class="cls-2" d="m71.81,68.63H27.65s-6.96,10.04-6.93,10.07h58.02s-6.93-10.07-6.93-10.07h0Z"/>
      <path class="cls-2" d="m73.48,9.08H29.35s-6.96,19.11-6.93,19.18h58.02c0-.06-6.96-19.18-6.96-19.18h0Z"/>
      <g>
        <polygon class="cls-4" points="35.41 27.71 49.74 4.27 64.05 27.71 35.41 27.71"/>
        <path class="cls-1" d="m49.74,5.26l13.41,21.94h-26.78l13.37-21.94m0-1.96l-15.23,24.92h30.47L49.74,3.3h0Z"/>
      </g>
      <g>
        <path class="cls-6" d="m46.73,24.63v-7.02c0-1.64,1.35-2.98,2.98-2.98h.06c1.64,0,2.98,1.35,2.98,2.98v7.02h-6.03Z"/>
        <path class="cls-1" d="m49.78,15.11c1.38,0,2.5,1.12,2.5,2.5v6.54h-5.07v-6.54c0-1.38,1.12-2.5,2.5-2.5h.06m-.03-.96h-.06c-1.92,0-3.46,1.54-3.46,3.46v7.5h6.99v-7.5c0-1.92-1.54-3.46-3.46-3.46h0Z"/>
      </g>
      <rect class="cls-1" x="27.58" y="60.17" width="44.26" height=".99"/>
      <g>
        <rect class="cls-1" x="27.58" y="61.16" width=".99" height="7.47"/>
        <rect class="cls-1" x="31.53" y="61.16" width=".99" height="7.47"/>
        <rect class="cls-1" x="35.47" y="61.16" width=".99" height="7.47"/>
        <rect class="cls-1" x="39.38" y="61.16" width=".99" height="7.47"/>
        <rect class="cls-1" x="43.33" y="61.16" width=".99" height="7.47"/>
        <rect class="cls-1" x="47.27" y="61.16" width=".99" height="7.47"/>
        <rect class="cls-1" x="51.19" y="61.16" width=".99" height="7.47"/>
        <rect class="cls-1" x="55.13" y="61.16" width=".99" height="7.47"/>
        <rect class="cls-1" x="59.04" y="61.16" width=".99" height="7.47"/>
        <rect class="cls-1" x="62.99" y="61.16" width=".99" height="7.47"/>
        <rect class="cls-1" x="66.93" y="61.16" width=".99" height="7.47"/>
        <rect class="cls-1" x="70.85" y="61.16" width=".99" height="7.47"/>
      </g>
      <g>
        <path class="cls-6" d="m44.42,47.37v-10.68c0-2.92,2.37-5.32,5.32-5.32s5.32,2.37,5.32,5.32v10.68h-10.65Z"/>
        <path class="cls-1" d="m49.74,31.88c2.66,0,4.84,2.18,4.84,4.84v10.2h-9.69v-10.2c0-2.69,2.18-4.84,4.84-4.84m0-.96h0c-3.21,0-5.81,2.6-5.81,5.81v11.16h11.58v-11.16c0-3.21-2.6-5.81-5.77-5.81h0Z"/>
      </g>
      <rect class="cls-1" x="27.58" y="39.38" width="44.26" height=".99"/>
      <g>
        <rect class="cls-1" x="22.26" y="78.7" width=".99" height="21.3"/>
        <rect class="cls-1" x="40.6" y="78.7" width=".99" height="21.3"/>
        <rect class="cls-1" x="57.86" y="78.7" width=".99" height="21.3"/>
        <rect class="cls-1" x="76.2" y="78.7" width=".99" height="21.3"/>
      </g>
      <g>
        <rect class="cls-1" x="27.58" y="40.38" width=".99" height="7.47"/>
        <rect class="cls-1" x="31.53" y="40.38" width=".99" height="7.47"/>
        <rect class="cls-1" x="35.47" y="40.38" width=".99" height="7.47"/>
        <rect class="cls-1" x="39.38" y="40.38" width=".99" height="7.47"/>
        <rect class="cls-1" x="43.33" y="40.38" width=".99" height="7.47"/>
        <rect class="cls-1" x="47.27" y="40.38" width=".99" height="7.47"/>
        <rect class="cls-1" x="51.19" y="40.38" width=".99" height="7.47"/>
        <rect class="cls-1" x="55.13" y="40.38" width=".99" height="7.47"/>
        <rect class="cls-1" x="59.04" y="40.38" width=".99" height="7.47"/>
        <rect class="cls-1" x="62.99" y="40.38" width=".99" height="7.47"/>
        <rect class="cls-1" x="66.93" y="40.38" width=".99" height="7.47"/>
        <rect class="cls-1" x="70.85" y="40.38" width=".99" height="7.47"/>
      </g>
    </g>
  </g>
</svg>