<?xml version="1.0" encoding="UTF-8"?>
<svg id="Calque_2" data-name="Calque 2" xmlns="http://www.w3.org/2000/svg" viewBox="0 0 86.42 122.04">
  <defs>
    <style>
      .cls-1 {
        fill: #e8629f;
      }

      .cls-2 {
        fill: #fcbe1b;
      }

      .cls-3, .cls-4 {
        fill: #261923;
      }

      .cls-4 {
        fill-rule: evenodd;
      }

      .cls-5 {
        fill: none;
        stroke: #e8629f;
        stroke-miterlimit: 10;
        stroke-width: .8px;
      }
    </style>
  </defs>
  <g id="Calque_1-2" data-name="Calque 1">
    <g>
      <polygon class="cls-2" points="60.7 56.38 27.12 56.38 24.21 122.04 63.45 122.04 60.7 56.38"/>
      <polygon class="cls-1" points="43.81 30.27 24.21 56.38 63.45 56.38 43.81 30.27"/>
      <g>
        <rect class="cls-3" x="40.98" y="65.52" width="5.83" height="5.83"/>
        <path class="cls-1" d="m46.42,65.92v5.05h-5.05v-5.05h5.05m.81-.79h-6.65v6.65h6.65v-6.65h0Z"/>
      </g>
      <g>
        <rect class="cls-3" x="40.98" y="78.76" width="5.83" height="5.83"/>
        <path class="cls-1" d="m46.42,79.16v5.05h-5.05v-5.05h5.05m.81-.79h-6.65v6.65h6.65v-6.65h0Z"/>
      </g>
      <path class="cls-4" d="m48.33,122.04h-8.86v-10.94c0-2.44,1.99-4.43,4.43-4.43h0c2.44,0,4.43,1.99,4.43,4.43v10.94h0Z"/>
      <polygon class="cls-1" points="79.49 80.5 80 80 44.21 44.21 55.54 32.87 60.95 38.29 86.42 12.85 80.5 6.93 80.5 6.93 80 6.42 44.21 42.21 32.87 30.88 38.32 25.47 12.85 0 7.41 5.44 7.41 5.44 6.42 6.42 42.21 42.21 30.88 53.55 25.44 48.11 0 73.57 5.92 79.49 5.92 79.49 6.42 80 42.21 44.21 53.55 55.54 48.13 60.98 73.57 86.42 79.49 80.5"/>
      <polygon class="cls-2" points="44.21 44.21 80 80 79.02 80.98 42.21 44.21 6.42 80 5.44 79.02 42.21 42.21 6.42 6.42 7.41 5.44 44.21 42.21 80 6.42 80.98 7.41 44.21 44.21"/>
      <path class="cls-5" d="m39.47,122.04v-10.94c0-2.44,1.99-4.43,4.43-4.43h0c2.44,0,4.43,1.99,4.43,4.43v10.94"/>
    </g>
  </g>
</svg>