<?xml version="1.0" encoding="UTF-8"?>
<svg id="Calque_2" data-name="Calque 2" xmlns="http://www.w3.org/2000/svg" viewBox="0 0 130 90.78">
  <defs>
    <style>
      .cls-1 {
        fill: #e8629f;
      }

      .cls-2 {
        fill: #fcbe1b;
      }

      .cls-3 {
        fill: #261923;
      }

      .cls-4 {
        fill: none;
        stroke: #e8629f;
        stroke-miterlimit: 10;
        stroke-width: .66px;
      }
    </style>
  </defs>
  <g id="Calque_1-2" data-name="Calque 1">
    <g>
      <g>
        <polygon class="cls-1" points="70.4 6.72 55.25 22.69 85.58 22.69 70.4 6.72"/>
        <rect class="cls-2" x="57.23" y="22.69" width="26.34" height="26.34"/>
        <g>
          <path class="cls-3" d="m68.56,32.47v-4.94c0-1.02.82-1.88,1.88-1.88s1.88.82,1.88,1.88v4.97h-3.75v-.03Z"/>
          <path class="cls-1" d="m70.4,25.98c.86,0,1.55.69,1.55,1.55v4.64h-3.1v-4.64c0-.86.72-1.55,1.55-1.55m0-.66c-1.22,0-2.21.99-2.21,2.21v5.3h4.41v-5.3c0-1.22-.99-2.21-2.21-2.21h0Z"/>
        </g>
        <line class="cls-4" x1="70.4" y1="9.29" x2="70.4"/>
      </g>
      <rect class="cls-1" x="63.49" y="45.21" width="46.13" height="15.9"/>
      <rect class="cls-2" x="3.19" y="49.03" width="60.29" height="41.75"/>
      <g>
        <polygon class="cls-1" points="114.82 20.91 99.67 36.88 130 36.88 114.82 20.91"/>
        <rect class="cls-2" x="101.65" y="36.88" width="26.34" height="26.34"/>
        <g>
          <path class="cls-3" d="m112.94,46.69v-4.97c0-1.02.82-1.88,1.88-1.88s1.88.82,1.88,1.88v4.97h-3.75Z"/>
          <path class="cls-1" d="m114.82,40.17c.86,0,1.55.69,1.55,1.55v4.64h-3.1v-4.64c0-.86.69-1.55,1.55-1.55m0-.66c-1.22,0-2.21.99-2.21,2.21v5.3h4.41v-5.3c0-1.22-.99-2.21-2.21-2.21h0Z"/>
        </g>
        <line class="cls-4" x1="114.82" y1="23.48" x2="114.82" y2="14.19"/>
      </g>
      <polygon class="cls-1" points="128.16 59.8 109.62 45.21 91.05 59.8 91.05 86.96 128.16 86.96 128.16 59.8"/>
      <polygon class="cls-2" points="128.16 61.21 109.62 46.63 91.05 61.21 91.05 90.75 128.16 90.75 128.16 61.21"/>
      <rect class="cls-2" x="63.49" y="61.11" width="27.56" height="29.64"/>
      <g>
        <polygon class="cls-1" points=".56 48.7 12.22 28.75 57.36 28.75 57.36 48.7 .56 48.7"/>
        <path class="cls-2" d="m57.03,29.08v19.3H1.15l11.26-19.3h44.62m.66-.66H12.02L0,49.03h57.69v-20.61h0Z"/>
      </g>
      <g>
        <line class="cls-4" x1="91.05" y1="90.75" x2="91.05" y2="61.11"/>
        <line class="cls-4" x1="63.49" y1="49.03" x2="63.49" y2="90.75"/>
      </g>
      <g>
        <path class="cls-3" d="m67.8,81.43v-6.78c0-1.45,1.19-2.63,2.63-2.63s2.63,1.19,2.63,2.63v6.78h-5.27Z"/>
        <path class="cls-1" d="m70.4,72.34c1.28,0,2.3,1.02,2.3,2.3v6.45h-4.61v-6.45c.03-1.25,1.05-2.3,2.3-2.3m.03-.66h0c-1.65,0-2.96,1.32-2.96,2.96v7.11h5.93v-7.11c-.03-1.61-1.35-2.96-2.96-2.96h0Z"/>
      </g>
      <g>
        <path class="cls-3" d="m48.44,81.43v-6.78c0-1.45,1.19-2.63,2.63-2.63s2.63,1.19,2.63,2.63v6.78h-5.27Z"/>
        <path class="cls-1" d="m51.07,72.34c1.28,0,2.3,1.02,2.3,2.3v6.45h-4.61v-6.45c0-1.25,1.02-2.3,2.3-2.3m0-.66c-1.65,0-2.96,1.32-2.96,2.96v7.11h5.93v-7.11c0-1.61-1.32-2.96-2.96-2.96h0Z"/>
      </g>
      <g>
        <path class="cls-3" d="m29.11,81.43v-6.78c0-1.45,1.19-2.63,2.63-2.63s2.63,1.19,2.63,2.63v6.78h-5.27Z"/>
        <path class="cls-1" d="m31.71,72.34c1.28,0,2.3,1.02,2.3,2.3v6.45h-4.61v-6.45c0-1.25,1.05-2.3,2.3-2.3m0-.66h0c-1.65,0-2.96,1.32-2.96,2.96v7.11h5.93v-7.11c0-1.61-1.32-2.96-2.96-2.96h0Z"/>
      </g>
      <g>
        <path class="cls-3" d="m9.75,81.43v-6.78c0-1.45,1.19-2.63,2.63-2.63s2.63,1.19,2.63,2.63v6.78h-5.27Z"/>
        <path class="cls-1" d="m12.38,72.34c1.28,0,2.3,1.02,2.3,2.3v6.45h-4.61v-6.45c0-1.25,1.02-2.3,2.3-2.3m0-.66h0c-1.65,0-2.96,1.32-2.96,2.96v7.11h5.93v-7.11c0-1.61-1.35-2.96-2.96-2.96h0Z"/>
      </g>
      <g>
        <path class="cls-3" d="m79.59,81.43v-6.78c0-1.45,1.19-2.63,2.63-2.63s2.63,1.19,2.63,2.63v6.78h-5.27Z"/>
        <path class="cls-1" d="m82.22,72.34c1.28,0,2.3,1.02,2.3,2.3v6.45h-4.61v-6.45c0-1.25,1.02-2.3,2.3-2.3m0-.66c-1.65,0-2.96,1.32-2.96,2.96v7.11h5.93v-7.11c0-1.61-1.32-2.96-2.96-2.96h0Z"/>
      </g>
      <g>
        <path class="cls-3" d="m104.71,90.42v-17.45c0-2.7,2.21-4.87,4.87-4.87s4.91,2.21,4.91,4.87v17.45h-9.78Z"/>
        <path class="cls-1" d="m109.62,68.42c2.5,0,4.58,2.04,4.58,4.54v17.12h-9.15v-17.12c0-2.5,2.04-4.54,4.58-4.54m0-.66h0c-2.9,0-5.2,2.34-5.2,5.2v17.78h10.44v-17.78c-.03-2.86-2.37-5.2-5.24-5.2h0Z"/>
      </g>
      <g>
        <path class="cls-3" d="m117.49,90.42v-15.15c0-1.78,1.45-3.26,3.26-3.26s3.26,1.45,3.26,3.26v15.15h-6.52Z"/>
        <path class="cls-1" d="m120.71,72.34c1.61,0,2.93,1.32,2.93,2.93v14.82h-5.83v-14.82c0-1.61,1.28-2.93,2.9-2.93m0-.66h0c-1.98,0-3.59,1.61-3.59,3.59v15.48h7.15v-15.48c.03-1.98-1.58-3.59-3.56-3.59h0Z"/>
      </g>
      <g>
        <path class="cls-3" d="m95.23,90.42v-15.15c0-1.78,1.45-3.26,3.26-3.26s3.26,1.45,3.26,3.26v15.15h-6.52Z"/>
        <path class="cls-1" d="m98.49,72.34c1.61,0,2.93,1.32,2.93,2.93v14.82h-5.83v-14.82c-.03-1.61,1.28-2.93,2.9-2.93m0-.66h0c-1.98,0-3.59,1.61-3.59,3.59v15.48h7.18v-15.48c0-1.98-1.61-3.59-3.59-3.59h0Z"/>
      </g>
      <rect class="cls-1" x="3.19" y="49.03" width="60.29" height="2.24"/>
      <rect class="cls-1" x="3.19" y="66.65" width="60.29" height="2.24"/>
      <rect class="cls-1" x="57.23" y="45.21" width="6.22" height="3.82"/>
    </g>
  </g>
</svg>