<?xml version="1.0" encoding="UTF-8"?>
<svg id="Calque_2" data-name="Calque 2" xmlns="http://www.w3.org/2000/svg" viewBox="0 0 122.52 111.97">
  <defs>
    <style>
      .cls-1 {
        fill: #fcbe1b;
      }

      .cls-2 {
        fill: #e6629f;
      }

      .cls-3 {
        stroke: #e6629f;
      }

      .cls-3, .cls-4 {
        fill: none;
        stroke-miterlimit: 10;
        stroke-width: 1.42px;
      }

      .cls-4 {
        stroke: #fcbe1b;
      }
    </style>
  </defs>
  <g id="Calque_1-2" data-name="Calque 1">
    <g>
      <line class="cls-4" x1="45.35" y1="108.04" x2="55.22" y2="42.27"/>
      <line class="cls-4" x1="74.01" y1="108.04" x2="64.17" y2="42.27"/>
      <line class="cls-4" x1="46.94" y1="97.59" x2="72.53" y2="97.59"/>
      <line class="cls-4" x1="49.21" y1="81.71" x2="70.08" y2="81.71"/>
      <line class="cls-4" x1="51.45" y1="67.2" x2="67.91" y2="67.2"/>
      <line class="cls-4" x1="49.21" y1="81.71" x2="67.91" y2="67.2"/>
      <line class="cls-4" x1="70.08" y1="81.71" x2="51.45" y2="67.2"/>
      <line class="cls-4" x1="46.94" y1="97.59" x2="70.08" y2="81.71"/>
      <line class="cls-4" x1="72.53" y1="97.59" x2="49.21" y2="81.71"/>
      <line class="cls-4" x1="66.12" y1="55.38" x2="51.45" y2="67.2"/>
      <line class="cls-4" x1="53.24" y1="55.38" x2="67.91" y2="67.2"/>
      <line class="cls-4" x1="64.77" y1="46.12" x2="53.24" y2="55.38"/>
      <line class="cls-4" x1="54.67" y1="46.12" x2="66.17" y2="55.38"/>
      <line class="cls-4" x1="53.24" y1="55.38" x2="66.17" y2="55.38"/>
      <rect class="cls-2" x="38.52" y="107.7" width="42.21" height="4.27"/>
      <circle class="cls-1" cx="59.73" cy="42.27" r="5.07"/>
      <line class="cls-3" x1="121.55" y1="28.2" x2="121.55" y2="111.97"/>
      <line class="cls-3" x1="11.16" y1="56.2" x2="11.16" y2="111.97"/>
      <rect class="cls-1" x="6.3" y="34.46" width="97.57" height="5.78" transform="translate(-10.52 26.16) rotate(-24.46)"/>
      <path class="cls-1" d="m98.31,14.54c1.42-4.35,1.45-9.21-.05-14.54,0,0,28.65,8.94,23.69,36.25-6.09-8.39-14.43-15.88-21.24-16.46l-2.4-5.25h0Z"/>
      <polygon class="cls-1" points="17.99 95.69 4.59 95.69 0 111.97 22.32 111.97 17.99 95.69"/>
    </g>
  </g>
</svg>