<?xml version="1.0" encoding="UTF-8"?>
<svg id="Calque_2" data-name="Calque 2" xmlns="http://www.w3.org/2000/svg" viewBox="0 0 154.35 117.67">
  <defs>
    <style>
      .cls-1 {
        stroke: #e6629f;
        stroke-width: 1.51px;
      }

      .cls-1, .cls-2 {
        fill: none;
        stroke-miterlimit: 10;
      }

      .cls-2 {
        stroke: #fcbe1b;
        stroke-width: .38px;
      }

      .cls-3 {
        fill: #fcbe1b;
      }

      .cls-4 {
        fill: #e6629f;
      }

      .cls-5 {
        fill: #261923;
      }
    </style>
  </defs>
  <g id="Calque_1-2" data-name="Calque 1">
    <g>
      <g>
        <line class="cls-2" x1="1.94" y1="75.25" x2="53.74" y2="15.64"/>
        <path class="cls-2" d="m98.19,1.6c-1.1.38-18.86,11.93-18.86,11.93l-27.98,27.19"/>
        <polyline class="cls-2" points="96.87 25.41 79.37 41.2 71.54 91.68"/>
        <polyline class="cls-2" points="51.88 68.96 79.37 41.2 57 41.7"/>
        <polyline class="cls-2" points="102.74 91.91 99.67 25.91 108 91.11"/>
        <polyline class="cls-2" points="100.13 75.7 117.58 40.71 100.13 3.38"/>
        <path class="cls-2" d="m130.61,40.71c0,.3,13.59,38.24,13.59,38.24"/>
        <line class="cls-2" x1="57.15" y1="36.09" x2="69.15" y2="91.45"/>
        <line class="cls-2" x1="84.79" y1="72.75" x2="81.72" y2="91.91"/>
        <line class="cls-2" x1="85.58" y1="35.6" x2="58.28" y2="41.32"/>
        <path class="cls-2" d="m56.81,28.37c0,.8,13.86,63.2,13.86,63.2l.83-70.43-14.35-4.66s22.19-2.99,21.77-2.99"/>
        <polyline class="cls-2" points="117.58 85.51 101.37 24.73 118.53 52.64"/>
        <line class="cls-2" x1="133.37" y1="39.84" x2="146.09" y2="58.09"/>
        <line class="cls-2" x1="33.52" y1="82.1" x2="27.84" y2="86.15"/>
        <line class="cls-2" x1="49.99" y1="84.14" x2="35.94" y2="90.51"/>
        <polyline class="cls-2" points="78.84 69.19 64.15 68.32 57.37 65.33"/>
        <polyline class="cls-2" points="99.67 .12 127.24 34.01 99.67 11.48 117.58 40.71 127.24 35.6"/>
        <path class="cls-2" d="m103,51.92c.53-.23,7.57-4.17,7.57-4.17l7.01-7.01"/>
        <line class="cls-2" x1="105.62" y1="91.6" x2="99.67" y2="26.55"/>
        <path class="cls-2" d="m111.26,85.55c-.11-.57-11.09-60.81-11.09-60.81"/>
        <path class="cls-2" d="m121.63,84.64c-.04-.72-21.17-80.5-21.17-80.5"/>
        <line class="cls-2" x1="123.11" y1="84.64" x2="100.5" y2="2.92"/>
        <path class="cls-2" d="m130.61,45.45c-.11.72.68,24.5.68,24.5"/>
        <line class="cls-2" x1="131.29" y1="45.45" x2="132.69" y2="68.96"/>
        <line class="cls-2" x1="132.69" y1="73.73" x2="134.36" y2="81.34"/>
        <line class="cls-2" x1="127.69" y1="63.77" x2="122.31" y2="85.55"/>
        <line class="cls-2" x1="135.45" y1="81.34" x2="102.25" y2="67.26"/>
        <line class="cls-2" x1="119.4" y1="56.43" x2="99.44" y2="33.52"/>
        <line class="cls-2" x1="73.92" y1="91.91" x2="59" y2="19.09"/>
        <line class="cls-2" x1="72.33" y1="91.91" x2="58.28" y2="18.64"/>
        <path class="cls-2" d="m63.74,91.45c-.49-.53-6.36-29.88-6.36-29.88l8.82,30.07"/>
        <line class="cls-2" x1="68.13" y1="91.91" x2="57.37" y2="61.58"/>
      </g>
      <g>
        <line class="cls-1" x1="98.91" y1=".57" x2="100.43" y2="93.12"/>
        <line class="cls-1" x1="57.75" y1="88.73" x2="56.58" y2="13.6"/>
        <line class="cls-1" x1="130.38" y1="84.64" x2="127.84" y2="33.82"/>
      </g>
      <path class="cls-3" d="m141.44,115.69v-9.16l11.89-26.39s1.48-2.39-5.11-2.16c0,0-10.68,2.88-16.89,3.03v2.73l-20.07,1.78s.76,6.29-7.42,6.36c-8.18.08-37.64-.3-37.64-.3,0,0-1.4-1.63-3.33-2.08s-14.16-3.26-17.34,1.17c0,0,.23,4.28-.61,5.04,0,0-4.66.68-4.51,3.79,0,0-7.99-2.46-7.04-8.29,0,0-.45-1.7-2.08-.3v1.4s-1.4,0-1.7,1.78c0,0-1.78.15-2.23-2.46l-.95-.3s-.53,6.48,3.86,7.5c0,0,18.29,15.11,18.29,15.9l9.73.57,54.45-.42,28.7.83h0Z"/>
      <path class="cls-4" d="m40.41,101.79s4.58.87,6.97-1.93c2.39-2.8-.76-8.44-.76-8.44,0,0,24.16,7.69,63.99,6.51,0,0,4.58.61,4.88-6.51l17.65-3.26s1.48-4.58,6.82-4.43,10.83-1.93,13.33-3.56l-6.21,21.77s-3.56-.11-5.04,4.32c0,0-24.01,11.85-61.49,11.4s-39.68-12.61-40.14-15.87h0Z"/>
      <g>
        <rect class="cls-5" x="92.97" y="107.96" width="2.12" height="2.12"/>
        <rect class="cls-5" x="95.85" y="100.39" width="2.12" height="2.12"/>
        <rect class="cls-5" x="74.41" y="99.14" width="2.12" height="2.12"/>
        <rect class="cls-5" x="77.78" y="107.39" width="2.12" height="2.12"/>
        <rect class="cls-5" x="64.15" y="106.68" width="2.12" height="2.12"/>
        <rect class="cls-5" x="51.28" y="104.25" width="2.12" height="2.12"/>
        <rect class="cls-5" x="52.5" y="96.12" width="2.12" height="2.12" transform="translate(-51.46 132.99) rotate(-79.96)"/>
        <rect class="cls-5" x="119.4" y="98.27" width="2.12" height="2.12"/>
        <rect class="cls-5" x="127.69" y="96.6" width="2.12" height="2.12"/>
        <rect class="cls-5" x="121.82" y="105.24" width="2.12" height="2.12"/>
        <rect class="cls-5" x="132.35" y="104.14" width="2.12" height="2.12" transform="translate(-12.02 17.37) rotate(-7.13)"/>
      </g>
      <g>
        <path class="cls-3" d="m135.45,96s1.82-8.48,5.15-8.97,11.21-1.48,11.21-1.48c0,0,2.65.68,2.54,3.45s-1.51,7.01-1.51,7.01l-14.73,1.4-2.65-1.4h0Z"/>
        <g>
          <path class="cls-5" d="m140.53,96.19c.11-1.44.64-4.43,2.01-4.43.08,0,.15,0,.27.04.38.08.64.3.83.64.57,1.06-.04,3.03-.23,3.52-.49.04-2.16.11-2.88.23h0Z"/>
          <path class="cls-4" d="m142.54,91.98c.08,0,.15,0,.23.04.34.08.57.27.72.53.45.83.08,2.46-.19,3.26-.57.04-1.78.11-2.54.19.15-1.44.64-4.01,1.78-4.01m0-.38c-1.97,0-2.23,4.85-2.23,4.85.45-.15,3.22-.3,3.22-.3,0,0,1.51-4.01-.72-4.51-.04-.04-.15-.04-.27-.04h0Z"/>
        </g>
        <g>
          <path class="cls-5" d="m144.43,95.77c.11-1.44.64-4.43,2.01-4.43.08,0,.15,0,.27.04.38.08.64.3.83.64.57,1.06-.04,3.03-.23,3.52-.53,0-2.16.11-2.88.23h0Z"/>
          <path class="cls-4" d="m146.44,91.53c.08,0,.15,0,.23.04.34.08.57.27.72.53.45.83.08,2.46-.19,3.26-.57.04-1.78.11-2.54.19.11-1.4.64-4.01,1.78-4.01m0-.38c-1.97,0-2.23,4.85-2.23,4.85.45-.15,3.22-.3,3.22-.3,0,0,1.51-4.01-.72-4.51-.08-.04-.15-.04-.27-.04h0Z"/>
        </g>
        <g>
          <path class="cls-5" d="m148.48,95.32c.11-1.44.64-4.43,2.01-4.43.08,0,.15,0,.27.04.38.08.64.3.83.64.57,1.06-.04,3.03-.23,3.52-.49,0-2.16.11-2.88.23h0Z"/>
          <path class="cls-4" d="m150.53,91.07c.08,0,.15,0,.23.04.34.08.57.27.72.53.45.83.08,2.46-.19,3.26-.57.04-1.78.11-2.54.19.11-1.4.61-4.01,1.78-4.01m0-.38c-1.97,0-2.23,4.85-2.23,4.85.45-.15,3.22-.3,3.22-.3,0,0,1.51-4.01-.72-4.51-.08,0-.19-.04-.27-.04h0Z"/>
        </g>
      </g>
      <line class="cls-1" x1="45.41" y1="94.75" x2=".31" y2="74.53"/>
      <g>
        <polygon class="cls-4" points="12.35 73.13 51.39 40.71 37.46 78.65 12.35 73.13"/>
        <polygon class="cls-4" points="33.52 82.1 51.88 68.96 43.17 86.15 33.52 82.1"/>
        <path class="cls-4" d="m53.74,15.64s.91,2.57-5.95,14.12c0,0-4.85,7.31,8.6,7.69,0,0-2.88-1.4-1.67-6.93s4.24-11.47,4.24-11.47l-5.23-3.41h0Z"/>
        <path class="cls-4" d="m99.56,1.6s-17.76,28.66,1.82,23.1c0,0-1.59-2.08,0-4.05,0,0-11.36,4.35-1.67-10.49,0,.04,3.18-5.07-.15-8.56h0Z"/>
        <path class="cls-4" d="m123.3,38.67l10.07,1.17s-2.16,1.17-2.08,7.01c0,0-.38,4.66-2.95,8.22,0,0-.8,7.19,1.48,11.25l-11.25-9.39s-.38-6.63,3.18-9.28,1.55-8.97,1.55-8.97h0Z"/>
        <path class="cls-4" d="m110.54,81.72l35.52-23.59s1.86,4.35-3.9,6.32c0,0,1.67.8,1.17,1.89s-5.11,6.17-5.11,6.17c0,0-1.89.8-2.76.49,0,0-1.78,2.65-4.73,2.65s-5.87.98-6.74,1.89-10.26,4.47-13.44,4.17h0Z"/>
        <path class="cls-4" d="m100.5,58.7s-9.58.3-.23-15.22l-.3-15.98s-8.97,10.41-8.41,23.7c.04-.04,4.28,11.36,8.94,7.5h0Z"/>
        <path class="cls-4" d="m100.5,94.03s-3.98-9.73-3.6-11.4c0,0,1.25,1.02,3.03-.87,0,0-7.31-7.54,3.56-14.43l-4.66-8.94s-6.25,11.06-5.87,29.73c0,0,2.2,5.34,7.54,5.91h0Z"/>
        <path class="cls-4" d="m62.15,80.13s-4.62-5.04-4.7-11.17c0,0-3.56,3.56-4.47,7.91,0,0-5.3,9.32-2.8,13.03,0,0,1.67,2.35,6.97.8,0,0-4.96-4.62-4.17-8.48l9.16-2.08h0Z"/>
        <path class="cls-4" d="m58.28,40.14s-7.5,17.87-2.46,23.51c0,0-1.7,1.67-3.98,1.1,0,0,.68,4.43,1.67,4.66,0,0-7.08,2.08-4.01-9.69s5.23-18.48,5.23-18.48l3.56-1.1h0Z"/>
        <path class="cls-4" d="m67.79,81.72s1.36-5.49,2.08-5.53,8.41,1.44,14.92-8.71c0,0,.68,3.07,0,5.23,0,0,5.53,1.06,5.91-3.22,0,0,.38-2.2,2.27-2.8s.53-4.24.53-4.24c0,0,1.78-1.33,1.48-3.45,0,0-8.41,5.04-10,6.82,0,0-11.85,6.21-15.11,9.47,0,0-5.15.61-6.13,2.27,0,0,1.97,4.28,4.05,4.17h0Z"/>
      </g>
    </g>
  </g>
</svg>