<?xml version="1.0" encoding="UTF-8"?>
<svg id="Calque_2" data-name="Calque 2" xmlns="http://www.w3.org/2000/svg" viewBox="0 0 84.78 93.2">
  <defs>
    <style>
      .cls-1 {
        stroke-linejoin: round;
      }

      .cls-1, .cls-2 {
        fill: none;
        stroke: #fcbe1b;
        stroke-width: 1.7px;
      }

      .cls-2, .cls-3 {
        stroke-miterlimit: 10;
      }

      .cls-4 {
        fill: #fcbe1b;
      }

      .cls-5 {
        fill: #e6629f;
      }

      .cls-3 {
        fill: #261923;
        stroke: #e8629f;
        stroke-width: .49px;
      }
    </style>
  </defs>
  <g id="Calque_1-2" data-name="Calque 1">
    <g>
      <g>
        <path class="cls-5" d="m66.58,9.88c.19,0,8.96,4.7,8.96,4.7l2.04-5.4,3.24-2.34-2.68-3.87-11.56,6.91h0Z"/>
        <path class="cls-5" d="m65.85,12.46s1.05-2.43,1.22-2.36,7.77,4.11,7.77,4.11l-2.14,2.04-6.84-3.8h0Z"/>
        <g>
          <line class="cls-2" x1="83.47" y1="4.59" x2="83.47" y2="25.55"/>
          <line class="cls-2" x1="79.5" y1="4.59" x2="79.5" y2="25.55"/>
        </g>
        <circle class="cls-5" cx="81.45" cy="3.55" r="3.33"/>
        <path class="cls-5" d="m84.78,27.79c0-1.85-1.48-3.33-3.33-3.33s-3.33,1.48-3.33,3.33c0,.85.32,1.63.85,2.24h0c0,1.85,1.1,3.33,2.48,3.33s2.48-1.48,2.48-3.33h0c.51-.58.85-1.36.85-2.24Z"/>
        <path class="cls-2" d="m81.45,33.37c-.07.39,0,2.48,0,2.48,0,0,2.85,1.66,0,3.82,0,0-1.41.1-1.41-1.68"/>
      </g>
      <polygon class="cls-5" points="42.48 67.28 25.34 67.28 21.76 63.36 42.48 63.36 42.48 67.28"/>
      <rect class="cls-5" x="25.34" y="70.51" width="17.14" height="5.14"/>
      <rect class="cls-5" x="26.68" y="67.28" width="14.48" height="3.24"/>
      <rect class="cls-5" x="20.47" y="89.77" width="26.87" height="3.43"/>
      <polygon class="cls-5" points="42.48 75.67 37.17 75.67 45.71 84.68 33.91 84.68 22.1 84.68 30.65 75.67 25.34 75.67 14.75 87.21 16.92 89.77 33.91 89.77 50.9 89.77 53.07 87.21 42.48 75.67"/>
      <polygon class="cls-4" points="0 39.38 24.68 39.38 24.68 41.38 40.09 41.38 41.48 42.76 50.58 42.76 54.58 48.8 54.58 59 49.05 63.36 14.39 63.36 14.39 57.86 7.52 57.86 0 49.65 0 39.38"/>
      <polygon class="cls-3" points="43.38 50.09 53.33 50.09 53.33 56.05 43.38 53.5 43.38 50.09"/>
      <polygon class="cls-3" points="50.24 44.42 43.38 44.42 43.38 48.87 53.33 48.87 50.24 44.42"/>
      <line class="cls-2" x1="11.54" y1="27.38" x2="20.86" y2="41.38"/>
      <polyline class="cls-2" points="45.25 43.47 73.15 16.52 65.24 12.14 31.16 37.85 31.16 42.71"/>
      <line class="cls-2" x1="13.75" y1="30.71" x2="48.37" y2="24.87"/>
      <circle class="cls-5" cx="10.32" cy="25.55" r="3.09"/>
      <path class="cls-4" d="m67.94,9.32c-1.75-2.9-.85-6.65,2.02-8.42,2.9-1.75,6.65-.85,8.42,2.02"/>
      <path class="cls-1" d="m39.46,42.01s-1.87-9.01-1.7-9.13,14.34,3.99,14.39,3.94-1.78-13.46-1.78-13.46l12.44,3.14-1.58-11.34,11.12,1.1"/>
      <line class="cls-2" x1="13.22" y1="24.46" x2="68.5" y2="2.96"/>
      <circle class="cls-5" cx="55.72" cy="7.56" r="2.02"/>
      <rect class="cls-5" x="24.68" y="41.38" width="11.29" height="14.29"/>
    </g>
  </g>
</svg>