<?xml version="1.0" encoding="UTF-8"?>
<svg id="Calque_2" data-name="Calque 2" xmlns="http://www.w3.org/2000/svg" viewBox="0 0 168.2 71.66">
  <defs>
    <style>
      .cls-1 {
        fill: #e8629f;
      }

      .cls-2 {
        fill: #fcbe1b;
      }

      .cls-3 {
        fill: #261923;
      }

      .cls-4 {
        stroke: #fcbe1b;
        stroke-width: .91px;
      }

      .cls-4, .cls-5 {
        fill: none;
        stroke-miterlimit: 10;
      }

      .cls-5 {
        stroke: #e8629f;
        stroke-width: 1.22px;
      }
    </style>
  </defs>
  <g id="Calque_1-2" data-name="Calque 1">
    <g>
      <path class="cls-2" d="m17.78,20.85h3.9v-1.74h1.13v-1l-11.42-8.43L0,18.11v1h1.13v1.74h3.9v10.2H1.46v-.7h3.56v-.46H1.46v-.67h3.56v-.46H1.46v-.55h3.56v-.46H1.46v-1.92h3.56v-.46H.97v5.66h.15v2.04h.76v.09l3.26,3.35h.03v1.43h1.52v33.7h9.41v-33.7h1.52v-1.43h.03l3.26-3.35v-.09h.76v-2.04h.15v-5.69h-4.05v.46h3.56v1.92h-3.56v.46h3.56v.55h-3.56v.49h3.56v.64h-3.56v.46h3.56v.7h-3.56v-10.17h0Zm-11.08,15.28h-1.28l-2.95-3.04h4.23v3.04Zm4.32-9.62h-4.96v-5.66h4.96s0,5.66,0,5.66Zm.76,0v-5.66h4.96v5.66h-4.96Zm8.55,6.58l-2.95,3.04h-1.28v-3.04h4.23Z"/>
      <g>
        <rect class="cls-3" x="6.51" y="21.31" width="4.05" height="4.75"/>
        <path class="cls-1" d="m10.11,21.77v3.84h-3.14v-3.84h3.14m.91-.91h-4.96v5.66h4.96v-5.66h0Z"/>
      </g>
      <g>
        <rect class="cls-3" x="12.24" y="21.31" width="4.05" height="4.75"/>
        <path class="cls-1" d="m15.83,21.77v3.84h-3.14v-3.84h3.14m.91-.91h-4.96v5.66h4.96v-5.66h0Z"/>
      </g>
      <polygon class="cls-2" points="84.12 3.01 34.64 3.01 34.64 45.85 84.12 45.85 133.59 45.85 133.59 3.01 84.12 3.01"/>
      <g>
        <g>
          <rect class="cls-3" x="38.97" y="7.4" width="5.75" height="5.75"/>
          <path class="cls-1" d="m44.26,7.85v4.84h-4.84v-4.84h4.84m.91-.91h-6.67v6.67h6.67v-6.67h0Z"/>
        </g>
        <g>
          <rect class="cls-3" x="50.26" y="7.4" width="5.75" height="5.75"/>
          <path class="cls-1" d="m55.53,7.85v4.84h-4.84v-4.84h4.84m.91-.91h-6.67v6.67h6.67v-6.67h0Z"/>
        </g>
        <g>
          <rect class="cls-3" x="61.53" y="7.4" width="5.75" height="5.75"/>
          <path class="cls-1" d="m66.82,7.85v4.84h-4.84v-4.84h4.84m.91-.91h-6.67v6.67h6.67v-6.67h0Z"/>
        </g>
        <g>
          <rect class="cls-3" x="72.79" y="7.4" width="5.75" height="5.75"/>
          <path class="cls-1" d="m78.09,7.85v4.84h-4.84v-4.84h4.84m.91-.91h-6.67v6.67h6.67v-6.67h0Z"/>
        </g>
      </g>
      <g>
        <g>
          <rect class="cls-3" x="38.97" y="22.01" width="5.75" height="5.75"/>
          <path class="cls-1" d="m44.26,22.47v4.84h-4.84v-4.84h4.84m.91-.91h-6.67v6.67h6.67v-6.67h0Z"/>
        </g>
        <g>
          <rect class="cls-3" x="50.26" y="22.01" width="5.75" height="5.75"/>
          <path class="cls-1" d="m55.53,22.47v4.84h-4.84v-4.84h4.84m.91-.91h-6.67v6.67h6.67v-6.67h0Z"/>
        </g>
        <g>
          <rect class="cls-3" x="61.53" y="22.01" width="5.75" height="5.75"/>
          <path class="cls-1" d="m66.82,22.47v4.84h-4.84v-4.84h4.84m.91-.91h-6.67v6.67h6.67v-6.67h0Z"/>
        </g>
        <g>
          <rect class="cls-3" x="72.79" y="22.01" width="5.75" height="5.75"/>
          <path class="cls-1" d="m78.09,22.47v4.84h-4.84v-4.84h4.84m.91-.91h-6.67v6.67h6.67v-6.67h0Z"/>
        </g>
      </g>
      <g>
        <g>
          <rect class="cls-3" x="38.97" y="36.59" width="5.75" height="5.75"/>
          <path class="cls-1" d="m44.26,37.05v4.84h-4.84v-4.84h4.84m.91-.91h-6.67v6.67h6.67v-6.67h0Z"/>
        </g>
        <g>
          <rect class="cls-3" x="50.26" y="36.59" width="5.75" height="5.75"/>
          <path class="cls-1" d="m55.53,37.05v4.84h-4.84v-4.84h4.84m.91-.91h-6.67v6.67h6.67v-6.67h0Z"/>
        </g>
        <g>
          <rect class="cls-3" x="61.53" y="36.59" width="5.75" height="5.75"/>
          <path class="cls-1" d="m66.82,37.05v4.84h-4.84v-4.84h4.84m.91-.91h-6.67v6.67h6.67v-6.67h0Z"/>
        </g>
        <g>
          <rect class="cls-3" x="72.79" y="36.59" width="5.75" height="5.75"/>
          <path class="cls-1" d="m78.09,37.05v4.84h-4.84v-4.84h4.84m.91-.91h-6.67v6.67h6.67v-6.67h0Z"/>
        </g>
      </g>
      <path class="cls-2" d="m150.42,26.52v4.54h-3.56v-.7h3.56v-.46h-3.56v-.67h3.56v-.46h-3.56v-.55h3.56v-.46h-3.56v-1.92h3.56v-.46h-4.02v5.66h.15v2.04h.76v.09l3.26,3.35h0v1.43h1.52v33.7h9.44v-33.7h1.52v-1.43h.03l3.26-3.35v-.09h.76v-2.04h.15v-5.69h-4.08v.46h3.56v1.92h-3.56v.46h3.56v.55h-3.56v.49h3.56v.64h-3.56v.46h3.56v.7h-3.56v-10.17h3.9v-1.74h1.13v-1l-11.39-8.46-11.39,8.46v1h1.13v1.74h3.9l-.03,5.66h0Zm11.08,6.58h4.23l-2.95,3.04h-1.28v-3.04h0Zm-4.29-12.24h4.96v5.66h-4.96v-5.66h0Zm-5.11,5.66h-.64v-5.66h4.96v5.66h-4.32Zm0,6.58v3.04h-1.28l-2.95-3.04h4.23Z"/>
      <g>
        <rect class="cls-3" x="157.67" y="21.31" width="4.05" height="4.75"/>
        <path class="cls-1" d="m161.23,21.77v3.84h-3.14v-3.84h3.14m.91-.91h-4.96v5.66h4.96v-5.66h0Z"/>
      </g>
      <g>
        <rect class="cls-3" x="151.91" y="21.31" width="4.05" height="4.75"/>
        <path class="cls-1" d="m155.51,21.77v3.84h-3.14v-3.84h3.14m.91-.91h-4.96v5.66h4.96v-5.66h0Z"/>
      </g>
      <polygon class="cls-1" points="84.12 45.85 16.1 45.85 16.1 71.66 84.12 71.66 152.1 71.66 152.1 45.85 84.12 45.85"/>
      <g>
        <g>
          <rect class="cls-3" x="123.48" y="7.4" width="5.75" height="5.75"/>
          <path class="cls-1" d="m128.78,7.85v4.84h-4.84v-4.84h4.84m.91-.91h-6.67v6.67h6.67v-6.67h0Z"/>
        </g>
        <g>
          <rect class="cls-3" x="112.21" y="7.4" width="5.75" height="5.75"/>
          <path class="cls-1" d="m117.51,7.85v4.84h-4.84v-4.84h4.84m.91-.91h-6.67v6.67h6.67v-6.67h0Z"/>
        </g>
        <g>
          <rect class="cls-3" x="100.95" y="7.4" width="5.75" height="5.75"/>
          <path class="cls-1" d="m106.22,7.85v4.84h-4.84v-4.84h4.84m.91-.91h-6.67v6.67h6.67v-6.67h0Z"/>
        </g>
        <g>
          <rect class="cls-3" x="89.66" y="7.4" width="5.75" height="5.75"/>
          <path class="cls-1" d="m94.95,7.85v4.84h-4.84v-4.84h4.84m.91-.91h-6.67v6.67h6.67v-6.67h0Z"/>
        </g>
      </g>
      <g>
        <g>
          <rect class="cls-3" x="123.48" y="22.01" width="5.75" height="5.75"/>
          <path class="cls-1" d="m128.78,22.47v4.84h-4.84v-4.84h4.84m.91-.91h-6.67v6.67h6.67v-6.67h0Z"/>
        </g>
        <g>
          <rect class="cls-3" x="112.21" y="22.01" width="5.75" height="5.75"/>
          <path class="cls-1" d="m117.51,22.47v4.84h-4.84v-4.84h4.84m.91-.91h-6.67v6.67h6.67v-6.67h0Z"/>
        </g>
        <g>
          <rect class="cls-3" x="100.95" y="22.01" width="5.75" height="5.75"/>
          <path class="cls-1" d="m106.22,22.47v4.84h-4.84v-4.84h4.84m.91-.91h-6.67v6.67h6.67v-6.67h0Z"/>
        </g>
        <g>
          <rect class="cls-3" x="89.66" y="22.01" width="5.75" height="5.75"/>
          <path class="cls-1" d="m94.95,22.47v4.84h-4.84v-4.84h4.84m.91-.91h-6.67v6.67h6.67v-6.67h0Z"/>
        </g>
      </g>
      <g>
        <g>
          <rect class="cls-3" x="123.48" y="36.59" width="5.75" height="5.75"/>
          <path class="cls-1" d="m128.78,37.05v4.84h-4.84v-4.84h4.84m.91-.91h-6.67v6.67h6.67v-6.67h0Z"/>
        </g>
        <g>
          <rect class="cls-3" x="112.21" y="36.59" width="5.75" height="5.75"/>
          <path class="cls-1" d="m117.51,37.05v4.84h-4.84v-4.84h4.84m.91-.91h-6.67v6.67h6.67v-6.67h0Z"/>
        </g>
        <g>
          <rect class="cls-3" x="100.95" y="36.59" width="5.75" height="5.75"/>
          <path class="cls-1" d="m106.22,37.05v4.84h-4.84v-4.84h4.84m.91-.91h-6.67v6.67h6.67v-6.67h0Z"/>
        </g>
        <g>
          <rect class="cls-3" x="89.66" y="36.59" width="5.75" height="5.75"/>
          <path class="cls-1" d="m94.95,37.05v4.84h-4.84v-4.84h4.84m.91-.91h-6.67v6.67h6.67v-6.67h0Z"/>
        </g>
      </g>
      <polygon class="cls-1" points="84.12 0 30.38 0 30.38 3.01 84.12 3.01 137.82 3.01 137.82 0 84.12 0"/>
      <g>
        <rect class="cls-3" x="74.98" y="50.54" width="18.24" height="20.67"/>
        <path class="cls-2" d="m92.76,50.99v19.76h-17.32v-19.76h17.32m.91-.91h-19.15v21.58h19.15v-21.58h0Z"/>
      </g>
      <polygon class="cls-1" points="0 19.12 0 18.11 11.39 9.68 22.8 18.11 22.8 19.12 0 19.12"/>
      <polygon class="cls-1" points="145.4 19.12 145.4 18.11 156.81 9.68 168.2 18.11 168.2 19.12 145.4 19.12"/>
      <rect class="cls-1" x="1.13" y="31.05" width="20.55" height="2.04"/>
      <rect class="cls-1" x="146.52" y="31.05" width="20.55" height="2.04"/>
      <polyline class="cls-5" points="16.1 42.23 20.49 45.27 24.87 42.23 29.26 45.27 33.67 42.23 38.02 45.27 42.44 42.23 46.82 45.27 51.21 42.23 55.59 45.27 59.97 42.23 64.36 45.27 68.74 42.23 73.13 45.27 77.51 42.23 81.89 45.27 86.28 42.23 90.69 45.27 95.07 42.23 99.46 45.27 103.84 42.23 108.23 45.27 112.61 42.23 116.99 45.27 121.38 42.23 125.76 45.27 130.15 42.23 134.53 45.27 138.94 42.23 143.33 45.27 147.71 42.23 152.1 45.27"/>
      <line class="cls-4" x1="84.12" y1="71.66" x2="84.12" y2="50.08"/>
    </g>
  </g>
</svg>