<?xml version="1.0" encoding="UTF-8"?>
<svg id="Calque_2" data-name="Calque 2" xmlns="http://www.w3.org/2000/svg" viewBox="0 0 158.39 101.75">
  <defs>
    <style>
      .cls-1, .cls-2 {
        fill: #e8629f;
      }

      .cls-3, .cls-4 {
        fill: #fcbe1b;
      }

      .cls-5 {
        fill: none;
        stroke: #e8629f;
        stroke-miterlimit: 10;
        stroke-width: 1.16px;
      }

      .cls-6 {
        fill: #261923;
      }

      .cls-6, .cls-2, .cls-4 {
        fill-rule: evenodd;
      }
    </style>
  </defs>
  <g id="Calque_1-2" data-name="Calque 1">
    <g>
      <path class="cls-2" d="m16.1,34.29c-.07-.07,17.94-17.94,17.94-17.94h35.95v30.78H16.1v-12.84Z"/>
      <path class="cls-2" d="m142.26,34.29c.07-.07-17.94-17.94-17.94-17.94h-35.95v30.78h53.9v-12.84Z"/>
      <rect class="cls-3" x="63.7" y="26.26" width="30.96" height="75.49"/>
      <polygon class="cls-2" points="90.65 23.8 83.74 1.16 79.18 1.16 74.66 1.16 67.71 23.8 63.7 23.8 63.7 27.02 94.66 27.02 94.66 23.8 90.65 23.8"/>
      <path class="cls-3" d="m83.74,1.16l6.91,22.64h4.02v3.22h-30.96v-3.22h4.02l6.91-22.64h9.12m.87-1.16h-10.82l-.25.83-6.66,21.81h-4.34v5.53h33.28v-5.53h-4.34L84.82.83l-.22-.83h0Z"/>
      <circle class="cls-1" cx="79.18" cy="40.62" r="7.67"/>
      <polygon class="cls-4" points="85.51 39.21 80.59 39.21 80.59 34.29 77.77 34.29 77.77 39.21 72.85 39.21 72.85 42.03 77.77 42.03 77.77 46.95 80.59 46.95 80.59 42.03 85.51 42.03 85.51 39.21"/>
      <g>
        <path class="cls-6" d="m72.2,101.21v-14.61c0-3.87,3.15-6.98,6.98-6.98s6.98,3.15,6.98,6.98v14.61h-13.96Z"/>
        <path class="cls-1" d="m79.18,80.16c3.54,0,6.44,2.89,6.44,6.44v14.07h-12.91v-14.07c.04-3.54,2.93-6.44,6.47-6.44m0-1.09h0c-4.16,0-7.52,3.36-7.52,7.52v15.16h15.08v-15.16c-.04-4.16-3.4-7.52-7.56-7.52h0Z"/>
      </g>
      <g>
        <path class="cls-6" d="m69.2,70.9v-9.51c0-1.34,1.09-2.46,2.46-2.46s2.46,1.09,2.46,2.46v9.51h-4.92Z"/>
        <path class="cls-1" d="m71.66,59.5c1.05,0,1.92.87,1.92,1.92v8.97h-3.8v-8.97c-.04-1.09.83-1.92,1.88-1.92m0-1.09h0c-1.66,0-3,1.34-3,3v10.06h5.97v-10.06c0-1.66-1.34-3-2.97-3h0Z"/>
      </g>
      <g>
        <path class="cls-6" d="m76.72,70.9v-9.51c0-1.34,1.09-2.46,2.46-2.46s2.46,1.09,2.46,2.46v9.51h-4.92Z"/>
        <path class="cls-1" d="m79.18,59.5c1.05,0,1.92.87,1.92,1.92v8.97h-3.8v-8.97c-.04-1.09.83-1.92,1.88-1.92m0-1.09c-1.66,0-3,1.34-3,3v10.06h5.97v-10.06c.04-1.66-1.3-3-2.97-3h0Z"/>
      </g>
      <g>
        <path class="cls-6" d="m84.24,70.93v-9.55c0-1.37,1.12-2.5,2.5-2.5s2.5,1.12,2.5,2.5v9.55h-4.99Z"/>
        <path class="cls-1" d="m86.7,59.43c1.09,0,1.99.9,1.99,1.99v9.04h-3.94v-9.04c0-1.12.87-1.99,1.95-1.99m0-1.05h0c-1.66,0-3,1.34-3,3v10.06h6v-10.06c0-1.66-1.34-3-3-3h0Z"/>
      </g>
      <rect class="cls-3" x="4.02" y="47.13" width="20.76" height="54.62"/>
      <rect class="cls-3" x="24.78" y="47.13" width="38.92" height="54.62"/>
      <g>
        <g>
          <path class="cls-6" d="m52.3,70.9v-8.61c0-1.84,1.52-3.36,3.36-3.36s3.36,1.52,3.36,3.36v8.61h-6.73Z"/>
          <path class="cls-1" d="m55.67,59.5c1.56,0,2.82,1.27,2.82,2.82v8.07h-5.61v-8.07c-.04-1.59,1.23-2.82,2.79-2.82m0-1.09h0c-2.17,0-3.91,1.74-3.91,3.91v9.15h7.78v-9.15c.04-2.17-1.7-3.91-3.87-3.91h0Z"/>
        </g>
        <g>
          <path class="cls-6" d="m40.4,70.9v-8.61c0-1.84,1.52-3.36,3.36-3.36s3.36,1.52,3.36,3.36v8.61h-6.73Z"/>
          <path class="cls-1" d="m43.73,59.5c1.56,0,2.82,1.27,2.82,2.82v8.07h-5.64v-8.07c.04-1.59,1.3-2.82,2.82-2.82m0-1.09h0c-2.13,0-3.91,1.74-3.91,3.91v9.15h7.81v-9.15c0-2.17-1.74-3.91-3.91-3.91h0Z"/>
        </g>
        <g>
          <path class="cls-6" d="m28.5,70.9v-8.61c0-1.84,1.52-3.36,3.36-3.36s3.36,1.52,3.36,3.36v8.61h-6.73Z"/>
          <path class="cls-1" d="m31.87,59.5c1.56,0,2.82,1.27,2.82,2.82v8.07h-5.64v-8.07c0-1.59,1.27-2.82,2.82-2.82m0-1.09h0c-2.13,0-3.91,1.74-3.91,3.91v9.15h7.81v-9.15c0-2.17-1.77-3.91-3.91-3.91h0Z"/>
        </g>
        <g>
          <path class="cls-6" d="m52.3,91.55v-8.61c0-1.84,1.52-3.36,3.36-3.36s3.36,1.52,3.36,3.36v8.61h-6.73Z"/>
          <path class="cls-1" d="m55.67,80.16c1.56,0,2.82,1.27,2.82,2.82v8.07h-5.61v-8.07c-.04-1.56,1.23-2.82,2.79-2.82m0-1.09h0c-2.17,0-3.91,1.74-3.91,3.91v9.15h7.78v-9.15c.04-2.17-1.7-3.91-3.87-3.91h0Z"/>
        </g>
        <g>
          <path class="cls-6" d="m40.4,91.55v-8.61c0-1.84,1.52-3.36,3.36-3.36s3.36,1.52,3.36,3.36v8.61h-6.73Z"/>
          <path class="cls-1" d="m43.73,80.16c1.56,0,2.82,1.27,2.82,2.82v8.07h-5.64v-8.07c.04-1.56,1.3-2.82,2.82-2.82m0-1.09h0c-2.13,0-3.91,1.74-3.91,3.91v9.15h7.81v-9.15c0-2.17-1.74-3.91-3.91-3.91h0Z"/>
        </g>
        <g>
          <path class="cls-6" d="m28.5,91.55v-8.61c0-1.84,1.52-3.36,3.36-3.36s3.36,1.52,3.36,3.36v8.61h-6.73Z"/>
          <path class="cls-1" d="m31.87,80.16c1.56,0,2.82,1.27,2.82,2.82v8.07h-5.64v-8.07c0-1.56,1.27-2.82,2.82-2.82m0-1.09h0c-2.13,0-3.91,1.74-3.91,3.91v9.15h7.81v-9.15c0-2.17-1.77-3.91-3.91-3.91h0Z"/>
        </g>
      </g>
      <g>
        <g>
          <path class="cls-6" d="m11.07,70.9v-8.61c0-1.84,1.52-3.36,3.36-3.36s3.36,1.52,3.36,3.36v8.61h-6.73Z"/>
          <path class="cls-1" d="m14.4,59.5c1.56,0,2.82,1.27,2.82,2.82v8.07h-5.61v-8.07c0-1.59,1.23-2.82,2.79-2.82m0-1.09h0c-2.13,0-3.91,1.74-3.91,3.91v9.15h7.81v-9.15c0-2.17-1.74-3.91-3.91-3.91h0Z"/>
        </g>
        <g>
          <path class="cls-6" d="m11.07,91.55v-8.61c0-1.84,1.52-3.36,3.36-3.36s3.36,1.52,3.36,3.36v8.61h-6.73Z"/>
          <path class="cls-1" d="m14.4,80.16c1.56,0,2.82,1.27,2.82,2.82v8.07h-5.61v-8.07c0-1.56,1.23-2.82,2.79-2.82m0-1.09h0c-2.13,0-3.91,1.74-3.91,3.91v9.15h7.81v-9.15c0-2.17-1.74-3.91-3.91-3.91h0Z"/>
        </g>
      </g>
      <g>
        <polygon class="cls-2" points="1.23 47.71 14.4 31.29 27.6 47.71 1.23 47.71"/>
        <path class="cls-3" d="m14.4,32.19l12.01,14.94H2.42l11.97-14.94m0-1.84l-.9,1.12L1.52,46.41l-1.52,1.88h28.83l-1.52-1.88-12.01-14.94-.9-1.12h0Z"/>
      </g>
      <rect class="cls-3" x="133.58" y="47.13" width="20.76" height="54.62"/>
      <rect class="cls-3" x="94.66" y="47.13" width="38.92" height="54.62"/>
      <g>
        <g>
          <path class="cls-6" d="m99.33,70.9v-8.61c0-1.84,1.52-3.36,3.36-3.36s3.36,1.52,3.36,3.36v8.61h-6.73Z"/>
          <path class="cls-1" d="m102.69,59.5c1.56,0,2.82,1.27,2.82,2.82v8.07h-5.61v-8.07c-.04-1.59,1.23-2.82,2.79-2.82m0-1.09h0c-2.17,0-3.91,1.74-3.91,3.91v9.15h7.78v-9.15c.04-2.17-1.74-3.91-3.87-3.91h0Z"/>
        </g>
        <g>
          <path class="cls-6" d="m111.26,70.9v-8.61c0-1.84,1.52-3.36,3.36-3.36s3.36,1.52,3.36,3.36v8.61h-6.73Z"/>
          <path class="cls-1" d="m114.63,59.5c1.56,0,2.82,1.27,2.82,2.82v8.07h-5.61v-8.07c-.04-1.59,1.23-2.82,2.79-2.82m0-1.09h0c-2.17,0-3.91,1.74-3.91,3.91v9.15h7.78v-9.15c0-2.17-1.74-3.91-3.87-3.91h0Z"/>
        </g>
        <g>
          <path class="cls-6" d="m123.16,70.9v-8.61c0-1.84,1.52-3.36,3.36-3.36s3.36,1.52,3.36,3.36v8.61h-6.73Z"/>
          <path class="cls-1" d="m126.49,59.5c1.56,0,2.82,1.27,2.82,2.82v8.07h-5.61v-8.07c0-1.59,1.27-2.82,2.79-2.82m0-1.09c-2.17,0-3.91,1.74-3.91,3.91v9.15h7.78v-9.15c.04-2.17-1.7-3.91-3.87-3.91h0Z"/>
        </g>
        <g>
          <path class="cls-6" d="m99.33,91.55v-8.61c0-1.84,1.52-3.36,3.36-3.36s3.36,1.52,3.36,3.36v8.61h-6.73Z"/>
          <path class="cls-1" d="m102.69,80.16c1.56,0,2.82,1.27,2.82,2.82v8.07h-5.61v-8.07c-.04-1.56,1.23-2.82,2.79-2.82m0-1.09h0c-2.17,0-3.91,1.74-3.91,3.91v9.15h7.78v-9.15c.04-2.17-1.74-3.91-3.87-3.91h0Z"/>
        </g>
        <g>
          <path class="cls-6" d="m111.26,91.55v-8.61c0-1.84,1.52-3.36,3.36-3.36s3.36,1.52,3.36,3.36v8.61h-6.73Z"/>
          <path class="cls-1" d="m114.63,80.16c1.56,0,2.82,1.27,2.82,2.82v8.07h-5.61v-8.07c-.04-1.56,1.23-2.82,2.79-2.82m0-1.09h0c-2.17,0-3.91,1.74-3.91,3.91v9.15h7.78v-9.15c0-2.17-1.74-3.91-3.87-3.91h0Z"/>
        </g>
        <g>
          <path class="cls-6" d="m123.16,91.55v-8.61c0-1.84,1.52-3.36,3.36-3.36s3.36,1.52,3.36,3.36v8.61h-6.73Z"/>
          <path class="cls-1" d="m126.49,80.16c1.56,0,2.82,1.27,2.82,2.82v8.07h-5.61v-8.07c0-1.56,1.27-2.82,2.79-2.82m0-1.09c-2.17,0-3.91,1.74-3.91,3.91v9.15h7.78v-9.15c.04-2.17-1.7-3.91-3.87-3.91h0Z"/>
        </g>
      </g>
      <g>
        <g>
          <path class="cls-6" d="m140.6,70.9v-8.61c0-1.84,1.52-3.36,3.36-3.36s3.36,1.52,3.36,3.36v8.61h-6.73Z"/>
          <path class="cls-1" d="m143.96,59.5c1.56,0,2.82,1.27,2.82,2.82v8.07h-5.61v-8.07c-.04-1.59,1.23-2.82,2.79-2.82m0-1.09c-2.17,0-3.91,1.74-3.91,3.91v9.15h7.78v-9.15c.04-2.17-1.74-3.91-3.87-3.91h0Z"/>
        </g>
        <g>
          <path class="cls-6" d="m140.6,91.55v-8.61c0-1.84,1.52-3.36,3.36-3.36s3.36,1.52,3.36,3.36v8.61h-6.73Z"/>
          <path class="cls-1" d="m143.96,80.16c1.56,0,2.82,1.27,2.82,2.82v8.07h-5.61v-8.07c-.04-1.56,1.23-2.82,2.79-2.82m0-1.09c-2.17,0-3.91,1.74-3.91,3.91v9.15h7.78v-9.15c.04-2.17-1.74-3.91-3.87-3.91h0Z"/>
        </g>
      </g>
      <g>
        <polygon class="cls-2" points="130.76 47.71 143.96 31.29 157.16 47.71 130.76 47.71"/>
        <path class="cls-3" d="m143.96,32.19l11.97,14.94h-23.98l12.01-14.94m0-1.84l-.9,1.12-11.97,14.94-1.52,1.88h28.83l-1.52-1.88-12.01-14.94-.9-1.12h0Z"/>
      </g>
      <line class="cls-5" x1="24.78" y1="101.75" x2="24.78" y2="47.13"/>
      <rect class="cls-1" x="62.54" y="47.13" width="1.16" height="54.62"/>
      <rect class="cls-1" x="94.66" y="47.13" width="1.16" height="54.62"/>
      <line class="cls-5" x1="133.58" y1="101.75" x2="133.58" y2="47.13"/>
      <rect class="cls-1" x="4.02" y="74.19" width="58.53" height="2.86"/>
      <rect class="cls-1" x="95.82" y="74.19" width="58.53" height="2.86"/>
      <g>
        <rect class="cls-3" x="37.29" y="33.06" width="12.91" height="14.07"/>
        <g>
          <polygon class="cls-2" points="34.04 32.77 43.73 22.68 53.46 32.77 34.04 32.77"/>
          <path class="cls-3" d="m43.73,23.51l8.36,8.68h-16.67l8.32-8.68m0-1.66l-.83.87-8.36,8.68-1.88,1.95h22.17l-1.88-1.95-8.36-8.68-.87-.87h0Z"/>
        </g>
        <g>
          <path class="cls-6" d="m40.4,46.59v-8.61c0-1.84,1.52-3.36,3.36-3.36s3.36,1.52,3.36,3.36v8.61h-6.73Z"/>
          <path class="cls-1" d="m43.73,35.19c1.56,0,2.82,1.27,2.82,2.82v8.07h-5.64v-8.1c.04-1.56,1.3-2.79,2.82-2.79m0-1.09h0c-2.13,0-3.91,1.74-3.91,3.91v9.15h7.81v-9.19c0-2.13-1.74-3.87-3.91-3.87h0Z"/>
        </g>
      </g>
      <g>
        <rect class="cls-3" x="108.15" y="33.06" width="12.91" height="14.07"/>
        <g>
          <polygon class="cls-2" points="104.9 32.77 114.63 22.68 124.32 32.77 104.9 32.77"/>
          <path class="cls-3" d="m114.63,23.51l8.36,8.68h-16.71l8.36-8.68m0-1.66l-.83.87-8.36,8.68-1.88,1.95h22.17l-1.88-1.95-8.36-8.68-.87-.87h0Z"/>
        </g>
        <g>
          <path class="cls-6" d="m111.26,46.59v-8.61c0-1.84,1.52-3.36,3.36-3.36s3.36,1.52,3.36,3.36v8.61h-6.73Z"/>
          <path class="cls-1" d="m114.63,35.19c1.56,0,2.82,1.27,2.82,2.82v8.07h-5.61v-8.1c-.04-1.56,1.23-2.79,2.79-2.79m0-1.09h0c-2.17,0-3.91,1.74-3.91,3.91v9.15h7.78v-9.19c0-2.13-1.74-3.87-3.87-3.87h0Z"/>
        </g>
      </g>
    </g>
  </g>
</svg>