<?xml version="1.0" encoding="UTF-8"?>
<svg id="Calque_2" data-name="Calque 2" xmlns="http://www.w3.org/2000/svg" viewBox="0 0 50.59 101.4">
  <defs>
    <style>
      .cls-1 {
        fill: none;
        stroke: #fcbe1b;
        stroke-miterlimit: 10;
        stroke-width: 1.71px;
      }

      .cls-2 {
        fill: #fcbe1b;
      }

      .cls-3 {
        fill: #e6629f;
      }
    </style>
  </defs>
  <g id="Calque_1-2" data-name="Calque 1">
    <g>
      <line class="cls-1" x1="8.18" y1="96.69" x2="18.53" y2="27.67"/>
      <line class="cls-1" x1="42.51" y1="96.69" x2="33.07" y2="33.59"/>
      <line class="cls-1" x1="10.05" y1="84.15" x2="40.73" y2="84.15"/>
      <line class="cls-1" x1="12.79" y1="65.13" x2="37.8" y2="65.13"/>
      <line class="cls-1" x1="15.48" y1="47.74" x2="35.2" y2="47.74"/>
      <line class="cls-1" x1="12.79" y1="65.13" x2="35.2" y2="47.74"/>
      <line class="cls-1" x1="37.8" y1="65.13" x2="15.48" y2="47.74"/>
      <line class="cls-1" x1="10.05" y1="84.15" x2="37.8" y2="65.13"/>
      <line class="cls-1" x1="40.73" y1="84.15" x2="12.79" y2="65.13"/>
      <line class="cls-1" x1="33.07" y1="33.59" x2="15.48" y2="47.74"/>
      <line class="cls-1" x1="17.62" y1="33.59" x2="35.2" y2="47.74"/>
      <line class="cls-1" x1="17.62" y1="33.59" x2="33.11" y2="33.59"/>
      <g>
        <path class="cls-2" d="m43.35,33.71c-3.91,3.91-17.39,2.96-26.27-5.92S7.23,5.43,11.16,1.51c3.93-3.93,14.31.1,23.2,9,8.88,8.9,12.91,19.27,8.98,23.2h0Z"/>
        <ellipse class="cls-3" cx="27.26" cy="17.61" rx="10.04" ry="22.76" transform="translate(-4.47 24.43) rotate(-45)"/>
        <path class="cls-2" d="m42.99,1.86l-17.91,13.58c-.48.48,3.88,4.81,4.36,4.36L42.99,1.86Z"/>
        <ellipse class="cls-3" cx="42.99" cy="1.86" rx="1.85" ry="1.16" transform="translate(11.27 30.94) rotate(-45)"/>
      </g>
      <rect class="cls-3" y="96.28" width="50.59" height="5.12"/>
    </g>
  </g>
</svg>