<?xml version="1.0" encoding="UTF-8"?>
<svg id="Calque_2" data-name="Calque 2" xmlns="http://www.w3.org/2000/svg" viewBox="0 0 80.83 50.16">
  <defs>
    <style>
      .cls-1 {
        fill: #e8629f;
      }

      .cls-2, .cls-3 {
        fill: #fcbe1b;
      }

      .cls-4 {
        fill: #261923;
      }

      .cls-5 {
        stroke-width: 1.02px;
      }

      .cls-5, .cls-6, .cls-7 {
        fill: none;
        stroke: #fcbe1b;
        stroke-miterlimit: 10;
      }

      .cls-6 {
        stroke-width: .51px;
      }

      .cls-3 {
        fill-rule: evenodd;
      }

      .cls-7 {
        stroke-width: .5px;
      }
    </style>
  </defs>
  <g id="Calque_1-2" data-name="Calque 1">
    <g>
      <polyline class="cls-6" points=".23 40.75 15.49 11.88 26.08 35.93"/>
      <polyline class="cls-6" points="39.73 40.74 54.99 11.87 67.1 39.39"/>
      <g>
        <line class="cls-7" x1="29.93" y1="28.22" x2="32.95" y2="8.07"/>
        <line class="cls-7" x1="39.96" y1="28.22" x2="37.2" y2="9.8"/>
        <line class="cls-7" x1="31.28" y1="19" x2="38.58" y2="19"/>
        <line class="cls-7" x1="32.06" y1="13.93" x2="37.82" y2="13.93"/>
        <line class="cls-7" x1="31.28" y1="19" x2="37.82" y2="13.93"/>
        <line class="cls-7" x1="38.58" y1="19" x2="32.06" y2="13.93"/>
        <line class="cls-7" x1="30.48" y1="24.56" x2="38.58" y2="19"/>
        <line class="cls-7" x1="39.44" y1="24.56" x2="31.28" y2="19"/>
        <line class="cls-7" x1="37.2" y1="9.8" x2="32.06" y2="13.93"/>
        <line class="cls-7" x1="32.69" y1="9.8" x2="37.82" y2="13.93"/>
        <line class="cls-7" x1="32.69" y1="9.8" x2="37.2" y2="9.8"/>
        <g>
          <path class="cls-2" d="m40.2,9.84c-1.14,1.14-5.08.87-7.66-1.74s-2.88-6.52-1.74-7.66,4.17.03,6.78,2.62c2.59,2.59,3.76,5.62,2.62,6.78h0Z"/>
          <ellipse class="cls-1" cx="35.5" cy="5.13" rx="2.93" ry="6.64" transform="translate(6.77 26.61) rotate(-45)"/>
          <path class="cls-2" d="m40.1.54l-5.23,3.95c-.14.14,1.12,1.41,1.28,1.26l3.95-5.21h0Z"/>
          <ellipse class="cls-1" cx="40.1" cy=".54" rx=".55" ry=".34" transform="translate(11.37 28.51) rotate(-45)"/>
        </g>
      </g>
      <rect class="cls-1" x="26.1" y="28.13" width="14.43" height="7.78"/>
      <rect class="cls-1" x="5.69" y="35.92" width="34.85" height="7.78"/>
      <line class="cls-5" x1="15.5" y1="8.2" x2="15.5" y2="35.92"/>
      <line class="cls-5" x1="55.07" y1="8.2" x2="55.07" y2="39.37"/>
      <g>
        <rect class="cls-4" x="27.09" y="29.48" width="2.67" height="5.4"/>
        <path class="cls-2" d="m29.59,29.65v5.06h-2.33v-5.06h2.33m.34-.34h-3.01v5.74h3.01v-5.74h0Z"/>
      </g>
      <g>
        <rect class="cls-4" x="31.99" y="29.48" width="2.67" height="5.4"/>
        <path class="cls-2" d="m34.48,29.65v5.06h-2.33v-5.06h2.33m.34-.34h-3.01v5.74h3.01v-5.74h0Z"/>
      </g>
      <g>
        <rect class="cls-4" x="36.88" y="29.48" width="2.67" height="5.4"/>
        <path class="cls-2" d="m39.38,29.65v5.06h-2.33v-5.06h2.33m.34-.34h-3.01v5.74h3.01v-5.74h0Z"/>
      </g>
      <g>
        <rect class="cls-4" x="27.17" y="37.81" width="12.28" height="3.13"/>
        <path class="cls-2" d="m39.21,38.06v2.62h-11.79v-2.62h11.79m.51-.51h-12.81v3.65h12.79v-3.65h.02Z"/>
      </g>
      <g>
        <rect class="cls-4" x="8.28" y="37.81" width="16.42" height="3.13"/>
        <path class="cls-2" d="m24.45,38.06v2.62h-15.91v-2.62h15.91m.51-.51H8.03v3.65h16.93v-3.65h0Z"/>
      </g>
      <path class="cls-3" d="m4.45,50.16h64.98l11.4-14.24s-23.4,4.84-62.39,4.84l-18.19-.02s1,6.11,4.21,9.42h0Z"/>
      <line class="cls-7" x1="30.48" y1="24.56" x2="39.44" y2="24.56"/>
    </g>
  </g>
</svg>