<?xml version="1.0" encoding="UTF-8"?>
<svg id="Calque_2" data-name="Calque 2" xmlns="http://www.w3.org/2000/svg" viewBox="0 0 96.96 123.81">
  <defs>
    <style>
      .cls-1 {
        fill: #fcbe1b;
      }

      .cls-2 {
        fill: #e6629f;
      }

      .cls-3 {
        stroke-width: 1.41px;
      }

      .cls-3, .cls-4 {
        fill: none;
        stroke: #fcbe1b;
        stroke-miterlimit: 10;
      }

      .cls-4 {
        stroke-width: 1.33px;
      }
    </style>
  </defs>
  <g id="Calque_1-2" data-name="Calque 1">
    <g>
      <g>
        <polyline class="cls-3" points="13.51 123.1 13.51 36.43 26.34 24.32 26.34 123.1 .7 123.1 .7 88.74 13.51 75.47"/>
        <line class="cls-4" x1=".7" y1="123.1" x2="13.56" y2="111.68"/>
        <line class="cls-4" x1="13.56" y1="123.1" x2=".7" y2="111.68"/>
        <line class="cls-4" x1=".7" y1="111.77" x2="13.56" y2="100.35"/>
        <line class="cls-4" x1="13.56" y1="111.77" x2=".7" y2="100.35"/>
        <line class="cls-4" x1=".7" y1="100.18" x2="13.56" y2="88.74"/>
        <line class="cls-4" x1="13.56" y1="100.18" x2=".7" y2="88.74"/>
        <line class="cls-4" x1="13.44" y1="123.1" x2="26.29" y2="111.68"/>
        <line class="cls-4" x1="26.29" y1="123.1" x2="13.44" y2="111.68"/>
        <line class="cls-4" x1="13.44" y1="111.77" x2="26.29" y2="100.35"/>
        <line class="cls-4" x1="26.29" y1="111.77" x2="13.44" y2="100.35"/>
        <line class="cls-4" x1="13.44" y1="100.18" x2="26.29" y2="88.74"/>
        <line class="cls-4" x1="26.29" y1="100.18" x2="6.83" y2="82.87"/>
        <line class="cls-4" x1="13.44" y1="88.58" x2="26.29" y2="77.15"/>
        <line class="cls-4" x1="26.29" y1="88.58" x2="13.44" y2="77.15"/>
        <line class="cls-4" x1="13.44" y1="77.25" x2="26.29" y2="65.82"/>
        <line class="cls-4" x1="26.29" y1="77.25" x2="13.44" y2="65.82"/>
        <line class="cls-4" x1="13.44" y1="65.66" x2="26.29" y2="54.21"/>
        <line class="cls-4" x1="26.29" y1="65.66" x2="13.44" y2="54.21"/>
        <line class="cls-4" x1="13.44" y1="54.05" x2="26.29" y2="42.63"/>
        <line class="cls-4" x1="26.29" y1="54.05" x2="13.44" y2="42.63"/>
        <line class="cls-4" x1="13.44" y1="42.72" x2="26.29" y2="31.3"/>
        <line class="cls-4" x1="26.29" y1="42.72" x2="16.27" y2="33.83"/>
        <line class="cls-4" x1="26.29" y1="31.14" x2="22.61" y2="27.87"/>
      </g>
      <g>
        <polyline class="cls-3" points="83.45 123.1 83.45 36.43 70.63 24.32 70.63 123.1 96.26 123.1 96.26 88.74 83.45 75.47"/>
        <line class="cls-4" x1="96.26" y1="123.1" x2="83.41" y2="111.68"/>
        <line class="cls-4" x1="83.41" y1="123.1" x2="96.26" y2="111.68"/>
        <line class="cls-4" x1="96.26" y1="111.77" x2="83.41" y2="100.35"/>
        <line class="cls-4" x1="83.41" y1="111.77" x2="96.26" y2="100.35"/>
        <line class="cls-4" x1="96.26" y1="100.18" x2="83.41" y2="88.74"/>
        <line class="cls-4" x1="83.41" y1="100.18" x2="96.26" y2="88.74"/>
        <line class="cls-4" x1="83.52" y1="123.1" x2="70.67" y2="111.68"/>
        <line class="cls-4" x1="70.67" y1="123.1" x2="83.52" y2="111.68"/>
        <line class="cls-4" x1="83.52" y1="111.77" x2="70.67" y2="100.35"/>
        <line class="cls-4" x1="70.67" y1="111.77" x2="83.52" y2="100.35"/>
        <line class="cls-4" x1="83.52" y1="100.18" x2="70.67" y2="88.74"/>
        <line class="cls-4" x1="70.67" y1="100.18" x2="90.13" y2="82.87"/>
        <line class="cls-4" x1="83.52" y1="88.58" x2="70.67" y2="77.15"/>
        <line class="cls-4" x1="70.67" y1="88.58" x2="83.52" y2="77.15"/>
        <line class="cls-4" x1="83.52" y1="77.25" x2="70.67" y2="65.82"/>
        <line class="cls-4" x1="70.67" y1="77.25" x2="83.52" y2="65.82"/>
        <line class="cls-4" x1="83.52" y1="65.66" x2="70.67" y2="54.21"/>
        <line class="cls-4" x1="70.67" y1="65.66" x2="83.52" y2="54.21"/>
        <line class="cls-4" x1="83.52" y1="54.05" x2="70.67" y2="42.63"/>
        <line class="cls-4" x1="70.67" y1="54.05" x2="83.52" y2="42.63"/>
        <line class="cls-4" x1="83.52" y1="42.72" x2="70.67" y2="31.3"/>
        <line class="cls-4" x1="70.67" y1="42.72" x2="80.69" y2="33.83"/>
        <line class="cls-4" x1="70.67" y1="31.14" x2="74.36" y2="27.87"/>
      </g>
      <polygon class="cls-2" points="61.9 47.12 53.42 41.09 43.54 41.09 35.07 47.12 35.07 114.62 43.54 111.12 53.42 111.12 61.9 114.62 61.9 47.12"/>
      <path class="cls-1" d="m48.49,0h0c-2.72,0-4.93,6.36-4.93,9.4v113.73h9.86V9.4c0-3.04-2.21-9.4-4.93-9.4h0Z"/>
      <rect class="cls-2" x="43.54" y="9.19" width="9.86" height="3.96"/>
      <polygon class="cls-2" points="58.77 123.1 38.2 123.1 43.54 112.6 53.42 112.6 58.77 123.1"/>
      <line class="cls-3" x1="26.34" y1="23.4" x2="70.63" y2="23.4"/>
      <line class="cls-3" x1="26.34" y1="31.99" x2="70.63" y2="31.99"/>
    </g>
  </g>
</svg>