<?xml version="1.0" encoding="UTF-8"?>
<svg id="Calque_2" data-name="Calque 2" xmlns="http://www.w3.org/2000/svg" viewBox="0 0 84.71 118.26">
  <defs>
    <style>
      .cls-1, .cls-2 {
        fill: #e8629f;
      }

      .cls-3, .cls-4, .cls-5, .cls-6 {
        fill: #261923;
        stroke: #e8629f;
        stroke-miterlimit: 10;
      }

      .cls-3, .cls-5 {
        stroke-width: .51px;
      }

      .cls-4 {
        stroke-width: .39px;
      }

      .cls-5, .cls-2, .cls-7 {
        fill-rule: evenodd;
      }

      .cls-6 {
        stroke-width: .41px;
      }

      .cls-7 {
        fill: #fcbe1b;
      }
    </style>
  </defs>
  <g id="Calque_1-2" data-name="Calque 1">
    <g>
      <polygon class="cls-7" points="77.56 18.99 65.75 20.45 63.34 8.71 60.35 0 56.73 4.2 44.84 10.28 39.13 21.96 29.19 24.96 23.01 34.59 11.43 35.93 11.43 44.23 5 48.74 1.05 51.66 1.05 118 83.66 118 83.66 22.29 77.56 18.99"/>
      <rect class="cls-1" y="84.97" width="84.69" height="7.3"/>
      <rect class="cls-1" y="57.12" width="84.69" height="7.3"/>
      <g>
        <path class="cls-5" d="m11.43,65.98h0c-2.38,0-4.33,1.92-4.33,4.33v13.09h8.64v-13.09c0-2.41-1.92-4.33-4.3-4.33h0Z"/>
        <path class="cls-5" d="m23.78,65.98h0c-2.38,0-4.33,1.92-4.33,4.33v13.09h8.64v-13.09c.03-2.41-1.92-4.33-4.3-4.33Z"/>
        <path class="cls-5" d="m36.16,65.98h0c-2.38,0-4.33,1.92-4.33,4.33v13.09h8.64v-13.09c0-2.41-1.92-4.33-4.3-4.33Z"/>
        <path class="cls-5" d="m48.51,65.98h0c-2.38,0-4.33,1.92-4.33,4.33v13.09h8.64v-13.09c.03-2.41-1.92-4.33-4.3-4.33Z"/>
        <path class="cls-5" d="m60.88,65.98h0c-2.38,0-4.33,1.92-4.33,4.33v13.09h8.64v-13.09c0-2.41-1.92-4.33-4.3-4.33Z"/>
        <path class="cls-5" d="m73.23,65.98h0c-2.38,0-4.33,1.92-4.33,4.33v13.09h8.64v-13.09c.03-2.41-1.92-4.33-4.3-4.33Z"/>
      </g>
      <path class="cls-5" d="m23.78,38.13h0c-2.38,0-4.33,1.92-4.33,4.33v13.09h8.64v-13.09c.03-2.41-1.92-4.33-4.3-4.33Z"/>
      <path class="cls-5" d="m36.16,38.13h0c-2.38,0-4.33,1.92-4.33,4.33v13.09h8.64v-13.09c0-2.41-1.92-4.33-4.3-4.33Z"/>
      <path class="cls-5" d="m48.51,38.13h0c-2.38,0-4.33,1.92-4.33,4.33v13.09h8.64v-13.09c.03-2.41-1.92-4.33-4.3-4.33Z"/>
      <path class="cls-5" d="m60.88,38.13h0c-2.38,0-4.33,1.92-4.33,4.33v13.09h8.64v-13.09c0-2.41-1.92-4.33-4.3-4.33Z"/>
      <path class="cls-5" d="m73.23,38.13h0c-2.38,0-4.33,1.92-4.33,4.33v13.09h8.64v-13.09c.03-2.41-1.92-4.33-4.3-4.33Z"/>
      <polygon class="cls-2" points="23.01 34.59 11.43 35.93 11.43 36.54 84.71 36.54 84.71 29.26 26.44 29.26 23.01 34.59"/>
      <polygon class="cls-2" points="56.73 4.2 47.92 8.71 63.34 8.71 60.35 0 56.73 4.2"/>
      <path class="cls-5" d="m48.51,10.28h0c-2.38,0-4.33,1.92-4.33,4.33v13.07h8.64v-13.07c.03-2.41-1.92-4.33-4.3-4.33h0Z"/>
      <path class="cls-5" d="m60.88,10.28h0c-2.38,0-4.33,1.92-4.33,4.33v13.07h8.64v-13.07c0-2.41-1.92-4.33-4.3-4.33h0Z"/>
      <path class="cls-3" d="m19.63,96.73h0c5.28,0,9.58,4.3,9.58,9.58v11.68H10.04v-11.68c0-5.3,4.28-9.58,9.58-9.58h0Z"/>
      <path class="cls-6" d="m68.06,96.73h0c3.38,0,6.12,2.74,6.12,6.12v15.14h-12.25v-15.14c.03-3.38,2.77-6.12,6.12-6.12Z"/>
      <path class="cls-4" d="m39.13,96.73h0c3.15,0,5.71,2.56,5.71,5.71v15.55h-11.4v-15.55c0-3.15,2.54-5.71,5.69-5.71h0Z"/>
      <path class="cls-5" d="m11.43,38.13h0v6.1l-4.33,3.02v8.28h8.64v-13.09c0-2.38-1.92-4.3-4.3-4.3h0Z"/>
      <polygon class="cls-5" points="68.9 27.67 77.56 27.67 77.56 18.99 68.9 20.06 68.9 27.67"/>
      <polygon class="cls-5" points="39.13 21.96 31.83 24.16 31.83 27.67 40.46 27.67 40.46 19.24 39.13 21.96"/>
    </g>
  </g>
</svg>