<?xml version="1.0" encoding="UTF-8"?>
<svg id="Calque_2" data-name="Calque 2" xmlns="http://www.w3.org/2000/svg" viewBox="0 0 171.9 82.6">
  <defs>
    <style>
      .cls-1, .cls-2 {
        fill: #e8629f;
      }

      .cls-3, .cls-4 {
        fill: #fcbe1b;
      }

      .cls-5, .cls-2, .cls-4 {
        fill-rule: evenodd;
      }

      .cls-5, .cls-6, .cls-7 {
        fill: #261923;
        stroke: #e8629f;
        stroke-miterlimit: 10;
      }

      .cls-5, .cls-7 {
        stroke-width: .68px;
      }

      .cls-6 {
        stroke-width: .52px;
      }
    </style>
  </defs>
  <g id="Calque_1-2" data-name="Calque 1">
    <g>
      <g>
        <polygon class="cls-4" points="40.68 2.37 33.42 0 19.69 6.64 11.86 2.37 4.44 8.58 1.86 6.41 1.86 82.34 58.2 82.34 58.2 11.05 49.53 0 40.68 2.37"/>
        <path class="cls-7" d="m13.73,54.2h11.93c3.69,0,6.71,3.02,6.71,6.71v7.36H7.02v-7.36c0-3.69,2.98-6.71,6.71-6.71h0Z"/>
        <path class="cls-6" d="m45.49,54.2h0c4.17,0,7.56,3.39,7.56,7.56v20.58h-15.08v-20.58c0-4.17,3.36-7.56,7.53-7.56Z"/>
        <rect class="cls-1" y="38.64" width="60.07" height="9.66"/>
        <path class="cls-5" d="m13.66,13.53h0c-3.15,0-5.73,2.54-5.73,5.73v17.32h11.42v-17.32c.03-3.15-2.51-5.73-5.69-5.73h0Z"/>
        <path class="cls-5" d="m30.03,13.53h0c-3.15,0-5.73,2.54-5.73,5.73v17.32h11.42v-17.32c.03-3.15-2.54-5.73-5.69-5.73h0Z"/>
        <path class="cls-5" d="m46.37,13.53h0c-3.15,0-5.73,2.54-5.73,5.73v17.32h11.42v-17.32c.03-3.15-2.51-5.73-5.69-5.73Z"/>
      </g>
      <g>
        <polygon class="cls-4" points="70.54 24.14 67.86 27.66 73.19 35.97 67.86 45.02 71.25 58.03 68.58 62.95 73.19 71.19 66.64 80.47 164.71 80.47 164.71 24.14 70.54 24.14"/>
        <rect class="cls-3" x="164.71" y="30.24" width="7.19" height="16.44"/>
        <rect class="cls-1" x="75.63" y="22.31" width="9.66" height="60.07"/>
        <rect class="cls-1" x="112.48" y="22.31" width="9.66" height="60.07"/>
        <polygon class="cls-2" points="166.03 22.31 158.98 22.31 158.17 22.31 149.32 22.31 149.32 82.34 158.17 82.34 158.98 82.34 166.03 82.34 166.03 22.31"/>
        <g>
          <path class="cls-5" d="m110.41,35.97h0c0-3.15-2.54-5.73-5.73-5.73h-17.32v11.46h17.32c3.15,0,5.73-2.58,5.73-5.73Z"/>
          <path class="cls-5" d="m110.41,52.31h0c0-3.15-2.54-5.73-5.73-5.73h-17.32v11.42h17.32c3.15.03,5.73-2.51,5.73-5.69Z"/>
          <path class="cls-5" d="m110.41,68.68h0c0-3.15-2.54-5.73-5.73-5.73h-17.32v11.42h17.32c3.15.03,5.73-2.54,5.73-5.69Z"/>
          <path class="cls-5" d="m147.25,35.97h0c0-3.15-2.54-5.73-5.73-5.73h-17.32v11.46h17.32c3.15,0,5.73-2.58,5.73-5.73Z"/>
          <path class="cls-5" d="m147.25,52.31h0c0-3.15-2.54-5.73-5.73-5.73h-17.32v11.42h17.32c3.15.03,5.73-2.51,5.73-5.69Z"/>
          <path class="cls-5" d="m147.25,68.68h0c0-3.15-2.54-5.73-5.73-5.73h-17.32v11.42h17.32c3.15.03,5.73-2.54,5.73-5.69Z"/>
        </g>
      </g>
    </g>
  </g>
</svg>