<?xml version="1.0" encoding="UTF-8"?>
<svg id="Calque_2" data-name="Calque 2" xmlns="http://www.w3.org/2000/svg" viewBox="0 0 99.95 100.59">
  <defs>
    <style>
      .cls-1 {
        fill: #e8629f;
      }

      .cls-2 {
        fill: #fcbe1b;
      }

      .cls-3 {
        fill: #261923;
      }

      .cls-4 {
        stroke: #e8629f;
        stroke-width: 1.16px;
      }

      .cls-4, .cls-5 {
        fill: none;
        stroke-miterlimit: 10;
      }

      .cls-5 {
        stroke: #261923;
        stroke-width: .58px;
      }
    </style>
  </defs>
  <g id="Calque_1-2" data-name="Calque 1">
    <g>
      <rect class="cls-2" x="3.43" y="67.7" width="93.13" height="29.64"/>
      <polygon class="cls-2" points="70.64 19.93 70.64 1.83 29.32 1.83 29.32 19.93 3.43 19.93 3.43 38.06 3.43 67.7 96.55 67.7 96.55 38.06 96.55 19.93 70.64 19.93"/>
      <g>
        <rect class="cls-3" x="43.32" y="44.43" width="13.31" height="21.36"/>
        <path class="cls-1" d="m56.34,44.72v20.75h-12.73v-20.75h12.73m.58-.58h-13.89v21.94h13.89v-21.94h0Z"/>
      </g>
      <rect class="cls-1" y="18.13" width="29.32" height="1.83"/>
      <rect class="cls-1" x="3.43" y="53.75" width="93.13" height=".9"/>
      <rect class="cls-1" x="3.43" y="69.33" width="1.83" height="27.98"/>
      <rect class="cls-1" x="37.48" y="69.33" width="1.83" height="27.98"/>
      <rect class="cls-1" x="60.67" y="69.33" width="1.83" height="27.98"/>
      <rect class="cls-1" x="94.72" y="69.33" width="1.83" height="27.98"/>
      <rect class="cls-1" x="70.64" y="18.13" width="29.32" height="1.83"/>
      <rect class="cls-1" x="26.64" width="46.69" height="1.83"/>
      <rect class="cls-1" x="3.43" y="97.34" width="93.13" height="3.25"/>
      <rect class="cls-1" x="3.43" y="66.07" width="93.13" height="3.25"/>
      <polyline class="cls-4" points="4.33 75.4 11.71 68.02 11.71 66.07"/>
      <polyline class="cls-4" points="38.38 75.4 45.76 68.02 45.76 66.07"/>
      <polyline class="cls-4" points="61.57 75.4 68.95 68.02 68.95 66.07"/>
      <polyline class="cls-4" points="61.57 75.4 54.22 68.02 54.22 66.07"/>
      <polyline class="cls-4" points="95.63 75.4 88.27 68.02 88.27 66.07"/>
      <polyline class="cls-4" points="38.38 75.4 31.03 68.02 31.03 66.07"/>
      <g>
        <rect class="cls-3" x="43.32" y="75.69" width="13.31" height="21.36"/>
        <path class="cls-1" d="m56.34,75.98v20.75h-12.73v-20.75h12.73m.58-.58h-13.89v21.94h13.89v-21.94h0Z"/>
      </g>
      <g>
        <rect class="cls-3" x="68.22" y="75.69" width="20.8" height="18.39"/>
        <path class="cls-1" d="m88.71,75.98v17.81h-20.22v-17.81h20.22m.58-.58h-21.39v18.97h21.39v-18.97h0Z"/>
      </g>
      <g>
        <rect class="cls-3" x="10.95" y="75.69" width="20.8" height="18.39"/>
        <path class="cls-1" d="m31.47,75.98v17.81H11.24v-17.81h20.22m.58-.58H10.66v18.97h21.39v-18.97h0Z"/>
      </g>
      <g>
        <rect class="cls-3" x="7.67" y="40.21" width="6.68" height="12.38"/>
        <path class="cls-1" d="m14.09,40.5v11.8h-6.1v-11.8h6.1m.58-.58h-7.26v12.96h7.26v-12.96h0Z"/>
      </g>
      <g>
        <rect class="cls-3" x="22.34" y="40.21" width="6.68" height="12.38"/>
        <path class="cls-1" d="m28.74,40.5v11.8h-6.1v-11.8h6.1m.58-.58h-7.26v12.96h7.26v-12.96h0Z"/>
      </g>
      <g>
        <rect class="cls-3" x="70.93" y="40.21" width="6.68" height="12.38"/>
        <path class="cls-1" d="m77.35,40.5v11.8h-6.1v-11.8h6.1m.58-.58h-7.26v12.96h7.26v-12.96h0Z"/>
      </g>
      <g>
        <rect class="cls-3" x="85.6" y="40.21" width="6.68" height="12.38"/>
        <path class="cls-1" d="m91.99,40.5v11.8h-6.1v-11.8h6.1m.58-.58h-7.26v12.96h7.26v-12.96h0Z"/>
      </g>
      <g>
        <path class="cls-1" d="m32.57,15.89v-2.85h.93c0,.52.12.9.26,1.16s.35.38.58.38c.17,0,.32-.09.44-.26.12-.17.17-.38.17-.64s-.06-.46-.17-.64c-.12-.17-.32-.38-.61-.61-.64-.46-1.08-.87-1.31-1.25s-.35-.84-.35-1.45c0-.73.15-1.31.46-1.71s.64-.61,1.02-.61c.44,0,.78.26,1.02.78v-.7h.93v2.56h-.93c-.03-.41-.12-.7-.26-.9-.15-.2-.32-.32-.52-.32-.15,0-.29.06-.38.17-.12.12-.15.29-.15.49,0,.17.03.35.15.49.09.15.35.38.76.67s.73.52.93.76.38.52.52.87c.12.35.2.76.2,1.22,0,.84-.15,1.45-.46,1.86s-.7.64-1.13.64c-.49,0-.87-.26-1.13-.81v.73h-.96v-.03Z"/>
        <path class="cls-1" d="m42.19,14.47v1.42h-2.73v-1.42h.7l-.26-1.45h-1.42l-.29,1.45h.73v1.42h-2.44v-1.42h.7l1.08-5.55h-.73v-1.42h3.6v1.42h-.76l1.16,5.55h.67Zm-2.5-2.67l-.46-2.53-.49,2.53h.96Z"/>
        <path class="cls-1" d="m42.42,15.89v-1.42h.78v-5.55h-.78v-1.42h3.05v1.42h-.81v5.55h1.63v-2.59h1.08v4.01h-4.94Z"/>
        <path class="cls-1" d="m50.91,7.38c.96,0,1.71.41,2.24,1.25s.81,1.86.81,3.05-.26,2.24-.81,3.05-1.31,1.25-2.24,1.25-1.74-.44-2.27-1.28c-.52-.87-.78-1.86-.78-3.02s.26-2.21.81-3.05,1.28-1.25,2.24-1.25h0Zm0,1.54c-.44,0-.78.23-1.08.73s-.44,1.19-.44,2.12c0,.81.15,1.48.44,1.98s.64.73,1.08.73.78-.23,1.08-.73.44-1.19.44-2.09c0-.81-.15-1.48-.44-1.98-.26-.52-.61-.76-1.08-.76h0Z"/>
        <path class="cls-1" d="m57.85,7.38c.96,0,1.71.41,2.27,1.25s.81,1.86.81,3.05-.26,2.24-.81,3.05-1.31,1.25-2.24,1.25-1.74-.44-2.27-1.28-.78-1.86-.78-3.02.26-2.21.81-3.05,1.28-1.25,2.21-1.25h0Zm0,1.54c-.44,0-.78.23-1.08.73s-.44,1.19-.44,2.12c0,.81.15,1.48.44,1.98s.64.73,1.08.73.78-.23,1.08-.73.44-1.19.44-2.09c0-.81-.15-1.48-.44-1.98-.23-.52-.61-.76-1.08-.76h0Z"/>
        <path class="cls-1" d="m61.54,15.89v-1.42h.73v-5.55h-.73v-1.42h2.32l2.03,5.23v-3.81h-.73v-1.42h2.47v1.42h-.78v7.03h-1.19l-2.38-6.22v4.74h.7v1.42h-2.44Z"/>
      </g>
      <g>
        <rect class="cls-1" x="3.43" y="54.68" width=".9" height="11.39"/>
        <rect class="cls-1" x="6.97" y="54.68" width=".9" height="11.39"/>
        <rect class="cls-1" x="10.52" y="54.68" width=".9" height="11.39"/>
        <rect class="cls-1" x="14.06" y="54.68" width=".9" height="11.39"/>
        <rect class="cls-1" x="17.61" y="54.68" width=".9" height="11.39"/>
        <rect class="cls-1" x="21.15" y="54.68" width=".9" height="11.39"/>
        <rect class="cls-1" x="24.7" y="54.68" width=".9" height="11.39"/>
        <rect class="cls-1" x="28.24" y="54.68" width=".9" height="11.39"/>
        <rect class="cls-1" x="31.79" y="54.68" width=".9" height="11.39"/>
        <rect class="cls-1" x="35.33" y="54.68" width=".9" height="11.39"/>
        <rect class="cls-1" x="38.88" y="54.68" width=".9" height="11.39"/>
        <rect class="cls-1" x="42.45" y="54.68" width=".9" height="11.39"/>
        <rect class="cls-1" x="46" y="54.68" width=".9" height="11.39"/>
        <rect class="cls-1" x="49.54" y="54.68" width=".9" height="11.39"/>
        <rect class="cls-1" x="53.09" y="54.68" width=".9" height="11.39"/>
        <rect class="cls-1" x="56.63" y="54.68" width=".9" height="11.39"/>
        <rect class="cls-1" x="60.18" y="54.68" width=".9" height="11.39"/>
        <rect class="cls-1" x="63.72" y="54.68" width=".9" height="11.39"/>
        <rect class="cls-1" x="67.27" y="54.68" width=".9" height="11.39"/>
        <rect class="cls-1" x="70.81" y="54.68" width=".9" height="11.39"/>
        <rect class="cls-1" x="74.36" y="54.68" width=".9" height="11.39"/>
        <rect class="cls-1" x="77.9" y="54.68" width=".9" height="11.39"/>
        <rect class="cls-1" x="81.45" y="54.68" width=".9" height="11.39"/>
        <rect class="cls-1" x="84.99" y="54.68" width=".9" height="11.39"/>
        <rect class="cls-1" x="88.54" y="54.68" width=".9" height="11.39"/>
        <rect class="cls-1" x="92.08" y="54.68" width=".9" height="11.39"/>
        <rect class="cls-1" x="95.63" y="54.68" width=".9" height="11.39"/>
      </g>
      <path class="cls-2" d="m43.64,91.76h6.33v-10.98s-2.32-.49-3.17,1.71-2.09,2.09-3.17,2.09v7.18h0Z"/>
      <path class="cls-2" d="m56.34,91.76h-6.36v-10.98s2.32-.49,3.17,1.71,2.09,2.09,3.17,2.09v7.18h.03Z"/>
      <line class="cls-5" x1="49.98" y1="91.76" x2="49.98" y2="78.51"/>
    </g>
  </g>
</svg>