<?xml version="1.0" encoding="UTF-8"?>
<svg id="Calque_2" data-name="Calque 2" xmlns="http://www.w3.org/2000/svg" viewBox="0 0 155.6 100.53">
  <defs>
    <style>
      .cls-1 {
        fill: #e8629f;
      }

      .cls-2 {
        fill: #fcbe1b;
      }

      .cls-3, .cls-4 {
        fill: #261923;
      }

      .cls-4, .cls-5, .cls-6 {
        stroke-miterlimit: 10;
      }

      .cls-4, .cls-6 {
        stroke: #e8629f;
        stroke-width: .8px;
      }

      .cls-5 {
        stroke: #fcbe1b;
        stroke-width: .8px;
      }

      .cls-5, .cls-6 {
        fill: none;
      }
    </style>
  </defs>
  <g id="Calque_1-2" data-name="Calque 1">
    <g>
      <polygon class="cls-1" points="0 37.18 77.82 37.18 77.82 12.23 16.22 12.23 0 37.18"/>
      <polygon class="cls-1" points="155.6 37.18 77.82 37.18 77.82 12.23 139.38 12.23 155.6 37.18"/>
      <g>
        <polygon class="cls-2" points="44.39 36.38 77.82 1.16 111.25 36.38 44.39 36.38"/>
        <path class="cls-1" d="m77.82,2.31l31.56,33.23h-63.16L77.82,2.31m0-2.31l-35.3,37.18h70.57L77.82,0h0Z"/>
      </g>
      <rect class="cls-2" y="37.18" width="155.6" height="60.93"/>
      <rect class="cls-1" y="66.38" width="155.6" height="2.43"/>
      <rect class="cls-1" y="98.06" width="155.6" height="2.43"/>
      <g>
        <g>
          <g>
            <rect class="cls-1" x="4.3" y="65.03" width="5.18" height="1.39"/>
            <rect class="cls-1" x="4.3" y="37.18" width="5.18" height="1.39"/>
            <rect class="cls-1" x="5.1" y="38.53" width="3.63" height="26.5"/>
          </g>
          <g>
            <rect class="cls-1" x="4.3" y="96.71" width="5.18" height="1.39"/>
            <rect class="cls-1" x="4.3" y="68.85" width="5.18" height="1.39"/>
            <rect class="cls-1" x="5.1" y="70.21" width="3.63" height="26.5"/>
          </g>
        </g>
        <g>
          <g>
            <rect class="cls-1" x="23.27" y="65.03" width="5.18" height="1.39"/>
            <rect class="cls-1" x="23.27" y="37.18" width="5.18" height="1.39"/>
            <rect class="cls-1" x="24.07" y="38.53" width="3.63" height="26.5"/>
          </g>
          <g>
            <rect class="cls-1" x="23.27" y="96.71" width="5.18" height="1.39"/>
            <rect class="cls-1" x="23.27" y="68.85" width="5.18" height="1.39"/>
            <rect class="cls-1" x="24.07" y="70.21" width="3.63" height="26.5"/>
          </g>
        </g>
        <g>
          <g>
            <rect class="cls-1" x="42.28" y="65.03" width="5.18" height="1.39"/>
            <rect class="cls-1" x="42.28" y="37.18" width="5.18" height="1.39"/>
            <rect class="cls-1" x="43.03" y="38.53" width="3.63" height="26.5"/>
          </g>
          <g>
            <rect class="cls-1" x="42.28" y="96.71" width="5.18" height="1.39"/>
            <rect class="cls-1" x="42.28" y="68.85" width="5.18" height="1.39"/>
            <rect class="cls-1" x="43.03" y="70.21" width="3.63" height="26.5"/>
          </g>
        </g>
        <g>
          <g>
            <rect class="cls-1" x="61.2" y="65.03" width="5.18" height="1.39"/>
            <rect class="cls-1" x="61.2" y="37.18" width="5.18" height="1.39"/>
            <rect class="cls-1" x="62" y="38.53" width="3.63" height="26.5"/>
          </g>
          <g>
            <rect class="cls-1" x="61.2" y="96.71" width="5.18" height="1.39"/>
            <rect class="cls-1" x="61.2" y="68.85" width="5.18" height="1.39"/>
            <rect class="cls-1" x="62" y="70.21" width="3.63" height="26.5"/>
          </g>
        </g>
      </g>
      <g>
        <g>
          <rect class="cls-3" x="13.15" y="40.88" width="6.53" height="18.73"/>
          <path class="cls-1" d="m19.29,41.28v17.93h-5.74v-17.93h5.74m.8-.8h-7.33v19.52h7.33v-19.52h0Z"/>
        </g>
        <g>
          <rect class="cls-3" x="51.16" y="40.88" width="6.53" height="18.73"/>
          <path class="cls-1" d="m57.3,41.28v17.93h-5.74v-17.93h5.74m.8-.8h-7.33v19.52h7.33v-19.52h0Z"/>
        </g>
        <g>
          <rect class="cls-3" x="32.16" y="40.88" width="6.53" height="18.73"/>
          <path class="cls-1" d="m38.29,41.28v17.93h-5.74v-17.93h5.74m.8-.8h-7.33v19.52h7.33v-19.52h0Z"/>
        </g>
        <g>
          <rect class="cls-3" x="13.15" y="73.32" width="6.53" height="18.73"/>
          <path class="cls-1" d="m19.29,73.72v17.93h-5.74v-17.93h5.74m.8-.8h-7.33v19.52h7.33v-19.52h0Z"/>
        </g>
        <g>
          <rect class="cls-3" x="51.16" y="73.32" width="6.53" height="18.73"/>
          <path class="cls-1" d="m57.3,73.72v17.93h-5.74v-17.93h5.74m.8-.8h-7.33v19.52h7.33v-19.52h0Z"/>
        </g>
        <g>
          <rect class="cls-3" x="32.16" y="73.32" width="6.53" height="18.73"/>
          <path class="cls-1" d="m38.29,73.72v17.93h-5.74v-17.93h5.74m.8-.8h-7.33v19.52h7.33v-19.52h0Z"/>
        </g>
      </g>
      <rect class="cls-1" x="71.6" y="75.11" width="12.35" height="25.42"/>
      <rect class="cls-3" x="72.64" y="76.23" width="4.5" height="8.09"/>
      <g>
        <g>
          <g>
            <rect class="cls-1" x="146.12" y="65.03" width="5.18" height="1.39"/>
            <rect class="cls-1" x="146.12" y="37.18" width="5.18" height="1.39"/>
            <rect class="cls-1" x="146.87" y="38.53" width="3.63" height="26.5"/>
          </g>
          <g>
            <rect class="cls-1" x="146.12" y="96.71" width="5.18" height="1.39"/>
            <rect class="cls-1" x="146.12" y="68.85" width="5.18" height="1.39"/>
            <rect class="cls-1" x="146.87" y="70.21" width="3.63" height="26.5"/>
          </g>
        </g>
        <g>
          <g>
            <rect class="cls-1" x="127.15" y="65.03" width="5.18" height="1.39"/>
            <rect class="cls-1" x="127.15" y="37.18" width="5.18" height="1.39"/>
            <rect class="cls-1" x="127.91" y="38.53" width="3.63" height="26.5"/>
          </g>
          <g>
            <rect class="cls-1" x="127.15" y="96.71" width="5.18" height="1.39"/>
            <rect class="cls-1" x="127.15" y="68.85" width="5.18" height="1.39"/>
            <rect class="cls-1" x="127.91" y="70.21" width="3.63" height="26.5"/>
          </g>
        </g>
        <g>
          <g>
            <rect class="cls-1" x="108.14" y="65.03" width="5.18" height="1.39"/>
            <rect class="cls-1" x="108.14" y="37.18" width="5.18" height="1.39"/>
            <rect class="cls-1" x="108.94" y="38.53" width="3.63" height="26.5"/>
          </g>
          <g>
            <rect class="cls-1" x="108.14" y="96.71" width="5.18" height="1.39"/>
            <rect class="cls-1" x="108.14" y="68.85" width="5.18" height="1.39"/>
            <rect class="cls-1" x="108.94" y="70.21" width="3.63" height="26.5"/>
          </g>
        </g>
        <g>
          <g>
            <rect class="cls-1" x="89.18" y="65.03" width="5.18" height="1.39"/>
            <rect class="cls-1" x="89.18" y="37.18" width="5.18" height="1.39"/>
            <rect class="cls-1" x="89.97" y="38.53" width="3.63" height="26.5"/>
          </g>
          <g>
            <rect class="cls-1" x="89.18" y="96.71" width="5.18" height="1.39"/>
            <rect class="cls-1" x="89.18" y="68.85" width="5.18" height="1.39"/>
            <rect class="cls-1" x="89.97" y="70.21" width="3.63" height="26.5"/>
          </g>
        </g>
      </g>
      <g>
        <g>
          <rect class="cls-3" x="135.96" y="40.88" width="6.53" height="18.73"/>
          <path class="cls-1" d="m142.09,41.28v17.93h-5.74v-17.93h5.74m.8-.8h-7.33v19.52h7.33v-19.52h0Z"/>
        </g>
        <g>
          <rect class="cls-3" x="97.9" y="40.88" width="6.53" height="18.73"/>
          <path class="cls-1" d="m104.04,41.28v17.93h-5.74v-17.93h5.74m.8-.8h-7.33v19.52h7.33v-19.52h0Z"/>
        </g>
        <g>
          <rect class="cls-3" x="116.91" y="40.88" width="6.53" height="18.73"/>
          <path class="cls-1" d="m123.05,41.28v17.93h-5.74v-17.93h5.74m.8-.8h-7.33v19.52h7.33v-19.52h0Z"/>
        </g>
        <g>
          <rect class="cls-3" x="135.96" y="73.32" width="6.53" height="18.73"/>
          <path class="cls-1" d="m142.09,73.72v17.93h-5.74v-17.93h5.74m.8-.8h-7.33v19.52h7.33v-19.52h0Z"/>
        </g>
        <g>
          <rect class="cls-3" x="97.9" y="73.32" width="6.53" height="18.73"/>
          <path class="cls-1" d="m104.04,73.72v17.93h-5.74v-17.93h5.74m.8-.8h-7.33v19.52h7.33v-19.52h0Z"/>
        </g>
        <g>
          <rect class="cls-3" x="116.91" y="73.32" width="6.53" height="18.73"/>
          <path class="cls-1" d="m123.05,73.72v17.93h-5.74v-17.93h5.74m.8-.8h-7.33v19.52h7.33v-19.52h0Z"/>
        </g>
      </g>
      <rect class="cls-3" x="78.46" y="76.23" width="4.5" height="8.09"/>
      <g>
        <path class="cls-4" d="m77.82,40.48h0c3.43,0,6.18,2.79,6.18,6.18v18.33h-12.35v-18.33c-.04-3.39,2.75-6.18,6.18-6.18h0Z"/>
        <line class="cls-6" x1="77.82" y1="40.48" x2="77.82" y2="65.03"/>
        <line class="cls-6" x1="71.68" y1="48.81" x2="84" y2="48.81"/>
        <line class="cls-6" x1="71.6" y1="57.7" x2="84.16" y2="57.7"/>
      </g>
      <g>
        <path class="cls-1" d="m77.82,13.19h0c3.51,0,6.34,2.83,6.34,6.34h0c0,3.51-2.83,6.34-6.34,6.34h0c-3.51,0-6.34-2.83-6.34-6.34h0c0-3.51,2.83-6.34,6.34-6.34Z"/>
        <line class="cls-5" x1="77.82" y1="19.52" x2="77.82" y2="14.19"/>
        <line class="cls-5" x1="77.82" y1="19.52" x2="82.72" y2="19.52"/>
      </g>
    </g>
  </g>
</svg>