<?xml version="1.0" encoding="UTF-8"?>
<svg id="Calque_2" data-name="Calque 2" xmlns="http://www.w3.org/2000/svg" viewBox="0 0 142.4 124.25">
  <defs>
    <style>
      .cls-1 {
        fill: none;
        stroke: #e8629f;
        stroke-miterlimit: 10;
        stroke-width: 1.08px;
      }

      .cls-2 {
        fill: #e8629f;
      }

      .cls-3, .cls-4 {
        fill: #fcbe1b;
      }

      .cls-5 {
        fill: #261923;
      }

      .cls-4 {
        fill-rule: evenodd;
      }
    </style>
  </defs>
  <g id="Calque_1-2" data-name="Calque 1">
    <g>
      <g>
        <g>
          <line class="cls-1" x1="125.66" y1="104.25" x2="125.66" y2="69.83"/>
          <line class="cls-1" x1="132.64" y1="69.36" x2="132.64" y2="104.25"/>
          <g>
            <line class="cls-1" x1="132.64" y1="76.74" x2="125.66" y2="83.68"/>
            <line class="cls-1" x1="125.66" y1="76.7" x2="132.64" y2="83.68"/>
          </g>
          <g>
            <line class="cls-1" x1="132.64" y1="69.83" x2="125.66" y2="76.77"/>
            <line class="cls-1" x1="125.66" y1="69.83" x2="132.64" y2="76.77"/>
          </g>
          <g>
            <line class="cls-1" x1="132.64" y1="83.68" x2="125.66" y2="90.62"/>
            <line class="cls-1" x1="125.66" y1="83.68" x2="132.64" y2="90.62"/>
          </g>
          <g>
            <line class="cls-1" x1="132.64" y1="90.59" x2="125.66" y2="97.53"/>
            <line class="cls-1" x1="125.66" y1="90.55" x2="132.64" y2="97.49"/>
          </g>
          <g>
            <line class="cls-1" x1="132.64" y1="97.53" x2="125.66" y2="104.47"/>
            <line class="cls-1" x1="125.66" y1="97.49" x2="132.64" y2="104.47"/>
          </g>
        </g>
        <g>
          <line class="cls-1" x1="125.66" y1="69.83" x2="125.66" y2="35.19"/>
          <line class="cls-1" x1="132.64" y1="35.19" x2="132.64" y2="69.61"/>
          <g>
            <line class="cls-1" x1="132.64" y1="42.09" x2="125.66" y2="49.04"/>
            <line class="cls-1" x1="125.66" y1="42.06" x2="132.64" y2="49.04"/>
          </g>
          <g>
            <line class="cls-1" x1="132.64" y1="35.19" x2="125.66" y2="42.13"/>
            <line class="cls-1" x1="125.66" y1="35.19" x2="132.64" y2="42.13"/>
          </g>
          <g>
            <line class="cls-1" x1="132.64" y1="49.04" x2="125.66" y2="55.98"/>
            <line class="cls-1" x1="125.66" y1="49.04" x2="132.64" y2="55.98"/>
          </g>
          <g>
            <line class="cls-1" x1="132.64" y1="55.94" x2="125.66" y2="62.89"/>
            <line class="cls-1" x1="125.66" y1="55.91" x2="132.64" y2="62.85"/>
          </g>
          <g>
            <line class="cls-1" x1="132.64" y1="62.89" x2="125.66" y2="69.83"/>
            <line class="cls-1" x1="125.66" y1="62.85" x2="132.64" y2="69.79"/>
          </g>
        </g>
        <g>
          <polyline class="cls-1" points="125.66 35.19 125.66 .55 132.64 .58 132.64 35.19"/>
          <g>
            <line class="cls-1" x1="132.64" y1="7.45" x2="125.66" y2="14.39"/>
            <line class="cls-1" x1="125.66" y1="7.45" x2="132.64" y2="14.39"/>
          </g>
          <g>
            <line class="cls-1" x1="132.64" y1=".58" x2="125.66" y2="7.52"/>
            <line class="cls-1" x1="132.64" y1="7.49" x2="125.66" y2=".55"/>
          </g>
          <g>
            <line class="cls-1" x1="132.64" y1="14.39" x2="125.66" y2="21.34"/>
            <line class="cls-1" x1="125.66" y1="14.39" x2="132.64" y2="21.34"/>
          </g>
          <g>
            <line class="cls-1" x1="132.64" y1="21.3" x2="125.66" y2="28.24"/>
            <line class="cls-1" x1="125.66" y1="21.27" x2="132.64" y2="28.24"/>
          </g>
          <g>
            <line class="cls-1" x1="132.64" y1="28.24" x2="125.66" y2="35.19"/>
            <line class="cls-1" x1="125.66" y1="28.24" x2="132.64" y2="35.19"/>
          </g>
        </g>
      </g>
      <g>
        <g>
          <line class="cls-1" x1="125.12" y1="30.63" x2="89.32" y2="30.63"/>
          <line class="cls-1" x1="88.85" y1="23.4" x2="125.12" y2="23.4"/>
          <g>
            <line class="cls-1" x1="96.51" y1="23.4" x2="103.71" y2="30.63"/>
            <line class="cls-1" x1="96.48" y1="30.63" x2="103.71" y2="23.4"/>
          </g>
          <g>
            <line class="cls-1" x1="89.35" y1="23.4" x2="96.55" y2="30.63"/>
            <line class="cls-1" x1="89.32" y1="30.63" x2="96.55" y2="23.4"/>
          </g>
          <g>
            <line class="cls-1" x1="103.71" y1="23.4" x2="110.94" y2="30.63"/>
            <line class="cls-1" x1="103.71" y1="30.63" x2="110.94" y2="23.4"/>
          </g>
          <g>
            <line class="cls-1" x1="110.9" y1="23.4" x2="118.1" y2="30.63"/>
            <line class="cls-1" x1="110.87" y1="30.63" x2="118.1" y2="23.4"/>
          </g>
          <g>
            <line class="cls-1" x1="118.1" y1="23.4" x2="125.33" y2="30.63"/>
            <line class="cls-1" x1="118.1" y1="30.63" x2="125.33" y2="23.4"/>
          </g>
        </g>
        <g>
          <line class="cls-1" x1="89.32" y1="30.63" x2="53.3" y2="30.63"/>
          <line class="cls-1" x1="53.34" y1="23.4" x2="89.1" y2="23.4"/>
          <g>
            <line class="cls-1" x1="60.5" y1="23.4" x2="67.73" y2="30.63"/>
            <line class="cls-1" x1="60.46" y1="30.63" x2="67.69" y2="23.4"/>
          </g>
          <g>
            <line class="cls-1" x1="53.34" y1="23.4" x2="60.53" y2="30.63"/>
            <line class="cls-1" x1="53.3" y1="30.63" x2="60.53" y2="23.4"/>
          </g>
          <g>
            <line class="cls-1" x1="67.73" y1="23.4" x2="74.92" y2="30.63"/>
            <line class="cls-1" x1="67.69" y1="30.63" x2="74.92" y2="23.4"/>
          </g>
          <g>
            <line class="cls-1" x1="74.89" y1="23.4" x2="82.12" y2="30.63"/>
            <line class="cls-1" x1="74.85" y1="30.63" x2="82.08" y2="23.4"/>
          </g>
          <g>
            <line class="cls-1" x1="82.12" y1="23.4" x2="89.32" y2="30.63"/>
            <line class="cls-1" x1="82.08" y1="30.63" x2="89.32" y2="23.4"/>
          </g>
        </g>
        <g>
          <polyline class="cls-1" points="53.34 30.63 17.32 30.63 17.32 23.4 53.34 23.4"/>
          <g>
            <line class="cls-1" x1="24.48" y1="23.4" x2="31.71" y2="30.63"/>
            <line class="cls-1" x1="24.48" y1="30.63" x2="31.71" y2="23.4"/>
          </g>
          <g>
            <line class="cls-1" x1="17.32" y1="23.4" x2="24.55" y2="30.63"/>
            <line class="cls-1" x1="24.55" y1="23.4" x2="17.32" y2="30.63"/>
          </g>
          <g>
            <line class="cls-1" x1="31.71" y1="23.4" x2="38.95" y2="30.63"/>
            <line class="cls-1" x1="31.71" y1="30.63" x2="38.95" y2="23.4"/>
          </g>
          <g>
            <line class="cls-1" x1="38.87" y1="23.4" x2="46.1" y2="30.63"/>
            <line class="cls-1" x1="38.87" y1="30.63" x2="46.1" y2="23.4"/>
          </g>
          <g>
            <line class="cls-1" x1="46.1" y1="23.4" x2="53.34" y2="30.63"/>
            <line class="cls-1" x1="46.1" y1="30.63" x2="53.3" y2="23.4"/>
          </g>
        </g>
      </g>
      <g>
        <g>
          <line class="cls-1" x1="10.05" y1="104.25" x2="10.05" y2="69.83"/>
          <line class="cls-1" x1="17.03" y1="69.36" x2="17.03" y2="104.25"/>
          <g>
            <line class="cls-1" x1="17.03" y1="76.74" x2="10.05" y2="83.68"/>
            <line class="cls-1" x1="10.05" y1="76.7" x2="17.03" y2="83.68"/>
          </g>
          <g>
            <line class="cls-1" x1="17.03" y1="69.83" x2="10.05" y2="76.77"/>
            <line class="cls-1" x1="10.05" y1="69.83" x2="17.03" y2="76.77"/>
          </g>
          <g>
            <line class="cls-1" x1="17.03" y1="83.68" x2="10.05" y2="90.62"/>
            <line class="cls-1" x1="10.05" y1="83.68" x2="17.03" y2="90.62"/>
          </g>
          <g>
            <line class="cls-1" x1="17.03" y1="90.59" x2="10.05" y2="97.53"/>
            <line class="cls-1" x1="10.05" y1="90.55" x2="17.03" y2="97.49"/>
          </g>
          <g>
            <line class="cls-1" x1="17.03" y1="97.53" x2="10.05" y2="104.47"/>
            <line class="cls-1" x1="10.05" y1="97.49" x2="17.03" y2="104.47"/>
          </g>
        </g>
        <g>
          <line class="cls-1" x1="10.05" y1="69.83" x2="10.05" y2="35.19"/>
          <line class="cls-1" x1="17.03" y1="35.19" x2="17.03" y2="69.61"/>
          <g>
            <line class="cls-1" x1="17.03" y1="42.09" x2="10.05" y2="49.04"/>
            <line class="cls-1" x1="10.05" y1="42.06" x2="17.03" y2="49.04"/>
          </g>
          <g>
            <line class="cls-1" x1="17.03" y1="35.19" x2="10.05" y2="42.13"/>
            <line class="cls-1" x1="10.05" y1="35.19" x2="17.03" y2="42.13"/>
          </g>
          <g>
            <line class="cls-1" x1="17.03" y1="49.04" x2="10.05" y2="55.98"/>
            <line class="cls-1" x1="10.05" y1="49.04" x2="17.03" y2="55.98"/>
          </g>
          <g>
            <line class="cls-1" x1="17.03" y1="55.94" x2="10.05" y2="62.89"/>
            <line class="cls-1" x1="10.05" y1="55.91" x2="17.03" y2="62.85"/>
          </g>
          <g>
            <line class="cls-1" x1="17.03" y1="62.89" x2="10.05" y2="69.83"/>
            <line class="cls-1" x1="10.05" y1="62.85" x2="17.03" y2="69.79"/>
          </g>
        </g>
        <g>
          <polyline class="cls-1" points="10.05 35.19 10.05 .55 17.03 .58 17.03 35.19"/>
          <g>
            <line class="cls-1" x1="17.03" y1="7.45" x2="10.05" y2="14.39"/>
            <line class="cls-1" x1="10.05" y1="7.45" x2="17.03" y2="14.39"/>
          </g>
          <g>
            <line class="cls-1" x1="17.03" y1=".58" x2="10.05" y2="7.52"/>
            <line class="cls-1" x1="17.03" y1="7.49" x2="10.05" y2=".55"/>
          </g>
          <g>
            <line class="cls-1" x1="17.03" y1="14.39" x2="10.05" y2="21.34"/>
            <line class="cls-1" x1="10.05" y1="14.39" x2="17.03" y2="21.34"/>
          </g>
          <g>
            <line class="cls-1" x1="17.03" y1="21.3" x2="10.05" y2="28.24"/>
            <line class="cls-1" x1="10.05" y1="21.27" x2="17.03" y2="28.24"/>
          </g>
          <g>
            <line class="cls-1" x1="17.03" y1="28.24" x2="10.05" y2="35.19"/>
            <line class="cls-1" x1="10.05" y1="28.24" x2="17.03" y2="35.19"/>
          </g>
        </g>
      </g>
      <rect class="cls-3" x=".54" y="104" width="141.57" height="9.91"/>
      <rect class="cls-3" x="17.32" y="31.35" width="108.01" height="9.91"/>
      <g>
        <path class="cls-2" d="m71.35,43.65h0c1.19,0,2.17.98,2.17,2.17v3.54h-4.34v-3.54c-.04-1.19.94-2.17,2.17-2.17h0Z"/>
        <rect class="cls-2" x="70.95" y="41.08" width=".8" height="2.57"/>
        <g>
          <path class="cls-2" d="m19.6,44.16h0c.98-.69,2.35-.43,3.04.54l2.02,2.93-3.58,2.5-2.02-2.93c-.69-.98-.47-2.35.54-3.04h0Z"/>
          <rect class="cls-2" x="20.83" y="41.08" width=".8" height="3.18"/>
        </g>
        <g>
          <path class="cls-2" d="m121.57,50.12l-3.58-2.5,2.03-2.93c.69-.98,2.06-1.23,3.04-.54h0c.98.69,1.23,2.06.54,3.04l-2.03,2.93h0Z"/>
          <rect class="cls-2" x="121.03" y="41.08" width=".8" height="3.04"/>
        </g>
        <g>
          <path class="cls-2" d="m95.36,49.9l-4.16-1.23,1.01-3.4c.33-1.16,1.55-1.81,2.71-1.48h0c1.16.33,1.81,1.55,1.48,2.71l-1.05,3.4h0Z"/>
          <rect class="cls-2" x="93.73" y="41.08" width=".8" height="3.04"/>
        </g>
        <g>
          <path class="cls-2" d="m47.7,43.79h0c1.16-.33,2.35.33,2.71,1.48l1.01,3.4-4.16,1.23-1.01-3.4c-.36-1.16.33-2.39,1.45-2.71h0Z"/>
          <rect class="cls-2" x="48.17" y="41.08" width=".8" height="3.04"/>
        </g>
      </g>
      <path class="cls-2" d="m135.57,13.53C92.75-3.76,49.9-3.76,7.09,13.53v3.83h128.48v-3.83Z"/>
      <g>
        <g>
          <rect class="cls-3" x="130.47" y="39.56" width="10.2" height="17"/>
          <g>
            <circle class="cls-5" cx="135.57" cy="43.36" r="1.66"/>
            <path class="cls-2" d="m135.57,42.27c.61,0,1.12.51,1.12,1.12s-.51,1.12-1.12,1.12-1.12-.51-1.12-1.12.51-1.12,1.12-1.12m0-1.08c-1.19,0-2.21.98-2.21,2.21s.98,2.21,2.21,2.21,2.21-.98,2.21-2.21-1.01-2.21-2.21-2.21h0Z"/>
          </g>
          <g>
            <circle class="cls-5" cx="135.57" cy="51.97" r="3.36"/>
            <path class="cls-2" d="m135.57,49.15c1.55,0,2.82,1.27,2.82,2.82s-1.27,2.82-2.82,2.82-2.82-1.27-2.82-2.82,1.27-2.82,2.82-2.82m0-1.08c-2.17,0-3.91,1.74-3.91,3.91s1.74,3.91,3.91,3.91,3.91-1.74,3.91-3.91-1.77-3.91-3.91-3.91h0Z"/>
          </g>
        </g>
        <g>
          <rect class="cls-3" x="130.47" y="61.33" width="10.2" height="17"/>
          <g>
            <circle class="cls-5" cx="135.57" cy="65.13" r="1.66"/>
            <path class="cls-2" d="m135.57,64.01c.61,0,1.12.51,1.12,1.12s-.51,1.12-1.12,1.12-1.12-.51-1.12-1.12.51-1.12,1.12-1.12m0-1.08c-1.19,0-2.21.98-2.21,2.21s.98,2.21,2.21,2.21,2.21-.98,2.21-2.21-1.01-2.21-2.21-2.21h0Z"/>
          </g>
          <g>
            <circle class="cls-5" cx="135.57" cy="73.73" r="3.36"/>
            <path class="cls-2" d="m135.57,70.91c1.55,0,2.82,1.27,2.82,2.82s-1.27,2.82-2.82,2.82-2.82-1.27-2.82-2.82,1.27-2.82,2.82-2.82m0-1.08c-2.17,0-3.91,1.74-3.91,3.91s1.74,3.91,3.91,3.91,3.91-1.74,3.91-3.91-1.77-3.91-3.91-3.91h0Z"/>
          </g>
        </g>
        <g>
          <rect class="cls-3" x="130.47" y="83.17" width="10.2" height="17"/>
          <g>
            <circle class="cls-5" cx="135.57" cy="86.97" r="1.66"/>
            <path class="cls-2" d="m135.57,85.85c.61,0,1.12.51,1.12,1.12s-.51,1.12-1.12,1.12-1.12-.51-1.12-1.12.51-1.12,1.12-1.12m0-1.08c-1.19,0-2.21.98-2.21,2.21s.98,2.21,2.21,2.21,2.21-.98,2.21-2.21-1.01-2.21-2.21-2.21h0Z"/>
          </g>
          <g>
            <circle class="cls-5" cx="135.57" cy="95.58" r="3.36"/>
            <path class="cls-2" d="m135.57,92.76c1.55,0,2.82,1.27,2.82,2.82s-1.27,2.82-2.82,2.82-2.82-1.27-2.82-2.82,1.27-2.82,2.82-2.82m0-1.08c-2.17,0-3.91,1.74-3.91,3.91s1.74,3.91,3.91,3.91,3.91-1.74,3.91-3.91-1.77-3.91-3.91-3.91h0Z"/>
          </g>
        </g>
      </g>
      <g>
        <g>
          <rect class="cls-3" x="1.99" y="39.56" width="10.2" height="17"/>
          <g>
            <circle class="cls-5" cx="7.09" cy="43.36" r="1.66"/>
            <path class="cls-2" d="m7.09,42.27c.61,0,1.12.51,1.12,1.12s-.51,1.12-1.12,1.12-1.12-.51-1.12-1.12.51-1.12,1.12-1.12m0-1.08c-1.23,0-2.21.98-2.21,2.21s.98,2.21,2.21,2.21,2.21-.98,2.21-2.21-.98-2.21-2.21-2.21h0Z"/>
          </g>
          <g>
            <circle class="cls-5" cx="7.09" cy="51.97" r="3.36"/>
            <path class="cls-2" d="m7.09,49.15c1.55,0,2.82,1.27,2.82,2.82s-1.27,2.82-2.82,2.82-2.82-1.27-2.82-2.82,1.27-2.82,2.82-2.82m0-1.08c-2.13,0-3.91,1.74-3.91,3.91s1.74,3.91,3.91,3.91,3.91-1.74,3.91-3.91-1.74-3.91-3.91-3.91h0Z"/>
          </g>
        </g>
        <g>
          <rect class="cls-3" x="1.99" y="61.33" width="10.2" height="17"/>
          <g>
            <circle class="cls-5" cx="7.09" cy="65.13" r="1.66"/>
            <path class="cls-2" d="m7.09,64.01c.61,0,1.12.51,1.12,1.12s-.51,1.12-1.12,1.12-1.12-.51-1.12-1.12.51-1.12,1.12-1.12m0-1.08c-1.23,0-2.21.98-2.21,2.21s.98,2.21,2.21,2.21,2.21-.98,2.21-2.21-.98-2.21-2.21-2.21h0Z"/>
          </g>
          <g>
            <circle class="cls-5" cx="7.09" cy="73.73" r="3.36"/>
            <path class="cls-2" d="m7.09,70.91c1.55,0,2.82,1.27,2.82,2.82s-1.27,2.82-2.82,2.82-2.82-1.27-2.82-2.82,1.27-2.82,2.82-2.82m0-1.08c-2.13,0-3.91,1.74-3.91,3.91s1.74,3.91,3.91,3.91,3.91-1.74,3.91-3.91-1.74-3.91-3.91-3.91h0Z"/>
          </g>
        </g>
        <g>
          <rect class="cls-3" x="1.99" y="83.17" width="10.2" height="17"/>
          <g>
            <circle class="cls-5" cx="7.09" cy="86.97" r="1.66"/>
            <path class="cls-2" d="m7.09,85.85c.61,0,1.12.51,1.12,1.12s-.51,1.12-1.12,1.12-1.12-.51-1.12-1.12.51-1.12,1.12-1.12m0-1.08c-1.23,0-2.21.98-2.21,2.21s.98,2.21,2.21,2.21,2.21-.98,2.21-2.21-.98-2.21-2.21-2.21h0Z"/>
          </g>
          <g>
            <circle class="cls-5" cx="7.09" cy="95.58" r="3.36"/>
            <path class="cls-2" d="m7.09,92.76c1.55,0,2.82,1.27,2.82,2.82s-1.27,2.82-2.82,2.82-2.82-1.27-2.82-2.82,1.27-2.82,2.82-2.82m0-1.08c-2.13,0-3.91,1.74-3.91,3.91s1.77,3.87,3.91,3.87,3.91-1.74,3.91-3.91-1.74-3.87-3.91-3.87h0Z"/>
          </g>
        </g>
      </g>
      <path class="cls-4" d="m24.52,14.54c0-5.82,20.9-10.52,46.68-10.52s46.68,4.74,46.68,10.52"/>
      <rect class="cls-3" x="1.16" y="17.36" width="140.09" height="5.32"/>
      <g>
        <path class="cls-2" d="m21.08,95.07l3.58,2.5-2.02,2.93c-.69.98-2.06,1.23-3.04.54h0c-.98-.69-1.23-2.06-.54-3.04l2.03-2.93h0Z"/>
        <rect class="cls-2" x="20.83" y="100.89" width=".8" height="3.18"/>
      </g>
      <g>
        <path class="cls-2" d="m123.05,101h0c-.98.69-2.35.43-3.04-.54l-2.03-2.93,3.58-2.5,2.03,2.93c.69.98.47,2.35-.54,3.04h0Z"/>
        <rect class="cls-2" x="121.03" y="101.07" width=".8" height="3.04"/>
      </g>
      <rect class="cls-3" x="37.21" y="113.76" width="67.91" height="2.75"/>
      <rect class="cls-2" x="63.9" y="100.17" width="14.61" height="4.05"/>
      <rect class="cls-2" x="32.47" y="100.17" width="14.61" height="4.05"/>
      <rect class="cls-2" x="95.28" y="100.17" width="14.61" height="4.05"/>
      <g>
        <g>
          <path class="cls-1" d="m5.5,112.39h10.41c2.75,0,4.95,2.21,4.95,4.95v6.36H.54v-6.36c0-2.71,2.21-4.95,4.95-4.95h0Z"/>
          <line class="cls-1" x1="5.5" y1="112.39" x2="5.5" y2="123.71"/>
          <line class="cls-1" x1="16.2" y1="112.39" x2="16.2" y2="123.71"/>
          <line class="cls-1" x1="10.85" y1="112.39" x2="10.85" y2="123.71"/>
        </g>
        <g>
          <path class="cls-1" d="m40.07,112.39h-10.38c-2.75,0-4.95,2.21-4.95,4.95v6.36h20.29v-6.36c0-2.71-2.21-4.95-4.95-4.95h0Z"/>
          <line class="cls-1" x1="29.69" y1="112.39" x2="29.69" y2="123.71"/>
          <line class="cls-1" x1="40.39" y1="112.39" x2="40.39" y2="123.71"/>
          <line class="cls-1" x1="35.04" y1="112.39" x2="35.04" y2="123.71"/>
        </g>
        <g>
          <path class="cls-1" d="m64.29,112.39h-10.41c-2.75,0-4.95,2.21-4.95,4.95v6.36h20.29v-6.36c0-2.71-2.21-4.95-4.92-4.95h0Z"/>
          <line class="cls-1" x1="53.88" y1="112.39" x2="53.88" y2="123.71"/>
          <line class="cls-1" x1="64.58" y1="112.39" x2="64.58" y2="123.71"/>
          <line class="cls-1" x1="59.23" y1="112.39" x2="59.23" y2="123.71"/>
        </g>
        <g>
          <path class="cls-1" d="m88.49,112.39h-10.41c-2.75,0-4.95,2.21-4.95,4.95v6.36h20.29v-6.36c.04-2.71-2.21-4.95-4.92-4.95h0Z"/>
          <line class="cls-1" x1="78.07" y1="112.39" x2="78.07" y2="123.71"/>
          <line class="cls-1" x1="88.77" y1="112.39" x2="88.77" y2="123.71"/>
          <line class="cls-1" x1="83.42" y1="112.39" x2="83.42" y2="123.71"/>
        </g>
        <g>
          <path class="cls-1" d="m112.68,112.39h-10.41c-2.75,0-4.95,2.21-4.95,4.95v6.36h20.29v-6.36c.04-2.71-2.21-4.95-4.92-4.95h0Z"/>
          <line class="cls-1" x1="102.26" y1="112.39" x2="102.26" y2="123.71"/>
          <line class="cls-1" x1="112.97" y1="112.39" x2="112.97" y2="123.71"/>
          <line class="cls-1" x1="107.61" y1="112.39" x2="107.61" y2="123.71"/>
        </g>
        <g>
          <path class="cls-1" d="m126.49,112.39h10.41c2.75,0,4.95,2.21,4.95,4.95v6.36h-20.29v-6.36c-.04-2.71,2.17-4.95,4.92-4.95h0Z"/>
          <line class="cls-1" x1="126.49" y1="112.39" x2="126.49" y2="123.71"/>
          <line class="cls-1" x1="137.16" y1="112.39" x2="137.16" y2="123.71"/>
          <line class="cls-1" x1="131.81" y1="112.39" x2="131.81" y2="123.71"/>
        </g>
      </g>
    </g>
  </g>
</svg>