<?xml version="1.0" encoding="UTF-8"?>
<svg id="Calque_2" data-name="Calque 2" xmlns="http://www.w3.org/2000/svg" viewBox="0 0 92.11 125.78">
  <defs>
    <style>
      .cls-1 {
        fill: #e8629f;
      }

      .cls-2 {
        fill: #fcbe1b;
        fill-rule: evenodd;
      }
    </style>
  </defs>
  <g id="Calque_1-2" data-name="Calque 1">
    <g>
      <polygon class="cls-1" points="70.49 107.61 70.49 108.42 67.61 108.42 67.61 104.86 68.32 104.86 68.32 103.56 66.87 103.56 66.87 102.57 37.66 102.57 37.66 103.56 36.72 103.56 36.72 104.86 37.36 104.86 37.36 108.42 34.17 108.42 34.17 107.61 32.1 107.61 32.1 108.42 32.1 111.41 33.71 111.41 33.71 122.46 32.1 122.46 32.1 125.78 72.56 125.78 72.56 122.46 71.24 122.46 71.24 111.41 72.56 111.41 72.56 108.42 72.56 107.61 70.49 107.61"/>
      <path class="cls-2" d="m63.37,102.57l2.18-9.1v-7.71l1.19-19.8v-8.5l-.4-1.14.4-.97-1.01-4.83-.68-3.34v-4.35l-.57-.53-.18-3.52,1.23-3.52,1.19-2.37.4-.44,1.76,1.76,2.46,2.37,6.42,3.78,2.46-.53.53-1.14v-.44l.7-3.96v-2.81l-.44-6.94-.09-2.02.09-.88-.18-.88h.62l1.14-1.85v-1.76l-.44-.44-.09-.79h-.7v-1.05h-.79v-1.32h-1.32l.62-.53,4.31-1.05,2.37-.44h2.2l1.32.44,1.05.79.97-.53s.79-9.49-5.01-12.24c0,0-.7.44-.53,1.93,0,0-1.85,3.34-12.94,7.65l-.51-.24-1.01.53.07.4-2.22,1.19s-.48,2.11,1.3,3.76c0,0,1.98.13,3.63-.57l1.25,1.16-.59.62,1.49,4.13s.79,6.72.09,8.9l-.68,2.64-3.01-3.03.57-.57-6.13-6.79-4.15-1.71-3.03-1.12-1.16-.24s.35-1.78,2.04-.9,2.31-.42,2.31-.42c0,0,.31-.57-.31-1.23l.64-.84-.57-.57.48-.84-.4-1.12s.84,0,1.25-.99c0,0-.66-1.16-.66-1.3s.02-1.52.02-1.52c0,0-.42-.26-.9-1.25s-.84-1.3-.84-1.3c0,0,.84-1.71-1.32-2.29s-8.57-2.02-10.13,4.35c0,0-.9,2.35,1.63,7.58,0,0,.26,1.05-.48,2.42l-4.13,1.27-5.36-.31-3.52,1.58-1.89.48v.48l-.79.35-7.78.62-4.18-.7-7.69-.35-7.03-1.71s-3.21-1.67-3.69-2.64L.22,16l-.22.48,2.68,1.32,1.36.88-.66.88v.53l-.92.57.22.62.7-.09.66.62,1.85.97.75-.48,1.36.92h1.85l4.09,1.27s5.1,1.98,5.27,2.07,5.1,1.63,5.1,1.63l2.55.35,1.67-.31,6.81.09,2.9-.13,1.98-.31.84,1.36.88-.04.75-.26,1.23.79.53.75s1.05,4.22.04,13.12l-1.05,4.97s-.66,3.16-.62,6.06l2.24.09-.04,1.05.35.26-.18,1.01-.73,1.32-1.52,7.58-.66,17.43-.35,14.37.09,4.83,21.36.02h0Z"/>
    </g>
  </g>
</svg>