<?xml version="1.0" encoding="UTF-8"?>
<svg id="Calque_2" data-name="Calque 2" xmlns="http://www.w3.org/2000/svg" viewBox="0 0 80 48.02">
  <defs>
    <style>
      .cls-1, .cls-2, .cls-3, .cls-4 {
        fill: #261923;
      }

      .cls-1, .cls-5 {
        stroke-width: 1.24px;
      }

      .cls-1, .cls-5, .cls-3, .cls-6, .cls-7, .cls-4, .cls-8 {
        stroke: #e6629f;
        stroke-miterlimit: 10;
      }

      .cls-9 {
        fill: #fcbe1b;
      }

      .cls-10, .cls-8 {
        fill: #e6629f;
      }

      .cls-5, .cls-6, .cls-7 {
        fill: none;
      }

      .cls-3, .cls-7 {
        stroke-width: 1.21px;
      }

      .cls-3, .cls-4, .cls-8 {
        fill-rule: evenodd;
      }

      .cls-6 {
        stroke-width: .7px;
      }

      .cls-4, .cls-8 {
        stroke-width: .86px;
      }
    </style>
  </defs>
  <g id="Calque_1-2" data-name="Calque 1">
    <g id="Calque_1-2" data-name="Calque 1-2">
      <g>
        <rect class="cls-9" x=".62" y="17.18" width="55.28" height="30.84"/>
        <rect class="cls-9" x="55.9" y="19.85" width="24.1" height="28.18"/>
        <rect class="cls-10" x=".62" y="3.76" width="55.28" height="13.42"/>
        <rect class="cls-10" x="55.9" y="6.26" width="24.1" height="13.58"/>
        <path class="cls-2" d="m31.94,48.02h-7.36v-10.71c0-2.02,1.66-3.68,3.68-3.68h0c2.02,0,3.68,1.66,3.68,3.68v10.71h0Z"/>
        <g>
          <polygon class="cls-3" points="11.46 19.25 18.01 19.25 24.58 19.25 24.58 25.42 18.01 25.42 11.46 25.42 4.88 25.42 4.88 19.25 11.46 19.25"/>
          <polygon class="cls-3" points="38.51 19.25 45.09 19.25 51.66 19.25 51.66 25.42 45.09 25.42 38.51 25.42 31.94 25.42 31.94 19.25 38.51 19.25"/>
          <polygon class="cls-4" points="8.17 35.78 11.46 35.78 14.72 35.78 14.72 41.96 11.46 41.96 8.17 41.96 4.88 41.96 4.88 35.78 8.17 35.78"/>
          <polygon class="cls-4" points="45.09 35.78 48.38 35.78 51.66 35.78 51.66 41.96 48.38 41.96 45.09 41.96 41.8 41.96 41.8 35.78 45.09 35.78"/>
          <line class="cls-7" x1="14.72" y1="19.25" x2="14.72" y2="25.42"/>
          <line class="cls-7" x1="41.8" y1="19.25" x2="41.8" y2="25.42"/>
          <path class="cls-8" d="m14.72,35.78c0-1.82-2.21-3.3-4.92-3.3s-4.92,1.49-4.92,3.3"/>
          <path class="cls-8" d="m51.66,35.78c0-1.82-2.21-3.3-4.92-3.3s-4.92,1.49-4.92,3.3"/>
        </g>
        <rect class="cls-9" x=".6" y="1.82" width="4.1" height="10.34"/>
        <rect class="cls-10" width="5.29" height="1.82"/>
        <path class="cls-6" d="m31.94,48.02v-10.71c0-2.02-1.66-3.68-3.68-3.68h0c-2.02,0-3.68,1.66-3.68,3.68v10.71"/>
        <circle class="cls-9" cx="28.26" cy="38.38" r=".47"/>
        <polyline class="cls-5" points="55.9 47.96 55.9 29.46 67.6 22.7 79.3 29.46 79.3 47.96"/>
        <rect class="cls-10" x="59.43" y="44.54" width="16.33" height="3.41"/>
        <rect class="cls-10" x="59.43" y="40.38" width="16.33" height="3.41"/>
        <rect class="cls-10" x="59.43" y="36.2" width="16.33" height="3.41"/>
        <rect class="cls-1" x="64.21" y="27.25" width="6.8" height="5.62"/>
        <line class="cls-7" x1="55.9" y1="17.18" x2="55.9" y2="28.96"/>
      </g>
    </g>
  </g>
</svg>