<?xml version="1.0" encoding="UTF-8"?>
<svg id="Calque_2" data-name="Calque 2" xmlns="http://www.w3.org/2000/svg" viewBox="0 0 131.9 60.24">
  <defs>
    <style>
      .cls-1 {
        fill: none;
        stroke: #e8629f;
        stroke-miterlimit: 10;
        stroke-width: .52px;
      }

      .cls-2 {
        fill: #e8629f;
      }

      .cls-3 {
        fill: #fcbe1b;
      }

      .cls-4 {
        fill: #e6629f;
      }

      .cls-5 {
        fill: #261923;
      }
    </style>
  </defs>
  <g id="Calque_1-2" data-name="Calque 1">
    <g>
      <rect class="cls-3" x="6.75" y="26.18" width="118.43" height="28.33"/>
      <rect class="cls-3" x="34.5" y="2.93" width="62.93" height="51.58"/>
      <rect class="cls-2" x="4.24" y="54.51" width="123.4" height="2.93"/>
      <rect class="cls-2" y="57.31" width="131.9" height="2.93"/>
      <rect class="cls-2" x="4.24" y="23.23" width="30.24" height="2.93"/>
      <rect class="cls-2" x="97.4" y="23.23" width="30.24" height="2.93"/>
      <rect class="cls-2" x="32.46" width="67.01" height="2.93"/>
      <path class="cls-2" d="m95.6,7.82v13.68h-59.29V7.82h59.29m.78-.78h-60.86v15.25h60.86V7.04h0Z"/>
      <g>
        <rect class="cls-5" x="12.53" y="32.38" width="19.67" height="19.67"/>
        <path class="cls-2" d="m31.94,32.64v19.15H12.79v-19.15h19.15m.52-.52H12.27v20.19h20.19v-20.19h0Z"/>
      </g>
      <g>
        <rect class="cls-5" x="99.7" y="32.38" width="19.67" height="19.67"/>
        <path class="cls-2" d="m119.11,32.64v19.15h-19.15v-19.15h19.15m.52-.52h-20.19v20.19h20.19v-20.19h0Z"/>
      </g>
      <g>
        <rect class="cls-5" x="34.76" y="31.05" width="23.7" height="20.98"/>
        <path class="cls-2" d="m58.2,31.31v20.48h-23.17v-20.45h23.17m.52-.55h-24.22v21.53h24.22v-21.53h0Z"/>
      </g>
      <g>
        <rect class="cls-5" x="73.44" y="31.05" width="23.7" height="20.98"/>
        <path class="cls-2" d="m96.88,31.31v20.48h-23.17v-20.45h23.17m.52-.55h-24.22v21.53h24.22v-21.53h0Z"/>
      </g>
      <g>
        <rect class="cls-5" x="58.98" y="31.05" width="13.94" height="23.2"/>
        <path class="cls-2" d="m72.66,31.31v22.68h-13.42v-22.68h13.42m.52-.52h-14.46v23.72h14.46v-23.72h0Z"/>
      </g>
      <rect class="cls-2" x="34.5" y="26.97" width="62.93" height="2.93"/>
      <line class="cls-1" x1="73.18" y1="42.66" x2="58.72" y2="42.66"/>
      <line class="cls-1" x1="65.96" y1="54.51" x2="65.96" y2="30.78"/>
      <g>
        <rect class="cls-3" x="34.76" y="30.16" width="62.41" height="9.15"/>
        <path class="cls-4" d="m96.88,30.42v8.63h-61.86v-8.63h61.86m.52-.52h-62.9v9.68h62.9v-9.68h0Z"/>
      </g>
      <g>
        <rect class="cls-2" x="36.64" y="29.9" width="1.99" height="9.68"/>
        <rect class="cls-2" x="41.8" y="29.9" width="1.99" height="9.68"/>
        <rect class="cls-2" x="46.95" y="29.9" width="1.99" height="9.68"/>
        <rect class="cls-2" x="52.1" y="29.9" width="1.99" height="9.68"/>
        <rect class="cls-2" x="57.23" y="29.9" width="1.99" height="9.68"/>
        <rect class="cls-2" x="62.38" y="29.9" width="1.99" height="9.68"/>
        <rect class="cls-2" x="67.53" y="29.9" width="1.99" height="9.68"/>
        <rect class="cls-2" x="72.68" y="29.9" width="1.99" height="9.68"/>
        <rect class="cls-2" x="77.84" y="29.9" width="1.99" height="9.68"/>
        <rect class="cls-2" x="82.99" y="29.9" width="1.99" height="9.68"/>
        <rect class="cls-2" x="88.12" y="29.9" width="1.99" height="9.68"/>
        <rect class="cls-2" x="93.27" y="29.9" width="1.99" height="9.68"/>
      </g>
      <g>
        <path class="cls-2" d="m41.77,15.72c0,1.07-.81,1.78-2.22,1.78s-2.56-.73-2.56-1.96h1.41c0,.6.52.81,1.15.81.52,0,.81-.21.81-.5,0-.44-.6-.55-1.39-.78-.97-.29-1.8-.71-1.8-1.73,0-1.23.97-1.7,2.17-1.7,1.31,0,2.33.68,2.38,1.83h-1.44c-.05-.42-.42-.68-.97-.68-.42,0-.76.13-.76.44,0,.34.37.44,1.07.65,1.05.29,2.14.63,2.14,1.83Z"/>
        <path class="cls-2" d="m44.67,17.5c-1.7,0-2.35-.76-2.35-2.14v-3.61h1.41v3.58c0,.73.31.99.94.99s.94-.26.94-.99v-3.58h1.41v3.58c0,1.41-.65,2.17-2.35,2.17Z"/>
        <path class="cls-2" d="m47.76,11.74h2.72c1.18,0,1.91.6,1.91,1.78s-.73,1.78-1.91,1.78h-1.31v2.04h-1.41v-5.6h0Zm1.41,2.43h1.02c.5,0,.78-.16.78-.63s-.29-.63-.78-.63h-1.02v1.26Z"/>
        <path class="cls-2" d="m56.73,13.91v1.15h-2.46v1.15h2.88v1.15h-4.29v-5.62h4.26v1.15h-2.85v.99l2.46.03h0Z"/>
        <path class="cls-2" d="m57.8,11.74h2.64c1.26,0,1.99.58,1.99,1.62,0,.73-.44,1.23-1.15,1.36v.03c1.41.24.89,2.41,1.2,2.51v.08h-1.46c-.26-.24.24-1.96-.97-1.96h-.89v1.96h-1.36v-5.6h0Zm1.41,2.51h.97c.58,0,.86-.21.86-.68s-.29-.68-.86-.68h-.97v1.36h0Z"/>
        <path class="cls-2" d="m63.06,11.74h1.73l1.15,3.58h.03l1.15-3.58h1.73v5.62h-1.33v-3.5h-.03l-1.05,3.48h-.99l-1.05-3.48h-.03v3.48h-1.33l.03-5.6h0Z"/>
        <path class="cls-2" d="m70.91,16.19l-.37,1.18h-1.41l2.04-5.62h1.41l2.01,5.62h-1.41l-.37-1.18h-1.91Zm1.6-1.07l-.63-2.07h-.03l-.63,2.07h1.28Z"/>
        <path class="cls-2" d="m74.99,11.74h2.64c1.26,0,2.01.58,2.01,1.62,0,.73-.44,1.23-1.15,1.36v.03c1.41.24.89,2.41,1.23,2.51v.08h-1.46c-.26-.24.24-1.96-.97-1.96h-.89v1.96h-1.41v-5.6h0Zm1.41,2.51h.97c.58,0,.86-.21.86-.68s-.29-.68-.86-.68h-.97v1.36h0Z"/>
        <path class="cls-2" d="m81.68,11.74v2.28l1.96-2.28h1.65l-2.14,2.48,2.22,3.14h-1.67l-1.46-2.12-.58.65v1.49h-1.41v-5.65h1.44Z"/>
        <path class="cls-2" d="m89.58,13.91v1.15h-2.46v1.15h2.88v1.15h-4.29v-5.62h4.26v1.15h-2.85v.99l2.46.03h0Z"/>
        <path class="cls-2" d="m92.04,12.89h-1.62v-1.15h4.66v1.15h-1.62v4.45h-1.41v-4.45h0Z"/>
      </g>
    </g>
  </g>
</svg>