<?xml version="1.0" encoding="UTF-8"?>
<svg id="Calque_2" data-name="Calque 2" xmlns="http://www.w3.org/2000/svg" viewBox="0 0 129.81 82.01">
  <defs>
    <style>
      .cls-1 {
        stroke-width: 1.11px;
      }

      .cls-1, .cls-2 {
        fill: none;
      }

      .cls-1, .cls-2, .cls-3 {
        stroke-miterlimit: 10;
      }

      .cls-1, .cls-3 {
        stroke: #e8629f;
      }

      .cls-4 {
        fill: #e8629f;
      }

      .cls-5 {
        fill: #fcbe1b;
      }

      .cls-6 {
        fill: #fcbe1c;
      }

      .cls-2 {
        stroke: #fcbe1b;
        stroke-width: 1.03px;
      }

      .cls-3 {
        stroke-width: .83px;
      }

      .cls-3, .cls-7 {
        fill: #261923;
      }

      .cls-7 {
        fill-rule: evenodd;
      }
    </style>
  </defs>
  <g id="Calque_1-2" data-name="Calque 1">
    <g>
      <rect class="cls-5" x="4.12" y="52.53" width="121.55" height="29.45"/>
      <rect class="cls-5" x="3.18" y="35.25" width="123.43" height="17.28"/>
      <rect class="cls-5" x="46.04" y="16.76" width="37.74" height="65.25"/>
      <g>
        <path class="cls-7" d="m58.06,81.59v-15.29c0-3.76,3.07-6.83,6.83-6.83s6.83,3.07,6.83,6.83v15.29h-13.66Z"/>
        <path class="cls-4" d="m64.89,59.86c3.54,0,6.41,2.88,6.41,6.41v14.88h-12.86v-14.88c.03-3.54,2.9-6.41,6.44-6.41m0-.83h0c-4.01,0-7.24,3.23-7.24,7.24v15.7h14.52v-15.7c0-3.98-3.26-7.24-7.27-7.24h0Z"/>
      </g>
      <g>
        <path class="cls-7" d="m58.06,40.34v-10.92c0-3.76,3.07-6.83,6.83-6.83s6.83,3.07,6.83,6.83v10.92h-13.66Z"/>
        <path class="cls-4" d="m64.89,23c3.54,0,6.41,2.88,6.41,6.41v10.51h-12.86v-10.51c.03-3.54,2.9-6.41,6.44-6.41m0-.83h0c-4.01,0-7.24,3.23-7.24,7.24v11.34h14.52v-11.34c0-4.01-3.26-7.24-7.27-7.24h0Z"/>
      </g>
      <rect class="cls-4" x="53.17" y="49.71" width="23.45" height="5.67"/>
      <polygon class="cls-4" points="82.89 22.17 123.7 22.17 129.81 35.42 82.89 35.42 82.89 22.17"/>
      <polygon class="cls-4" points="46.92 22.17 6.08 22.17 0 35.42 46.92 35.42 46.92 22.17"/>
      <g>
        <polygon class="cls-6" points="46.87 15.93 46.87 15.32 64.89 1.05 82.95 15.32 82.95 15.93 46.87 15.93"/>
        <path class="cls-4" d="m64.89,2.1l16.42,12.97h-32.82l16.4-12.97m0-2.1l-18.86,14.9v1.82h37.74v-1.82L64.89,0h0Z"/>
      </g>
      <line class="cls-1" x1="83.78" y1="35.42" x2="83.78" y2="82.01"/>
      <line class="cls-1" x1="46.04" y1="35.42" x2="46.04" y2="82.01"/>
      <g>
        <circle class="cls-4" cx="65" cy="9.43" r="4.65"/>
        <circle class="cls-5" cx="65" cy="9.43" r=".77"/>
        <line class="cls-2" x1="65" y1="9.43" x2="65" y2="5.67"/>
        <line class="cls-2" x1="65" y1="9.43" x2="68.79" y2="9.43"/>
      </g>
      <g>
        <g>
          <path class="cls-7" d="m90.22,81.59v-12.91c0-2.9,2.38-5.28,5.28-5.28s5.28,2.38,5.28,5.28v12.91h-10.56Z"/>
          <path class="cls-4" d="m95.5,63.79c2.68,0,4.87,2.18,4.87,4.87v12.5h-9.73v-12.5c0-2.68,2.18-4.87,4.87-4.87m0-.83h0c-3.15,0-5.7,2.54-5.7,5.7v13.33h11.39v-13.33c.03-3.12-2.54-5.7-5.7-5.7h0Z"/>
        </g>
        <g>
          <path class="cls-7" d="m108.69,81.59v-12.91c0-2.9,2.38-5.28,5.28-5.28s5.28,2.38,5.28,5.28v12.91h-10.56Z"/>
          <path class="cls-4" d="m113.97,63.79c2.68,0,4.87,2.18,4.87,4.87v12.5h-9.73v-12.5c0-2.68,2.18-4.87,4.87-4.87m0-.83h0c-3.15,0-5.7,2.54-5.7,5.7v13.33h11.39v-13.33c0-3.12-2.54-5.7-5.7-5.7h0Z"/>
        </g>
      </g>
      <g>
        <g>
          <path class="cls-7" d="m10.53,81.59v-12.91c0-2.9,2.38-5.28,5.28-5.28s5.28,2.38,5.28,5.28v12.91h-10.56Z"/>
          <path class="cls-4" d="m15.82,63.79c2.68,0,4.87,2.18,4.87,4.87v12.5h-9.73v-12.5c0-2.68,2.18-4.87,4.87-4.87m0-.83h0c-3.15,0-5.7,2.54-5.7,5.7v13.33h11.39v-13.33c0-3.12-2.54-5.7-5.7-5.7h0Z"/>
        </g>
        <g>
          <path class="cls-7" d="m29,81.59v-12.91c0-2.9,2.38-5.28,5.28-5.28s5.28,2.38,5.28,5.28v12.91h-10.56Z"/>
          <path class="cls-4" d="m34.29,63.79c2.68,0,4.87,2.18,4.87,4.87v12.5h-9.73v-12.5c0-2.68,2.18-4.87,4.87-4.87m0-.83h0c-3.15,0-5.7,2.54-5.7,5.7v13.33h11.39v-13.33c0-3.12-2.54-5.7-5.7-5.7h0Z"/>
        </g>
      </g>
      <g>
        <g>
          <g>
            <path class="cls-7" d="m87.26,50.18v-8.99c0-2.16,1.77-3.93,3.93-3.93s3.93,1.77,3.93,3.93v8.99h-7.85Z"/>
            <path class="cls-4" d="m91.19,37.69c1.94,0,3.51,1.58,3.51,3.51v8.57h-7.02v-8.57c0-1.94,1.58-3.51,3.51-3.51m0-.83h0c-2.41,0-4.34,1.94-4.34,4.34v9.4h8.68v-9.4c0-2.41-1.94-4.34-4.34-4.34h0Z"/>
          </g>
          <g>
            <path class="cls-7" d="m114.41,50.18v-8.99c0-2.16,1.77-3.93,3.93-3.93s3.93,1.77,3.93,3.93v8.99h-7.85Z"/>
            <path class="cls-4" d="m118.34,37.69c1.94,0,3.51,1.58,3.51,3.51v8.57h-7.02v-8.57c0-1.94,1.58-3.51,3.51-3.51m0-.83h0c-2.41,0-4.34,1.94-4.34,4.34v9.4h8.68v-9.4c0-2.41-1.94-4.34-4.34-4.34h0Z"/>
          </g>
          <g>
            <path class="cls-7" d="m100.84,50.18v-8.99c0-2.16,1.77-3.93,3.93-3.93s3.93,1.77,3.93,3.93v8.99h-7.85Z"/>
            <path class="cls-4" d="m104.76,37.69c1.94,0,3.51,1.58,3.51,3.51v8.57h-7.02v-8.57c0-1.94,1.58-3.51,3.51-3.51m0-.83h0c-2.41,0-4.34,1.94-4.34,4.34v9.4h8.68v-9.4c0-2.41-1.94-4.34-4.34-4.34h0Z"/>
          </g>
        </g>
        <rect class="cls-3" x="86.85" y="51.04" width="8.68" height=".11"/>
        <rect class="cls-3" x="100.42" y="51.04" width="8.68" height=".11"/>
        <rect class="cls-3" x="114" y="51.04" width="8.68" height=".11"/>
      </g>
      <g>
        <g>
          <g>
            <path class="cls-7" d="m7.52,50.18v-8.99c0-2.16,1.77-3.93,3.93-3.93s3.93,1.77,3.93,3.93v8.99h-7.85Z"/>
            <path class="cls-4" d="m11.45,37.69c1.94,0,3.51,1.58,3.51,3.51v8.57h-7.02v-8.57c0-1.94,1.58-3.51,3.51-3.51m0-.83h0c-2.41,0-4.34,1.94-4.34,4.34v9.4h8.68v-9.4c0-2.41-1.94-4.34-4.34-4.34h0Z"/>
          </g>
          <g>
            <path class="cls-7" d="m34.67,50.18v-8.99c0-2.16,1.77-3.93,3.93-3.93s3.93,1.77,3.93,3.93v8.99h-7.85Z"/>
            <path class="cls-4" d="m38.6,37.69c1.94,0,3.51,1.58,3.51,3.51v8.57h-7.02v-8.57c0-1.94,1.58-3.51,3.51-3.51m0-.83h0c-2.41,0-4.34,1.94-4.34,4.34v9.4h8.68v-9.4c.03-2.41-1.94-4.34-4.34-4.34h0Z"/>
          </g>
          <g>
            <path class="cls-7" d="m21.1,50.18v-8.99c0-2.16,1.77-3.93,3.93-3.93s3.93,1.77,3.93,3.93v8.99h-7.85Z"/>
            <path class="cls-4" d="m25.02,37.69c1.94,0,3.51,1.58,3.51,3.51v8.57h-7.02v-8.57c0-1.94,1.58-3.51,3.51-3.51m0-.83h0c-2.41,0-4.34,1.94-4.34,4.34v9.4h8.68v-9.4c0-2.41-1.94-4.34-4.34-4.34h0Z"/>
          </g>
        </g>
        <rect class="cls-3" x="7.11" y="51.04" width="8.68" height=".11"/>
        <rect class="cls-3" x="20.68" y="51.04" width="8.68" height=".11"/>
        <rect class="cls-3" x="34.26" y="51.04" width="8.68" height=".11"/>
      </g>
      <rect class="cls-3" x="57.29" y="41" width="15.46" height=".11"/>
    </g>
  </g>
</svg>