<?xml version="1.0" encoding="UTF-8"?>
<svg id="Calque_2" data-name="Calque 2" xmlns="http://www.w3.org/2000/svg" viewBox="0 0 102.1 50.01">
  <defs>
    <style>
      .cls-1 {
        fill: none;
        stroke: #e8629f;
        stroke-miterlimit: 10;
        stroke-width: .83px;
      }

      .cls-2 {
        fill: #e8629f;
      }

      .cls-3 {
        fill: #fcbe1b;
      }

      .cls-4, .cls-5 {
        fill: #261923;
      }

      .cls-5 {
        fill-rule: evenodd;
      }
    </style>
  </defs>
  <g id="Calque_1-2" data-name="Calque 1">
    <g>
      <rect class="cls-3" x="35.63" y="9.31" width="32.43" height="40.66"/>
      <rect class="cls-3" x="59.66" width="3.7" height="3.7"/>
      <polygon class="cls-2" points="63.94 3.7 51.84 3.7 39.74 3.7 33.88 9.31 51.84 9.31 69.76 9.31 63.94 3.7"/>
      <rect class="cls-3" x="1.58" y="29.52" width="34.05" height="20.49"/>
      <polygon class="cls-2" points="35.63 19.62 5.24 19.62 0 29.52 35.63 29.52 35.63 19.62"/>
      <g>
        <g>
          <path class="cls-5" d="m6.65,49.59v-11.43c0-2.83,2.29-5.11,5.11-5.11s5.11,2.29,5.11,5.11v11.39H6.65v.04Z"/>
          <path class="cls-2" d="m11.76,33.47c2.58,0,4.7,2.12,4.7,4.7v10.97H7.07v-10.97c0-2.58,2.08-4.7,4.7-4.7m0-.83h0c-3.08,0-5.53,2.49-5.53,5.53v11.81h11.06v-11.81c0-3.03-2.49-5.53-5.53-5.53h0Z"/>
        </g>
        <g>
          <path class="cls-5" d="m20.83,49.59v-11.43c0-2.83,2.29-5.11,5.11-5.11s5.11,2.29,5.11,5.11v11.39h-10.23v.04Z"/>
          <path class="cls-2" d="m25.98,33.47c2.58,0,4.7,2.12,4.7,4.7v10.97h-9.44v-10.97c0-2.58,2.12-4.7,4.74-4.7m-.04-.83h0c-3.08,0-5.53,2.49-5.53,5.53v11.81h11.06v-11.81c0-3.03-2.45-5.53-5.53-5.53h0Z"/>
        </g>
      </g>
      <rect class="cls-3" x="68.05" y="29.52" width="34.05" height="20.49"/>
      <rect class="cls-2" x="68.05" y="24.98" width="34.05" height="4.49"/>
      <g>
        <g>
          <rect class="cls-4" x="86.8" y="33.05" width="10.23" height="16.5"/>
          <path class="cls-2" d="m96.61,33.47v15.67h-9.4v-15.67h9.4m.83-.83h-11.06v17.34h11.06v-17.34h0Z"/>
        </g>
        <g>
          <rect class="cls-4" x="72.58" y="33.05" width="10.23" height="16.5"/>
          <path class="cls-2" d="m82.4,33.47v15.67h-9.4v-15.67h9.4m.83-.83h-11.06v17.34h11.06v-17.34h0Z"/>
        </g>
      </g>
      <g>
        <rect class="cls-4" x="42.11" y="33.05" width="19.46" height="16.5"/>
        <path class="cls-2" d="m61.15,33.47v15.67h-18.62v-15.67h18.62m.83-.83h-20.29v17.34h20.29v-17.34h0Z"/>
      </g>
      <g>
        <path class="cls-5" d="m42.11,29.1v-5.99c0-5.36,4.37-9.73,9.73-9.73s9.73,4.37,9.73,9.73v5.99h-19.46Z"/>
        <path class="cls-2" d="m51.84,13.8c5.15,0,9.31,4.16,9.31,9.31v5.57h-18.62v-5.57c0-5.15,4.16-9.31,9.31-9.31m0-.83h0c-5.61,0-10.14,4.53-10.14,10.14v6.4h20.29v-6.4c0-5.61-4.57-10.14-10.14-10.14h0Z"/>
      </g>
      <line class="cls-1" x1="51.84" y1="32.63" x2="51.84" y2="50.01"/>
    </g>
  </g>
</svg>