<?xml version="1.0" encoding="UTF-8"?>
<svg id="Calque_2" data-name="Calque 2" xmlns="http://www.w3.org/2000/svg" viewBox="0 0 100 100">
  <defs>
    <style>
      .cls-1 {
        fill: #9c936d;
      }
    </style>
  </defs>
  <g id="Calque_1-2" data-name="Calque 1">
    <circle class="cls-1" cx="50" cy="50" r="50"/>
    <path d="m49.98,41.5c-13.81,0-16.56,12.59-16.56,19.15h0c-3.37,1.13-6.53,2.79-9.38,4.92-4.81,3.65-5.78,10.49-2.2,15.34,3.76,4.71,10.53,5.68,15.45,2.2,3.74-2.54,8.18-3.86,12.7-3.81,4.51-.05,8.96,1.27,12.7,3.81,4.73,3.79,11.64,3.05,15.45-1.66,3.81-4.5,3.25-11.22-1.25-15.01-.14-.11-.26-.23-.41-.34l-.55-.55c-2.95-1.98-6.08-3.62-9.38-4.92h0c0-6.51-2.75-19.15-16.56-19.15Z"/>
    <path d="m20.07,32.12c-4.06,2.03-5.87,6.83-4.2,11.04.35,4.57,4.3,8.01,8.89,7.72,4.06-2.03,5.87-6.83,4.2-11.04-.35-4.57-4.32-8.02-8.89-7.72Z"/>
    <path d="m79.96,32.12c4.06,2.03,5.87,6.83,4.2,11.04-.35,4.57-4.3,8.01-8.89,7.72-4.06-2.03-5.87-6.83-4.2-11.04.35-4.57,4.3-8.02,8.89-7.72Z"/>
    <path d="m36.63,15.54c-3.76.49-5.52,5.19-4.2,10.32.6,4.55,4.3,8.08,8.89,8.45,3.76-.49,5.52-5.19,4.2-10.32-.62-4.55-4.32-8.06-8.89-8.45Z"/>
    <path d="m63.4,15.54c3.76.49,5.52,5.19,4.2,10.32-.62,4.57-4.34,8.1-8.94,8.45-3.76-.44-5.52-5.19-4.2-10.32.6-4.57,4.34-8.1,8.94-8.45Z"/>
  </g>
</svg>