<?xml version="1.0" encoding="UTF-8"?>
<svg id="Calque_2" data-name="Calque 2" xmlns="http://www.w3.org/2000/svg" viewBox="0 0 100 100">
  <defs>
    <style>
      .cls-1 {
        fill: #e8629f;
      }
    </style>
  </defs>
  <g id="Calque_1-2" data-name="Calque 1">
    <circle class="cls-1" cx="50" cy="50" r="50"/>
    <path d="m71.68,51.52c-3.63-3.07-9.29-5.2-16.98-6.4l-.69-.12v-20.97c2.45.14,4.96.49,7.53,1.06,3.47.76,7.16,1.9,11.06,3.46v-8.31c-3.88-1.08-7.67-1.87-11.38-2.4-2.43-.35-4.85-.58-7.21-.71v-4.96h-8.98v5.11c-5.86.55-10.63,2.08-14.34,4.57-4.73,3.21-7.09,7.58-7.09,13.16,0,4.8,1.71,8.55,5.15,11.25,3.37,2.65,8.8,4.6,16.28,5.87v23.17c-2.91-.19-5.86-.65-8.84-1.38-4-.99-8.11-2.45-12.29-4.39v8.77c4.36,1.32,8.55,2.31,12.59,3,2.96.49,5.8.79,8.52.93v4.9h8.98v-5.06c6.65-.55,11.89-2.05,15.73-4.5,4.96-3.16,7.44-7.78,7.44-13.86.02-5.1-1.82-9.17-5.49-12.2h0Zm-34.73-10.88c-2.01-1.43-3.02-3.54-3.02-6.33,0-3.32,1.52-5.87,4.53-7.67,1.76-1.04,3.93-1.76,6.54-2.2v19.01c-3.79-.78-6.47-1.71-8.06-2.8h0Zm24.67,31.9c-2.01,1.2-4.55,2.03-7.62,2.47v-21.38c4.04.85,7.02,2.01,8.96,3.49,2.31,1.75,3.47,4.16,3.47,7.25-.02,3.53-1.62,6.26-4.81,8.17Z"/>
  </g>
</svg>