<?xml version="1.0" encoding="UTF-8"?>
<svg id="Calque_2" data-name="Calque 2" xmlns="http://www.w3.org/2000/svg" viewBox="0 0 100 100">
  <defs>
    <style>
      .cls-1 {
        fill: #9c936d;
      }
    </style>
  </defs>
  <g id="Calque_1-2" data-name="Calque 1">
    <circle class="cls-1" cx="50" cy="50" r="50"/>
    <g>
      <path d="m20.86,26.23c-4.76,5.82-7.8,13.09-8.36,21.04h18.77c-.71-8.34-4.59-15.75-10.41-21.04Z"/>
      <path d="m12.5,52.73c.56,7.95,3.6,15.22,8.36,21.04,5.84-5.29,9.7-12.7,10.41-21.04H12.5Z"/>
      <path d="m75.36,22.24c-6.07-5.56-13.93-9.12-22.65-9.75v34.78h10.51c.72-9.89,5.26-18.73,12.13-25.03Z"/>
      <path d="m87.5,47.27c-.58-7.95-3.6-15.22-8.36-21.04-5.84,5.31-9.7,12.72-10.41,21.04h18.77Z"/>
      <path d="m36.75,47.27h10.51V12.5c-8.71.62-16.58,4.2-22.65,9.75,6.88,6.28,11.41,15.11,12.13,25.01Z"/>
      <path d="m79.12,73.77c4.76-5.82,7.8-13.09,8.36-21.04h-18.75c.69,8.32,4.57,15.73,10.39,21.04Z"/>
      <path d="m24.62,77.74c6.07,5.56,13.93,9.12,22.65,9.75v-34.76h-10.51c-.72,9.88-5.26,18.71-12.13,25.01Z"/>
      <path d="m63.23,52.73h-10.49v34.76c8.71-.63,16.58-4.2,22.65-9.75-6.9-6.3-11.43-15.13-12.15-25.01Z"/>
    </g>
  </g>
</svg>