<?xml version="1.0" encoding="UTF-8"?>
<svg id="Calque_2" data-name="Calque 2" xmlns="http://www.w3.org/2000/svg" viewBox="0 0 100 100">
  <defs>
    <style>
      .cls-1 {
        fill: #9c936d;
      }
    </style>
  </defs>
  <g id="Calque_1-2" data-name="Calque 1">
    <circle class="cls-1" cx="50" cy="50" r="50"/>
    <g>
      <path d="m74.62,18.68c-.19-.12-.46-.14-.67-.04-.05.02-5.17,2.56-9.47,2.56-2.22,0-4.51-.9-6.72-1.76-2.13-.83-4.14-1.62-6.07-1.62s-4.41.81-7.04,1.66c-2.57.85-5.24,1.71-7.25,1.71-3.26,0-7.64-2.33-8.99-3.09-.04-.35-.32-.62-.69-.62h-2.01c-.37,0-.69.3-.69.69v63.62c0,.39.3.69.69.69h2.01c.37,0,.69-.3.69-.69v-27.39c.85.76,1.96,1.38,2.79,1.78,2.17,1.06,4.62,1.75,6.21,1.75,2.22,0,4.99-.9,7.69-1.78,2.5-.83,4.89-1.6,6.6-1.6s3.56.74,5.56,1.53c2.33.92,4.73,1.85,7.21,1.85,4.62,0,9.86-2.59,10.09-2.7.23-.12.39-.35.39-.62V19.26c0-.23-.12-.46-.32-.58h0Zm-10.14,37.87c-.67,0-1.34-.09-2.01-.21v-10.65c0-.16-.11-.3-.26-.34-1.53-.34-3.07-.93-4.57-1.52-2.1-.83-4.07-1.59-5.94-1.59-.25,0-.49.02-.69.04-.18.02-.32.16-.32.34v10.62c-1.76.21-3.84.88-6.03,1.6-1.96.63-3.95,1.29-5.7,1.57v-10.55c0-.11-.04-.19-.12-.26s-.18-.09-.26-.09c-.49.07-.86.09-1.18.09-3.16,0-7.3-2.1-8.91-3l-.07-10.92v-1.83c.83.83,2.06,1.52,2.95,1.94,2.13,1.04,4.5,1.71,6.05,1.71.44,0,.92-.05,1.27-.09.18-.02.3-.18.3-.34v-10.62c1.89-.28,4.04-.97,6.12-1.66,2.05-.67,4-1.31,5.61-1.52v10.55c0,.09.04.19.11.25.07.07.16.09.26.09.18-.02.41-.04.63-.04,1.73,0,3.65.76,5.7,1.55,1.52.58,3.07,1.2,4.67,1.55h.07c.07,0,.16-.02.21-.07.09-.07.12-.16.12-.26v-10.49c.67.12,1.32.19,2.01.19,3.47,0,7.32-1.46,9.08-2.24v10.9c-1.27.6-5.36,2.35-9.08,2.35-.49,0-1.01-.04-1.55-.12-.11-.02-.19.02-.28.07-.07.07-.12.16-.12.26v11.27c0,.18.12.32.28.34.56.09,1.13.14,1.66.14,3.6,0,7.53-1.57,9.08-2.28v10.9c-1.25.56-5.47,2.36-9.08,2.36h0Z"/>
      <path d="m50.34,30.32c-1.66.25-3.54.86-5.56,1.53-1.89.62-3.83,1.25-5.54,1.55-.16.04-.28.18-.28.34v11.27c0,.11.05.19.12.26.07.05.14.09.23.09h.05c1.76-.3,3.72-.95,5.63-1.57,1.98-.65,3.86-1.25,5.45-1.5.18-.02.3-.18.3-.34v-11.27c0-.11-.04-.19-.12-.26-.09-.09-.18-.12-.28-.11Z"/>
    </g>
  </g>
</svg>