<?xml version="1.0" encoding="UTF-8"?>
<svg id="Calque_2" data-name="Calque 2" xmlns="http://www.w3.org/2000/svg" viewBox="0 0 100 100">
  <defs>
    <style>
      .cls-1 {
        fill: #e8629f;
      }
    </style>
  </defs>
  <g id="Calque_1-2" data-name="Calque 1">
    <circle class="cls-1" cx="50" cy="50" r="50"/>
    <path d="m74.62,18.68c-.19-.12-.46-.14-.67-.04,0,0-5.22,2.56-9.47,2.56-2.08,0-4.27-.79-6.42-1.64-2.15-.85-4.27-1.73-6.37-1.73s-4.64.88-7.21,1.73-5.19,1.66-7.07,1.66-4.27-.81-6.16-1.66c-1.25-.56-2.29-1.13-2.84-1.43-.04-.34-.35-.62-.69-.62h-2.01c-.35,0-.69.34-.69.69v63.62c0,.35.34.69.69.69h2.01c.35,0,.69-.34.69-.69v-27.41s.05.04.07.07c.72.62,1.66,1.2,2.7,1.69,2.08,1.01,4.46,1.75,6.23,1.75,2.26,0,4.9-.88,7.5-1.73,2.59-.85,5.11-1.66,6.79-1.66s3.69.79,5.86,1.64c2.17.85,4.5,1.73,6.93,1.73,4.78,0,10.09-2.7,10.09-2.7.23-.11.37-.35.39-.62V19.26c-.02-.23-.14-.46-.34-.58h0Z"/>
  </g>
</svg>