<?xml version="1.0" encoding="UTF-8"?>
<svg id="Calque_2" data-name="Calque 2" xmlns="http://www.w3.org/2000/svg" viewBox="0 0 100 100">
  <defs>
    <style>
      .cls-1 {
        fill: #e8629f;
      }
    </style>
  </defs>
  <g id="Calque_1-2" data-name="Calque 1">
    <circle class="cls-1" cx="50" cy="50" r="50"/>
    <g>
      <g>
        <path d="m76.05,23.39l-1.15-5.89c-14.69,20.51-32.68,38.15-45.1,49.14l-1.18-1.32c-.25-.26-.65-.28-.92-.05l-.39.35c-.26.25-.28.65-.05.92l1.16,1.31c-7.51,6.6-12.7,10.48-13.37,10.74l3.21,3.92c4.37-2.91,9.01-6.61,13.7-10.74l.83.92c.25.26.65.28.92.05l.39-.35c.26-.25.28-.65.05-.92l-.83-.9c22.36-20.04,45.04-48.91,42.72-47.16Z"/>
        <path d="m15.06,78.57l-.04-.05c-.05.07-.04.09.04.05Z"/>
      </g>
      <g>
        <path d="m25.08,17.5c7.16,10,15.11,19.33,22.82,27.53l-3.32,3.42c-12.89-14.11-22.19-26.21-20.65-25.06l1.15-5.89Z"/>
        <path d="m84.92,78.57l-3.21,3.92c-4.37-2.91-9.01-6.61-13.7-10.74l-.83.93c-.25.26-.65.28-.92.05l-.39-.35c-.26-.25-.28-.65-.05-.92l.83-.92c-4.99-4.48-10-9.38-14.73-14.3l3.44-3.56c5.38,5.36,10.44,10.07,14.81,13.93l1.18-1.32c.25-.26.65-.28.92-.05l.39.35c.26.25.28.65.05.92l-1.16,1.31c7.51,6.61,12.72,10.49,13.37,10.76h0Z"/>
        <path d="m84.92,78.57l.04-.05c.05.07.04.09-.04.05Z"/>
      </g>
    </g>
  </g>
</svg>