<?xml version="1.0" encoding="UTF-8"?>
<svg id="Calque_2" data-name="Calque 2" xmlns="http://www.w3.org/2000/svg" viewBox="0 0 100 100">
  <defs>
    <style>
      .cls-1 {
        fill: #9c936d;
      }
    </style>
  </defs>
  <g id="Calque_1-2" data-name="Calque 1">
    <circle class="cls-1" cx="50" cy="50" r="50"/>
    <path d="m66.19,53.05c-.37-1.64-.9-3.21-1.59-4.71,15.84-10.97,5.03-15.94,16.77-30.86-18.75,11.36-12.42,18.08-17,30.41-.85-1.75-1.89-3.35-3.1-4.83.58-6.16.65-11.75,6.17-19.24-7.35,4.2-10.23,8.91-13.26,13.42-1.06-.58-2.13-1.06-3.26-1.46,1.38-6.01,2.12-11.32,1.45-15.1-2.66,7.9-12.43,10.83-18.75,14.8-1.06.67-2.03,1.36-2.91,2.06-7.21,4.16-12.08,11.94-12.08,20.9,0,13.3,10.78,24.09,24.09,24.09,7.2,0,13.65-3.16,18.06-8.15,7.21-3.76,14.2-11.41,17.44-32.4-5.17,6.6-8.85,9.44-12.03,11.08Z"/>
  </g>
</svg>