<?xml version="1.0" encoding="UTF-8"?>
<svg id="Calque_2" data-name="Calque 2" xmlns="http://www.w3.org/2000/svg" viewBox="0 0 100 100">
  <defs>
    <style>
      .cls-1 {
        fill: #e8629f;
      }
    </style>
  </defs>
  <g id="Calque_1-2" data-name="Calque 1">
    <circle class="cls-1" cx="50" cy="50" r="50"/>
    <g>
      <path d="m62.63,55.15l-3.47-1.94-4.97-6.01c-.69-.81-1.66-1.32-2.91-1.52-2.19-.32-3.83.44-4.92,2.31l-5.52,9.52c-.37.6-.53,1.36-.49,2.24l.18,12.08-4.18,8.98c-.16.37-.26.67-.3.92-.12.78.04,1.45.48,2.03s1.06.93,1.82,1.06c1.29.19,2.2-.25,2.73-1.34l4.62-9.82c.16-.37.25-.74.25-1.15l-.05-7.46,4.67,6.31,1.36,11.11c.16,1.22.9,1.92,2.19,2.12.88.12,1.68-.12,2.33-.76.67-.63.93-1.39.81-2.28l-1.6-12.63c-.16-.93-.72-1.5-1.27-2.24l-4.14-5.78,4-6.98,1.99,2.54c.16.25.41.42.72.55l3.99,1.94v23.49c0,.46.37.85.85.85s.85-.37.85-.85v-23.21c.3-.11.58-.3.83-.56.41-.44.6-.95.6-1.52.04-1.01-.44-1.68-1.41-1.99h0Z"/>
      <path d="m37.97,56.67c.69.41,1.22.26,1.57-.42l6.07-10.44c.41-.69.26-1.22-.42-1.57l-1.94-1.15c-.69-.41-1.22-.26-1.57.42l-6.07,10.44c-.41.69-.26,1.22.42,1.57l1.94,1.15Z"/>
      <path d="m53.76,45.13c1.09,0,2.05-.39,2.86-1.18s1.22-1.75,1.22-2.87-.41-2.05-1.22-2.86c-.81-.81-1.76-1.22-2.86-1.22s-2.1.41-2.87,1.22c-.79.81-1.18,1.76-1.18,2.86s.39,2.1,1.18,2.87c.78.79,1.75,1.18,2.87,1.18Z"/>
      <path d="m84.97,34.27c-.07-.46-.35-.86-.78-1.09L50.71,15.31c-.44-.23-.97-.23-1.41,0L15.78,33.17c-.42.23-.71.63-.78,1.09-.07.48.09.95.42,1.29l2.24,2.24c.42.42,1.06.55,1.62.34l2.5-1.01v37.51c0,.9.74,1.64,1.64,1.64h4.18c.9,0,1.64-.74,1.64-1.64v-40.23c0-.11-.02-.21-.04-.3l1.02-.41,19.74-2.33,19.7,2.36.72.28c-.04.12-.05.26-.05.39v40.23c0,.9.74,1.64,1.64,1.64h4.18c.9,0,1.64-.74,1.64-1.64v-37.64l2.87,1.16c.18.07.37.11.56.11.39,0,.78-.16,1.08-.44l2.24-2.29c.32-.34.48-.81.41-1.27h0Z"/>
    </g>
  </g>
</svg>