<?xml version="1.0" encoding="UTF-8"?>
<svg id="Calque_2" data-name="Calque 2" xmlns="http://www.w3.org/2000/svg" viewBox="0 0 100 100">
  <defs>
    <style>
      .cls-1 {
        fill: #e8629f;
      }
    </style>
  </defs>
  <g id="Calque_1-2" data-name="Calque 1">
    <circle class="cls-1" cx="50" cy="50" r="50"/>
    <g>
      <path d="m64.14,42.5l6.07,5.59-6.07,28.75c-2.57,8.75,12.28,12.57,12.28.62V14.99c-6.54,0-12.28,15.24-12.28,27.51Z"/>
      <path d="m46.05,15.66h-.62v13c0,1.41-1.2,2.59-2.59,2.59s-2.45-1.2-2.45-2.59v-13h-5.8v13c0,1.41-1.04,2.59-2.45,2.59s-2.59-1.2-2.59-2.59v-13h-.62c-2.93,0-5.34,2.42-5.34,5.34v15.45c0,2.93,2.42,5.34,5.34,5.34h3.69l-3.23,35.03c0,4.13,3.37,7.5,7.5,7.5h1.22c4.13,0,7.5-3.37,7.5-7.5l-3.53-35.03h3.99c2.93,0,5.36-2.42,5.36-5.34v-15.45c0-2.93-2.42-5.34-5.36-5.34h0Z"/>
    </g>
  </g>
</svg>