<?xml version="1.0" encoding="UTF-8"?>
<svg id="Calque_2" data-name="Calque 2" xmlns="http://www.w3.org/2000/svg" viewBox="0 0 100 100">
  <defs>
    <style>
      .cls-1 {
        fill: #e8629f;
      }
    </style>
  </defs>
  <g id="Calque_1-2" data-name="Calque 1">
    <circle class="cls-1" cx="50" cy="50" r="50"/>
    <path d="m82.49,53.56v14.44c0,1.99-1.62,3.62-3.62,3.62s-3.62-1.62-3.62-3.62h0c-.41-1.82-1.85-3.23-3.69-3.62h-3.54v11.76c0,1.48-1.2,2.66-2.66,2.66H20.18c-1.48,0-2.66-1.2-2.66-2.66v-23.53c0-1.48,1.2-2.66,2.66-2.66h45.2c1.48,0,2.66,1.2,2.66,2.66v4.55h3.54c1.83-.37,3.26-1.78,3.69-3.62,0-1.99,1.62-3.62,3.62-3.62,1.98,0,3.6,1.62,3.6,3.62ZM28.32,28.29c-5.98,0-10.83,4.85-10.83,10.83s4.85,10.83,10.83,10.83,10.83-4.85,10.83-10.83-4.85-10.83-10.83-10.83Zm0,14.44c-1.99,0-3.62-1.62-3.62-3.62s1.62-3.62,3.62-3.62,3.62,1.62,3.62,3.62-1.62,3.62-3.62,3.62Zm25.27-21.68c-7.97,0-14.44,6.47-14.44,14.44s6.47,14.44,14.44,14.44,14.44-6.47,14.44-14.44-6.46-14.44-14.44-14.44Zm0,21.68c-3.99,0-7.21-3.23-7.21-7.21s3.23-7.21,7.21-7.21,7.21,3.23,7.21,7.21-3.21,7.21-7.21,7.21Z"/>
  </g>
</svg>