<?xml version="1.0" encoding="UTF-8"?>
<svg id="Calque_2" data-name="Calque 2" xmlns="http://www.w3.org/2000/svg" viewBox="0 0 100 100">
  <defs>
    <style>
      .cls-1 {
        fill: #e8629f;
      }
    </style>
  </defs>
  <g id="Calque_1-2" data-name="Calque 1">
    <circle class="cls-1" cx="50" cy="50" r="50"/>
    <path d="m84.51,43.76c-.41-.51-1.04-.81-1.69-.81h-29.24l7.34-19.7c.14-.39.12-.79-.04-1.16-.18-.37-.48-.65-.86-.79l-2.4-.9c-.79-.3-1.68.11-1.98.9l-8.06,21.66h-30.42c-.65,0-1.29.3-1.69.81-.41.51-.56,1.2-.41,1.83l7.6,32.43c.23.97,1.09,1.66,2.1,1.66h.02l50.46-.23c1.01,0,1.87-.69,2.08-1.66l7.6-32.22c.16-.62.02-1.29-.41-1.82h0Zm-29.28,3.51v8.41h-11.08v-8.41h11.08Zm0,11.29v9.24h-11.08v-9.24h11.08Zm-13.95-2.87h-10.46v-8.41h10.46v8.41Zm0,2.87v9.24h-10.46v-9.24h10.46Zm0,12.1v4.66l-10.46.05v-4.69h10.46v-.02Zm2.87,0h11.08v4.59l-11.08.05v-4.64h0Zm13.95,0h10.76v4.53l-10.76.05v-4.59Zm0-2.87v-9.22h10.76v9.24h-10.76v-.02Zm0-12.1v-8.41h10.76v8.41h-10.76Zm-30.16-8.41v8.41h-4.94c-.42,0-.79.18-1.06.46l-2.08-8.87h8.08Zm-5.45,11.18c.16.05.34.09.51.09h4.94v9.24h-2.2c-.37,0-.71.14-.97.37l-2.28-9.7Zm2.84,12.15c.12.04.25.05.39.05h2.2v4.71h-1.48l-1.11-4.76Zm46.4,4.57v-4.51h2.82l-1.06,4.51h-1.76Zm3.51-7.39h-3.51v-9.22h5.7l-2.19,9.22Zm2.86-12.1c-.05,0-.11-.02-.16-.02h-6.19v-8.4h8.36l-2.01,8.41Z"/>
  </g>
</svg>