<?xml version="1.0" encoding="UTF-8"?>
<svg id="Calque_2" data-name="Calque 2" xmlns="http://www.w3.org/2000/svg" viewBox="0 0 100 100">
  <defs>
    <style>
      .cls-1 {
        fill: #e8629f;
      }

      .cls-2 {
        isolation: isolate;
        opacity: .5;
      }
    </style>
  </defs>
  <g id="Calque_1-2" data-name="Calque 1">
    <circle class="cls-1" cx="50" cy="50" r="50"/>
    <g>
      <path class="cls-2" d="m35.84,83.95l7.51-44.23,7.09-4.23,6.93,4.36s6.35,44.83,5.61,44.48c-.74-.37-26.98.18-27.14-.37Z"/>
      <path d="m80.44,66.44l-24.23-20.74,24.23-20.74c.35-.3.56-.76.58-1.23.02-.48-.18-.93-.53-1.25l-8.22-7.69c-.35-.32-.81-.49-1.29-.44-.48.05-.9.28-1.18.67l-19.4,26.46L31.01,15.01c-.28-.39-.71-.63-1.18-.67-.48-.05-.95.12-1.29.44l-8.22,7.69c-.35.32-.53.78-.53,1.25.02.48.23.92.58,1.23l24.23,20.74-24.25,20.74c-.35.3-.56.76-.58,1.23s.18.93.53,1.25l8.22,7.69c.32.28.72.44,1.15.44h.16c.48-.05.9-.28,1.18-.67l19.4-26.46,19.4,26.46c.28.39.71.63,1.18.67h.16c.42,0,.83-.16,1.15-.44l8.22-7.69c.35-.32.53-.78.53-1.25-.04-.48-.25-.93-.6-1.23h0Zm-31.09-20.74l1.06-1.02,1.06,1.02-1.06,1.02-1.06-1.02Z"/>
    </g>
  </g>
</svg>