<?xml version="1.0" encoding="UTF-8"?>
<svg id="Calque_2" data-name="Calque 2" xmlns="http://www.w3.org/2000/svg" viewBox="0 0 100 100">
  <defs>
    <style>
      .cls-1 {
        fill: none;
      }

      .cls-2 {
        fill: #e8629f;
      }
    </style>
  </defs>
  <g id="Calque_1-2" data-name="Calque 1">
    <circle class="cls-2" cx="50" cy="50" r="50"/>
    <rect class="cls-1" x="48.32" y="48.32" width="3.35" height="3.35"/>
    <path d="m34.83,17.5c-5.91,0-13,3.23-13,11.9v40.09s0,4.34,4.34,4.34v4.34s0,4.34,4.34,4.34,4.34-4.34,4.34-4.34v-4.34h30.34v4.34s0,4.34,4.34,4.34,4.34-4.34,4.34-4.34v-4.34s4.34,0,4.34-4.34V29.4c0-8.87-5.36-11.9-11.27-11.9h-32.1Zm1.08,6.51h28.17c.6,0,1.08.48,1.08,1.08s-.48,1.08-1.08,1.08h-28.17c-.6,0-1.08-.48-1.08-1.08s.48-1.08,1.08-1.08Zm-5.41,6.49h38.99c4.34,0,4.34,4.2,4.34,4.2v13.14s0,4.34-4.34,4.34H30.49c-4.34,0-4.34-4.34-4.34-4.34v-13s0-4.34,4.34-4.34Zm0,30.34c2.4,0,4.34,1.94,4.34,4.34s-1.94,4.34-4.34,4.34-4.34-1.94-4.34-4.34,1.94-4.34,4.34-4.34Zm38.99,0c2.4,0,4.34,1.94,4.34,4.34s-1.94,4.32-4.34,4.32-4.34-1.94-4.34-4.34,1.94-4.32,4.34-4.32Z"/>
  </g>
</svg>