<?xml version="1.0" encoding="UTF-8"?>
<svg id="Calque_2" data-name="Calque 2" xmlns="http://www.w3.org/2000/svg" viewBox="0 0 100 98.06">
  <defs>
    <style>
      .cls-1 {
        fill: #e86936;
      }

      .cls-2 {
        fill: #fcbe19;
      }

      .cls-3 {
        fill: #e6629f;
      }

      .cls-4 {
        fill: #1d1d1b;
        font-family: Helvetica-Bold, Helvetica;
        font-size: 45.36px;
        font-weight: 700;
        isolation: isolate;
      }
    </style>
  </defs>
  <g id="Calque_1-2" data-name="Calque 1">
    <path class="cls-2" d="m99.3,28.72v-.07c-1.36-9.51-5.24-18.89-11.22-27.15l-1.08-1.5-1.8.49c-6.53,1.76-12.37,2.63-17.82,2.63-3.49,0-6.86-.37-10-1.09l-.25-.05c-2.12-.51-4.3-1.04-6.44-1.61l-.74-.19-.74.23c-5.94,1.82-11.77,2.73-17.34,2.73-3,0-5.93-.26-8.73-.81-3.25-.67-5.93-1.27-8.47-1.85l-1.73-.41-1.02,1.43c-3.67,5.08-6.56,10.6-8.57,16.46C1.28,23.95.18,30.09.08,36.23c-.74,13.99,3.83,28.61,12.54,40.16,9.38,12.42,22.63,20.11,37.25,21.63l.34.04.32-.05c4.87-.69,10.32-2.73,15.79-5.91,5.4-3.12,10.71-7.3,15.36-12.08,5.01-5.12,9.1-10.71,12.19-16.6,3.4-6.51,5.38-13.09,5.89-19.58.55-5.27.07-10.6-.46-15.12h0Z"/>
    <path class="cls-3" d="m50.46,93.22c23.62-4.62,46.18-31.01,44.98-56.87-.18-4.3-.62-8.63-1.73-12.81H6.3c-1.75,6.93-2.26,14.25-1.39,21.34,2.8,24.11,20.94,46.8,45.54,48.33h0Z"/>
    <path class="cls-1" d="m35.11,21.59H6.96l.35-1.22c1.41-5.06,3.81-9.81,6.81-14.11l.79-1.16c2.73.83,5.54,1.36,8.34,1.99,8.48,1.39,17.29.62,25.49-1.91l1.25-.34c1.76.49,3.53.95,5.29,1.41,9.79,2.45,20.18,1.85,29.76-1.16,3.58,4.97,6.51,10.48,7.99,16.49h-57.93Z"/>
    <text class="cls-4" transform="translate(12.16 63.94)"><tspan x="0" y="0">163</tspan></text>
  </g>
</svg>