<?xml version="1.0" encoding="UTF-8"?>
<svg id="Calque_2" data-name="Calque 2" xmlns="http://www.w3.org/2000/svg" viewBox="0 0 100 100">
  <defs>
    <style>
      .cls-1 {
        fill: none;
        opacity: .42;
      }

      .cls-2 {
        fill: #e8629f;
      }

      .cls-3 {
        opacity: .45;
      }

      .cls-3, .cls-4 {
        isolation: isolate;
      }

      .cls-4 {
        opacity: .69;
      }
    </style>
  </defs>
  <g id="Calque_1-2" data-name="Calque 1">
    <circle class="cls-2" cx="50" cy="50" r="50"/>
    <g id="uuid-dd3243a0-080e-49f6-afc4-548eb5d31a5e">
      <g>
        <path d="m87.09,61.22c-1.41-5.78-6.21-9.84-11.76-10.62l-.16-.02c-.49-.07-.97-.09-1.45-.12-.25-.02-.48-.04-.72-.05-.12-.02-.25-.02-.35-.02l-.35-.04c-.23-.02-.48-.04-.71-.05-.23-.02-.48-.04-.71-.05-.23-.02-.48-.04-.71-.05l-.69-.07c-1.85-.16-3.67-.35-5.47-.62-3.6-.51-7.13-1.31-10.67-2.49-.46-.14-.88-.3-1.34-.46-.44-.16-.88-.34-1.32-.51-.23-.09-.46-.18-.67-.26-.23-.09-.46-.18-.67-.28-.21-.09-.46-.18-.67-.28-.21-.11-.44-.19-.67-.28-.9-.39-1.78-.83-2.7-1.27-.46-.23-.9-.46-1.34-.71-.23-.12-.46-.23-.67-.35-.23-.12-.46-.25-.67-.37-1.8-1.01-3.6-2.12-5.4-3.33-.23-.16-.46-.3-.67-.46l-.67-.46c-.46-.32-.88-.63-1.34-.95l-1.32-.95-.65-.46c-.11-.07-.21-.16-.32-.21-.05-.04-.11-.07-.16-.09-.02-.02-.05-.02-.07-.04h-.05v.04c-1.78-3.46-6.01-4.8-9.47-3.02-3.46,1.78-4.8,6.01-3.02,9.47l.02.05s.02.04.02.04l.02.05s.02.07.02.11l.04.18.07.34.14.62c.09.41.18.79.28,1.16.19.76.42,1.5.65,2.22.48,1.46,1.04,2.86,1.66,4.23,1.25,2.75,2.82,5.36,4.6,7.83.23.32.46.62.69.92.23.3.46.62.71.92.23.3.48.6.74.88.25.28.49.58.76.88.51.58,1.02,1.15,1.57,1.71.28.28.55.55.81.83l.85.81c1.13,1.06,2.33,2.08,3.58,3.05.62.48,1.25.95,1.9,1.41.65.44,1.31.9,1.98,1.32,2.68,1.71,5.52,3.17,8.48,4.36,1.48.6,3,1.13,4.51,1.57.76.23,1.53.44,2.31.63.39.09.78.18,1.16.26s.78.18,1.16.25c3.12.6,6.26.92,9.37.92l1.16-.02c.39-.02.78-.02,1.16-.05.78-.04,1.53-.09,2.31-.18.76-.07,1.52-.19,2.28-.3.76-.12,1.5-.28,2.24-.46,7.57-1.9,12.2-9.54,10.35-17.11h0Zm-13.56-6.47c-.21.02-.42.02-.63.04s-.42.02-.63.04l-1.25.05-1.29.04h-1.27c-.42,0-.85-.02-1.27-.02s-.85-.02-1.27-.05c-.42-.02-.85-.04-1.27-.07-3.4-.23-6.81-.81-10.11-1.78-3.28-.95-6.49-2.31-9.47-4l-.55-.32-.55-.34c-.37-.23-.72-.44-1.09-.67-.35-.23-.72-.46-1.08-.71s-.71-.48-1.04-.74c-.69-.49-1.36-1.02-2.03-1.55-.65-.55-1.31-1.09-1.9-1.69.78.34,1.55.71,2.31,1.06s1.52.71,2.29,1.06l1.15.51c.39.16.76.34,1.13.49l1.15.49.56.25c.19.07.39.16.58.25,3.05,1.29,6.12,2.38,9.29,3.32,3.16.92,6.35,1.66,9.61,2.28l1.22.23,1.23.23c.81.16,1.64.28,2.49.46l.62.11c.21.04.41.07.6.12.41.09.85.16,1.25.25.42.07.85.18,1.25.26.41.11.83.18,1.23.32-.42.04-.85.07-1.27.11h0Z"/>
        <path class="cls-3" d="m19.26,41.27c-.04-.09-.07-.16-.11-.25-.02-.05-.04-.09-.05-.14-.02-.07-.05-.16-.07-.23-.02-.05-.04-.11-.05-.16-.02-.07-.05-.16-.07-.23-.02-.05-.02-.09-.04-.14-.02-.09-.04-.16-.05-.25-.02-.04-.02-.09-.02-.12-.02-.12-.04-.25-.05-.37v-.05c-.02-.11-.02-.21-.04-.32v-.12c0-.09-.02-.16-.02-.25v-.51c0-.09.02-.16.02-.25,0-.04,0-.09.02-.12.02-.09.02-.19.04-.28,0-.02,0-.05.02-.09.02-.12.05-.25.07-.37v-.02c.02-.12.05-.23.09-.35.02-.04.02-.05.02-.09.02-.09.05-.18.09-.26.02-.04.02-.07.04-.11.04-.09.05-.18.09-.26.02-.04.02-.07.04-.09.04-.09.07-.18.12-.26,0-.02.02-.04.02-.05h0c.63-1.36,1.69-2.52,3.12-3.26.58-.3,1.18-.51,1.78-.63h0c2.63-.55,5.38.46,7.02,2.63.25.32.46.65.65,1.02v-.04h.04s.04.02.07.04c.05.02.09.05.16.09.11.07.19.14.32.21l.65.46,1.32.95c.46.32.88.63,1.34.95l.6.41c-1.62.65-4.41,1.11-8.06-1.02.09.07,2.96,2.54,3.03,6.65,0,0-4.9-.99-8.55-3.14,0,0,.18,2.36-.16,4.6,1.2,2.5,2.65,4.87,4.29,7.14.23.32.46.62.69.92.23.3.46.62.71.92.23.3.48.6.74.88.25.28.49.58.76.88.51.58,1.02,1.15,1.57,1.71.26.28.55.55.81.83l.85.81c1.15,1.06,2.33,2.08,3.58,3.05.62.48,1.25.95,1.9,1.41.65.44,1.31.88,1.98,1.32,2.68,1.71,5.52,3.17,8.48,4.36,1.48.6,3,1.13,4.51,1.57.76.23,1.53.44,2.31.63.39.09.78.18,1.16.26s.78.18,1.16.25c3.12.6,6.26.92,9.37.92l1.16-.02c.39-.02.78-.02,1.16-.05.78-.04,1.53-.11,2.31-.18.76-.07,1.52-.19,2.28-.3.76-.12,1.5-.28,2.24-.46,5.41-1.32,9.33-5.61,10.44-10.71,1.62,7.44-3,14.87-10.44,16.68-.74.18-1.48.34-2.24.46-.76.11-1.52.25-2.28.3-.76.09-1.53.14-2.31.18-.39.02-.78.04-1.16.05l-1.16.02c-3.1.02-6.26-.32-9.37-.92-.39-.07-.78-.16-1.16-.25s-.78-.18-1.16-.26c-.78-.19-1.53-.41-2.31-.63-1.53-.44-3.03-.97-4.51-1.57-2.96-1.18-5.82-2.66-8.48-4.36-.67-.42-1.32-.88-1.98-1.32-.63-.46-1.29-.92-1.9-1.41-1.23-.97-2.43-1.98-3.58-3.05l-.85-.81c-.28-.28-.55-.55-.81-.83-.55-.55-1.06-1.13-1.57-1.71-.26-.28-.51-.58-.76-.88-.25-.3-.49-.58-.74-.88s-.48-.6-.71-.92c-.23-.3-.46-.62-.69-.92-1.8-2.47-3.35-5.08-4.6-7.83-.3-.67-.6-1.36-.86-2.05h0c-.05-.12-.09-.23-.14-.35-.04-.07-.05-.14-.09-.21-.02-.05-.04-.09-.05-.14-.18-.49-.35-.99-.53-1.5-.25-.72-.46-1.46-.65-2.22-.09-.39-.19-.76-.28-1.16l-.14-.62-.07-.34-.04-.18s-.02-.07-.02-.11l-.02-.05s-.02-.02-.02-.04l-.02-.05c-.05-.12-.12-.23-.18-.35.04,0,.02-.05,0-.09h0Z"/>
        <path d="m17.27,35.24c-.9,2.05-1.01,5.17.62,7.51,1.11,1.62,2.82,5.41,2.82,5.41,2.73-.85,2.19-8.4,2.19-8.4,3.63,2.13,8.55,3.14,8.55,3.14-.09-4.11-2.96-6.56-3.03-6.65,5.89,3.47,9.59.12,9.59.12,0,0-.53.07-4.99-2.31-4.14-2.22-6.53-3.72-9.82-3.53-.46.02-.92.18-1.29.46l-.02.02c-1.78-1.11-5.2-3.92-5.31-8.92-.02-.78-.65-1.38-1.41-1.38h0c-1.59,0-2.8,1.38-2.63,2.95.37,3.3,1.48,8.68,4.73,11.57h0Z"/>
        <g class="cls-1">
          <path d="m32.72,34.85c-.62-.51-1.29-.95-1.96-1.38-.67-.42-1.36-.81-2.08-1.16s-1.48-.63-2.28-.83c-.79-.19-1.6-.28-2.42-.18.78.19,1.52.42,2.24.71.72.28,1.43.6,2.13.93.71.34,1.41.69,2.13,1.01.72.35,1.46.67,2.22.9h0Z"/>
        </g>
        <path class="cls-4" d="m31.01,37.43c.16.05.32.09.48.14.07.02.14.04.21.05.21.05.41.09.6.12h.02c.19.04.39.05.56.07.18.02.37.02.55.04,1.22.02,2.2-.21,2.95-.51.09-.04.16-.07.25-.11.07-.04.16-.07.21-.11.09-.05.18-.09.26-.14s.16-.09.23-.12c.42-.25.65-.46.65-.46h-.05c-1.34.76-5.03,2.35-9.22.05.58.34,1.16.58,1.69.79.07.02.16.05.21.09.07.02.14.05.21.07.09-.02.14,0,.19.02h0Z"/>
        <path class="cls-4" d="m22.87,39.75c.25.14.49.28.76.42.12.07.26.14.39.19.04.02.09.04.12.05.12.07.26.12.39.18s.25.11.35.16c.19.09.39.18.58.25.09.04.18.07.28.12.72.3,1.45.55,2.12.78.09.04.18.05.26.09.3.09.58.18.85.26.05.02.11.04.14.04.05.02.09.04.14.04.07.02.12.04.19.05.26.07.49.14.72.19.04.02.07.02.11.04.05.02.12.04.18.04.05.02.11.02.16.04.04,0,.05.02.09.02.05.02.11.02.16.04.05.02.11.02.16.04.02,0,.05.02.07.02s.04,0,.04.02c.04,0,.07.02.09.02.12.04.19.05.19.05,0-.25-.02-.48-.04-.69-1.39-.34-5.03-.74-7.76-2.05-.25-.11-.49-.25-.74-.39h0Z"/>
        <path class="cls-4" d="m17.27,35.24c-.9,2.05-1.01,5.17.62,7.51,1.11,1.62,2.82,5.41,2.82,5.41.34-.11.62-.3.85-.58-.05.02-.09.04-.14.05,0,0-1.71-3.79-2.82-5.41-1.62-2.35-1.52-5.47-.62-7.51-3.25-2.89-4.36-8.27-4.74-11.62-.02-.11-.02-.21-.02-.3,0-.71.28-1.36.76-1.83-.86.44-1.46,1.34-1.46,2.36,0,.11,0,.19.02.3.39,3.35,1.5,8.73,4.74,11.62h0Z"/>
      </g>
    </g>
  </g>
</svg>