<?xml version="1.0" encoding="UTF-8"?>
<svg id="Calque_2" data-name="Calque 2" xmlns="http://www.w3.org/2000/svg" viewBox="0 0 245.37 123">
  <defs>
    <style>
      .cls-1 {
        fill: #e763a0;
      }
    </style>
  </defs>
  <g id="Calque_1-2" data-name="Calque 1">
    <g id="Calque_1-2" data-name="Calque 1-2">
      <g>
        <path class="cls-1" d="m34.37,103.5l-7,.5c-.5,0-1,0-1,.5s-.5.5-.5,1c.5,2,0,3.5-.5,6v.5c-1,1.5-1.5,2.5-3,2.5-2.5,1-4.5.5-6-.5s-3.5-3.5-5-7c-1.5-4-2-6.5-1-8.5,1-2,2-3.5,4.5-4.5,1-1,3-.5,4-.5,1.5.5,2.5,1.5,3.5,2.5,0,.5.5.5,1,.5s1,0,1-.5l5-4.5c.5-.5.5-1.5,0-2-2-2.5-4.5-4-6-5-4-1-8-1-12,.5-5,2-8.5,5.5-10.5,10-1.5,4.5-1,9.5,1,15.5,2,5.5,5.5,9,10,11.5,2,1,4.5,1,6.5,1s4.5-.5,7-1c4-1.5,6.5-4,8-6.5,2-2.5,3-6.5,2.5-11,0-.5-.5-1-1.5-1Z"/>
        <path class="cls-1" d="m98.37,83c-2.5-2-4.5-3.5-6-4-.5-.5-1-.5-1.5-1,1.5-1.5,2.5-3,3-4,1-2.5,1-5.5,0-8.5-1-2-2-4-4-5-4-2.5-8-2.5-14.5.5l-14,5.5c-.5,0-.5.5-1,1v1l11,28-22-24c-.5-.5-1-.5-1.5-.5l-7,3c-.5,0-1,.5-1,1.5v38c0,.5,0,1,.5,1h1.5l7-3c.5,0,1-.5,1-1.5v-7.5l11-4.5,5.5,6c.5.5,1,.5,1.5.5l7-3c.5,0,.5-.5.5-.5l6-2.5c.5-.5,1-1,1-2l-5-12,1-.5c1-.5,1.5-.5,2-.5.67,0,1.33.17,2,.5,1,.5,3,1.5,5.5,3.5l7.5,5c.5.5,1,.5,1.5,0l8-3c.5,0,1-.5,1-1s0-1-.5-1.5c0,0-7-5-7-5Zm-43.5,9l-5,2-.5-8,5.5,6Zm30.5-20l-.5.5-.5.5c-.5.5-1,.5-1.5.5-1,.5-2.5,1-4.5,2l-3.5,1.5-2-5.5,4-1.5c3.5-1.5,4.5-2,4.5-2,1,0,1.5,0,2.5.5.5.5,1,1,1.5,2-.5.5,0,1,0,1.5Z"/>
        <path class="cls-1" d="m159.37,28.5c-.5-.5-1-.5-1.5-.5l-7,3c-.5,0-1,.5-1,1.5v37l-6-4.5c-2.5-2-4.5-3.5-6-4-.5-.5-1-.5-1.5-1,1.5-1.5,2.5-3,3-4,1-2.5,1-5.5,0-8.5-1-2-2-4-4-5-4-2.5-8-2.5-14.5.5l-14,5.5c-.5,0-.5.5-1,1v1l13,33c0,.5.5.5,1,1h1l6-2.5c.5-.5,1-1,1-2l-5-12h0c.5,0,1-.5,1-.5,1-.5,1.5-.5,2-.5.67,0,1.33.17,2,.5,1,.5,3,1.5,5.5,3.5l7.5,5c.5,0,1,.5,1.5,0l8-3c.5,0,.5-.5.5-.5h1l6.5-3c.5,0,1-.5,1-1.5v-7.5l11-4.5,5.5,6c.5.5,1,.5,1.5.5l7-3c.5,0,.5-.5,1-1s0-1-.5-1.5c0,0-25.5-28.5-25.5-28.5Zm-38.5,30.5l-2.5-6,4-1.5c3.5-1.5,4.5-2,4.5-2,1,0,1.5,0,2.5.5.5,0,1,.5,1.5,1.5l.5.5c.5.5.5,1,.5,1.5l-.5.5-.5.5c-.5,0-.5.5-1,.5-1,.5-2.5,1-4.5,2,0,0-4.5,2-4.5,2Zm43.5-10l-5,2-.5-8s5.5,6,5.5,6Z"/>
        <path class="cls-1" d="m207.37,35l-7,.5c-.5,0-1,0-1,.5s-.5.5-.5,1c.5,2.5,0,4.5-1,6s-2,2.5-3.5,3c-2.5,1-4.5.5-6-.5-1.5-1-3.5-3.5-5-7-1.5-4-2-6.5-1-8.5,1-2,2-3.5,4.5-4.5,1-1,3-.5,4-.5,1.5.5,2.5,1.5,3.5,2.5,0,.5.5.5,1,.5h1l6-4c.5-.5,1-1.5.5-2-1.5-2.5-3.5-4-6.5-5.5-4-1-8-1-12,.5-5,2-8.5,5-11,10-1.5,4.5-1,9.5,1,15.5,2,5.5,5.5,9,10,11.5,2,1,4.5,1,6.5,1s4.5-.5,7-1c4-1.5,6.5-4,8-6.5,2-2.5,3-6.5,2.5-11,.5-1,0-1.5-1-1.5Z"/>
        <path class="cls-1" d="m241.87,28.5c0-.5-.5-.5-.5-1h-1l-17,6.5-2.5-6.5,15-6c.5-.5,1-1,1-1.5l-1.5-5c0-.5-.5-.5-.5-1h-1l-15,6-2-5,16-6.5c.5-.5,1-1,1-2l-2-5.5c0-.5-.5-.5-.5-1h-1l-24.5,9.5c-.5,0-.5.5-1,1v1l13,33c0,.5.5.5,1,1h1l24.5-10c.5-.5,1-1,1-2,0,0-3.5-5-3.5-5Z"/>
      </g>
    </g>
  </g>
</svg>