<?xml version="1.0" encoding="UTF-8"?>
<svg id="Calque_2" data-name="Calque 2" xmlns="http://www.w3.org/2000/svg" viewBox="0 0 518.83 61.69">
  <defs>
    <style>
      .cls-1 {
        fill: #e763a0;
      }
    </style>
  </defs>
  <g id="Calque_1-2" data-name="Calque 1">
    <g id="Calque_1-2" data-name="Calque 1-2">
      <g>
        <path class="cls-1" d="m30,27.69c0-3.5-.5-5.5-2.5-8-1.5-2-3-3-5.5-3.5-1.5-.5-4.5-.5-9-.5H1.5c-1,0-1.5.5-1.5,1.5v35c0,1,.5,1.5,1.5,1.5h7c1,0,1.5-.5,1.5-1.5v-12h3c3.5,0,6,0,7.5-.5,1.5,0,2.5-.5,3-1,0,0,.5-.5,1-.5,1.5-1,2.5-2,3.5-3l.5-.5c1.5-3,1.5-5,1.5-7Zm-11-2c.5.5.5,1,.5,2,0,.33-.17.67-.5,1-.5.5,0,.5-.5.5-.5.5-1,.5-1.5,1s-2.5.5-5,.5h-2v-6.5h7c.5,0,1,0,2,1.5Z"/>
        <path class="cls-1" d="m115,16.19c0-.5-.5-1-1.5-1h-7.5c-.5,0-1,.5-1.5,1l-12.5,32v-2.5c0-1-.5-1.5-1.5-1.5h-16v-27.5c0-1-.5-1.5-1.5-1.5h-7c-1,0-1.5.5-1.5,1.5v30.5l-13-31c0-.5-.5-1-1.5-1h-7.5c-.5,0-1,.5-1.5,1l-13.5,35v1.5c.33.33.67.5,1,.5h7.5c.5,0,1-.5,1.5-1l2.5-7h12.5l2.5,7c0,.5.5,1,1.5,1h34.5c.33,0,.5-.17.5-.5,0-.5.5.5,1,.5h7.5c.5,0,1-.5,1.5-1l2.5-7h12l2.5,7c0,.5.5,1,1.5,1h8c.5,0,1,0,1-.5.5-.5.5-1,0-1.5,0,0-14-35-14-35Zm-64.5,20.5h-5.5l2.5-7.5,3,7.5Zm57,0l3-7.5,3,7.5h-6Z"/>
        <path class="cls-1" d="m145,15.69h0c-5-.5-9,1-13,4.5-3.5,3.5-5.5,8.5-5.5,14.5,0,6.5,1.5,11,4.5,14.5,3.5,4,8,6,12.5,6,3.5,0,7.5-.5,10.5-3s5-5.5,6-9.5c0-.5,0-1.5-1-1.5l-7-2.5h-1s-.5.5-.5,1c-.5,2.5-1.5,4-3,4.5-1.5,1-2.5,1.5-4,1.5-2,0-3.5-1-5-2.5-2-1.5-2.5-4.5-2.5-8.5.5-3.5,1.5-6.5,2.5-8.5,1-1.5,2.5-2,5.5-2,2,0,3,.5,4,2,1,.5,1.5,1.5,2,3.5,0,.5,1,1,1.5,1l7-1.5c.5,0,1-.5,1-.5v-1c-1-2.5-2-5.5-4-7-2.5-3.5-6-5-10.5-5Z"/>
        <path class="cls-1" d="m192.5,19.19l-26-2c-.33,0-.67.17-1,.5-.5,0-.5.5-.5,1l-2.5,35c0,1,.5,1.5,1.5,1.5l26.5,2h0c.5,0,1.5-.5,1.5-1.5l.5-6c0-.33-.17-.67-.5-1-.5-.5-1-.5-1-.5l-18-1.5.5-6.5,16,1.5c.33,0,.67-.17,1-.5.5,0,.5-.5.5-1l.5-6c0-.5,0-1-.5-1s-.5-.5-1-.5l-16.5-1,.5-5,17.5,1.5c.5,0,1.5-.5,1.5-1.5l.5-6c0-.33-.17-.67-.5-1,0-.5-.5-.5-.5-.5Z"/>
        <path class="cls-1" d="m227,20.69c-2.5,0-5.5,0-8,1-2,.5-4,1.5-5.5,3-1.5,1-2.5,2.5-3.5,4,0,.5-.5.5-1,1-1,2.5-2,5.5-2,9.5-.5,6,1,11,4,14,2.5,3.5,7.5,5.5,13,6h2c4.5,0,8-1.5,11.5-4.5,3.5-3.5,5.5-8,6-14,.5-6.5-1-11.5-4-14.5-2.5-3-7-5-12.5-5.5Zm7.5,20c-.5,4-1.5,6.5-3,8s-3,2-6,2c-2.5,0-4.5-1-6-3-1-1.5-2-4-1.5-8,.5-3.5,1.5-6.5,2.5-8,1.5-1.5,3.5-2,6.5-2,2.5,0,4.5,1,6,3,.5,1.5,2,4,1.5,8Z"/>
        <path class="cls-1" d="m274,24.69l-24-1c-1,0-1.5.5-1.5,1.5l-2,35c0,.5,0,1,.5,1s.5.5,1,.5h7c.5,0,1.5-.5,1.5-1.5l1-13.5,13,1c.5,0,1,0,1-.5.33-.33.5-.67.5-1v-5.5c0-.5-.5-1.5-1.5-1.5l-13-1,.5-5.5,15.5,1h0c.5,0,1.5-.5,1.5-1.5l.5-6c0-.5,0-1-.5-1-.5-.5-1-.5-1-.5Z"/>
        <path class="cls-1" d="m314,39.19c-1.5-1-4.5-2-8.5-2.5-3-.5-5-1.5-6-2-.33-.33-.5-.67-.5-1l.5-1c1.5-1,2.5-1.5,4-1.5,2,0,3,0,3.5.5s1,1.5,1.5,3.5c0,.5,1,1,1.5,1l7.5-.5c.5,0,1,0,1-.5s.5-.5.5-1c-.5-2.5-1.5-6-4.5-8.5-2.5-2.5-7-3-11-3-3,0-5.5.5-7.5,1.5-2.5.5-4.5,2.5-5.5,4-1,2-1.5,3.5-1.5,6,0,3.5,2,6,4,8,2,1,4.5,2,8.5,3,1.5.5,3,1,4,1,.5,0,1,0,1.5.5l2,1c.33.33.5.67.5,1,0,1-.5,1.5-1,2.5-.5.5-1.5,1-4,1-1.5,0-3-.5-4-1-1-1-1.5-2.5-2-4.5,0-.5-1-1-1.5-1l-7,1c-1,0-1.5,1-1,1.5.5,4,2.5,7.5,5,9,2.5,2,6.5,3.5,11.5,3.5,3,0,6-.5,8-1.5,2.5-1,4-2.5,5-4.5,1-1.5,1.5-4,1.5-6.5s-.5-4.5-1.5-6.5c-1.5-.5-3-1.5-4.5-2.5h0Z"/>
        <path class="cls-1" d="m350.5,51.69l-18,.5-.5-6.5,16-.5c1,0,1.5-.5,1.5-1.5v-6c0-.33-.17-.67-.5-1s-.67-.5-1-.5l-16,.5v-5l17.5-.5c1,0,1.5-.5,1.5-1.5v-6c0-.5,0-1-.5-1-.33-.33-.67-.5-1-.5l-26,1c-1,0-1.5.5-1.5,1.5l1,35c0,1,.5,1.5,1.5,1.5h0l26-.5c1,0,1.5-.5,1.5-1.5v-6c0-.33-.17-.67-.5-1s-.67-.5-1-.5h0Z"/>
        <path class="cls-1" d="m386,43.19l-7-1.5c-.5,0-1,0-1,.5-.33.33-.5.67-.5,1,0,2-.5,3.5-2.5,5-1,1-2,2-3.5,2-1.5.5-3,0-5.5-1.5-1.5-1-2.5-3.5-3-8-.5-4,0-7,1-8.5s3-2.5,5-3c2,0,3,0,4,1,1.5,1,2,1.5,2.5,3,0,.5.5.5.5,1h1l7-2.5c.5,0,.5-.5,1-1v-1l-.5-1c-1-2-2.5-4-4.5-5.5-3.5-2.5-7.5-3-12-2.5-5.5.5-10,3-12.5,6.5-2.5,4-4,8.5-3.5,15,.5,6,2.5,10,6.5,13.5,3,2.5,6.5,4,10.5,4h2.5c4-.5,7.5-2,9.5-4.5,3-2,4.5-5.5,5-10,1-1.5.5-2,0-2Z"/>
        <path class="cls-1" d="m421.5,41.19c-1.5-2-3-3-4-4-.33-.33-.67-.67-1-1l-.5-.5c-.5,0-1-.5-1.5-.5,1.5-1,3-2,4-4,1-2.5,1.5-5.5,1-8-.5-2-1-4-2.5-5.5-1.5-2-3-2.5-5-3-1.5-.5-4.5,0-8,.5l-15.5,3c-1,0-1,1-1,1.5l6.5,34.5c0,.5.5.5.5,1h1.5l7.5-1.5c.5,0,.5-.5,1-.5,0-.5.5-.5,0-1l-3.5-13h0c1.5-.5,2-.5,3-.5.33,0,.67.17,1,.5.5.5.5,0,.5.5l4.5,4.5,6,6.5c.5.5,1,.5,1.5.5l8.5-1.5c.5,0,1-.5,1-1s0-1-.5-1.5l-5-6Zm-11.5-14c-.5.5-.5,1-1.5,1.5h-.5s-1,.5-5.5,1l-3.5.5-1.5-5.5,4-.5c1,0,2-.5,2.5-.5,1,0,2-.5,2-.5.67,0,1.17.17,1.5.5l.5.5c.5.5.5,1,.5,1v.5c1,.67,1.5,1.17,1.5,1.5Z"/>
        <path class="cls-1" d="m455,35.69l-17.5,3-1-7,16-3c1,0,1.5-1,1-1.5l-1-6c0-.5-.5-.5-.5-1s-.5-.5-1,0l-16,3-1-4.5,17-3c.5,0,.5-.5,1-.5,0-.5.5-.5,0-1l-1-6.5c0-.5-.5-.5-.5-1-.5,0-.5-.5-1,0l-26,4.5c-.5,0-.5.5-1,.5,0,.5-.5.5,0,1l6,34.5c0,.5.5,1,1.5,1h0l26.5-4c.5,0,.5-.5,1-.5,0-.5.5-.5,0-1l-1-6c0-1-.5-1.5-1.5-1h0Z"/>
        <path class="cls-1" d="m481,1.69l-27.5,4c-.5,0-.5.5-1,.5s-.5.5-.5,1l1,6c0,1,1,1.5,1.5,1l9-1.5,4.5,27.5c0,.5.5,1,1.5,1h0l6.5-1c.5,0,.5-.5,1-.5,0-.5.5-.5.5-1l-4-27,9-1.5c.5,0,.5-.5,1-.5s.5-.5.5-1l-1-6c-.5-1-1.5-1.5-2-1Z"/>
        <path class="cls-1" d="m518.5,24.69c-.5-3-1.5-4.5-3-6-1.5-1.5-3-3-5-3-1.5-1-3.5-1-6-1.5-1,0-1.5,0-2.5-.5-4.5-.5-6-1-6.5-1.5l-.5-.5c0-.5.5-1.5.5-1.5.5-.5,2-1,4-1.5,1.5-.5,3,0,3.5.5s1.5,1.5,2,2.5c0,.5,1,1,1.5,1l7-1.5c.5,0,1-1,1-1.5-.5-3.5-2.5-6.5-5-8-3-1.5-6.5-2-11.5-1.5-2.5.5-5,1.5-7,2.5-2.5,1-3.5,3-4.5,4.5v.5c-.5,1.5-1,3.5-.5,5.5.5,3.5,2,5.5,5.5,7.5,2.5,1,5,1.5,9,2,2,0,3.5,0,4.5.5h1.5c1,0,1.5.5,2,.5.33.33.5.67.5,1v.5c0,.5,0,1-.5,2-.5.5-2,1-4,1.5-2.5,0-3.5,0-4.5-1h-.5c-1-.5-2-2-2.5-4-.5-.5-1-1-1.5-.5l-6.5,1.5c-.5,0-.5.5-1,.5v1c1.5,4,3,7,5.5,11l.5.5c2,1.5,5,2,8,2h3.5c2.5-.5,5-1.5,8-2.5,2.5-1,3.5-3,4.5-5,1-3,1-5.5.5-7.5Z"/>
      </g>
    </g>
  </g>
</svg>