<?xml version="1.0" encoding="UTF-8"?>
<svg id="Calque_2" data-name="Calque 2" xmlns="http://www.w3.org/2000/svg" viewBox="0 0 374 63.5">
  <defs>
    <style>
      .cls-1 {
        fill: #e763a0;
      }
    </style>
  </defs>
  <g id="Calque_1-2" data-name="Calque 1">
    <g id="Calque_1-2" data-name="Calque 1-2">
      <g>
        <path class="cls-1" d="m27.5,25.5c-2-2-4-2.5-6.5-3-1.5,0-5,.5-9,1.5l-11,2.5c-1,0-1,1-1,1.5l7.5,34.5c0,.5.5,1,1.5,1h.5l7-1.5c.5,0,.5-.5,1-.5,0-.5.5-.5,0-1l-2.5-11.5,3-.5c1.5-.5,3.5-1,4.5-1.5,1,0,2-.5,2.5-.5,2-.5,3-2,4-3,1-1,2-3,2.5-4.5.5-1.5.5-4,0-6-.5-3.5-2-6-4-7.5Zm-15,15l-1.5-7,2-.5c1,0,2-.5,2.5-.5,1,0,2-.5,2-.5.5,0,2,.5,2,.5,1,1,1.5,1.5,1.5,2.5.5.5.5,1,0,1.5l-.5.5c-.5.5-.5,1-1,1-1,.5-2.5,1-5,2,0,0-2,.5-2,.5Z"/>
        <path class="cls-1" d="m66,41.5c-1-1-2.5-2-3.5-3-.5-.5-1-1-2-1.5-.5-.5-1-.5-1.5-1,1.5-1,3-2,3.5-3.5,1.5-2,2-4.5,1-8-.5-2-1.5-4-2.5-5.5-1.5-2-3-2.5-5.5-3-1.5,0-4.5,0-8.5,1l-14.5,3c-.5,0-.5.5-1,.5,0,.5-.5.5,0,1l7.5,34.5c0,.5.5,1,1.5,1h.5l7-1.5c1,0,1-1,1-1.5l-2.5-13h0c1-.5,2.5-.5,3-.5h0l1.5,1.5c1,.5,2,1.5,3.5,3l6.5,6.5c.5.5,1,.5,1.5.5l8.5-2c.5,0,1-.5,1-1s0-1-.5-1.5c0,0-5.5-6-5.5-6Zm-22-9l-1-6,3-1c1,0,2-.5,2.5-.5,1,0,2-.5,2-.5.67,0,1.17.17,1.5.5h.5c.5.5,1,1.5,1,2,.33.33.33.67,0,1v.5c0,.33-.17.5-.5.5q-.5,0-.5.5s-2,1-5.5,1.5c0,0-3,1.5-3,1.5Z"/>
        <path class="cls-1" d="m74.5,10.5l-7,1.5c-.5,0-.5.5-1,.5,0,.5-.5.5,0,1l7.5,34.5c0,.5.5,1,1.5,1h.5l7-1.5c.5,0,.5-.5,1-.5,0-.5.5-.5,0-1l-7.5-34.5c-.5-.5-1-1-2-1Z"/>
        <path class="cls-1" d="m110,24c-1-1-2.5-2-5-3-2-.5-4.5-1-8.5-1-3.5,0-6-.5-6.5-1l-.5-.5v-.5c0-.5,0-1,.5-1,.5-1,1.5-1.5,3.5-2,2-.5,3-.5,3.5,0,.5,0,1.5.5,2,3.5,0,.5.5.5.5,1,.5,0,1,.5,1,0l7-2c.5,0,1-1,1-1.5-.5-4.5-3.5-6.5-6-8-2.5-1-6-1.5-11.5-.5-2.5.5-5.5,1.5-7,3s-3,3-4,5c-.5,1.5-1,3.5-.5,5.5.5,3,2.5,5,5,7,1.5,1,5,2,9,1.5,3,.5,5,.5,6,.5s1.5.5,2,.5c.33.33.5.67.5,1v.5c0,.5,0,1-.5,2l-.5.5c0,.5-1.5,1-3.5,2-1.5.5-3,.5-4.5-.5-1-.5-2-2-3-4-.5-.5-1-1-1.5-.5l-6.5,2c-.5,0-1,1-1,1.5,1,4,3.5,7,6.5,9.5,2,1,4,1.5,7,1.5,1.5,0,3,0,5-.5l1.5-.5c2.5-1,4-1.5,6-3s4-3,4.5-5.5c1-2,1.5-4.5.5-7,.5-2-1-3.5-2-5.5Z"/>
        <path class="cls-1" d="m144,5.5c-4-3.5-9-5-14-4.5-3,0-6,1-7.5,2-2,1-3.5,2-5,4-2,2-3,3.5-3.5,5.5-1,3-1,6-1,9.5h0c.5,5.5,2.5,10,6,13.5,3.5,3,7.5,4.5,12,4.5h2c5.5,0,9.5-2,13-6,3-4,4.5-9,4-14.5-.5-6.5-2.5-11-6-14Zm-6.5,22.5c-1.5,2-3,3-5.5,3-2,.5-4-.5-5.5-2-1.5-1.5-2.5-4.5-2.5-8h0c-.5-3.5,0-6,1-8.5,2-2,3.5-3,6-3s4.5.5,6,2c1.5,1.5,2.5,4,3,8-.5,4-1.5,7-2.5,8.5Z"/>
        <path class="cls-1" d="m182.5,0h-6.5c-1,0-1.5.5-1.5,1.5v18.5L162.5.5C162.17.17,161.83,0,161.5,0h-7c-1,0-1.5.5-1.5,1.5v35c0,1,.5,1.5,1.5,1.5h7c1,0,1.5-.5,1.5-1.5v-18l11.5,18.5c.33.33.67.5,1,.5h7c1,0,1.5-.5,1.5-1.5V1C184,.5,183,0,182.5,0Z"/>
        <path class="cls-1" d="m229.5,19c1-.5,1.5-1.5,2-2,1-1.5,1.5-3.5,1.5-5.5,0-1.5-.5-2.5-1-3.5l-.5-1c-.5-1-1.5-2.5-3-3.5l-.5-.5c-1-.5-2-1-3.5-1.5h-2c-1,0-2.5-.5-4.5-.5h0l-14-1c-.5,0-1,0-1,.5s.5.5.5,1l-2,35.5c0,.5,0,1,.5,1s.5.5,1,.5l12,.5h8.5c2,0,4-.5,6-2,1-1,2-2,3-3.5s1.5-3.5,1.5-5.5c0-2.5-.5-4.5-2-6.5-.5-1-1.5-2-2.5-2.5Zm-6.5-5.5c-1,.5-1.5,1-2.5,1h-8l.5-5h2.5c2.5,0,4,.5,5,.5h.5c.5.5,1.5,1,2,1l.5.5v1s0,1-.5,1Zm-10.5,10l4,.5c1.5,0,2.5.5,3,.5,1.5,0,2.5.5,3,.5h.5c.33,0,.5.17.5.5v2c0,1-.5,1.5-.5,2l-.5.5c-.5.5-1,.5-1,.5h-5l-5-.5s1-6.5,1-6.5Z"/>
        <path class="cls-1" d="m267.5,34.5c-1-3.5-3-6-3.5-6.5s-1-1.5-1.5-2c2.5-.5,4-1,5-2,1.5-2.5,2.5-4.5,3.5-7.5,0-2,0-4.5-1-6-.5-2.5-2.5-3.5-4-4.5-2-1-5-1.5-8.5-2l-15-1.5c-1,0-1.5.5-1.5,1.5l-3.5,35c0,.5,0,1,.5,1,0,.5.5.5,1,.5l7.5.5c1,0,1.5-.5,1.5-1.5l1.5-13h0c1.5,0,1.5.5,1.5.5,0,.5.5,1,1,1,0,0,.5.5,1,.5,0,0,0,.5.5.5.5.5,1.5,3,3,5l4.5,8c0,.5.5.5,1,.5l8.5,1h0c.5,0,1,0,1-.5.5-.5.5-1,0-1.5l-4-7Zm-18-22.5l4,.5c1.5,0,3,0,4,.5h1s1,0,1,.5c.5.5.5,1.5.5,2.5,0,.5-.5,1.5-.5,1.5l-.5.5c.5.5,0,.5,0,.5h-.5c-.5,0-2,.5-5.5,0l-3.5-.5s0-6,0-6Z"/>
        <path class="cls-1" d="m374,15.5c0-.5-.5-1-1.5-1l-9.5-.5c-.5,0-1,0-1,.5l-13,12,1-12c0-1-.5-1.5-1.5-1.5l-7-.5c-.33,0-.67.17-1,.5s-.5.67-.5,1l-2,30-9-31c0-.5-.5-1-1-1l-7.5-1c-.5,0-1,0-1.5.5l-16.5,31.5.5-3c0-1-.5-1.5-1.5-1.5l-18-2,.5-6.5,16,2c.5,0,1,0,1-.5.5,0,.5-.5.5-1l.5-6c0-1-.5-1.5-1-1.5l-16-2,.5-5,17.5,2c.5,0,1,0,1-.5.5,0,.5-.5.5-1l.5-6c0-1-.5-1.5-1.5-1.5l-26-2.5c-1,0-1.5.5-1.5,1.5l-3.5,35c0,.5,0,1,.5,1,0,.5.5.5,1,.5l26.5,2.5h0c.33,0,.67-.17,1-.5h0s.5.5,1,.5l7.5,1c.5,0,1,0,1.5-.5l3.5-6.5,12,1.5,1.5,6c0,.5.5,1,1,1l8,1h1l7,.5c1,0,1.5-.5,1.5-1.5l1-10,4-4,7.5,15.5c0,.5.5,1,1,1l9,.5h0c.5,0,1,0,1-.5.5-.5.5-1,0-1.5l-12-21.5,13.5-11.5c2-1,2-1.5,2-2h0Zm-50,17l-5.5-.5,3.5-7,2,7.5Z"/>
      </g>
    </g>
  </g>
</svg>