<?xml version="1.0" encoding="UTF-8"?>
<svg id="Calque_2" data-name="Calque 2" xmlns="http://www.w3.org/2000/svg" viewBox="0 0 351 128.89">
  <defs>
    <style>
      .cls-1 {
        fill: #e763a0;
      }
    </style>
  </defs>
  <g id="Calque_1-2" data-name="Calque 1">
    <g id="Calque_1-2" data-name="Calque 1-2">
      <g>
        <path class="cls-1" d="m18.5.34c-2.5-.45-5.5-.45-7.5,0-1.5.5-4.5,1.5-6,3.5-1,1.5-1.5,3.5-2,5.5-.5,3.5,0,6.5,2.5,8.5,1.5,1.5,4,3,8,5,2,1,3.5,1.5,4,2,.5,0,1,.5,1.5.5,1,.5,1.5,1,2,1.5,0,0,0,.5.5.5v1s0,1-1,1.5c-1.5.5-2.5,1-4.5.5-2.5-.5-3.5-1-4.5-2-1-1-1.5-2.5-1.5-4.5,0-.5-.5-1.5-1.5-1.5l-7-.5c-.5,0-1,0-1,.5s-.5.5-.5,1c0,4.5,1,8.5,3.5,10.5,2.5,3,5.5,4.5,10.5,5,2,.5,3.5.5,5,.5s2.5,0,4-.5,4.5-1.5,5.5-3.5c2-2,3-4,3-6,.5-2.5.5-5-.5-7-1-1.5-2-3-4-4.5-1.5-1-3.5-2-7.5-3.5-2.5-.5-4-1.5-5.5-2.5,0,0-.5,0-.5-.5v-1c.5-.5.5-1,1-1,1.5-.5,2.5-.5,4-.5.5,0,3,.5,3,1.5,0,0,0,.5.5.5.5.5,1,1.5,1,3,0,.5.5,1.5,1.5,1.5l7.5.5c.5,0,1,0,1-.5.33-.33.5-.67.5-1,0-4-1-7-3-9C27,2.39,23.5.89,18.5.34Z"/>
        <path class="cls-1" d="m67,17.84c-2-4-6-7-11.5-9-2.5-.5-5.5-1-8-.5l-1,.5c-1.5.5-3,1-4.5,2-1.5.5-3.5,2-5,4-2,2.5-3.5,5.5-4,8.5h0c-1.5,5.5-1,10.5,1,15,2,4,6,7,11.5,8.5,2,.5,4,1,6,1,3,0,6-1,8.5-2.5,4-2.5,7-7,8.5-12.5s1-10.5-1.5-15Zm-8.5,12.5c-1,3.5-2,6-4.5,7-2.5,1.5-4.5,1.5-6.5,1-3-1-4.5-2-5-4-1-2-1-5,0-8.5,1.5-3.5,2.5-6.5,4.5-7h.5c1.5-1.5,3.5-1.5,5.5-1,3,1,4.5,2,5,4,1.5,2,1.5,5,.5,8.5Z"/>
        <path class="cls-1" d="m105,23.84l-7-2c-1,0-1.5,0-1.5,1l-6,18.5c-.5,1.5-1,2.5-1,3.5-.5,1-.5,1.5-.5,2-.5.5-1,1.5-2,2-.5,0-1.5.5-3.5,0-1.5-.5-2.5-1-3-2-.5-.5-1-2-1-3,0-.5.5-2,1.5-5l5-18.5c0-.5,0-1.5-1-1.5l-6.5-2c-.5,0-1.5,0-2,1l-6,18c-1.5,4.5-2,7.5-2,9.5,0,1.5.5,3.5,1,5,.5,2,2,3.5,3.5,4.5s4,2,7.5,3c3,1,5.5,1,7.5,1s4-.5,5.5-1.5c2-.5,3-2.5,4-4s2-4.5,3-9l5-18c.5-1.5,0-2-.5-2.5Z"/>
        <path class="cls-1" d="m136,40.34c.5,0,.5-.5.5-1l1.5-5.5c0-1,0-1.5-1-1.5l-27-7.5h-1c-.5,0-.5.5-.5,1l-1.5,5.5c0,.5,0,1.5,1,1.5l8.5,2.5-7.5,26.5v1c0,.5.5.5,1,.5l7,1.5h.5c.5,0,1-.5,1.5-1l7.5-26.5,8.5,2.5c.5,1,1,1,1,.5Z"/>
        <path class="cls-1" d="m170,40.89l-7-2h-1c-.5,0-.5.5-.5,1l-3,12-10.5-3,3-11.5c0-.5,0-1.5-1-1.5l-7-2h-1c-.5,0-.5.5-.5,1l-10,34v1c0,.5.5.5,1,.5l7,1.5c.5,0,1.5-.5,1.5-1l3.5-13.5,11,3-3.5,13.5c0,.5,0,1.5,1,1.5l7,2h1c.5,0,.5-.5.5-1l9-34c.5-.5,0-1-.5-1.5Z"/>
        <path class="cls-1" d="m215.5,64.34c.5-2,.5-3.5,0-5.5-.5-1.5-1-2.5-2-4s-2-2.5-3.5-3c-.5,0-1-.5-1.5-.5-1.5-.5-3-1-4.5-1.5l-14-3.5c-1,0-1.5,0-1.5,1l-10,34v1c0,.5.5.5,1,.5l11.5,3c2,.5,3.5,1,5,1.5,2,.5,3,1,3.5,1,2,0,3.5,0,5.5-.5,1.5-.5,3.5-1,4.5-3,1.5-1.5,2.5-3,3-4.5.5-2,0-4-.5-5.5l-.5-1c-.5-1-1.5-2.5-2-3,1-.5,1.5-1,2-1.5,2.5-1.5,3.5-3.5,4-5Zm-17-7c4.5.5,5,1,5,1l.5.5c1,.5,1.5.5,1.5,1v2.5s0,1-.5,1c-.5.5-1.5.5-2.5.5-.5,0-1,0-2-.5-1,0-1.5-.5-2.5-.5l-3-.5,1.5-5.5s2,.5,2,.5Zm-1.5,14.5c2.5.5,4.5,1.5,5.5,2,.5.5.5,1,1,1.5.5.5.5,1,0,1.5v.5s0,1-.5,1c-.5.5-1.5.5-2.5.5-.5,0-1,0-2-.5-.5,0-1.5-.5-2.5-.5l-5-1,1.5-6,4.5,1Z"/>
        <path class="cls-1" d="m273.5,68.84l-7.5-2c-.5,0-1,0-1.5.5l-21.5,29.5,1-4v-1c0-.5-.5-.5-1-.5l-18-5,2-7,15.5,4c1,0,1.5-.5,1.5-1l1.5-5.5v-1c0-.5-.5-.5-1-.5l-15.5-4,1.5-5,17,4.5h1c.5,0,.5-.5.5-1l1.5-6c0-1-.5-1.5-1-1.5l-25-6.5c-1,0-1.5.5-1.5,1l-9,34v1s.5.5,1,.5l25.5,6.5h1v.5c0,.5.5,1,1,1l7.5,2c.5,0,1,0,1.5-.5l4.5-6,11.5,3,1,7.5c0,.5.5,1,1,1l7.5,2h.5c.33,0,.67-.17,1-.5.5-.5.5-1,.5-1l-4.5-37.5c0-1-.5-1.5-1-1.5Zm-6.5,20l-5.5-1.5,4.5-6.5s1,8,1,8Z"/>
        <path class="cls-1" d="m303,101.34c-.5,0-1-.5-1,0-.5,0-.5.5-1,1-.5,2-2,3-3.5,4-1,.5-2.5.5-4,0-2-.5-3-1.5-4-3.5-1-2.5-1-5.5.5-9,1-3,2.5-5.5,4.5-7,1.5-.5,3.5-1.5,6-.5,1.5.5,2.5,1.5,3.5,2.5s1,2.5,1,4c0,.5.5,1.5,1.5,1.5l7,.5c.5,0,1,0,1-.5.33-.33.5-.67.5-1,0-3-.5-6-1.5-8-2-3.5-5-6-10-7.5s-9.5-1-14,1c-4,2-7,6-9,12.5-1.5,6-1.5,11,.5,15,2,4.5,5.5,7,10.5,8.5,2,.5,4,1,5.5,1,2,0,3.5-.5,5-1,3.5-1,6-3.5,8.5-7,.5-.5,0-1.5-.5-2,0,0-7-4.5-7-4.5Z"/>
        <path class="cls-1" d="m350.5,93.39c0-.5-.5-.5-1-.5l-7-2c-1,0-1.5,0-1.5,1l-4,11.5-10.5-3.5,4-11.5v-1c0-.5-.5-.5-1-.5l-7-2c-.5,0-1.5,0-1.5,1l-11,33.5v1s.5.5,1,.5l7,2c.5,0,1.5,0,1.5-1l4.5-13,10.5,3.5-4.5,13v1c0,.5.5.5,1,.5l7,2h.5c.5,0,1-.5,1.5-1l11-33.5c0-.5,0-1-.5-1Z"/>
      </g>
    </g>
  </g>
</svg>