<?xml version="1.0" encoding="UTF-8"?>
<svg id="Calque_2" data-name="Calque 2" xmlns="http://www.w3.org/2000/svg" viewBox="0 0 390.52 41.5">
  <defs>
    <style>
      .cls-1 {
        fill: #e763a0;
      }
    </style>
  </defs>
  <g id="Calque_1-2" data-name="Calque 1">
    <g id="Calque_1-2" data-name="Calque 1-2">
      <g>
        <path class="cls-1" d="m389,23.5c-1-1.5-3-3-4.5-4s-4-2-8-3h-1c-2.5-.5-4.5-1-5-2-.33-.33-.5-.67-.5-1v-.5c1.5-.5,3-1,4.5-1s3,.5,3.5,1c.5.5,1,1.5,1.5,3.5,0,.5.5,1,1.5,1h7c1,0,1.5-.5,1.5-1.5,0-3.5-1.5-6.5-4-9-3-2.5-6-3.5-11-3.5-3,0-5.5.5-7.5,1.5-2,1-4,2-5,4s-1.5,3.5-1.5,6c0,3,1,6,3.5,8,1.5,1,4.5,2.5,8.5,3.5,3,.5,4.5,1,5,1.5,1,.5,2,1,2,1.5v1c0,1-.5,1.5-1.5,2.5-.5.5-1.5,1-3.5,1-1.5-.5-3.5-1-4.5-2-1-.5-1.5-1.5-2-4,0-.5-1-1-1.5-1l-7,.5c-.33,0-.67.17-1,.5,0,.5-.5.5-.5,1,.5,4.5,2.5,8,5,9,2.5,2.5,6.5,3.5,11,3.5,3,0,6,0,8-1,2.5-1,4.5-3,5.5-4.5,1.5-1.5,2.5-4,2.5-6,1-2,.5-4.5-1-6.5Z"/>
        <path class="cls-1" d="m354.5,3.5h-7c-1,0-1.5.5-1.5,1.5l-1,19.5c0,2.5,0,4.5-.5,5.5s-1,1.5-1.5,2.5c-1,.5-2,.5-3.5.5s-3-.5-3.5-1-1-1.5-1.5-2.5l.5-24.5c0-.5,0-1-.5-1s-.5-1-1-1h-7c-1,0-1.5.5-1.5,1.5l-.5,18.5c0,4,0,7,.5,9.5.5,1.5,1,3.5,2.5,4.5,1,1,2.5,2,4,3s4.5,1.5,8.5,1.5c3,0,5,0,7-.5h.5c1.5-1,3-2,4-3,1.5-1.5,2.5-3.5,3-5,.5-2,1-5,1-9.5l.5-18.5c0-.5,0-1-.5-1s-.5-.5-1-.5Z"/>
        <path class="cls-1" d="m315,3.5c-2-.5-5-1-9-1h0l-11.5-.5c-.5,0-1,0-1,.5s-.5.5-.5,1l-1,35c0,.5.5,1.5,1,1.5l7,1h0c.33,0,.67-.17,1-.5.33-.33.5-.67.5-1l.5-12h3c3.5,0,6,0,7.5-.5,1.5,0,3-.5,4.5-2,1-1,2-2,3-3.5s1.5-4,1.5-6.5c0-3-.5-5.5-2-7.5-.5-1.5-2.5-3.5-4.5-4Zm-4,9c.5,0,.5.5,0,0,.5.5,1,1.5,1,2.5,0,.33-.17.67-.5,1v.5c-.5,0-.5.5-1,.5s-.5.5-1,.5c-.5.5-2.5.5-5,.5h-2.5l.5-7h2.5c1.5,0,2.5,0,3.5.5h1.5c.5,0,1,.5,1,1Z"/>
        <path class="cls-1" d="m288,2l-10.5-.5c-.5,0-1,.5-1.5,1l-5.5,19-4-19c0-.5-.5-1-1.5-1l-10.5-.5c-.5,0-1,0-1,.5s-.5.5-.5,1l-1,28-10.5-28.5c0-.5-.5-1-1.5-1h-7.5c-.5,0-1,.5-1.5,1l-14,35v1.5c.33.33.67.5,1,.5h7.5c.5,0,1-.5,1.5-1l2.5-7h12l2.5,7c0,.5.5,1,1.5,1h14c1,0,1.5-.5,1.5-1.5l.5-15,3,16.5c0,.5.5,1,1.5,1h7c.5,0,1-.5,1.5-1l5-16.5-.5,16c0,.5,0,1,.5,1,.33.33.67.5,1,.5h6.5c1,0,1.5-.5,1.5-1.5l1-35c0-1-.5-1.5-1.5-1.5Zm-49.5,20h-6l3-7.5s3,7.5,3,7.5Z"/>
        <path class="cls-1" d="m200.5,9c1.5,0,3.5.5,4,1,.5.5,1.5,2,2,4,0,.5,1,1,1.5,1l7-1.5c.5,0,1-1,1-1.5-.5-3.5-2.5-6-4-7.5-3-3-7-4.5-11.5-4.5-5,0-9.5,2-13,5.5-3.5,3.5-5,8-5,14.5,0,5.5,1.5,10,5,14,3,3.5,7.5,5.5,12.5,5.5,4.5,0,7.5-1,10.5-3.5,3-2,4.5-5,5.5-9.5,0-.5,0-1.5-1-1.5l-6-2c-.5,0-1.5,0-1.5,1-1,2-1.5,4-3,5-1,1-2,1.5-4,1.5s-3.5-1-5-2.5c-1.5-2-2-5-2-8.5,0-4.5,1-7,2-8,1.5-2,3-2.5,5-2.5Z"/>
        <path class="cls-1" d="m164.5,29.5c-1.5-2.5-3-4.5-4-6l-1.5-1.5c2-.5,3.5-2,4.5-3,2-2,3-4.5,3-7.5,0-2.5-.5-4.5-1.5-6.5-1.5-2-3-3.5-4.5-4-2-.5-5-1-8.5-1h-15c-1,0-1.5.5-1.5,1.5v37h9c1,0,1.5-.5,1.5-1.5v-13h0c1.5,0,2,0,2.5.5.5,0,.5.5,1,.5s.5.5,1,.5c0,0,.5.5.5,1,.5,1,1.5,2.5,2.5,4l5,7.5c.33.33.67.5,1,.5h8.5c.5,0,1-.5,1-.5v-1.5s-4.5-7-4.5-7Zm-8-17v1.5c-.5.5-1,1-1.5,1-.5.5-3,.5-6,.5h-3.5v-6h8.5c.5.5,1.5.5,1.5,1,.5.5,1,1.5,1,2Z"/>
        <path class="cls-1" d="m130.5,30h-18v-6.5h16c1,0,1.5-.5,1.5-1.5v-6c0-1-.5-1.5-1.5-1.5h-16v-5h17.5c1,0,1.5-.5,1.5-1.5V2c0-1-.5-1.5-1.5-1.5h-26c-1,0-1.5.5-1.5,1.5v37h28c1,0,1.5-.5,1.5-1.5v-6c0-1-1-1.5-1.5-1.5Z"/>
        <path class="cls-1" d="m92,1c-1.5-.5-4.5-.5-9-.5h-11.5c-1,0-1.5.5-1.5,1.5v37h9c1,0,1.5-.5,1.5-1.5v-12h3c3.5,0,6,0,7.5-.5,1.5,0,3-.5,4.5-2,1-1,2-2,3-3.5v-.5c.5-2,1-4,1-6,0-3.5-.5-5.5-2.5-8-1-2-3-3.5-5-4Zm-2,12.5c0,.33-.17.67-.5,1-.5.5,0,.5-.5.5-.5.5-1,.5-1.5,1-.5.5-2.5.5-5,.5h-2.5v-6h7c.67,0,1.33.33,2,1,.5,0,1,1,1,2Z"/>
        <path class="cls-1" d="m64,.5h-7c-1,0-1.5.5-1.5,1.5v20c0,2.5,0,4.5-.5,5.5s-1,1.5-1.5,2.5c-1,.5-2,.5-3.5.5s-3-.5-4-1c-1-1-1-1.5-1.5-3-.5-.5-.5-3-.5-5.5V2c0-1-.5-1.5-1.5-1.5h-7c-1,0-1.5.5-1.5,1.5v19c0,4,.5,6.5,1,9,0,2,2,4,2,4.5,1,1.5,3,3,4.5,4h.5c1,.5,4,1,8,1,3,0,6,0,8-1l4.5-3s.5,0,.5-.5c1-1.5,1.5-3.5,2-5,.5-2,.5-5,.5-9.5V2c0-1-1-1.5-1.5-1.5Z"/>
        <path class="cls-1" d="m30,20.5c-1.5-2-3-3.5-4.5-4-2-1-4.5-2-8-2.5h-1c-2.5-.5-4.5-1-5-2-.33-.33-.5-.67-.5-1v-.5h0c1.5-1,2.5-1.5,4-1.5,2,0,3,0,3.5.5,1,1,1.5,1.5,1.5,3,0,1,.5,1.5,1.5,1.5h7.5c1,0,1.5-.5,1.5-1.5,0-3.5-1.5-6.5-4-9C23.5,1,20.5,0,15.5,0,12.5,0,10,0,8,1S4,3,3,5c-1,2-1.5,3.5-1.5,6,0,3.5,1,6,3.5,8.5,1.5,1,4.5,2.5,8.5,3.5,3.5.5,5,1,5.5,1.5l1.5,1v1c0,1-.5,1.5-1,2.5-.5.5-1.5,1-4,1-1.5,0-3-.5-4-1-1-1-1.5-2.5-2-4.5,0-.5-1-1.5-1.5-1l-6.5,1c-.33,0-.67.17-1,.5,0,.5-.5.5-.5,1,.5,4,2,7,5,10,2,2,6,3.5,11,3.5,3,0,6-.5,8-1.5,2.5-1,4.5-2,5.5-4.5,1-1.5,1.5-4,1.5-6.5.5-2.5,0-4.5-1-6.5.5.5,0,.5,0,0Z"/>
      </g>
    </g>
  </g>
</svg>