<?xml version="1.0" encoding="UTF-8"?>
<svg id="Calque_2" data-name="Calque 2" xmlns="http://www.w3.org/2000/svg" viewBox="0 0 426 199.87">
  <defs>
    <style>
      .cls-1 {
        fill: #e763a0;
      }
    </style>
  </defs>
  <g id="Calque_1-2" data-name="Calque 1">
    <g id="Calque_1-2" data-name="Calque 1-2">
      <g>
        <path class="cls-1" d="m56,191.38h-18v-6.5h16c1,0,1.5-.5,1.5-1.5v-6c0-1-.5-1.5-1.5-1.5h-16v-5h17.5c1,0,1.5-.5,1.5-1.5v-6c0-1-.5-1.5-1.5-1.5h-25.5l-27-8h-1c-.5,0-.5.5-.5,1l-1.5,5.5c0,.5,0,1.5,1,1.5l8.5,2.5-8,26.5v1c0,.5.5.5,1,.5l7,2h.5c.5,0,1-.5,1.5-1l8-26.5,8.5,2.5v30h28c1,0,1.5-.5,1.5-1.5v-6s-.5-.5-1.5-.5Z"/>
        <path class="cls-1" d="m95.5,161.87h-10.5c-.5,0-1,.5-1.5,1l-5,19-5-19c0-.5-.5-1-1.5-1h-10.5c-1,0-1.5.5-1.5,1.5v35c0,1,.5,1.5,1.5,1.5h6.5c1,0,1.5-.5,1.5-1.5v-16l4,16.5c0,.5.5,1,1.5,1h7c.5,0,1-.5,1.5-1l4-16.5v16c0,1,.5,1.5,1.5,1.5h6.5c1,0,1.5-.5,1.5-1.5v-35c0-1-.5-1.5-1.5-1.5Z"/>
        <path class="cls-1" d="m119.5,159.92c-1.5,0-4,0-8.5.5l-11.5,1c-.33,0-.67.17-1,.5-.33.33-.5.67-.5,1l3.5,35c0,.33.17.67.5,1,.5,0,.5.5,1,.5h0l7.5-1c1,0,1.5-1,1-1.5l-1.5-11.5,3-.5c4,0,7-.5,8-1l.5-.5c1-.5,2-1,3-2s2.5-3,3-4.5.5-4,.5-6c0-3-1-5.5-3-7.5-.5-1.5-2.5-3-5.5-3.5Zm-10,16.5l-.5-7,2-.5c2-.5,3.5-.5,4.5-.5.33,0,.67.17,1,.5.5,0,1,.5,1.5,1l.5.5s.5.5.5,1.5,0,1.5-.5,2.5c-.5.5-.5,1-1.5,1.5-.5,0-1,.5-2.5.5-.5,0-1.5,0-2.5.5,0,0-2.5-.5-2.5-.5Z"/>
        <path class="cls-1" d="m160.5,160.43c-3.5-3-8.5-4.5-14-4-3.5,0-6,1-8,2-1.5.5-3.5,2-4.5,4-1,1.5-2,3-2.5,5.5s-1,5.5-.5,9.5c.5,5,2,9.5,6,14.5,3,2.5,7,4,11.5,4h2.5c6-.5,10.5-3,13-6.5,2.5-4.5,3.5-9,3-15-.5-6.5-2.5-11-6.5-14Zm-5,22c-1,2-2.5,3-5.5,3.5-3,0-5-.5-6.5-2-1.5-1-2.5-3.5-3-7.5s0-7,1.5-8c1-2,2.5-3,5.5-3.5,2.5-.5,4.5,0,6.5,1.5,1.5,1,2.5,3.5,3,7.5s0,7-1.5,8.5Z"/>
        <path class="cls-1" d="m264.5,146.88c-1-.5-1.5-1-2-1.5-1.5-1-3-2-4-2-.5-.5-1-.5-2-.5,1.5-1.5,2.5-3,3-4.5.5-2.5.5-5-.5-7.5-.5-2.5-2.5-4.5-4-5.5-2-1-3.5-1.5-6-1.5s-5,1-8.5,2.5l-13.5,6c-.5.5-1,1-.5,2l12,27.5-23-23c-.5-.5-1-.5-1.5-.5l-7.5,2.5c-.5,0-1,1-1,1.5l1.5,37.5-5.5-5-2-1.5c-1.5-1-3-2-3.5-3-.5-.5-1.5-1-2-1,2-1.5,3-2.5,4-4,1-2,1.5-5,.5-8-.5-2-1.5-4-3.5-6-1.5-1-3-2-5.5-2-1.5-.5-4.5,0-8.5,1l-14.5,4c-.5,0-1,1-1,1.5l9,34c0,.5.5.5.5,1h1l7-2c.5,0,1-1,1-1.5l-3-12.5h.5c1.5-.5,2-.5,3-.5.33,0,.67.17,1,.5q.5.5,1,.5c.5,0,1.5,1,2,2,.5.5,1.5,1.5,2.5,2l7,6c.5.5,1,.5,1.5.5l8-2c.5,0,1-.5,1-1h1l7-3c.5,0,1-1,1-1.5l-.5-7.5,11-4.5,5.5,5.5c0-1,1-1,1.5-1l7-3c.5,0,.5-.5.5-.5h0l5.5-3.5c.5-.5,1-1,.5-2l-5.5-12h0c.5,0,1-.5,1-.5,1-.5,1.5-.5,2-.5.67,0,1.33.17,2,.5,1,.5,2.5,1.5,5.5,3.5l8,5c.5,0,1,.5,1.5,0l8-3.5c.5,0,1-.5,1-1s0-1-.5-1.5c0,0-7-5-7-5Zm-76,15v.5l-.5.5-.5.5c-.5.5-2,1-4,1.5l-5,1.5-1.5-5.5,4-1c1,0,2-.5,2.5-.5,1,0,2-.5,2-.5h.5c.5,0,1,0,1.5.5s1,1.5,1,2c0-.33,0-.17,0,.5Zm27.5-9l5.5,5.5-5,2.5s-.5-8-.5-8Zm31-19.5c.5-.5,1-.5,1.5,0s1,1,1.5,2c.5.5.5,1,.5,2l-.5,1c-.5.5-2.5,1.5-5,2.5l-4,1.5-2.5-5.5,3.5-1.5c2-.5,3-1,4-1.5.5,0,.5-.5.5-.5,0,.33.17.33.5,0Z"/>
        <path class="cls-1" d="m285,130.42l3-23.5c0-.5,0-1-.5-1.5s-1-.5-1.5,0l-7.5,3.5c-.5,0-1,.5-1,1l-1.5,13.5-11.5-7.5h-1l-7.5,3.5c-.5,0-1,.5-1,1s0,1,.5,1.5l20,13,6.5,13c0,.5,1,1,1.5,1h.5l6.5-3c.5,0,.5-.5.5-1v-1s-6-13.5-6-13.5Z"/>
        <path class="cls-1" d="m312,93.43l7-6c.5,0,.5-.5.5-1s0-.5-.5-1l-3.5-4.5c-.5-.5-1.5-.5-2,0l-21,18.5c-.5,0-.5.5-.5,1s0,.5.5,1l4,4.5c.5.5,1.5.5,2,0l7-6,18,21.5c.33.33.67.5,1,.5h0c.33,0,.67-.17,1-.5l5-5c.5-.5.5-1.5,0-2,0,0-18.5-21-18.5-21Z"/>
        <path class="cls-1" d="m341,61.38c-5,0-9.5,1.5-13.5,5.5-2,1.5-3.5,3.5-5,6.5-.5,2-1,4-1,6s.5,4.5,1,6.5c1,3,3,5.5,5.5,8,3.5,4,8,6.5,13.5,7h1.5c4,0,8-2,12-5.5,4-4,6-8.5,6-13,0-5-2-10-6.5-14-4.5-5-9-7-13.5-7Zm10,21c0,2-1,4.5-2.5,6s-3,2-6,2c-2,0-5-1.5-7-4h0c-2.5-2-3.5-4.5-3.5-7.5,0-2,1-4.5,2.5-6s3.5-2,6-2c2,0,4.5,1.5,6.5,4,2.5,2.5,4,5.5,4,7.5Z"/>
        <path class="cls-1" d="m377,22.43c0-.5-.5-.5-1-.5s-1,0-1,.5l-5,5c-.5.5-.5,1,0,2l10.5,16-17-10c-.5-.5-1.5,0-1.5,0l-6,6c-.5.5-.5,1,0,1.5l9.5,16.5-16-10.5c-.5-.5-1.5-.5-2,0l-5,5c-.33.33-.5.67-.5,1,0,.5.5,1,.5,1l31,19h.5c.33,0,.67-.17,1-.5l5.5-4.5c.5-.5.5-1,.5-2l-11.5-17.5,19,11c.5.5,1,0,1.5,0l5.5-5.5c.5-.5.5-1,0-1.5l-18.5-32Z"/>
        <path class="cls-1" d="m425.5,27.43L403,.38c-.5-.5-1.5-.5-2,0l-5,4c-.5,0-.5.5-.5,1s0,1,.5,1l11.5,14-21-7.5h-1.5l-5.5,4.5c-.5,0-.5.5-.5,1s0,1,.5,1l22.5,27.5c.33.33.67.5,1,.5s.67-.17,1-.5l5-4c.5,0,.5-.5.5-1s0-1-.5-1l-11.5-13.5,21,7h1.5l5.5-4.5c.5,0,.5-.5.5-1s-.5-1-.5-1.5v.05Z"/>
      </g>
    </g>
  </g>
</svg>