<?xml version="1.0" encoding="UTF-8"?>
<svg id="Calque_2" data-name="Calque 2" xmlns="http://www.w3.org/2000/svg" viewBox="0 0 30.43 20.83">
  <defs>
    <style>
      .cls-1 {
        fill: #56513b;
        stroke: #000;
        stroke-miterlimit: 10;
        stroke-width: .1px;
      }
    </style>
  </defs>
  <g id="Calque_1-2" data-name="Calque 1">
    <path class="cls-1" d="m15.61,20.78c-.11,0-.23,0-.36-.01H6.11c-.16,0-.29,0-.42,0-.12,0-.26-.01-.42-.02h-.02c-1.41-.11-2.72-.74-3.69-1.78C.59,17.93.05,16.57.05,15.14c0-2.76,1.97-5.1,4.7-5.56h.07v-.17c0-2.44,1.98-4.42,4.42-4.42.41,0,.82.06,1.22.17l.12.04-.02-.13c-.03-.2-.04-.4-.04-.6C10.52,2.03,12.5.05,14.94.05s4.42,1.98,4.42,4.42c0,.11,0,.22-.02.35v.19s.14-.11.14-.11c.98-.74,2.15-1.13,3.38-1.13,3.11,0,5.64,2.53,5.64,5.64,0,.98-.26,1.95-.75,2.8l-.05.08.09.04c1.57.72,2.59,2.3,2.59,4.02,0,2.44-1.98,4.42-4.42,4.42h-10.02c-.12.01-.23.01-.33.01h0Z"/>
  </g>
</svg>