<?xml version="1.0" encoding="UTF-8"?>
<svg id="Calque_2" data-name="Calque 2" xmlns="http://www.w3.org/2000/svg" viewBox="0 0 20.09 39.02">
  <defs>
    <style>
      .cls-1 {
        fill: #56513b;
        stroke: #000;
        stroke-miterlimit: 10;
        stroke-width: .1px;
      }
    </style>
  </defs>
  <g id="Calque_1-2" data-name="Calque 1">
    <path class="cls-1" d="m19.89,12.48c0-.17.25-1.82-.26-3.26-.1-.27-.28-.71-.71-1.06-.15-.13-.64-.54-1.23-.47-.67.08-1.06.73-1.3,1.11-.48.82-.6,1.65-.62,2.88-.03,1.63-.03,3.17,0,4.62.02,1.08.04,1.21-.03,2.62-.07,1.22-.01,1.7-.15,2.8-.13.99-.2,1.5-.5,2.06-.41.76-1.92,1.82-2.57,2.22-.57-17.94-.88-20-.82-24.04.04-3.05-4.3-1.85-4.23-.5,0,0-.97,11.3-.21,17.15,0,0,.08,3.36.24,7.36-.67-.41-2.11-1.44-2.51-2.18-.31-.56-.37-1.07-.5-2.06-.14-1.09-.09-1.57-.15-2.8-.08-1.41-.05-1.54-.03-2.62.03-1.46.03-3,0-4.62-.02-1.23-.13-2.06-.62-2.88-.23-.39-.63-1.04-1.3-1.11-.59-.07-1.08.34-1.23.47-.43.35-.61.79-.71,1.06-.52,1.44-.26,3.09-.26,3.26,0,2.74-.25,2.68-.09,6.42.07,1.55.33,2.64,1.02,3.97.97,1.86,2.37,3.11,2.99,3.56,1.24.91,2.63,1.18,3.47,1.41.22,5.01.56,10.33,1.02,10.97,0,0,3.28.36,4.42-.03-.11-2.45-.25-6.01-.41-10.55-.01-.17-.01-.31-.01-.41.85-.23,2.18-.51,3.38-1.39.62-.45,2.02-1.7,2.99-3.56.69-1.33.95-2.42,1.02-3.97.15-3.74-.1-3.68-.1-6.43h0Z"/>
  </g>
</svg>