<?xml version="1.0" encoding="UTF-8"?>
<svg id="Calque_2" data-name="Calque 2" xmlns="http://www.w3.org/2000/svg" viewBox="0 0 256 75.5">
  <defs>
    <style>
      .cls-1 {
        fill: #212121;
      }

      .cls-2 {
        fill: #4e4d4d;
      }
    </style>
  </defs>
  <g id="Calque_1-2" data-name="Calque 1">
    <g>
      <ellipse class="cls-2" cx="131.45" cy="28.57" rx="124.55" ry="24.28"/>
      <ellipse class="cls-2" cx="38.93" cy="63.58" rx="4.18" ry="1.27"/>
      <ellipse class="cls-2" cx="226.99" cy="66.09" rx="4.18" ry="1.27"/>
      <path class="cls-2" d="m8.36,24.86l2.69-5.67s6.69-4.25,7.89-4.25,15.85-3.42,15.85-3.42l12.69-2.69,5.67-1.89h5.56l7.53-.95,7.53-2.91h4.14s5.27,1.31,5.67,1.24,5.27.33,5.67,0,5.02-2.51,5.02-2.51c0,0,7.27.22,7.67-.07.4-.29,10.8,0,10.8,0l6.4.07,4,1.24,6.98-.65,4.69-.84,4.54-1.56,3.56,1.13,5.67,1.93s9.09,1.45,9.67,1.24c.58-.22,8.11-1.24,8.11-1.24h7.42l5.13,1.24s6.4.95,6.83.95,7.27,1.89,7.67,1.64,13.92,1.2,13.92,1.2c0,0,4.83-.95,5.27-1.2s5.96,1.35,5.96,1.35c0,0,4.07,1.71,4.25,1.85.18.15,6.94,1.13,6.94,1.13l7.02,2.29,7.96,2.98,4.07,3.96"/>
      <ellipse class="cls-2" cx="40.5" cy="3.05" rx="4.18" ry="1.24"/>
      <ellipse class="cls-2" cx="4.18" cy="72.92" rx="4.18" ry="2.58"/>
      <ellipse class="cls-2" cx="198.49" cy="4.32" rx="4.18" ry="2.58"/>
      <path class="cls-1" d="m26.97,20.25s8.58.62,11.96,3.13c3.38,2.51,8.94,6.25,10.07,6.25s13.38,3.34,14.36,2.94c.98-.4,2.84,2.51,3.27,2.51h7.13l-7.13-2.29s-3.42-3.78-3.85-3.78-5.42,1.05-5.42,1.05l-8.83-2.4-2-1.56h4.98c.87,0,4-2.73,5.27-2.73s8.25-.4,9.09,0,7.82,7.09,7.82,7.09l7.13,3.13,7.67,2.51,5.67,1.89h2.98s-4.4-3.78-4.83-3.78-8.69-3.78-8.69-3.78l-9.82-5.02-4.69-5.23s3.13-1.24,4,0,4.83,3.34,5.42,3.56c.58.22,5.96.4,6.54.62.58.22,5.42,1.24,5.42,1.24,0,0,5.56,2.58,5.96,3.16s4.4,0,4.4,0l-14.37-15.09-1.78-4.07s4.4,4.8,4.83,5.02c.44.22,7.27,6.25,7.27,6.25l5.13,4.8,4.54,2.73s.44,1.89.98,2.11c.55.22,3.85-.84,3.85-.84l2.84-1.24,2.4,2.29,1.42.22.91-5.49v-3.74l-.98-7.74.98-4.4.58,10.03.87,3.13v4.4l1.13,2.73,2.91-.22,4.18-.22s3.85-2.73,4.25-2.73,4.14-5.02,4.14-5.02c0,0,3.38-2.04,3.82-2.04s6.25-4.18,6.25-4.18l-4.4,4.58-4.25,3.78h2.84l-.73,2.51-1.56,1.45,2.54-.62,4.98-3.34,4.98-2.11v2.11s2.54.62,2.98,0,9.82-5.02,9.82-5.02l12.51-4.8,5.67-2.73h3.13l-9.82,6.69-8.47,3.96-26.17,10.65s9.82-2.73,10.8-2.73,17.92-6.07,17.92-6.07l12.51-6.47,6.11-4.18,5.89.22,7.34.84,3.71,1.67,4.4,2.29,1.56,2.29-4.22,2.11h-6.11l-4,1.24-4.83,1.67-3.85,1.89-5.13.62s-2,2.11-3.42,2.94c-1.42.84-8.4,2.51-8.83,2.73-.44.22-11.67,4.4-11.67,4.4l-4.4,1.89s7.27-1.67,8.69-2.11c1.42-.44,11.52-2.94,11.96-2.94s5.56-1.89,5.96-2.11c.4-.22,2.4-1.24,2.4-1.24l5.96-.84,4.47-2.51,5.49-1.24s5.56-1.05,5.96-1.05,8.11-1.16,8.11-1.16l4.83-2.4h14.65l6.11.84,5.13,1.56v2.62l-6.91,2.11-5.56,2.29-5.09,1.05-3.27,1.45-6.98.62-3.42,1.45-4.11.62h-6.54l-5.85,1.45h-3.85l-4.11,1.45-6.4,3.34-7.27,1.45-11.82,2.14h16.8l4.14-1.89,4.98-.62,3.27-1.24,4.4-.62,7.82-.62,2.29-1.05,4.83-.22,4.54-1.05,4.25-.84,5.56-1.89,7.53-2.51s6.11-2.29,6.54-2.29,4.25-.4,4.25-.4l4.44-.62,2.14-2.73-2-5.42-7.96-2.51-11.27-4.62-5.71-.62-6.4-2.51-5.53-.84-3.13-.62-8.25-.62-5.96-.84-11.09-1.45-6.29-1.24-3.71-.87-4.94.87-5.13-.87-5.13.87-6,1.42-5.09-1.42-5.96-2.58h-7.27l-4.69,1.74-5.34.84-6.3-2.55-6.25.91-5.96.22-8.54-.22-6.29.58-3.13,1.09h-3.56l-6.98-.87-6.65.87-5.27,1.24-5.27.22-4.54,1.45-1.71.62-3.56-.4-9.82,2.51-10.26,2.51-7.96,1.45-6.83,2.11-2.14,3.78,6.11,3.2h9.38l6.69,4.33,6.54,1.45,7.27,2.51s6.98,3.34,7.53,3.34,17.09,2.73,17.09,2.73l12.11,1.45s-5.56-2.29-6.54-2.29-11.67-1.67-12.8-1.67-10.11-2.11-10.69-2.11-7.82-3.34-8.25-3.34-9.67-2.94-9.67-2.94l-6.94-4.44s-3.71-1.05-4.4-1.05-4.54-.4-4.54-.4l4.8-2.91h0Z"/>
    </g>
  </g>
</svg>