<?xml version="1.0" encoding="UTF-8"?>
<svg id="Calque_2" data-name="Calque 2" xmlns="http://www.w3.org/2000/svg" viewBox="0 0 23.53 40.1">
  <defs>
    <style>
      .cls-1 {
        fill: #57523b;
        stroke: #000;
        stroke-miterlimit: 10;
        stroke-width: .1px;
      }
    </style>
  </defs>
  <g id="Calque_1-2" data-name="Calque 1">
    <path class="cls-1" d="m23.44,31.22l-4.4-6.47,2.78.67s.03.01.05.01h0c.12,0,.21-.1.21-.21,0-.05-.02-.1-.05-.13l-3.64-6,2.26.65c.08.02.17,0,.22-.07.05-.06.07-.15.03-.23L11.97.17c-.04-.08-.12-.13-.21-.12-.09,0-.17.04-.21.12L2.62,19.44c-.03.08-.02.16.03.23.05.06.14.09.22.07l2.44-.66-3.83,6.02c-.05.07-.04.17,0,.24s.14.1.22.08l2.79-.67L.09,31.25c-.05.07-.05.16,0,.23s.13.11.21.1l9.03-1.36v9.62c0,.12.1.21.21.21h4.44c.12,0,.21-.1.21-.21v-9.62l9.04,1.36h.03c.12,0,.21-.1.21-.21.02-.06,0-.11-.03-.15h0Z"/>
  </g>
</svg>