<?xml version="1.0" encoding="UTF-8"?>
<svg id="Calque_2" data-name="Calque 2" xmlns="http://www.w3.org/2000/svg" viewBox="0 0 255.97 91.38">
  <defs>
    <style>
      .cls-1 {
        fill: #4e4d4d;
      }
    </style>
  </defs>
  <g id="Calque_1-2" data-name="Calque 1">
    <g>
      <path class="cls-1" d="m250.09,80.85c-2.59-3.69-2.46-4.03-4.03-5.74-2.25-2.46-4.58-3.96-6.21-4.98-3.48-2.19-3.89-1.71-6.76-3.76-1.64-1.16-3.62-2.53-5.46-4.98-2.05-2.8-1.64-3.89-3.55-5.53-1.64-1.37-2.66-1.23-5.33-2.39-1.71-.75-3.35-1.98-6.42-4.37-1.3-1.02-2.25-1.78-10.65-9.29-2.8-2.46-4.17-3.76-4.64-5.19-.2-.61-.41-1.78-1.43-2.46-1.09-.82-2.39-.61-2.59-.61-1.78.27-2.87,1.84-3.82,3.14-2.59,3.41-2.39,1.5-10.58,8.88-.68.61-1.98,1.84-3.69,1.71-1.02-.07-1.78-.68-2.32-1.09-2.94-2.32-5.26-4.64-5.8-5.19-3.35-3.28-3.89-2.39-5.87-4.78-1.78-2.12-1.37-2.94-3.28-6.21-1.98-3.41-4.1-5.67-5.87-7.58-2.05-2.19-2.05-1.78-7.1-6.42-3.35-3.07-5.05-4.58-6.35-6.08-1.71-1.91-3.76-3.48-5.19-5.6-.68-.96-1.37-2.19-2.59-2.32-.89-.07-1.71.55-2.39,1.23-2.32,2.19-3.07,3.69-4.44,5.33-1.5,1.78-2.94,2.8-5.87,4.92-2.12,1.5-3.14,2.25-4.37,2.73-1.43.61-2.32.75-3.41,1.71-.96.82-.89,1.37-1.84,2.73-1.23,1.78-1.78,1.71-3.82,3.89-2.32,2.53-1.78,2.87-3.14,3.82-1.91,1.37-2.87.55-5.33,2.05-1.71,1.02-2.8,2.39-3.21,2.87-1.3,1.64-1.64,2.87-3.48,4.71-1.02,1.02-1.43,1.16-1.78,1.16-1.02,0-1.5-1.23-3.14-2.39-1.23-.89-1.5-.61-2.87-1.37-1.84-1.09-2.32-2.25-6.35-6.49-.55-.61-1.09-1.16-1.84-1.16s-1.23.68-2.59,2.05c-1.09,1.16-1.98,1.98-2.25,2.25-2.66,2.46-3.82,2.12-4.98,4.03-.68,1.16-.27,1.3-1.16,2.73-.96,1.57-2.05,2.53-2.94,3.28-.48.41-.68.55-4.03,2.66-2.66,1.71-3.14,1.98-3.76,2.73-.96,1.16-.68,1.5-1.64,2.73-.82,1.09-1.78,1.71-3.76,2.94-3.28,2.12-3.82,1.84-4.71,3-.96,1.3-.61,1.84-1.78,3.28-.55.61-1.43,1.78-2.87,2.25-1.91.61-2.59-.61-4.64-.34-1.64.2-2.87,1.43-5.33,3.82-1.78,1.78-2.05,2.46-3.76,3.69-1.37.96-1.71.89-2.66,1.71-1.78,1.43-2.12,3-2.94,4.44-.68,1.23-3,2.73-7.65,5.8-2.66,1.71-5.19,3.55-7.85,5.26-.96.61-2.05,1.37-1.98,1.5.14.2,2.12-.55,3.69-1.23,2.32-1.09,4.03-2.32,4.37-2.59,2.19-1.64,3.14-2.8,3.48-2.59.41.27-.48,2.19-.55,2.32-.96,2.05-2.39,3.07-2.32,3.21.07.07,1.78-.68,3-2.39,1.09-1.64.82-2.66,2.12-4.03.75-.75,1.43-1.02,1.98-1.37,2.39-1.23,3.14-2.87,5.74-5.74,3.55-3.89,6.76-6.01,7.58-6.49,2.87-1.84,4.64-2.25,5.87-2.39,1.3-.14,3.35-.41,5.05.82,1.23.89,1.71,2.12,2.05,1.98.27-.14.27-1.23-.2-2.12-.61-1.23-1.57-1.23-1.71-2.05-.2-1.16,1.57-2.39,1.84-2.59,1.16-.82,1.78-.61,2.59-1.5.41-.55.48-.89.96-1.16.68-.41,1.3-.14,1.84-.07.55,0,1.64-.14,4.44-4.1,2.39-3.28,2.12-3.82,3.48-4.78,1.23-.89,1.64-.55,3.76-1.78,1.02-.61,2.19-1.3,3.21-2.46,1.09-1.3.89-1.78,1.98-3.89,1.3-2.59,2.8-4.17,4.3-5.74,1.3-1.37,2.66-2.8,3.28-2.46.55.27-.07,1.71.2,4.3.2,1.84.61,1.84.89,3.69.14.96.68,4.03-.68,6.49-.48.96-1.02,1.3-3.69,3.21-6.21,4.51-6.08,4.37-7.1,5.19-3.21,2.59-2.87,3-5.6,4.98-1.02.68-2.05,1.37-3.28,2.66-1.23,1.23-1.3,1.71-2.32,2.87-1.64,1.78-2.32,1.64-4.17,3.21-1.64,1.37-1.16,1.5-4.17,5.05-2.12,2.46-3.69,4.03-4.1,4.37-1.64,1.57-3,2.66-3.28,2.87-.55.41-2.25,1.71-4.78,3.28-2.39,1.43-3.48,1.91-3.41,2.12.14.34,2.59-.07,4.64-.68,1.37-.48,3.89-1.3,6.15-3.41.96-.82.96-1.09,2.05-2.05.68-.61,3.21-2.73,4.1-2.12.27.2.27.68,0,2.73-.55,3.69-.89,5.19-.68,5.26.2.07,1.09-1.37,1.64-3.14.68-2.53-.14-3.21.61-5.05.48-1.23,1.5-2.66,2.94-3.55.68-.41,1.3-.68,2.25-1.5.82-.75.89-1.09,1.43-1.64,1.09-1.16,1.98-.82,4.1-1.71,1.98-.82,1.98-1.43,4.78-2.73,2.19-1.02,2.59-.82,2.73-.68.41.34-.14,1.23-.61,3.48-.41,1.78-.2,1.78-.41,2.66-.82,3-3.48,4.44-3.28,4.71.14.2,1.84-.34,3.14-1.71.96-1.02.96-1.71,2.39-4.1.68-1.16.75-1.16,1.43-2.25,1.64-2.66,1.64-3.69,2.66-5.53,1.23-2.25,1.78-1.71,4.51-5.26,2.05-2.59,1.64-2.73,3.82-5.46.27-.34,2.25-2.73,5.46-4.78,1.09-.75,1.91-1.09,2.32-.82.75.55-.48,3.21-.07,3.41.34.2,1.78-1.98,2.39-3,0,0,2.8-4.37,5.53-8.47,2.46-3.69,3.28-4.44,4.03-4.98,1.71-1.3,3.55-1.98,4.51-2.25,2.87-.82,5.26-.82,5.26-.82.89,0,1.71.07,2.73-.27,1.09-.34,1.09-.75,2.12-1.09,1.43-.48,2.73-.2,3.55-.07,1.5.27,2.25.75,2.32.61.14-.2-1.78-1.57-3.89-2.46-.89-.41-1.64-.68-2.66-.89-1.84-.34-2.66.07-2.94-.34-.41-.61,1.02-2.12,2.59-3.82,1.16-1.23,1.78-1.84,2.66-2.32,1.16-.55,1.64-.34,2.66-.96,1.02-.61,1.23-1.23,2.05-2.12.96-1.02,1.3-.89,3.55-2.39,3-1.98,4.44-3,5.74-4.3.61-.68,1.16-1.37,1.78-1.23.48.07.61.68,1.43,2.32.48.89.96,1.84,1.64,2.87.96,1.37,1.16,1.23,1.71,2.12.68,1.16.34,1.57.89,3.48.34,1.09.75,2.53,1.78,3.82.82,1.02,1.09.82,2.32,2.12,1.02,1.09,1.64,1.78,1.98,2.66.82,2.32-.96,3.48,0,5.46.55,1.09,1.3,1.09,1.84,2.59.27.75.27,1.16.68,1.78.61.82,1.3,1.09,1.78,1.43.82.55,1.37,1.5,1.98,6.08.55,4.37.2,4.3.68,6.49.34,1.43.75,3.28,1.98,5.26,1.16,1.98,2.32,2.8,2.87,4.64.07.27.2.68.55.96.82.68,1.91-.07,2.66.55.41.34.61,1.02.55,1.5-.14.89-.96.96-1.37,2.05-.27.68,0,.82-.2,1.43-.34,1.09-1.71,2.05-3,2.05-.96,0-.89-.48-3.21-1.64-1.57-.75-2.12-.75-2.87-1.5s-.55-1.02-1.23-1.71c-1.02-1.02-1.78-.75-3.28-1.64-.07-.07-1.71-.96-2.87-2.59-1.02-1.43-.61-1.91-1.43-3.76-.75-1.71-2.05-2.94-4.51-5.33-1.23-1.16-1.84-1.78-2.66-2.32-2.05-1.3-2.66-.82-4.1-1.98-1.43-1.16-.89-1.71-3-3.89-.89-.89-1.37-1.16-1.98-2.12-.75-1.16-.61-1.57-1.23-2.32-.75-.89-2.05-1.57-3.28-1.64-1.57,0-2.8,1.16-5.19,3.48-2.12,2.05-1.57,2.05-2.66,2.87-2.46,1.84-3.89.96-6.42,2.94-.82.68-1.16,1.16-2.39,1.98-.96.61-1.37.75-2.46,1.5-.27.2-1.3.82-2.05,1.5-1.64,1.37-1.57,2.12-3.14,3.89-1.57,1.84-1.78,1.3-3.69,3.41-1.37,1.5-1.43,2.05-2.87,3.41-.68.61-1.43,1.37-2.59,2.05-2.39,1.43-3.35.82-4.99,2.25-.2.14-.68.82-1.78,2.25-1.16,1.5-1.43,1.91-2.46,3.28-1.09,1.37-1.64,2.12-2.05,2.39-1.43,1.16-2.12.68-3.28,1.78-.89.82-.68,1.16-1.84,2.39-.75.75-1.43,1.3-1.84,1.64-.89.68-1.57.96-3.14,1.78-3.62,1.84-3.96,2.12-3.89,2.32.07.48,2.25.48,2.94.41,1.23,0,2.12-.2,2.66-.34,1.84-.48,3.35-1.3,3.28-1.43,0-.07-.55.14-.61,0-.14-.27,1.5-1.23,3.55-3.14,1.23-1.16,1.16-1.3,1.78-1.64,1.23-.61,2.12-.34,2.94-1.16.48-.48.61-.89.82-1.43.68-1.57,1.78-2.46,4.03-4.3,2.12-1.71,3.55-2.94,4.17-2.46.27.14.27.55-.41,4.1-.55,2.53-.75,3.76-1.16,4.78-.61,1.71-.89,1.64-1.78,3.76-1.23,2.73-1.91,5.53-1.64,5.6.2.07.48-1.02,1.78-2.32,1.16-1.16,1.57-1.09,2.12-1.98.61-1.02.27-1.5.82-2.73.55-1.16,1.09-1.09,1.84-2.25.96-1.37,1.23-3,1.71-6.35.14-1.16.2-1.71.61-2.46.61-1.02,1.23-1.16,1.78-2.12.61-1.09.2-1.57.55-2.87.27-1.09.75-1.3,3.21-4.1,2.19-2.46,1.91-2.39,2.66-3,1.71-1.5,2.19-1.16,4.03-2.66,1.98-1.64,1.64-2.25,3.41-3.48,1.23-.89,1.37-.55,4.3-1.84,2.25-1.02,3.55-1.64,5.05-2.87,1.57-1.23,2.05-2.05,2.46-1.84.68.27.27,2.73-.27,4.3-.61,1.84-1.71,3.14-2.12,3.69-.27.34-.34.41-2.39,2.32-1.5,1.43-2.25,2.12-2.39,2.32-1.09,1.37-1.02,2.19-1.84,4.71-1.09,3.07-1.5,2.59-2.46,5.53-1.23,3.48-.61,4.1-1.78,5.46-.61.75-1.57,1.43-1.98,2.87-.07.2-.34,1.3,0,1.5.55.34,2.19-1.23,3.28-2.66,1.23-1.64,1.43-2.66,3-7.24,1.43-4.17,1.98-5.39,2.59-6.42.68-1.23,1.3-2.32,2.39-3.55,1.16-1.3,2.59-2.39,3.69-3.21,1.23-.96,1.23-.82,1.64-1.23,1.5-1.57,1.37-2.87,2.39-3.28.96-.34,1.98.27,2.46.61,1.43.89,1.91,2.39,2.05,2.73.34,1.09.07,1.37.41,1.78.89.89,2.73-.34,3.69.41.61.55.34,1.57.2,3.48,0,0-.27,3.28.41,6.76.41,1.98.75,3.62,2.05,5.05,1.09,1.16,2.73,2.12,3,2.32,1.5.89,2.05.82,2.66,1.64.82,1.02.14,1.57.89,3.21.68,1.43,1.37,1.43,2.05,3.14.27.61.48,1.23.41,2.05-.07,1.16-.75,1.91-1.78,3.14-1.98,2.32-3.62,4.23-3.41,4.51.14.14.82-.2,2.59-1.16,3-1.64,4.51-2.46,4.71-2.59,1.37-.89,2.66-1.98,5.26-4.17,3-2.53,2.87-2.59,4.03-3.41,2.25-1.5,2.73-1.3,4.71-2.73,1.64-1.23,2.8-2.59,3.48-3.41,1.5-1.84,1.3-2.25,2.46-3.48,1.5-1.57,2.05-1.09,3.89-2.59,1.64-1.3,2.53-2.73,4.03-5.19.89-1.43,1.3-2.12,1.71-3.14.82-2.12.41-2.94,1.37-4.51.75-1.3,1.71-1.98,2.32-2.46,1.57-1.16,2.53-1.23,4.17-1.98,2.05-.89,3.41-2.12,6.15-4.64,1.37-1.23,2.73-2.39,4.1-3.69,1.02-.96,2.25-2.12,2.87-1.78.34.2.14.75.61,1.71.41.75.75.75,1.09,1.37.61,1.09-.14,1.91.07,3.41.14.96.68,1.64,1.78,3,1.16,1.43,1.71,1.64,2.87,2.94,1.09,1.23,1.37,1.91,2.32,3.28,1.98,2.94,4.17,4.78,6.21,6.56,2.12,1.84,3.21,2.73,4.44,3.14,2.25.61,3.07-.27,5.46.55,1.64.55,2.66,1.5,4.03,2.66,1.3,1.16,2.25,1.98,2.94,3.41.75,1.5.48,2.12,1.23,2.66,1.02.75,2.19,0,3.48.89.34.27.48.41,1.09,1.23,1.09,1.43,2.05,2.73,2.73,3.55,1.02,1.09,1.98,1.78,3.41,2.66,1.37.89,1.3.68,3.82,2.12,1.64.96,2.53,1.43,3.48,2.25,1.37,1.09,1.3,1.3,2.05,1.71.34.2,1.3.61,4.17.55,3.14-.07,3.55-.61,5.26-.27,1.84.41,2.73,1.37,3,1.09.45-.49-2.21-3.29-5.83-8.41Z"/>
      <path class="cls-1" d="m229.4,83.17c-1.43-1.02-2.19-.89-3.82-2.25-.75-.61-1.43-1.37-1.71-1.64-1.37-1.37-1.64-1.98-2.59-2.39-.82-.34-1.02-.14-1.5-.55-.75-.61-.55-1.3-1.16-2.12-.41-.55-.96-.75-1.84-1.09-1.23-.48-3.28-1.3-4.92-2.25-1.5-.96-2.94-2.19-3-2.25-.89-.82-1.43-1.43-2.46-1.78-.68-.27-1.23-.27-2.05-.27-1.84-.07-3.62-.14-4.98-.55-1.02-.34-1.98-1.09-3.82-2.66-1.91-1.64-2.12-2.19-4.1-3.76-2.32-1.84-3.14-1.98-3.48-1.98-1.37-.07-2.46.82-3.55,1.71-1.98,1.57-1.64,2.39-3.82,4.37-.48.48-.27.27-3.28,2.59-2.39,1.91-2.19,1.78-2.59,2.05-2.59,1.71-3.48,1.23-5.05,2.73-1.23,1.09-.89,1.57-2.25,3-.27.34-1.02,1.09-4.17,2.87-3.96,2.25-5.94,3.35-7.51,3.82-.55.2-1.37.41-2.12,1.09-.75.61-.82,1.16-1.71,3-1.02,2.19-1.71,3-1.5,3.21.2.27,1.23-.48,1.78-.68.89-.75,1.23-1.37,1.78-2.05.68-.96,1.37-1.5,2.73-2.59,1.23-.96,2.19-1.5,4.1-2.66,2.05-1.23,2.53-1.37,2.73-1.16.34.34,0,1.37-.34,1.98-.48.89-1.09,1.23-1.71,1.71-1.37,1.09-1.91,2.53-2.32,3.48-.82,2.12-.89,4.58-.41,4.71.27.14.82-.75,1.84-2.39,1.3-2.12,1.43-2.8,2.39-3.41.89-.61,1.23-.27,1.98-.82,1.23-.82,1.16-1.98,1.98-3.82.48-1.09,1.57-2.53,3.89-5.33,1.16-1.5,1.78-2.25,2.39-2.66,1.02-.75,1.37-.68,4.17-2.12,1.5-.82,2.32-1.23,2.73-1.71.89-1.02.89-1.91,1.84-2.32.75-.34,1.57-.07,1.78,0,1.57.48,2.19,2.25,2.32,2.66.68,1.98-.2,2.73.55,3.76.68.89,1.5.41,3.14,1.5.96.61,1.43,1.3,1.98,1.98,1.3,1.71,1.02,2.32,2.12,4.1,1.02,1.71,2.19,2.73,4.03,4.3.89.75,1.5,1.3,2.46,1.84,1.37.82,2.59,1.16,3.48,1.37,2.46.61,2.59.07,4.17.68,1.84.75,1.71,1.5,3.82,2.25.82.27,2.05.75,3.55.41.14-.07,2.32-.55,2.46-1.64.07-.14,0-.48-1.84-2.46-1.02-1.02-1.64-1.64-1.64-1.64-1.37-1.23-2.39-2.12-2.73-2.39-2.19-1.78-3.76-3.62-4.98-5.05-1.23-1.43-3.76-4.44-3.28-4.98.2-.27,1.23.2,3.28,1.23,2.46,1.23,3.14,1.84,5.26,2.94,2.53,1.37,2.53.96,4.17,1.98,1.09.68,2.87,1.78,4.37,3.69,1.57,1.98,1.23,2.66,2.87,4.51,1.57,1.71,3.35,2.59,3.48,2.46.14-.2-1.43-1.37-2.66-3.76-.14-.34-1.23-2.53-.68-2.94.2-.2.82.07,2.12.89,2.53,1.64,4.3,3.28,4.92,3.89,3.48,3.35,3.96,3.69,4.1,3.55.41-.27-.82-2.73-1.84-4.37-1.1-1.57-1.85-2.8-3.35-3.82Z"/>
      <path class="cls-1" d="m178.59,59.06c.2.14.82-.55,2.25-2.46,2.32-3,2.12-2.8,2.87-3.76,1.23-1.5,1.57-1.71,2.12-2.73.27-.41.55-1.09,1.09-2.39,1.02-2.39.96-2.66.89-2.73-.27-.14-1.16.48-1.71,1.09-.89.96-.75,1.5-1.43,2.39-.75.96-1.09.55-2.66,1.84-1.23,1.09-1.43,1.71-2.66,2.25-.68.27-.75.14-1.37.41-1.09.41-1.78,1.16-3.21,3-1.5,1.98-2.25,2.94-2.66,3.82-1.16,2.39-1.57,5.12-1.23,5.26.27.07.96-1.16,1.64-2.32.96-1.5.89-1.78,1.64-2.94,1.02-1.57,1.98-2.39,2.32-2.66.41-.34,1.91-1.57,2.46-1.23.61.5-.69,2.96-.35,3.16Z"/>
      <path class="cls-1" d="m181.73,70.81c-.41-.07-.96.61-1.09.68-.55.68-.48,1.3-.68,2.12-.14.68-.27.68-1.78,3.21-.89,1.43-1.3,2.19-1.43,2.46-.82,1.98-.27,2.59-1.16,4.17-.55.96-.75.82-1.37,1.98-.07.14-1.3,2.39-.82,2.73.27.27,1.3-.48,1.84-.96.55-.48.89-.96,1.64-2.39.48-.96.75-1.43,1.16-2.39,1.3-3.07,1.02-3.69,2.12-5.33.75-1.09.96-.89,1.37-1.78.96-1.9.82-4.29.2-4.5Z"/>
      <path class="cls-1" d="m129.43,19.87c-.07-.27-.61-1.98-.96-1.98-.34.07-.41,1.78-.41,3.21-.07,3.21.27,3.14.34,6.49,0,1.84-.07,2.8.61,3.69.27.41.68.68.96,1.37.34.75.27,1.43.27,1.98-.07,1.64.2-.96.07,5.19-.07,2.39-.07,2.46,0,2.87.34,1.98,1.5,3.89,1.98,3.76.48-.14.34-2.46.27-3-.14-1.5-.48-2.59-.55-4.64,0-1.09.07-1.43.27-1.5.68-.34,2.25,1.5,2.46,1.78.2.27,1.02,1.23,1.78,2.94.61,1.37.48,1.57,1.09,2.94.55,1.02,1.5,2.94,1.84,2.87.34-.14,0-2.12-.27-3.28-.2-1.02-.82-3.21-2.59-6.21-.27-.48-.2-.27-2.66-4.03-1.37-2.12-2.12-3.14-2.25-3.41-.41-.82-1.71-3.28-1.84-6.49-.07-1.55.13-2.71-.41-4.55Z"/>
      <path class="cls-1" d="m119.46,76.27c-.96-2.53-1.43-3.82-1.64-5.46-.27-2.05.27-1.78.2-4.98-.07-2.39-.41-4.1-1.5-5.6-.14-.2-.82-1.09-1.16-.96-.27.14-.07,1.09.27,3.14.2,1.23.34,2.19.41,3,.27,2.66-.27,2.8,0,5.05.07.68.41,1.78.96,3.89.55,1.98.82,3,1.16,3.89.48,1.43.68,1.64.68,2.39.07,1.02-.2,1.64.2,2.25.34.55.96.96,1.37.75.75-.34.34-2.87.27-3.48-.27-1.49-.61-2.17-1.22-3.88Z"/>
    </g>
  </g>
</svg>