<?xml version="1.0" encoding="UTF-8"?>
<svg id="Calque_2" data-name="Calque 2" xmlns="http://www.w3.org/2000/svg" viewBox="0 0 38.96 40">
  <defs>
    <style>
      .cls-1 {
        fill: #fcbe11;
      }

      .cls-2 {
        fill: #fe76b8;
      }

      .cls-3 {
        fill: none;
        stroke: #fe76b8;
        stroke-miterlimit: 10;
      }
    </style>
  </defs>
  <g id="Calque_1-2" data-name="Calque 1">
    <line class="cls-3" x1="19.48" y1="40" x2="19.48"/>
    <path class="cls-2" d="m19.48,3.13S0,2.04,0,17.88c0,0,2.79-3.34,6.12,0,0,0,4.37-3.21,7.79,1.2,0,0,1.01-2.47,5.57-2.47s5.57,2.47,5.57,2.47c3.42-4.41,7.79-1.2,7.79-1.2,3.34-3.34,6.12,0,6.12,0,0-15.84-19.48-14.75-19.48-14.75h0Z"/>
    <path class="cls-1" d="m6.11,17.89S9.5,3.14,19.47,3.14c0,0-7.22,7.6-5.57,15.96.15.26-2.84-4.52-7.79-1.21h0Z"/>
    <path class="cls-1" d="m32.84,17.89s-3.39-14.75-13.36-14.75c0,0,7.22,7.6,5.57,15.96-.12.26,2.85-4.52,7.79-1.21h0Z"/>
  </g>
</svg>