<?xml version="1.0" encoding="UTF-8"?>
<svg id="Calque_2" data-name="Calque 2" xmlns="http://www.w3.org/2000/svg" viewBox="0 0 127.7 102.8">
  <defs>
    <style>
      .cls-1 {
        fill: #212121;
      }

      .cls-2 {
        fill: #4e4d4d;
      }
    </style>
  </defs>
  <g id="Calque_1-2" data-name="Calque 1">
    <g>
      <polygon class="cls-2" points="0 102.8 127.7 102.8 127.7 98.16 122.87 90.36 122.25 73.09 117.06 67.86 117.43 52.25 109.62 48.56 103.4 54.42 96.95 45.99 98.57 10.23 82.11 0 74.9 6.44 74.27 29.49 63.85 28.98 63.85 43.37 63.85 58.84 52.58 52.39 40.54 56 41.35 71.65 22.9 72.28 11.86 77.29 12.04 89.73 0 96.98 0 102.8"/>
      <polygon class="cls-1" points="111.75 88.59 115.92 86.71 115.92 78.17 114.44 76.95 114.44 56.22 111.75 57.81 111.75 79.49 109.21 81.78 111.75 88.59"/>
      <polygon class="cls-1" points="127.7 102.8 127.7 98.9 101.04 98.9 100.12 85.64 101.85 81.92 98.39 74.27 98.39 68.12 95.7 68.12 95.7 84.83 90.21 85.46 89.55 91.83 84.06 95.14 85.94 98.38 0 97.98 0 102.8 127.7 102.8"/>
      <path class="cls-1" d="m4.31,94.37h4.31l7.44-5.78-1.4-8.91,7.62-3.42.59-4.01s-11.05,4.01-11.05,5.01.22,12.45.22,12.45l-7.73,4.66Z"/>
      <polygon class="cls-1" points="38.55 95.77 45.59 93.56 45.59 90.95 52.8 90.95 52.8 87.74 45.66 87.74 45.66 83.32 38.55 80.12 33.33 83.32 36.93 86.53 35.94 90.36 38.55 95.77"/>
      <polygon class="cls-1" points="66.46 92.16 70.48 92.16 74.09 90.54 71.88 88.59 74.09 87.12 76.88 83.32 71.69 81.7 69.26 83.32 62.86 83.32 62.86 87.93 66.46 92.16"/>
      <polygon class="cls-1" points="41.35 71.65 45.99 71.65 46.99 66.46 50.01 64.03 48.16 60.24 45.66 61.05 42.13 55.52 40.54 56 41.35 71.65"/>
      <polygon class="cls-1" points="82.11 0 83.51 30.3 78.5 35.12 78.5 52.39 81.01 58.21 77.92 63.59 71.47 59.83 74.49 55.52 74.27 29.49 74.9 6.44 82.11 0"/>
      <polygon class="cls-1" points="85.54 50.41 88.34 44.15 85.54 38.55 83.51 44.48 85.54 50.41"/>
      <polygon class="cls-1" points="96.95 45.99 92.94 51.4 94.96 55.52 101.37 56.22 103.4 54.42 96.95 45.99"/>
    </g>
  </g>
</svg>