<?xml version="1.0" encoding="UTF-8"?>
<svg id="Calque_2" data-name="Calque 2" xmlns="http://www.w3.org/2000/svg" viewBox="0 0 128 80.25">
  <defs>
    <style>
      .cls-1 {
        fill: #212121;
      }

      .cls-2 {
        fill: #4e4d4d;
      }
    </style>
  </defs>
  <g id="Calque_1-2" data-name="Calque 1">
    <g>
      <polygon class="cls-2" points="0 80.24 128 80.24 128 77 110.46 70.93 110.46 62.94 94.26 58.94 94.26 49.94 88.95 37.23 78.61 32.16 77.54 16.2 68.51 12.51 64 0 38.77 0 30.54 6.38 29.74 32.4 29.47 48.6 18.58 50.18 13.54 64.66 0 75.14 0 80.24"/>
      <path class="cls-1" d="m0,80.24v-4c0-.14,28.81,0,28.81,0v-8.37l10.48-10.1,2.41,8.79-1.72,1.59,2.52,8.24,83.09-.17,2.41.86v3.17H0Z"/>
      <polygon class="cls-1" points="18.58 50.18 23.23 58.73 29.09 50.18 29.47 48.6 18.58 50.18"/>
      <polygon class="cls-1" points="64 63.59 64 47.39 68.38 51.53 68.38 59.76 64 63.59"/>
      <polygon class="cls-1" points="50.73 41.84 56.28 38.02 56.28 27.09 50.04 29.64 50.73 41.84"/>
      <polygon class="cls-1" points="89.23 76.27 89.23 61.76 87.37 59.39 87.37 49.56 84.44 45.67 84.89 35.23 88.95 37.23 94.26 49.94 94.26 58.94 95.74 59.35 95.74 76.27 89.23 76.27"/>
      <polygon class="cls-1" points="78.61 32.16 71.03 36.02 71.03 15.58 72.03 13.96 77.54 16.2 78.61 32.16"/>
      <polygon class="cls-1" points="60.93 0 60.93 16.99 55.38 20.75 48.59 17.17 48.59 0 60.93 0"/>
    </g>
  </g>
</svg>