<?xml version="1.0" encoding="UTF-8"?>
<svg id="Calque_2" data-name="Calque 2" xmlns="http://www.w3.org/2000/svg" viewBox="0 0 128 85.79">
  <defs>
    <style>
      .cls-1 {
        fill: #fe76b8;
      }
    </style>
  </defs>
  <g id="Calque_1-2" data-name="Calque 1">
    <g>
      <path class="cls-1" d="m66.8,58.57c-1.23-4.9-18.61,24.81-17.16,26,7.84,3.52,31.55-1.71,31.51-1.71-16.31,1.9-13.57-21.2-14.35-24.29Z"/>
      <path class="cls-1" d="m117.35.41c-1.48,2.81-4.35,25.9-19.74,20.16-.03,0,21.74,10.74,30.19,9.19,1.71-.8-8.06-33.8-10.45-29.35Z"/>
      <path class="cls-1" d="m5.58,2.15c.06,3.16,6.81,25.36-5.58,25.97,0,.03,18.48,1.52,23.52-3.13C24.35,23.6,5.52-2.82,5.58,2.15Z"/>
    </g>
  </g>
</svg>