<?xml version="1.0" encoding="UTF-8"?>
<svg id="Calque_2" data-name="Calque 2" xmlns="http://www.w3.org/2000/svg" viewBox="0 0 110.68 128.02">
  <defs>
    <style>
      .cls-1 {
        fill: #fe76b8;
      }
    </style>
  </defs>
  <g id="Calque_1-2" data-name="Calque 1">
    <path class="cls-1" d="m110.68,126.45s-27.06-2.03-33.43-21.6c0,0-5.46,5.46-5.23,12.96,0,0-5-1.6-4.77-8.43,0,0-8.87-15.93-17.06-6.37l1.6-4.1s-12.96-4.33-9.33-20.46c0,0,10.23-13.2,16.6-1.13,0,0,3.4-5.9-.9-11.6,0,0,34.13,5.46,31.16-24.13,0,0-5-23.43-28.89-12.3,0,0-2.5-6.13,2.5-9.8,0,0,6.37-16.37-20.03-19.33s-25.5,36.44-18.66,38.71c0,0-18.2.23-6.83,18.66,0,0,6.13,7.96,4.1,10.93,0,0-4.33-2.03-6.37.23s-.23,13.87,5.7,12.5c0,0,2.03,14.33-8.87,2.27,0,0-2.03-3.2,0-12.3,0,0,.23-2.88-.9-7.94,0,0-2.5,14.3-6.6,16.1,0,0-12.73,21.39,4.77,35.72s30.93,2.27,30.93,2.27c0,0-1.37,11.83,26.63,10.46,0,0-5-6.13-2.27-8.2-.04.05,2.7,12.81,46.15,6.88h0Z"/>
  </g>
</svg>