<?xml version="1.0" encoding="utf-8"?>
<!-- Generator: Adobe Illustrator 27.6.1, SVG Export Plug-In . SVG Version: 6.00 Build 0)  -->
<svg version="1.1" id="Calque_1" xmlns="http://www.w3.org/2000/svg" xmlns:xlink="http://www.w3.org/1999/xlink" x="0px" y="0px"
	 viewBox="0 0 20 20" style="enable-background:new 0 0 20 20;" xml:space="preserve">
<style type="text/css">
	.st0{fill:#FCBE1A;}
</style>
<path class="st0" d="M20,9.27h-3.04c-0.3-3.33-2.92-5.98-6.24-6.32V0H9.28v2.95C5.95,3.29,3.34,5.93,3.03,9.27H0v1.45h3.05
	c0.38,3.25,2.96,5.81,6.22,6.14V20h1.45v-3.14c3.26-0.34,5.84-2.89,6.22-6.14H20V9.27z M15.51,9.27h-4.79V4.4
	C13.23,4.73,15.22,6.73,15.51,9.27z M9.27,4.4v4.87h-4.8C4.77,6.73,6.74,4.73,9.27,4.4z M4.49,10.72h4.78v4.7
	C6.8,15.09,4.85,13.17,4.49,10.72z M10.72,15.41v-4.7h4.78C15.13,13.17,13.18,15.09,10.72,15.41z"/>
</svg>
