<?xml version="1.0" encoding="utf-8"?>
<!-- Generator: Adobe Illustrator 27.6.1, SVG Export Plug-In . SVG Version: 6.00 Build 0)  -->
<svg version="1.1" id="Calque_1" xmlns="http://www.w3.org/2000/svg" xmlns:xlink="http://www.w3.org/1999/xlink" x="0px" y="0px"
	 viewBox="0 0 20 20" style="enable-background:new 0 0 20 20;" xml:space="preserve">
<style type="text/css">
	.st0{fill:#FCBE11;}
</style>
<path class="st0" d="M17.96,7.67c0-0.12-0.01-0.24-0.03-0.36C17.6,3.22,14.18,0,9.99,0s-7.6,3.22-7.93,7.32
	C2.05,7.43,2.04,7.55,2.04,7.68c0,0.06,0,0.11,0,0.16c0,0.04,0,0.08,0,0.13c0,0.42,0.04,0.83,0.1,1.23C2.7,13.71,5.75,18.07,10,20
	c4.25-1.93,7.29-6.29,7.87-10.8c0.06-0.4,0.1-0.82,0.1-1.23c0-0.04,0-0.08,0-0.13C17.95,7.78,17.95,7.72,17.96,7.67L17.96,7.67z
	 M9.08,13.57c-1.38,0.22-2.83-0.2-3.89-1.26S3.71,9.8,3.93,8.42C5.3,8.2,6.75,8.63,7.81,9.69S9.29,12.2,9.08,13.57z M14.8,12.31
	c-1.06,1.06-2.51,1.47-3.89,1.26c-0.22-1.38,0.2-2.83,1.26-3.89s2.51-1.47,3.89-1.26C16.28,9.8,15.86,11.25,14.8,12.31L14.8,12.31z"
	/>
</svg>
