<?xml version="1.0" encoding="UTF-8"?>
<svg id="Calque_2" data-name="Calque 2" xmlns="http://www.w3.org/2000/svg" viewBox="0 0 100 100">
  <defs>
    <style>
      .cls-1 {
        fill: #e8629f;
      }
    </style>
  </defs>
  <g id="Calque_1-2" data-name="Calque 1">
    <circle class="cls-1" cx="50" cy="50" r="50"/>
    <path d="m73.76,36.88c-.72-4.34,3.23-12.38,3.23-12.38l-7.57-5.71c-4.53,2.87-13.07,4.6-20.21-1.31-6.91,6.17-15.5,4.76-20.14,2.06l-7.34,5.98s4.27,7.88,3.72,12.26c-1.2,9.56-5.68,12.15-5.27,19.82.86,17.11,19.15,17.78,30.32,24.87l.12-.02c10.86-7.5,29.1-8.84,29.28-25.98.04-7.67-4.55-10.11-6.14-19.59Zm-13.54,28.85l-10.23-5.38-10.23,5.38,1.96-11.39-8.27-8.08,11.45-1.68,5.11-10.37,5.11,10.37,11.45,1.68-8.27,8.08,1.92,11.39Z"/>
  </g>
</svg>